<?xml version="1.0" encoding="utf-8"?>
<!-- Generator: Adobe Illustrator 22.0.0, SVG Export Plug-In . SVG Version: 6.00 Build 0)  -->
<svg version="1.1" xmlns="http://www.w3.org/2000/svg" xmlns:xlink="http://www.w3.org/1999/xlink" x="0px" y="0px"
	 viewBox="0 0 841.9 595.3" style="enable-background:new 0 0 841.9 595.3;" xml:space="preserve">
<style type="text/css">
	.st0{fill:#738C8D;}
	.st1{fill:#434264;}
	.st2{fill:#FFFFFF;}
	.st3{clip-path:url(#SVGID_2_);}
	.st4{clip-path:url(#SVGID_4_);fill:#738C8D;}
	.st5{clip-path:url(#SVGID_4_);}
	.st6{fill:none;stroke:#FFFFFF;stroke-width:2.8203;stroke-miterlimit:10;}
	.st7{clip-path:url(#SVGID_6_);}
	.st8{clip-path:url(#SVGID_8_);fill:#434264;}
	.st9{clip-path:url(#SVGID_8_);}
	.st10{fill:#EEA3A2;}
</style>
<g id="Layer_1">
	<g>
		<path d="M151.2,111.6c-0.6-0.6-1-1.7-1-3.1V96.4c0-1.4-0.3-2.6-0.9-3.3c-0.6-0.8-1.5-1.4-2.7-1.8v-3.6h11.4v3.8h-5.3
			c1.5,1,2.3,2.6,2.3,4.8v11.1c0,1,0.5,1.5,1.5,1.5h1.2v3.8h-3.3C152.9,112.6,151.8,112.3,151.2,111.6z"/>
		<path d="M161.5,111.5c-1.2-1-1.9-2.5-1.9-4.6c0-1.9,0.7-3.4,2-4.5c1.3-1,3.2-1.6,5.7-1.6h5.5v-0.9c0-1.2-0.3-2-1-2.5
			c-0.7-0.5-1.9-0.7-3.6-0.7c-2.3,0-4.4,0.3-6.4,1v-3.6c1-0.3,2.2-0.6,3.5-0.8c1.3-0.2,2.5-0.3,3.7-0.3c2.9,0,5.1,0.6,6.5,1.9
			c1.4,1.2,2.1,3.1,2.1,5.7v12.2h-4.9v-8.2h-5.2c-1.1,0-1.9,0.2-2.5,0.6c-0.6,0.4-0.8,1-0.8,1.9c0,0.9,0.3,1.5,0.8,1.8
			c0.5,0.3,1.4,0.5,2.7,0.5c1.1,0,1.9-0.1,2.5-0.3v3.6c-1.1,0.3-2.3,0.5-3.8,0.5C164.4,112.9,162.8,112.5,161.5,111.5z"/>
		<path d="M184.2,111.6c-0.6-0.6-1-1.7-1-3.1V96.4c0-1.4-0.3-2.6-0.9-3.3c-0.6-0.8-1.5-1.4-2.7-1.8v-3.6H191v3.8h-5.3
			c1.5,1,2.3,2.6,2.3,4.8v11.1c0,1,0.5,1.5,1.5,1.5h1.2v3.8h-3.3C185.9,112.6,184.8,112.3,184.2,111.6z"/>
		<path d="M193.4,106.4c0-1.2,0.2-2.2,0.6-3c0.4-0.8,1.1-1.4,2.2-1.7l-3.7-1v-4.6c1.1-0.9,2.5-1.7,4.2-2.3c1.6-0.6,3.4-0.9,5.4-0.9
			c3.1,0,5.4,0.6,6.9,1.9c1.5,1.2,2.3,3.3,2.3,6.2v11.7h-4.9v-11.8c0-1.5-0.4-2.6-1.1-3.2c-0.7-0.6-1.9-1-3.6-1c-1,0-2,0.2-2.9,0.5
			c-0.9,0.3-1.7,0.7-2.2,1.2v0.5l4,1.1v3c-0.9,0.2-1.6,0.6-1.9,1.2c-0.3,0.5-0.5,1.4-0.5,2.5v6.2h-4.9V106.4z"/>
		<path d="M202.6,87.3h-2.8V84h6.1v3.2h7.7l-0.2,3.3h-10.8V87.3z"/>
		<path d="M215.6,93.1h4.9v5.9h4.8c1.2,0,2-0.3,2.5-0.8c0.5-0.5,0.7-1.4,0.7-2.5v-2.6h4.9v2.4c0,2.7-0.9,4.4-2.8,5.2
			c1,0.4,1.6,1,2,1.7c0.4,0.8,0.6,1.7,0.6,2.9v7.2h-4.9v-6.7c0-1.2-0.2-2.1-0.7-2.6c-0.5-0.5-1.3-0.7-2.5-0.7h-4.7v10h-4.9V93.1z"/>
		<path d="M239.4,111c-1.2-1.3-1.8-3-1.8-5.3V93.1h4.9v12.3c0,1.3,0.3,2.2,0.9,2.8c0.6,0.6,1.5,0.9,2.6,0.9c0.9,0,1.8-0.2,2.6-0.6
			c0.9-0.4,1.6-0.9,2.1-1.4v-14h4.9v19.4h-4.5l-0.2-1.9c-1.9,1.5-4.1,2.3-6.6,2.3C242.2,112.9,240.6,112.3,239.4,111z"/>
		<path d="M246.8,87.3H244V84h6.1v3.2h7.7l-0.2,3.3h-10.8V87.3z"/>
		<path d="M266.7,100.6c0-1.4-0.3-2.4-0.8-3.1s-1.5-1-3-1c-0.8,0-1.6,0.1-2.5,0.3c-0.9,0.2-1.7,0.4-2.4,0.7v-3.6
			c0.7-0.3,1.6-0.6,2.7-0.8c1.1-0.2,2.1-0.3,3.1-0.3c2.7,0,4.7,0.6,5.9,1.7c1.2,1.2,1.8,3,1.8,5.4v12.6h-4.9V100.6z"/>
		<path d="M278.1,111.6c-0.6-0.6-1-1.7-1-3.1V96.4c0-1.4-0.3-2.6-0.9-3.3c-0.6-0.8-1.5-1.4-2.7-1.8v-3.6h11.4v3.8h-5.3
			c1.5,1,2.3,2.6,2.3,4.8v11.1c0,1,0.5,1.5,1.5,1.5h1.2v3.8h-3.3C279.8,112.6,278.7,112.3,278.1,111.6z"/>
		<path d="M290.1,112.5c-1.4-0.3-2.6-0.6-3.7-1.1v-10.2h8.2l0.2,3.6H291v3.9c0.4,0.1,1,0.3,1.6,0.3c0.6,0.1,1.3,0.1,1.8,0.1
			c1.3,0,2.4-0.2,3.1-0.6c0.8-0.4,1.3-1.1,1.7-2c0.3-0.9,0.5-2.1,0.5-3.7c0-1.7-0.2-2.9-0.6-3.9c-0.4-0.9-1.1-1.6-2-1.9
			c-0.9-0.4-2.2-0.6-3.9-0.6c-2.3,0-4.5,0.3-6.6,1v-3.6c1.1-0.4,2.3-0.6,3.7-0.8c1.4-0.2,2.8-0.3,4.1-0.3c1.2,0,2.3,0.1,3.5,0.4h8
			l-0.3,3.7h-2.7c1,1.5,1.5,3.5,1.5,6.1c0,3.3-0.8,5.8-2.4,7.5c-1.6,1.7-4.1,2.5-7.6,2.5C292.9,112.9,291.5,112.8,290.1,112.5z"/>
		<path d="M313.9,110.7l-0.2,1.9h-4.5V93.1h4.9v14c0.5,0.6,1.2,1.1,2.1,1.4c0.9,0.4,1.8,0.6,2.6,0.6c1.2,0,2.1-0.3,2.6-0.9
			c0.6-0.6,0.9-1.5,0.9-2.8V93.1h4.9v12.6c0,2.2-0.6,4-1.8,5.3c-1.2,1.3-2.8,1.9-4.9,1.9C318,112.9,315.8,112.2,313.9,110.7z"/>
		<path class="st0" d="M157.4,136.3h4.7l2.6,12.5l3-9.4v-3.1h3.4l3.5,12.5l3.4-18.3h4.6l-5.5,25.2h-4.2l-3.2-11.1l-3.5,11.1H162
			L157.4,136.3z"/>
		<path class="st0" d="M166.4,130.5h-2.8v-3.3h6.1v3.2h5.5l-0.2,3.3h-8.6V130.5z"/>
		<path class="st0" d="M187.6,155.7c-1.4-0.3-2.6-0.6-3.7-1.1v-10.2h8.2l0.2,3.6h-3.9v3.9c0.4,0.1,1,0.3,1.6,0.3
			c0.6,0.1,1.3,0.1,1.8,0.1c1.3,0,2.4-0.2,3.1-0.6c0.8-0.4,1.3-1.1,1.7-2c0.3-0.9,0.5-2.1,0.5-3.7c0-1.7-0.2-2.9-0.6-3.9
			c-0.4-0.9-1.1-1.6-2-1.9c-0.9-0.4-2.2-0.6-3.9-0.6c-2.3,0-4.5,0.3-6.6,1v-3.6c1.1-0.4,2.3-0.6,3.7-0.8c1.4-0.2,2.8-0.3,4.1-0.3
			c3.4,0,6,0.9,7.6,2.6c1.6,1.7,2.4,4.2,2.4,7.6c0,3.3-0.8,5.8-2.4,7.5c-1.6,1.7-4.1,2.5-7.6,2.5C190.4,156.1,189,156,187.6,155.7z"
			/>
		<path class="st0" d="M207.1,154.2c-1.2-1.3-1.8-3-1.8-5.3v-12.6h4.9v12.3c0,1.3,0.3,2.2,0.9,2.8c0.6,0.6,1.5,0.9,2.6,0.9
			c0.9,0,1.8-0.2,2.6-0.6c0.9-0.4,1.6-0.9,2.1-1.4v-14h4.9v19.4h-4.5l-0.2-1.9c-1.9,1.5-4.1,2.3-6.6,2.3
			C209.9,156.1,208.3,155.5,207.1,154.2z"/>
		<path class="st0" d="M228.8,154.7c-1.2-1-1.9-2.5-1.9-4.6c0-1.9,0.7-3.4,2-4.5c1.3-1,3.2-1.6,5.7-1.6h5.5V143c0-1.2-0.3-2-1-2.5
			c-0.7-0.5-1.9-0.7-3.6-0.7c-2.3,0-4.4,0.3-6.4,1v-3.6c1-0.3,2.2-0.6,3.5-0.8c1.3-0.2,2.5-0.3,3.7-0.3c1.3,0,2.5,0.1,3.5,0.4h6.8
			l-0.3,3.7h-2.2c0.6,0.9,0.9,2.1,0.9,3.5v12.2h-4.9v-8.2h-5.2c-1.1,0-1.9,0.2-2.5,0.6c-0.6,0.4-0.8,1-0.8,1.9
			c0,0.9,0.3,1.5,0.8,1.8c0.5,0.3,1.4,0.5,2.7,0.5c1.1,0,1.9-0.1,2.5-0.3v3.6c-1.1,0.3-2.3,0.5-3.8,0.5
			C231.7,156.1,230,155.7,228.8,154.7z"/>
		<path class="st0" d="M230.2,130.4h11.5v-2.9h4v6.2h-15.7L230.2,130.4z"/>
		<path class="st0" d="M251,154.8c-0.6-0.6-1-1.7-1-3.1v-15.4h4.9v14.1c0,1,0.5,1.5,1.5,1.5h1.2v3.8h-3.3
			C252.7,155.8,251.6,155.5,251,154.8z"/>
		<path class="st0" d="M262.8,154.2c-1.5-1.3-2.2-3.2-2.2-5.5v-1.2c0-0.9,0.2-1.6,0.5-2.3c0.3-0.7,0.8-1.4,1.4-2.2
			c0.4-0.5,0.7-0.9,0.8-1.2c0.2-0.3,0.3-0.6,0.3-0.9c0-0.4-0.1-0.6-0.3-0.7c-0.2-0.1-0.5-0.2-0.9-0.2h-2.3l0.4-3.6h5
			c2,0,3,0.9,3,2.8c0,0.7-0.1,1.4-0.4,2c-0.3,0.6-0.6,1.3-1.2,2.1c-0.5,0.8-0.9,1.5-1.2,2.1c-0.3,0.6-0.4,1.3-0.4,2v1.5
			c0,1.1,0.3,2,1,2.6c0.7,0.6,1.6,0.9,2.9,0.9c2.6,0,4-1.2,4-3.6v-12.4h4.9v12.2c0,2.4-0.8,4.2-2.4,5.6c-1.6,1.4-3.7,2-6.5,2
			C266.5,156.1,264.3,155.5,262.8,154.2z"/>
		<path class="st0" d="M262.7,130.4h11.5v-2.9h4v6.2h-15.7L262.7,130.4z"/>
		<path class="st0" d="M284,154.7c-1.7-1-2.5-2.6-2.5-4.8c0-0.9,0.2-1.7,0.6-2.4c0.4-0.7,1-1.3,1.8-1.8c-0.7-0.3-1.3-0.8-1.7-1.5
			c-0.4-0.7-0.6-1.5-0.6-2.4c0-1.8,0.6-3.3,1.7-4.3c1.2-1,2.7-1.5,4.7-1.5c1.3,0,2.5,0.2,3.3,0.5v3.6c-0.7-0.2-1.5-0.3-2.5-0.3
			c-0.9,0-1.6,0.2-2,0.5c-0.4,0.3-0.7,0.8-0.7,1.5c0,0.8,0.2,1.3,0.7,1.6c0.5,0.3,1.2,0.5,2.3,0.5h2l0.2,3.6h-2.2
			c-2,0-3.1,0.8-3.1,2.5c0,0.8,0.4,1.5,1.1,1.9c0.7,0.4,1.9,0.6,3.4,0.6c3,0,4.6-1.3,4.6-3.8v-12.2h4.9v11.8c0,2.7-0.8,4.8-2.3,6
			s-3.9,1.9-6.9,1.9C287.9,156.1,285.7,155.7,284,154.7z"/>
		<path class="st0" d="M303,155v-3.7c1.6,0.7,3.3,1.1,5,1.1c2.3,0,3.9-0.5,4.9-1.4s1.4-2.6,1.4-4.9c0-2.3-0.5-3.9-1.4-4.9
			c-1-0.9-2.6-1.4-4.9-1.4c-1.7,0-3.4,0.4-5,1.1v-3.7c1.8-0.8,3.9-1.2,6.2-1.2c3.3,0,5.7,0.9,7.3,2.6c1.6,1.7,2.4,4.2,2.4,7.5
			s-0.8,5.8-2.4,7.5s-4.1,2.6-7.3,2.6C306.8,156.1,304.8,155.8,303,155z"/>
	</g>
	<g>
		<path d="M485.7,111.6c-0.6-0.6-1-1.7-1-3.1V96.4c0-1.4-0.3-2.6-0.9-3.3s-1.5-1.4-2.7-1.8v-3.6h11.4v3.8h-5.3
			c1.5,1,2.3,2.6,2.3,4.8v11.1c0,1,0.5,1.5,1.5,1.5h1.2v3.8h-3.3C487.4,112.6,486.3,112.3,485.7,111.6z"/>
		<path d="M496,111.5c-1.2-1-1.9-2.5-1.9-4.6c0-1.9,0.7-3.4,2-4.5s3.2-1.6,5.7-1.6h5.5v-0.9c0-1.2-0.3-2-1-2.5
			c-0.7-0.5-1.9-0.7-3.6-0.7c-2.3,0-4.4,0.3-6.4,1v-3.6c1-0.3,2.2-0.6,3.5-0.8c1.3-0.2,2.5-0.3,3.7-0.3c2.9,0,5.1,0.6,6.5,1.9
			c1.4,1.2,2.1,3.1,2.1,5.7v12.2h-4.9v-8.2h-5.2c-1.1,0-1.9,0.2-2.5,0.6c-0.6,0.4-0.8,1-0.8,1.9c0,0.9,0.3,1.5,0.8,1.8
			c0.5,0.3,1.4,0.5,2.7,0.5c1.1,0,1.9-0.1,2.5-0.3v3.6c-1.1,0.3-2.3,0.5-3.8,0.5C498.9,112.9,497.2,112.5,496,111.5z"/>
		<path d="M518.6,111.6c-0.6-0.6-1-1.7-1-3.1V96.4c0-1.4-0.3-2.6-0.9-3.3s-1.5-1.4-2.7-1.8v-3.6h11.4v3.8h-5.3
			c1.5,1,2.3,2.6,2.3,4.8v11.1c0,1,0.5,1.5,1.5,1.5h1.2v3.8h-3.3C520.4,112.6,519.3,112.3,518.6,111.6z"/>
		<path d="M527.9,106.4c0-1.2,0.2-2.2,0.6-3c0.4-0.8,1.1-1.4,2.2-1.7l-3.7-1v-4.6c1.1-0.9,2.5-1.7,4.2-2.3c1.6-0.6,3.5-0.9,5.4-0.9
			c3.1,0,5.4,0.6,6.9,1.9c1.5,1.2,2.3,3.3,2.3,6.2v11.7H541v-11.8c0-1.5-0.4-2.6-1.1-3.2c-0.7-0.6-1.9-1-3.6-1c-1,0-2,0.2-2.9,0.5
			s-1.7,0.7-2.2,1.2v0.5l4,1.1v3c-0.9,0.2-1.6,0.6-1.9,1.2c-0.3,0.5-0.5,1.4-0.5,2.5v6.2h-4.9V106.4z"/>
		<path d="M537.1,87.3h-2.8V84h6.1v3.2h7.7l-0.2,3.3h-10.8V87.3z"/>
		<path d="M551.2,111.6c-0.6-0.6-1-1.7-1-3.1V93.1h4.9v14.1c0,1,0.5,1.5,1.5,1.5h1.2v3.8h-3.3C552.9,112.6,551.8,112.3,551.2,111.6z
			 M560.4,111.6c-0.6-0.6-1-1.7-1-3.1V93.1h4.9v14.1c0,1,0.5,1.5,1.5,1.5h1.2v3.8h-3.3C562.1,112.6,561,112.3,560.4,111.6z"/>
		<path d="M571.5,111.5c-0.7-0.7-1-1.6-1-2.8v-2.4c0-1.2,0.2-2.2,0.6-3c0.4-0.8,1.1-1.4,2.2-1.7l-3.7-1v-4.6
			c1.1-0.9,2.5-1.7,4.2-2.3c1.6-0.6,3.4-0.9,5.4-0.9c3.1,0,5.4,0.6,6.9,1.9c1.5,1.2,2.3,3.3,2.3,6.2v11.7h-4.9v-11.8
			c0-1.5-0.4-2.6-1.1-3.2c-0.7-0.6-1.9-1-3.6-1c-1,0-2,0.2-2.9,0.5c-0.9,0.3-1.7,0.7-2.2,1.2v0.5l4,1.1v3c-0.9,0.2-1.6,0.6-1.9,1.2
			s-0.5,1.4-0.5,2.5v1c0,0.5,0.1,0.8,0.3,1c0.2,0.2,0.5,0.3,1,0.3h1.9v3.8h-4.4C573.1,112.6,572.2,112.2,571.5,111.5z"/>
		<path d="M595.1,110.9c-1.6-1.4-2.4-3.4-2.4-6.1V93.1h4.9v11.7c0,1.5,0.4,2.6,1.1,3.3c0.7,0.7,1.8,1.1,3.3,1.1s2.6-0.4,3.3-1.1
			c0.7-0.7,1.1-1.8,1.1-3.3V93.1h4.9v11.6c0,2.7-0.8,4.7-2.4,6.1c-1.6,1.4-3.9,2.1-6.8,2.1C599,112.9,596.8,112.3,595.1,110.9z"/>
		<path d="M617,110.6c-1.5-1.6-2.2-4-2.2-7.3c0-3.3,0.9-5.9,2.6-7.7c1.7-1.8,4.2-2.7,7.6-2.7c2.2,0,4.1,0.4,5.5,1.1
			c1.5,0.7,2.6,1.7,3.2,3c0.7,1.2,1,2.6,1,4v11.7h-4.9v-11.4c0-1.5-0.4-2.6-1.1-3.4c-0.8-0.8-2-1.2-3.9-1.2c-3.6,0-5.5,2.2-5.5,6.7
			c0,2.1,0.4,3.6,1.1,4.5c0.7,0.9,1.8,1.4,3.3,1.4c1.1,0,1.9-0.1,2.5-0.3v3.6c-0.9,0.3-2,0.5-3.3,0.5
			C620.5,112.9,618.5,112.1,617,110.6z"/>
		<path d="M626,87.3h-2.8V84h6.1v3.2h7.7l-0.2,3.3H626V87.3z"/>
		<path d="M645.9,100.6c0-1.4-0.3-2.4-0.8-3.1s-1.5-1-3-1c-0.8,0-1.6,0.1-2.5,0.3c-0.9,0.2-1.7,0.4-2.4,0.7v-3.6
			c0.7-0.3,1.6-0.6,2.7-0.8c1.1-0.2,2.1-0.3,3.1-0.3c2.7,0,4.7,0.6,5.9,1.7c1.2,1.2,1.8,3,1.8,5.4v12.6h-4.9V100.6z"/>
		<path d="M656.8,111c-1.2-1.3-1.8-3-1.8-5.3V93.1h4.9v12.3c0,1.3,0.3,2.2,0.9,2.8c0.6,0.6,1.5,0.9,2.6,0.9c0.9,0,1.8-0.2,2.6-0.6
			c0.9-0.4,1.6-0.9,2.1-1.4v-14h4.9v19.4h-4.5l-0.2-1.9c-1.9,1.5-4.1,2.3-6.6,2.3C659.7,112.9,658,112.3,656.8,111z"/>
		<path d="M679.7,110.9c-1.6-1.4-2.4-3.4-2.4-6.1V93.1h4.9v11.7c0,1.5,0.4,2.6,1.1,3.3c0.7,0.7,1.8,1.1,3.3,1.1s2.6-0.4,3.3-1.1
			c0.7-0.7,1.1-1.8,1.1-3.3V93.1h4.9v11.6c0,2.7-0.8,4.7-2.4,6.1c-1.6,1.4-3.9,2.1-6.8,2.1C683.6,112.9,681.3,112.3,679.7,110.9z"/>
		<path d="M701.9,111c-1.2-1.3-1.8-3-1.8-5.3V93.1h4.9v12.3c0,1.3,0.3,2.2,0.9,2.8c0.6,0.6,1.5,0.9,2.6,0.9c0.9,0,1.8-0.2,2.6-0.6
			c0.9-0.4,1.6-0.9,2.1-1.4v-14h4.9v19.4h-4.5l-0.2-1.9c-1.9,1.5-4.1,2.3-6.6,2.3C704.7,112.9,703.1,112.3,701.9,111z"/>
		<path class="st1" d="M510.8,136.3h4.7l2.6,12.5l3-9.4v-3.1h3.4l3.5,12.5l3.4-18.3h4.6l-5.5,25.2h-4.2l-3.2-11.1l-3.5,11.1h-4.2
			L510.8,136.3z"/>
		<path class="st1" d="M519.7,130.5h-2.8v-3.3h6.1v3.2h5.5l-0.2,3.3h-8.6V130.5z"/>
		<path class="st1" d="M540.9,155.7c-1.4-0.3-2.6-0.6-3.7-1.1v-10.2h8.2l0.2,3.6h-3.9v3.9c0.4,0.1,1,0.3,1.6,0.3
			c0.6,0.1,1.3,0.1,1.8,0.1c1.3,0,2.4-0.2,3.1-0.6c0.8-0.4,1.3-1.1,1.7-2s0.5-2.1,0.5-3.7c0-1.7-0.2-2.9-0.6-3.9
			c-0.4-0.9-1.1-1.6-2-1.9c-0.9-0.4-2.2-0.6-3.9-0.6c-2.3,0-4.5,0.3-6.6,1v-3.6c1.1-0.4,2.3-0.6,3.7-0.8c1.4-0.2,2.8-0.3,4.1-0.3
			c3.4,0,6,0.9,7.6,2.6c1.6,1.7,2.4,4.2,2.4,7.6c0,3.3-0.8,5.8-2.4,7.5c-1.6,1.7-4.1,2.5-7.6,2.5C543.8,156.1,542.3,156,540.9,155.7
			z"/>
		<path class="st1" d="M560.5,154.2c-1.2-1.3-1.8-3-1.8-5.3v-12.6h4.9v12.3c0,1.3,0.3,2.2,0.9,2.8c0.6,0.6,1.5,0.9,2.6,0.9
			c0.9,0,1.8-0.2,2.6-0.6c0.9-0.4,1.6-0.9,2.1-1.4v-14h4.9v19.4h-4.5l-0.2-1.9c-1.9,1.5-4.1,2.3-6.6,2.3
			C563.3,156.1,561.7,155.5,560.5,154.2z"/>
		<path class="st1" d="M582.2,154.7c-1.2-1-1.9-2.5-1.9-4.6c0-1.9,0.7-3.4,2-4.5c1.3-1,3.2-1.6,5.7-1.6h5.5V143c0-1.2-0.3-2-1-2.5
			c-0.7-0.5-1.9-0.7-3.6-0.7c-2.3,0-4.4,0.3-6.4,1v-3.6c1-0.3,2.2-0.6,3.5-0.8c1.3-0.2,2.5-0.3,3.7-0.3c1.3,0,2.5,0.1,3.5,0.4h6.8
			l-0.3,3.7h-2.2c0.6,0.9,0.9,2.1,0.9,3.5v12.2h-4.9v-8.2h-5.2c-1.1,0-1.9,0.2-2.5,0.6c-0.6,0.4-0.8,1-0.8,1.9
			c0,0.9,0.3,1.5,0.8,1.8c0.5,0.3,1.4,0.5,2.7,0.5c1.1,0,1.9-0.1,2.5-0.3v3.6c-1.1,0.3-2.3,0.5-3.8,0.5
			C585.1,156.1,583.4,155.7,582.2,154.7z"/>
		<path class="st1" d="M583.5,130.4h11.5v-2.9h4v6.2h-15.7L583.5,130.4z"/>
		<path class="st1" d="M605.1,154.2c-1.2-1.3-1.8-3-1.8-5.3v-12.6h4.9v12.3c0,1.3,0.3,2.2,0.9,2.8c0.6,0.6,1.5,0.9,2.6,0.9
			c0.9,0,1.8-0.2,2.6-0.6c0.9-0.4,1.6-0.9,2.1-1.4v-14h4.9v19.4h-4.5l-0.2-1.9c-1.9,1.5-4.1,2.3-6.6,2.3
			C607.9,156.1,606.3,155.5,605.1,154.2z"/>
		<path class="st1" d="M615.9,133.1c-0.8-0.8-1.3-1.8-1.3-3s0.4-2.2,1.3-3s1.9-1.2,3.1-1.2s2.2,0.4,3.1,1.2s1.2,1.8,1.2,3
			s-0.4,2.2-1.2,3c-0.8,0.8-1.9,1.2-3.1,1.2S616.7,133.9,615.9,133.1z M620.1,131.3c0.3-0.3,0.5-0.7,0.5-1.1c0-0.4-0.2-0.8-0.5-1.1
			c-0.3-0.3-0.7-0.5-1.1-0.5s-0.8,0.2-1.1,0.5c-0.3,0.3-0.5,0.7-0.5,1.1c0,0.4,0.2,0.8,0.5,1.1c0.3,0.3,0.7,0.5,1.1,0.5
			S619.8,131.6,620.1,131.3z"/>
		<path class="st1" d="M615.3,120.4h-2.3v-3.1h5.3v2.8h5.5l-0.2,3.1h-8.4V120.4z"/>
		<path class="st1" d="M632.4,143.8c0-1.4-0.3-2.4-0.8-3.1s-1.5-1-3-1c-0.8,0-1.6,0.1-2.5,0.3c-0.9,0.2-1.7,0.4-2.4,0.7v-3.6
			c0.7-0.3,1.6-0.6,2.7-0.8c1.1-0.2,2.1-0.3,3.1-0.3c2.7,0,4.7,0.6,5.9,1.7c1.2,1.2,1.8,3,1.8,5.4v12.6h-4.9V143.8z"/>
		<path class="st1" d="M642.7,154.8c-0.6-0.6-1-1.7-1-3.1v-15.4h4.9v14.1c0,1,0.5,1.5,1.5,1.5h1.2v3.8h-3.3
			C644.4,155.8,643.3,155.5,642.7,154.8z"/>
		<path class="st1" d="M656,155.6l-5.5-13.3h4.7l4.3,10.4c1.8,0,3.1-0.6,3.9-1.8c0.8-1.2,1.2-3,1.2-5.4c0-1.5-0.1-2.6-0.4-3.4
			c-0.3-0.8-0.7-1.4-1.3-1.7c-0.6-0.3-1.5-0.5-2.6-0.5h-1.5v-3.5h2.2c2.8,0,4.9,0.7,6.3,2.2c1.3,1.5,2,3.8,2,6.9
			c0,3.6-0.8,6.3-2.5,8.1c-1.7,1.7-3.9,2.6-6.8,2.6C658.4,156.1,657.1,156,656,155.6z"/>
		<path class="st1" d="M651.9,130.4h15.5v3.3h-15.7L651.9,130.4z"/>
		<path class="st1" d="M673.4,154.2c-1.2-1.3-1.8-3-1.8-5.3v-12.6h4.9v12.3c0,1.3,0.3,2.2,0.9,2.8c0.6,0.6,1.5,0.9,2.6,0.9
			c0.9,0,1.8-0.2,2.6-0.6c0.9-0.4,1.6-0.9,2.1-1.4v-14h4.9v19.4h-4.5l-0.2-1.9c-1.9,1.5-4.1,2.3-6.6,2.3
			C676.3,156.1,674.6,155.5,673.4,154.2z"/>
	</g>
</g>
<g id="โลโก้โอม">
	<g>
		<g>
			<path class="st2" d="M238.2,486.2c-75.9,0-137.7-61.8-137.7-137.7c0-35,15.2-68.3,41.6-91.2l73.2-63.5c6.3-5.5,14.5-8.5,22.8-8.5
				c8.4,0,16.5,3,22.8,8.5l73.2,63.5c26.5,23,41.6,56.2,41.6,91.2C375.9,424.4,314.1,486.2,238.2,486.2z"/>
			<path class="st0" d="M238.2,191.2c6.7,0,13.5,2.4,18.9,7.1l73.2,63.5c25.1,21.8,39.6,53.4,39.6,86.7v0
				c0,72.7-59,131.7-131.7,131.7h0c-72.7,0-131.7-59-131.7-131.7v0c0-33.3,14.4-64.9,39.6-86.7l73.2-63.5
				C224.7,193.6,231.4,191.2,238.2,191.2 M238.2,179.3c-9.8,0-19.3,3.5-26.8,10l-73.2,63.5c-27.8,24.1-43.7,59-43.7,95.8
				c0,38.4,14.9,74.5,42.1,101.6c27.1,27.1,63.2,42.1,101.6,42.1c38.4,0,74.5-14.9,101.6-42.1c27.1-27.1,42.1-63.2,42.1-101.6
				c0-36.8-15.9-71.7-43.7-95.8L265,189.3C257.5,182.8,248,179.3,238.2,179.3L238.2,179.3z"/>
		</g>
		<g>
			<defs>
				<path id="SVGID_1_" d="M219,198.3l-73.2,63.5c-25.1,21.8-39.6,53.4-39.6,86.7v0c0,72.7,59,131.7,131.7,131.7h0
					c72.7,0,131.7-59,131.7-131.7v0c0-33.3-14.4-64.9-39.6-86.7l-73.2-63.5C246,188.9,229.8,188.9,219,198.3z"/>
			</defs>
			<clipPath id="SVGID_2_">
				<use xlink:href="#SVGID_1_"  style="overflow:visible;"/>
			</clipPath>
			<g class="st3">
				<path class="st0" d="M443.2,547.4c-12.3,5.4-16.6-14.9-30.1-14.9c-13.5,0-13.5,15.5-27,15.5c-13.5,0-13.5-15.5-27-15.5
					c-13.5,0-13.5,15.5-27,15.5c-13.5,0-13.5-15.5-27-15.5c-13.5,0-13.5,15.5-27,15.5c-13.5,0-13.5-15.5-26.9-15.5
					c-13.5,0-13.5,15.5-27,15.5c-13.5,0-13.5-15.5-27-15.5c-13.5,0-13.5,15.5-27,15.5c-13.5,0-13.5-15.5-27-15.5
					c-13.5,0-13.5,15.5-27,15.5c-13.5,0-13.5-15.5-27-15.5c-13.5,0-13.5,15.5-27,15.5s-11.5-9.5-23.8-14.9
					c-5.4-2.4-10.9,1.2-10.9-4.7c0-5.9,15.5-5.9,15.5-11.8c0-5.9-15.5-5.9-15.5-11.8c0-5.9,15.5-5.9,15.5-11.8
					c0-5.9-15.5-5.9-15.5-11.8c0-5.9,15.5-5.9,15.5-11.8c0-5.9-15.5-5.9-15.5-11.8c0-5.9,15.5-5.9,15.5-11.8
					c0-5.9-15.5-5.9-15.5-11.8c0-5.9,15.5-5.9,15.5-11.8c0-5.9-15.5-5.9-15.5-11.8c0-5.9,15.5-5.9,15.5-11.8
					c0-5.9-15.5-5.9-15.5-11.8c0-5.9,15.5-5.9,15.5-11.8c0-5.9-16.3-16.6-10.9-19c12.3-5.4,16.6,14.9,30.1,14.9
					c13.5,0,13.5-15.5,27-15.5c13.5,0,13.5,15.5,27,15.5c13.5,0,13.5-15.5,27-15.5c13.5,0,13.5,15.5,27,15.5
					c13.5,0,13.5-15.5,27-15.5c13.5,0,13.5,15.5,26.9,15.5c13.5,0,13.5-15.5,27-15.5c13.5,0,13.5,15.5,27,15.5
					c13.5,0,13.5-15.5,27-15.5c13.5,0,13.5,15.5,27,15.5c13.5,0,13.5-15.5,27-15.5c13.5,0,13.5,15.5,27,15.5
					c13.5,0,13.5-15.5,27-15.5c13.5,0,11.5,9.5,23.8,14.9c5.4,2.4,10.9-1.2,10.9,4.7c0,5.9-15.5,5.9-15.5,11.8
					c0,5.9,15.5,5.9,15.5,11.8c0,5.9-15.5,5.9-15.5,11.8c0,5.9,15.5,5.9,15.5,11.8c0,5.9-15.5,5.9-15.5,11.8
					c0,5.9,15.5,5.9,15.5,11.8c0,5.9-15.5,5.9-15.5,11.8c0,5.9,15.5,5.9,15.5,11.8c0,5.9-15.5,5.9-15.5,11.8
					c0,5.9,15.5,5.9,15.5,11.8c0,5.9-15.5,5.9-15.5,11.8c0,5.9,15.5,5.9,15.5,11.8c0,5.9-16.9,8.4-15.2,14.1
					C435.6,540.5,448.6,545,443.2,547.4z"/>
			</g>
		</g>
		<g>
			<g>
				<path class="st0" d="M168.5,274.4c0-4.7,2.4-9.1,6.7-13.1L146,278.1c-25.9,14.9-34.8,48.1-19.8,73.9v0l30.2-17.4
					c6.6-3.8,12-8.8,16.3-14.5l-4-43.7C168.6,275.7,168.5,275,168.5,274.4z"/>
			</g>
			<g>
				<path class="st0" d="M329.8,278.1l-29.1-16.8c4.3,4,6.7,8.4,6.7,13.1c0,0.7-0.1,1.4-0.2,2l-4,43.7c4.3,5.7,9.7,10.7,16.3,14.5
					l30.2,17.4v0C364.5,326.2,355.7,293.1,329.8,278.1z"/>
			</g>
			<g>
				<defs>
					<path id="SVGID_3_" d="M237.9,244.1c-38.3,0-69.4,13.7-69.4,30.6c0,0.7,0.1,1.4,0.2,2l10.2,121.5c1,11.1,9.4,19.9,20.1,21.8
						v9.4h77.8V420c10.7-1.9,19.1-10.6,20.1-21.8l10.2-121.5c0.1-0.7,0.2-1.3,0.2-2C307.3,257.8,276.2,244.1,237.9,244.1z"/>
				</defs>
				<use xlink:href="#SVGID_3_"  style="overflow:visible;fill:#FFFFFF;"/>
				<clipPath id="SVGID_4_">
					<use xlink:href="#SVGID_3_"  style="overflow:visible;"/>
				</clipPath>
				<path class="st4" d="M188.9,168.7L188.9,168.7c-31.6,0-57.4,25.8-57.4,57.4v87.4c0,31.6,25.8,57.4,57.4,57.4l0,0
					c31.6,0,57.4-25.8,57.4-57.4v-87.4C246.3,194.5,220.4,168.7,188.9,168.7z M210,329c-3.9,0-7-1.9-7-4.3c0-2.4,3.1-4.3,7-4.3
					c3.9,0,7,1.9,7,4.3C217,327,213.9,329,210,329z"/>
				<g class="st5">
					<ellipse class="st0" cx="265.8" cy="324.7" rx="7" ry="4.3"/>
				</g>
			</g>
			<g>
				<path class="st0" d="M264.5,400.7h-53.3c-9.3,0-16.9,7.6-16.9,16.9l0.1,4.8c1.2,9.2,20.2,17.8,43.4,17.8s42.2-8.7,43.4-17.8h0.1
					v-4.8C281.4,408.2,273.9,400.7,264.5,400.7z M222.2,425.3c-3.8,0-6.9-3.1-6.9-6.9s3.1-6.9,6.9-6.9s6.9,3.1,6.9,6.9
					S226,425.3,222.2,425.3z M254.6,425.3c-3.8,0-6.9-3.1-6.9-6.9s3.1-6.9,6.9-6.9c3.8,0,6.9,3.1,6.9,6.9S258.3,425.3,254.6,425.3z"
					/>
			</g>
			<path class="st6" d="M264.5,400.7h-53.3c-9.3,0-16.9,7.6-16.9,16.9l0.1,4.8c1.2,9.2,20.2,17.8,43.4,17.8
				c23.2,0,42.2-8.7,43.4-17.8l0.1-4.8C281.4,408.2,273.9,400.7,264.5,400.7z"/>
		</g>
		<g>
			<path class="st2" d="M123.5,382.6c0.3-0.6,0.9-1,1.8-1.3l8.6-2.4c0.9-0.3,1.6-0.7,2-1.2c0.4-0.5,0.7-1.2,0.7-2.1l2.6-0.7l2.3,8.4
				l-2.8,0.8l-0.9-3.4c-0.4,1.1-1.2,1.8-2.6,2.2l-7.7,2.2c-0.6,0.2-0.8,0.6-0.7,1.2l0.3,0.9l-2.8,0.8l-0.9-3.1
				C123.1,384,123.1,383.2,123.5,382.6z"/>
			<path class="st2" d="M132.8,387.5c1.7-0.7,3.3-0.7,4.6,0c1.4,0.7,2.5,2.1,3.3,4.2c0.9,2.1,1,3.9,0.6,5.3
				c-0.5,1.4-1.6,2.5-3.3,3.2l-7.8,3.2l-1.6-3.9l8-3.3c0.7-0.3,1.2-0.7,1.4-1.4c0.2-0.6,0.2-1.3-0.1-2.1c-0.3-0.8-0.8-1.4-1.4-1.6
				c-0.6-0.3-1.2-0.2-2,0.1l-1.8,0.8c0.3,0.2,0.6,0.4,0.8,0.7c0.3,0.3,0.5,0.6,0.6,1l0.6,1.4l-3,1.3l-0.6-1.6
				c-0.3-0.8-0.8-1.3-1.4-1.7l-3.2,1.3l-1.6-3.9L132.8,387.5z"/>
			<path class="st2" d="M133.1,408.9c-0.3-0.9-0.6-1.6-0.6-2.2l2.8-1.6c0.1,0.7,0.2,1.4,0.5,2.2c0.3,0.8,0.6,1.4,0.9,2
				c0.5,0.9,0.9,1.5,1.3,1.7c0.3,0.3,0.7,0.3,1,0.1c0.3-0.2,0.5-0.5,0.5-0.9c0-0.4-0.1-1.1-0.3-2.1l-0.2-1c-0.3-1.4-0.3-2.5-0.1-3.3
				c0.2-0.8,0.8-1.5,1.7-2c1.1-0.6,2.3-0.7,3.4-0.2c1.2,0.5,2.3,1.6,3.2,3.3c0.4,0.7,0.8,1.4,1.1,2.2c0.3,0.8,0.5,1.5,0.7,2.1
				l-2.8,1.6c-0.1-0.6-0.2-1.2-0.5-1.9c-0.2-0.7-0.5-1.3-0.8-1.8c-0.4-0.7-0.8-1.2-1.2-1.5c-0.4-0.3-0.7-0.4-1.1-0.2
				c-0.3,0.2-0.4,0.4-0.4,0.8c0,0.4,0.1,0.9,0.3,1.8c0,0.1,0.1,0.3,0.1,0.5c0,0.2,0.1,0.5,0.2,0.8c0.2,1.1,0.3,1.9,0.2,2.6
				c0,0.7-0.2,1.2-0.5,1.7c-0.3,0.4-0.8,0.9-1.5,1.3c-1.2,0.7-2.3,0.7-3.4,0.2c-1.1-0.6-2.2-1.7-3.2-3.3
				C133.9,410.7,133.4,409.8,133.1,408.9z"/>
			<path class="st2" d="M142.1,423.2c-0.3-0.5-0.5-1-0.6-1.4l5.1-8.8l2.5,3.2l-3.7,6.4c0.7,0.8,1.5,1.1,2.4,1.1
				c0.9-0.1,2-0.6,3.2-1.5c0.7-0.5,1.2-1,1.5-1.5s0.4-0.9,0.3-1.3c-0.1-0.4-0.4-1-0.8-1.5l-0.6-0.8l2.5-1.9l1.1,1.4
				c2.5,3.3,2.1,6.3-1.4,9c-2.1,1.6-4,2.3-5.7,2c-1.8-0.2-3.3-1.2-4.6-2.9C142.8,424.2,142.4,423.7,142.1,423.2z"/>
			<path class="st2" d="M153,429.4c1.2-1.2,2.4-1.6,3.7-1l-1.3-2.2l2.5-2.5c1.1,0.1,2.2,0.4,3.4,1c1.2,0.5,2.3,1.3,3.3,2.3
				c1.7,1.6,2.6,3.2,2.8,4.7c0.2,1.5-0.4,2.9-1.8,4.4l-5.9,6l-3-2.9l5.9-6c0.7-0.7,1-1.4,1-2c0-0.6-0.5-1.3-1.2-2.1
				c-0.5-0.5-1-0.8-1.5-1.1c-0.5-0.3-1.1-0.4-1.5-0.5l-0.2,0.2l1.4,2.5l-1.5,1.6c-0.6-0.3-1.1-0.4-1.5-0.3c-0.4,0.1-0.9,0.4-1.4,0.9
				l-3.1,3.1l-3-2.9L153,429.4z"/>
			<path class="st2" d="M171.7,440.7c0.6-0.7,0.8-1.4,0.8-2c0-0.6-0.4-1.1-1.2-1.7c-0.9-0.7-1.9-1.2-3.2-1.5l1.8-2.4
				c0.6,0.1,1.2,0.3,2,0.7c0.7,0.3,1.4,0.7,2,1.2c1.6,1.2,2.5,2.4,2.7,3.7c0.2,1.3-0.2,2.6-1.3,4.1l-5.3,7.1l-3.3-2.5L171.7,440.7z"
				/>
			<path class="st2" d="M174.9,453.3c-0.7-0.6-1.3-1.1-1.6-1.6l1.7-2.8c0.4,0.6,0.9,1.1,1.5,1.6c0.6,0.5,1.2,1,1.8,1.3
				c0.9,0.5,1.5,0.8,1.9,0.9c0.4,0.1,0.7-0.1,0.9-0.4c0.2-0.3,0.2-0.7,0-1c-0.2-0.3-0.6-0.9-1.3-1.7l-0.7-0.8
				c-0.9-1.1-1.5-2-1.7-2.8c-0.2-0.8-0.1-1.7,0.4-2.6c0.7-1.1,1.6-1.8,2.9-1.9c1.3-0.1,2.8,0.3,4.5,1.3c0.7,0.4,1.4,0.9,2,1.4
				c0.7,0.5,1.2,1,1.6,1.5l-1.6,2.8c-0.3-0.5-0.8-0.9-1.4-1.4s-1.1-0.9-1.6-1.2c-0.7-0.4-1.3-0.7-1.8-0.8c-0.5-0.1-0.8,0-1,0.4
				c-0.2,0.3-0.2,0.6,0,0.9c0.2,0.3,0.5,0.8,1.1,1.4c0.1,0.1,0.2,0.3,0.4,0.4c0.1,0.2,0.3,0.4,0.5,0.6c0.7,0.8,1.2,1.6,1.5,2.2
				c0.3,0.6,0.4,1.2,0.4,1.7c0,0.5-0.3,1.1-0.7,1.8c-0.7,1.1-1.6,1.8-2.9,1.8c-1.3,0.1-2.7-0.4-4.4-1.4
				C176.4,454.4,175.6,453.9,174.9,453.3z"/>
			<path class="st2" d="M191.3,446.5l3.9,1.6l-1.5,3.7l2.7,1.1c0.7,0.3,1.2,0.3,1.6,0.1c0.4-0.2,0.7-0.6,1-1.3l0.7-1.8l3.9,1.6
				l-0.8,1.9c-0.7,1.7-1.7,2.5-3.1,2.5c0.5,0.5,0.7,1,0.8,1.6s-0.1,1.2-0.4,2l-2,4.9l-3.9-1.6l1.8-4.4c0.3-0.7,0.4-1.3,0.2-1.7
				c-0.2-0.4-0.6-0.7-1.3-1l-2.6-1.1l-2.6,6.3l-3.9-1.6L191.3,446.5z"/>
			<path class="st2" d="M203.4,465.4c-0.7-0.9-0.8-2.1-0.5-3.6c0.3-1.4,1.1-2.3,2.2-2.9c1.1-0.5,2.5-0.6,4.2-0.1l3.6,0.9l0.1-0.5
				c0.2-0.7,0.1-1.2-0.3-1.6c-0.4-0.4-1.1-0.7-2.2-1c-1.5-0.4-3.1-0.5-4.8-0.4l0.7-2.9c0.8-0.1,1.7-0.1,2.7,0c1,0.1,2,0.3,2.9,0.5
				c4.2,1.1,5.9,3.4,4.9,7l-2.1,8.4l-4.1-1l1.4-5.5l-3-0.8c-0.7-0.2-1.2-0.2-1.6-0.1c-0.4,0.1-0.7,0.5-0.8,1
				c-0.1,0.5-0.1,0.9,0.2,1.2c0.2,0.3,0.7,0.5,1.4,0.7c0.6,0.2,1.2,0.2,1.6,0.2l-0.7,2.7c-0.7,0.1-1.7,0-2.8-0.3
				C205.1,466.9,204.1,466.3,203.4,465.4z"/>
			<path class="st2" d="M218.5,469.1l0.3-3.1c0.5,0.3,1.1,0.6,1.8,0.8c0.6,0.2,1.3,0.4,1.9,0.4c1.5,0.2,2.5,0,3.3-0.6
				c0.7-0.6,1.2-1.6,1.3-3c0.2-1.4,0-2.5-0.6-3.2c-0.6-0.7-1.6-1.2-3-1.3c-1.3-0.1-2.6,0-3.9,0.4l0.3-3c1.5-0.4,3.1-0.5,4.9-0.3
				c4.8,0.5,6.9,3.2,6.4,8c-0.5,4.8-3.2,6.9-8,6.4C221.2,470.3,219.7,469.8,218.5,469.1z"/>
			<path class="st2" d="M238.1,471.3c-0.6-0.1-1.1-0.2-1.5-0.3l-4-9.4l4.1-0.1l2.9,6.8c1-0.1,1.8-0.5,2.3-1.3
				c0.5-0.8,0.7-1.9,0.7-3.4c0-0.9-0.1-1.6-0.3-2.1c-0.2-0.5-0.5-0.8-0.9-1c-0.4-0.2-1-0.3-1.7-0.3l-1,0l-0.1-3.2l1.8,0
				c4.2-0.1,6.3,2.1,6.4,6.5c0,2.6-0.6,4.5-1.8,5.8c-1.2,1.3-2.9,1.9-5.1,2C239.3,471.4,238.7,471.4,238.1,471.3z"/>
			<path class="st2" d="M250.9,469.8c-1-0.5-1.6-1.6-1.8-3.1c-0.2-1.4,0.1-2.6,0.9-3.5c0.8-0.9,2.1-1.6,3.8-1.8l3.7-0.6l-0.1-0.5
				c-0.1-0.7-0.4-1.1-1-1.4c-0.5-0.2-1.3-0.2-2.4-0.1c-1.6,0.3-3.1,0.7-4.5,1.5l-0.5-3c0.7-0.4,1.5-0.7,2.5-1c1-0.3,1.9-0.5,2.8-0.7
				c0.8-0.1,1.7-0.2,2.5-0.1l5.1-0.8l0.3,3.1l-1.5,0.2c0.2,0.2,0.4,0.6,0.6,1c0.2,0.4,0.3,0.9,0.3,1.3l1.3,8.3l-4.1,0.7l-0.9-5.6
				l-3,0.5c-0.7,0.1-1.2,0.3-1.5,0.6c-0.3,0.3-0.4,0.7-0.3,1.3c0.1,0.5,0.3,0.9,0.6,1.1c0.3,0.2,0.9,0.2,1.6,0.1
				c0.6-0.1,1.2-0.2,1.5-0.4l0.4,2.8c-0.7,0.4-1.6,0.6-2.7,0.8C253.1,470.5,251.9,470.4,250.9,469.8z"/>
			<path class="st2" d="M266.9,467.1l-0.9-3c0.6,0.1,1.3,0.1,1.9,0.1c0.7,0,1.3-0.2,1.9-0.3c1.4-0.4,2.3-1,2.8-1.8
				c0.4-0.8,0.4-1.9,0-3.3c-0.4-1.4-1-2.3-1.9-2.7c-0.8-0.4-1.9-0.4-3.3,0c-1.3,0.4-2.4,1-3.4,1.9l-0.9-2.9c1.2-1,2.6-1.7,4.3-2.2
				c4.6-1.4,7.6,0.2,9.1,4.8c1.4,4.6-0.2,7.6-4.8,9.1C269.9,467.1,268.3,467.3,266.9,467.1z"/>
			<path class="st2" d="M282.7,461.4c-1.2-0.4-2.1-1.4-2.8-2.8l-3.9-8.3l3.8-1.8l3.7,8c0.3,0.7,0.7,1.2,1.2,1.3
				c0.5,0.2,1.1,0.1,1.7-0.2c0.5-0.2,0.9-0.6,1.3-1c0.4-0.4,0.6-0.9,0.8-1.3l-4.2-9l3.8-1.8l5.9,12.7l-3.5,1.6l-0.7-1
				c-0.7,1.4-1.9,2.5-3.5,3.3C285.1,461.8,283.9,461.8,282.7,461.4z"/>
			<path class="st2" d="M301.7,452.8c-0.5,0.2-0.9,0.4-1.2,0.4l-4-3l-1.6,1.1l-1.6-2.7l3.6-2.3l4.5,3.3c1.5-1.1,1.5-2.8,0-5.1
				c-0.6-0.9-1.1-1.4-1.6-1.8c-0.5-0.3-1.1-0.4-1.8-0.3c-0.7,0.1-1.4,0.5-2.4,1.1c-0.6,0.4-1.1,0.8-1.8,1.4
				c-0.6,0.5-1.2,1.1-1.7,1.7l-1.6-2.5c0.5-0.7,1.2-1.3,1.9-2c0.7-0.7,1.5-1.3,2.3-1.8c2.2-1.4,4.1-2,5.7-1.6
				c1.6,0.4,3.1,1.5,4.4,3.5c0.9,1.3,1.3,2.6,1.4,3.9c0.1,1.3-0.1,2.4-0.7,3.5c-0.5,1-1.3,1.9-2.3,2.5
				C302.6,452.4,302.2,452.6,301.7,452.8z"/>
			<path class="st2" d="M288.1,440.2l9.3-7l1.7,2.3l-9.4,7.1L288.1,440.2z"/>
			<path class="st2" d="M311.5,444.1c-1.5-0.1-3.1-1.1-4.7-2.8c-1.7-1.9-2.6-3.6-2.8-5.1c-0.2-1.5,0.3-2.8,1.4-3.9
				c0.5-0.4,1-0.7,1.5-0.9c0.5-0.1,1-0.2,1.5,0c0-0.5,0.2-1.1,0.5-1.7c0.3-0.6,0.7-1.1,1.2-1.5c0.9-0.8,1.9-1.2,2.8-1.1
				c0.9,0.1,1.8,0.7,2.6,1.6l6.8,7.7l-3.1,2.8l-6.3-7.1c-0.4-0.4-0.7-0.7-1-0.8c-0.3-0.1-0.6,0-0.8,0.2c-0.2,0.2-0.3,0.4-0.4,0.7
				c0,0.3,0,0.6,0.2,0.9l-1.2,1c-0.4-0.2-0.7-0.2-0.9-0.3c-0.2,0-0.4,0.1-0.7,0.3c-0.5,0.4-0.5,1-0.2,1.7c0.3,0.7,1,1.7,1.9,2.7
				c0.9,1,1.7,1.6,2.4,1.7c0.7,0.1,1.4-0.1,2.1-0.7c0.5-0.5,0.9-0.9,1.1-1.3l1.9,2.2c-0.3,0.7-0.9,1.3-1.6,2
				C314.5,443.7,313,444.2,311.5,444.1z"/>
			<path class="st2" d="M326.6,431.7c-0.7,0.6-1.3,1.1-1.9,1.3l-2.5-2.1c0.6-0.3,1.2-0.7,1.9-1.2c0.6-0.5,1.2-1,1.6-1.5
				c0.7-0.8,1.1-1.4,1.2-1.8c0.1-0.4,0.1-0.7-0.2-1c-0.3-0.3-0.6-0.3-1-0.2c-0.4,0.1-1,0.4-1.9,1l-0.9,0.6c-1.2,0.7-2.2,1.1-3.1,1.2
				s-1.7-0.2-2.5-0.9c-1-0.8-1.4-1.9-1.4-3.2c0.1-1.3,0.8-2.7,2-4.2c0.5-0.6,1.1-1.2,1.7-1.8c0.6-0.6,1.2-1,1.7-1.3l2.5,2.1
				c-0.5,0.3-1.1,0.6-1.6,1.1c-0.6,0.5-1,0.9-1.4,1.4c-0.5,0.6-0.9,1.2-1.1,1.6c-0.2,0.5-0.1,0.8,0.2,1.1c0.3,0.2,0.5,0.3,0.9,0.1
				c0.3-0.1,0.9-0.4,1.6-0.8c0.1-0.1,0.3-0.2,0.5-0.3c0.2-0.1,0.4-0.2,0.7-0.4c0.9-0.5,1.7-0.9,2.4-1.1c0.6-0.2,1.2-0.2,1.7-0.1
				s1.1,0.5,1.7,1c1,0.9,1.4,1.9,1.3,3.2c-0.1,1.3-0.8,2.6-2.1,4.1C328,430.4,327.3,431.1,326.6,431.7z"/>
			<path class="st2" d="M334.3,420.8c-1.1,0.4-2.3,0.1-3.6-0.7c-1.2-0.8-1.9-1.8-2-3c-0.1-1.2,0.3-2.6,1.2-4l2-3.1l-0.4-0.3
				c-0.6-0.4-1.1-0.4-1.6-0.2c-0.5,0.2-1.1,0.8-1.7,1.7c-0.9,1.3-1.5,2.8-1.9,4.4l-2.5-1.6c0.2-0.8,0.5-1.6,0.9-2.5
				c0.4-0.9,0.9-1.8,1.4-2.6c2.4-3.6,5.1-4.5,8.2-2.4l7.3,4.7l-2.3,3.5l-4.8-3.1l-1.7,2.6c-0.4,0.6-0.6,1.1-0.6,1.5
				c0,0.4,0.2,0.8,0.7,1.1c0.5,0.3,0.9,0.4,1.2,0.2s0.7-0.5,1.1-1.1c0.4-0.6,0.6-1,0.7-1.4l2.4,1.5c-0.2,0.7-0.6,1.6-1.2,2.5
				C336.3,419.7,335.4,420.5,334.3,420.8z"/>
			<path class="st2" d="M342.9,405.6c-1.5,0.5-3.3,0.3-5.4-0.7c-2.3-1-3.7-2.4-4.4-4.1c-0.7-1.7-0.5-3.7,0.5-6
				c0.7-1.5,1.5-2.6,2.4-3.4c0.9-0.8,1.9-1.2,2.9-1.3c1-0.1,2,0.1,2.9,0.5l7.7,3.5l-1.7,3.8l-7.4-3.3c-0.9-0.4-1.7-0.5-2.3-0.3
				c-0.7,0.2-1.2,0.8-1.7,1.9c-0.5,1-0.5,2,0,2.8c0.4,0.8,1.4,1.5,2.8,2.1c1.2,0.6,2.2,0.7,2.9,0.6c0.7-0.2,1.2-0.7,1.6-1.5
				c0.3-0.7,0.5-1.2,0.5-1.6l2.7,1.2c0,0.7-0.3,1.6-0.7,2.5C345.5,404,344.4,405.1,342.9,405.6z"/>
			<path class="st2" d="M344.1,383.2c-0.9-0.3-1.6-0.3-2.1-0.1c-0.5,0.2-0.9,0.8-1.2,1.7c-0.3,1.1-0.4,2.2-0.3,3.5l-2.8-0.8
				c-0.1-0.6-0.1-1.3,0-2.1c0.1-0.8,0.2-1.6,0.4-2.3c0.6-1.9,1.4-3.2,2.5-3.8c1.1-0.6,2.5-0.7,4.3-0.2l8.5,2.5l-1.2,4L344.1,383.2z"
				/>
		</g>
	</g>
</g>
<g id="โลโก้แถบ">
	<g>
		<g>
			<path class="st1" d="M601.1,191.2c6.7,0,13.5,2.4,18.9,7.1l73.2,63.5c25.1,21.8,39.6,53.4,39.6,86.7v0
				c0,72.7-59,131.7-131.7,131.7h0c-72.7,0-131.7-59-131.7-131.7v0c0-33.3,14.4-64.9,39.6-86.7l73.2-63.5
				C587.6,193.6,594.4,191.2,601.1,191.2 M601.1,179.3c-9.8,0-19.3,3.5-26.8,10l-73.2,63.5c-27.8,24.1-43.7,59-43.7,95.8
				c0,38.4,14.9,74.5,42.1,101.6c27.1,27.1,63.2,42.1,101.6,42.1c38.4,0,74.5-14.9,101.6-42.1c27.1-27.1,42.1-63.2,42.1-101.6
				c0-36.8-15.9-71.7-43.7-95.8l-73.2-63.5C620.5,182.8,611,179.3,601.1,179.3L601.1,179.3z"/>
		</g>
		<g>
			<defs>
				<path id="SVGID_5_" d="M581.9,198.3l-73.2,63.5c-25.1,21.8-39.6,53.4-39.6,86.7v0c0,72.7,59,131.7,131.7,131.7h0
					c72.7,0,131.7-59,131.7-131.7v0c0-33.3-14.4-64.9-39.6-86.7l-73.2-63.5C608.9,188.9,592.8,188.9,581.9,198.3z"/>
			</defs>
			<clipPath id="SVGID_6_">
				<use xlink:href="#SVGID_5_"  style="overflow:visible;"/>
			</clipPath>
			<g class="st7">
				<path class="st1" d="M806.1,547.4c-12.3,5.4-16.6-14.9-30.1-14.9c-13.5,0-13.5,15.5-27,15.5c-13.5,0-13.5-15.5-27-15.5
					c-13.5,0-13.5,15.5-27,15.5c-13.5,0-13.5-15.5-27-15.5c-13.5,0-13.5,15.5-27,15.5c-13.5,0-13.5-15.5-26.9-15.5
					c-13.5,0-13.5,15.5-27,15.5c-13.5,0-13.5-15.5-27-15.5c-13.5,0-13.5,15.5-27,15.5c-13.5,0-13.5-15.5-27-15.5
					c-13.5,0-13.5,15.5-27,15.5c-13.5,0-13.5-15.5-27-15.5c-13.5,0-13.5,15.5-27,15.5s-11.5-9.5-23.8-14.9
					c-5.4-2.4-10.9,1.2-10.9-4.7c0-5.9,15.5-5.9,15.5-11.8c0-5.9-15.5-5.9-15.5-11.8c0-5.9,15.5-5.9,15.5-11.8
					c0-5.9-15.5-5.9-15.5-11.8c0-5.9,15.5-5.9,15.5-11.8c0-5.9-15.5-5.9-15.5-11.8c0-5.9,15.5-5.9,15.5-11.8
					c0-5.9-15.5-5.9-15.5-11.8c0-5.9,15.5-5.9,15.5-11.8c0-5.9-15.5-5.9-15.5-11.8c0-5.9,15.5-5.9,15.5-11.8
					c0-5.9-15.5-5.9-15.5-11.8c0-5.9,15.5-5.9,15.5-11.8c0-5.9-16.3-16.6-10.9-19c12.3-5.4,16.6,14.9,30.1,14.9
					c13.5,0,13.5-15.5,27-15.5c13.5,0,13.5,15.5,27,15.5c13.5,0,13.5-15.5,27-15.5c13.5,0,13.5,15.5,27,15.5
					c13.5,0,13.5-15.5,27-15.5c13.5,0,13.5,15.5,26.9,15.5c13.5,0,13.5-15.5,27-15.5c13.5,0,13.5,15.5,27,15.5
					c13.5,0,13.5-15.5,27-15.5c13.5,0,13.5,15.5,27,15.5c13.5,0,13.5-15.5,27-15.5c13.5,0,13.5,15.5,27,15.5
					c13.5,0,13.5-15.5,27-15.5s11.5,9.5,23.8,14.9c5.4,2.4,10.9-1.2,10.9,4.7c0,5.9-15.5,5.9-15.5,11.8c0,5.9,15.5,5.9,15.5,11.8
					c0,5.9-15.5,5.9-15.5,11.8c0,5.9,15.5,5.9,15.5,11.8c0,5.9-15.5,5.9-15.5,11.8c0,5.9,15.5,5.9,15.5,11.8
					c0,5.9-15.5,5.9-15.5,11.8c0,5.9,15.5,5.9,15.5,11.8c0,5.9-15.5,5.9-15.5,11.8c0,5.9,15.5,5.9,15.5,11.8
					c0,5.9-15.5,5.9-15.5,11.8c0,5.9,15.5,5.9,15.5,11.8c0,5.9-16.9,8.4-15.2,14.1C798.5,540.5,811.5,545,806.1,547.4z"/>
			</g>
		</g>
		<g>
			<g>
				<path class="st1" d="M531.4,274.4c0-4.7,2.4-9.1,6.7-13.1L509,278.1c-25.9,14.9-34.8,48.1-19.8,73.9v0l30.2-17.4
					c6.6-3.8,12-8.8,16.3-14.5l-4-43.7C531.5,275.7,531.4,275,531.4,274.4z"/>
			</g>
			<g>
				<path class="st1" d="M692.7,278.1l-29.1-16.8c4.3,4,6.7,8.4,6.7,13.1c0,0.7-0.1,1.4-0.2,2l-4,43.7c4.3,5.7,9.7,10.7,16.3,14.5
					l30.2,17.4v0C727.5,326.2,718.6,293.1,692.7,278.1z"/>
			</g>
			<g>
				<defs>
					<path id="SVGID_7_" d="M600.8,244.1c-38.3,0-69.4,13.7-69.4,30.6c0,0.7,0.1,1.4,0.2,2l10.2,121.5c1,11.1,9.4,19.9,20.1,21.8
						v9.4h77.8V420c10.7-1.9,19.1-10.6,20.1-21.8l10.2-121.5c0.1-0.7,0.2-1.3,0.2-2C670.2,257.8,639.2,244.1,600.8,244.1z"/>
				</defs>
				<use xlink:href="#SVGID_7_"  style="overflow:visible;fill:#FFFFFF;"/>
				<clipPath id="SVGID_8_">
					<use xlink:href="#SVGID_7_"  style="overflow:visible;"/>
				</clipPath>
				<path class="st8" d="M551.8,168.7L551.8,168.7c-31.6,0-57.4,25.8-57.4,57.4v87.4c0,31.6,25.8,57.4,57.4,57.4l0,0
					c31.6,0,57.4-25.8,57.4-57.4v-87.4C609.2,194.5,583.4,168.7,551.8,168.7z M572.9,329c-3.9,0-7-1.9-7-4.3c0-2.4,3.1-4.3,7-4.3
					c3.9,0,7,1.9,7,4.3C579.9,327,576.8,329,572.9,329z"/>
				<g class="st9">
					<ellipse class="st1" cx="628.8" cy="324.7" rx="7" ry="4.3"/>
				</g>
			</g>
			<g>
				<path class="st10" d="M627.5,400.7h-53.3c-9.3,0-16.9,7.6-16.9,16.9l0.1,4.8c1.2,9.2,20.2,17.8,43.4,17.8s42.2-8.7,43.4-17.8
					h0.1v-4.8C644.4,408.2,636.8,400.7,627.5,400.7z M585.2,425.3c-3.8,0-6.9-3.1-6.9-6.9s3.1-6.9,6.9-6.9s6.9,3.1,6.9,6.9
					S589,425.3,585.2,425.3z M617.5,425.3c-3.8,0-6.9-3.1-6.9-6.9s3.1-6.9,6.9-6.9s6.9,3.1,6.9,6.9S621.3,425.3,617.5,425.3z"/>
			</g>
			<path class="st6" d="M627.5,400.7h-53.3c-9.3,0-16.9,7.6-16.9,16.9l0.1,4.8c1.2,9.2,20.2,17.8,43.4,17.8
				c23.2,0,42.2-8.7,43.4-17.8l0.1-4.8C644.4,408.2,636.8,400.7,627.5,400.7z"/>
		</g>
		<g>
			<path class="st2" d="M486.4,382.6c0.3-0.6,0.9-1,1.8-1.3l8.6-2.4c0.9-0.3,1.6-0.7,2-1.2s0.7-1.2,0.7-2.1l2.6-0.7l2.3,8.4
				l-2.8,0.8l-0.9-3.4c-0.4,1.1-1.2,1.8-2.6,2.2l-7.7,2.2c-0.6,0.2-0.8,0.6-0.7,1.2l0.3,0.9l-2.8,0.8l-0.9-3.1
				C486,384,486.1,383.2,486.4,382.6z"/>
			<path class="st2" d="M495.8,387.5c1.7-0.7,3.3-0.7,4.6,0c1.4,0.7,2.5,2.1,3.3,4.2c0.9,2.1,1,3.9,0.6,5.3
				c-0.5,1.4-1.6,2.5-3.3,3.2l-7.8,3.2l-1.6-3.9l8-3.3c0.7-0.3,1.2-0.7,1.4-1.4c0.2-0.6,0.2-1.3-0.1-2.1c-0.3-0.8-0.8-1.4-1.4-1.6
				c-0.6-0.3-1.2-0.2-2,0.1l-1.8,0.8c0.3,0.2,0.6,0.4,0.8,0.7c0.3,0.3,0.5,0.6,0.6,1l0.6,1.4l-3,1.3L494,395
				c-0.3-0.8-0.8-1.3-1.4-1.7l-3.2,1.3l-1.6-3.9L495.8,387.5z"/>
			<path class="st2" d="M496,408.9c-0.3-0.9-0.6-1.6-0.6-2.2l2.8-1.6c0.1,0.7,0.2,1.4,0.5,2.2c0.3,0.8,0.6,1.4,0.9,2
				c0.5,0.9,0.9,1.5,1.3,1.7c0.3,0.3,0.7,0.3,1,0.1c0.3-0.2,0.5-0.5,0.5-0.9c0-0.4-0.1-1.1-0.3-2.1l-0.2-1c-0.3-1.4-0.3-2.5-0.1-3.3
				c0.2-0.8,0.8-1.5,1.7-2c1.1-0.6,2.3-0.7,3.4-0.2c1.2,0.5,2.3,1.6,3.2,3.3c0.4,0.7,0.8,1.4,1.1,2.2c0.3,0.8,0.5,1.5,0.7,2.1
				l-2.8,1.6c-0.1-0.6-0.2-1.2-0.5-1.9c-0.2-0.7-0.5-1.3-0.8-1.8c-0.4-0.7-0.8-1.2-1.2-1.5c-0.4-0.3-0.7-0.4-1.1-0.2
				c-0.3,0.2-0.4,0.4-0.4,0.8c0,0.4,0.1,0.9,0.3,1.8c0,0.1,0.1,0.3,0.1,0.5c0,0.2,0.1,0.5,0.2,0.8c0.2,1.1,0.3,1.9,0.2,2.6
				c0,0.7-0.2,1.2-0.5,1.7c-0.3,0.4-0.8,0.9-1.5,1.3c-1.2,0.7-2.3,0.7-3.4,0.2c-1.1-0.6-2.2-1.7-3.2-3.3
				C496.8,410.7,496.4,409.8,496,408.9z"/>
			<path class="st2" d="M505.1,423.2c-0.3-0.5-0.5-1-0.6-1.4l5.1-8.8l2.5,3.2l-3.7,6.4c0.7,0.8,1.5,1.1,2.4,1.1
				c0.9-0.1,2-0.6,3.2-1.5c0.7-0.5,1.2-1,1.5-1.5s0.4-0.9,0.3-1.3c-0.1-0.4-0.4-1-0.8-1.5l-0.6-0.8l2.5-1.9l1.1,1.4
				c2.5,3.3,2.1,6.3-1.4,9c-2.1,1.6-4,2.3-5.7,2c-1.8-0.2-3.3-1.2-4.6-2.9C505.7,424.2,505.4,423.7,505.1,423.2z"/>
			<path class="st2" d="M515.9,429.4c1.2-1.2,2.4-1.6,3.7-1l-1.3-2.2l2.5-2.5c1.1,0.1,2.2,0.4,3.4,1c1.2,0.5,2.3,1.3,3.3,2.3
				c1.7,1.6,2.6,3.2,2.8,4.7c0.2,1.5-0.4,2.9-1.8,4.4l-5.9,6l-3-2.9l5.9-6c0.7-0.7,1-1.4,1-2c0-0.6-0.5-1.3-1.2-2.1
				c-0.5-0.5-1-0.8-1.5-1.1c-0.5-0.3-1.1-0.4-1.5-0.5l-0.2,0.2l1.4,2.5l-1.5,1.6c-0.6-0.3-1.1-0.4-1.5-0.3c-0.4,0.1-0.9,0.4-1.4,0.9
				l-3.1,3.1l-3-2.9L515.9,429.4z"/>
			<path class="st2" d="M534.6,440.7c0.6-0.7,0.8-1.4,0.8-2c0-0.6-0.4-1.1-1.2-1.7c-0.9-0.7-1.9-1.2-3.2-1.5l1.8-2.4
				c0.6,0.1,1.2,0.3,2,0.7c0.7,0.3,1.4,0.7,2,1.2c1.6,1.2,2.5,2.4,2.7,3.7c0.2,1.3-0.2,2.6-1.3,4.1l-5.3,7.1l-3.3-2.5L534.6,440.7z"
				/>
			<path class="st2" d="M537.8,453.3c-0.7-0.6-1.3-1.1-1.6-1.6l1.7-2.8c0.4,0.6,0.9,1.1,1.5,1.6c0.6,0.5,1.2,1,1.8,1.3
				c0.9,0.5,1.5,0.8,1.9,0.9c0.4,0.1,0.7-0.1,0.9-0.4c0.2-0.3,0.2-0.7,0-1s-0.6-0.9-1.3-1.7l-0.7-0.8c-0.9-1.1-1.5-2-1.7-2.8
				c-0.2-0.8-0.1-1.7,0.4-2.6c0.7-1.1,1.6-1.8,2.9-1.9c1.3-0.1,2.8,0.3,4.5,1.3c0.7,0.4,1.4,0.9,2,1.4c0.7,0.5,1.2,1,1.6,1.5
				l-1.6,2.8c-0.3-0.5-0.8-0.9-1.4-1.4c-0.6-0.5-1.1-0.9-1.6-1.2c-0.7-0.4-1.3-0.7-1.8-0.8c-0.5-0.1-0.8,0-1,0.4
				c-0.2,0.3-0.2,0.6,0,0.9c0.2,0.3,0.5,0.8,1.1,1.4c0.1,0.1,0.2,0.3,0.4,0.4c0.1,0.2,0.3,0.4,0.5,0.6c0.7,0.8,1.2,1.6,1.5,2.2
				c0.3,0.6,0.4,1.2,0.4,1.7c0,0.5-0.3,1.1-0.7,1.8c-0.7,1.1-1.6,1.8-2.9,1.8c-1.3,0.1-2.7-0.4-4.4-1.4
				C539.4,454.4,538.6,453.9,537.8,453.3z"/>
			<path class="st2" d="M554.3,446.5l3.9,1.6l-1.5,3.7l2.7,1.1c0.7,0.3,1.2,0.3,1.6,0.1c0.4-0.2,0.7-0.6,1-1.3l0.7-1.8l3.9,1.6
				l-0.8,1.9c-0.7,1.7-1.7,2.5-3.1,2.5c0.5,0.5,0.7,1,0.8,1.6s-0.1,1.2-0.4,2l-2,4.9l-3.9-1.6l1.8-4.4c0.3-0.7,0.4-1.3,0.2-1.7
				c-0.2-0.4-0.6-0.7-1.3-1l-2.6-1.1l-2.6,6.3l-3.9-1.6L554.3,446.5z"/>
			<path class="st2" d="M566.3,465.4c-0.7-0.9-0.8-2.1-0.5-3.6c0.4-1.4,1.1-2.3,2.2-2.9c1.1-0.5,2.5-0.6,4.2-0.1l3.6,0.9l0.1-0.5
				c0.2-0.7,0.1-1.2-0.3-1.6c-0.4-0.4-1.1-0.7-2.2-1c-1.5-0.4-3.1-0.5-4.8-0.4l0.7-2.9c0.8-0.1,1.7-0.1,2.7,0c1,0.1,2,0.3,2.9,0.5
				c4.2,1.1,5.9,3.4,4.9,7l-2.1,8.4l-4.1-1l1.4-5.5l-3-0.8c-0.7-0.2-1.2-0.2-1.6-0.1c-0.4,0.1-0.7,0.5-0.8,1
				c-0.1,0.5-0.1,0.9,0.2,1.2c0.2,0.3,0.7,0.5,1.4,0.7c0.6,0.2,1.2,0.2,1.6,0.2l-0.7,2.7c-0.7,0.1-1.7,0-2.8-0.3
				C568,466.9,567,466.3,566.3,465.4z"/>
			<path class="st2" d="M581.4,469.1l0.3-3.1c0.5,0.3,1.1,0.6,1.8,0.8c0.6,0.2,1.3,0.4,1.9,0.4c1.5,0.2,2.5,0,3.3-0.6
				c0.7-0.6,1.2-1.6,1.3-3c0.2-1.4,0-2.5-0.6-3.2c-0.6-0.7-1.6-1.2-3-1.3c-1.3-0.1-2.6,0-3.8,0.4l0.3-3c1.5-0.4,3.1-0.5,4.9-0.3
				c4.8,0.5,6.9,3.2,6.4,8c-0.5,4.8-3.2,6.9-8,6.4C584.2,470.3,582.6,469.8,581.4,469.1z"/>
			<path class="st2" d="M601.1,471.3c-0.6-0.1-1.1-0.2-1.5-0.3l-4-9.4l4.1-0.1l2.9,6.8c1-0.1,1.8-0.5,2.3-1.3
				c0.5-0.8,0.7-1.9,0.7-3.4c0-0.9-0.1-1.6-0.3-2.1c-0.2-0.5-0.5-0.8-0.9-1c-0.4-0.2-1-0.3-1.7-0.3l-1,0l-0.1-3.2l1.8,0
				c4.2-0.1,6.3,2.1,6.4,6.5c0,2.6-0.6,4.5-1.8,5.8c-1.2,1.3-2.9,1.9-5.1,2C602.2,471.4,601.6,471.4,601.1,471.3z"/>
			<path class="st2" d="M613.8,469.8c-1-0.5-1.6-1.6-1.8-3.1c-0.2-1.4,0.1-2.6,0.9-3.5c0.8-0.9,2.1-1.6,3.8-1.8l3.7-0.6l-0.1-0.5
				c-0.1-0.7-0.4-1.1-1-1.4c-0.5-0.2-1.3-0.2-2.4-0.1c-1.6,0.3-3.1,0.7-4.5,1.5l-0.5-3c0.7-0.4,1.5-0.7,2.5-1c1-0.3,1.9-0.5,2.8-0.7
				c0.8-0.1,1.7-0.2,2.5-0.1l5.1-0.8l0.3,3.1l-1.5,0.2c0.2,0.2,0.4,0.6,0.6,1c0.2,0.4,0.3,0.9,0.3,1.3l1.3,8.3l-4.1,0.7l-0.9-5.6
				l-3,0.5c-0.7,0.1-1.2,0.3-1.5,0.6c-0.3,0.3-0.4,0.7-0.3,1.3c0.1,0.5,0.3,0.9,0.6,1.1c0.3,0.2,0.9,0.2,1.6,0.1
				c0.6-0.1,1.2-0.2,1.5-0.4l0.4,2.8c-0.7,0.4-1.6,0.6-2.7,0.8C616,470.5,614.8,470.4,613.8,469.8z"/>
			<path class="st2" d="M629.8,467.1l-0.9-3c0.6,0.1,1.3,0.1,1.9,0.1c0.7,0,1.3-0.2,1.9-0.3c1.4-0.4,2.3-1,2.8-1.8
				c0.4-0.8,0.4-1.9,0-3.3c-0.4-1.4-1-2.3-1.9-2.7c-0.8-0.4-1.9-0.4-3.3,0c-1.3,0.4-2.4,1-3.4,1.9l-0.9-2.9c1.2-1,2.6-1.7,4.3-2.2
				c4.6-1.4,7.6,0.2,9.1,4.8c1.4,4.6-0.2,7.6-4.8,9.1C632.8,467.1,631.2,467.3,629.8,467.1z"/>
			<path class="st2" d="M645.6,461.4c-1.2-0.4-2.1-1.4-2.8-2.8l-3.9-8.3l3.8-1.8l3.7,8c0.3,0.7,0.7,1.2,1.2,1.3
				c0.5,0.2,1.1,0.1,1.7-0.2c0.5-0.2,0.9-0.6,1.3-1c0.4-0.4,0.6-0.9,0.8-1.3l-4.2-9l3.8-1.8l5.9,12.7l-3.5,1.6l-0.7-1
				c-0.7,1.4-1.9,2.5-3.5,3.3C648.1,461.8,646.8,461.8,645.6,461.4z"/>
			<path class="st2" d="M664.6,452.8c-0.5,0.2-0.9,0.4-1.2,0.4l-4-3l-1.6,1.1l-1.6-2.7l3.6-2.3l4.5,3.3c1.5-1.1,1.5-2.8,0-5.1
				c-0.6-0.9-1.1-1.4-1.6-1.8s-1.1-0.4-1.8-0.3c-0.7,0.1-1.4,0.5-2.4,1.1c-0.6,0.4-1.1,0.8-1.8,1.4c-0.6,0.5-1.2,1.1-1.6,1.7
				l-1.6-2.5c0.5-0.7,1.2-1.3,1.9-2c0.7-0.7,1.5-1.3,2.3-1.8c2.2-1.4,4.1-2,5.7-1.6c1.6,0.4,3.1,1.5,4.4,3.5
				c0.9,1.3,1.3,2.6,1.4,3.9c0.1,1.3-0.1,2.4-0.7,3.5c-0.5,1-1.3,1.9-2.3,2.5C665.6,452.4,665.1,452.6,664.6,452.8z"/>
			<path class="st2" d="M651.1,440.2l9.3-7l1.7,2.3l-9.4,7.1L651.1,440.2z"/>
			<path class="st2" d="M674.4,444.1c-1.5-0.1-3.1-1.1-4.7-2.8c-1.7-1.9-2.6-3.6-2.8-5.1c-0.2-1.5,0.3-2.8,1.4-3.9
				c0.5-0.4,1-0.7,1.5-0.9c0.5-0.1,1-0.2,1.5,0c0-0.5,0.2-1.1,0.5-1.7c0.3-0.6,0.7-1.1,1.2-1.5c0.9-0.8,1.9-1.2,2.8-1.1
				c0.9,0.1,1.8,0.7,2.6,1.6l6.8,7.7l-3.1,2.8l-6.3-7.1c-0.4-0.4-0.7-0.7-1-0.8c-0.3-0.1-0.6,0-0.9,0.2c-0.2,0.2-0.3,0.4-0.4,0.7
				c0,0.3,0,0.6,0.2,0.9l-1.2,1c-0.4-0.2-0.7-0.2-0.9-0.3c-0.2,0-0.4,0.1-0.7,0.3c-0.5,0.4-0.5,1-0.2,1.7c0.3,0.7,1,1.7,1.9,2.7
				c0.9,1,1.7,1.6,2.4,1.7c0.7,0.1,1.4-0.1,2.1-0.7c0.5-0.5,0.9-0.9,1.1-1.3l1.9,2.2c-0.3,0.7-0.9,1.3-1.6,2
				C677.4,443.7,675.9,444.2,674.4,444.1z"/>
			<path class="st2" d="M689.5,431.7c-0.7,0.6-1.3,1.1-1.9,1.3l-2.5-2.1c0.6-0.3,1.2-0.7,1.9-1.2c0.6-0.5,1.2-1,1.6-1.5
				c0.7-0.8,1.1-1.4,1.2-1.8c0.1-0.4,0.1-0.7-0.2-1c-0.3-0.3-0.6-0.3-1-0.2c-0.4,0.1-1,0.4-1.9,1l-0.9,0.6c-1.2,0.7-2.2,1.1-3.1,1.2
				c-0.9,0.1-1.7-0.2-2.5-0.9c-1-0.8-1.4-1.9-1.4-3.2c0.1-1.3,0.8-2.7,2-4.2c0.5-0.6,1.1-1.2,1.7-1.8c0.6-0.6,1.2-1,1.7-1.3l2.5,2.1
				c-0.5,0.3-1.1,0.6-1.6,1.1c-0.6,0.5-1,0.9-1.4,1.4c-0.5,0.6-0.9,1.2-1.1,1.6c-0.2,0.5-0.1,0.8,0.2,1.1c0.2,0.2,0.5,0.3,0.9,0.1
				c0.3-0.1,0.9-0.4,1.6-0.8c0.1-0.1,0.3-0.2,0.5-0.3c0.2-0.1,0.4-0.2,0.7-0.4c0.9-0.5,1.7-0.9,2.4-1.1c0.6-0.2,1.2-0.2,1.7-0.1
				c0.5,0.1,1.1,0.5,1.7,1c1,0.9,1.4,1.9,1.3,3.2c-0.1,1.3-0.8,2.6-2.1,4.1C690.9,430.4,690.2,431.1,689.5,431.7z"/>
			<path class="st2" d="M697.2,420.8c-1.1,0.4-2.3,0.1-3.6-0.7c-1.2-0.8-1.9-1.8-2-3c-0.1-1.2,0.3-2.6,1.2-4l2-3.1l-0.4-0.3
				c-0.6-0.4-1.1-0.4-1.6-0.2c-0.5,0.2-1.1,0.8-1.7,1.7c-0.9,1.3-1.5,2.8-1.9,4.4l-2.5-1.6c0.2-0.8,0.5-1.6,0.9-2.5
				c0.4-0.9,0.9-1.8,1.4-2.6c2.4-3.6,5.1-4.5,8.2-2.4l7.3,4.7l-2.3,3.5l-4.8-3.1l-1.7,2.6c-0.4,0.6-0.6,1.1-0.6,1.5
				c0,0.4,0.2,0.8,0.7,1.1c0.5,0.3,0.9,0.4,1.2,0.2s0.7-0.5,1.1-1.1c0.4-0.6,0.6-1,0.7-1.4l2.4,1.5c-0.2,0.7-0.6,1.6-1.2,2.5
				C699.3,419.7,698.3,420.5,697.2,420.8z"/>
			<path class="st2" d="M705.8,405.6c-1.5,0.5-3.3,0.3-5.4-0.7c-2.3-1-3.7-2.4-4.4-4.1c-0.7-1.7-0.5-3.7,0.5-6
				c0.7-1.5,1.5-2.6,2.4-3.4c0.9-0.8,1.9-1.2,2.9-1.3c1-0.1,2,0.1,2.9,0.5l7.7,3.5l-1.7,3.8l-7.4-3.3c-0.9-0.4-1.7-0.5-2.3-0.3
				c-0.7,0.2-1.2,0.8-1.7,1.9c-0.5,1-0.5,2,0,2.8c0.4,0.8,1.4,1.5,2.8,2.1c1.2,0.6,2.2,0.7,2.9,0.6c0.7-0.2,1.2-0.7,1.6-1.5
				c0.3-0.7,0.5-1.2,0.5-1.6l2.7,1.2c0,0.7-0.3,1.6-0.7,2.5C708.4,404,707.3,405.1,705.8,405.6z"/>
			<path class="st2" d="M707.1,383.2c-0.9-0.3-1.6-0.3-2.1-0.1c-0.5,0.2-0.9,0.8-1.2,1.7c-0.3,1.1-0.4,2.2-0.3,3.5l-2.8-0.8
				c-0.1-0.6-0.1-1.3,0-2.1c0.1-0.8,0.2-1.6,0.4-2.3c0.6-1.9,1.4-3.2,2.5-3.8c1.1-0.6,2.5-0.7,4.3-0.2l8.5,2.5l-1.2,4L707.1,383.2z"
				/>
		</g>
	</g>
</g>
</svg>
