<svg xmlns="http://www.w3.org/2000/svg" viewBox="0 0 136.59 202.45"><defs><style>.cls-1{fill:#fccf05;}</style></defs><title>Asset 9</title><g id="Layer_2" data-name="Layer 2"><g id="Layer_1-2" data-name="Layer 1"><g id="_" data-name="?"><path class="cls-1" d="M29.26,9.2c33-17.2,91.4-11.7,105.2,28.5,3.3,9.7,3.1,21.3-3,29.6-7,9.5-18.4,12.8-28.3,17.9-9.5,4.9-18.6,11.4-23.4,21.3-7.1,14.7-2.8,33.3-11.4,47.2-1.1,1.8-2.5,3.5-4.5,4.1-5.8,1.8-9.2-6.5-9.6-12.6-1-15-1.9-30.7,4.6-44.3,2.7-5.6,6.6-10.6,10.4-15.4,3.1-4,7.5-7.2,10.2-11.3,1.8-2.9,3.6-5.7,5.5-8.6a35.76,35.76,0,0,0,4.1-7.7c2.6-7.5.2-16.3-5.2-22.1s-13.3-9-21.3-9.5c-10.5,0-21.5,1-30.2,7.7a60.41,60.41,0,0,0-11.8,12.9c-2.1,3-4.2,6.1-7.4,7.9C6.06,59-.74,53,.06,45.7c.6-6.1,4-12.4,7.5-17.3A64.28,64.28,0,0,1,29.26,9.2Z"/><path class="cls-1" d="M53.66,167.8a15,15,0,0,0-6.4,3.8c-4.7,4.6-6,12.3-3.5,18.4a20.57,20.57,0,0,0,14.9,11.9c14.7,3,26.7-6.7,22.7-21.7C78.66,170,63.06,165,53.66,167.8Z"/></g></g></g></svg>