<svg xmlns="http://www.w3.org/2000/svg" viewBox="0 0 493.9 445.9"><defs><style>.cls-1{fill:#c5e9ef;}</style></defs><title>Asset 4</title><g id="Layer_2" data-name="Layer 2"><g id="Layer_1-2" data-name="Layer 1"><g id="เมฆหนึ่ง"><path class="cls-1" d="M453.9,333.2a68.58,68.58,0,0,0-68.6-68.6,70.32,70.32,0,0,0-20.1,3,106.59,106.59,0,0,0-207.1-27.1,101.46,101.46,0,0,0-59.6,25.2A73.91,73.91,0,1,0,73.9,409.3,73.28,73.28,0,0,0,88,407.9a101.77,101.77,0,0,0,134.7,19.3,55.64,55.64,0,0,0,84.5-1.5A56.32,56.32,0,0,0,406,398.6,68.59,68.59,0,0,0,453.9,333.2Z"/><path class="cls-1" d="M468.9,47.4a23,23,0,0,0,5.7-15.3,23.3,23.3,0,0,0-43.5-11.6,29.25,29.25,0,0,0-56.7,3.6,40.32,40.32,0,0,0-6-.4,42.6,42.6,0,1,0,36.3,64.9,31.41,31.41,0,0,0,37.4-1.4,27.41,27.41,0,1,0,26.8-39.8Z"/></g></g></g></svg>