<svg xmlns="http://www.w3.org/2000/svg" viewBox="0 0 672.6 294.9"><defs><style>.cls-1{fill:#c5e9ef;}</style></defs><title>Asset 8</title><g id="Layer_2" data-name="Layer 2"><g id="Layer_1-2" data-name="Layer 1"><g id="เมฆสาม"><path class="cls-1" d="M594.4,124.5a134.06,134.06,0,0,0-230-52.1c-3.5-.3-7-.5-10.6-.5a111.37,111.37,0,0,0-96.6,55.8h-1a83.6,83.6,0,0,0,0,167.2,82.47,82.47,0,0,0,45-13.2,111.46,111.46,0,0,0,105.6-.2,134.29,134.29,0,0,0,127-5.4,85.35,85.35,0,1,0,60.6-151.6Z"/><path class="cls-1" d="M143.1,47.4a23,23,0,0,0,5.7-15.3,23.3,23.3,0,0,0-43.5-11.6,29.25,29.25,0,0,0-56.7,3.6,40.35,40.35,0,0,0-6-.4A42.6,42.6,0,1,0,78.9,88.6a31.41,31.41,0,0,0,37.4-1.4,27.41,27.41,0,1,0,26.8-39.8Z"/></g></g></g></svg>