<svg xmlns="http://www.w3.org/2000/svg" viewBox="0 0 490.5 319.9"><defs><style>.cls-1{fill:#c5e9ef;}</style></defs><title>Asset 7</title><g id="Layer_2" data-name="Layer 2"><g id="Layer_1-2" data-name="Layer 1"><g id="เมฆสอง"><path class="cls-1" d="M465.5,47.4a23,23,0,0,0,5.7-15.3,23.3,23.3,0,0,0-43.5-11.6A29.25,29.25,0,0,0,371,24.1a40.32,40.32,0,0,0-6-.4,42.6,42.6,0,1,0,36.3,64.9,31.41,31.41,0,0,0,37.4-1.4,27.41,27.41,0,1,0,26.8-39.8Z"/><path class="cls-1" d="M342.3,218.5a49.38,49.38,0,0,0-9.5.9,63.54,63.54,0,0,0-27.4-22A107.11,107.11,0,0,0,96.7,178.1a71.72,71.72,0,1,0,31.1,111.7,106.9,106.9,0,0,0,115.3,17.7,63.69,63.69,0,0,0,70.4,3.4,50.69,50.69,0,1,0,28.8-92.4Z"/></g></g></g></svg>