<svg xmlns="http://www.w3.org/2000/svg" viewBox="0 0 482.8 169.1"><defs><style>.cls-1{fill:#74739a;}.cls-2,.cls-3{isolation:isolate;}.cls-3{font-size:24px;font-family:Kanit-Regular, Kanit;}.cls-3,.cls-4{fill:#fff;}</style></defs><title>Asset 4</title><g id="Layer_2" data-name="Layer 2"><g id="Layer_1-2" data-name="Layer 1"><g id="โลเคชั่น"><path class="cls-1" d="M0,41C0,18.4,23.1,0,51.5,0H431.3c28.5,0,51.5,18.4,51.5,41V93.5c0,22.6-23.1,41-51.5,41H62.5l-10.6.2L0,169.1s1-54.2.3-71A31.46,31.46,0,0,1,0,93.7v-.1H0V41Z"/><g class="cls-2"><text class="cls-3" transform="translate(107 57.74)">ถนนราชวิถี แขวง สวนจิตรลดา </text><text class="cls-3" transform="translate(107 86.54)">เขตดุสิต กรุงเทพมหานคร 10303</text></g><path class="cls-4" d="M77,67.39H58.46a6.1,6.1,0,0,1-6.1-6.1h0a11.2,11.2,0,0,1,11.2-11.2h6.2A11.2,11.2,0,0,1,81,61.29v2A3.91,3.91,0,0,1,77,67.39Z"/><path class="cls-4" d="M67.86,83.49h-2.3a.58.58,0,0,1-.6-.6V66.29a.58.58,0,0,1,.6-.6h2.3a.58.58,0,0,1,.6.6v16.6C68.56,83.19,68.26,83.49,67.86,83.49Z"/><path class="cls-4" d="M72.66,54.79H71a.58.58,0,0,1-.6-.6V44.09a.58.58,0,0,1,.6-.6h1.7a.58.58,0,0,1,.6.6v10.1C73.36,54.59,73.06,54.79,72.66,54.79Z"/><path class="cls-4" d="M75.46,47.69h-4.4a.58.58,0,0,1-.6-.6v-2.9a.58.58,0,0,1,.6-.6h4.4a2.05,2.05,0,0,1,2.1,2.1h0A2.25,2.25,0,0,1,75.46,47.69Z"/></g></g></g></svg>