<svg xmlns="http://www.w3.org/2000/svg" viewBox="0 0 178.1 169.2"><defs><style>.cls-1{fill:#eda2a1;}.cls-2{fill:#dd8d8e;}.cls-3{fill:#ba6d6c;}.cls-4{fill:#605f81;}.cls-5{fill:#74739a;}</style></defs><title>Asset 2</title><g id="Layer_2" data-name="Layer 2"><g id="Layer_1-2" data-name="Layer 1"><g id="กังหัน"><g id="_Group_" data-name="&lt;Group&gt;"><polygon class="cls-1" points="169 19.8 178.1 30.1 171 36.5 162 26 169 19.8"/><polygon class="cls-2" points="162 26 171 36.5 168.8 38.4 159.8 27.9 162 26"/><polygon class="cls-3" points="169 19.8 162 26 160.4 24.2 160.3 24.1 167.3 17.9 167.3 17.9 169 19.8"/><polygon class="cls-4" points="167.3 17.9 160.3 24.1 158.2 26 151.3 32.2 149.1 34.1 142.9 39.6 140.7 41.5 135 46.6 132.9 48.5 126.7 54 124.6 55.9 118.5 61.3 116.4 63.2 93.7 83.5 91.5 81.1 165.2 15.5 167.3 17.9"/><polygon class="cls-1" points="159.8 27.9 168.8 38.4 161.9 44.6 152.9 34.1 159.8 27.9"/><polygon class="cls-3" points="162 26 159.8 27.9 158.2 26 158.2 26 160.3 24.1 160.4 24.2 162 26"/><polygon class="cls-2" points="152.9 34.1 161.9 44.6 159.8 46.5 150.8 36 152.9 34.1"/><polygon class="cls-3" points="158.2 26 159.8 27.9 152.9 34.1 151.5 32.4 151.3 32.2 158.2 26"/><polygon class="cls-1" points="159.8 46.5 153.5 52.1 144.5 41.5 150.8 36 159.8 46.5"/><polygon class="cls-3" points="151.5 32.4 152.9 34.1 150.8 36 149.3 34.3 149.1 34.1 151.3 32.2 151.5 32.4"/><polygon class="cls-2" points="144.5 41.5 153.5 52.1 151.4 54 142.4 43.4 144.5 41.5"/><polygon class="cls-3" points="150.8 36 144.5 41.5 143 39.7 142.9 39.6 149.1 34.1 149.3 34.3 150.8 36"/><polygon class="cls-1" points="151.4 54 145.7 59 136.7 48.5 142.4 43.4 151.4 54"/><polygon class="cls-3" points="143 39.7 144.5 41.5 142.4 43.4 140.8 41.6 140.7 41.5 142.9 39.6 143 39.7"/><polygon class="cls-2" points="145.7 59 143.5 61 134.5 50.4 136.7 48.5 145.7 59"/><polygon class="cls-3" points="140.8 41.6 142.4 43.4 136.7 48.5 135.4 47 135 46.6 140.7 41.5 140.8 41.6"/><polygon class="cls-1" points="143.5 61 137.3 66.4 128.3 55.9 134.5 50.4 143.5 61"/><polygon class="cls-3" points="136.7 48.5 134.5 50.4 133.2 48.9 132.9 48.5 135 46.6 135.4 47 136.7 48.5"/><polygon class="cls-2" points="137.3 66.4 135.2 68.4 126.2 57.8 128.3 55.9 137.3 66.4"/><polygon class="cls-3" points="134.5 50.4 128.3 55.9 126.9 54.2 126.7 54 132.9 48.5 133.2 48.9 134.5 50.4"/><polygon class="cls-1" points="126.2 57.8 135.2 68.4 129.1 73.8 120.1 63.2 126.2 57.8"/><polygon class="cls-3" points="126.9 54.2 128.3 55.9 126.2 57.8 124.7 56.1 124.6 55.9 126.7 54 126.9 54.2"/><polygon class="cls-2" points="120.1 63.2 129.1 73.8 127 75.7 118 65.1 120.1 63.2"/><polygon class="cls-3" points="126.2 57.8 120.1 63.2 118.6 61.4 118.5 61.3 124.6 55.9 124.7 56.1 126.2 57.8"/><polygon class="cls-3" points="120.1 63.2 118 65.1 116.4 63.2 118.5 61.3 118.6 61.4 120.1 63.2"/></g><g id="_Group_2" data-name="&lt;Group&gt;"><polygon class="cls-1" points="164.7 158.9 155.5 169.2 148.3 162.9 157.7 152.7 164.7 158.9"/><polygon class="cls-2" points="157.7 152.7 148.3 162.9 146.2 161 155.5 150.8 157.7 152.7"/><polygon class="cls-3" points="164.7 158.9 157.7 152.7 159.3 150.9 159.4 150.8 166.4 157 164.7 158.9"/><polygon class="cls-4" points="168.5 154.6 166.4 157 159.4 150.8 157.2 148.9 150.2 142.8 148.1 140.9 141.8 135.4 139.7 133.5 134 128.5 131.8 126.6 125.6 121.1 123.5 119.2 117.4 113.8 115.2 111.9 92.4 91.8 94.5 89.4 168.5 154.6"/><polygon class="cls-1" points="155.5 150.8 146.2 161 139.2 154.8 148.6 144.6 155.5 150.8"/><polygon class="cls-3" points="159.3 150.9 157.7 152.7 155.5 150.8 157.2 149 157.2 148.9 159.4 150.8 159.3 150.9"/><polygon class="cls-2" points="139.2 154.8 137 152.9 146.4 142.7 148.6 144.6 139.2 154.8"/><polygon class="cls-3" points="157.2 149 155.5 150.8 148.6 144.6 150 143.1 150.2 142.8 157.2 148.9 157.2 149"/><polygon class="cls-1" points="146.4 142.7 137 152.9 130.8 147.4 140.2 137.2 146.4 142.7"/><polygon class="cls-3" points="148.6 144.6 146.4 142.7 147.9 141.1 148.1 140.9 150.2 142.8 150 143.1 148.6 144.6"/><polygon class="cls-2" points="140.2 137.2 130.8 147.4 128.6 145.6 138 135.3 140.2 137.2"/><polygon class="cls-3" points="146.4 142.7 140.2 137.2 141.8 135.5 141.8 135.4 148.1 140.9 147.9 141.1 146.4 142.7"/><polygon class="cls-1" points="128.6 145.6 122.9 140.5 132.3 130.3 138 135.3 128.6 145.6"/><polygon class="cls-3" points="141.8 135.5 140.2 137.2 138 135.3 139.6 133.6 139.7 133.5 141.8 135.4 141.8 135.5"/><polygon class="cls-2" points="122.9 140.5 120.8 138.6 130.2 128.4 132.3 130.3 122.9 140.5"/><polygon class="cls-3" points="139.6 133.6 138 135.3 132.3 130.3 133.6 128.8 134 128.5 139.7 133.5 139.6 133.6"/><polygon class="cls-1" points="130.2 128.4 120.8 138.6 114.5 133.1 123.9 122.9 130.2 128.4"/><polygon class="cls-3" points="133.6 128.8 132.3 130.3 130.2 128.4 131.5 126.9 131.8 126.6 134 128.5 133.6 128.8"/><polygon class="cls-2" points="123.9 122.9 114.5 133.1 112.4 131.2 121.8 121 123.9 122.9"/><polygon class="cls-3" points="130.2 128.4 123.9 122.9 125.4 121.3 125.6 121.1 131.8 126.6 131.5 126.9 130.2 128.4"/><polygon class="cls-1" points="121.8 121 112.4 131.2 106.3 125.9 115.7 115.6 121.8 121"/><polygon class="cls-3" points="125.4 121.3 123.9 122.9 121.8 121 123.3 119.4 123.5 119.2 125.6 121.1 125.4 121.3"/><polygon class="cls-2" points="106.3 125.9 104.2 124 113.6 113.7 115.7 115.6 106.3 125.9"/><polygon class="cls-3" points="123.3 119.4 121.8 121 115.7 115.6 117.3 113.9 117.4 113.8 123.5 119.2 123.3 119.4"/><polygon class="cls-3" points="115.7 115.6 113.6 113.7 115.2 111.9 117.4 113.8 117.3 113.9 115.7 115.6"/></g><g id="_Group_3" data-name="&lt;Group&gt;"><polygon class="cls-1" points="10 162.2 0 152.8 6.5 145.8 16.4 155.4 10 162.2"/><polygon class="cls-2" points="6.5 145.8 8.4 143.7 18.4 153.3 16.4 155.4 6.5 145.8"/><polygon class="cls-3" points="11.9 164 10 162.2 16.4 155.4 18.1 157.1 18.2 157.2 11.9 164"/><polygon class="cls-4" points="14.2 166.2 11.9 164 18.2 157.2 20.2 155.1 26.5 148.3 28.5 146.2 34.2 140.1 36.1 138 41.3 132.4 43.3 130.3 48.9 124.2 50.9 122.2 56.4 116.2 58.4 114.1 79.1 91.9 81.5 94.1 14.2 166.2"/><polygon class="cls-1" points="8.4 143.7 14.8 136.9 24.7 146.5 18.4 153.3 8.4 143.7"/><polygon class="cls-3" points="16.4 155.4 18.4 153.3 20.1 155.1 20.2 155.1 18.2 157.2 18.1 157.1 16.4 155.4"/><polygon class="cls-2" points="14.8 136.9 16.8 134.8 26.7 144.4 24.7 146.5 14.8 136.9"/><polygon class="cls-3" points="20.1 155.1 18.4 153.3 24.7 146.5 26.2 148 26.5 148.3 20.2 155.1 20.1 155.1"/><polygon class="cls-1" points="26.7 144.4 16.8 134.8 22.4 128.7 32.4 138.4 26.7 144.4"/><polygon class="cls-3" points="26.2 148 24.7 146.5 26.7 144.4 28.2 146 28.5 146.2 26.5 148.3 26.2 148"/><polygon class="cls-2" points="22.4 128.7 24.4 126.6 34.3 136.3 32.4 138.4 22.4 128.7"/><polygon class="cls-3" points="26.7 144.4 32.4 138.4 34 140 34.2 140.1 28.5 146.2 28.2 146 26.7 144.4"/><polygon class="cls-1" points="24.4 126.6 29.6 121 39.5 130.7 34.3 136.3 24.4 126.6"/><polygon class="cls-3" points="32.4 138.4 34.3 136.3 36.1 137.9 36.1 138 34.2 140.1 34 140 32.4 138.4"/><polygon class="cls-2" points="39.5 130.7 29.6 121 31.5 118.9 41.5 128.6 39.5 130.7"/><polygon class="cls-3" points="36.1 137.9 34.3 136.3 39.5 130.7 41 132.1 41.3 132.4 36.1 138 36.1 137.9"/><polygon class="cls-1" points="31.5 118.9 37.2 112.9 47.2 122.5 41.5 128.6 31.5 118.9"/><polygon class="cls-3" points="39.5 130.7 41.5 128.6 42.9 130 43.3 130.3 41.3 132.4 41 132.1 39.5 130.7"/><polygon class="cls-2" points="47.2 122.5 37.2 112.9 39.1 110.8 49.1 120.4 47.2 122.5"/><polygon class="cls-3" points="41.5 128.6 47.2 122.5 48.7 124.1 48.9 124.2 43.3 130.3 42.9 130 41.5 128.6"/><polygon class="cls-1" points="49.1 120.4 39.1 110.8 44.7 104.8 54.7 114.5 49.1 120.4"/><polygon class="cls-3" points="48.7 124.1 47.2 122.5 49.1 120.4 50.7 122 50.9 122.2 48.9 124.2 48.7 124.1"/><polygon class="cls-2" points="54.7 114.5 44.7 104.8 46.6 102.7 56.6 112.4 54.7 114.5"/><polygon class="cls-3" points="50.7 122 49.1 120.4 54.7 114.5 56.4 116.2 56.4 116.2 50.9 122.2 50.7 122"/><polygon class="cls-3" points="54.7 114.5 56.6 112.4 58.4 114.1 56.4 116.2 56.4 116.2 54.7 114.5"/></g><g id="_Group_4" data-name="&lt;Group&gt;"><polygon class="cls-1" points="15.1 9.9 24.7 0 31.6 6.7 21.8 16.4 15.1 9.9"/><polygon class="cls-2" points="21.8 16.4 31.6 6.7 33.7 8.7 23.9 18.4 21.8 16.4"/><polygon class="cls-3" points="15.1 9.9 21.8 16.4 20.1 18.1 20 18.2 13.3 11.7 15.1 9.9"/><polygon class="cls-4" points="11.1 14 13.3 11.7 20 18.2 22.1 20.2 28.8 26.6 30.8 28.6 36.8 34.4 38.9 36.4 44.4 41.7 46.4 43.7 52.4 49.5 54.4 51.5 60.3 57.1 62.3 59.1 62.3 59.1 84.2 80.3 82 82.6 11.1 14"/><polygon class="cls-1" points="23.9 18.4 33.7 8.7 40.4 15.1 30.5 24.9 23.9 18.4"/><polygon class="cls-3" points="21.8 16.4 23.9 18.4 22.1 20.1 22.1 20.2 20 18.2 20.1 18.1 21.8 16.4"/><polygon class="cls-2" points="40.4 15.1 42.4 17.1 32.6 26.9 30.5 24.9 40.4 15.1"/><polygon class="cls-3" points="22.1 20.1 23.9 18.4 30.5 24.9 29 26.4 28.8 26.6 22.1 20.2 22.1 20.1"/><polygon class="cls-1" points="32.6 26.9 42.4 17.1 48.4 22.9 38.6 32.7 32.6 26.9"/><polygon class="cls-3" points="30.5 24.9 32.6 26.9 31 28.4 30.8 28.6 28.8 26.6 29 26.4 30.5 24.9"/><polygon class="cls-2" points="38.6 32.7 48.4 22.9 50.5 24.9 40.6 34.7 38.6 32.7"/><polygon class="cls-3" points="31 28.4 32.6 26.9 38.6 32.7 36.9 34.3 36.8 34.4 30.8 28.6 31 28.4"/><polygon class="cls-1" points="50.5 24.9 56 30.2 46.1 40 40.6 34.7 50.5 24.9"/><polygon class="cls-3" points="36.9 34.3 38.6 32.7 40.6 34.7 38.9 36.4 38.9 36.4 36.8 34.4 36.9 34.3"/><polygon class="cls-2" points="56 30.2 58 32.2 48.2 42 46.1 40 56 30.2"/><polygon class="cls-3" points="38.9 36.4 40.6 34.7 46.1 40 44.7 41.4 44.4 41.7 38.9 36.4"/><polygon class="cls-1" points="58 32.2 64 38 54.1 47.8 48.2 42 58 32.2"/><polygon class="cls-3" points="46.1 40 48.2 42 46.7 43.4 46.4 43.7 44.4 41.7 44.7 41.4 46.1 40"/><polygon class="cls-2" points="54.1 47.8 64 38 66 40 56.1 49.8 54.1 47.8"/><polygon class="cls-3" points="48.2 42 54.1 47.8 52.6 49.3 52.4 49.5 46.4 43.7 46.7 43.4 48.2 42"/><polygon class="cls-1" points="56.1 49.8 66 40 71.9 45.6 62 55.4 56.1 49.8"/><polygon class="cls-3" points="52.6 49.3 54.1 47.8 56.1 49.8 54.6 51.3 54.4 51.5 52.4 49.5 52.6 49.3"/><polygon class="cls-2" points="71.9 45.6 73.9 47.6 64 57.4 62 55.4 71.9 45.6"/><polygon class="cls-3" points="56.1 49.8 62 55.4 60.3 57.1 60.3 57.1 54.4 51.5 54.6 51.3 56.1 49.8"/><polygon class="cls-3" points="60.3 57.1 62 55.4 64 57.4 62.3 59.1 62.3 59.1 60.3 57.1"/></g><circle class="cls-4" cx="86.3" cy="87.7" r="8.6"/><circle class="cls-5" cx="86.2" cy="87.7" r="5.1"/></g></g></g></svg>