<svg xmlns="http://www.w3.org/2000/svg" viewBox="0 0 1971 395.4"><defs><style>.cls-1{fill:#c5e9ef;}</style></defs><title>Asset 1</title><g id="Layer_2" data-name="Layer 2"><g id="Layer_1-2" data-name="Layer 1"><g id="เมฆหก"><path class="cls-1" d="M394,297.6a59.59,59.59,0,0,0-77-56.9,92.54,92.54,0,0,0-179.8-23.5,87.73,87.73,0,0,0-51.7,21.9,63.31,63.31,0,0,0-21.4-3.7,64.1,64.1,0,0,0,0,128.2,61.56,61.56,0,0,0,12.2-1.2,88.48,88.48,0,0,0,117,16.8,48.3,48.3,0,0,0,73.3-1.3,48.93,48.93,0,0,0,85.8-23.6A59.49,59.49,0,0,0,394,297.6Z"/></g><g id="เมฆห้า"><path class="cls-1" d="M580.1,28.3a13.89,13.89,0,0,0-10.5-23,14,14,0,0,0-12,6.9,17.37,17.37,0,0,0-33.7,2.2,21.86,21.86,0,0,0-3.6-.3,25.3,25.3,0,1,0,21.6,38.5,18.27,18.27,0,0,0,10.6,3.3,18.5,18.5,0,0,0,11.7-4.1,16.26,16.26,0,1,0,15.9-23.5Z"/></g><g id="เมฆสี่"><path class="cls-1" d="M827.6,92.1a34.93,34.93,0,0,0-6.5.6,44,44,0,0,0-18.6-15A72.79,72.79,0,0,0,660.7,64.6a47.94,47.94,0,0,0-17-3.1,48.7,48.7,0,1,0,38.1,79,72.92,72.92,0,0,0,78.3,12,43.32,43.32,0,0,0,47.8,2.3,34,34,0,0,0,19.6,6.1,34.4,34.4,0,0,0,.1-68.8Z"/></g><g id="เมฆสาม"><path class="cls-1" d="M1214.4,156.4a38.22,38.22,0,0,1,6.8.6,45,45,0,0,1,19.7-15.8,76.83,76.83,0,0,1,149.7-13.8,50.87,50.87,0,0,1,18-3.2,51.4,51.4,0,1,1-40.3,83.3,76.67,76.67,0,0,1-51.1,19.5,75.6,75.6,0,0,1-31.6-6.8,45.55,45.55,0,0,1-50.5,2.4,36.35,36.35,0,1,1-20.7-66.2Z"/></g><g id="เมฆสอง"><path class="cls-1" d="M1402,59.3a16.52,16.52,0,0,1,16.5-16.5,18.54,18.54,0,0,1,4.8.7A25.57,25.57,0,0,1,1473,37a23.81,23.81,0,0,1,14.3,6.1,16.63,16.63,0,0,1,5.9-1,17.7,17.7,0,0,1,0,35.4,18.7,18.7,0,0,1-3.4-.3,24.64,24.64,0,0,1-32.4,4.6,13.08,13.08,0,0,1-10,4.5,13.64,13.64,0,0,1-10.3-4.8,13.37,13.37,0,0,1-10.4,4.8,13.63,13.63,0,0,1-13.4-11.4A16.24,16.24,0,0,1,1402,59.3Z"/></g><g id="เมฆหนึ่ง"><path class="cls-1" d="M1932.8,238.8a35.72,35.72,0,1,0-57.9-41.3,44.71,44.71,0,0,0-86.7,5.5,69.89,69.89,0,0,0-9.2-.7,65.1,65.1,0,1,0,55.5,99.2,48.17,48.17,0,0,0,57.2-2.1,41.89,41.89,0,1,0,41.1-60.6Z"/></g></g></g></svg>