<svg xmlns="http://www.w3.org/2000/svg" viewBox="0 0 332.9 209.4"><defs><style>.cls-1{fill:#c5e9ef;}</style></defs><title>Asset 5</title><g id="Layer_2" data-name="Layer 2"><g id="Layer_1-2" data-name="Layer 1"><g id="เมฆสาม"><path class="cls-1" d="M36.4,136.7a38.22,38.22,0,0,1,6.8.6,45,45,0,0,1,19.7-15.8,76.83,76.83,0,0,1,149.7-13.8,50.87,50.87,0,0,1,18-3.2,51.4,51.4,0,1,1-40.3,83.3,76.67,76.67,0,0,1-51.1,19.5,75.6,75.6,0,0,1-31.6-6.8,45.55,45.55,0,0,1-50.5,2.4,36.35,36.35,0,1,1-20.7-66.2Z"/></g><g id="เมฆสอง"><path class="cls-1" d="M224,39.6a16.52,16.52,0,0,1,16.5-16.5,18.54,18.54,0,0,1,4.8.7A25.57,25.57,0,0,1,295,17.3a23.81,23.81,0,0,1,14.3,6.1,16.63,16.63,0,0,1,5.9-1,17.7,17.7,0,0,1,0,35.4,18.7,18.7,0,0,1-3.4-.3,24.64,24.64,0,0,1-32.4,4.6,13.08,13.08,0,0,1-10,4.5,13.64,13.64,0,0,1-10.3-4.8,13.37,13.37,0,0,1-10.4,4.8,13.63,13.63,0,0,1-13.4-11.4A16.24,16.24,0,0,1,224,39.6Z"/></g></g></g></svg>