<svg xmlns="http://www.w3.org/2000/svg" xmlns:xlink="http://www.w3.org/1999/xlink" viewBox="0 0 1920 629.24"><defs><style>.cls-1,.cls-29{fill:none;}.cls-2{fill:#8cad76;}.cls-3{fill:#b8e099;}.cls-4{fill:#6c8e4c;}.cls-5{fill:#fae4a9;}.cls-31,.cls-6{fill:#eda2a1;}.cls-7{fill:#fff3db;}.cls-8{clip-path:url(#clip-path);}.cls-9{fill:#434264;}.cls-10{clip-path:url(#clip-path-4);}.cls-11{clip-path:url(#clip-path-5);}.cls-12{fill:#e97625;}.cls-13{clip-path:url(#clip-path-7);}.cls-14{clip-path:url(#clip-path-12);}.cls-15{clip-path:url(#clip-path-14);}.cls-16{clip-path:url(#clip-path-23);}.cls-17{clip-path:url(#clip-path-24);}.cls-18{clip-path:url(#clip-path-26);}.cls-19{clip-path:url(#clip-path-29);}.cls-20{clip-path:url(#clip-path-30);}.cls-21{fill:#dd8d8e;}.cls-22{fill:#558886;}.cls-23{fill:#3d6968;}.cls-24{fill:#dca379;}.cls-25{fill:#74739a;}.cls-26{fill:#4d4c68;}.cls-27{fill:#605f81;}.cls-28{clip-path:url(#clip-path-32);}.cls-29{stroke:#c98557;stroke-width:7px;}.cls-29,.cls-31{stroke-miterlimit:10;}.cls-30,.cls-35{fill:#8c5937;}.cls-30{opacity:0.67;isolation:isolate;}.cls-31{stroke:#fff4dc;stroke-width:4px;}.cls-32{fill:#d68a8a;}.cls-33{fill:#b7591a;}.cls-34{fill:#684025;}</style><clipPath id="clip-path"><path class="cls-1" d="M1645.9,336.24H1538.3a40.38,40.38,0,0,0-35.2,20.5l-12.8,22.7,26,14.7,6.5-11.4a3.42,3.42,0,0,1,5.9-.1h0a32.09,32.09,0,0,0,16.1,14.5,18.26,18.26,0,0,1,11.4,16.9v32.9a3.16,3.16,0,0,0,3.2,3.2h3.6a3.16,3.16,0,0,0,3.2-3.2v-47.6h66a18,18,0,0,1,18,18v29.1a3.76,3.76,0,0,0,3.7,3.7h2.6a3.76,3.76,0,0,0,3.7-3.7v-64.3l3.6-25.3A18.08,18.08,0,0,0,1645.9,336.24Z"/></clipPath><clipPath id="clip-path-4"><path class="cls-1" d="M1495,375.94l21.5,4.2a4.4,4.4,0,0,1,3.4,5.5l-7.5,28.4a7,7,0,0,1-3.5,4.5,6.89,6.89,0,0,1-4.7.8c.2-1.6-2.2-3.4-5.6-4s-6.4.1-6.7,1.6a7.08,7.08,0,0,1-5.7-7.9l3.6-29.2A4.42,4.42,0,0,1,1495,375.94Z"/></clipPath><clipPath id="clip-path-5"><path class="cls-1" d="M1488.1,414.74a4.1,4.1,0,0,0,5,.8,8.85,8.85,0,0,1,5.5-.3,9,9,0,0,1,5,2.4,4,4,0,0,0,4.8,1.1,2.19,2.19,0,0,0,.5-.3c-1.1,3.4-6.2,5.3-11.8,4.3s-9.6-4.7-9.3-8.3Z"/></clipPath><clipPath id="clip-path-7"><path class="cls-1" d="M1249.8,453.94h20.3v.1h123.1a17.94,17.94,0,0,1,17.8,20.4l-3.5,25.1v63.8a3.69,3.69,0,0,1-3.7,3.7h-2.5a3.69,3.69,0,0,1-3.7-3.7v-28.8a17.84,17.84,0,0,0-17.8-17.8H1314v47.2a3.12,3.12,0,0,1-3.1,3.1h-3.6a3.12,3.12,0,0,1-3.1-3.1v-32.7a18.12,18.12,0,0,0-11.4-16.8,31.47,31.47,0,0,1-15.9-14.4l-8.5-14.2a18.85,18.85,0,0,0-16-9.1h-2.6Z"/></clipPath><clipPath id="clip-path-12"><path class="cls-1" d="M1244.1,478.94a4.4,4.4,0,0,0,5,.8,9.53,9.53,0,0,1,5.5-.4,9.72,9.72,0,0,1,5,2.3,4.35,4.35,0,0,0,4.8,1.1,2.19,2.19,0,0,0,.5-.3c-1,3.4-6.1,5.4-11.6,4.4s-9.6-4.5-9.4-8.1Z"/></clipPath><clipPath id="clip-path-14"><path class="cls-1" d="M549.9,361.84H526v.1H380.9A21.16,21.16,0,0,0,360,386l4.2,29.6v75.3a4.27,4.27,0,0,0,4.3,4.3h3a4.27,4.27,0,0,0,4.3-4.3v-34a21,21,0,0,1,21-21h77.3v55.7a3.69,3.69,0,0,0,3.7,3.7h4.3a3.69,3.69,0,0,0,3.7-3.7v-38.5a21.3,21.3,0,0,1,13.4-19.8,37.38,37.38,0,0,0,18.8-16.9l10-16.7A22.07,22.07,0,0,1,546.9,389h3Z"/></clipPath><clipPath id="clip-path-23"><path class="cls-1" d="M556.1,342.34l-25.3,4.5a5.15,5.15,0,0,0-4.1,6.4l8.3,33.4a8.67,8.67,0,0,0,4,5.3,8.55,8.55,0,0,0,5.5,1c-.3-1.9,2.7-3.9,6.7-4.6s7.4.2,7.8,2a8.69,8.69,0,0,0,4.8-2.8,8.14,8.14,0,0,0,2-6.4l-3.7-34.2A5.08,5.08,0,0,0,556.1,342.34Z"/></clipPath><clipPath id="clip-path-24"><path class="cls-1" d="M563.5,387.84a5,5,0,0,1-5.9.9,10.72,10.72,0,0,0-6.4-.5,11.2,11.2,0,0,0-5.9,2.7,4.91,4.91,0,0,1-5.7,1.2l-.6-.3c1.2,4,7.1,6.3,13.7,5.2s11.3-5.3,11.1-9.5Z"/></clipPath><clipPath id="clip-path-26"><path class="cls-1" d="M245.2,324.24H198a17.53,17.53,0,0,0-15.4,9l-5.6,10,11.4,6.5,2.8-5a1.5,1.5,0,0,1,2.6,0h0a13.47,13.47,0,0,0,7,6.3,8,8,0,0,1,5,7.4v14.4a1.37,1.37,0,0,0,1.4,1.4h1.6a1.37,1.37,0,0,0,1.4-1.4v-20.9h29a7.85,7.85,0,0,1,7.9,7.9v12.7a1.58,1.58,0,0,0,1.6,1.6h1.1a1.58,1.58,0,0,0,1.6-1.6v-28.2l1.6-11.1A7.89,7.89,0,0,0,245.2,324.24Z"/></clipPath><clipPath id="clip-path-29"><path class="cls-1" d="M179,341.64l9.5,1.8a1.92,1.92,0,0,1,1.5,2.4l-3.3,12.5a3.1,3.1,0,0,1-1.5,2,3,3,0,0,1-2.1.3c.1-.7-1-1.5-2.5-1.8s-2.8,0-2.9.7a3.19,3.19,0,0,1-2.5-3.5l1.6-12.8A1.83,1.83,0,0,1,179,341.64Z"/></clipPath><clipPath id="clip-path-30"><path class="cls-1" d="M175.9,358.74a2,2,0,0,0,2.2.4,4.39,4.39,0,0,1,2.4-.2,4.51,4.51,0,0,1,2.2,1,1.86,1.86,0,0,0,2.1.5.35.35,0,0,0,.2-.1c-.5,1.5-2.7,2.3-5.2,1.9s-4.2-2.1-4.1-3.6C175.8,358.64,175.9,358.64,175.9,358.74Z"/></clipPath><clipPath id="clip-path-32"><path class="cls-1" d="M966.5,37.64v-4.9s-.2.9-.7,2.6c-.5-1.7-.7-2.6-.7-2.6v4.9c-9.3,28.1-65.9,170.7-278.5,242.1L753,552.24H965.5l.2-129,.2,129h212.5l66.5-272.5C1032.4,208.24,975.8,65.64,966.5,37.64Z"/></clipPath></defs><title>Asset 3</title><g id="Layer_2" data-name="Layer 2"><g id="Layer_1-2" data-name="Layer 1"><g id="ภาพประกอบ"><path class="cls-2" d="M276.9,589.44a168,168,0,0,1,58.4-26.1c4.9-1.1,10.2-2.1,15.1-.6s9.2,5.8,9,10.9c-.5,8-10.4,11.1-18.3,12.1L292.5,592c-7.6,1-17.1,3.3-15.6-2.6"/><path class="cls-2" d="M0,629.24H1506.4c-7.1-3.35-14.32-6.44-21.4-9.4l-359.7-150c-73-30.5-146.5-61.1-223.8-77.5-67.7-14.4-137.8-17.8-204-38-52.4-16-101.1-42.2-153.1-59.4-76.8-25.5-158.2-30.4-238.7-26C203.55,274.35,102,295.4,0,305.89Z"/><path class="cls-3" d="M1920,420.42c-35.59-2.85-70.72-9-104.2-20.28-18-6-35.4-13.9-54-17.1-20.9-3.7-42.3-1.4-63.6-1.1-77.5,1-153.7-25.8-231-21.4-49.7,2.8-97.6,18.3-146.5,27.6-74.7,14.2-151.3,13.9-227.2,18.1-81.8,4.5-163.6,14.2-242.9,35-64.5,16.9-127.1,41-192.2,55.6-77.3,17.3-156.9,20.8-235.3,32.4a1139.76,1139.76,0,0,0-286.8,82.1c-13,5.63-28.05,11.51-43.59,17.9H1920Z"/><path class="cls-4" d="M743.4,406.24c13.2,7.1,27.5,15.6,31.9,30-53.4,3-94.8-60.6-147.8-53.6a45.29,45.29,0,0,1,1.8,19.7c-14.8,3.2-28.9-7.4-38.8-18.8s-19.2-24.7-33.5-29.7c-11.5-4.1-24-2-36.2-2.5-13-.6-23.1-5-29.1-16.3C540.1,289.74,696.9,381,743.4,406.24Z"/><path class="cls-2" d="M1806,424.34c6.1,1,13.5,3.3,14.4,9.4.4,2.8-.7,5.7.1,8.3,1.7,5.2,8.8,5.4,14.2,5,14.3-.9,30.7,2.9,37.8,15.4,1.5,2.7,2.5,6.3.5,8.7a8.13,8.13,0,0,1-3.9,2.3c-16.5,5.4-34-2.6-50.6-7.7A157.8,157.8,0,0,0,1780,459c-2.5-.1-5.1-.2-7.3-1.4s-3.7-4-2.6-6.3c1-2.1,3.6-2.7,5.9-3.1l13.5-2.4c3.2-.6,7-1.8,7.4-5,.4-2.9-2.4-5.1-5.1-6.3-13.2-5.7-29.6-.1-42.1-7.1-14.3-8,12.8-10.2,17.3-9.9C1779.9,418.34,1793.3,422.24,1806,424.34Z"/><ellipse class="cls-2" cx="1409.3" cy="567.24" rx="26.8" ry="5.7"/><ellipse class="cls-2" cx="1551.3" cy="452.24" rx="26.8" ry="5.7"/><ellipse class="cls-2" cx="1359.3" cy="578.84" rx="19.8" ry="4.2"/><ellipse class="cls-2" cx="1644.3" cy="449.84" rx="19.8" ry="4.2"/><ellipse class="cls-2" cx="1574.3" cy="463.84" rx="15.3" ry="3.3"/><ellipse class="cls-2" cx="1563.3" cy="476.84" rx="10.7" ry="2.3"/><ellipse class="cls-2" cx="1660.3" cy="460.84" rx="10.7" ry="2.3"/><ellipse class="cls-2" cx="1291.8" cy="567.24" rx="19.8" ry="4.2"/><ellipse class="cls-2" cx="1437.2" cy="584.64" rx="12.8" ry="2.7"/><path class="cls-5" d="M1649.6,343.34h4a17.67,17.67,0,0,1,17.7,17.7v62.1a2,2,0,0,1-2,2h0a2,2,0,0,1-2-2v-60.9a14.94,14.94,0,0,0-14.9-14.9h-2.8v-4Z"/><path class="cls-5" d="M1636.3,450.14h.5a4.69,4.69,0,0,0,4.7-4.7v-64.5h-10v64.5A4.85,4.85,0,0,0,1636.3,450.14Z"/><path class="cls-5" d="M1564.2,372.84v26.6H1562a14.51,14.51,0,0,0-14.5,14.5V447a3.16,3.16,0,0,1-3.2,3.2h-3.6a3.16,3.16,0,0,1-3.2-3.2v-74.2Z"/><path class="cls-6" d="M1621.7,412a18.7,18.7,0,1,1,22.2,0l2.6,4.4a2,2,0,0,1-.8,2.8,2.09,2.09,0,0,1-2.8-.8l-2.6-4.4a19.52,19.52,0,0,1-5.4,1.4v5.1a2.1,2.1,0,1,1-4.2,0v-5.1a19.52,19.52,0,0,1-5.4-1.4l-2.6,4.4a2.11,2.11,0,0,1-2.8.8,2.09,2.09,0,0,1-.8-2.8Z"/><path id="SVGID" class="cls-7" d="M1645.9,336.24H1538.3a40.38,40.38,0,0,0-35.2,20.5l-12.8,22.7,26,14.7,6.5-11.4a3.42,3.42,0,0,1,5.9-.1h0a32.09,32.09,0,0,0,16.1,14.5,18.26,18.26,0,0,1,11.4,16.9v32.9a3.16,3.16,0,0,0,3.2,3.2h3.6a3.16,3.16,0,0,0,3.2-3.2v-47.6h66a18,18,0,0,1,18,18v29.1a3.76,3.76,0,0,0,3.7,3.7h2.6a3.76,3.76,0,0,0,3.7-3.7v-64.3l3.6-25.3A18.08,18.08,0,0,0,1645.9,336.24Z"/><g class="cls-8"><path class="cls-9" d="M1658.5,362.64h0a11.93,11.93,0,0,0,11.9-11.9v-25.6a11.93,11.93,0,0,0-11.9-11.9h0a11.93,11.93,0,0,0-11.9,11.9v25.6A12,12,0,0,0,1658.5,362.64Z"/><path class="cls-9" d="M1639.6,371.94h0a14.08,14.08,0,0,0,14.1-14.1v-30.4a14.08,14.08,0,0,0-14.1-14.1h0a14.08,14.08,0,0,0-14.1,14.1v30.4A14.21,14.21,0,0,0,1639.6,371.94Z"/><path class="cls-9" d="M1604.8,384.24h0a7.23,7.23,0,0,0-7.2,7.2v15.4a7.23,7.23,0,0,0,7.2,7.2h0a7.23,7.23,0,0,0,7.2-7.2v-15.4A7.23,7.23,0,0,0,1604.8,384.24Z"/><path class="cls-9" d="M1616.2,378.64h0a8.49,8.49,0,0,0-8.5,8.5v18.3a8.49,8.49,0,0,0,8.5,8.5h0a8.49,8.49,0,0,0,8.5-8.5v-18.3A8.49,8.49,0,0,0,1616.2,378.64Z"/><path class="cls-9" d="M1495.3,354.64h0a8,8,0,0,0,7.9,7.9h17a8,8,0,0,0,7.9-7.9h0a8,8,0,0,0-7.9-7.9h-17A8,8,0,0,0,1495.3,354.64Z"/><path class="cls-9" d="M1566.3,419.34h0a8,8,0,0,0,7.9-7.9v-17a8,8,0,0,0-7.9-7.9h0a8,8,0,0,0-7.9,7.9v17A7.92,7.92,0,0,0,1566.3,419.34Z"/><path class="cls-9" d="M1566.2,315h0a9.44,9.44,0,0,1,7,3.2,11,11,0,0,1,7.8-3.2,10.9,10.9,0,0,1,9.9,6.3h12.5a9.35,9.35,0,0,1,9.3,9.3h0a9.35,9.35,0,0,1-9.3,9.3h-1.7a9.65,9.65,0,0,0-9.7,9.7h0a11.24,11.24,0,0,1-10.7,11.3,11.09,11.09,0,0,1-11-8.2,9.54,9.54,0,0,1-4.1,1h0a9.35,9.35,0,0,1-9.3-9.3v-20A9.37,9.37,0,0,1,1566.2,315Z"/></g><g class="cls-8"><path class="cls-5" d="M1499.9,373l21.5,4.2a4.4,4.4,0,0,1,3.4,5.5l-7.5,28.4a7,7,0,0,1-3.5,4.5,6.89,6.89,0,0,1-4.7.8c.2-1.6-2.2-3.4-5.6-4s-6.4.1-6.7,1.6a7.08,7.08,0,0,1-5.7-7.9l3.6-29.2A4.33,4.33,0,0,1,1499.9,373Z"/></g><g class="cls-8"><path class="cls-5" d="M1497,373.44s-2.1,3.7-5.5,4l-2.8,4.2,27.6,12.7s9.3-13,11.6-12.8c0,0-.9-2.8-5.5-3.9S1497,373.44,1497,373.44Z"/></g><path class="cls-9" d="M1521.9,394.74l9,4.4h0a11,11,0,0,0-5-14.6l-9-4.4h0A10.84,10.84,0,0,0,1521.9,394.74Z"/><path class="cls-5" d="M1484.6,387.54l-10,.7h0a10.87,10.87,0,0,1,10.1-11.6l10-.7h0A10.87,10.87,0,0,1,1484.6,387.54Z"/><path id="SVGID-2" data-name="SVGID" class="cls-7" d="M1495,375.94l21.5,4.2a4.4,4.4,0,0,1,3.4,5.5l-7.5,28.4a7,7,0,0,1-3.5,4.5,6.89,6.89,0,0,1-4.7.8c.2-1.6-2.2-3.4-5.6-4s-6.4.1-6.7,1.6a7.08,7.08,0,0,1-5.7-7.9l3.6-29.2A4.42,4.42,0,0,1,1495,375.94Z"/><g class="cls-10"><circle class="cls-9" cx="1513.1" cy="409.54" r="16.2"/></g><ellipse class="cls-7" cx="1508.76" cy="399.31" rx="1" ry="1.9" transform="translate(830.79 1805.06) rotate(-79.08)"/><ellipse class="cls-9" cx="1495.37" cy="396.75" rx="1" ry="1.9" transform="translate(822.44 1789.84) rotate(-79.08)"/><path id="SVGID-3" data-name="SVGID" class="cls-6" d="M1488.1,414.74a4.1,4.1,0,0,0,5,.8,8.85,8.85,0,0,1,5.5-.3,9,9,0,0,1,5,2.4,4,4,0,0,0,4.8,1.1,2.19,2.19,0,0,0,.5-.3c-1.1,3.4-6.2,5.3-11.8,4.3s-9.6-4.7-9.3-8.3Z"/><g class="cls-11"><circle class="cls-12" cx="1499.9" cy="422.54" r="1.5"/></g><g class="cls-11"><circle class="cls-12" cx="1494.6" cy="421.54" r="1.5"/></g><path class="cls-5" d="M1397.4,459.64h3.8a16.73,16.73,0,0,1,16.7,16.7v58.5a1.9,1.9,0,0,1-1.9,1.9h0a1.9,1.9,0,0,1-1.9-1.9v-57.4a14,14,0,0,0-14-14h-2.7Z"/><path class="cls-5" d="M1382.5,567h2.5a3.69,3.69,0,0,0,3.7-3.7v-65h-9.9v65A3.69,3.69,0,0,0,1382.5,567Z"/><path class="cls-5" d="M1312,490.34v26.4h-2.2a14.3,14.3,0,0,0-14.3,14.3v32.9a3.12,3.12,0,0,1-3.1,3.1h-3.6a3.12,3.12,0,0,1-3.1-3.1v-73.6Z"/><path id="SVGID-4" data-name="SVGID" class="cls-7" d="M1249.8,453.94h20.3v.1h123.1a17.94,17.94,0,0,1,17.8,20.4l-3.5,25.1v63.8a3.69,3.69,0,0,1-3.7,3.7h-2.5a3.69,3.69,0,0,1-3.7-3.7v-28.8a17.84,17.84,0,0,0-17.8-17.8H1314v47.2a3.12,3.12,0,0,1-3.1,3.1h-3.6a3.12,3.12,0,0,1-3.1-3.1v-32.7a18.12,18.12,0,0,0-11.4-16.8,31.47,31.47,0,0,1-15.9-14.4l-8.5-14.2a18.85,18.85,0,0,0-16-9.1h-2.6Z"/><g class="cls-13"><path class="cls-9" d="M1385,484.94h0a9.92,9.92,0,0,0,9.9-9.9v-21.4a9.92,9.92,0,0,0-9.9-9.9h0a9.92,9.92,0,0,0-9.9,9.9V475A10,10,0,0,0,1385,484.94Z"/></g><g class="cls-13"><path class="cls-9" d="M1369.2,492.64h0a11.82,11.82,0,0,0,11.8-11.8v-25.4a11.82,11.82,0,0,0-11.8-11.8h0a11.82,11.82,0,0,0-11.8,11.8v25.4A11.82,11.82,0,0,0,1369.2,492.64Z"/></g><g class="cls-13"><path class="cls-9" d="M1296.5,443.44h0a8.18,8.18,0,0,1,5.9,2.7,9.16,9.16,0,0,1,14.8,2.6h10.4a7.81,7.81,0,0,1,7.8,7.8h0a7.81,7.81,0,0,1-7.8,7.8h-1.4a8.07,8.07,0,0,0-8.1,8.1h0a9.46,9.46,0,0,1-9,9.5,9.37,9.37,0,0,1-9.2-6.9,7.84,7.84,0,0,1-3.5.8h0a7.81,7.81,0,0,1-7.8-7.8v-16.8A8,8,0,0,1,1296.5,443.44Z"/></g><g class="cls-13"><path class="cls-5" d="M1252.2,443.54l21.5,3.8a4.39,4.39,0,0,1,3.5,5.4l-7.1,28.3a7.17,7.17,0,0,1-3.4,4.5c-1,3.4-6.1,5.4-11.6,4.4s-9.6-4.5-9.4-8.1a7.05,7.05,0,0,1-1.7-5.4l3.1-29A4.34,4.34,0,0,1,1252.2,443.54Z"/></g><g class="cls-13"><path class="cls-5" d="M1272.6,471l.7-2.9a18.52,18.52,0,0,1,18.1-14.2h0l1.6-13.2-39.7-1-4.2,26.8Z"/></g><path class="cls-9" d="M1277.3,458.54l9,4.2h0a10.89,10.89,0,0,0-5.2-14.4l-9-4.2h0A10.86,10.86,0,0,0,1277.3,458.54Z"/><path class="cls-5" d="M1240.2,451.94l-9.9.9h0a10.84,10.84,0,0,1,9.8-11.7l9.9-.9h0A10.78,10.78,0,0,1,1240.2,451.94Z"/><path id="SVGID-5" data-name="SVGID" class="cls-7" d="M1250.3,440.34l21.5,3.8a4.39,4.39,0,0,1,3.5,5.4l-7.1,28.3a7.17,7.17,0,0,1-3.4,4.5,6.89,6.89,0,0,1-4.7.8c.2-1.6-2.3-3.3-5.6-3.9s-6.3.2-6.6,1.7a7.5,7.5,0,0,1-4.1-2.4,7.05,7.05,0,0,1-1.7-5.4l3.1-29A4.32,4.32,0,0,1,1250.3,440.34Z"/><ellipse class="cls-9" cx="1264.2" cy="463.28" rx="1" ry="1.9" transform="translate(587.3 1627.17) rotate(-79.94)"/><ellipse class="cls-9" cx="1250.96" cy="460.93" rx="1" ry="1.9" transform="translate(578.68 1612.18) rotate(-79.94)"/><path id="SVGID-6" data-name="SVGID" class="cls-6" d="M1244.1,478.94a4.4,4.4,0,0,0,5,.8,9.53,9.53,0,0,1,5.5-.4,9.72,9.72,0,0,1,5,2.3,4.35,4.35,0,0,0,4.8,1.1,2.19,2.19,0,0,0,.5-.3c-1,3.4-6.1,5.4-11.6,4.4s-9.6-4.5-9.4-8.1Z"/><g class="cls-14"><circle class="cls-12" cx="1256" cy="486.54" r="1.5"/></g><g class="cls-14"><circle class="cls-12" cx="1250.6" cy="485.54" r="1.5"/></g><ellipse class="cls-4" cx="211" cy="376.24" rx="14" ry="3"/><ellipse class="cls-4" cx="251.5" cy="373.74" rx="11.5" ry="2.5"/><ellipse class="cls-4" cx="238.5" cy="382.74" rx="6.8" ry="1.5"/><ellipse class="cls-4" cx="248.5" cy="388.74" rx="4.5" ry="1"/><ellipse class="cls-4" cx="193.5" cy="380.74" rx="4.5" ry="1"/><ellipse class="cls-4" cx="365.6" cy="496.34" rx="35.4" ry="7.6"/><ellipse class="cls-4" cx="497" cy="495.34" rx="23" ry="4.9"/><ellipse class="cls-4" cx="454" cy="505.34" rx="17" ry="3.6"/><ellipse class="cls-4" cx="521" cy="510.34" rx="11" ry="2.4"/><ellipse class="cls-4" cx="321.4" cy="507.64" rx="11.4" ry="2.4"/><path class="cls-5" d="M378,368.84h-4.5a20,20,0,0,0-20,20v70.1a2.33,2.33,0,0,0,2.3,2.3h0a2.33,2.33,0,0,0,2.3-2.3v-68.7a16.77,16.77,0,0,1,16.8-16.8h3.2v-4.6Z"/><path class="cls-5" d="M393.4,495.24h-3a4.27,4.27,0,0,1-4.3-4.3v-76.7h11.7v76.7A4.42,4.42,0,0,1,393.4,495.24Z"/><path class="cls-5" d="M476.6,404.74v31.1h2.5a16.94,16.94,0,0,1,16.9,16.9v38.7a3.69,3.69,0,0,0,3.7,3.7H504a3.69,3.69,0,0,0,3.7-3.7v-86.9H476.6Z"/><path class="cls-6" d="M409.3,450.54a21.9,21.9,0,1,0-26,0l-3,5.2a2.42,2.42,0,1,0,4.2,2.4l3-5.2a22.6,22.6,0,0,0,6.3,1.7v6a2.4,2.4,0,1,0,4.8,0v-6a19,19,0,0,0,6.3-1.7l3,5.2a2.42,2.42,0,1,0,4.2-2.4Z"/><path id="SVGID-7" data-name="SVGID" class="cls-7" d="M549.9,361.84H526v.1H380.9A21.16,21.16,0,0,0,360,386l4.2,29.6v75.3a4.27,4.27,0,0,0,4.3,4.3h3a4.27,4.27,0,0,0,4.3-4.3v-34a21,21,0,0,1,21-21h77.3v55.7a3.69,3.69,0,0,0,3.7,3.7h4.3a3.69,3.69,0,0,0,3.7-3.7v-38.5a21.3,21.3,0,0,1,13.4-19.8,37.38,37.38,0,0,0,18.8-16.9l10-16.7A22.07,22.07,0,0,1,546.9,389h3Z"/><g class="cls-15"><path class="cls-9" d="M390.7,408.94h0A14.94,14.94,0,0,1,375.8,394v-32.1A14.94,14.94,0,0,1,390.7,347h0a14.94,14.94,0,0,1,14.9,14.9V394A14.94,14.94,0,0,1,390.7,408.94Z"/></g><g class="cls-15"><path class="cls-9" d="M414.4,420.54h0a17.73,17.73,0,0,1-17.7-17.7v-38.1A17.73,17.73,0,0,1,414.4,347h0a17.73,17.73,0,0,1,17.7,17.7v38.1A17.8,17.8,0,0,1,414.4,420.54Z"/></g><g class="cls-15"><path class="cls-9" d="M465.5,412h0a8.45,8.45,0,0,1,8.4,8.4v18.1a8.45,8.45,0,0,1-8.4,8.4h0a8.45,8.45,0,0,1-8.4-8.4v-18.1A8.45,8.45,0,0,1,465.5,412Z"/></g><g class="cls-15"><path class="cls-9" d="M452.2,405.44h0a10,10,0,0,1,10,10v21.5a10,10,0,0,1-10,10h0a10,10,0,0,1-10-10v-21.5A10,10,0,0,1,452.2,405.44Z"/></g><g class="cls-15"><path class="cls-9" d="M537.1,414.24h0a9.24,9.24,0,0,1-9.2,9.2H508a9.24,9.24,0,0,1-9.2-9.2h0A9.24,9.24,0,0,1,508,405h19.9A9.24,9.24,0,0,1,537.1,414.24Z"/></g><g class="cls-15"><path class="cls-9" d="M363.9,452.74h0a9.24,9.24,0,0,1-9.2-9.2v-19.9a9.24,9.24,0,0,1,9.2-9.2h0a9.24,9.24,0,0,1,9.2,9.2v19.9A9.31,9.31,0,0,1,363.9,452.74Z"/></g><g class="cls-15"><path class="cls-9" d="M493.4,349.54h0a8.17,8.17,0,0,0-6.4,3,10.05,10.05,0,0,0-7.1-3,10.32,10.32,0,0,0-9.1,5.7H459.4a8.49,8.49,0,0,0-8.5,8.5h0a8.49,8.49,0,0,0,8.5,8.5h1.5a8.92,8.92,0,0,1,8.9,8.9h0a10.25,10.25,0,0,0,9.8,10.3,10,10,0,0,0,10-7.5,7.9,7.9,0,0,0,3.8.9h0a8.49,8.49,0,0,0,8.5-8.5V358A8.49,8.49,0,0,0,493.4,349.54Z"/></g><g class="cls-15"><path class="cls-5" d="M551.6,349.54,526.3,354a5.15,5.15,0,0,0-4.1,6.4l8.3,33.4a8.67,8.67,0,0,0,4,5.3c1.2,4,7.1,6.3,13.7,5.2s11.3-5.3,11.1-9.5a8.14,8.14,0,0,0,2-6.4l-3.7-34.2A5.1,5.1,0,0,0,551.6,349.54Z"/></g><g class="cls-15"><path class="cls-5" d="M527.6,381.94l-.8-3.4a22,22,0,0,0-21.4-16.8h0l-1.9-15.6,46.8-1.1,4.9,31.6Z"/></g><path class="cls-9" d="M524.3,363.84l-10.7,5h0a12.65,12.65,0,0,1,6.2-16.9l10.7-5h0A12.8,12.8,0,0,1,524.3,363.84Z"/><path class="cls-9" d="M568.1,356l11.7,1h0a12.77,12.77,0,0,0-11.6-13.8l-11.7-1h0A12.77,12.77,0,0,0,568.1,356Z"/><path id="SVGID-8" data-name="SVGID" class="cls-7" d="M556.1,342.34l-25.3,4.5a5.15,5.15,0,0,0-4.1,6.4l8.3,33.4a8.67,8.67,0,0,0,4,5.3,8.55,8.55,0,0,0,5.5,1c-.3-1.9,2.7-3.9,6.7-4.6s7.4.2,7.8,2a8.69,8.69,0,0,0,4.8-2.8,8.14,8.14,0,0,0,2-6.4l-3.7-34.2A5.08,5.08,0,0,0,556.1,342.34Z"/><g class="cls-16"><path class="cls-9" d="M552.5,333.74h0a11.8,11.8,0,0,0-4.6,1.9l-.4-2a6.78,6.78,0,0,0-7.2-5.6,6.6,6.6,0,0,0-5.9,7.7l1.9,10.8a6.83,6.83,0,0,0,4,5,7.84,7.84,0,0,1,4.6,5.7l1.5,8.6a11.58,11.58,0,0,0,13.4,9.3h0a11.58,11.58,0,0,0,9.3-13.4l-3.3-18.8A11.54,11.54,0,0,0,552.5,333.74Z"/></g><ellipse class="cls-9" cx="539.56" cy="369.44" rx="2.2" ry="1.2" transform="translate(-56.22 99.89) rotate(-10.06)"/><ellipse class="cls-7" cx="555.26" cy="366.64" rx="2.2" ry="1.2" transform="translate(-55.49 102.58) rotate(-10.06)"/><path id="SVGID-9" data-name="SVGID" class="cls-6" d="M563.5,387.84a5,5,0,0,1-5.9.9,10.72,10.72,0,0,0-6.4-.5,11.2,11.2,0,0,0-5.9,2.7,4.91,4.91,0,0,1-5.7,1.2l-.6-.3c1.2,4,7.1,6.3,13.7,5.2s11.3-5.3,11.1-9.5Z"/><g class="cls-17"><circle class="cls-12" cx="549.5" cy="396.74" r="1.7"/></g><g class="cls-17"><circle class="cls-12" cx="555.8" cy="395.64" r="1.7"/></g><path class="cls-5" d="M246.8,327.34h1.8a7.81,7.81,0,0,1,7.8,7.8v27.2a.9.9,0,0,1-.9.9h0a.9.9,0,0,1-.9-.9v-26.7a6.49,6.49,0,0,0-6.5-6.5h-1.2v-1.8Z"/><path class="cls-5" d="M240.4,374.24h1.2a1.58,1.58,0,0,0,1.6-1.6v-28.8h-4.4v28.8A1.72,1.72,0,0,0,240.4,374.24Z"/><path class="cls-5" d="M209.3,340.24v11.7h-1a6.27,6.27,0,0,0-6.3,6.3v14.5a1.37,1.37,0,0,1-1.4,1.4H199a1.37,1.37,0,0,1-1.4-1.4v-32.5Z"/><path id="SVGID-10" data-name="SVGID" class="cls-7" d="M245.2,324.24H198a17.53,17.53,0,0,0-15.4,9l-5.6,10,11.4,6.5,2.8-5a1.5,1.5,0,0,1,2.6,0h0a13.47,13.47,0,0,0,7,6.3,8,8,0,0,1,5,7.4v14.4a1.37,1.37,0,0,0,1.4,1.4h1.6a1.37,1.37,0,0,0,1.4-1.4v-20.9h29a7.85,7.85,0,0,1,7.9,7.9v12.7a1.58,1.58,0,0,0,1.6,1.6h1.1a1.58,1.58,0,0,0,1.6-1.6v-28.2l1.6-11.1A7.89,7.89,0,0,0,245.2,324.24Z"/><g class="cls-18"><path class="cls-9" d="M249.2,335.84h2.9a3.69,3.69,0,0,0,3.7-3.7V318a3.69,3.69,0,0,0-3.7-3.7h-2.9a3.69,3.69,0,0,0-3.7,3.7v14.1A3.76,3.76,0,0,0,249.2,335.84Z"/><path class="cls-9" d="M240.7,339.94h3.5a4.55,4.55,0,0,0,4.5-4.5v-16.8a4.55,4.55,0,0,0-4.5-4.5h-3.5a4.55,4.55,0,0,0-4.5,4.5v16.8A4.55,4.55,0,0,0,240.7,339.94Z"/><path class="cls-9" d="M210.8,345.34H209a2.33,2.33,0,0,0-2.3,2.3v8.5a2.33,2.33,0,0,0,2.3,2.3h1.8a2.33,2.33,0,0,0,2.3-2.3v-8.5A2.39,2.39,0,0,0,210.8,345.34Z"/><path class="cls-9" d="M215.9,342.84h-2.1a2.69,2.69,0,0,0-2.7,2.7v10.1a2.69,2.69,0,0,0,2.7,2.7h2.1a2.69,2.69,0,0,0,2.7-2.7v-10.1A2.69,2.69,0,0,0,215.9,342.84Z"/><path class="cls-9" d="M208.2,322.74v2.8a3.59,3.59,0,0,0,3.6,3.6h13.6a3.59,3.59,0,0,0,3.6-3.6v-2.8a3.59,3.59,0,0,0-3.6-3.6H211.8A3.59,3.59,0,0,0,208.2,322.74Z"/></g><g class="cls-18"><path class="cls-5" d="M181.1,340.34l9.5,1.8a1.92,1.92,0,0,1,1.5,2.4L188.8,357a3.1,3.1,0,0,1-1.5,2,3,3,0,0,1-2.1.3c.1-.7-1-1.5-2.5-1.8s-2.8,0-2.9.7a3.19,3.19,0,0,1-2.5-3.5l1.6-12.8A1.83,1.83,0,0,1,181.1,340.34Z"/></g><g class="cls-18"><path class="cls-5" d="M179.8,340.54a3.46,3.46,0,0,1-2.4,1.7l-1.2,1.8,12.1,5.6s4.1-5.7,5.1-5.6a3.15,3.15,0,0,0-2.4-1.7C189,341.84,179.8,340.54,179.8,340.54Z"/></g><path class="cls-9" d="M189.6,349.34l5.2,2.5.6-1.2a3.47,3.47,0,0,0-1.6-4.6l-5.2-2.5-.6,1.2A3.31,3.31,0,0,0,189.6,349.34Z"/><path class="cls-5" d="M175.7,346.64l-5.7.4-.1-1.3a3.53,3.53,0,0,1,3.2-3.7l5.7-.4.1,1.3A3.47,3.47,0,0,1,175.7,346.64Z"/><path id="SVGID-11" data-name="SVGID" class="cls-7" d="M179,341.64l9.5,1.8a1.92,1.92,0,0,1,1.5,2.4l-3.3,12.5a3.1,3.1,0,0,1-1.5,2,3,3,0,0,1-2.1.3c.1-.7-1-1.5-2.5-1.8s-2.8,0-2.9.7a3.19,3.19,0,0,1-2.5-3.5l1.6-12.8A1.83,1.83,0,0,1,179,341.64Z"/><g class="cls-19"><circle class="cls-9" cx="175.8" cy="353.54" r="7.1"/></g><ellipse class="cls-9" cx="185.03" cy="351.89" rx="0.5" ry="0.8" transform="translate(-195.55 466.88) rotate(-79.08)"/><ellipse class="cls-7" cx="179.09" cy="350.78" rx="0.5" ry="0.8" transform="translate(-199.27 460.15) rotate(-79.08)"/><path id="SVGID-12" data-name="SVGID" class="cls-6" d="M175.9,358.74a2,2,0,0,0,2.2.4,4.39,4.39,0,0,1,2.4-.2,4.51,4.51,0,0,1,2.2,1,1.86,1.86,0,0,0,2.1.5.35.35,0,0,0,.2-.1c-.5,1.5-2.7,2.3-5.2,1.9s-4.2-2.1-4.1-3.6C175.8,358.64,175.9,358.64,175.9,358.74Z"/><g class="cls-20"><circle class="cls-12" cx="181.1" cy="362.14" r="0.6"/></g><g class="cls-20"><circle class="cls-12" cx="178.8" cy="361.64" r="0.6"/></g><g id="_Group_" data-name="&lt;Group&gt;"><path class="cls-6" d="M1328.5,249.54s16.3,8.5,3.9,30.3c-14.3-2.5-28.1-5.5-41.3-8.8,1.7-16.7,14.4-24.7,17.9-26.7C1321.3,248,1328.5,249.54,1328.5,249.54Z"/><path class="cls-21" d="M1332.4,279.84c-7.5,13.4-25.5,13.5-38.4,11.4-2.8-7.9-3.5-14.6-2.9-20.3C1304.3,274.34,1318.1,277.34,1332.4,279.84Z"/><path class="cls-22" d="M1309,244.34c-3.5,2-16.2,10-17.9,26.7-8.4-2-16.7-4.2-24.7-6.6,1.4-18.3,16-26.5,18.5-27.8C1294.2,239.94,1302.3,242.44,1309,244.34Z"/><path class="cls-23" d="M1291.1,271a47.54,47.54,0,0,0,2.9,20.3,87.35,87.35,0,0,1-14.4-3.3s-3.4-.7-9.5-2.3a47.43,47.43,0,0,1-3.7-21.2C1274.4,266.84,1282.7,269,1291.1,271Z"/><path class="cls-6" d="M1284.9,236.74c-2.5,1.3-17.1,9.5-18.5,27.8-16.5-4.9-32.1-10.2-46.9-16.1,1-17.9,13.2-27.3,18.5-30.6C1255.4,225.84,1271.4,231.94,1284.9,236.74Z"/><path class="cls-21" d="M1266.4,264.44c-.5,6,.4,13,3.7,21.2-6-1.6-14.7-4.1-25.4-7.6q-9.6-3.15-21.3-7.5c-3.3-8.5-4.3-15.9-3.9-22.2C1234.3,254.24,1250,259.64,1266.4,264.44Z"/><path class="cls-24" d="M1047.8,159.54c6.3,6.3,12.7,12.3,19.2,18.2a443.72,443.72,0,0,0,49.4,38c7,4.8,14.1,9.2,21.1,13.3a513.67,513.67,0,0,0,62.3,31.9c8.3,3.7,16.3,6.8,23.7,9.6,7.7,2.9,14.9,5.4,21.3,7.5l-.6,1.7-66.3,272.5H753.2L687,279.84v-.1c6.7-2.2,14.3-4.8,22.5-7.9,7.5-2.8,15.4-6,23.8-9.6a528.49,528.49,0,0,0,62.3-31.9c7-4.1,14-8.5,21.1-13.3a463,463,0,0,0,49.4-38c6.5-5.8,12.9-11.9,19.2-18.2a385.81,385.81,0,0,0,43.2-51.5c5.3-7.6,10.4-15.5,15.3-23.8a361.09,361.09,0,0,0,18.5-35.6,40.23,40.23,0,0,0,4.4-17,40.13,40.13,0,0,0,4.3,15.7,372.64,372.64,0,0,0,18.5,35.6v.1q7.35,12.3,15.3,23.7A369.09,369.09,0,0,0,1047.8,159.54Z"/><path class="cls-22" d="M1238,217.84c-5.3,3.3-17.5,12.7-18.5,30.6-8-3-15.7-6.4-23.2-9.8,2-21.7,20.9-30.3,20.9-30.3l.2-.4C1224.5,211.44,1231.4,214.74,1238,217.84Z"/><path class="cls-23" d="M1219.5,248.34c-.5,6.3.6,13.7,3.9,22.2-7.4-2.8-15.4-6-23.7-9.6-3.1-8.6-3.9-16-3.3-22.4C1203.8,242,1211.6,245.34,1219.5,248.34Z"/><path class="cls-6" d="M1217.4,207.84l-.2.4s-18.8,8.7-20.9,30.3a464.55,464.55,0,0,1-57.2-30.6c6.4-21.5,25.6-27,30.1-28,4.3,2.8,8.5,5.6,12.7,8.1C1194.1,195.44,1206,202,1217.4,207.84Z"/><path class="cls-21" d="M1196.4,238.64c-.6,6.4.2,13.8,3.3,22.4a513.68,513.68,0,0,1-62.3-31.9,57.53,57.53,0,0,1,1.8-21.1A464.55,464.55,0,0,0,1196.4,238.64Z"/><path class="cls-25" d="M1169.3,179.94c-7.2-4.6-14.4-9.6-21.5-14.9-3.6-2.6-7.2-5.4-10.8-8.2l.2-97.6c3.7.2,7.8.3,12.1.3,18.4,0,33.3-2,33.3-4.4v132.1l-.5.9C1177.8,185.54,1173.5,182.74,1169.3,179.94Z"/><path class="cls-26" d="M1137.2,59.24c-12.5-.7-21.3-2.2-21.3-4.1,0-2.4,14.9-4.3,33.3-4.3s33.3,2,33.3,4.3-15,4.4-33.3,4.4C1145,59.54,1140.9,59.44,1137.2,59.24Z"/><path class="cls-22" d="M1147.7,165c7.2,5.3,14.4,10.3,21.5,14.9-4.5,1-23.7,6.5-30.1,28-7.5-4.7-14.6-9.4-21.4-14.3C1123.8,172,1142.7,166.24,1147.7,165Z"/><path class="cls-6" d="M1137,156.84c3.6,2.8,7.2,5.6,10.8,8.2-5.1,1.2-23.9,7-29.9,28.7a417.81,417.81,0,0,1-46.9-38.5c8.9-23.1,31.3-25.5,34.3-25.7,3,2.9,6,5.8,9.1,8.5C1121.8,144.54,1129.3,150.84,1137,156.84Z"/><path class="cls-23" d="M1139.2,207.94a53.33,53.33,0,0,0-1.8,21.1c-7-4.1-14-8.5-21.1-13.3-.9-8.7-.3-16,1.5-22C1124.6,198.54,1131.8,203.34,1139.2,207.94Z"/><path class="cls-27" d="M1137.2,59.24l-.2,97.6c-7.7-6-15.2-12.3-22.6-19l1.6-1.8V55C1115.9,57,1124.7,58.54,1137.2,59.24Z"/><path class="cls-21" d="M1117.8,193.74c-1.8,6-2.4,13.3-1.5,22a443.72,443.72,0,0,1-49.4-38l.1-.1c0-9.1,1.4-16.5,3.9-22.5A407.54,407.54,0,0,0,1117.8,193.74Z"/><path class="cls-22" d="M1087.1,111.14c6,6.4,12,12.5,18.1,18.2-3,.3-25.4,2.6-34.3,25.7-6.6-6.2-12.9-12.5-18.8-18.8,10-23.5,34.1-24.4,34.1-24.4Z"/><path class="cls-6" d="M1087.1,111.14l-.9.8s-24.1.9-34.1,24.4a399.51,399.51,0,0,1-37.8-47.1c17.1-22.4,42.4-15,42.4-15l.1-.1A373.89,373.89,0,0,0,1087.1,111.14Z"/><path class="cls-23" d="M1070.9,155.14a60.16,60.16,0,0,0-3.9,22.5l-.1.1c-6.5-5.8-12.9-11.9-19.2-18.2.1-9.5,1.7-17.1,4.3-23.2C1057.9,142.64,1064.2,148.94,1070.9,155.14Z"/><path class="cls-22" d="M1056.8,74.24l-.1.1s-25.3-7.5-42.4,15c-5.8-8.4-10.8-16.4-15.2-23.8,17.1-22,42.1-14.7,42.1-14.7C1046.1,58.84,1051.4,66.64,1056.8,74.24Z"/><path class="cls-21" d="M1014.3,89.24a399.51,399.51,0,0,0,37.8,47.1,58.55,58.55,0,0,0-4.3,23.2,386.83,386.83,0,0,1-43.2-51.6l.3-.2A61.42,61.42,0,0,1,1014.3,89.24Z"/><path class="cls-6" d="M1041.2,50.74s-25-7.3-42.1,14.7c-18.5-31.8-25.1-53.9-25.1-53.9a33.35,33.35,0,0,1,5.9-5.1c23.5-16.5,39.8,3.9,39.8,3.9A377.2,377.2,0,0,0,1041.2,50.74Z"/><path class="cls-23" d="M1014.3,89.24a63.2,63.2,0,0,0-9.4,18.6l-.3.2q-7.95-11.4-15.3-23.7v-.1a59,59,0,0,1,9.8-18.8C1003.4,72.84,1008.5,80.84,1014.3,89.24Z"/><path class="cls-21" d="M999,65.44a63.33,63.33,0,0,0-9.8,18.8,361.09,361.09,0,0,1-18.5-35.6,38.25,38.25,0,0,1-4.3-15.7,14.77,14.77,0,0,1-.1-2.1,27.89,27.89,0,0,1,7.6-19.3C974,11.54,980.6,33.64,999,65.44Z"/><path class="cls-21" d="M966.4,30.84a14.77,14.77,0,0,0,.1,2.1,39.64,39.64,0,0,1-4.4,17,372.64,372.64,0,0,1-18.5,35.6h-.1c-3.3-9.7-7.5-16.8-12.3-21.9a305.9,305.9,0,0,0,21.7-56C962.9,14.64,966.1,23.14,966.4,30.84Z"/><path class="cls-23" d="M943.5,85.54h0c-4.8,8.3-10,16.2-15.2,23.8l-.3-.2a62.62,62.62,0,0,0-10.9-20.4,276.52,276.52,0,0,0,14.2-25.1C936,68.74,940.2,75.84,943.5,85.54Z"/><path class="cls-6" d="M913.1,11.44S929.4-9,952.9,7.64a308.72,308.72,0,0,1-21.7,56c-16.9-18.3-39.6-11.7-39.6-11.7A338.07,338.07,0,0,0,913.1,11.44Z"/><path class="cls-21" d="M928,109l.3.2a384.62,384.62,0,0,1-43.2,51.5c-.1-10.1-2-18-4.9-24.3a314.5,314.5,0,0,0,36.9-47.8A62.62,62.62,0,0,1,928,109Z"/><path class="cls-22" d="M931.2,63.64A266.48,266.48,0,0,1,917,88.74c-17.1-20.2-40.9-13.2-40.9-13.2l-.1-.1q8.1-11.25,15.6-23.4C891.7,51.94,914.3,45.34,931.2,63.64Z"/><path class="cls-6" d="M876.2,75.44s23.8-7,40.9,13.2a319.52,319.52,0,0,1-36.9,47.8c-10.3-22.4-33.6-23.2-33.6-23.2l-.9-.8a400.2,400.2,0,0,0,30.5-37Z"/><path class="cls-23" d="M880.2,136.44c2.9,6.3,4.8,14.2,4.9,24.3-6.2,6.4-12.7,12.4-19.2,18.2l-.1-.1c0-9.8-1.7-17.6-4.3-23.8C868,149.14,874.3,142.94,880.2,136.44Z"/><path class="cls-21" d="M865.9,178.94h0A453.47,453.47,0,0,1,816.6,217c1-10,0-18.2-2.3-24.7A381.22,381.22,0,0,0,861.6,155,61.92,61.92,0,0,1,865.9,178.94Z"/><path class="cls-22" d="M880.2,136.44c-6,6.5-12.3,12.7-18.7,18.6-9.3-21.7-30.6-24.2-33.8-24.5,6.2-5.8,12.2-11.9,18-18.2l.9.8C846.6,113.24,869.9,114.14,880.2,136.44Z"/><path class="cls-6" d="M827.7,130.64c3.2.3,24.5,2.7,33.8,24.5a374,374,0,0,1-47.3,37.3c-6.8-19.5-24.3-24.9-29.1-26A449.1,449.1,0,0,0,827.7,130.64Z"/><path class="cls-23" d="M814.2,192.34c2.3,6.5,3.3,14.6,2.3,24.7-7,4.7-14.1,9.1-21.1,13.3.9-9.9-.4-17.9-2.9-24.3C799.9,201.74,807.1,197.24,814.2,192.34Z"/><path class="cls-22" d="M814.2,192.34c-7.2,4.9-14.4,9.4-21.7,13.7-7.2-18.8-24.6-23.8-28.9-24.8,7.1-4.7,14.3-9.6,21.5-14.9C790,167.44,807.5,172.84,814.2,192.34Z"/><path class="cls-21" d="M792.6,206c2.5,6.4,3.8,14.4,2.9,24.3a528.5,528.5,0,0,1-62.3,31.9c3.9-11,4.1-20.1,2.4-27.3A485.37,485.37,0,0,0,792.6,206Z"/><path class="cls-6" d="M763.6,181.24c4.3.9,21.7,6,28.9,24.8a492.16,492.16,0,0,1-56.9,28.9c-4.2-18.1-20.1-25.4-20.1-25.4l-.2-.3A514,514,0,0,0,763.6,181.24Z"/><path class="cls-23" d="M735.7,234.84c1.7,7.2,1.5,16.3-2.4,27.3-8.4,3.7-16.3,6.8-23.8,9.6,4.3-11,4.7-20.2,3.3-27.6C720.2,241.34,727.9,238.24,735.7,234.84Z"/><path class="cls-22" d="M735.7,234.84c-7.8,3.4-15.5,6.5-23,9.3-2.8-14.4-13.1-22.2-17.9-25.1,6.6-3,13.5-6.4,20.6-10l.2.3C715.6,209.44,731.5,216.84,735.7,234.84Z"/><path class="cls-21" d="M712.7,244.24c1.5,7.4,1,16.5-3.3,27.6-8.2,3.1-15.8,5.8-22.5,7.9-10.1,3.3-18.4,5.6-24.1,7.2,4.3-11.1,4.5-20,2.6-27C679.7,255.74,695.7,250.64,712.7,244.24Z"/><path class="cls-6" d="M694.8,219.14c4.7,2.9,15,10.8,17.9,25.1-17,6.4-33,11.5-47.3,15.6-3.5-14-15-20.7-17.4-21.9C661.5,233.24,677.4,227.14,694.8,219.14Z"/><path class="cls-23" d="M665.4,259.84c1.9,7,1.7,15.9-2.6,27-6.2,1.6-9.6,2.3-9.6,2.3a97.28,97.28,0,0,1-14.4,3.4c3.8-10.8,3.7-19.4,1.7-26.2C648.1,264.54,656.4,262.44,665.4,259.84Z"/><path class="cls-22" d="M648,238c2.4,1.2,13.9,7.9,17.4,21.9-9,2.6-17.3,4.7-24.9,6.5-3.5-12.6-13.4-19-16.6-20.7C630.6,243.74,638.7,241.24,648,238Z"/><path class="cls-6" d="M640.6,266.34c2,6.8,2.1,15.4-1.7,26.2-12.9,2-31,1.9-38.4-11.4a35.48,35.48,0,0,1-2.9-6.4l3.7-.7C601.2,274,616.4,272.14,640.6,266.34Z"/><path class="cls-6" d="M624,245.74c3.2,1.7,13.1,8.1,16.6,20.7a401.3,401.3,0,0,1-39.4,7.7l-3.7.7c-6.2-17.1,6.8-24,6.8-24S611.6,249.34,624,245.74Z"/></g><polygon class="cls-24" points="1180 552.24 753 552.24 726 441.24 1205 440.24 1180 552.24"/><g class="cls-28"><line class="cls-29" x1="640" y1="64.74" x2="1292" y2="64.74"/></g><g class="cls-28"><line class="cls-29" x1="640" y1="95.74" x2="1292" y2="95.74"/></g><g class="cls-28"><line class="cls-29" x1="640" y1="126.74" x2="1292" y2="126.74"/></g><g class="cls-28"><line class="cls-29" x1="640" y1="157.74" x2="1292" y2="157.74"/></g><g class="cls-28"><line class="cls-29" x1="640" y1="188.74" x2="1292" y2="188.74"/></g><g class="cls-28"><line class="cls-29" x1="640" y1="219.74" x2="1292" y2="219.74"/></g><g class="cls-28"><line class="cls-29" x1="640" y1="250.74" x2="1292" y2="250.74"/></g><g class="cls-28"><line class="cls-29" x1="640" y1="281.74" x2="1292" y2="281.74"/></g><g class="cls-28"><line class="cls-29" x1="640" y1="312.74" x2="1292" y2="312.74"/></g><g class="cls-28"><line class="cls-29" x1="640" y1="343.74" x2="1292" y2="343.74"/></g><g class="cls-28"><line class="cls-29" x1="640" y1="374.74" x2="1292" y2="374.74"/></g><g class="cls-28"><line class="cls-29" x1="640" y1="405.74" x2="1292" y2="405.74"/></g><g class="cls-28"><line class="cls-29" x1="640" y1="436.74" x2="1292" y2="436.74"/></g><g class="cls-28"><line class="cls-29" x1="640" y1="467.74" x2="1292" y2="467.74"/></g><g class="cls-28"><line class="cls-29" x1="640" y1="498.74" x2="1292" y2="498.74"/></g><g class="cls-28"><line class="cls-29" x1="640" y1="529.74" x2="1292" y2="529.74"/></g><circle class="cls-30" cx="960" cy="201.24" r="51"/><circle class="cls-31" cx="966" cy="199.24" r="48"/><g id="_Group_2" data-name="&lt;Group&gt;"><path class="cls-9" d="M994.2,174.94s13.5,4.3,9.8,17.9c-3.5-1-11.7-3.1-11.7-3.1s-6.3-1.6-6.8-3.6c.3-3.8.5-6.8.5-8.3.1-3.5-1.6-5.1-3.1-5.8Z"/><path class="cls-9" d="M982.9,171.94c1.5.7,3.2,2.3,3.1,5.8,0,1.4-.3,4.5-.5,8.3-.4,6.1-1,14.1-1.5,20.5,0,0-2.5,4.4-11,1.9-6.3-1.8-7.9-7.4-8.3-10.2a16,16,0,0,1-.1-1.7v-9.2c0-5.1-1.5-7-4.9-9.4s-2.7-6.6-2.7-6.6h23.8A6.06,6.06,0,0,1,982.9,171.94Zm-5.9,26.7c0-.8-1.2-1.4-2.6-1.4s-2.5.7-2.5,1.4,1.2,1.4,2.5,1.4S977,199.44,977,198.64Z"/><path class="cls-7" d="M979.5,224.44a3.51,3.51,0,0,1-1.4.6c-4.1.9-5.5-.8-5.5-.8a9.55,9.55,0,0,0-7.2-2h-.1c-4.8-.5-7.2,2-7.2,2s-1.3,1.7-5.5.8a3.9,3.9,0,0,1-1.6-.7c-2.8-2-3.4-6.5-3.4-6.5s-.7-8.9-1.4-18.5l7.5-.6c0,.8,1.2,1.4,2.6,1.4s2.5-.7,2.5-1.4v-.3l6-.1c.4,2.8,2,8.4,8.3,10.2,8.5,2.5,11-1.9,11-1.9-.5,6.3-.9,11.2-.9,11.2S982.5,222.64,979.5,224.44Z"/><path class="cls-32" d="M979.5,224.44a2.2,2.2,0,0,1,.1.8c0,3-3.6,5.6-8.7,6.7a1.89,1.89,0,0,0-2.2-1.4,2,2,0,0,0-1.6,2c-.6,0-1.2.1-1.8.1a11.49,11.49,0,0,1-1.9-.1,2,2,0,0,0-1.6-2,1.92,1.92,0,0,0-2.2,1.4c-5.1-1.1-8.6-3.7-8.6-6.7,0-.5-.1-.5.1-1a4.6,4.6,0,0,0,1.6.7c4.1.9,5.5-.8,5.5-.8s2.4-2.4,7.2-2h.1c4.8-.5,7.2,2,7.2,2s1.3,1.7,5.5.8A5,5,0,0,0,979.5,224.44Z"/><path class="cls-7" d="M974.4,197.14c1.4,0,2.6.7,2.6,1.4s-1.2,1.4-2.6,1.4-2.5-.7-2.5-1.4S973,197.14,974.4,197.14Z"/><path class="cls-33" d="M968.7,230.44a1.92,1.92,0,0,1,2.2,1.4,23,23,0,0,1-3.9.5A2.22,2.22,0,0,1,968.7,230.44Z"/><path class="cls-7" d="M945.3,186.44c-.3-3.9-.5-7.1-.5-8.6-.1-3.5,1.6-5.1,3-5.8h0a7.45,7.45,0,0,1,2.1-.6H957s-.7,4.2,2.7,6.6,4.9,4.3,4.9,9.4v9.2c0,.1,0,.7.1,1.7l-6,.1a2.66,2.66,0,0,0-2.5-1.2c-1.4,0-2.6.7-2.6,1.4l-7.5.6C945.9,194.84,945.6,190.24,945.3,186.44Z"/><path class="cls-33" d="M961.8,230.44a2,2,0,0,1,1.6,2c-1.3-.1-2.6-.3-3.8-.5A2,2,0,0,1,961.8,230.44Z"/><path class="cls-9" d="M958.8,198.34v.3c0,.8-1.2,1.4-2.5,1.4s-2.6-.7-2.6-1.4,1.2-1.4,2.6-1.4A2.62,2.62,0,0,1,958.8,198.34Z"/><path class="cls-9" d="M936.7,174.94l11.1-2.9c-1.4.7-3.1,2.3-3,5.8,0,1.5.3,4.7.5,8.6-1.1,1.8-6.7,3.3-6.7,3.3s-8.2,2.1-11.7,3.1C923.3,179.14,936.7,174.94,936.7,174.94Z"/></g><polygon class="cls-34" points="726 302.24 966 302.24 966 440.24 758 441.24 726 302.24"/><polygon class="cls-35" points="762.6 302.24 795.8 441.24 758 441.24 726 302.24 762.6 302.24"/><polygon class="cls-34" points="1206 302.24 966 302.24 966 440.24 1174 441.24 1206 302.24"/><polygon class="cls-35" points="1169.4 302.24 1136.2 441.24 1174 441.24 1206 302.24 1169.4 302.24"/></g></g></g></svg>