<svg xmlns="http://www.w3.org/2000/svg" viewBox="0 0 366.9 160.9"><defs><style>.cls-1{fill:#c5e9ef;}</style></defs><title>Asset 3</title><g id="Layer_2" data-name="Layer 2"><g id="Layer_1-2" data-name="Layer 1"><g id="เมฆห้า"><path class="cls-1" d="M85.1,28.3a13.89,13.89,0,0,0-10.5-23,14,14,0,0,0-12,6.9,17.37,17.37,0,0,0-33.7,2.2,21.86,21.86,0,0,0-3.6-.3A25.3,25.3,0,1,0,46.9,52.6a18.27,18.27,0,0,0,10.6,3.3,18.5,18.5,0,0,0,11.7-4.1A16.26,16.26,0,1,0,85.1,28.3Z"/></g><g id="เมฆสี่"><path class="cls-1" d="M332.6,92.1a34.93,34.93,0,0,0-6.5.6,44,44,0,0,0-18.6-15A72.79,72.79,0,0,0,165.7,64.6a47.94,47.94,0,0,0-17-3.1,48.7,48.7,0,1,0,38.1,79,72.92,72.92,0,0,0,78.3,12,43.32,43.32,0,0,0,47.8,2.3,34,34,0,0,0,19.6,6.1,34.4,34.4,0,0,0,.1-68.8Z"/></g></g></g></svg>