<svg xmlns="http://www.w3.org/2000/svg" viewBox="0 0 394 240.6"><defs><style>.cls-1{fill:#c5e9ef;}</style></defs><title>Asset 2</title><g id="Layer_2" data-name="Layer 2"><g id="Layer_1-2" data-name="Layer 1"><g id="เมฆหก"><path class="cls-1" d="M394,142.8a59.59,59.59,0,0,0-77-56.9A92.54,92.54,0,0,0,137.2,62.4,87.73,87.73,0,0,0,85.5,84.3a63.31,63.31,0,0,0-21.4-3.7,64.1,64.1,0,0,0,0,128.2,61.56,61.56,0,0,0,12.2-1.2,88.48,88.48,0,0,0,117,16.8,48.3,48.3,0,0,0,73.3-1.3,48.93,48.93,0,0,0,85.8-23.6A59.49,59.49,0,0,0,394,142.8Z"/></g></g></g></svg>