<svg xmlns="http://www.w3.org/2000/svg" xmlns:xlink="http://www.w3.org/1999/xlink" viewBox="0 0 2710.3 1157.46"><defs><style>.cls-1,.cls-29{fill:none;}.cls-2{fill:#8cad76;}.cls-3{fill:#b8e099;}.cls-4{fill:#6c8e4c;}.cls-5{fill:#fae4a9;}.cls-31,.cls-6{fill:#eda2a1;}.cls-7{fill:#fff3db;}.cls-8{clip-path:url(#clip-path);}.cls-9{fill:#434264;}.cls-10{clip-path:url(#clip-path-4);}.cls-11{clip-path:url(#clip-path-5);}.cls-12{fill:#e97625;}.cls-13{clip-path:url(#clip-path-7);}.cls-14{clip-path:url(#clip-path-12);}.cls-15{clip-path:url(#clip-path-14);}.cls-16{clip-path:url(#clip-path-23);}.cls-17{clip-path:url(#clip-path-24);}.cls-18{clip-path:url(#clip-path-26);}.cls-19{clip-path:url(#clip-path-29);}.cls-20{clip-path:url(#clip-path-30);}.cls-21{fill:#dd8d8e;}.cls-22{fill:#558886;}.cls-23{fill:#3d6968;}.cls-24{fill:#dca379;}.cls-25{fill:#74739a;}.cls-26{fill:#4d4c68;}.cls-27{fill:#605f81;}.cls-28{clip-path:url(#clip-path-32);}.cls-29{stroke:#c98557;stroke-width:7px;}.cls-29,.cls-31{stroke-miterlimit:10;}.cls-30,.cls-35{fill:#8c5937;}.cls-30{opacity:0.67;isolation:isolate;}.cls-31{stroke:#fff4dc;stroke-width:4px;}.cls-32{fill:#d68a8a;}.cls-33{fill:#b7591a;}.cls-34{fill:#684025;}.cls-36{fill:#4c4b66;}.cls-37{fill:#ba6d6c;}</style><clipPath id="clip-path"><path class="cls-1" d="M1950.33,336.24h-107.6a40.38,40.38,0,0,0-35.2,20.5l-12.8,22.7,26,14.7,6.5-11.4a3.42,3.42,0,0,1,5.9-.1h0a32.09,32.09,0,0,0,16.1,14.5,18.26,18.26,0,0,1,11.4,16.9v32.9a3.16,3.16,0,0,0,3.2,3.2h3.6a3.16,3.16,0,0,0,3.2-3.2v-47.6h66a18,18,0,0,1,18,18v29.1a3.76,3.76,0,0,0,3.7,3.7h2.6a3.76,3.76,0,0,0,3.7-3.7v-64.3l3.6-25.3A18.08,18.08,0,0,0,1950.33,336.24Z"/></clipPath><clipPath id="clip-path-4"><path class="cls-1" d="M1799.43,375.94l21.5,4.2a4.4,4.4,0,0,1,3.4,5.5l-7.5,28.4a7,7,0,0,1-3.5,4.5,6.89,6.89,0,0,1-4.7.8c.2-1.6-2.2-3.4-5.6-4s-6.4.1-6.7,1.6a7.08,7.08,0,0,1-5.7-7.9l3.6-29.2A4.42,4.42,0,0,1,1799.43,375.94Z"/></clipPath><clipPath id="clip-path-5"><path class="cls-1" d="M1792.53,414.74a4.1,4.1,0,0,0,5,.8,8.85,8.85,0,0,1,5.5-.3,9,9,0,0,1,5,2.4,4,4,0,0,0,4.8,1.1,2.19,2.19,0,0,0,.5-.3c-1.1,3.4-6.2,5.3-11.8,4.3s-9.6-4.7-9.3-8.3Z"/></clipPath><clipPath id="clip-path-7"><path class="cls-1" d="M1554.23,453.94h20.3v.1h123.1a17.94,17.94,0,0,1,17.8,20.4l-3.5,25.1v63.8a3.69,3.69,0,0,1-3.7,3.7h-2.5a3.69,3.69,0,0,1-3.7-3.7v-28.8a17.84,17.84,0,0,0-17.8-17.8h-65.8v47.2a3.12,3.12,0,0,1-3.1,3.1h-3.6a3.12,3.12,0,0,1-3.1-3.1v-32.7a18.12,18.12,0,0,0-11.4-16.8,31.47,31.47,0,0,1-15.9-14.4l-8.5-14.2a18.85,18.85,0,0,0-16-9.1h-2.6Z"/></clipPath><clipPath id="clip-path-12"><path class="cls-1" d="M1548.53,478.94a4.4,4.4,0,0,0,5,.8,9.53,9.53,0,0,1,5.5-.4,9.72,9.72,0,0,1,5,2.3,4.35,4.35,0,0,0,4.8,1.1,2.19,2.19,0,0,0,.5-.3c-1,3.4-6.1,5.4-11.6,4.4s-9.6-4.5-9.4-8.1Z"/></clipPath><clipPath id="clip-path-14"><path class="cls-1" d="M854.33,361.84h-23.9v.1H685.33a21.16,21.16,0,0,0-20.9,24.1l4.2,29.6v75.3a4.27,4.27,0,0,0,4.3,4.3h3a4.27,4.27,0,0,0,4.3-4.3v-34a21,21,0,0,1,21-21h77.3v55.7a3.69,3.69,0,0,0,3.7,3.7h4.3a3.69,3.69,0,0,0,3.7-3.7v-38.5a21.3,21.3,0,0,1,13.4-19.8,37.38,37.38,0,0,0,18.8-16.9l10-16.7a22.07,22.07,0,0,1,18.9-10.7h3Z"/></clipPath><clipPath id="clip-path-23"><path class="cls-1" d="M860.53,342.34l-25.3,4.5a5.15,5.15,0,0,0-4.1,6.4l8.3,33.4a8.67,8.67,0,0,0,4,5.3,8.55,8.55,0,0,0,5.5,1c-.3-1.9,2.7-3.9,6.7-4.6s7.4.2,7.8,2a8.69,8.69,0,0,0,4.8-2.8,8.14,8.14,0,0,0,2-6.4l-3.7-34.2A5.08,5.08,0,0,0,860.53,342.34Z"/></clipPath><clipPath id="clip-path-24"><path class="cls-1" d="M867.93,387.84a5,5,0,0,1-5.9.9,10.72,10.72,0,0,0-6.4-.5,11.2,11.2,0,0,0-5.9,2.7,4.91,4.91,0,0,1-5.7,1.2l-.6-.3c1.2,4,7.1,6.3,13.7,5.2s11.3-5.3,11.1-9.5Z"/></clipPath><clipPath id="clip-path-26"><path class="cls-1" d="M549.63,324.24h-47.2a17.53,17.53,0,0,0-15.4,9l-5.6,10,11.4,6.5,2.8-5a1.5,1.5,0,0,1,2.6,0h0a13.47,13.47,0,0,0,7,6.3,8,8,0,0,1,5,7.4v14.4a1.37,1.37,0,0,0,1.4,1.4h1.6a1.37,1.37,0,0,0,1.4-1.4v-20.9h29a7.85,7.85,0,0,1,7.9,7.9v12.7a1.58,1.58,0,0,0,1.6,1.6h1.1a1.58,1.58,0,0,0,1.6-1.6v-28.2l1.6-11.1A7.89,7.89,0,0,0,549.63,324.24Z"/></clipPath><clipPath id="clip-path-29"><path class="cls-1" d="M483.43,341.64l9.5,1.8a1.92,1.92,0,0,1,1.5,2.4l-3.3,12.5a3.1,3.1,0,0,1-1.5,2,3,3,0,0,1-2.1.3c.1-.7-1-1.5-2.5-1.8s-2.8,0-2.9.7a3.19,3.19,0,0,1-2.5-3.5l1.6-12.8A1.83,1.83,0,0,1,483.43,341.64Z"/></clipPath><clipPath id="clip-path-30"><path class="cls-1" d="M480.33,358.74a2,2,0,0,0,2.2.4,4.39,4.39,0,0,1,2.4-.2,4.51,4.51,0,0,1,2.2,1,1.86,1.86,0,0,0,2.1.5.35.35,0,0,0,.2-.1c-.5,1.5-2.7,2.3-5.2,1.9s-4.2-2.1-4.1-3.6C480.23,358.64,480.33,358.64,480.33,358.74Z"/></clipPath><clipPath id="clip-path-32"><path class="cls-1" d="M1270.93,37.64v-4.9s-.2.9-.7,2.6c-.5-1.7-.7-2.6-.7-2.6v4.9c-9.3,28.1-65.9,170.7-278.5,242.1l66.4,272.5h212.5l.2-129,.2,129h212.5l66.5-272.5C1336.83,208.24,1280.23,65.64,1270.93,37.64Z"/></clipPath></defs><title>Asset 1</title><g id="Layer_2" data-name="Layer 2"><g id="Layer_1-2" data-name="Layer 1"><g id="ภาพประกอบ"><path class="cls-2" d="M848.83,294.94c52,17.2,100.7,43.4,153.1,59.4,66.2,20.2,136.3,23.6,204,38,77.3,16.4,150.8,47,223.8,77.5l359.7,150c31.8,13.3,66.4,29.1,80.8,60.4,16,34.8,1.2,75.6-16.6,109.5a636,636,0,0,1-119.3,159.6c-27.9,27.1-59.4,52.3-96.7,63.3-31,9.2-64,8-96.4,8.3-151.9,1.3-301.4,35.9-449.5,69.8s-297.9,67.5-449.8,66.7-308.4-38.9-426.3-134.7C150,969.54,98.53,900.34,59,825.64c-43.3-81.8-73.2-176.6-52.1-266.7,14.7-62.8,52.1-116.7,72.2-177.5,6.4-19.3,5.1-67,23.3-77.1,14.7-8.2,54.7,6.6,71.5,7.2,146.2,4.6,290.6-34.9,436.2-42.6C690.63,264.54,772,269.44,848.83,294.94Z"/><path class="cls-3" d="M727.53,529.24c78.4-11.6,158-15.1,235.3-32.4,65.1-14.6,127.7-38.7,192.2-55.6,79.3-20.8,161.1-30.5,242.9-35,75.9-4.2,152.5-3.9,227.2-18.1,48.9-9.3,96.8-24.8,146.5-27.6,77.3-4.4,153.5,22.4,231,21.4,21.3-.3,42.7-2.6,63.6,1.1,18.6,3.2,36,11.1,54,17.1,69.5,23.4,146.1,24.8,219.2,20.2h171.3c40.9,0,148.4,27.2,189.4,27.2,21.5,0,5,34.8-13.2,41.4-9.8,3.6-64,11.9-74.4,13.1a1276,1276,0,0,1-268.6,3c-12.3-1.2-25.3-2.4-36.4,3s-18.7,20-12.1,30.4c2.5,3.9,6.5,6.6,10.6,8.9,31.9,17.8,70.6,16.1,106.4,23.3s74.6,30.9,75.7,67.4c.8,29-22.9,52.8-47.9,67.4-67.9,39.6-152.7,37.8-224.3,70.2-9.2,4.2-18.7,9.4-23.4,18.4-8.1,15.4,1.3,33.7,3.6,50.9,3.9,29.9-15.3,59-40.5,75.6s-55.5,22.9-85.1,28.5c-233.8,44.2-472,59.8-709.8,68-159.2,5.5-319,7.8-477.5-8.8-201.9-21.2-411.2-79.4-552.1-225.4-24.7-25.6-58.8-70.7-27.3-101.1,33-31.9,95.3-52.4,136.9-70.4A1139.76,1139.76,0,0,1,727.53,529.24Z"/><path class="cls-2" d="M581.33,589.44a168,168,0,0,1,58.4-26.1c4.9-1.1,10.2-2.1,15.1-.6s9.2,5.8,9,10.9c-.5,8-10.4,11.1-18.3,12.1l-48.6,6.3c-7.6,1-17.1,3.3-15.6-2.6"/><path class="cls-4" d="M1047.83,406.24c13.2,7.1,27.5,15.6,31.9,30-53.4,3-94.8-60.6-147.8-53.6a45.29,45.29,0,0,1,1.8,19.7c-14.8,3.2-28.9-7.4-38.8-18.8s-19.2-24.7-33.5-29.7c-11.5-4.1-24-2-36.2-2.5-13-.6-23.1-5-29.1-16.3C844.53,289.74,1001.33,381,1047.83,406.24Z"/><path class="cls-2" d="M2110.43,424.34c6.1,1,13.5,3.3,14.4,9.4.4,2.8-.7,5.7.1,8.3,1.7,5.2,8.8,5.4,14.2,5,14.3-.9,30.7,2.9,37.8,15.4,1.5,2.7,2.5,6.3.5,8.7a8.13,8.13,0,0,1-3.9,2.3c-16.5,5.4-34-2.6-50.6-7.7a157.8,157.8,0,0,0-38.5-6.7c-2.5-.1-5.1-.2-7.3-1.4s-3.7-4-2.6-6.3c1-2.1,3.6-2.7,5.9-3.1l13.5-2.4c3.2-.6,7-1.8,7.4-5,.4-2.9-2.4-5.1-5.1-6.3-13.2-5.7-29.6-.1-42.1-7.1-14.3-8,12.8-10.2,17.3-9.9C2084.33,418.34,2097.73,422.24,2110.43,424.34Z"/><ellipse class="cls-2" cx="1713.73" cy="567.24" rx="26.8" ry="5.7"/><ellipse class="cls-2" cx="1855.73" cy="452.24" rx="26.8" ry="5.7"/><ellipse class="cls-2" cx="1663.73" cy="578.84" rx="19.8" ry="4.2"/><ellipse class="cls-2" cx="1948.73" cy="449.84" rx="19.8" ry="4.2"/><ellipse class="cls-2" cx="1878.73" cy="463.84" rx="15.3" ry="3.3"/><ellipse class="cls-2" cx="1867.73" cy="476.84" rx="10.7" ry="2.3"/><ellipse class="cls-2" cx="1964.73" cy="460.84" rx="10.7" ry="2.3"/><ellipse class="cls-2" cx="1596.23" cy="567.24" rx="19.8" ry="4.2"/><ellipse class="cls-2" cx="1741.63" cy="584.64" rx="12.8" ry="2.7"/><path class="cls-5" d="M1954,343.34h4a17.67,17.67,0,0,1,17.7,17.7v62.1a2,2,0,0,1-2,2h0a2,2,0,0,1-2-2v-60.9a14.94,14.94,0,0,0-14.9-14.9H1954v-4Z"/><path class="cls-5" d="M1940.73,450.14h.5a4.69,4.69,0,0,0,4.7-4.7v-64.5h-10v64.5A4.85,4.85,0,0,0,1940.73,450.14Z"/><path class="cls-5" d="M1868.63,372.84v26.6h-2.2a14.51,14.51,0,0,0-14.5,14.5V447a3.16,3.16,0,0,1-3.2,3.2h-3.6a3.16,3.16,0,0,1-3.2-3.2v-74.2Z"/><path class="cls-6" d="M1926.13,412a18.7,18.7,0,1,1,22.2,0l2.6,4.4a2,2,0,0,1-.8,2.8,2.09,2.09,0,0,1-2.8-.8l-2.6-4.4a19.52,19.52,0,0,1-5.4,1.4v5.1a2.1,2.1,0,1,1-4.2,0v-5.1a19.52,19.52,0,0,1-5.4-1.4l-2.6,4.4a2.11,2.11,0,0,1-2.8.8,2.09,2.09,0,0,1-.8-2.8Z"/><path id="SVGID" class="cls-7" d="M1950.33,336.24h-107.6a40.38,40.38,0,0,0-35.2,20.5l-12.8,22.7,26,14.7,6.5-11.4a3.42,3.42,0,0,1,5.9-.1h0a32.09,32.09,0,0,0,16.1,14.5,18.26,18.26,0,0,1,11.4,16.9v32.9a3.16,3.16,0,0,0,3.2,3.2h3.6a3.16,3.16,0,0,0,3.2-3.2v-47.6h66a18,18,0,0,1,18,18v29.1a3.76,3.76,0,0,0,3.7,3.7h2.6a3.76,3.76,0,0,0,3.7-3.7v-64.3l3.6-25.3A18.08,18.08,0,0,0,1950.33,336.24Z"/><g class="cls-8"><path class="cls-9" d="M1962.93,362.64h0a11.93,11.93,0,0,0,11.9-11.9v-25.6a11.93,11.93,0,0,0-11.9-11.9h0a11.93,11.93,0,0,0-11.9,11.9v25.6A12,12,0,0,0,1962.93,362.64Z"/><path class="cls-9" d="M1944,371.94h0a14.08,14.08,0,0,0,14.1-14.1v-30.4a14.08,14.08,0,0,0-14.1-14.1h0a14.08,14.08,0,0,0-14.1,14.1v30.4A14.21,14.21,0,0,0,1944,371.94Z"/><path class="cls-9" d="M1909.23,384.24h0a7.23,7.23,0,0,0-7.2,7.2v15.4a7.23,7.23,0,0,0,7.2,7.2h0a7.23,7.23,0,0,0,7.2-7.2v-15.4A7.23,7.23,0,0,0,1909.23,384.24Z"/><path class="cls-9" d="M1920.63,378.64h0a8.49,8.49,0,0,0-8.5,8.5v18.3a8.49,8.49,0,0,0,8.5,8.5h0a8.49,8.49,0,0,0,8.5-8.5v-18.3A8.49,8.49,0,0,0,1920.63,378.64Z"/><path class="cls-9" d="M1799.73,354.64h0a8,8,0,0,0,7.9,7.9h17a8,8,0,0,0,7.9-7.9h0a8,8,0,0,0-7.9-7.9h-17A8,8,0,0,0,1799.73,354.64Z"/><path class="cls-9" d="M1870.73,419.34h0a8,8,0,0,0,7.9-7.9v-17a8,8,0,0,0-7.9-7.9h0a8,8,0,0,0-7.9,7.9v17A7.92,7.92,0,0,0,1870.73,419.34Z"/><path class="cls-9" d="M1870.63,315h0a9.44,9.44,0,0,1,7,3.2,11,11,0,0,1,7.8-3.2,10.9,10.9,0,0,1,9.9,6.3h12.5a9.35,9.35,0,0,1,9.3,9.3h0a9.35,9.35,0,0,1-9.3,9.3h-1.7a9.65,9.65,0,0,0-9.7,9.7h0a11.24,11.24,0,0,1-10.7,11.3,11.09,11.09,0,0,1-11-8.2,9.54,9.54,0,0,1-4.1,1h0a9.35,9.35,0,0,1-9.3-9.3v-20A9.37,9.37,0,0,1,1870.63,315Z"/></g><g class="cls-8"><path class="cls-5" d="M1804.33,373l21.5,4.2a4.4,4.4,0,0,1,3.4,5.5l-7.5,28.4a7,7,0,0,1-3.5,4.5,6.89,6.89,0,0,1-4.7.8c.2-1.6-2.2-3.4-5.6-4s-6.4.1-6.7,1.6a7.08,7.08,0,0,1-5.7-7.9l3.6-29.2A4.33,4.33,0,0,1,1804.33,373Z"/></g><g class="cls-8"><path class="cls-5" d="M1801.43,373.44s-2.1,3.7-5.5,4l-2.8,4.2,27.6,12.7s9.3-13,11.6-12.8c0,0-.9-2.8-5.5-3.9S1801.43,373.44,1801.43,373.44Z"/></g><path class="cls-9" d="M1826.33,394.74l9,4.4h0a11,11,0,0,0-5-14.6l-9-4.4h0A10.84,10.84,0,0,0,1826.33,394.74Z"/><path class="cls-5" d="M1789,387.54l-10,.7h0a10.87,10.87,0,0,1,10.1-11.6l10-.7h0A10.87,10.87,0,0,1,1789,387.54Z"/><path id="SVGID-2" data-name="SVGID" class="cls-7" d="M1799.43,375.94l21.5,4.2a4.4,4.4,0,0,1,3.4,5.5l-7.5,28.4a7,7,0,0,1-3.5,4.5,6.89,6.89,0,0,1-4.7.8c.2-1.6-2.2-3.4-5.6-4s-6.4.1-6.7,1.6a7.08,7.08,0,0,1-5.7-7.9l3.6-29.2A4.42,4.42,0,0,1,1799.43,375.94Z"/><g class="cls-10"><circle class="cls-9" cx="1817.53" cy="409.54" r="16.2"/></g><ellipse class="cls-7" cx="1813.19" cy="399.31" rx="1" ry="1.9" transform="translate(1077.52 2103.97) rotate(-79.08)"/><ellipse class="cls-9" cx="1799.79" cy="396.75" rx="1" ry="1.9" transform="translate(1069.17 2088.75) rotate(-79.08)"/><path id="SVGID-3" data-name="SVGID" class="cls-6" d="M1792.53,414.74a4.1,4.1,0,0,0,5,.8,8.85,8.85,0,0,1,5.5-.3,9,9,0,0,1,5,2.4,4,4,0,0,0,4.8,1.1,2.19,2.19,0,0,0,.5-.3c-1.1,3.4-6.2,5.3-11.8,4.3s-9.6-4.7-9.3-8.3Z"/><g class="cls-11"><circle class="cls-12" cx="1804.33" cy="422.54" r="1.5"/></g><g class="cls-11"><circle class="cls-12" cx="1799.03" cy="421.54" r="1.5"/></g><path class="cls-5" d="M1701.83,459.64h3.8a16.73,16.73,0,0,1,16.7,16.7v58.5a1.9,1.9,0,0,1-1.9,1.9h0a1.9,1.9,0,0,1-1.9-1.9v-57.4a14,14,0,0,0-14-14h-2.7Z"/><path class="cls-5" d="M1686.93,567h2.5a3.69,3.69,0,0,0,3.7-3.7v-65h-9.9v65A3.69,3.69,0,0,0,1686.93,567Z"/><path class="cls-5" d="M1616.43,490.34v26.4h-2.2a14.3,14.3,0,0,0-14.3,14.3v32.9a3.12,3.12,0,0,1-3.1,3.1h-3.6a3.12,3.12,0,0,1-3.1-3.1v-73.6Z"/><path id="SVGID-4" data-name="SVGID" class="cls-7" d="M1554.23,453.94h20.3v.1h123.1a17.94,17.94,0,0,1,17.8,20.4l-3.5,25.1v63.8a3.69,3.69,0,0,1-3.7,3.7h-2.5a3.69,3.69,0,0,1-3.7-3.7v-28.8a17.84,17.84,0,0,0-17.8-17.8h-65.8v47.2a3.12,3.12,0,0,1-3.1,3.1h-3.6a3.12,3.12,0,0,1-3.1-3.1v-32.7a18.12,18.12,0,0,0-11.4-16.8,31.47,31.47,0,0,1-15.9-14.4l-8.5-14.2a18.85,18.85,0,0,0-16-9.1h-2.6Z"/><g class="cls-13"><path class="cls-9" d="M1689.43,484.94h0a9.92,9.92,0,0,0,9.9-9.9v-21.4a9.92,9.92,0,0,0-9.9-9.9h0a9.92,9.92,0,0,0-9.9,9.9V475A10,10,0,0,0,1689.43,484.94Z"/></g><g class="cls-13"><path class="cls-9" d="M1673.63,492.64h0a11.82,11.82,0,0,0,11.8-11.8v-25.4a11.82,11.82,0,0,0-11.8-11.8h0a11.82,11.82,0,0,0-11.8,11.8v25.4A11.82,11.82,0,0,0,1673.63,492.64Z"/></g><g class="cls-13"><path class="cls-9" d="M1600.93,443.44h0a8.18,8.18,0,0,1,5.9,2.7,9.16,9.16,0,0,1,14.8,2.6H1632a7.81,7.81,0,0,1,7.8,7.8h0a7.81,7.81,0,0,1-7.8,7.8h-1.4a8.07,8.07,0,0,0-8.1,8.1h0a9.46,9.46,0,0,1-9,9.5,9.37,9.37,0,0,1-9.2-6.9,7.84,7.84,0,0,1-3.5.8h0a7.81,7.81,0,0,1-7.8-7.8v-16.8A8,8,0,0,1,1600.93,443.44Z"/></g><g class="cls-13"><path class="cls-5" d="M1556.63,443.54l21.5,3.8a4.39,4.39,0,0,1,3.5,5.4l-7.1,28.3a7.17,7.17,0,0,1-3.4,4.5c-1,3.4-6.1,5.4-11.6,4.4s-9.6-4.5-9.4-8.1a7.05,7.05,0,0,1-1.7-5.4l3.1-29A4.34,4.34,0,0,1,1556.63,443.54Z"/></g><g class="cls-13"><path class="cls-5" d="M1577,471l.7-2.9a18.52,18.52,0,0,1,18.1-14.2h0l1.6-13.2-39.7-1-4.2,26.8Z"/></g><path class="cls-9" d="M1581.73,458.54l9,4.2h0a10.89,10.89,0,0,0-5.2-14.4l-9-4.2h0A10.86,10.86,0,0,0,1581.73,458.54Z"/><path class="cls-5" d="M1544.63,451.94l-9.9.9h0a10.84,10.84,0,0,1,9.8-11.7l9.9-.9h0A10.78,10.78,0,0,1,1544.63,451.94Z"/><path id="SVGID-5" data-name="SVGID" class="cls-7" d="M1554.73,440.34l21.5,3.8a4.39,4.39,0,0,1,3.5,5.4l-7.1,28.3a7.17,7.17,0,0,1-3.4,4.5,6.89,6.89,0,0,1-4.7.8c.2-1.6-2.3-3.3-5.6-3.9s-6.3.2-6.6,1.7a7.5,7.5,0,0,1-4.1-2.4,7.05,7.05,0,0,1-1.7-5.4l3.1-29A4.32,4.32,0,0,1,1554.73,440.34Z"/><ellipse class="cls-9" cx="1568.63" cy="463.28" rx="1" ry="1.9" transform="translate(838.57 1926.92) rotate(-79.94)"/><ellipse class="cls-9" cx="1555.38" cy="460.93" rx="1" ry="1.9" transform="translate(829.96 1911.93) rotate(-79.94)"/><path id="SVGID-6" data-name="SVGID" class="cls-6" d="M1548.53,478.94a4.4,4.4,0,0,0,5,.8,9.53,9.53,0,0,1,5.5-.4,9.72,9.72,0,0,1,5,2.3,4.35,4.35,0,0,0,4.8,1.1,2.19,2.19,0,0,0,.5-.3c-1,3.4-6.1,5.4-11.6,4.4s-9.6-4.5-9.4-8.1Z"/><g class="cls-14"><circle class="cls-12" cx="1560.43" cy="486.54" r="1.5"/></g><g class="cls-14"><circle class="cls-12" cx="1555.03" cy="485.54" r="1.5"/></g><ellipse class="cls-4" cx="515.43" cy="376.24" rx="14" ry="3"/><ellipse class="cls-4" cx="555.93" cy="373.74" rx="11.5" ry="2.5"/><ellipse class="cls-4" cx="542.93" cy="382.74" rx="6.8" ry="1.5"/><ellipse class="cls-4" cx="552.93" cy="388.74" rx="4.5" ry="1"/><ellipse class="cls-4" cx="497.93" cy="380.74" rx="4.5" ry="1"/><ellipse class="cls-4" cx="670.03" cy="496.34" rx="35.4" ry="7.6"/><ellipse class="cls-4" cx="801.43" cy="495.34" rx="23" ry="4.9"/><ellipse class="cls-4" cx="758.43" cy="505.34" rx="17" ry="3.6"/><ellipse class="cls-4" cx="825.43" cy="510.34" rx="11" ry="2.4"/><ellipse class="cls-4" cx="625.83" cy="507.64" rx="11.4" ry="2.4"/><path class="cls-5" d="M682.43,368.84h-4.5a20,20,0,0,0-20,20v70.1a2.33,2.33,0,0,0,2.3,2.3h0a2.33,2.33,0,0,0,2.3-2.3v-68.7a16.77,16.77,0,0,1,16.8-16.8h3.2v-4.6Z"/><path class="cls-5" d="M697.83,495.24h-3a4.27,4.27,0,0,1-4.3-4.3v-76.7h11.7v76.7A4.42,4.42,0,0,1,697.83,495.24Z"/><path class="cls-5" d="M781,404.74v31.1h2.5a16.94,16.94,0,0,1,16.9,16.9v38.7a3.69,3.69,0,0,0,3.7,3.7h4.3a3.69,3.69,0,0,0,3.7-3.7v-86.9H781Z"/><path class="cls-6" d="M713.73,450.54a21.9,21.9,0,1,0-26,0l-3,5.2a2.42,2.42,0,1,0,4.2,2.4l3-5.2a22.6,22.6,0,0,0,6.3,1.7v6a2.4,2.4,0,1,0,4.8,0v-6a19,19,0,0,0,6.3-1.7l3,5.2a2.42,2.42,0,1,0,4.2-2.4Z"/><path id="SVGID-7" data-name="SVGID" class="cls-7" d="M854.33,361.84h-23.9v.1H685.33a21.16,21.16,0,0,0-20.9,24.1l4.2,29.6v75.3a4.27,4.27,0,0,0,4.3,4.3h3a4.27,4.27,0,0,0,4.3-4.3v-34a21,21,0,0,1,21-21h77.3v55.7a3.69,3.69,0,0,0,3.7,3.7h4.3a3.69,3.69,0,0,0,3.7-3.7v-38.5a21.3,21.3,0,0,1,13.4-19.8,37.38,37.38,0,0,0,18.8-16.9l10-16.7a22.07,22.07,0,0,1,18.9-10.7h3Z"/><g class="cls-15"><path class="cls-9" d="M695.13,408.94h0a14.94,14.94,0,0,1-14.9-14.9v-32.1a14.94,14.94,0,0,1,14.9-14.9h0a14.94,14.94,0,0,1,14.9,14.9V394A14.94,14.94,0,0,1,695.13,408.94Z"/></g><g class="cls-15"><path class="cls-9" d="M718.83,420.54h0a17.73,17.73,0,0,1-17.7-17.7v-38.1a17.73,17.73,0,0,1,17.7-17.7h0a17.73,17.73,0,0,1,17.7,17.7v38.1A17.8,17.8,0,0,1,718.83,420.54Z"/></g><g class="cls-15"><path class="cls-9" d="M769.93,412h0a8.45,8.45,0,0,1,8.4,8.4v18.1a8.45,8.45,0,0,1-8.4,8.4h0a8.45,8.45,0,0,1-8.4-8.4v-18.1A8.45,8.45,0,0,1,769.93,412Z"/></g><g class="cls-15"><path class="cls-9" d="M756.63,405.44h0a10,10,0,0,1,10,10v21.5a10,10,0,0,1-10,10h0a10,10,0,0,1-10-10v-21.5A10,10,0,0,1,756.63,405.44Z"/></g><g class="cls-15"><path class="cls-9" d="M841.53,414.24h0a9.24,9.24,0,0,1-9.2,9.2h-19.9a9.24,9.24,0,0,1-9.2-9.2h0a9.24,9.24,0,0,1,9.2-9.2h19.9A9.24,9.24,0,0,1,841.53,414.24Z"/></g><g class="cls-15"><path class="cls-9" d="M668.33,452.74h0a9.24,9.24,0,0,1-9.2-9.2v-19.9a9.24,9.24,0,0,1,9.2-9.2h0a9.24,9.24,0,0,1,9.2,9.2v19.9A9.31,9.31,0,0,1,668.33,452.74Z"/></g><g class="cls-15"><path class="cls-9" d="M797.83,349.54h0a8.17,8.17,0,0,0-6.4,3,10.05,10.05,0,0,0-7.1-3,10.32,10.32,0,0,0-9.1,5.7h-11.4a8.49,8.49,0,0,0-8.5,8.5h0a8.49,8.49,0,0,0,8.5,8.5h1.5a8.92,8.92,0,0,1,8.9,8.9h0a10.25,10.25,0,0,0,9.8,10.3,10,10,0,0,0,10-7.5,7.9,7.9,0,0,0,3.8.9h0a8.49,8.49,0,0,0,8.5-8.5V358A8.49,8.49,0,0,0,797.83,349.54Z"/></g><g class="cls-15"><path class="cls-5" d="M856,349.54l-25.3,4.5a5.15,5.15,0,0,0-4.1,6.4l8.3,33.4a8.67,8.67,0,0,0,4,5.3c1.2,4,7.1,6.3,13.7,5.2s11.3-5.3,11.1-9.5a8.14,8.14,0,0,0,2-6.4l-3.7-34.2A5.1,5.1,0,0,0,856,349.54Z"/></g><g class="cls-15"><path class="cls-5" d="M832,381.94l-.8-3.4a22,22,0,0,0-21.4-16.8h0l-1.9-15.6,46.8-1.1,4.9,31.6Z"/></g><path class="cls-9" d="M828.73,363.84l-10.7,5h0a12.65,12.65,0,0,1,6.2-16.9l10.7-5h0A12.8,12.8,0,0,1,828.73,363.84Z"/><path class="cls-9" d="M872.53,356l11.7,1h0a12.77,12.77,0,0,0-11.6-13.8l-11.7-1h0A12.77,12.77,0,0,0,872.53,356Z"/><path id="SVGID-8" data-name="SVGID" class="cls-7" d="M860.53,342.34l-25.3,4.5a5.15,5.15,0,0,0-4.1,6.4l8.3,33.4a8.67,8.67,0,0,0,4,5.3,8.55,8.55,0,0,0,5.5,1c-.3-1.9,2.7-3.9,6.7-4.6s7.4.2,7.8,2a8.69,8.69,0,0,0,4.8-2.8,8.14,8.14,0,0,0,2-6.4l-3.7-34.2A5.08,5.08,0,0,0,860.53,342.34Z"/><g class="cls-16"><path class="cls-9" d="M856.93,333.74h0a11.8,11.8,0,0,0-4.6,1.9l-.4-2a6.78,6.78,0,0,0-7.2-5.6,6.6,6.6,0,0,0-5.9,7.7l1.9,10.8a6.83,6.83,0,0,0,4,5,7.84,7.84,0,0,1,4.6,5.7l1.5,8.6a11.58,11.58,0,0,0,13.4,9.3h0a11.58,11.58,0,0,0,9.3-13.4l-3.3-18.8A11.54,11.54,0,0,0,856.93,333.74Z"/></g><ellipse class="cls-9" cx="843.99" cy="369.44" rx="2.2" ry="1.2" transform="translate(-51.54 153.04) rotate(-10.06)"/><ellipse class="cls-7" cx="859.68" cy="366.64" rx="2.2" ry="1.2" transform="translate(-50.81 155.74) rotate(-10.06)"/><path id="SVGID-9" data-name="SVGID" class="cls-6" d="M867.93,387.84a5,5,0,0,1-5.9.9,10.72,10.72,0,0,0-6.4-.5,11.2,11.2,0,0,0-5.9,2.7,4.91,4.91,0,0,1-5.7,1.2l-.6-.3c1.2,4,7.1,6.3,13.7,5.2s11.3-5.3,11.1-9.5Z"/><g class="cls-17"><circle class="cls-12" cx="853.93" cy="396.74" r="1.7"/></g><g class="cls-17"><circle class="cls-12" cx="860.23" cy="395.64" r="1.7"/></g><path class="cls-5" d="M551.23,327.34H553a7.81,7.81,0,0,1,7.8,7.8v27.2a.9.9,0,0,1-.9.9h0a.9.9,0,0,1-.9-.9v-26.7a6.49,6.49,0,0,0-6.5-6.5h-1.2v-1.8Z"/><path class="cls-5" d="M544.83,374.24H546a1.58,1.58,0,0,0,1.6-1.6v-28.8h-4.4v28.8A1.72,1.72,0,0,0,544.83,374.24Z"/><path class="cls-5" d="M513.73,340.24v11.7h-1a6.27,6.27,0,0,0-6.3,6.3v14.5a1.37,1.37,0,0,1-1.4,1.4h-1.6a1.37,1.37,0,0,1-1.4-1.4v-32.5Z"/><path id="SVGID-10" data-name="SVGID" class="cls-7" d="M549.63,324.24h-47.2a17.53,17.53,0,0,0-15.4,9l-5.6,10,11.4,6.5,2.8-5a1.5,1.5,0,0,1,2.6,0h0a13.47,13.47,0,0,0,7,6.3,8,8,0,0,1,5,7.4v14.4a1.37,1.37,0,0,0,1.4,1.4h1.6a1.37,1.37,0,0,0,1.4-1.4v-20.9h29a7.85,7.85,0,0,1,7.9,7.9v12.7a1.58,1.58,0,0,0,1.6,1.6h1.1a1.58,1.58,0,0,0,1.6-1.6v-28.2l1.6-11.1A7.89,7.89,0,0,0,549.63,324.24Z"/><g class="cls-18"><path class="cls-9" d="M553.63,335.84h2.9a3.69,3.69,0,0,0,3.7-3.7V318a3.69,3.69,0,0,0-3.7-3.7h-2.9a3.69,3.69,0,0,0-3.7,3.7v14.1A3.76,3.76,0,0,0,553.63,335.84Z"/><path class="cls-9" d="M545.13,339.94h3.5a4.55,4.55,0,0,0,4.5-4.5v-16.8a4.55,4.55,0,0,0-4.5-4.5h-3.5a4.55,4.55,0,0,0-4.5,4.5v16.8A4.55,4.55,0,0,0,545.13,339.94Z"/><path class="cls-9" d="M515.23,345.34h-1.8a2.33,2.33,0,0,0-2.3,2.3v8.5a2.33,2.33,0,0,0,2.3,2.3h1.8a2.33,2.33,0,0,0,2.3-2.3v-8.5A2.39,2.39,0,0,0,515.23,345.34Z"/><path class="cls-9" d="M520.33,342.84h-2.1a2.69,2.69,0,0,0-2.7,2.7v10.1a2.69,2.69,0,0,0,2.7,2.7h2.1a2.69,2.69,0,0,0,2.7-2.7v-10.1A2.69,2.69,0,0,0,520.33,342.84Z"/><path class="cls-9" d="M512.63,322.74v2.8a3.59,3.59,0,0,0,3.6,3.6h13.6a3.59,3.59,0,0,0,3.6-3.6v-2.8a3.59,3.59,0,0,0-3.6-3.6h-13.6A3.59,3.59,0,0,0,512.63,322.74Z"/></g><g class="cls-18"><path class="cls-5" d="M485.53,340.34l9.5,1.8a1.92,1.92,0,0,1,1.5,2.4l-3.3,12.5a3.1,3.1,0,0,1-1.5,2,3,3,0,0,1-2.1.3c.1-.7-1-1.5-2.5-1.8s-2.8,0-2.9.7a3.19,3.19,0,0,1-2.5-3.5l1.6-12.8A1.83,1.83,0,0,1,485.53,340.34Z"/></g><g class="cls-18"><path class="cls-5" d="M484.23,340.54a3.46,3.46,0,0,1-2.4,1.7l-1.2,1.8,12.1,5.6s4.1-5.7,5.1-5.6a3.15,3.15,0,0,0-2.4-1.7C493.43,341.84,484.23,340.54,484.23,340.54Z"/></g><path class="cls-9" d="M494,349.34l5.2,2.5.6-1.2a3.47,3.47,0,0,0-1.6-4.6l-5.2-2.5-.6,1.2A3.31,3.31,0,0,0,494,349.34Z"/><path class="cls-5" d="M480.13,346.64l-5.7.4-.1-1.3a3.53,3.53,0,0,1,3.2-3.7l5.7-.4.1,1.3A3.47,3.47,0,0,1,480.13,346.64Z"/><path id="SVGID-11" data-name="SVGID" class="cls-7" d="M483.43,341.64l9.5,1.8a1.92,1.92,0,0,1,1.5,2.4l-3.3,12.5a3.1,3.1,0,0,1-1.5,2,3,3,0,0,1-2.1.3c.1-.7-1-1.5-2.5-1.8s-2.8,0-2.9.7a3.19,3.19,0,0,1-2.5-3.5l1.6-12.8A1.83,1.83,0,0,1,483.43,341.64Z"/><g class="cls-19"><circle class="cls-9" cx="480.23" cy="353.54" r="7.1"/></g><ellipse class="cls-9" cx="489.45" cy="351.89" rx="0.5" ry="0.8" transform="translate(51.19 765.79) rotate(-79.08)"/><ellipse class="cls-7" cx="483.51" cy="350.78" rx="0.5" ry="0.8" transform="translate(47.46 759.06) rotate(-79.08)"/><path id="SVGID-12" data-name="SVGID" class="cls-6" d="M480.33,358.74a2,2,0,0,0,2.2.4,4.39,4.39,0,0,1,2.4-.2,4.51,4.51,0,0,1,2.2,1,1.86,1.86,0,0,0,2.1.5.35.35,0,0,0,.2-.1c-.5,1.5-2.7,2.3-5.2,1.9s-4.2-2.1-4.1-3.6C480.23,358.64,480.33,358.64,480.33,358.74Z"/><g class="cls-20"><circle class="cls-12" cx="485.53" cy="362.14" r="0.6"/></g><g class="cls-20"><circle class="cls-12" cx="483.23" cy="361.64" r="0.6"/></g><g id="_Group_" data-name="&lt;Group&gt;"><path class="cls-6" d="M1632.93,249.54s16.3,8.5,3.9,30.3c-14.3-2.5-28.1-5.5-41.3-8.8,1.7-16.7,14.4-24.7,17.9-26.7C1625.73,248,1632.93,249.54,1632.93,249.54Z"/><path class="cls-21" d="M1636.83,279.84c-7.5,13.4-25.5,13.5-38.4,11.4-2.8-7.9-3.5-14.6-2.9-20.3C1608.73,274.34,1622.53,277.34,1636.83,279.84Z"/><path class="cls-22" d="M1613.43,244.34c-3.5,2-16.2,10-17.9,26.7-8.4-2-16.7-4.2-24.7-6.6,1.4-18.3,16-26.5,18.5-27.8C1598.63,239.94,1606.73,242.44,1613.43,244.34Z"/><path class="cls-23" d="M1595.53,271a47.54,47.54,0,0,0,2.9,20.3A87.35,87.35,0,0,1,1584,288s-3.4-.7-9.5-2.3a47.43,47.43,0,0,1-3.7-21.2C1578.83,266.84,1587.13,269,1595.53,271Z"/><path class="cls-6" d="M1589.33,236.74c-2.5,1.3-17.1,9.5-18.5,27.8-16.5-4.9-32.1-10.2-46.9-16.1,1-17.9,13.2-27.3,18.5-30.6C1559.83,225.84,1575.83,231.94,1589.33,236.74Z"/><path class="cls-21" d="M1570.83,264.44c-.5,6,.4,13,3.7,21.2-6-1.6-14.7-4.1-25.4-7.6q-9.6-3.15-21.3-7.5c-3.3-8.5-4.3-15.9-3.9-22.2C1538.73,254.24,1554.43,259.64,1570.83,264.44Z"/><path class="cls-24" d="M1352.23,159.54c6.3,6.3,12.7,12.3,19.2,18.2a443.72,443.72,0,0,0,49.4,38c7,4.8,14.1,9.2,21.1,13.3a513.67,513.67,0,0,0,62.3,31.9c8.3,3.7,16.3,6.8,23.7,9.6,7.7,2.9,14.9,5.4,21.3,7.5l-.6,1.7-66.3,272.5h-424.7l-66.2-272.4v-.1c6.7-2.2,14.3-4.8,22.5-7.9,7.5-2.8,15.4-6,23.8-9.6a528.49,528.49,0,0,0,62.3-31.9c7-4.1,14-8.5,21.1-13.3a463,463,0,0,0,49.4-38c6.5-5.8,12.9-11.9,19.2-18.2a385.81,385.81,0,0,0,43.2-51.5c5.3-7.6,10.4-15.5,15.3-23.8a361.09,361.09,0,0,0,18.5-35.6,40.23,40.23,0,0,0,4.4-17,40.13,40.13,0,0,0,4.3,15.7,372.64,372.64,0,0,0,18.5,35.6v.1q7.35,12.3,15.3,23.7A369.09,369.09,0,0,0,1352.23,159.54Z"/><path class="cls-22" d="M1542.43,217.84c-5.3,3.3-17.5,12.7-18.5,30.6-8-3-15.7-6.4-23.2-9.8,2-21.7,20.9-30.3,20.9-30.3l.2-.4C1528.93,211.44,1535.83,214.74,1542.43,217.84Z"/><path class="cls-23" d="M1523.93,248.34c-.5,6.3.6,13.7,3.9,22.2-7.4-2.8-15.4-6-23.7-9.6-3.1-8.6-3.9-16-3.3-22.4C1508.23,242,1516,245.34,1523.93,248.34Z"/><path class="cls-6" d="M1521.83,207.84l-.2.4s-18.8,8.7-20.9,30.3a464.55,464.55,0,0,1-57.2-30.6c6.4-21.5,25.6-27,30.1-28,4.3,2.8,8.5,5.6,12.7,8.1C1498.53,195.44,1510.43,202,1521.83,207.84Z"/><path class="cls-21" d="M1500.83,238.64c-.6,6.4.2,13.8,3.3,22.4a513.68,513.68,0,0,1-62.3-31.9,57.53,57.53,0,0,1,1.8-21.1A464.55,464.55,0,0,0,1500.83,238.64Z"/><path class="cls-25" d="M1473.73,179.94c-7.2-4.6-14.4-9.6-21.5-14.9-3.6-2.6-7.2-5.4-10.8-8.2l.2-97.6c3.7.2,7.8.3,12.1.3,18.4,0,33.3-2,33.3-4.4v132.1l-.5.9C1482.23,185.54,1477.93,182.74,1473.73,179.94Z"/><path class="cls-26" d="M1441.63,59.24c-12.5-.7-21.3-2.2-21.3-4.1,0-2.4,14.9-4.3,33.3-4.3s33.3,2,33.3,4.3-15,4.4-33.3,4.4C1449.43,59.54,1445.33,59.44,1441.63,59.24Z"/><path class="cls-22" d="M1452.13,165c7.2,5.3,14.4,10.3,21.5,14.9-4.5,1-23.7,6.5-30.1,28-7.5-4.7-14.6-9.4-21.4-14.3C1428.23,172,1447.13,166.24,1452.13,165Z"/><path class="cls-6" d="M1441.43,156.84c3.6,2.8,7.2,5.6,10.8,8.2-5.1,1.2-23.9,7-29.9,28.7a417.81,417.81,0,0,1-46.9-38.5c8.9-23.1,31.3-25.5,34.3-25.7,3,2.9,6,5.8,9.1,8.5C1426.23,144.54,1433.73,150.84,1441.43,156.84Z"/><path class="cls-23" d="M1443.63,207.94a53.33,53.33,0,0,0-1.8,21.1c-7-4.1-14-8.5-21.1-13.3-.9-8.7-.3-16,1.5-22C1429,198.54,1436.23,203.34,1443.63,207.94Z"/><path class="cls-27" d="M1441.63,59.24l-.2,97.6c-7.7-6-15.2-12.3-22.6-19l1.6-1.8V55C1420.33,57,1429.13,58.54,1441.63,59.24Z"/><path class="cls-21" d="M1422.23,193.74c-1.8,6-2.4,13.3-1.5,22a443.72,443.72,0,0,1-49.4-38l.1-.1c0-9.1,1.4-16.5,3.9-22.5A407.54,407.54,0,0,0,1422.23,193.74Z"/><path class="cls-22" d="M1391.53,111.14c6,6.4,12,12.5,18.1,18.2-3,.3-25.4,2.6-34.3,25.7-6.6-6.2-12.9-12.5-18.8-18.8,10-23.5,34.1-24.4,34.1-24.4Z"/><path class="cls-6" d="M1391.53,111.14l-.9.8s-24.1.9-34.1,24.4a399.51,399.51,0,0,1-37.8-47.1c17.1-22.4,42.4-15,42.4-15l.1-.1A373.89,373.89,0,0,0,1391.53,111.14Z"/><path class="cls-23" d="M1375.33,155.14a60.16,60.16,0,0,0-3.9,22.5l-.1.1c-6.5-5.8-12.9-11.9-19.2-18.2.1-9.5,1.7-17.1,4.3-23.2C1362.33,142.64,1368.63,148.94,1375.33,155.14Z"/><path class="cls-22" d="M1361.23,74.24l-.1.1s-25.3-7.5-42.4,15c-5.8-8.4-10.8-16.4-15.2-23.8,17.1-22,42.1-14.7,42.1-14.7C1350.53,58.84,1355.83,66.64,1361.23,74.24Z"/><path class="cls-21" d="M1318.73,89.24a399.51,399.51,0,0,0,37.8,47.1,58.55,58.55,0,0,0-4.3,23.2,386.83,386.83,0,0,1-43.2-51.6l.3-.2A61.42,61.42,0,0,1,1318.73,89.24Z"/><path class="cls-6" d="M1345.63,50.74s-25-7.3-42.1,14.7c-18.5-31.8-25.1-53.9-25.1-53.9a33.35,33.35,0,0,1,5.9-5.1c23.5-16.5,39.8,3.9,39.8,3.9A377.2,377.2,0,0,0,1345.63,50.74Z"/><path class="cls-23" d="M1318.73,89.24a63.2,63.2,0,0,0-9.4,18.6l-.3.2q-7.95-11.4-15.3-23.7v-.1a59,59,0,0,1,9.8-18.8C1307.83,72.84,1312.93,80.84,1318.73,89.24Z"/><path class="cls-21" d="M1303.43,65.44a63.33,63.33,0,0,0-9.8,18.8,361.09,361.09,0,0,1-18.5-35.6,38.25,38.25,0,0,1-4.3-15.7,14.77,14.77,0,0,1-.1-2.1,27.89,27.89,0,0,1,7.6-19.3C1278.43,11.54,1285,33.64,1303.43,65.44Z"/><path class="cls-21" d="M1270.83,30.84a14.77,14.77,0,0,0,.1,2.1,39.64,39.64,0,0,1-4.4,17,372.64,372.64,0,0,1-18.5,35.6h-.1c-3.3-9.7-7.5-16.8-12.3-21.9a305.9,305.9,0,0,0,21.7-56C1267.33,14.64,1270.53,23.14,1270.83,30.84Z"/><path class="cls-23" d="M1247.93,85.54h0c-4.8,8.3-10,16.2-15.2,23.8l-.3-.2a62.62,62.62,0,0,0-10.9-20.4,276.52,276.52,0,0,0,14.2-25.1C1240.43,68.74,1244.63,75.84,1247.93,85.54Z"/><path class="cls-6" d="M1217.53,11.44s16.3-20.4,39.8-3.8a308.72,308.72,0,0,1-21.7,56c-16.9-18.3-39.6-11.7-39.6-11.7A338.07,338.07,0,0,0,1217.53,11.44Z"/><path class="cls-21" d="M1232.43,109l.3.2a384.62,384.62,0,0,1-43.2,51.5c-.1-10.1-2-18-4.9-24.3a314.5,314.5,0,0,0,36.9-47.8A62.62,62.62,0,0,1,1232.43,109Z"/><path class="cls-22" d="M1235.63,63.64a266.48,266.48,0,0,1-14.2,25.1c-17.1-20.2-40.9-13.2-40.9-13.2l-.1-.1q8.1-11.25,15.6-23.4C1196.13,51.94,1218.73,45.34,1235.63,63.64Z"/><path class="cls-6" d="M1180.63,75.44s23.8-7,40.9,13.2a319.52,319.52,0,0,1-36.9,47.8c-10.3-22.4-33.6-23.2-33.6-23.2l-.9-.8a400.2,400.2,0,0,0,30.5-37Z"/><path class="cls-23" d="M1184.63,136.44c2.9,6.3,4.8,14.2,4.9,24.3-6.2,6.4-12.7,12.4-19.2,18.2l-.1-.1c0-9.8-1.7-17.6-4.3-23.8C1172.43,149.14,1178.73,142.94,1184.63,136.44Z"/><path class="cls-21" d="M1170.33,178.94h0A453.47,453.47,0,0,1,1121,217c1-10,0-18.2-2.3-24.7A381.22,381.22,0,0,0,1166,155,61.92,61.92,0,0,1,1170.33,178.94Z"/><path class="cls-22" d="M1184.63,136.44c-6,6.5-12.3,12.7-18.7,18.6-9.3-21.7-30.6-24.2-33.8-24.5,6.2-5.8,12.2-11.9,18-18.2l.9.8C1151,113.24,1174.33,114.14,1184.63,136.44Z"/><path class="cls-6" d="M1132.13,130.64c3.2.3,24.5,2.7,33.8,24.5a374,374,0,0,1-47.3,37.3c-6.8-19.5-24.3-24.9-29.1-26A449.1,449.1,0,0,0,1132.13,130.64Z"/><path class="cls-23" d="M1118.63,192.34c2.3,6.5,3.3,14.6,2.3,24.7-7,4.7-14.1,9.1-21.1,13.3.9-9.9-.4-17.9-2.9-24.3C1104.33,201.74,1111.53,197.24,1118.63,192.34Z"/><path class="cls-22" d="M1118.63,192.34c-7.2,4.9-14.4,9.4-21.7,13.7-7.2-18.8-24.6-23.8-28.9-24.8,7.1-4.7,14.3-9.6,21.5-14.9C1094.43,167.44,1111.93,172.84,1118.63,192.34Z"/><path class="cls-21" d="M1097,206c2.5,6.4,3.8,14.4,2.9,24.3a528.5,528.5,0,0,1-62.3,31.9c3.9-11,4.1-20.1,2.4-27.3A485.37,485.37,0,0,0,1097,206Z"/><path class="cls-6" d="M1068,181.24c4.3.9,21.7,6,28.9,24.8a492.16,492.16,0,0,1-56.9,28.9c-4.2-18.1-20.1-25.4-20.1-25.4l-.2-.3A514,514,0,0,0,1068,181.24Z"/><path class="cls-23" d="M1040.13,234.84c1.7,7.2,1.5,16.3-2.4,27.3-8.4,3.7-16.3,6.8-23.8,9.6,4.3-11,4.7-20.2,3.3-27.6C1024.63,241.34,1032.33,238.24,1040.13,234.84Z"/><path class="cls-22" d="M1040.13,234.84c-7.8,3.4-15.5,6.5-23,9.3-2.8-14.4-13.1-22.2-17.9-25.1,6.6-3,13.5-6.4,20.6-10l.2.3C1020,209.44,1035.93,216.84,1040.13,234.84Z"/><path class="cls-21" d="M1017.13,244.24c1.5,7.4,1,16.5-3.3,27.6-8.2,3.1-15.8,5.8-22.5,7.9-10.1,3.3-18.4,5.6-24.1,7.2,4.3-11.1,4.5-20,2.6-27C984.13,255.74,1000.13,250.64,1017.13,244.24Z"/><path class="cls-6" d="M999.23,219.14c4.7,2.9,15,10.8,17.9,25.1-17,6.4-33,11.5-47.3,15.6-3.5-14-15-20.7-17.4-21.9C965.93,233.24,981.83,227.14,999.23,219.14Z"/><path class="cls-23" d="M969.83,259.84c1.9,7,1.7,15.9-2.6,27-6.2,1.6-9.6,2.3-9.6,2.3a97.28,97.28,0,0,1-14.4,3.4c3.8-10.8,3.7-19.4,1.7-26.2C952.53,264.54,960.83,262.44,969.83,259.84Z"/><path class="cls-22" d="M952.43,238c2.4,1.2,13.9,7.9,17.4,21.9-9,2.6-17.3,4.7-24.9,6.5-3.5-12.6-13.4-19-16.6-20.7C935,243.74,943.13,241.24,952.43,238Z"/><path class="cls-6" d="M945,266.34c2,6.8,2.1,15.4-1.7,26.2-12.9,2-31,1.9-38.4-11.4a35.48,35.48,0,0,1-2.9-6.4l3.7-.7C905.63,274,920.83,272.14,945,266.34Z"/><path class="cls-6" d="M928.43,245.74c3.2,1.7,13.1,8.1,16.6,20.7a401.3,401.3,0,0,1-39.4,7.7l-3.7.7c-6.2-17.1,6.8-24,6.8-24S916,249.34,928.43,245.74Z"/></g><polygon class="cls-24" points="1484.42 552.24 1057.42 552.24 1030.42 441.24 1509.42 440.24 1484.42 552.24"/><g class="cls-28"><line class="cls-29" x1="944.43" y1="64.74" x2="1596.43" y2="64.74"/></g><g class="cls-28"><line class="cls-29" x1="944.43" y1="95.74" x2="1596.43" y2="95.74"/></g><g class="cls-28"><line class="cls-29" x1="944.43" y1="126.74" x2="1596.43" y2="126.74"/></g><g class="cls-28"><line class="cls-29" x1="944.43" y1="157.74" x2="1596.43" y2="157.74"/></g><g class="cls-28"><line class="cls-29" x1="944.43" y1="188.74" x2="1596.43" y2="188.74"/></g><g class="cls-28"><line class="cls-29" x1="944.43" y1="219.74" x2="1596.43" y2="219.74"/></g><g class="cls-28"><line class="cls-29" x1="944.43" y1="250.74" x2="1596.43" y2="250.74"/></g><g class="cls-28"><line class="cls-29" x1="944.43" y1="281.74" x2="1596.43" y2="281.74"/></g><g class="cls-28"><line class="cls-29" x1="944.43" y1="312.74" x2="1596.43" y2="312.74"/></g><g class="cls-28"><line class="cls-29" x1="944.43" y1="343.74" x2="1596.43" y2="343.74"/></g><g class="cls-28"><line class="cls-29" x1="944.43" y1="374.74" x2="1596.43" y2="374.74"/></g><g class="cls-28"><line class="cls-29" x1="944.43" y1="405.74" x2="1596.43" y2="405.74"/></g><g class="cls-28"><line class="cls-29" x1="944.43" y1="436.74" x2="1596.43" y2="436.74"/></g><g class="cls-28"><line class="cls-29" x1="944.43" y1="467.74" x2="1596.43" y2="467.74"/></g><g class="cls-28"><line class="cls-29" x1="944.43" y1="498.74" x2="1596.43" y2="498.74"/></g><g class="cls-28"><line class="cls-29" x1="944.43" y1="529.74" x2="1596.43" y2="529.74"/></g><circle class="cls-30" cx="1264.43" cy="201.24" r="51"/><circle class="cls-31" cx="1270.43" cy="199.24" r="48"/><g id="_Group_2" data-name="&lt;Group&gt;"><path class="cls-9" d="M1298.63,174.94s13.5,4.3,9.8,17.9c-3.5-1-11.7-3.1-11.7-3.1s-6.3-1.6-6.8-3.6c.3-3.8.5-6.8.5-8.3.1-3.5-1.6-5.1-3.1-5.8Z"/><path class="cls-9" d="M1287.33,171.94c1.5.7,3.2,2.3,3.1,5.8,0,1.4-.3,4.5-.5,8.3-.4,6.1-1,14.1-1.5,20.5,0,0-2.5,4.4-11,1.9-6.3-1.8-7.9-7.4-8.3-10.2a16,16,0,0,1-.1-1.7v-9.2c0-5.1-1.5-7-4.9-9.4s-2.7-6.6-2.7-6.6h23.8A6.06,6.06,0,0,1,1287.33,171.94Zm-5.9,26.7c0-.8-1.2-1.4-2.6-1.4s-2.5.7-2.5,1.4,1.2,1.4,2.5,1.4S1281.43,199.44,1281.43,198.64Z"/><path class="cls-7" d="M1283.93,224.44a3.51,3.51,0,0,1-1.4.6c-4.1.9-5.5-.8-5.5-.8a9.55,9.55,0,0,0-7.2-2h-.1c-4.8-.5-7.2,2-7.2,2s-1.3,1.7-5.5.8a3.9,3.9,0,0,1-1.6-.7c-2.8-2-3.4-6.5-3.4-6.5s-.7-8.9-1.4-18.5l7.5-.6c0,.8,1.2,1.4,2.6,1.4s2.5-.7,2.5-1.4v-.3l6-.1c.4,2.8,2,8.4,8.3,10.2,8.5,2.5,11-1.9,11-1.9-.5,6.3-.9,11.2-.9,11.2S1286.93,222.64,1283.93,224.44Z"/><path class="cls-32" d="M1283.93,224.44a2.2,2.2,0,0,1,.1.8c0,3-3.6,5.6-8.7,6.7a1.89,1.89,0,0,0-2.2-1.4,2,2,0,0,0-1.6,2c-.6,0-1.2.1-1.8.1a11.49,11.49,0,0,1-1.9-.1,2,2,0,0,0-1.6-2,1.92,1.92,0,0,0-2.2,1.4c-5.1-1.1-8.6-3.7-8.6-6.7,0-.5-.1-.5.1-1a4.6,4.6,0,0,0,1.6.7c4.1.9,5.5-.8,5.5-.8s2.4-2.4,7.2-2h.1c4.8-.5,7.2,2,7.2,2s1.3,1.7,5.5.8A5,5,0,0,0,1283.93,224.44Z"/><path class="cls-7" d="M1278.83,197.14c1.4,0,2.6.7,2.6,1.4s-1.2,1.4-2.6,1.4-2.5-.7-2.5-1.4S1277.43,197.14,1278.83,197.14Z"/><path class="cls-33" d="M1273.13,230.44a1.92,1.92,0,0,1,2.2,1.4,23,23,0,0,1-3.9.5A2.22,2.22,0,0,1,1273.13,230.44Z"/><path class="cls-7" d="M1249.73,186.44c-.3-3.9-.5-7.1-.5-8.6-.1-3.5,1.6-5.1,3-5.8h0a7.45,7.45,0,0,1,2.1-.6h7.1s-.7,4.2,2.7,6.6,4.9,4.3,4.9,9.4v9.2c0,.1,0,.7.1,1.7l-6,.1a2.66,2.66,0,0,0-2.5-1.2c-1.4,0-2.6.7-2.6,1.4l-7.5.6C1250.33,194.84,1250,190.24,1249.73,186.44Z"/><path class="cls-33" d="M1266.23,230.44a2,2,0,0,1,1.6,2c-1.3-.1-2.6-.3-3.8-.5A2,2,0,0,1,1266.23,230.44Z"/><path class="cls-9" d="M1263.23,198.34v.3c0,.8-1.2,1.4-2.5,1.4s-2.6-.7-2.6-1.4,1.2-1.4,2.6-1.4A2.62,2.62,0,0,1,1263.23,198.34Z"/><path class="cls-9" d="M1241.13,174.94l11.1-2.9c-1.4.7-3.1,2.3-3,5.8,0,1.5.3,4.7.5,8.6-1.1,1.8-6.7,3.3-6.7,3.3s-8.2,2.1-11.7,3.1C1227.73,179.14,1241.13,174.94,1241.13,174.94Z"/></g><polygon class="cls-34" points="1030.42 302.24 1270.42 302.24 1270.42 440.24 1062.42 441.24 1030.42 302.24"/><polygon class="cls-35" points="1067.03 302.24 1100.22 441.24 1062.42 441.24 1030.42 302.24 1067.03 302.24"/><polygon class="cls-34" points="1510.42 302.24 1270.42 302.24 1270.42 440.24 1478.42 441.24 1510.42 302.24"/><polygon class="cls-35" points="1473.83 302.24 1440.63 441.24 1478.42 441.24 1510.42 302.24 1473.83 302.24"/><g id="_Group_4" data-name="&lt;Group&gt;"><path class="cls-25" d="M1731.83,229.64v193.2c-3.6,2.6-6.3,2.6-8.1,1.9.2-16.9,3.4-264.6,2.9-277.6Z"/><path class="cls-36" d="M1726.63,147c.5,13-2.7,260.7-2.9,277.6a5.67,5.67,0,0,1-2.7-1.9V229.64l4.7-83.1h.9Z"/></g></g><g id="กังหัน"><g id="_Group_5" data-name="&lt;Group&gt;"><polygon class="cls-6" points="1809.42 70.04 1818.53 80.34 1811.42 86.74 1802.42 76.24 1809.42 70.04"/><polygon class="cls-21" points="1802.42 76.24 1811.42 86.74 1809.22 88.64 1800.22 78.14 1802.42 76.24"/><polygon class="cls-37" points="1809.42 70.04 1802.42 76.24 1800.83 74.44 1800.72 74.34 1807.72 68.14 1807.72 68.14 1809.42 70.04"/><polygon class="cls-27" points="1807.72 68.14 1800.72 74.34 1798.63 76.24 1791.72 82.44 1789.53 84.34 1783.33 89.84 1781.13 91.74 1775.42 96.84 1773.33 98.74 1767.13 104.24 1765.03 106.14 1758.92 111.54 1756.83 113.44 1734.13 133.74 1731.92 131.34 1805.63 65.74 1807.72 68.14"/><polygon class="cls-6" points="1800.22 78.14 1809.22 88.64 1802.33 94.84 1793.33 84.34 1800.22 78.14"/><polygon class="cls-37" points="1802.42 76.24 1800.22 78.14 1798.63 76.24 1798.63 76.24 1800.72 74.34 1800.83 74.44 1802.42 76.24"/><polygon class="cls-21" points="1793.33 84.34 1802.33 94.84 1800.22 96.74 1791.22 86.24 1793.33 84.34"/><polygon class="cls-37" points="1798.63 76.24 1800.22 78.14 1793.33 84.34 1791.92 82.64 1791.72 82.44 1798.63 76.24"/><polygon class="cls-6" points="1800.22 96.74 1793.92 102.34 1784.92 91.74 1791.22 86.24 1800.22 96.74"/><polygon class="cls-37" points="1791.92 82.64 1793.33 84.34 1791.22 86.24 1789.72 84.54 1789.53 84.34 1791.72 82.44 1791.92 82.64"/><polygon class="cls-21" points="1784.92 91.74 1793.92 102.34 1791.83 104.24 1782.83 93.64 1784.92 91.74"/><polygon class="cls-37" points="1791.22 86.24 1784.92 91.74 1783.42 89.94 1783.33 89.84 1789.53 84.34 1789.72 84.54 1791.22 86.24"/><polygon class="cls-6" points="1791.83 104.24 1786.13 109.24 1777.13 98.74 1782.83 93.64 1791.83 104.24"/><polygon class="cls-37" points="1783.42 89.94 1784.92 91.74 1782.83 93.64 1781.22 91.84 1781.13 91.74 1783.33 89.84 1783.42 89.94"/><polygon class="cls-21" points="1786.13 109.24 1783.92 111.24 1774.92 100.64 1777.13 98.74 1786.13 109.24"/><polygon class="cls-37" points="1781.22 91.84 1782.83 93.64 1777.13 98.74 1775.83 97.24 1775.42 96.84 1781.13 91.74 1781.22 91.84"/><polygon class="cls-6" points="1783.92 111.24 1777.72 116.64 1768.72 106.14 1774.92 100.64 1783.92 111.24"/><polygon class="cls-37" points="1777.13 98.74 1774.92 100.64 1773.63 99.14 1773.33 98.74 1775.42 96.84 1775.83 97.24 1777.13 98.74"/><polygon class="cls-21" points="1777.72 116.64 1775.63 118.64 1766.63 108.04 1768.72 106.14 1777.72 116.64"/><polygon class="cls-37" points="1774.92 100.64 1768.72 106.14 1767.33 104.44 1767.13 104.24 1773.33 98.74 1773.63 99.14 1774.92 100.64"/><polygon class="cls-6" points="1766.63 108.04 1775.63 118.64 1769.53 124.04 1760.53 113.44 1766.63 108.04"/><polygon class="cls-37" points="1767.33 104.44 1768.72 106.14 1766.63 108.04 1765.13 106.34 1765.03 106.14 1767.13 104.24 1767.33 104.44"/><polygon class="cls-21" points="1760.53 113.44 1769.53 124.04 1767.42 125.94 1758.42 115.34 1760.53 113.44"/><polygon class="cls-37" points="1766.63 108.04 1760.53 113.44 1759.03 111.64 1758.92 111.54 1765.03 106.14 1765.13 106.34 1766.63 108.04"/><polygon class="cls-37" points="1760.53 113.44 1758.42 115.34 1756.83 113.44 1758.92 111.54 1759.03 111.64 1760.53 113.44"/></g><g id="_Group_6" data-name="&lt;Group&gt;"><polygon class="cls-6" points="1805.13 209.14 1795.92 219.44 1788.72 213.14 1798.13 202.94 1805.13 209.14"/><polygon class="cls-21" points="1798.13 202.94 1788.72 213.14 1786.63 211.24 1795.92 201.04 1798.13 202.94"/><polygon class="cls-37" points="1805.13 209.14 1798.13 202.94 1799.72 201.14 1799.83 201.04 1806.83 207.24 1805.13 209.14"/><polygon class="cls-27" points="1808.92 204.84 1806.83 207.24 1799.83 201.04 1797.63 199.14 1790.63 193.04 1788.53 191.14 1782.22 185.64 1780.13 183.74 1774.42 178.74 1772.22 176.84 1766.03 171.34 1763.92 169.44 1757.83 164.04 1755.63 162.14 1732.83 142.04 1734.92 139.64 1808.92 204.84"/><polygon class="cls-6" points="1795.92 201.04 1786.63 211.24 1779.63 205.04 1789.03 194.84 1795.92 201.04"/><polygon class="cls-37" points="1799.72 201.14 1798.13 202.94 1795.92 201.04 1797.63 199.24 1797.63 199.14 1799.83 201.04 1799.72 201.14"/><polygon class="cls-21" points="1779.63 205.04 1777.42 203.14 1786.83 192.94 1789.03 194.84 1779.63 205.04"/><polygon class="cls-37" points="1797.63 199.24 1795.92 201.04 1789.03 194.84 1790.42 193.34 1790.63 193.04 1797.63 199.14 1797.63 199.24"/><polygon class="cls-6" points="1786.83 192.94 1777.42 203.14 1771.22 197.64 1780.63 187.44 1786.83 192.94"/><polygon class="cls-37" points="1789.03 194.84 1786.83 192.94 1788.33 191.34 1788.53 191.14 1790.63 193.04 1790.42 193.34 1789.03 194.84"/><polygon class="cls-21" points="1780.63 187.44 1771.22 197.64 1769.03 195.84 1778.42 185.54 1780.63 187.44"/><polygon class="cls-37" points="1786.83 192.94 1780.63 187.44 1782.22 185.74 1782.22 185.64 1788.53 191.14 1788.33 191.34 1786.83 192.94"/><polygon class="cls-6" points="1769.03 195.84 1763.33 190.74 1772.72 180.54 1778.42 185.54 1769.03 195.84"/><polygon class="cls-37" points="1782.22 185.74 1780.63 187.44 1778.42 185.54 1780.03 183.84 1780.13 183.74 1782.22 185.64 1782.22 185.74"/><polygon class="cls-21" points="1763.33 190.74 1761.22 188.84 1770.63 178.64 1772.72 180.54 1763.33 190.74"/><polygon class="cls-37" points="1780.03 183.84 1778.42 185.54 1772.72 180.54 1774.03 179.04 1774.42 178.74 1780.13 183.74 1780.03 183.84"/><polygon class="cls-6" points="1770.63 178.64 1761.22 188.84 1754.92 183.34 1764.33 173.14 1770.63 178.64"/><polygon class="cls-37" points="1774.03 179.04 1772.72 180.54 1770.63 178.64 1771.92 177.14 1772.22 176.84 1774.42 178.74 1774.03 179.04"/><polygon class="cls-21" points="1764.33 173.14 1754.92 183.34 1752.83 181.44 1762.22 171.24 1764.33 173.14"/><polygon class="cls-37" points="1770.63 178.64 1764.33 173.14 1765.83 171.54 1766.03 171.34 1772.22 176.84 1771.92 177.14 1770.63 178.64"/><polygon class="cls-6" points="1762.22 171.24 1752.83 181.44 1746.72 176.14 1756.13 165.84 1762.22 171.24"/><polygon class="cls-37" points="1765.83 171.54 1764.33 173.14 1762.22 171.24 1763.72 169.64 1763.92 169.44 1766.03 171.34 1765.83 171.54"/><polygon class="cls-21" points="1746.72 176.14 1744.63 174.24 1754.03 163.94 1756.13 165.84 1746.72 176.14"/><polygon class="cls-37" points="1763.72 169.64 1762.22 171.24 1756.13 165.84 1757.72 164.14 1757.83 164.04 1763.92 169.44 1763.72 169.64"/><polygon class="cls-37" points="1756.13 165.84 1754.03 163.94 1755.63 162.14 1757.83 164.04 1757.72 164.14 1756.13 165.84"/></g><g id="_Group_7" data-name="&lt;Group&gt;"><polygon class="cls-6" points="1650.42 212.44 1640.42 203.04 1646.92 196.04 1656.83 205.64 1650.42 212.44"/><polygon class="cls-21" points="1646.92 196.04 1648.83 193.94 1658.83 203.54 1656.83 205.64 1646.92 196.04"/><polygon class="cls-37" points="1652.33 214.24 1650.42 212.44 1656.83 205.64 1658.53 207.34 1658.63 207.44 1652.33 214.24"/><polygon class="cls-27" points="1654.63 216.44 1652.33 214.24 1658.63 207.44 1660.63 205.34 1666.92 198.54 1668.92 196.44 1674.63 190.34 1676.53 188.24 1681.72 182.64 1683.72 180.54 1689.33 174.44 1691.33 172.44 1696.83 166.44 1698.83 164.34 1719.53 142.14 1721.92 144.34 1654.63 216.44"/><polygon class="cls-6" points="1648.83 193.94 1655.22 187.14 1665.13 196.74 1658.83 203.54 1648.83 193.94"/><polygon class="cls-37" points="1656.83 205.64 1658.83 203.54 1660.53 205.34 1660.63 205.34 1658.63 207.44 1658.53 207.34 1656.83 205.64"/><polygon class="cls-21" points="1655.22 187.14 1657.22 185.04 1667.13 194.64 1665.13 196.74 1655.22 187.14"/><polygon class="cls-37" points="1660.53 205.34 1658.83 203.54 1665.13 196.74 1666.63 198.24 1666.92 198.54 1660.63 205.34 1660.53 205.34"/><polygon class="cls-6" points="1667.13 194.64 1657.22 185.04 1662.83 178.94 1672.83 188.64 1667.13 194.64"/><polygon class="cls-37" points="1666.63 198.24 1665.13 196.74 1667.13 194.64 1668.63 196.24 1668.92 196.44 1666.92 198.54 1666.63 198.24"/><polygon class="cls-21" points="1662.83 178.94 1664.83 176.84 1674.72 186.54 1672.83 188.64 1662.83 178.94"/><polygon class="cls-37" points="1667.13 194.64 1672.83 188.64 1674.42 190.24 1674.63 190.34 1668.92 196.44 1668.63 196.24 1667.13 194.64"/><polygon class="cls-6" points="1664.83 176.84 1670.03 171.24 1679.92 180.94 1674.72 186.54 1664.83 176.84"/><polygon class="cls-37" points="1672.83 188.64 1674.72 186.54 1676.53 188.14 1676.53 188.24 1674.63 190.34 1674.42 190.24 1672.83 188.64"/><polygon class="cls-21" points="1679.92 180.94 1670.03 171.24 1671.92 169.14 1681.92 178.84 1679.92 180.94"/><polygon class="cls-37" points="1676.53 188.14 1674.72 186.54 1679.92 180.94 1681.42 182.34 1681.72 182.64 1676.53 188.24 1676.53 188.14"/><polygon class="cls-6" points="1671.92 169.14 1677.63 163.14 1687.63 172.74 1681.92 178.84 1671.92 169.14"/><polygon class="cls-37" points="1679.92 180.94 1681.92 178.84 1683.33 180.24 1683.72 180.54 1681.72 182.64 1681.42 182.34 1679.92 180.94"/><polygon class="cls-21" points="1687.63 172.74 1677.63 163.14 1679.53 161.04 1689.53 170.64 1687.63 172.74"/><polygon class="cls-37" points="1681.92 178.84 1687.63 172.74 1689.13 174.34 1689.33 174.44 1683.72 180.54 1683.33 180.24 1681.92 178.84"/><polygon class="cls-6" points="1689.53 170.64 1679.53 161.04 1685.13 155.04 1695.13 164.74 1689.53 170.64"/><polygon class="cls-37" points="1689.13 174.34 1687.63 172.74 1689.53 170.64 1691.13 172.24 1691.33 172.44 1689.33 174.44 1689.13 174.34"/><polygon class="cls-21" points="1695.13 164.74 1685.13 155.04 1687.03 152.94 1697.03 162.64 1695.13 164.74"/><polygon class="cls-37" points="1691.13 172.24 1689.53 170.64 1695.13 164.74 1696.83 166.44 1696.83 166.44 1691.33 172.44 1691.13 172.24"/><polygon class="cls-37" points="1695.13 164.74 1697.03 162.64 1698.83 164.34 1696.83 166.44 1696.83 166.44 1695.13 164.74"/></g><g id="_Group_8" data-name="&lt;Group&gt;"><polygon class="cls-6" points="1655.53 60.14 1665.13 50.24 1672.03 56.94 1662.22 66.64 1655.53 60.14"/><polygon class="cls-21" points="1662.22 66.64 1672.03 56.94 1674.13 58.94 1664.33 68.64 1662.22 66.64"/><polygon class="cls-37" points="1655.53 60.14 1662.22 66.64 1660.53 68.34 1660.42 68.44 1653.72 61.94 1655.53 60.14"/><polygon class="cls-27" points="1651.53 64.24 1653.72 61.94 1660.42 68.44 1662.53 70.44 1669.22 76.84 1671.22 78.84 1677.22 84.64 1679.33 86.64 1684.83 91.94 1686.83 93.94 1692.83 99.74 1694.83 101.74 1700.72 107.34 1702.72 109.34 1702.72 109.34 1724.63 130.54 1722.42 132.84 1651.53 64.24"/><polygon class="cls-6" points="1664.33 68.64 1674.13 58.94 1680.83 65.34 1670.92 75.14 1664.33 68.64"/><polygon class="cls-37" points="1662.22 66.64 1664.33 68.64 1662.53 70.34 1662.53 70.44 1660.42 68.44 1660.53 68.34 1662.22 66.64"/><polygon class="cls-21" points="1680.83 65.34 1682.83 67.34 1673.03 77.14 1670.92 75.14 1680.83 65.34"/><polygon class="cls-37" points="1662.53 70.34 1664.33 68.64 1670.92 75.14 1669.42 76.64 1669.22 76.84 1662.53 70.44 1662.53 70.34"/><polygon class="cls-6" points="1673.03 77.14 1682.83 67.34 1688.83 73.14 1679.03 82.94 1673.03 77.14"/><polygon class="cls-37" points="1670.92 75.14 1673.03 77.14 1671.42 78.64 1671.22 78.84 1669.22 76.84 1669.42 76.64 1670.92 75.14"/><polygon class="cls-21" points="1679.03 82.94 1688.83 73.14 1690.92 75.14 1681.03 84.94 1679.03 82.94"/><polygon class="cls-37" points="1671.42 78.64 1673.03 77.14 1679.03 82.94 1677.33 84.54 1677.22 84.64 1671.22 78.84 1671.42 78.64"/><polygon class="cls-6" points="1690.92 75.14 1696.42 80.44 1686.53 90.24 1681.03 84.94 1690.92 75.14"/><polygon class="cls-37" points="1677.33 84.54 1679.03 82.94 1681.03 84.94 1679.33 86.64 1679.33 86.64 1677.22 84.64 1677.33 84.54"/><polygon class="cls-21" points="1696.42 80.44 1698.42 82.44 1688.63 92.24 1686.53 90.24 1696.42 80.44"/><polygon class="cls-37" points="1679.33 86.64 1681.03 84.94 1686.53 90.24 1685.13 91.64 1684.83 91.94 1679.33 86.64"/><polygon class="cls-6" points="1698.42 82.44 1704.42 88.24 1694.53 98.04 1688.63 92.24 1698.42 82.44"/><polygon class="cls-37" points="1686.53 90.24 1688.63 92.24 1687.13 93.64 1686.83 93.94 1684.83 91.94 1685.13 91.64 1686.53 90.24"/><polygon class="cls-21" points="1694.53 98.04 1704.42 88.24 1706.42 90.24 1696.53 100.04 1694.53 98.04"/><polygon class="cls-37" points="1688.63 92.24 1694.53 98.04 1693.03 99.54 1692.83 99.74 1686.83 93.94 1687.13 93.64 1688.63 92.24"/><polygon class="cls-6" points="1696.53 100.04 1706.42 90.24 1712.33 95.84 1702.42 105.64 1696.53 100.04"/><polygon class="cls-37" points="1693.03 99.54 1694.53 98.04 1696.53 100.04 1695.03 101.54 1694.83 101.74 1692.83 99.74 1693.03 99.54"/><polygon class="cls-21" points="1712.33 95.84 1714.33 97.84 1704.42 107.64 1702.42 105.64 1712.33 95.84"/><polygon class="cls-37" points="1696.53 100.04 1702.42 105.64 1700.72 107.34 1700.72 107.34 1694.83 101.74 1695.03 101.54 1696.53 100.04"/><polygon class="cls-37" points="1700.72 107.34 1702.42 105.64 1704.42 107.64 1702.72 109.34 1702.72 109.34 1700.72 107.34"/></g><circle class="cls-27" cx="1726.73" cy="137.94" r="8.6"/><circle class="cls-25" cx="1726.63" cy="137.94" r="5.1"/></g></g></g></svg>