<svg xmlns="http://www.w3.org/2000/svg" viewBox="0 0 354 216.2"><defs><style>.cls-1{fill:#c5e9ef;}</style></defs><title>Asset 13</title><g id="Layer_2" data-name="Layer 2"><g id="Layer_1-2" data-name="Layer 1"><path class="cls-1" d="M354,128.4a53.5,53.5,0,0,0-53.5-53.5,54.2,54.2,0,0,0-15.7,2.3A83.11,83.11,0,0,0,123.3,56.1,79,79,0,0,0,76.8,75.8a58.21,58.21,0,0,0-19.2-3.3,57.6,57.6,0,1,0,11,114.1,79.54,79.54,0,0,0,105.1,15,43.32,43.32,0,0,0,65.8-1.1,44,44,0,0,0,77.1-21.2A53.24,53.24,0,0,0,354,128.4Z"/></g></g></svg>