<svg xmlns="http://www.w3.org/2000/svg" viewBox="0 0 134.3 87"><defs><style>.cls-1{fill:#c5e9ef;}</style></defs><title>Asset 14</title><g id="Layer_2" data-name="Layer 2"><g id="Layer_1-2" data-name="Layer 1"><g id="เมฆหนึ่ง"><path class="cls-1" d="M114.2,37.9a18.78,18.78,0,0,0,4.6-12.2,18.59,18.59,0,0,0-34.7-9.3,23.36,23.36,0,0,0-45.3,2.9A38.66,38.66,0,0,0,34,19,34,34,0,1,0,63,70.8a24.64,24.64,0,0,0,14.2,4.4,25.37,25.37,0,0,0,15.7-5.5,21.88,21.88,0,0,0,41.4-9.9A22.3,22.3,0,0,0,114.2,37.9Z"/></g></g></g></svg>