<svg xmlns="http://www.w3.org/2000/svg" viewBox="0 0 367.3 224.3"><defs><style>.cls-1{fill:#c5e9ef;}</style></defs><title>Asset 19</title><g id="Layer_2" data-name="Layer 2"><g id="Layer_1-2" data-name="Layer 1"><path class="cls-1" d="M0,133.2A55.5,55.5,0,0,1,55.5,77.7a58.4,58.4,0,0,1,16.3,2.4A86.25,86.25,0,0,1,239.4,58.2a82.18,82.18,0,0,1,48.2,20.4,59.8,59.8,0,1,1,19.9,116.2,61.2,61.2,0,0,1-11.4-1.1A82.67,82.67,0,0,1,187,209.2a45,45,0,0,1-68.3-1.2,45.64,45.64,0,0,1-80-22A55.32,55.32,0,0,1,0,133.2Z"/></g></g></svg>