<svg xmlns="http://www.w3.org/2000/svg" viewBox="0 0 375.5 229.4"><defs><style>.cls-1{fill:#c5e9ef;}</style></defs><title>Asset 21</title><g id="Layer_2" data-name="Layer 2"><g id="Layer_1-2" data-name="Layer 1"><path class="cls-1" d="M375.5,136.1a56.66,56.66,0,0,0-73.3-54.2A88.22,88.22,0,0,0,130.8,59.5,83.45,83.45,0,0,0,81.5,80.4a59.88,59.88,0,0,0-20.4-3.5,61.1,61.1,0,0,0,0,122.2A62.51,62.51,0,0,0,72.7,198a84.44,84.44,0,0,0,111.5,15.9,46,46,0,0,0,69.9-1.2,46.64,46.64,0,0,0,81.8-22.5A56.74,56.74,0,0,0,375.5,136.1Z"/></g></g></svg>