<svg xmlns="http://www.w3.org/2000/svg" viewBox="0 0 448 302.7"><defs><style>.cls-1{fill:#c5e9ef;}</style></defs><title>Asset 23</title><g id="Layer_2" data-name="Layer 2"><g id="Layer_1-2" data-name="Layer 1"><g id="เมฆสาม"><path class="cls-1" d="M430.2,40.6a17.61,17.61,0,0,0-3.3.3,22,22,0,0,0-9.6-7.7A37.62,37.62,0,0,0,344,26.5a25.19,25.19,0,1,0-8.8,48.8,25,25,0,0,0,19.7-9.5,37.45,37.45,0,0,0,25,9.5A38.1,38.1,0,0,0,395.4,72a22.34,22.34,0,0,0,24.7,1.1,17.81,17.81,0,1,0,10.1-32.5Z"/><path class="cls-1" d="M270.8,186.5a44.09,44.09,0,1,0-71.5-50.9A55.33,55.33,0,0,0,92,142.3a85,85,0,0,0-11.4-.8,80.6,80.6,0,1,0,68.7,122.8,58.9,58.9,0,0,0,33.6,10.4,59.53,59.53,0,0,0,37.1-13,51.84,51.84,0,1,0,50.8-75.2Z"/></g></g></g></svg>