<svg xmlns="http://www.w3.org/2000/svg" viewBox="0 0 2246.96 419.62"><defs><style>.cls-1{fill:#fae4aa;}</style></defs><title>Asset 5</title><g id="Layer_2" data-name="Layer 2"><g id="Layer_1-2" data-name="Layer 1"><path class="cls-1" d="M435.59,10.9c-13.2-.1-27.3,0-38.2,7.5S382,43.6,392,52.2Q224.29,54,56.69,55.7c-7.4.1-15.3.3-21.6,4.2-7.7,4.9-11.2,14.1-13.9,22.8A468.17,468.17,0,0,0,10.39,320c4.6,21.3,11.5,43.7,28.2,57.7,16.5,13.9,39.3,16.9,60.8,19.1,627.7,66,1261.3-34.6,1892.1-10.5,42.3,1.6,85.2,3.7,126.5-5.8s81.4-32.6,101.5-69.9c11.5-21.4,15.7-45.9,19.7-69.9,10.3-61.7,17.5-134.1-26.9-178.3-39.9-39.8-103.8-38.3-160-34.8a6465.7,6465.7,0,0,1-968.2-13.3C1006.09,7.4,928-1,849.69.1c-65.9.9-132.4,19.2-197.5,15.8C580.19,12,507.89,11.6,435.59,10.9Z"/></g></g></svg>