<svg xmlns="http://www.w3.org/2000/svg" xmlns:xlink="http://www.w3.org/1999/xlink" viewBox="0 0 420.3 379.61"><defs><style>.cls-1,.cls-7{fill:none;}.cls-2{fill:#434264;}.cls-3{clip-path:url(#clip-path);}.cls-4{fill:#fff;}.cls-5{clip-path:url(#clip-path-2);}.cls-6{fill:#eea3a2;}.cls-7{stroke:#fff;stroke-miterlimit:10;stroke-width:2.82px;}</style><clipPath id="clip-path"><path class="cls-1" d="M191.5,29.6,118.3,93.1a114.86,114.86,0,0,0-39.6,86.7h0A131.75,131.75,0,0,0,210.4,311.5h0A131.75,131.75,0,0,0,342.1,179.8h0a114.52,114.52,0,0,0-39.6-86.7L229.3,29.6A28.86,28.86,0,0,0,191.5,29.6Z"/></clipPath><clipPath id="clip-path-2"><path class="cls-1" d="M210.4,75.4C172.1,75.4,141,89.1,141,106a12.31,12.31,0,0,0,.2,2l10.2,121.5a24.43,24.43,0,0,0,20.1,21.8v9.4h77.8v-9.4a24.33,24.33,0,0,0,20.1-21.8L279.6,108a13.56,13.56,0,0,0,.2-2C279.8,89.1,248.8,75.4,210.4,75.4Z"/></clipPath></defs><title>Asset 1</title><g id="Layer_2" data-name="Layer 2"><g id="Layer_1-2" data-name="Layer 1"><g id="โลโก้แถบ"><path class="cls-2" d="M210.7,22.5a28.88,28.88,0,0,1,18.9,7.1l73.2,63.5a114.86,114.86,0,0,1,39.6,86.7h0A131.75,131.75,0,0,1,210.7,311.5h0A131.75,131.75,0,0,1,79,179.8h0a114.52,114.52,0,0,1,39.6-86.7l73.2-63.5a28.88,28.88,0,0,1,18.9-7.1m0-11.9a40.86,40.86,0,0,0-26.8,10L110.7,84.1A126.65,126.65,0,0,0,67,179.9,143.68,143.68,0,0,0,312.3,281.5a142.82,142.82,0,0,0,42.1-101.6,126.65,126.65,0,0,0-43.7-95.8L237.5,20.6a40.47,40.47,0,0,0-26.8-10Z"/><g class="cls-3"><path class="cls-2" d="M415.7,378.7c-12.3,5.4-16.6-14.9-30.1-14.9s-13.5,15.5-27,15.5-13.5-15.5-27-15.5-13.5,15.5-27,15.5-13.5-15.5-27-15.5-13.5,15.5-27,15.5-13.5-15.5-26.9-15.5-13.5,15.5-27,15.5-13.5-15.5-27-15.5-13.5,15.5-27,15.5-13.5-15.5-27-15.5-13.5,15.5-27,15.5-13.5-15.5-27-15.5-13.5,15.5-27,15.5-11.5-9.5-23.8-14.9C5.5,362,0,365.6,0,359.7s15.5-5.9,15.5-11.8S0,342,0,336.1s15.5-5.9,15.5-11.8S0,318.4,0,312.5s15.5-5.9,15.5-11.8S0,294.8,0,288.9s15.5-5.9,15.5-11.8S0,271.2,0,265.3s15.5-5.9,15.5-11.8S0,247.6,0,241.7s15.5-5.9,15.5-11.8S0,224,0,218.1s15.5-5.9,15.5-11.8-16.3-16.6-10.9-19c12.3-5.4,16.6,14.9,30.1,14.9s13.5-15.5,27-15.5,13.5,15.5,27,15.5,13.5-15.5,27-15.5,13.5,15.5,27,15.5,13.5-15.5,27-15.5,13.5,15.5,26.9,15.5,13.5-15.5,27-15.5,13.5,15.5,27,15.5,13.5-15.5,27-15.5,13.5,15.5,27,15.5,13.5-15.5,27-15.5,13.5,15.5,27,15.5,13.5-15.5,27-15.5,11.5,9.5,23.8,14.9c5.4,2.4,10.9-1.2,10.9,4.7s-15.5,5.9-15.5,11.8,15.5,5.9,15.5,11.8-15.5,5.9-15.5,11.8,15.5,5.9,15.5,11.8-15.5,5.9-15.5,11.8,15.5,5.9,15.5,11.8-15.5,5.9-15.5,11.8,15.5,5.9,15.5,11.8-15.5,5.9-15.5,11.8,15.5,5.9,15.5,11.8-15.5,5.9-15.5,11.8,15.5,5.9,15.5,11.8-16.9,8.4-15.2,14.1C408.1,371.8,421.1,376.3,415.7,378.7Z"/></g><path class="cls-2" d="M141,105.7c0-4.7,2.4-9.1,6.7-13.1l-29.1,16.8a54,54,0,0,0-19.8,73.9h0L129,165.9a54.35,54.35,0,0,0,16.3-14.5l-4-43.7A7.47,7.47,0,0,1,141,105.7Z"/><path class="cls-2" d="M302.3,109.4,273.2,92.6c4.3,4,6.7,8.4,6.7,13.1a12.31,12.31,0,0,1-.2,2l-4,43.7A54.35,54.35,0,0,0,292,165.9l30.2,17.4h0A54.17,54.17,0,0,0,302.3,109.4Z"/><path id="SVGID" class="cls-4" d="M210.4,75.4C172.1,75.4,141,89.1,141,106a12.31,12.31,0,0,0,.2,2l10.2,121.5a24.43,24.43,0,0,0,20.1,21.8v9.4h77.8v-9.4a24.33,24.33,0,0,0,20.1-21.8L279.6,108a13.56,13.56,0,0,0,.2-2C279.8,89.1,248.8,75.4,210.4,75.4Z"/><g class="cls-5"><path class="cls-2" d="M161.4,0h0A57.53,57.53,0,0,0,104,57.4v87.4a57.53,57.53,0,0,0,57.4,57.4h0a57.53,57.53,0,0,0,57.4-57.4V57.4A57.53,57.53,0,0,0,161.4,0Zm21.1,160.3c-3.9,0-7-1.9-7-4.3s3.1-4.3,7-4.3,7,1.9,7,4.3S186.4,160.3,182.5,160.3Z"/></g><g class="cls-5"><ellipse class="cls-2" cx="238.4" cy="156" rx="7" ry="4.3"/></g><path class="cls-6" d="M237.1,232H183.8a16.94,16.94,0,0,0-16.9,16.9l.1,4.8c1.2,9.2,20.2,17.8,43.4,17.8s42.2-8.7,43.4-17.8h.1v-4.8A16.73,16.73,0,0,0,237.1,232Zm-42.3,24.6a6.9,6.9,0,1,1,6.9-6.9A6.91,6.91,0,0,1,194.8,256.6Zm32.3,0a6.9,6.9,0,1,1,6.9-6.9A6.91,6.91,0,0,1,227.1,256.6Z"/><path class="cls-7" d="M237.1,232H183.8a16.94,16.94,0,0,0-16.9,16.9l.1,4.8c1.2,9.2,20.2,17.8,43.4,17.8s42.2-8.7,43.4-17.8l.1-4.8A16.73,16.73,0,0,0,237.1,232Z"/><path class="cls-4" d="M96,213.9a2.85,2.85,0,0,1,1.8-1.3l8.6-2.4a4.27,4.27,0,0,0,2-1.2,3.3,3.3,0,0,0,.7-2.1l2.6-.7,2.3,8.4-2.8.8-.9-3.4a3.48,3.48,0,0,1-2.6,2.2l-7.7,2.2a1,1,0,0,0-.7,1.2l.3.9-2.8.8-.9-3.1A3,3,0,0,1,96,213.9Z"/><path class="cls-4" d="M105.4,218.8a5.28,5.28,0,0,1,4.6,0,7.3,7.3,0,0,1,3.3,4.2,7.94,7.94,0,0,1,.6,5.3,5.5,5.5,0,0,1-3.3,3.2l-7.8,3.2-1.6-3.9,8-3.3a2.17,2.17,0,0,0,1.4-1.4,3.08,3.08,0,0,0-.1-2.1,2.53,2.53,0,0,0-1.4-1.6,2.36,2.36,0,0,0-2,.1l-1.8.8a2.7,2.7,0,0,1,.8.7,2.08,2.08,0,0,1,.6,1l.6,1.4-3,1.3-.7-1.4a3.41,3.41,0,0,0-1.4-1.7L99,225.9,97.4,222Z"/><path class="cls-4" d="M105.6,240.2a8.15,8.15,0,0,1-.6-2.2l2.8-1.6a9.83,9.83,0,0,0,.5,2.2,19.48,19.48,0,0,0,.9,2,4.28,4.28,0,0,0,1.3,1.7.77.77,0,0,0,1,.1,1.05,1.05,0,0,0,.5-.9,12.64,12.64,0,0,0-.3-2.1l-.2-1a7.49,7.49,0,0,1-.1-3.3,3.28,3.28,0,0,1,1.7-2,3.73,3.73,0,0,1,3.4-.2,6.83,6.83,0,0,1,3.2,3.3,15.06,15.06,0,0,1,1.1,2.2c.3.8.5,1.5.7,2.1l-2.8,1.6a7.67,7.67,0,0,0-.5-1.9,7.5,7.5,0,0,0-.8-1.8,4.9,4.9,0,0,0-1.2-1.5.94.94,0,0,0-1.1-.2.81.81,0,0,0-.4.8,9.22,9.22,0,0,0,.3,1.8,4.33,4.33,0,0,1,.1.5,3.09,3.09,0,0,0,.2.8,8.37,8.37,0,0,1,.2,2.6,3.1,3.1,0,0,1-.5,1.7,5,5,0,0,1-1.5,1.3,3.46,3.46,0,0,1-3.4.2,9.22,9.22,0,0,1-3.2-3.3C106.4,242,106,241.1,105.6,240.2Z"/><path class="cls-4" d="M114.7,254.5a5.34,5.34,0,0,1-.6-1.4l5.1-8.8,2.5,3.2-3.7,6.4a3,3,0,0,0,2.4,1.1,7,7,0,0,0,3.2-1.5,5.3,5.3,0,0,0,1.5-1.5,1.67,1.67,0,0,0,.3-1.3,4.42,4.42,0,0,0-.8-1.5l-.6-.8,2.5-1.9,1.1,1.4c2.5,3.3,2.1,6.3-1.4,9-2.1,1.6-4,2.3-5.7,2a6.69,6.69,0,0,1-4.6-2.9A5.27,5.27,0,0,1,114.7,254.5Z"/><path class="cls-4" d="M125.5,260.7c1.2-1.2,2.4-1.6,3.7-1l-1.3-2.2,2.5-2.5a9.34,9.34,0,0,1,3.4,1,10.37,10.37,0,0,1,3.3,2.3,8.19,8.19,0,0,1,2.8,4.7c.2,1.5-.4,2.9-1.8,4.4l-5.9,6-3-2.9,5.9-6a2.93,2.93,0,0,0,1-2,3.83,3.83,0,0,0-1.2-2.1,7.17,7.17,0,0,0-1.5-1.1,5.27,5.27,0,0,0-1.5-.5l-.2.2,1.4,2.5-1.5,1.6a2.24,2.24,0,0,0-1.5-.3,3.26,3.26,0,0,0-1.4.9l-3.1,3.1-3-2.9Z"/><path class="cls-4" d="M144.2,272a3,3,0,0,0,.8-2c0-.6-.4-1.1-1.2-1.7a7.91,7.91,0,0,0-3.2-1.5l1.8-2.4a6.86,6.86,0,0,1,2,.7,8.17,8.17,0,0,1,2,1.2,6,6,0,0,1,2.7,3.7,5.4,5.4,0,0,1-1.3,4.1l-5.3,7.1-3.3-2.5Z"/><path class="cls-4" d="M147.4,284.6a8,8,0,0,1-1.6-1.6l1.7-2.8a7.52,7.52,0,0,0,1.5,1.6,10.15,10.15,0,0,0,1.8,1.3,9.53,9.53,0,0,0,1.9.9.81.81,0,0,0,.9-.4.91.91,0,0,0,0-1,15.37,15.37,0,0,0-1.3-1.7l-.7-.8a8,8,0,0,1-1.7-2.8,3.52,3.52,0,0,1,.4-2.6,3.66,3.66,0,0,1,2.9-1.9,7.82,7.82,0,0,1,4.5,1.3,14.29,14.29,0,0,1,2,1.4,7.81,7.81,0,0,1,1.6,1.5l-1.6,2.8a6.16,6.16,0,0,0-1.4-1.4,13.28,13.28,0,0,0-1.6-1.2,6.65,6.65,0,0,0-1.8-.8c-.5-.1-.8,0-1,.4a.75.75,0,0,0,0,.9,7.87,7.87,0,0,0,1.1,1.4c.1.1.2.3.4.4a2.65,2.65,0,0,0,.5.6,10.76,10.76,0,0,1,1.5,2.2,3.81,3.81,0,0,1,.4,1.7,4.13,4.13,0,0,1-.7,1.8,3.34,3.34,0,0,1-2.9,1.8,7.74,7.74,0,0,1-4.4-1.4C149,285.7,148.2,285.2,147.4,284.6Z"/><path class="cls-4" d="M163.9,277.8l3.9,1.6-1.5,3.7,2.7,1.1a1.84,1.84,0,0,0,1.6.1,2.35,2.35,0,0,0,1-1.3l.7-1.8,3.9,1.6-.8,1.9c-.7,1.7-1.7,2.5-3.1,2.5a2.72,2.72,0,0,1,.8,1.6,4,4,0,0,1-.4,2l-2,4.9-3.9-1.6,1.8-4.4a2.16,2.16,0,0,0,.2-1.7,2.35,2.35,0,0,0-1.3-1l-2.6-1.1-2.6,6.3-3.9-1.6Z"/><path class="cls-4" d="M175.9,296.7a4.27,4.27,0,0,1-.5-3.6,4.43,4.43,0,0,1,2.2-2.9,5.93,5.93,0,0,1,4.2-.1l3.6.9.1-.5a1.48,1.48,0,0,0-.3-1.6,5,5,0,0,0-2.2-1,15.11,15.11,0,0,0-4.8-.4l.7-2.9a12.15,12.15,0,0,1,2.7,0,25,25,0,0,1,2.9.5c4.2,1.1,5.9,3.4,4.9,7l-2.1,8.4-4.1-1,1.4-5.5-3-.8a3,3,0,0,0-1.6-.1,1.21,1.21,0,0,0-.8,1,1.23,1.23,0,0,0,.2,1.2,2.58,2.58,0,0,0,1.4.7,5,5,0,0,0,1.6.2l-.7,2.7a7.41,7.41,0,0,1-2.8-.3A5.78,5.78,0,0,1,175.9,296.7Z"/><path class="cls-4" d="M191,300.4l.3-3.1a7.5,7.5,0,0,0,1.8.8,6.46,6.46,0,0,0,1.9.4,3.51,3.51,0,0,0,4.6-3.6,4,4,0,0,0-.6-3.2,4.22,4.22,0,0,0-3-1.3,9.68,9.68,0,0,0-3.8.4l.3-3a13.11,13.11,0,0,1,4.9-.3c4.8.5,6.9,3.2,6.4,8s-3.2,6.9-8,6.4A13.58,13.58,0,0,1,191,300.4Z"/><path class="cls-4" d="M210.7,302.6q-.9-.15-1.5-.3l-4-9.4,4.1-.1,2.9,6.8a2.88,2.88,0,0,0,2.3-1.3,6.39,6.39,0,0,0,.7-3.4,5.84,5.84,0,0,0-.3-2.1,1.79,1.79,0,0,0-.9-1,4,4,0,0,0-1.7-.3h-1l-.1-3.2H213c4.2-.1,6.3,2.1,6.4,6.5,0,2.6-.6,4.5-1.8,5.8a7,7,0,0,1-5.1,2A5.4,5.4,0,0,1,210.7,302.6Z"/><path class="cls-4" d="M223.4,301.1a3.78,3.78,0,0,1-1.8-3.1,4.18,4.18,0,0,1,.9-3.5,5.93,5.93,0,0,1,3.8-1.8l3.7-.6-.1-.5a1.66,1.66,0,0,0-1-1.4,5.79,5.79,0,0,0-2.4-.1,14.05,14.05,0,0,0-4.5,1.5l-.5-3a11.82,11.82,0,0,1,2.5-1c1-.3,1.9-.5,2.8-.7a10.48,10.48,0,0,1,2.5-.1l5.1-.8.3,3.1-1.5.2a4.37,4.37,0,0,1,.6,1,3.08,3.08,0,0,1,.3,1.3l1.3,8.3-4.1.7-.9-5.6-3,.5a2.62,2.62,0,0,0-1.5.6,1.37,1.37,0,0,0-.3,1.3,1.68,1.68,0,0,0,.6,1.1,2.62,2.62,0,0,0,1.6.1,4.58,4.58,0,0,0,1.5-.4l.4,2.8a8.65,8.65,0,0,1-2.7.8A6.84,6.84,0,0,1,223.4,301.1Z"/><path class="cls-4" d="M239.4,298.4l-.9-3a12.1,12.1,0,0,0,1.9.1,10.8,10.8,0,0,0,1.9-.3,3.46,3.46,0,0,0,2.8-5.1,3.83,3.83,0,0,0-1.9-2.7,4.61,4.61,0,0,0-3.3,0,8.79,8.79,0,0,0-3.4,1.9l-.9-2.9a11.67,11.67,0,0,1,4.3-2.2c4.6-1.4,7.6.2,9.1,4.8s-.2,7.6-4.8,9.1A16.28,16.28,0,0,1,239.4,298.4Z"/><path class="cls-4" d="M255.2,292.7a5.11,5.11,0,0,1-2.8-2.8l-3.9-8.3,3.8-1.8,3.7,8c.3.7.7,1.2,1.2,1.3a2.1,2.1,0,0,0,1.7-.2,4.12,4.12,0,0,0,1.3-1,4.58,4.58,0,0,0,.8-1.3l-4.2-9,3.8-1.8,5.9,12.7-3.5,1.6-.7-1a7.51,7.51,0,0,1-3.5,3.3A4.15,4.15,0,0,1,255.2,292.7Z"/><path class="cls-4" d="M274.2,284.1a4.15,4.15,0,0,1-1.2.4l-4-3-1.6,1.1-1.6-2.7,3.6-2.3,4.5,3.3q2.25-1.65,0-5.1a7.42,7.42,0,0,0-1.6-1.8,2.2,2.2,0,0,0-1.8-.3,7,7,0,0,0-2.4,1.1,17.91,17.91,0,0,0-1.8,1.4,8.52,8.52,0,0,0-1.6,1.7l-1.6-2.5a17.5,17.5,0,0,1,1.9-2,13,13,0,0,1,2.3-1.8c2.2-1.4,4.1-2,5.7-1.6a7.52,7.52,0,0,1,4.4,3.5,7.72,7.72,0,0,1,1.4,3.9,6,6,0,0,1-.7,3.5,6.14,6.14,0,0,1-2.3,2.5C275.2,283.7,274.7,283.9,274.2,284.1Z"/><path class="cls-4" d="M260.7,271.5l9.3-7,1.7,2.3-9.4,7.1Z"/><path class="cls-4" d="M284,275.4c-1.5-.1-3.1-1.1-4.7-2.8a10.08,10.08,0,0,1-2.8-5.1,4.47,4.47,0,0,1,1.4-3.9,6,6,0,0,1,1.5-.9,2.56,2.56,0,0,1,1.5,0,4.06,4.06,0,0,1,.5-1.7,4.43,4.43,0,0,1,1.2-1.5,3.74,3.74,0,0,1,2.8-1.1A4.34,4.34,0,0,1,288,260l6.8,7.7-3.1,2.8-6.3-7.1a3.14,3.14,0,0,0-1-.8,1,1,0,0,0-.9.2,1.61,1.61,0,0,0-.4.7,1.49,1.49,0,0,0,.2.9l-1.2,1a9.19,9.19,0,0,0-.9-.3,1.33,1.33,0,0,0-.7.3c-.5.4-.5,1-.2,1.7a11.28,11.28,0,0,0,1.9,2.7,4.64,4.64,0,0,0,2.4,1.7,2.57,2.57,0,0,0,2.1-.7,5.83,5.83,0,0,0,1.1-1.3l1.9,2.2a7,7,0,0,1-1.6,2A4.81,4.81,0,0,1,284,275.4Z"/><path class="cls-4" d="M299.1,263a6.44,6.44,0,0,1-1.9,1.3l-2.5-2.1a14.51,14.51,0,0,0,1.9-1.2,11.72,11.72,0,0,0,1.6-1.5,5.38,5.38,0,0,0,1.2-1.8.92.92,0,0,0-1.2-1.2,7,7,0,0,0-1.9,1l-.9.6a8.15,8.15,0,0,1-3.1,1.2,3.13,3.13,0,0,1-2.5-.9,3.85,3.85,0,0,1-1.4-3.2,8,8,0,0,1,2-4.2c.5-.6,1.1-1.2,1.7-1.8a8.56,8.56,0,0,1,1.7-1.3l2.5,2.1a7.64,7.64,0,0,0-1.6,1.1,10.72,10.72,0,0,0-2.5,3,.89.89,0,0,0,.2,1.1.72.72,0,0,0,.9.1,11.44,11.44,0,0,0,1.6-.8,2.18,2.18,0,0,1,.5-.3,5.74,5.74,0,0,0,.7-.4,12.21,12.21,0,0,1,2.4-1.1,3.34,3.34,0,0,1,1.7-.1,4.41,4.41,0,0,1,1.7,1,3.62,3.62,0,0,1,1.3,3.2,7.33,7.33,0,0,1-2.1,4.1A13.37,13.37,0,0,1,299.1,263Z"/><path class="cls-4" d="M306.8,252.1a4.12,4.12,0,0,1-3.6-.7,4,4,0,0,1-2-3,6.58,6.58,0,0,1,1.2-4l2-3.1-.4-.3a1.59,1.59,0,0,0-1.6-.2,4.48,4.48,0,0,0-1.7,1.7,13.35,13.35,0,0,0-1.9,4.4l-2.5-1.6a15.25,15.25,0,0,1,.9-2.5,21.49,21.49,0,0,1,1.4-2.6c2.4-3.6,5.1-4.5,8.2-2.4l7.3,4.7-2.3,3.5-4.8-3.1-1.7,2.6a2.92,2.92,0,0,0-.6,1.5,1.27,1.27,0,0,0,.7,1.1c.5.3.9.4,1.2.2a3.73,3.73,0,0,0,1.1-1.1,4.5,4.5,0,0,0,.7-1.4l2.4,1.5a9.32,9.32,0,0,1-1.2,2.5A4.78,4.78,0,0,1,306.8,252.1Z"/><path class="cls-4" d="M315.4,236.9a7.2,7.2,0,0,1-5.4-.7,7.77,7.77,0,0,1-4.4-4.1c-.7-1.7-.5-3.7.5-6a10.22,10.22,0,0,1,2.4-3.4,5.07,5.07,0,0,1,2.9-1.3,5.76,5.76,0,0,1,2.9.5l7.7,3.5-1.7,3.8-7.4-3.3a3.28,3.28,0,0,0-2.3-.3c-.7.2-1.2.8-1.7,1.9a2.79,2.79,0,0,0,0,2.8,5.41,5.41,0,0,0,2.8,2.1,5,5,0,0,0,2.9.6,2.6,2.6,0,0,0,1.6-1.5,4.66,4.66,0,0,0,.5-1.6l2.7,1.2a6.79,6.79,0,0,1-.7,2.5A5.39,5.39,0,0,1,315.4,236.9Z"/><path class="cls-4" d="M316.7,214.5a3.09,3.09,0,0,0-2.1-.1,2.59,2.59,0,0,0-1.2,1.7,10,10,0,0,0-.3,3.5l-2.8-.8a7.35,7.35,0,0,1,0-2.1,15.71,15.71,0,0,1,.4-2.3c.6-1.9,1.4-3.2,2.5-3.8a5.61,5.61,0,0,1,4.3-.2l8.5,2.5-1.2,4Z"/></g></g></g></svg>