<svg xmlns="http://www.w3.org/2000/svg" viewBox="0 0 95 71.4"><defs><style>.cls-1{fill:#c69b55;}.cls-2{fill:#ddb46c;}.cls-3{fill:#af8445;}</style></defs><title>Asset 15</title><g id="Layer_2" data-name="Layer 2"><g id="Layer_1-2" data-name="Layer 1"><g id="ติดต่อ"><g id="_Group_" data-name="&lt;Group&gt;"><path class="cls-1" d="M95,15.7V58.5a12.41,12.41,0,0,1-.3,2.7c-1.1,1.8-5.5,7.5-13.6-.5L60.6,40.2S75.6,25.5,83,17.8,95,15.7,95,15.7Z"/><path class="cls-2" d="M94.8,10.8c-.9-1.3-5.3-6.8-12.5.3L56.9,36.5l-8,8-1.4,1.4-1.4-1.4-8-8L12.7,11.1C5.6,4,1.1,9.5.2,10.8A12.9,12.9,0,0,1,12.9,0H82.1A12.72,12.72,0,0,1,94.8,10.8Z"/><path class="cls-2" d="M94.7,61.2A12.88,12.88,0,0,1,82.1,71.4H12.9A12.88,12.88,0,0,1,.3,61.2c1.1,1.8,5.5,7.5,13.6-.5L34.4,40.2,47.5,52.1,60.6,40.2,81.1,60.7C89.1,68.7,93.6,63,94.7,61.2Z"/><path class="cls-3" d="M82.3,11c7.1-7.1,11.6-1.6,12.5-.3a14.92,14.92,0,0,1,.2,2.1v2.8s-4.6-5.5-12,2.1S60.6,40.1,60.6,40.1l-3.7-3.7Z"/><path class="cls-1" d="M60.6,40.2,47.5,52.1,34.4,40.2l3.7-3.7,8,8,1.4,1.4,1.4-1.4,8-8Z"/><path class="cls-1" d="M34.4,40.2,13.9,60.7c-8,8-12.5,2.3-13.6.5A12.42,12.42,0,0,1,0,58.5V14.1s4.9-3.3,14.5,6.5S34.4,40.2,34.4,40.2Z"/><path class="cls-3" d="M12.7,11,38.1,36.4l-3.7,3.7S24.1,30.4,14.5,20.5,0,14,0,14V12.8a14.92,14.92,0,0,1,.2-2.1C1.1,9.4,5.5,3.9,12.7,11Z"/></g></g></g></g></svg>