<svg xmlns="http://www.w3.org/2000/svg" viewBox="0 0 178 75.3"><defs><style>.cls-1{fill:#96804e;}.cls-2{fill:#78673d;}.cls-3{fill:#7c5b35;}.cls-4{fill:#b99d67;}.cls-5{fill:#645028;}.cls-6{fill:#cba75d;}.cls-7{fill:#f8dda0;}.cls-8{fill:#604f2b;}.cls-9{fill:#fff;}</style></defs><title>Asset 4</title><g id="Layer_2" data-name="Layer 2"><g id="Layer_1-2" data-name="Layer 1"><g id="ท่องเที่ยว"><g id="_Group_" data-name="&lt;Group&gt;"><path class="cls-1" d="M177.9,68.4v4.3a2.58,2.58,0,0,1-2.6,2.6H171V72a.27.27,0,0,0,.3-.3V70.1a.27.27,0,0,0-.3-.3H159V67.6a.27.27,0,0,0,.3-.3V65.7a.27.27,0,0,0-.3-.3V62.1h12a6.75,6.75,0,0,1,6.8,6.5C177.9,68.6,177.9,68.5,177.9,68.4Z"/><path class="cls-1" d="M177.9,61.5v4.3a6.77,6.77,0,0,0-5.5-6.7V59h2.9A2.39,2.39,0,0,1,177.9,61.5Z"/><path class="cls-1" d="M177.9,13.8a2.58,2.58,0,0,1-2.6,2.6h-2.9v-.1a6.87,6.87,0,0,0,5.5-6.7Z"/><path class="cls-2" d="M172.5,58.9Z"/><path class="cls-1" d="M172.5,16.2v.2h-1.4A6.75,6.75,0,0,0,172.5,16.2Z"/><path class="cls-3" d="M171.1,72H67.5a.27.27,0,0,1-.3-.3V70.1a.27.27,0,0,1,.3-.3H171.1a.27.27,0,0,1,.3.3v1.6A.27.27,0,0,1,171.1,72Z"/><path class="cls-1" d="M170.1,34.9a.22.22,0,0,1,.2.2V54.4a.22.22,0,0,1-.2.2h-.7a.22.22,0,0,1-.2-.2V35.1a.22.22,0,0,1,.2-.2Z"/><path class="cls-3" d="M168.9,6.6H118.8a.27.27,0,0,1-.3-.3V4.7a.27.27,0,0,1,.3-.3h50.1a.27.27,0,0,1,.3.3V6.3A.32.32,0,0,1,168.9,6.6Z"/><path class="cls-1" d="M167.6,19.4a.27.27,0,0,1,.3.3V39.3a.27.27,0,0,1-.3.3H166a.27.27,0,0,1-.3-.3V19.7a.27.27,0,0,1,.3-.3Z"/><path class="cls-1" d="M167.3,46.9a.32.32,0,0,1,.3.3v3.9a.32.32,0,0,1-.3.3h-1.1a.32.32,0,0,1-.3-.3V47.2a.32.32,0,0,1,.3-.3Z"/><path class="cls-2" d="M167.6,51V47.1a.32.32,0,0,0-.3-.3h-1.1a.32.32,0,0,0-.3.3V51a.32.32,0,0,0,.3.3h1.1A.32.32,0,0,0,167.6,51Zm.3-11.7V19.7a.27.27,0,0,0-.3-.3H166a.27.27,0,0,0-.3.3V39.3a.27.27,0,0,0,.3.3h1.6C167.7,39.5,167.9,39.4,167.9,39.3Zm2.4,15.1V35.1a.22.22,0,0,0-.2-.2h-.7a.22.22,0,0,0-.2.2V54.4a.22.22,0,0,0,.2.2h.7C170.2,54.5,170.3,54.5,170.3,54.4Zm2.2-38V58.9h-9.3V16.4h9.3Z"/><path class="cls-4" d="M172.5,60h-12V58.9h10.6a6.6,6.6,0,0,1,1.4.1Z"/><rect class="cls-5" x="160.5" y="16.4" width="2.7" height="42.5"/><path class="cls-2" d="M160.5,16.4V15.3h12v.9a6.15,6.15,0,0,1-1.4.1h-7.9l-2.7.1Z"/><rect class="cls-6" x="17.6" y="16.4" width="142.9" height="42.5"/><path class="cls-3" d="M159.1,65.4a.27.27,0,0,1,.3.3v1.6a.27.27,0,0,1-.3.3H139.5a.27.27,0,0,1-.3-.3V65.7a.27.27,0,0,1,.3-.3Z"/><path class="cls-3" d="M148.2,8.7a.27.27,0,0,1,.3.3v1.6a.27.27,0,0,1-.3.3H44.6a.27.27,0,0,1-.3-.3V9a.27.27,0,0,1,.3-.3Z"/><path class="cls-3" d="M130.8,64.4a.27.27,0,0,1,.3.3v1.6a.27.27,0,0,1-.3.3H27.2a.27.27,0,0,1-.3-.3V64.7a.27.27,0,0,1,.3-.3Z"/><path class="cls-3" d="M107.9,3.3a.27.27,0,0,1,.3.3V5.2a.27.27,0,0,1-.3.3H4.3A.27.27,0,0,1,4,5.2V3.6a.27.27,0,0,1,.3-.3Z"/><path class="cls-3" d="M56.6,70.9H6.5a.27.27,0,0,1-.3-.3V69a.27.27,0,0,1,.3-.3H56.6a.27.27,0,0,1,.3.3v1.6A.27.27,0,0,1,56.6,70.9Z"/><path class="cls-1" d="M56.6,68.7H6.5a.27.27,0,0,0-.3.3v1.6a.27.27,0,0,0,.3.3H56.6a.27.27,0,0,0,.3-.3V69A.32.32,0,0,0,56.6,68.7ZM27.2,66.5H130.8a.27.27,0,0,0,.3-.3V64.6a.27.27,0,0,0-.3-.3H27.2a.27.27,0,0,0-.3.3v1.6A.27.27,0,0,0,27.2,66.5Zm143.9,8.8H2.7A2.58,2.58,0,0,1,.1,72.7v-4a6.75,6.75,0,0,1,6.8-6.5H159v3.3H139.4a.27.27,0,0,0-.3.3v1.6a.27.27,0,0,0,.3.3H159v2.2H67.4a.27.27,0,0,0-.3.3v1.6a.27.27,0,0,0,.3.3H171l.1,3.2Z"/><path class="cls-3" d="M35.9,7.6a.27.27,0,0,1,.3.3V9.5a.27.27,0,0,1-.3.3H16.3a.27.27,0,0,1-.3-.3V7.9a.27.27,0,0,1,.3-.3Z"/><polygon class="cls-5" points="17.6 16.4 17.6 58.9 14.9 58.9 14.9 50.2 14.9 16.4 17.6 16.4"/><path class="cls-2" d="M17.6,15.3v1.1H7a6.6,6.6,0,0,1-1.4-.1v-.9l12-.1Z"/><path class="cls-1" d="M148.2,10.9a.27.27,0,0,0,.3-.3V9a.27.27,0,0,0-.3-.3H44.6a.27.27,0,0,0-.3.3v1.6a.27.27,0,0,0,.3.3ZM118.8,6.6h50.1a.27.27,0,0,0,.3-.3V4.7a.27.27,0,0,0-.3-.3H118.8a.27.27,0,0,0-.3.3V6.3A.32.32,0,0,0,118.8,6.6ZM35.9,9.8a.27.27,0,0,0,.3-.3V7.9a.27.27,0,0,0-.3-.3H16.3a.27.27,0,0,0-.3.3V9.5a.27.27,0,0,0,.3.3ZM2.7,0H175.4A2.58,2.58,0,0,1,178,2.6v4a6.82,6.82,0,0,1-6.8,6.5H7A6.75,6.75,0,0,1,.2,6.6v-4A2.56,2.56,0,0,1,2.7,0ZM107.9,3.3H4.3a.27.27,0,0,0-.3.3V5.2a.27.27,0,0,0,.3.3H107.9a.27.27,0,0,0,.3-.3V3.6A.32.32,0,0,0,107.9,3.3Z"/><path class="cls-4" d="M14.9,58.9V60H5.6v-.9A6.15,6.15,0,0,1,7,59l7.9-.1Z"/><path class="cls-1" d="M12,40.4a.22.22,0,0,1,.2.2v9.7a.22.22,0,0,1-.2.2h-.9a.22.22,0,0,1-.2-.2V40.6c0-.1,0-.1.1-.2l.1-.1.9.1Z"/><path class="cls-2" d="M14.9,16.4V50.3H12.2V40.6a.22.22,0,0,0-.2-.2h-.9c-.1,0-.1,0-.1.1L9.9,39.3a.22.22,0,0,0,.2-.2V19.8a.22.22,0,0,0-.2-.2V16.4Z"/><path class="cls-2" d="M10.8,40.6v9.7a.22.22,0,0,0,.2.2h.9a.22.22,0,0,0,.2-.2h2.7V59H5.5V16.4H9.7v3.3H9a.22.22,0,0,0-.2.2V39.2a.22.22,0,0,0,.2.2h.7l1.1,1.2Z"/><path class="cls-1" d="M9.8,19.6a.22.22,0,0,1,.2.2V39.1a.22.22,0,0,1-.2.2H9.1a.22.22,0,0,1-.2-.2V19.8a.22.22,0,0,1,.2-.2Z"/><path class="cls-1" d="M7,16.4H5.6v-.1C6.1,16.3,6.5,16.4,7,16.4Z"/><path class="cls-2" d="M5.6,58.9h0Z"/><path class="cls-1" d="M5.6,58.9h0A7.06,7.06,0,0,0,.1,65.7V61.4a2.58,2.58,0,0,1,2.6-2.6H5.6Z"/><path class="cls-1" d="M5.6,16.2v.2H2.7A2.58,2.58,0,0,1,.1,13.8V9.5A7,7,0,0,0,5.6,16.2Z"/><path class="cls-2" d="M177.9,9.6a6.77,6.77,0,0,1-5.5,6.7v-.9h-12v1H17.5V15.3H5.5v.9A6.87,6.87,0,0,1,0,9.5v-3A6.75,6.75,0,0,0,6.8,13H170.9a6.75,6.75,0,0,0,6.8-6.5V9.6Z"/><path class="cls-4" d="M172.5,59a6.87,6.87,0,0,1,5.5,6.7v3a6.82,6.82,0,0,0-6.8-6.5H7A6.75,6.75,0,0,0,.2,68.7v-3A6.77,6.77,0,0,1,5.7,59v.9h12V58.8H160.6v1.1h12l-.1-.9Z"/></g><g id="_Group_2" data-name="&lt;Group&gt;"><path class="cls-7" d="M10.9,4.2A2.5,2.5,0,1,1,8.4,6.7,2.54,2.54,0,0,1,10.9,4.2Z"/><path class="cls-8" d="M6.3,6.7a4.5,4.5,0,1,1,4.5,4.5A4.42,4.42,0,0,1,6.3,6.7Zm2.1,0a2.5,2.5,0,1,0,2.5-2.5A2.54,2.54,0,0,0,8.4,6.7Z"/></g><g id="_Group_3" data-name="&lt;Group&gt;"><path class="cls-7" d="M9.8,66.4a2.5,2.5,0,1,1-2.5,2.5A2.48,2.48,0,0,1,9.8,66.4Z"/><path class="cls-8" d="M12.3,68.9a2.5,2.5,0,1,0-2.5,2.5A2.48,2.48,0,0,0,12.3,68.9Zm2.1,0a4.5,4.5,0,1,1-4.5-4.5A4.55,4.55,0,0,1,14.4,68.9Z"/></g><g id="_Group_4" data-name="&lt;Group&gt;"><path class="cls-7" d="M167.9,4.2a2.5,2.5,0,1,1-2.5,2.5A2.61,2.61,0,0,1,167.9,4.2Z"/><path class="cls-8" d="M172.5,6.7A4.5,4.5,0,1,1,168,2.2,4.48,4.48,0,0,1,172.5,6.7Zm-2,0A2.5,2.5,0,1,0,168,9.2,2.48,2.48,0,0,0,170.5,6.7Z"/></g><g id="_Group_5" data-name="&lt;Group&gt;"><path class="cls-7" d="M166.8,66.4a2.5,2.5,0,1,1-2.5,2.5A2.54,2.54,0,0,1,166.8,66.4Z"/><path class="cls-8" d="M166.8,64.4a4.5,4.5,0,1,1-4.5,4.5A4.48,4.48,0,0,1,166.8,64.4Zm2.6,4.5a2.5,2.5,0,1,0-2.5,2.5A2.48,2.48,0,0,0,169.4,68.9Z"/></g><path class="cls-9" d="M45.4,32.3h2.4l.1,1.4A6.88,6.88,0,0,1,52.5,32a4.22,4.22,0,0,1,3.2,1.2,4.7,4.7,0,0,1,1.2,3.4v8.5H54.3V36.7a2.44,2.44,0,0,0-.7-2,2.81,2.81,0,0,0-2-.6,4.77,4.77,0,0,0-2,.4A6.45,6.45,0,0,0,48,35.6v9.5H45.4Z"/><path class="cls-9" d="M54.2,26.4h2.6v3.9H54.2Z"/><path class="cls-9" d="M61.9,45.2a10.5,10.5,0,0,1-2.3-.7V37.8h5.1l.1,2H62.1v3.1a6.77,6.77,0,0,0,2.6.4,5,5,0,0,0,2.3-.4,2.36,2.36,0,0,0,1.2-1.4,7,7,0,0,0,.4-2.7,7.22,7.22,0,0,0-.4-2.8,2.73,2.73,0,0,0-1.4-1.4,6.68,6.68,0,0,0-2.7-.4,14.42,14.42,0,0,0-4.3.6v-2a13.16,13.16,0,0,1,2.3-.5,22.75,22.75,0,0,1,2.6-.2,6.46,6.46,0,0,1,4.9,1.7q1.5,1.65,1.5,5.1a7.29,7.29,0,0,1-1.5,5,6.46,6.46,0,0,1-4.9,1.7A27,27,0,0,1,61.9,45.2Z"/><path class="cls-9" d="M76.4,45.2l-3.6-8.9h2.5l3,7.2a3.05,3.05,0,0,0,3-1.2,7,7,0,0,0,.9-4,8.07,8.07,0,0,0-.3-2.5,2.21,2.21,0,0,0-1-1.3,4.49,4.49,0,0,0-1.9-.4h-.9v-2h1.2a4.92,4.92,0,0,1,4,1.5c.9,1,1.3,2.5,1.3,4.6,0,2.4-.5,4.2-1.6,5.4a5.51,5.51,0,0,1-4.3,1.8A5.49,5.49,0,0,1,76.4,45.2Z"/><path class="cls-9" d="M87.3,42.7V32.3h2.6v9.8A1,1,0,0,0,91,43.2h1.1v2.1H89.9C88.1,45.2,87.3,44.4,87.3,42.7Z"/><path class="cls-9" d="M94.6,32.3H97l.1,1.4a6.88,6.88,0,0,1,4.6-1.7,4.22,4.22,0,0,1,3.2,1.2,4.7,4.7,0,0,1,1.2,3.4v8.5h-2.6V36.7a2.44,2.44,0,0,0-.7-2,2.81,2.81,0,0,0-2-.6,4.77,4.77,0,0,0-2,.4,6.45,6.45,0,0,0-1.6,1.1v9.5H94.6Z"/><path class="cls-9" d="M96.2,28.5h7.7v-2h2.2v3.8h-10Z"/><path class="cls-9" d="M103.9,22h2.2v3.3h-2.2Z"/><path class="cls-9" d="M110.2,44.5a3.37,3.37,0,0,1-1.6-3.1,3.1,3.1,0,0,1,.5-1.7,3.75,3.75,0,0,1,1.3-1.2,3.05,3.05,0,0,1-1.3-1,3.1,3.1,0,0,1-.5-1.7,3.76,3.76,0,0,1,1.1-2.8,4.5,4.5,0,0,1,3-1,6.65,6.65,0,0,1,2.1.3v2a7.77,7.77,0,0,0-1.6-.2c-1.3,0-2,.5-2,1.6s.8,1.7,2.3,1.7h1.4l.1,1.9h-1.5c-1.5,0-2.3.7-2.3,2a1.76,1.76,0,0,0,.8,1.5,4.25,4.25,0,0,0,2.5.5,3.56,3.56,0,0,0,2.5-.7,2.4,2.4,0,0,0,.8-2.1V32.1h2.6v8a5,5,0,0,1-1.5,3.9,6.79,6.79,0,0,1-4.4,1.3A6.44,6.44,0,0,1,110.2,44.5Z"/><path class="cls-9" d="M122.8,44.8V42.7a7.84,7.84,0,0,0,3.3.7,6,6,0,0,0,2.6-.5,2.94,2.94,0,0,0,1.4-1.5,7,7,0,0,0,.4-2.7,5.17,5.17,0,0,0-1-3.6,4.62,4.62,0,0,0-3.4-1.1,7.11,7.11,0,0,0-3.2.7V32.6a9.2,9.2,0,0,1,3.8-.7,6.52,6.52,0,0,1,4.8,1.7c1.1,1.1,1.6,2.8,1.6,5a7.29,7.29,0,0,1-1.5,5,6.21,6.21,0,0,1-4.8,1.7A8.31,8.31,0,0,1,122.8,44.8Z"/></g></g></g></svg>