<svg xmlns="http://www.w3.org/2000/svg" viewBox="0 0 178.1 75.3"><defs><style>.cls-1{fill:#96804e;}.cls-2{fill:#78673d;}.cls-3{fill:#7c5b35;}.cls-4{fill:#b99d67;}.cls-5{fill:#645028;}.cls-6{fill:#cba75d;}.cls-7{fill:#f8dda0;}.cls-8{fill:#604f2b;}.cls-9{fill:#fff;}</style></defs><title>Asset 5</title><g id="Layer_2" data-name="Layer 2"><g id="Layer_1-2" data-name="Layer 1"><g id="ผลิตภัณฑ์"><g id="_Group_" data-name="&lt;Group&gt;"><path class="cls-1" d="M177.9,68.4v4.3a2.58,2.58,0,0,1-2.6,2.6H171V72a.27.27,0,0,0,.3-.3V70.1a.27.27,0,0,0-.3-.3H159V67.6a.27.27,0,0,0,.3-.3V65.7a.27.27,0,0,0-.3-.3V62.1h12a6.75,6.75,0,0,1,6.8,6.5C177.9,68.6,177.9,68.5,177.9,68.4Z"/><path class="cls-1" d="M177.9,61.5v4.3a6.77,6.77,0,0,0-5.5-6.7V59h2.9A2.39,2.39,0,0,1,177.9,61.5Z"/><path class="cls-1" d="M177.9,13.8a2.58,2.58,0,0,1-2.6,2.6h-2.9v-.1a6.87,6.87,0,0,0,5.5-6.7Z"/><path class="cls-2" d="M172.5,58.9Z"/><path class="cls-1" d="M172.5,16.2v.2h-1.4A6.75,6.75,0,0,0,172.5,16.2Z"/><path class="cls-3" d="M171.1,72H67.5a.27.27,0,0,1-.3-.3V70.1a.27.27,0,0,1,.3-.3H171.1a.27.27,0,0,1,.3.3v1.6A.27.27,0,0,1,171.1,72Z"/><path class="cls-1" d="M170.1,34.9a.22.22,0,0,1,.2.2V54.4a.22.22,0,0,1-.2.2h-.7a.22.22,0,0,1-.2-.2V35.1a.22.22,0,0,1,.2-.2Z"/><path class="cls-3" d="M168.9,6.6H118.8a.27.27,0,0,1-.3-.3V4.7a.27.27,0,0,1,.3-.3h50.1a.27.27,0,0,1,.3.3V6.3A.32.32,0,0,1,168.9,6.6Z"/><path class="cls-1" d="M167.6,19.4a.27.27,0,0,1,.3.3V39.3a.27.27,0,0,1-.3.3H166a.27.27,0,0,1-.3-.3V19.7a.27.27,0,0,1,.3-.3Z"/><path class="cls-1" d="M167.3,46.9a.32.32,0,0,1,.3.3v3.9a.32.32,0,0,1-.3.3h-1.1a.32.32,0,0,1-.3-.3V47.2a.32.32,0,0,1,.3-.3Z"/><path class="cls-2" d="M163.2,16.4h9.3V58.9h-9.3ZM167.6,51V47.1a.32.32,0,0,0-.3-.3h-1.1a.32.32,0,0,0-.3.3V51a.32.32,0,0,0,.3.3h1.1A.32.32,0,0,0,167.6,51Zm.3-11.7V19.7a.27.27,0,0,0-.3-.3H166a.27.27,0,0,0-.3.3V39.3a.27.27,0,0,0,.3.3h1.6C167.7,39.5,167.9,39.4,167.9,39.3Zm2.4,15.1V35.1a.22.22,0,0,0-.2-.2h-.7a.22.22,0,0,0-.2.2V54.4a.22.22,0,0,0,.2.2h.7C170.2,54.5,170.3,54.5,170.3,54.4Z"/><path class="cls-4" d="M171.1,58.9a6.6,6.6,0,0,1,1.4.1v.9h-12V58.8h2.7l7.9.1Z"/><rect class="cls-5" x="160.5" y="16.4" width="2.7" height="42.5"/><path class="cls-2" d="M160.5,16.4V15.3h12v.9a6.15,6.15,0,0,1-1.4.1h-7.9l-2.7.1Z"/><rect class="cls-6" x="17.6" y="16.4" width="142.9" height="42.5"/><path class="cls-3" d="M159.1,65.4a.27.27,0,0,1,.3.3v1.6a.27.27,0,0,1-.3.3H139.5a.27.27,0,0,1-.3-.3V65.7a.27.27,0,0,1,.3-.3Z"/><path class="cls-3" d="M148.2,8.7a.27.27,0,0,1,.3.3v1.6a.27.27,0,0,1-.3.3H44.6a.27.27,0,0,1-.3-.3V9a.27.27,0,0,1,.3-.3Z"/><path class="cls-3" d="M130.8,64.4a.27.27,0,0,1,.3.3v1.6a.27.27,0,0,1-.3.3H27.2a.27.27,0,0,1-.3-.3V64.7a.27.27,0,0,1,.3-.3Z"/><path class="cls-3" d="M107.9,3.3a.27.27,0,0,1,.3.3V5.2a.27.27,0,0,1-.3.3H4.3A.27.27,0,0,1,4,5.2V3.6a.27.27,0,0,1,.3-.3Z"/><path class="cls-3" d="M56.6,70.9H6.5a.27.27,0,0,1-.3-.3V69a.27.27,0,0,1,.3-.3H56.6a.27.27,0,0,1,.3.3v1.6A.27.27,0,0,1,56.6,70.9Z"/><path class="cls-1" d="M130.8,64.4H27.2a.27.27,0,0,0-.3.3v1.6a.27.27,0,0,0,.3.3H130.8a.27.27,0,0,0,.3-.3V64.7A.32.32,0,0,0,130.8,64.4ZM56.6,68.7H6.5a.27.27,0,0,0-.3.3v1.6a.27.27,0,0,0,.3.3H56.6a.27.27,0,0,0,.3-.3V69A.32.32,0,0,0,56.6,68.7Zm114.5,6.6H2.7A2.58,2.58,0,0,1,.1,72.7v-4a6.75,6.75,0,0,1,6.8-6.5H159v3.3H139.4a.27.27,0,0,0-.3.3v1.6a.27.27,0,0,0,.3.3H159v2.2H67.4a.27.27,0,0,0-.3.3v1.6a.27.27,0,0,0,.3.3H171l.1,3.2Z"/><path class="cls-3" d="M35.9,9.8H16.3a.27.27,0,0,1-.3-.3V7.9a.27.27,0,0,1,.3-.3H35.9a.27.27,0,0,1,.3.3V9.5A.32.32,0,0,1,35.9,9.8Z"/><polygon class="cls-5" points="17.6 16.4 17.6 58.9 14.9 58.9 14.9 50.2 14.9 16.4 17.6 16.4"/><path class="cls-2" d="M17.6,15.3v1.1H7a6.6,6.6,0,0,1-1.4-.1v-.9l12-.1Z"/><path class="cls-1" d="M148.2,10.9a.27.27,0,0,0,.3-.3V9a.27.27,0,0,0-.3-.3H44.6a.27.27,0,0,0-.3.3v1.6a.27.27,0,0,0,.3.3ZM118.8,6.6h50.1a.27.27,0,0,0,.3-.3V4.7a.27.27,0,0,0-.3-.3H118.8a.27.27,0,0,0-.3.3V6.3A.32.32,0,0,0,118.8,6.6ZM4.3,5.5H107.9a.27.27,0,0,0,.3-.3V3.6a.27.27,0,0,0-.3-.3H4.3a.27.27,0,0,0-.3.3V5.2A.32.32,0,0,0,4.3,5.5Zm12,4.3H35.9a.27.27,0,0,0,.3-.3V7.9a.27.27,0,0,0-.3-.3H16.3a.27.27,0,0,0-.3.3V9.5A.27.27,0,0,0,16.3,9.8Zm154.8,3.3H7A6.75,6.75,0,0,1,.2,6.6v-4A2.58,2.58,0,0,1,2.8,0H175.5a2.58,2.58,0,0,1,2.6,2.6v4A7.07,7.07,0,0,1,171.1,13.1Z"/><path class="cls-4" d="M14.9,58.9V60H5.6v-.9A6.15,6.15,0,0,1,7,59l7.9-.1Z"/><path class="cls-1" d="M12,40.4a.22.22,0,0,1,.2.2v9.7a.22.22,0,0,1-.2.2h-.9a.22.22,0,0,1-.2-.2V40.6c0-.1,0-.1.1-.2l.1-.1.9.1Z"/><path class="cls-2" d="M14.9,16.4V50.3H12.2V40.6a.22.22,0,0,0-.2-.2h-.9c-.1,0-.1,0-.1.1L9.9,39.3a.22.22,0,0,0,.2-.2V19.8a.22.22,0,0,0-.2-.2V16.4Z"/><path class="cls-2" d="M10.8,40.6v9.7a.22.22,0,0,0,.2.2h.9a.22.22,0,0,0,.2-.2h2.7V59H5.5V16.4H9.7v3.3H9a.22.22,0,0,0-.2.2V39.2a.22.22,0,0,0,.2.2h.7l1.1,1.2Z"/><path class="cls-1" d="M9.8,19.6a.22.22,0,0,1,.2.2V39.1a.22.22,0,0,1-.2.2H9.1a.22.22,0,0,1-.2-.2V19.8a.22.22,0,0,1,.2-.2Z"/><path class="cls-1" d="M7,16.4H5.6v-.1C6.1,16.3,6.5,16.4,7,16.4Z"/><path class="cls-2" d="M5.6,58.9h0Z"/><path class="cls-1" d="M5.6,58.9h0A7.06,7.06,0,0,0,.1,65.7V61.4a2.58,2.58,0,0,1,2.6-2.6H5.6Z"/><path class="cls-1" d="M5.6,16.2v.2H2.7A2.58,2.58,0,0,1,.1,13.8V9.5A7,7,0,0,0,5.6,16.2Z"/><path class="cls-2" d="M.2,6.6A6.75,6.75,0,0,0,7,13.1H171.1a6.75,6.75,0,0,0,6.8-6.5v3a6.77,6.77,0,0,1-5.5,6.7v-.9h-12v1H17.5V15.3H5.5v.9A6.87,6.87,0,0,1,0,9.5V6.8C.2,6.7.2,6.6.2,6.6Z"/><path class="cls-4" d="M7,62.2A6.75,6.75,0,0,0,.2,68.7v-3A6.77,6.77,0,0,1,5.7,59v.9h12V58.8H160.6v1.1h12V59a6.87,6.87,0,0,1,5.5,6.7v3a6.82,6.82,0,0,0-6.8-6.5H7Z"/></g><g id="_Group_2" data-name="&lt;Group&gt;"><path class="cls-7" d="M10.9,4.2A2.5,2.5,0,1,1,8.4,6.7,2.54,2.54,0,0,1,10.9,4.2Z"/><path class="cls-8" d="M6.3,6.7a4.5,4.5,0,1,1,4.5,4.5A4.42,4.42,0,0,1,6.3,6.7Zm2.1,0a2.5,2.5,0,1,0,2.5-2.5A2.54,2.54,0,0,0,8.4,6.7Z"/></g><g id="_Group_3" data-name="&lt;Group&gt;"><path class="cls-7" d="M9.8,66.4a2.5,2.5,0,1,1-2.5,2.5A2.48,2.48,0,0,1,9.8,66.4Z"/><path class="cls-8" d="M12.3,68.9a2.5,2.5,0,1,0-2.5,2.5A2.48,2.48,0,0,0,12.3,68.9ZM9.8,64.4a4.5,4.5,0,1,1-4.5,4.5A4.48,4.48,0,0,1,9.8,64.4Z"/></g><g id="_Group_4" data-name="&lt;Group&gt;"><path class="cls-7" d="M167.9,4.2a2.5,2.5,0,1,1-2.5,2.5A2.61,2.61,0,0,1,167.9,4.2Z"/><path class="cls-8" d="M170.5,6.7A2.5,2.5,0,1,0,168,9.2,2.48,2.48,0,0,0,170.5,6.7Zm-2.6-4.5a4.5,4.5,0,1,1-4.5,4.5A4.48,4.48,0,0,1,167.9,2.2Z"/></g><g id="_Group_5" data-name="&lt;Group&gt;"><path class="cls-7" d="M166.8,66.4a2.5,2.5,0,1,1-2.5,2.5A2.54,2.54,0,0,1,166.8,66.4Z"/><path class="cls-8" d="M166.8,73.5a4.5,4.5,0,1,1,4.5-4.5A4.42,4.42,0,0,1,166.8,73.5Zm0-7.1a2.5,2.5,0,1,0,2.5,2.5A2.36,2.36,0,0,0,166.8,66.4Z"/></g><path class="cls-9" d="M41.3,34.7a2.79,2.79,0,0,1,.6-1.8,2.41,2.41,0,0,1,1.7-.7h2.5l.1,2H45a1.06,1.06,0,0,0-1.2,1.2v6.3L47,36.2h1.1l3.2,5.5V32.2h2.5v13H51.2l-3.6-6.4L44,45.2H41.4l-.1-10.5Z"/><path class="cls-9" d="M57.5,44.5a3.51,3.51,0,0,1-1.2-3,3.54,3.54,0,0,1,1.3-3,5.82,5.82,0,0,1,3.7-1h4v-.8a3.34,3.34,0,0,0-.3-1.5,2,2,0,0,0-1-.8,5.57,5.57,0,0,0-2-.2,14.21,14.21,0,0,0-4.2.6v-2a14.19,14.19,0,0,1,2.2-.5,19.42,19.42,0,0,1,2.4-.2,6.2,6.2,0,0,1,4.2,1.2A4.64,4.64,0,0,1,67.9,37v8.3H65.3V39.6H61.5a4.06,4.06,0,0,0-2.1.5,1.81,1.81,0,0,0-.7,1.5,1.75,1.75,0,0,0,.6,1.5,3.52,3.52,0,0,0,2,.4,8.81,8.81,0,0,0,1.7-.2v2a8.75,8.75,0,0,1-2.4.3A5.28,5.28,0,0,1,57.5,44.5Z"/><path class="cls-9" d="M58.1,28.5H68v1.8H58Z"/><path class="cls-9" d="M72,43.9c-1-1.1-1.4-2.7-1.4-4.9a10.17,10.17,0,0,1,1.1-5.1,3.5,3.5,0,0,1,3.2-1.8,3.34,3.34,0,0,1,1.5.3,4.36,4.36,0,0,1,1.1.9,3,3,0,0,1,1.3-.9,4.67,4.67,0,0,1,1.7-.3,2.87,2.87,0,0,1,2.3.9,4,4,0,0,1,.8,2.6v9.7H81V36a2.65,2.65,0,0,0-.3-1.4,1.05,1.05,0,0,0-1-.4,1.61,1.61,0,0,0-.9.3,1.55,1.55,0,0,0-.6.8H76.8a3.49,3.49,0,0,0-.6-.9,1.22,1.22,0,0,0-.9-.3,1.59,1.59,0,0,0-1.6,1.2,10.63,10.63,0,0,0-.5,3.6,5.85,5.85,0,0,0,.8,3.4,2.72,2.72,0,0,0,2.4,1,7.18,7.18,0,0,0,1.7-.2v2a5.84,5.84,0,0,1-2.1.3A4.75,4.75,0,0,1,72,43.9Z"/><path class="cls-9" d="M86.1,43.2H87a1.17,1.17,0,0,0,.7-.2,1.55,1.55,0,0,0,.2-.8V40.6a3.58,3.58,0,0,1,.4-1.9,2.07,2.07,0,0,1,1.3-1.1L87,37V34.3a11.32,11.32,0,0,1,2.7-1.6,9.89,9.89,0,0,1,3.5-.6,6.68,6.68,0,0,1,4.3,1.2A4.7,4.7,0,0,1,99,37.2v8H96.4V37.1a2.88,2.88,0,0,0-.7-2.3,3.92,3.92,0,0,0-2.5-.7,7.8,7.8,0,0,0-2.2.3,3.54,3.54,0,0,0-1.6.9v.4l2.8.7v1.7a1.84,1.84,0,0,0-1.2.8,3.23,3.23,0,0,0-.3,1.6v1.7c0,2-.9,2.9-2.8,2.9H86.3V43.2Z"/><path class="cls-9" d="M93.3,26.8h2.2v1.7h6.2l-.1,1.8H93.3V26.8Z"/><path class="cls-9" d="M111.9,44.3a5.23,5.23,0,0,1-1.1-3.5V37.2a2.88,2.88,0,0,0-.7-2.3,3.92,3.92,0,0,0-2.5-.7,7.8,7.8,0,0,0-2.2.3,3.54,3.54,0,0,0-1.6.9v.4l2.7.7v1.7c-.6.2-1.1.4-1.3.8a2.54,2.54,0,0,0-.4,1.6v1.6a1.55,1.55,0,0,0,.2.8c.2.2.4.2.8.2h1.3v2.1h-2.6a2.06,2.06,0,0,1-1.7-.7,2.44,2.44,0,0,1-.6-1.8V40.5c0-1.6.6-2.6,1.9-3l-2.6-.6V34.2a8.77,8.77,0,0,1,2.7-1.6,9.51,9.51,0,0,1,3.5-.6,6.2,6.2,0,0,1,4.2,1.2,5,5,0,0,1,1.4,3.9v3.5a2.93,2.93,0,0,0,.6,2.1,2.81,2.81,0,0,0,2,.6,4.06,4.06,0,0,0,1.9-.4,9.06,9.06,0,0,0,1.6-1.1V32.2H122v13h-2.4l-.1-1.4a5.93,5.93,0,0,1-2,1.2,6.05,6.05,0,0,1-2.4.4A3.83,3.83,0,0,1,111.9,44.3Z"/><path class="cls-9" d="M125.5,40.1a4,4,0,0,1,.3-1.5,15,15,0,0,1,.9-1.8c.3-.5.5-.9.7-1.2a2.92,2.92,0,0,0,.2-.9c0-.4-.2-.5-.5-.5a.91.91,0,0,0-.8.4v1h-1.8V32.4h1.8v.7a3.51,3.51,0,0,1,.8-.5,3,3,0,0,1,1-.2,1.51,1.51,0,0,1,1.4.7,4.58,4.58,0,0,1,1.4-.7,4.53,4.53,0,0,1,1.6-.3,3.92,3.92,0,0,1,3,1.1,5.31,5.31,0,0,1,.9,3.4v8.7h-2.6V36.6a2.65,2.65,0,0,0-.4-1.8c-.3-.4-.8-.5-1.6-.5a3.55,3.55,0,0,0-1,.2,1.93,1.93,0,0,0-.9.5,3,3,0,0,1-.2,1,6.88,6.88,0,0,1-.6,1.3,9.32,9.32,0,0,0-.7,1.5,3.18,3.18,0,0,0-.2,1.4v5h-2.6V40.1Z"/><path class="cls-9" d="M130.8,26.8h7.1l-.1,1.8H133v1.7h-2.2Z"/></g></g></g></svg>