<svg xmlns="http://www.w3.org/2000/svg" viewBox="0 0 177.8 75.3"><defs><style>.cls-1{fill:#96804e;}.cls-2{fill:#b99d67;}.cls-3{fill:#78673d;}.cls-4{fill:#7c5b35;}.cls-5{fill:#645028;}.cls-6{fill:#cba75d;}.cls-7{fill:#604f2b;}.cls-8{fill:#f8dda0;}.cls-9{fill:#fff;}</style></defs><title>Asset 6</title><g id="Layer_2" data-name="Layer 2"><g id="Layer_1-2" data-name="Layer 1"><g id="โฮมป้าย"><g id="_Group_" data-name="&lt;Group&gt;"><path class="cls-1" d="M177.8,68.4v4.3a2.58,2.58,0,0,1-2.6,2.6h-4.3V72a.27.27,0,0,0,.3-.3V70.1a.27.27,0,0,0-.3-.3h-12V67.6a.27.27,0,0,0,.3-.3V65.7a.27.27,0,0,0-.3-.3V62.1h12a6.75,6.75,0,0,1,6.8,6.5C177.8,68.6,177.8,68.5,177.8,68.4Z"/><path class="cls-2" d="M177.8,65.7v3a6.75,6.75,0,0,0-6.8-6.5H7A6.75,6.75,0,0,0,.2,68.7v-3A6.77,6.77,0,0,1,5.7,59v.9h12V58.8H160.6v1.1h12V59A6.9,6.9,0,0,1,177.8,65.7Z"/><path class="cls-1" d="M177.8,61.5v4.3a6.77,6.77,0,0,0-5.5-6.7V59h2.9A2.39,2.39,0,0,1,177.8,61.5Z"/><path class="cls-1" d="M177.8,9.6v4.3a2.58,2.58,0,0,1-2.6,2.6h-2.9v-.1A7,7,0,0,0,177.8,9.6Z"/><path class="cls-3" d="M177.8,6.8V9.5a6.77,6.77,0,0,1-5.5,6.7v-.9h-12v1.1H17.5V15.3H5.5v.9A6.87,6.87,0,0,1,0,9.5v-3A6.82,6.82,0,0,0,6.8,13H170.9a6.75,6.75,0,0,0,6.8-6.5A.37.37,0,0,1,177.8,6.8Z"/><path class="cls-1" d="M177.8,2.6v4a6.75,6.75,0,0,1-6.8,6.5H7A6.75,6.75,0,0,1,.2,6.6v-4A2.58,2.58,0,0,1,2.8,0H175.5A2.54,2.54,0,0,1,177.8,2.6Zm-8.6,3.7V4.7a.27.27,0,0,0-.3-.3H118.8a.27.27,0,0,0-.3.3V6.3a.27.27,0,0,0,.3.3h50.1A.32.32,0,0,0,169.2,6.3Zm-20.8,4.3V9a.27.27,0,0,0-.3-.3H44.5a.27.27,0,0,0-.3.3v1.6a.27.27,0,0,0,.3.3H148.1A.27.27,0,0,0,148.4,10.6ZM108.1,5.2V3.6a.27.27,0,0,0-.3-.3H4.2a.27.27,0,0,0-.3.3V5.2a.27.27,0,0,0,.3.3H107.8A.45.45,0,0,0,108.1,5.2ZM36.2,9.5V7.9a.27.27,0,0,0-.3-.3H16.3a.27.27,0,0,0-.3.3V9.5a.27.27,0,0,0,.3.3H35.9S36.2,9.7,36.2,9.5Z"/><path class="cls-2" d="M163.2,58.9h7.9a6.6,6.6,0,0,1,1.4.1v.9h-12V58.8l2.7.1Z"/><path class="cls-3" d="M172.4,58.9V59a6.15,6.15,0,0,0-1.4-.1Z"/><path class="cls-3" d="M172.4,16.4V58.9h-9.3V16.4h9.3Zm-2.2,38V35.1a.22.22,0,0,0-.2-.2h-.7a.22.22,0,0,0-.2.2V54.4a.22.22,0,0,0,.2.2h.7C170.2,54.5,170.2,54.5,170.2,54.4Zm-2.4-15.1V19.7a.27.27,0,0,0-.3-.3h-1.6a.27.27,0,0,0-.3.3V39.3a.27.27,0,0,0,.3.3h1.6Q167.8,39.45,167.8,39.3ZM167.5,51V47.2a.32.32,0,0,0-.3-.3h-1.1a.32.32,0,0,0-.3.3V51a.32.32,0,0,0,.3.3h1.1A.27.27,0,0,0,167.5,51Z"/><path class="cls-1" d="M172.4,16.2v.2H171A6.75,6.75,0,0,0,172.4,16.2Z"/><path class="cls-3" d="M163.2,16.4h-2.7V15.3h12v.9a6.15,6.15,0,0,1-1.4.1l-7.9.1Z"/><path class="cls-4" d="M171.3,70.1v1.6a.27.27,0,0,1-.3.3H67.4a.27.27,0,0,1-.3-.3V70.1a.27.27,0,0,1,.3-.3H171A.27.27,0,0,1,171.3,70.1Z"/><path class="cls-1" d="M171.1,72v3.3H2.7A2.58,2.58,0,0,1,.1,72.7v-4a6.82,6.82,0,0,1,6.8-6.5H159v3.3H139.3a.27.27,0,0,0-.3.3v1.6a.27.27,0,0,0,.3.3h19.6v2.2H67.3a.27.27,0,0,0-.3.3v1.6a.27.27,0,0,0,.3.3H171V72Zm-40-5.7V64.7a.27.27,0,0,0-.3-.3H27.2a.27.27,0,0,0-.3.3v1.6a.27.27,0,0,0,.3.3H130.8C130.8,66.5,131.1,66.4,131.1,66.3ZM56.8,70.6V69a.27.27,0,0,0-.3-.3H6.4a.27.27,0,0,0-.3.3v1.6a.27.27,0,0,0,.3.3H56.5A.27.27,0,0,0,56.8,70.6Z"/><path class="cls-1" d="M170.2,35.1V54.4a.22.22,0,0,1-.2.2h-.7a.22.22,0,0,1-.2-.2V35.1a.22.22,0,0,1,.2-.2h.7C170.2,34.9,170.2,35,170.2,35.1Z"/><path class="cls-4" d="M169.2,4.7V6.3a.27.27,0,0,1-.3.3H118.8a.27.27,0,0,1-.3-.3V4.7a.27.27,0,0,1,.3-.3h50.1A.27.27,0,0,1,169.2,4.7Z"/><path class="cls-1" d="M167.8,19.7V39.3a.27.27,0,0,1-.3.3h-1.6a.27.27,0,0,1-.3-.3V19.7a.27.27,0,0,1,.3-.3h1.6A.27.27,0,0,1,167.8,19.7Z"/><path class="cls-1" d="M167.5,47.2V51a.32.32,0,0,1-.3.3h-1.1a.32.32,0,0,1-.3-.3V47.2a.32.32,0,0,1,.3-.3h1.1A.27.27,0,0,1,167.5,47.2Z"/><rect class="cls-5" x="160.4" y="16.4" width="2.7" height="42.5"/><rect class="cls-6" x="17.5" y="16.4" width="142.9" height="42.5"/><path class="cls-4" d="M159.3,65.7v1.6a.27.27,0,0,1-.3.3H139.4a.27.27,0,0,1-.3-.3V65.7a.27.27,0,0,1,.3-.3H159A.32.32,0,0,1,159.3,65.7Z"/><path class="cls-4" d="M148.4,9v1.6a.27.27,0,0,1-.3.3H44.5a.27.27,0,0,1-.3-.3V9a.27.27,0,0,1,.3-.3H148.1A.32.32,0,0,1,148.4,9Z"/><path class="cls-4" d="M131.1,64.6v1.6a.27.27,0,0,1-.3.3H27.2a.27.27,0,0,1-.3-.3V64.6a.27.27,0,0,1,.3-.3H130.8C130.8,64.4,131.1,64.5,131.1,64.6Z"/><path class="cls-4" d="M108.1,3.6V5.2a.27.27,0,0,1-.3.3H4.2a.27.27,0,0,1-.3-.3V3.6a.27.27,0,0,1,.3-.3H107.8A.32.32,0,0,1,108.1,3.6Z"/><path class="cls-4" d="M56.8,69v1.6a.27.27,0,0,1-.3.3H6.4a.27.27,0,0,1-.3-.3V69a.27.27,0,0,1,.3-.3H56.5A.27.27,0,0,1,56.8,69Z"/><path class="cls-4" d="M36.2,7.9V9.5a.27.27,0,0,1-.3.3H16.3a.27.27,0,0,1-.3-.3V7.9a.27.27,0,0,1,.3-.3H35.9S36.2,7.8,36.2,7.9Z"/><polygon class="cls-5" points="17.5 16.4 17.5 58.9 14.8 58.9 14.8 50.2 14.8 16.4 17.5 16.4"/><path class="cls-3" d="M17.5,15.3v1.1H6.9a6.6,6.6,0,0,1-1.4-.1v-.9l12-.1Z"/><path class="cls-2" d="M14.8,58.9V60H5.5v-.9A6.15,6.15,0,0,1,6.9,59h7.9Z"/><path class="cls-3" d="M14.8,50.2v8.7H5.5V16.4H9.7v3.3H9a.22.22,0,0,0-.2.2V39.2a.22.22,0,0,0,.2.2h.7l1.1,1.2a.35.35,0,0,0-.1.2v9.7a.22.22,0,0,0,.2.2h.9a.22.22,0,0,0,.2-.2h2.8v-.3Z"/><path class="cls-3" d="M14.8,16.4V50.3H12.1V40.6a.22.22,0,0,0-.2-.2h-1c-.1,0-.1,0-.2.1L9.6,39.3a.22.22,0,0,0,.2-.2V19.8a.22.22,0,0,0-.2-.2V16.4h5.2Z"/><path class="cls-1" d="M12.2,40.6v9.7a.22.22,0,0,1-.2.2H11a.22.22,0,0,1-.2-.2V40.6c0-.1,0-.1.1-.2a.35.35,0,0,1,.2-.1H12C12.1,40.4,12.2,40.5,12.2,40.6Z"/><path class="cls-1" d="M9.9,19.8V39.1a.22.22,0,0,1-.2.2H9a.22.22,0,0,1-.2-.2V19.8a.22.22,0,0,1,.2-.2h.7A.22.22,0,0,1,9.9,19.8Z"/><path class="cls-1" d="M7,16.4H5.6v-.1C6.1,16.3,6.5,16.4,7,16.4Z"/><path class="cls-3" d="M5.6,58.9H7a6.6,6.6,0,0,0-1.4.1Z"/><path class="cls-1" d="M5.6,58.9V59A6.87,6.87,0,0,0,.1,65.7V61.4a2.58,2.58,0,0,1,2.6-2.6H5.6Z"/><path class="cls-1" d="M5.6,16.2v.2H2.7A2.58,2.58,0,0,1,.1,13.8V9.5A6.88,6.88,0,0,0,5.6,16.2Z"/></g><g id="_Group_2" data-name="&lt;Group&gt;"><path class="cls-7" d="M10.8,2.2A4.5,4.5,0,1,1,6.3,6.7,4.48,4.48,0,0,1,10.8,2.2Zm2.5,4.5a2.5,2.5,0,1,0-2.5,2.5A2.42,2.42,0,0,0,13.3,6.7Z"/><path class="cls-8" d="M10.8,4.2A2.5,2.5,0,1,1,8.3,6.7,2.48,2.48,0,0,1,10.8,4.2Z"/></g><g id="_Group_3" data-name="&lt;Group&gt;"><path class="cls-7" d="M9.7,64.4a4.5,4.5,0,1,1-4.5,4.5A4.48,4.48,0,0,1,9.7,64.4Zm2.5,4.5a2.5,2.5,0,1,0-2.5,2.5A2.42,2.42,0,0,0,12.2,68.9Z"/><path class="cls-8" d="M9.7,66.4a2.5,2.5,0,1,1-2.5,2.5A2.48,2.48,0,0,1,9.7,66.4Z"/></g><g id="_Group_4" data-name="&lt;Group&gt;"><path class="cls-7" d="M167.8,2.2a4.5,4.5,0,1,1-4.5,4.5A4.48,4.48,0,0,1,167.8,2.2Zm2.6,4.5a2.5,2.5,0,1,0-2.5,2.5A2.48,2.48,0,0,0,170.4,6.7Z"/><path class="cls-8" d="M167.8,4.2a2.5,2.5,0,1,1-2.5,2.5A2.54,2.54,0,0,1,167.8,4.2Z"/></g><g id="_Group_5" data-name="&lt;Group&gt;"><path class="cls-7" d="M166.8,64.4a4.5,4.5,0,1,1-4.5,4.5A4.36,4.36,0,0,1,166.8,64.4Zm2.5,4.5a2.5,2.5,0,1,0-2.5,2.5A2.48,2.48,0,0,0,169.3,68.9Z"/><path class="cls-8" d="M166.8,66.4a2.5,2.5,0,1,1-2.5,2.5A2.42,2.42,0,0,1,166.8,66.4Z"/></g><path class="cls-9" d="M48.6,33.2h2.6v4.1h3.7a2.4,2.4,0,0,0,1.9-.6,2.44,2.44,0,0,0,.6-1.8V33.2H60v1.6c0,1.8-.6,3-1.9,3.4a1.92,1.92,0,0,1,1.4,1.2,4,4,0,0,1,.4,2v4.8H57.3V41.7a2.89,2.89,0,0,0-.5-1.9,3.09,3.09,0,0,0-1.9-.5H51.3v6.9H48.7v-13Z"/><path class="cls-9" d="M64.3,45.2a4.79,4.79,0,0,1-1.2-3.5V33.2h2.6v8.4a2.93,2.93,0,0,0,.6,2.1,2.81,2.81,0,0,0,2,.6,4.48,4.48,0,0,0,2-.4,6.45,6.45,0,0,0,1.6-1.1V33.2h2.6v13H72.1L72,44.8a6.88,6.88,0,0,1-4.6,1.7A4.44,4.44,0,0,1,64.3,45.2Z"/><path class="cls-9" d="M69.1,29H67.2V27.2h3.7v2.2h5.2L76,31.2H69.1Z"/><path class="cls-9" d="M82.5,38a7.18,7.18,0,0,0-.2-1.7,1.42,1.42,0,0,0-.8-.9,4.18,4.18,0,0,0-1.8-.3,11.14,11.14,0,0,0-1.7.2,7.49,7.49,0,0,0-1.6.5v-2a7.76,7.76,0,0,1,1.8-.5,15,15,0,0,1,2-.2A5.74,5.74,0,0,1,84,34.2a4.59,4.59,0,0,1,1.2,3.6v8.5H82.6V38Z"/><path class="cls-9" d="M88.2,33.2h2.6v4.1h3.7a2.4,2.4,0,0,0,1.9-.6,2.44,2.44,0,0,0,.6-1.8V33.2h2.6v1.6c0,1.8-.6,3-1.9,3.4a1.92,1.92,0,0,1,1.4,1.2,4,4,0,0,1,.4,2v4.8H96.9V41.7a2.89,2.89,0,0,0-.5-1.9,3.09,3.09,0,0,0-1.9-.5H90.9v6.9H88.3v-13Z"/><path class="cls-9" d="M103.5,45.4a3.51,3.51,0,0,1-1.2-3,3.54,3.54,0,0,1,1.3-3,5.82,5.82,0,0,1,3.7-1h4v-.8a3.34,3.34,0,0,0-.3-1.5,2,2,0,0,0-1-.8,5.57,5.57,0,0,0-2-.2,14.21,14.21,0,0,0-4.2.6v-2a14.19,14.19,0,0,1,2.2-.5,19.42,19.42,0,0,1,2.4-.2,6.2,6.2,0,0,1,4.2,1.2,4.64,4.64,0,0,1,1.3,3.7v8.3h-2.6V40.5h-3.8a4.06,4.06,0,0,0-2.1.5,1.81,1.81,0,0,0-.7,1.5,1.75,1.75,0,0,0,.6,1.5,3.52,3.52,0,0,0,2,.4,8.81,8.81,0,0,0,1.7-.2v2a8.75,8.75,0,0,1-2.4.3A5,5,0,0,1,103.5,45.4Z"/><path class="cls-9" d="M108.2,27.7h2.2v1.7h6.2l-.1,1.8h-8.3V27.7Z"/><path class="cls-9" d="M117.1,41.5c0-1.6.6-2.6,1.9-3l-2.6-.6V35.2a8.77,8.77,0,0,1,2.7-1.6,9.89,9.89,0,0,1,3.5-.6,6.8,6.8,0,0,1,4.4,1.2,4.7,4.7,0,0,1,1.5,3.9v8h-2.6V38a2.89,2.89,0,0,0-.8-2.3,4.26,4.26,0,0,0-2.6-.7,7.8,7.8,0,0,0-2.2.3,3.54,3.54,0,0,0-1.6.9v.4l2.7.7V39c-.6.2-1.1.4-1.3.8a2.54,2.54,0,0,0-.4,1.6v4.7h-2.6V41.5Z"/></g></g></g></svg>