<svg xmlns="http://www.w3.org/2000/svg" viewBox="0 0 177.9 75.3"><defs><style>.cls-1{fill:#96804e;}.cls-2{fill:#78673d;}.cls-3{fill:#7c5b35;}.cls-4{fill:#b99d67;}.cls-5{fill:#645028;}.cls-6{fill:#cba75d;}.cls-7{fill:#f8dda0;}.cls-8{fill:#604f2b;}.cls-9{fill:#fff;}</style></defs><title>Asset 3</title><g id="Layer_2" data-name="Layer 2"><g id="Layer_1-2" data-name="Layer 1"><g id="กระบวนการ"><g id="_Group_" data-name="&lt;Group&gt;"><path class="cls-1" d="M177.8,68.4v4.3a2.58,2.58,0,0,1-2.6,2.6h-4.3V72a.27.27,0,0,0,.3-.3V70.1a.27.27,0,0,0-.3-.3h-12V67.6a.27.27,0,0,0,.3-.3V65.7a.27.27,0,0,0-.3-.3V62.1h12a6.75,6.75,0,0,1,6.8,6.5C177.8,68.6,177.8,68.5,177.8,68.4Z"/><path class="cls-1" d="M177.8,61.5v4.3a6.77,6.77,0,0,0-5.5-6.7V59h2.9A2.39,2.39,0,0,1,177.8,61.5Z"/><path class="cls-1" d="M177.8,13.8a2.58,2.58,0,0,1-2.6,2.6h-2.9v-.1a6.87,6.87,0,0,0,5.5-6.7Z"/><path class="cls-2" d="M172.4,58.9Z"/><path class="cls-1" d="M172.4,16.2v.2H171A6.75,6.75,0,0,0,172.4,16.2Z"/><path class="cls-3" d="M171,72H67.4a.27.27,0,0,1-.3-.3V70.1a.27.27,0,0,1,.3-.3H171a.27.27,0,0,1,.3.3v1.6A.27.27,0,0,1,171,72Z"/><path class="cls-1" d="M170,34.9a.22.22,0,0,1,.2.2V54.4a.22.22,0,0,1-.2.2h-.7a.22.22,0,0,1-.2-.2V35.1a.22.22,0,0,1,.2-.2Z"/><path class="cls-3" d="M168.8,6.6H118.7a.27.27,0,0,1-.3-.3V4.7a.27.27,0,0,1,.3-.3h50.1a.27.27,0,0,1,.3.3V6.3A.32.32,0,0,1,168.8,6.6Z"/><path class="cls-1" d="M165.6,39.3V19.7a.27.27,0,0,1,.3-.3h1.6a.27.27,0,0,1,.3.3V39.3a.27.27,0,0,1-.3.3h-1.6Q165.6,39.45,165.6,39.3Z"/><path class="cls-1" d="M167.2,46.9a.32.32,0,0,1,.3.3v3.9a.32.32,0,0,1-.3.3h-1.1a.32.32,0,0,1-.3-.3V47.2a.32.32,0,0,1,.3-.3Z"/><path class="cls-2" d="M167.5,51V47.1a.32.32,0,0,0-.3-.3h-1.1a.32.32,0,0,0-.3.3V51a.32.32,0,0,0,.3.3h1.1A.32.32,0,0,0,167.5,51Zm2.7,3.4V35.1a.22.22,0,0,0-.2-.2h-.7a.22.22,0,0,0-.2.2V54.4a.22.22,0,0,0,.2.2h.7C170.1,54.5,170.2,54.5,170.2,54.4Zm-7.1,4.5V16.4h9.3V58.9h-9.3Zm2.5-19.6a.27.27,0,0,0,.3.3h1.6a.27.27,0,0,0,.3-.3V19.7a.27.27,0,0,0-.3-.3h-1.6a.27.27,0,0,0-.3.3Z"/><path class="cls-4" d="M163.1,58.9H171a6.6,6.6,0,0,1,1.4.1v.9h-12V58.8l2.7.1Z"/><rect class="cls-5" x="160.4" y="16.4" width="2.7" height="42.5"/><path class="cls-2" d="M160.4,15.3h12v.9a6.15,6.15,0,0,1-1.4.1H160.4v-1Z"/><rect class="cls-6" x="17.5" y="16.4" width="142.9" height="42.5"/><path class="cls-3" d="M159,65.4a.27.27,0,0,1,.3.3v1.6a.27.27,0,0,1-.3.3H139.4a.27.27,0,0,1-.3-.3V65.7a.27.27,0,0,1,.3-.3Z"/><path class="cls-3" d="M148.1,10.9H44.5a.27.27,0,0,1-.3-.3V9a.27.27,0,0,1,.3-.3H148.1a.27.27,0,0,1,.3.3v1.6A.27.27,0,0,1,148.1,10.9Z"/><path class="cls-3" d="M130.7,64.4a.27.27,0,0,1,.3.3v1.6a.27.27,0,0,1-.3.3H27.1a.27.27,0,0,1-.3-.3V64.7a.27.27,0,0,1,.3-.3Z"/><path class="cls-3" d="M107.8,5.5H4.2a.27.27,0,0,1-.3-.3V3.6a.27.27,0,0,1,.3-.3H107.8a.27.27,0,0,1,.3.3V5.2A.45.45,0,0,1,107.8,5.5Z"/><path class="cls-3" d="M56.5,70.9H6.4a.27.27,0,0,1-.3-.3V69a.27.27,0,0,1,.3-.3H56.5a.27.27,0,0,1,.3.3v1.6A.27.27,0,0,1,56.5,70.9Z"/><path class="cls-1" d="M27.1,66.5H130.7a.27.27,0,0,0,.3-.3V64.6a.27.27,0,0,0-.3-.3H27.1a.27.27,0,0,0-.3.3v1.6A.27.27,0,0,0,27.1,66.5ZM171,75.3H2.6A2.58,2.58,0,0,1,0,72.7v-4a6.75,6.75,0,0,1,6.8-6.5H158.9v3.3H139.3a.27.27,0,0,0-.3.3v1.6a.27.27,0,0,0,.3.3h19.6v2.2H67.3a.27.27,0,0,0-.3.3v1.6a.27.27,0,0,0,.3.3H170.9l.1,3.2ZM56.5,68.7H6.4a.27.27,0,0,0-.3.3v1.6a.27.27,0,0,0,.3.3H56.5a.27.27,0,0,0,.3-.3V69A.32.32,0,0,0,56.5,68.7Z"/><path class="cls-3" d="M35.8,7.6a.27.27,0,0,1,.3.3V9.5a.27.27,0,0,1-.3.3H16.2a.27.27,0,0,1-.3-.3V7.9a.27.27,0,0,1,.3-.3Z"/><polygon class="cls-5" points="17.5 16.4 17.5 58.9 14.8 58.9 14.8 50.2 14.8 16.4 17.5 16.4"/><path class="cls-2" d="M17.5,15.3v1.1H6.9a6.6,6.6,0,0,1-1.4-.1v-.9l12-.1Z"/><path class="cls-1" d="M118.7,6.6h50.1a.27.27,0,0,0,.3-.3V4.7a.27.27,0,0,0-.3-.3H118.7a.27.27,0,0,0-.3.3V6.3A.32.32,0,0,0,118.7,6.6ZM35.8,9.8a.27.27,0,0,0,.3-.3V7.9a.27.27,0,0,0-.3-.3H16.2a.27.27,0,0,0-.3.3V9.5a.27.27,0,0,0,.3.3Zm8.7,1.1H148.1a.27.27,0,0,0,.3-.3V9a.27.27,0,0,0-.3-.3H44.5a.27.27,0,0,0-.3.3v1.6Q44.35,10.9,44.5,10.9ZM2.6,0H175.3a2.58,2.58,0,0,1,2.6,2.6v4a6.82,6.82,0,0,1-6.8,6.5H6.9A6.75,6.75,0,0,1,.1,6.6v-4A2.56,2.56,0,0,1,2.6,0ZM107.8,3.3H4.2a.27.27,0,0,0-.3.3V5.2a.27.27,0,0,0,.3.3H107.8a.27.27,0,0,0,.3-.3V3.6A.32.32,0,0,0,107.8,3.3Z"/><path class="cls-4" d="M14.8,58.9V60H5.5v-.9A6.15,6.15,0,0,1,6.9,59l7.9-.1Z"/><path class="cls-1" d="M11.9,40.4a.22.22,0,0,1,.2.2v9.7a.22.22,0,0,1-.2.2h-1a.22.22,0,0,1-.2-.2V40.6c0-.1,0-.1.1-.2l.1-.1,1,.1Z"/><path class="cls-2" d="M14.8,16.4V50.3H12.1V40.6a.22.22,0,0,0-.2-.2h-1c-.1,0-.1,0-.1.1L9.7,39.3a.22.22,0,0,0,.2-.2V19.8a.22.22,0,0,0-.2-.2V16.4Z"/><path class="cls-2" d="M5.5,58.9V16.4H9.7v3.3H9a.22.22,0,0,0-.2.2V39.2a.22.22,0,0,0,.2.2h.7l1.1,1.2a.35.35,0,0,0-.1.2v9.7a.22.22,0,0,0,.2.2h.9a.22.22,0,0,0,.2-.2h2.7v8.7H5.5Z"/><path class="cls-1" d="M9.7,19.6a.22.22,0,0,1,.2.2V39.1a.22.22,0,0,1-.2.2H9a.22.22,0,0,1-.2-.2V19.8a.22.22,0,0,1,.2-.2Z"/><path class="cls-1" d="M6.9,16.4H5.5v-.1C6,16.3,6.4,16.4,6.9,16.4Z"/><path class="cls-2" d="M5.5,58.9h0Z"/><path class="cls-1" d="M5.5,58.9h0A7.06,7.06,0,0,0,0,65.7V61.4a2.58,2.58,0,0,1,2.6-2.6H5.5Z"/><path class="cls-1" d="M5.5,16.2v.2H2.6A2.58,2.58,0,0,1,0,13.8V9.5A7,7,0,0,0,5.5,16.2Z"/><path class="cls-2" d="M17.5,15.3H5.5v.9A6.87,6.87,0,0,1,0,9.5v-3A6.75,6.75,0,0,0,6.8,13H170.9a6.75,6.75,0,0,0,6.8-6.5v3a6.77,6.77,0,0,1-5.5,6.7v-.9h-12v1.1H17.5Z"/><path class="cls-4" d="M5.5,60h12V58.9H160.4V60h12v-.9a6.87,6.87,0,0,1,5.5,6.7v3a6.82,6.82,0,0,0-6.8-6.5H6.9A6.75,6.75,0,0,0,.1,68.8v-3a6.77,6.77,0,0,1,5.5-6.7V60Z"/></g><g id="_Group_2" data-name="&lt;Group&gt;"><path class="cls-7" d="M10.8,4.2A2.5,2.5,0,1,1,8.3,6.7,2.54,2.54,0,0,1,10.8,4.2Z"/><path class="cls-8" d="M10.8,2.2A4.5,4.5,0,1,1,6.3,6.7,4.48,4.48,0,0,1,10.8,2.2Zm2.5,4.5a2.5,2.5,0,1,0-2.5,2.5A2.42,2.42,0,0,0,13.3,6.7Z"/></g><g id="_Group_3" data-name="&lt;Group&gt;"><path class="cls-7" d="M9.7,66.4a2.5,2.5,0,1,1-2.5,2.5A2.48,2.48,0,0,1,9.7,66.4Z"/><path class="cls-8" d="M12.2,68.9a2.5,2.5,0,1,0-2.5,2.5A2.48,2.48,0,0,0,12.2,68.9ZM9.7,64.4a4.5,4.5,0,1,1-4.5,4.5A4.48,4.48,0,0,1,9.7,64.4Z"/></g><g id="_Group_4" data-name="&lt;Group&gt;"><path class="cls-7" d="M167.8,4.2a2.5,2.5,0,1,1-2.5,2.5A2.61,2.61,0,0,1,167.8,4.2Z"/><path class="cls-8" d="M167.8,9.3a2.5,2.5,0,1,0-2.5-2.5A2.61,2.61,0,0,0,167.8,9.3Zm4.6-2.6a4.5,4.5,0,1,1-4.5-4.5A4.48,4.48,0,0,1,172.4,6.7Z"/></g><g id="_Group_5" data-name="&lt;Group&gt;"><path class="cls-7" d="M166.7,66.4a2.5,2.5,0,1,1-2.5,2.5A2.54,2.54,0,0,1,166.7,66.4Z"/><path class="cls-8" d="M171.3,68.9a4.5,4.5,0,1,1-4.5-4.5A4.48,4.48,0,0,1,171.3,68.9Zm-4.6-2.5a2.5,2.5,0,1,0,2.5,2.5A2.36,2.36,0,0,0,166.7,66.4Z"/></g><path class="cls-9" d="M33.8,40.6c0-1.6.6-2.6,1.9-3L33.1,37V34.3a8.77,8.77,0,0,1,2.7-1.6,9.89,9.89,0,0,1,3.5-.6,6.8,6.8,0,0,1,4.4,1.2,4.7,4.7,0,0,1,1.5,3.9v8H42.6V37.1a2.89,2.89,0,0,0-.8-2.3,4.26,4.26,0,0,0-2.6-.7,7.8,7.8,0,0,0-2.2.3,3.54,3.54,0,0,0-1.6.9v.4l2.7.7v1.7c-.6.2-1.1.4-1.3.8a2.54,2.54,0,0,0-.4,1.6v4.7H33.8V40.6Z"/><path class="cls-9" d="M50.1,45.3a7.39,7.39,0,0,1-1.9-.5V42.6c.6.2,1.2.4,1.9.6a15,15,0,0,0,2,.2,7.25,7.25,0,0,0,2.5-.3,1.13,1.13,0,0,0,.7-1.2A1.22,1.22,0,0,0,55,41a5.55,5.55,0,0,0-.8-.6c-.3-.1-.9-.3-1.6-.6l-.9-.3A7.11,7.11,0,0,1,48.8,38a2.93,2.93,0,0,1-1-2.3A3,3,0,0,1,49.1,33,7,7,0,0,1,53,32a14.92,14.92,0,0,1,2.1.2,8,8,0,0,1,1.8.4v2.2c-.5-.2-1.1-.3-1.7-.5a12.37,12.37,0,0,0-1.8-.2,6.71,6.71,0,0,0-2.3.3,1.21,1.21,0,0,0-.8,1.2,1.14,1.14,0,0,0,.3.8,3.49,3.49,0,0,0,.9.6,8,8,0,0,0,1.7.6l.7.2a10.28,10.28,0,0,1,3,1.5,3.24,3.24,0,0,1,.9,2.4,3.07,3.07,0,0,1-1.4,2.7,7,7,0,0,1-3.9.9A6.46,6.46,0,0,1,50.1,45.3Z"/><path class="cls-9" d="M60,34.2h2.2v1.2h3.5l-.1,1.9H59.9l.1-3.1Zm0,6.5h2.2v1.2h3.5l-.1,1.9H59.9l.1-3.1Z"/><path class="cls-9" d="M69.8,44.1a5,5,0,0,1-1.5-3.9V32.3h2.6v8a3,3,0,0,0,.8,2.3,4.31,4.31,0,0,0,5,0,2.82,2.82,0,0,0,.8-2.3v-8h2.6v7.9a4.84,4.84,0,0,1-1.5,3.9,6.43,6.43,0,0,1-4.4,1.3A6,6,0,0,1,69.8,44.1Z"/><path class="cls-9" d="M82.4,44.8V42.7a7.84,7.84,0,0,0,3.3.7,6,6,0,0,0,2.6-.5,2.94,2.94,0,0,0,1.4-1.5,7,7,0,0,0,.4-2.7,5.17,5.17,0,0,0-1-3.6A4.62,4.62,0,0,0,85.7,34a7.11,7.11,0,0,0-3.2.7V32.6a9.2,9.2,0,0,1,3.8-.7,6.52,6.52,0,0,1,4.8,1.7c1.1,1.1,1.6,2.8,1.6,5a7.29,7.29,0,0,1-1.5,5,6.21,6.21,0,0,1-4.8,1.7A8.49,8.49,0,0,1,82.4,44.8Z"/><path class="cls-9" d="M96.2,44.2A4.79,4.79,0,0,1,95,40.7V32.2h2.6v8.4a2.93,2.93,0,0,0,.6,2.1,2.81,2.81,0,0,0,2,.6,4.48,4.48,0,0,0,2-.4,6.45,6.45,0,0,0,1.6-1.1V32.2h2.6v13H104l-.1-1.4a6.88,6.88,0,0,1-4.6,1.7A4,4,0,0,1,96.2,44.2Z"/><path class="cls-9" d="M109.8,40.6c0-1.6.6-2.6,1.9-3l-2.6-.6V34.3a8.77,8.77,0,0,1,2.7-1.6,9.89,9.89,0,0,1,3.5-.6,6.8,6.8,0,0,1,4.4,1.2,4.7,4.7,0,0,1,1.5,3.9v8h-2.6V37.1a2.89,2.89,0,0,0-.8-2.3,4.26,4.26,0,0,0-2.6-.7,7.8,7.8,0,0,0-2.2.3,3.54,3.54,0,0,0-1.6.9v.4l2.7.7v1.7c-.6.2-1.1.4-1.3.8a2.54,2.54,0,0,0-.4,1.6v4.7h-2.6V40.6Z"/><path class="cls-9" d="M129.2,37.1a7.18,7.18,0,0,0-.2-1.7,1.42,1.42,0,0,0-.8-.9,4.18,4.18,0,0,0-1.8-.3,11.14,11.14,0,0,0-1.7.2,7.49,7.49,0,0,0-1.6.5v-2a7.76,7.76,0,0,1,1.8-.5,15,15,0,0,1,2-.2,5.74,5.74,0,0,1,3.8,1.1,4.74,4.74,0,0,1,1.2,3.6v8.5h-2.6V37.1Z"/><path class="cls-9" d="M136.6,45.3a7.39,7.39,0,0,1-1.9-.5V42.6c.6.2,1.2.4,1.9.6a15,15,0,0,0,2,.2,7.25,7.25,0,0,0,2.5-.3,1.13,1.13,0,0,0,.7-1.2,1.22,1.22,0,0,0-.3-.9,5.55,5.55,0,0,0-.8-.6c-.3-.1-.9-.3-1.6-.6l-.9-.3a7.11,7.11,0,0,1-2.9-1.5,2.93,2.93,0,0,1-1-2.3,3,3,0,0,1,1.3-2.7,7,7,0,0,1,3.9-1,14.92,14.92,0,0,1,2.1.2,8,8,0,0,1,1.8.4v2.2c-.5-.2-1.1-.3-1.7-.5a12.37,12.37,0,0,0-1.8-.2,6.71,6.71,0,0,0-2.3.3,1.21,1.21,0,0,0-.8,1.2,1.14,1.14,0,0,0,.3.8,3.49,3.49,0,0,0,.9.6,8,8,0,0,0,1.7.6l.7.2a10.28,10.28,0,0,1,3,1.5,3.24,3.24,0,0,1,.9,2.4,3.07,3.07,0,0,1-1.4,2.7,7,7,0,0,1-3.9.9A6.46,6.46,0,0,1,136.6,45.3Z"/></g></g></g></svg>