<svg xmlns="http://www.w3.org/2000/svg" viewBox="0 0 177.8 75.3"><defs><style>.cls-1{fill:#96804e;}.cls-2{fill:#b99d67;}.cls-3{fill:#78673d;}.cls-4{fill:#7c5b35;}.cls-5{fill:#645028;}.cls-6{fill:#cba75d;}.cls-7{fill:#604f2b;}.cls-8{fill:#f8dda0;}.cls-9{fill:#fff;}</style></defs><title>Asset 7</title><g id="Layer_2" data-name="Layer 2"><g id="Layer_1-2" data-name="Layer 1"><g id="ติดต่อป้าย"><g id="_Group_" data-name="&lt;Group&gt;"><path class="cls-1" d="M177.8,68.4v4.3a2.58,2.58,0,0,1-2.6,2.6h-4.3V72a.27.27,0,0,0,.3-.3V70.1a.27.27,0,0,0-.3-.3h-12V67.6a.27.27,0,0,0,.3-.3V65.7a.27.27,0,0,0-.3-.3V62.1h12a6.75,6.75,0,0,1,6.8,6.5C177.8,68.6,177.8,68.5,177.8,68.4Z"/><path class="cls-2" d="M177.8,65.7v3a6.75,6.75,0,0,0-6.8-6.5H6.9A6.75,6.75,0,0,0,.1,68.7v-3A6.77,6.77,0,0,1,5.6,59v.9h12V58.8H160.5v1.1h12V59A6.88,6.88,0,0,1,177.8,65.7Z"/><path class="cls-1" d="M177.8,61.5v4.3a6.77,6.77,0,0,0-5.5-6.7V59h2.9A2.39,2.39,0,0,1,177.8,61.5Z"/><path class="cls-1" d="M177.8,9.6v4.3a2.58,2.58,0,0,1-2.6,2.6h-2.9v-.1A7,7,0,0,0,177.8,9.6Z"/><path class="cls-3" d="M177.8,6.8V9.5a6.77,6.77,0,0,1-5.5,6.7v-.9h-12v1.1H17.5V15.3H5.5v.9A6.87,6.87,0,0,1,0,9.5v-3A6.82,6.82,0,0,0,6.8,13H170.9a6.75,6.75,0,0,0,6.8-6.5A.37.37,0,0,1,177.8,6.8Z"/><path class="cls-1" d="M177.8,2.6v4a6.75,6.75,0,0,1-6.8,6.5H6.9A6.75,6.75,0,0,1,.1,6.6v-4A2.58,2.58,0,0,1,2.7,0H175.4A2.55,2.55,0,0,1,177.8,2.6Zm-8.7,3.7V4.7a.27.27,0,0,0-.3-.3H118.7a.27.27,0,0,0-.3.3V6.3a.27.27,0,0,0,.3.3h50.1A.32.32,0,0,0,169.1,6.3Zm-20.7,4.3V9a.27.27,0,0,0-.3-.3H44.5a.27.27,0,0,0-.3.3v1.6a.27.27,0,0,0,.3.3H148.1A.27.27,0,0,0,148.4,10.6ZM108,5.2V3.6a.27.27,0,0,0-.3-.3H4.2a.27.27,0,0,0-.3.3V5.2a.27.27,0,0,0,.3.3H107.8C107.9,5.5,108,5.3,108,5.2ZM36.1,9.5V7.9a.27.27,0,0,0-.3-.3H16.2a.27.27,0,0,0-.3.3V9.5a.27.27,0,0,0,.3.3H35.8A.32.32,0,0,0,36.1,9.5Z"/><path class="cls-2" d="M163.1,58.9H171a6.6,6.6,0,0,1,1.4.1v.9h-12V58.8l2.7.1Z"/><path class="cls-3" d="M172.4,58.9V59a6.15,6.15,0,0,0-1.4-.1Z"/><path class="cls-3" d="M172.4,16.4V58.9h-9.3V16.4h9.3Zm-2.2,38V35.1a.22.22,0,0,0-.2-.2h-.7a.22.22,0,0,0-.2.2V54.4a.22.22,0,0,0,.2.2h.7C170.1,54.5,170.2,54.5,170.2,54.4Zm-2.4-15.1V19.7a.27.27,0,0,0-.3-.3h-1.6a.27.27,0,0,0-.3.3V39.3a.27.27,0,0,0,.3.3h1.6C167.6,39.5,167.8,39.4,167.8,39.3ZM167.5,51V47.2a.32.32,0,0,0-.3-.3h-1.1a.32.32,0,0,0-.3.3V51a.32.32,0,0,0,.3.3h1.1A.27.27,0,0,0,167.5,51Z"/><path class="cls-1" d="M172.4,16.2v.2H171A6.75,6.75,0,0,0,172.4,16.2Z"/><path class="cls-3" d="M163.1,16.4h-2.7V15.3h12v.9a6.15,6.15,0,0,1-1.4.1l-7.9.1Z"/><path class="cls-4" d="M171.3,70.1v1.6a.27.27,0,0,1-.3.3H67.4a.27.27,0,0,1-.3-.3V70.1a.27.27,0,0,1,.3-.3H171A.27.27,0,0,1,171.3,70.1Z"/><path class="cls-1" d="M171,72v3.3H2.6A2.58,2.58,0,0,1,0,72.7v-4a6.82,6.82,0,0,1,6.8-6.5H158.9v3.3H139.3a.27.27,0,0,0-.3.3v1.6a.27.27,0,0,0,.3.3h19.6v2.2H67.3a.27.27,0,0,0-.3.3v1.6a.27.27,0,0,0,.3.3H171V72Zm-40-5.7V64.7a.27.27,0,0,0-.3-.3H27.1a.27.27,0,0,0-.3.3v1.6a.27.27,0,0,0,.3.3H130.7C130.8,66.5,131,66.4,131,66.3ZM56.8,70.6V69a.27.27,0,0,0-.3-.3H6.4a.27.27,0,0,0-.3.3v1.6a.27.27,0,0,0,.3.3H56.5A.27.27,0,0,0,56.8,70.6Z"/><path class="cls-1" d="M170.2,35.1V54.4a.22.22,0,0,1-.2.2h-.7a.22.22,0,0,1-.2-.2V35.1a.22.22,0,0,1,.2-.2h.7A.22.22,0,0,1,170.2,35.1Z"/><path class="cls-4" d="M169.1,4.7V6.3a.27.27,0,0,1-.3.3H118.7a.27.27,0,0,1-.3-.3V4.7a.27.27,0,0,1,.3-.3h50.1A.27.27,0,0,1,169.1,4.7Z"/><path class="cls-1" d="M167.8,19.7V39.3a.27.27,0,0,1-.3.3h-1.6a.27.27,0,0,1-.3-.3V19.7a.27.27,0,0,1,.3-.3h1.6A.32.32,0,0,1,167.8,19.7Z"/><path class="cls-1" d="M167.5,47.2V51a.32.32,0,0,1-.3.3h-1.1a.32.32,0,0,1-.3-.3V47.2a.32.32,0,0,1,.3-.3h1.1A.27.27,0,0,1,167.5,47.2Z"/><rect class="cls-5" x="160.4" y="16.4" width="2.7" height="42.5"/><rect class="cls-6" x="17.5" y="16.4" width="142.9" height="42.5"/><path class="cls-4" d="M159.3,65.7v1.6a.27.27,0,0,1-.3.3H139.4a.27.27,0,0,1-.3-.3V65.7a.27.27,0,0,1,.3-.3H159A.32.32,0,0,1,159.3,65.7Z"/><path class="cls-4" d="M148.4,9v1.6a.27.27,0,0,1-.3.3H44.5a.27.27,0,0,1-.3-.3V9a.27.27,0,0,1,.3-.3H148.1A.32.32,0,0,1,148.4,9Z"/><path class="cls-4" d="M131,64.6v1.6a.27.27,0,0,1-.3.3H27.1a.27.27,0,0,1-.3-.3V64.6a.27.27,0,0,1,.3-.3H130.7C130.8,64.4,131,64.5,131,64.6Z"/><path class="cls-4" d="M108,3.6V5.2a.27.27,0,0,1-.3.3H4.2a.27.27,0,0,1-.3-.3V3.6a.27.27,0,0,1,.3-.3H107.8C107.9,3.3,108,3.4,108,3.6Z"/><path class="cls-4" d="M56.8,69v1.6a.27.27,0,0,1-.3.3H6.4a.27.27,0,0,1-.3-.3V69a.27.27,0,0,1,.3-.3H56.5A.27.27,0,0,1,56.8,69Z"/><path class="cls-4" d="M36.1,7.9V9.5a.27.27,0,0,1-.3.3H16.2a.27.27,0,0,1-.3-.3V7.9a.27.27,0,0,1,.3-.3H35.8A.45.45,0,0,1,36.1,7.9Z"/><polygon class="cls-5" points="17.5 16.4 17.5 58.9 14.8 58.9 14.8 50.2 14.8 16.4 17.5 16.4"/><path class="cls-3" d="M17.5,15.3v1.1H6.9a6.6,6.6,0,0,1-1.4-.1v-.9l12-.1Z"/><path class="cls-2" d="M14.8,58.9V60H5.5v-.9A6.15,6.15,0,0,1,6.9,59h7.9Z"/><path class="cls-3" d="M14.8,50.2v8.7H5.5V16.4H9.7v3.3H9a.22.22,0,0,0-.2.2V39.2a.22.22,0,0,0,.2.2h.7l1.1,1.2a.35.35,0,0,0-.1.2v9.7a.22.22,0,0,0,.2.2h.9a.22.22,0,0,0,.2-.2h2.8Z"/><path class="cls-3" d="M14.8,16.4V50.3H12.1V40.6a.22.22,0,0,0-.2-.2h-1c-.1,0-.1,0-.2.1L9.6,39.3a.22.22,0,0,0,.2-.2V19.8a.22.22,0,0,0-.2-.2V16.4h5.2Z"/><path class="cls-1" d="M12.1,40.6v9.7a.22.22,0,0,1-.2.2h-1a.22.22,0,0,1-.2-.2V40.6c0-.1,0-.1.1-.2a.35.35,0,0,1,.2-.1h.9C12,40.4,12.1,40.5,12.1,40.6Z"/><path class="cls-1" d="M9.9,19.8V39.1a.22.22,0,0,1-.2.2H9a.22.22,0,0,1-.2-.2V19.8a.22.22,0,0,1,.2-.2h.7A.22.22,0,0,1,9.9,19.8Z"/><path class="cls-1" d="M6.9,16.4H5.5v-.1C6,16.3,6.4,16.4,6.9,16.4Z"/><path class="cls-3" d="M5.5,58.9H6.9a6.6,6.6,0,0,0-1.4.1Z"/><path class="cls-1" d="M5.5,58.9V59A6.87,6.87,0,0,0,0,65.7V61.4a2.58,2.58,0,0,1,2.6-2.6H5.5Z"/><path class="cls-1" d="M5.5,16.2v.2H2.6A2.58,2.58,0,0,1,0,13.8V9.5A6.88,6.88,0,0,0,5.5,16.2Z"/></g><g id="_Group_2" data-name="&lt;Group&gt;"><path class="cls-7" d="M10.8,2.2A4.5,4.5,0,1,1,6.3,6.7,4.48,4.48,0,0,1,10.8,2.2Zm2.5,4.5a2.5,2.5,0,1,0-2.5,2.5A2.42,2.42,0,0,0,13.3,6.7Z"/><path class="cls-8" d="M10.8,4.2A2.5,2.5,0,1,1,8.3,6.7,2.48,2.48,0,0,1,10.8,4.2Z"/></g><g id="_Group_3" data-name="&lt;Group&gt;"><path class="cls-7" d="M9.7,64.4a4.5,4.5,0,1,1-4.5,4.5A4.48,4.48,0,0,1,9.7,64.4Zm2.5,4.5a2.5,2.5,0,1,0-2.5,2.5A2.48,2.48,0,0,0,12.2,68.9Z"/><path class="cls-8" d="M9.7,66.4a2.5,2.5,0,1,1-2.5,2.5A2.48,2.48,0,0,1,9.7,66.4Z"/></g><g id="_Group_4" data-name="&lt;Group&gt;"><path class="cls-7" d="M167.8,2.2a4.5,4.5,0,1,1-4.5,4.5A4.48,4.48,0,0,1,167.8,2.2Zm2.6,4.5a2.5,2.5,0,1,0-2.5,2.5A2.48,2.48,0,0,0,170.4,6.7Z"/><path class="cls-8" d="M167.8,4.2a2.5,2.5,0,1,1-2.5,2.5A2.54,2.54,0,0,1,167.8,4.2Z"/></g><g id="_Group_5" data-name="&lt;Group&gt;"><path class="cls-7" d="M166.8,64.4a4.5,4.5,0,1,1-4.5,4.5A4.36,4.36,0,0,1,166.8,64.4Zm2.5,4.5a2.5,2.5,0,1,0-2.5,2.5A2.54,2.54,0,0,0,169.3,68.9Z"/><path class="cls-8" d="M166.8,66.4a2.5,2.5,0,1,1-2.5,2.5A2.42,2.42,0,0,1,166.8,66.4Z"/></g><path class="cls-9" d="M64.6,44.8c-1-1.1-1.4-2.7-1.4-4.9a10.16,10.16,0,0,1,1.1-5.1A3.5,3.5,0,0,1,67.5,33a3.34,3.34,0,0,1,1.5.3,4.36,4.36,0,0,1,1.1.9,3,3,0,0,1,1.3-.9,4.67,4.67,0,0,1,1.7-.3,2.87,2.87,0,0,1,2.3.9,4,4,0,0,1,.8,2.6v9.7H73.6V36.9a2.65,2.65,0,0,0-.3-1.4,1.05,1.05,0,0,0-1-.4,1.61,1.61,0,0,0-.9.3,1.56,1.56,0,0,0-.6.8H69.4a3.49,3.49,0,0,0-.6-.9,1.22,1.22,0,0,0-.9-.3,1.59,1.59,0,0,0-1.6,1.2,10.63,10.63,0,0,0-.5,3.6,5.85,5.85,0,0,0,.8,3.4,2.72,2.72,0,0,0,2.4,1,7.18,7.18,0,0,0,1.7-.2v2a5.84,5.84,0,0,1-2.1.3A5,5,0,0,1,64.6,44.8Z"/><path class="cls-9" d="M66.2,29.4h9.9v1.8h-10Z"/><path class="cls-9" d="M80.1,44.8c-1-1.1-1.4-2.7-1.4-4.9a7.29,7.29,0,0,1,1.7-5.1A6.42,6.42,0,0,1,85.3,33a7.28,7.28,0,0,1,3.5.7,5.54,5.54,0,0,1,2.1,1.9,4.84,4.84,0,0,1,.7,2.6v7.9H89V38.3a3.24,3.24,0,0,0-.9-2.4,3.77,3.77,0,0,0-2.8-.9,3.85,3.85,0,0,0-3.1,1.2,5.34,5.34,0,0,0-1,3.6,5.85,5.85,0,0,0,.8,3.4,2.72,2.72,0,0,0,2.4,1,7.18,7.18,0,0,0,1.7-.2v2a5.84,5.84,0,0,1-2.1.3A4.91,4.91,0,0,1,80.1,44.8Z"/><path class="cls-9" d="M95.6,44.8c-1-1.1-1.4-2.7-1.4-4.9a10.16,10.16,0,0,1,1.1-5.1A3.5,3.5,0,0,1,98.5,33a3.34,3.34,0,0,1,1.5.3,4.36,4.36,0,0,1,1.1.9,3,3,0,0,1,1.3-.9,4.67,4.67,0,0,1,1.7-.3,2.87,2.87,0,0,1,2.3.9,4,4,0,0,1,.8,2.6v9.7h-2.6V36.9a2.65,2.65,0,0,0-.3-1.4,1.05,1.05,0,0,0-1-.4,1.61,1.61,0,0,0-.9.3,1.56,1.56,0,0,0-.6.8h-1.4a3.49,3.49,0,0,0-.6-.9,1.22,1.22,0,0,0-.9-.3,1.59,1.59,0,0,0-1.6,1.2,10.63,10.63,0,0,0-.5,3.6,5.85,5.85,0,0,0,.8,3.4,2.72,2.72,0,0,0,2.4,1,7.18,7.18,0,0,0,1.7-.2v2a5.84,5.84,0,0,1-2.1.3A4.75,4.75,0,0,1,95.6,44.8Z"/><path class="cls-9" d="M104.4,27.3H107v3.9h-2.6Z"/><path class="cls-9" d="M112.1,46.1a10.49,10.49,0,0,1-2.3-.7V38.7h5.1l.1,2h-2.7v3.1a6.77,6.77,0,0,0,2.6.4,5,5,0,0,0,2.3-.4,2.36,2.36,0,0,0,1.2-1.4,7,7,0,0,0,.4-2.7,7.22,7.22,0,0,0-.4-2.8,2.73,2.73,0,0,0-1.4-1.4,6.68,6.68,0,0,0-2.7-.4,14.41,14.41,0,0,0-4.3.6v-2a13.16,13.16,0,0,1,2.3-.5,22.75,22.75,0,0,1,2.6-.2,6.46,6.46,0,0,1,4.9,1.7q1.5,1.65,1.5,5.1a7.29,7.29,0,0,1-1.5,5,6.46,6.46,0,0,1-4.9,1.7A27,27,0,0,1,112.1,46.1Z"/></g></g></g></svg>