<svg xmlns="http://www.w3.org/2000/svg" viewBox="0 0 199.04 101.74"><defs><style>.cls-1{fill:#9baa93;}.cls-2{fill:#96804e;}.cls-3{fill:#78673d;}.cls-4{fill:#7c5b35;}.cls-5{fill:#b99d67;}.cls-6{fill:#645028;}.cls-7{fill:#fccf05;}.cls-8{fill:#f8dda0;}.cls-9{fill:#604f2b;}.cls-10{fill:#e97625;}</style></defs><title>Asset 10</title><g id="Layer_2" data-name="Layer 2"><g id="Layer_1-2" data-name="Layer 1"><g id="กระบวนการกด"><path class="cls-1" d="M191.81,88.71l-158.3,13a7.86,7.86,0,0,1-8.5-7.2l-5.5-66.6a7.86,7.86,0,0,1,7.2-8.5L185,6.41a7.86,7.86,0,0,1,8.5,7.2l5.5,66.6A7.79,7.79,0,0,1,191.81,88.71Z"/><g id="_Group_" data-name="&lt;Group&gt;"><path class="cls-2" d="M192.91,71.91l.4,4.5a2.7,2.7,0,0,1-2.5,2.9l-4.5.4-.3-3.4a.32.32,0,0,0,.3-.3l-.1-1.7a.32.32,0,0,0-.3-.3l-12.6,1-.2-2.3a.32.32,0,0,0,.3-.3l-.1-1.7a.32.32,0,0,0-.3-.3l-.3-3.4,12.6-1a7.13,7.13,0,0,1,7.7,6.3A.76.76,0,0,1,192.91,71.91Z"/><path class="cls-2" d="M192.31,64.61l.4,4.5a7.24,7.24,0,0,0-6.3-6.6v-.1l3.1-.3A2.67,2.67,0,0,1,192.31,64.61Z"/><path class="cls-2" d="M188.21,14.41a2.7,2.7,0,0,1-2.5,2.9l-3.1.3v-.1a7.29,7.29,0,0,0,5.2-7.5Z"/><path class="cls-3" d="M186.31,62.41v.1a3.29,3.29,0,0,0-1.4,0Z"/><path class="cls-2" d="M182.61,17.41v.1l-1.4.1A3.18,3.18,0,0,0,182.61,17.41Z"/><path class="cls-4" d="M185.81,74a.27.27,0,0,1,.3.3l.1,1.7a.27.27,0,0,1-.3.3l-109.1,9a.27.27,0,0,1-.3-.3l-.1-1.7a.27.27,0,0,1,.3-.3l96.4-7.9Z"/><path class="cls-2" d="M181.81,37.31a.22.22,0,0,1,.2.2l1.7,20.3a.22.22,0,0,1-.2.2l-.8.1a.22.22,0,0,1-.2-.2l-1.7-20.3a.22.22,0,0,1,.2-.2Z"/><path class="cls-4" d="M178,7.51l-52.7,4.4a.27.27,0,0,1-.3-.3l-.1-1.7a.27.27,0,0,1,.3-.3L178,5.31a.27.27,0,0,1,.3.3l.1,1.7A.52.52,0,0,1,178,7.51Z"/><path class="cls-2" d="M179.71,42.11a.27.27,0,0,1-.3.3l-1.7.1a.27.27,0,0,1-.3-.3l-1.7-20.6a.27.27,0,0,1,.3-.3l1.7-.1a.27.27,0,0,1,.3.3Z"/><path class="cls-2" d="M179.91,50.21a.32.32,0,0,1,.3.3l.3,4.1c0,.1-.1.3-.2.3l-1.2.1c-.1,0-.3-.1-.3-.2l-.3-4.1a.32.32,0,0,1,.3-.3Z"/><path class="cls-3" d="M183.61,57.81l-1.7-20.3a.22.22,0,0,0-.2-.2l-.8.1a.22.22,0,0,0-.2.2l1.7,20.3a.22.22,0,0,0,.2.2l.8-.1C183.61,58,183.61,57.91,183.61,57.81Zm-5.9-36.6-1.7.1a.32.32,0,0,0-.3.3l1.7,20.6a.32.32,0,0,0,.3.3l1.7-.1a.32.32,0,0,0,.3-.3L178,21.51C178,21.31,177.91,21.11,177.71,21.21Zm2.4,29.2a.32.32,0,0,0-.3-.3l-1.2.1a.32.32,0,0,0-.3.3l.3,4.1c0,.1.1.3.3.2l1.2-.1c.1,0,.3-.1.2-.3Zm-7.2-32,8.3-.7,1.4-.1,3.7,44.8-1.4.1-8.3.7Z"/><path class="cls-5" d="M176.61,63.21l8.3-.7h1.4l.1,1-12.6,1-.1-1.1Z"/><rect class="cls-6" x="171.78" y="18.39" width="2.9" height="44.9" transform="matrix(1, -0.08, 0.08, 1, -2.77, 14.34)"/><path class="cls-3" d="M181.21,17.71l-8.3.7-2.9.2-.1-1.1,12.6-1,.1,1C182.21,17.61,181.71,17.61,181.21,17.71Z"/><rect class="cls-7" x="21.19" y="24.69" width="150.9" height="44.9" transform="matrix(1, -0.08, 0.08, 1, -3.54, 8.08)"/><path class="cls-4" d="M172.81,70.41a.27.27,0,0,1,.3.3l.1,1.7a.27.27,0,0,1-.3.3l-20.6,1.7a.27.27,0,0,1-.3-.3l-.1-1.7a.27.27,0,0,1,.3-.3Z"/><path class="cls-4" d="M156.41,11.61a.27.27,0,0,1,.3.3l.1,1.7a.27.27,0,0,1-.3.3l-109.1,9a.27.27,0,0,1-.3-.3l-.1-1.7a.27.27,0,0,1,.3-.3Z"/><path class="cls-4" d="M142.91,71.71a.27.27,0,0,1,.3.3l.1,1.7a.27.27,0,0,1-.3.3L33.91,83a.27.27,0,0,1-.3-.3l-.1-1.7a.27.27,0,0,1,.3-.3Z"/><path class="cls-4" d="M113.51,9.41a.27.27,0,0,1,.3.3l.1,1.7a.27.27,0,0,1-.3.3l-109.1,9a.27.27,0,0,1-.3-.3l-.1-1.7a.27.27,0,0,1,.3-.3Z"/><path class="cls-4" d="M65.31,85l-52.8,4.3a.27.27,0,0,1-.3-.3l-.1-1.7a.27.27,0,0,1,.3-.3l52.8-4.3a.27.27,0,0,1,.3.3l.1,1.7A.27.27,0,0,1,65.31,85Z"/><path class="cls-2" d="M143,74a.32.32,0,0,0,.3-.3l-.1-1.7a.32.32,0,0,0-.3-.3l-109.1,9a.32.32,0,0,0-.3.3l.1,1.7a.32.32,0,0,0,.3.3Zm43.3,5.7L9,94.31a2.7,2.7,0,0,1-2.9-2.5l-.4-4.5v.3a7.18,7.18,0,0,1,6.6-7.5l160.2-13.2.3,3.4L152.21,72a.32.32,0,0,0-.3.3L152,74a.32.32,0,0,0,.3.3l20.6-1.7.2,2.3-96.4,7.9a.32.32,0,0,0-.3.3l.1,1.7a.32.32,0,0,0,.3.3l109.1-9Zm-121.2,3L12.31,87a.32.32,0,0,0-.3.3l.1,1.7a.32.32,0,0,0,.3.3L65.21,85a.32.32,0,0,0,.3-.3l-.1-1.7C65.51,82.81,65.31,82.71,65.11,82.71Z"/><path class="cls-4" d="M38,20.21a.27.27,0,0,1,.3.3l.1,1.7a.27.27,0,0,1-.3.3l-20.6,1.7a.27.27,0,0,1-.3-.3l-.1-1.7a.27.27,0,0,1,.3-.3Z"/><polygon class="cls-6" points="19.61 31.01 23.31 75.81 20.41 76.01 19.61 66.91 16.71 31.21 19.61 31.01"/><path class="cls-3" d="M16.71,31.21l-5.3.4-3,.2H7l-.1-1,12.6-1,.1,1.1Z"/><path class="cls-2" d="M38.21,22.51a.32.32,0,0,0,.3-.3l-.1-1.7a.32.32,0,0,0-.3-.3l-20.6,1.7a.32.32,0,0,0-.3.3l.1,1.7a.32.32,0,0,0,.3.3Zm118.4-8.6a.32.32,0,0,0,.3-.3l-.1-1.7a.32.32,0,0,0-.3-.3l-109.1,9a.32.32,0,0,0-.3.3l.1,1.7a.32.32,0,0,0,.3.3Zm-31.3-2,52.8-4.3a.32.32,0,0,0,.3-.3l-.1-1.7a.32.32,0,0,0-.3-.3l-52.8,4.3a.32.32,0,0,0-.3.3l.1,1.7C124.91,11.81,125.11,11.91,125.31,11.91Zm-11.8-2.5-109.1,9a.32.32,0,0,0-.3.3l.1,1.7a.32.32,0,0,0,.3.3l109.1-9a.32.32,0,0,0,.3-.3l-.1-1.7A.32.32,0,0,0,113.51,9.41Zm67.4,4.8L8.11,28.41a7.13,7.13,0,0,1-7.7-6.3v.3L0,17.91A2.7,2.7,0,0,1,2.51,15L184.31,0a2.7,2.7,0,0,1,2.9,2.5l.4,4.5v-.3A7.27,7.27,0,0,1,180.91,14.21Z"/><path class="cls-5" d="M20.41,76l.1,1.1-9.8.8-.1-1,1.4-.3Z"/><path class="cls-2" d="M15.31,67.21,14.51,57c0-.1,0-.1.1-.2a.35.35,0,0,1,.2-.1l1-.1a.22.22,0,0,1,.2.2l.8,10.2a.22.22,0,0,1-.2.2l-1,.1C15.41,67.51,15.31,67.41,15.31,67.21Z"/><path class="cls-3" d="M15.71,56.71l-1,.1c-.1,0-.1,0-.2.1l-1.2-1.1a.22.22,0,0,0,.2-.2l-1.7-20.3a.22.22,0,0,0-.2-.2l-.3-3.4,5.3-.4L19.51,67l-2.9.2L15.81,57C15.91,56.81,15.81,56.71,15.71,56.71Z"/><path class="cls-3" d="M14.51,57.11l.8,10.2a.22.22,0,0,0,.2.2l1-.1a.22.22,0,0,0,.2-.2l2.9-.2.8,9.1-8.3.7-1.4.1L7,32.11l1.4-.1,3-.2.3,3.4-.8.1a.22.22,0,0,0-.2.2l1.7,20.3a.22.22,0,0,0,.2.2l.8-.1,1.2,1.1C14.51,57,14.51,57,14.51,57.11Z"/><path class="cls-2" d="M11.61,35.11a.22.22,0,0,1,.2.2l1.7,20.3a.22.22,0,0,1-.2.2l-.8.1a.22.22,0,0,1-.2-.2l-1.7-20.3a.22.22,0,0,1,.2-.2Z"/><path class="cls-2" d="M8.41,31.91,7,32v-.1Z"/><path class="cls-3" d="M10.61,76.81l1.4-.1a3.19,3.19,0,0,0-1.4.3Z"/><path class="cls-2" d="M10.61,76.81v.1a7.29,7.29,0,0,0-5.2,7.5L5,79.91A2.7,2.7,0,0,1,7.51,77Z"/><path class="cls-2" d="M6.91,31.91V32l-3,.3A2.7,2.7,0,0,1,1,29.81l-.4-4.5A7.25,7.25,0,0,0,6.91,31.91Z"/><path class="cls-3" d="M8.11,28.51l172.8-14.2a7.12,7.12,0,0,0,6.6-7.5v.3l.2,2.9a7.09,7.09,0,0,1-5.2,7.5l-.1-1-12.6,1,.1,1.1L19.51,31l-.1-1.1-12.6,1,.1,1a7.24,7.24,0,0,1-6.3-6.6l-.2-2.9v-.3A7.14,7.14,0,0,0,8.11,28.51Z"/><path class="cls-5" d="M10.71,78l9.8-.8,2.9-.2-.1-1.1,150.4-12.4.1,1.1,12.6-1-.1-1a7.24,7.24,0,0,1,6.3,6.6l.2,2.9v.3a7.26,7.26,0,0,0-7.7-6.3l-12.6,1-160.2,13a7.12,7.12,0,0,0-6.6,7.5v-.3l-.2-2.9a7.09,7.09,0,0,1,5.2-7.5Z"/></g><g id="_Group_2" data-name="&lt;Group&gt;"><path class="cls-8" d="M11.41,18.81A2.66,2.66,0,1,1,9,21.71,2.69,2.69,0,0,1,11.41,18.81Z"/><path class="cls-9" d="M14.31,21.21a2.56,2.56,0,0,0-2.9-2.4,2.7,2.7,0,0,0-2.5,2.9,2.56,2.56,0,0,0,2.9,2.4A2.7,2.7,0,0,0,14.31,21.21Zm-3-4.6a4.82,4.82,0,1,1,.8,9.6,4.82,4.82,0,1,1-.8-9.6Z"/></g><g id="_Group_3" data-name="&lt;Group&gt;"><path class="cls-8" d="M15.71,84.31a2.66,2.66,0,1,1-2.4,2.8A2.52,2.52,0,0,1,15.71,84.31Z"/><path class="cls-9" d="M18.51,86.81a2.56,2.56,0,0,0-2.9-2.4,2.56,2.56,0,0,0-2.4,2.9,2.7,2.7,0,0,0,2.9,2.5A2.82,2.82,0,0,0,18.51,86.81Zm2.2-.2a4.82,4.82,0,0,1-9.6.8,4.89,4.89,0,0,1,4.4-5.2A4.81,4.81,0,0,1,20.71,86.61Z"/></g><g id="_Group_4" data-name="&lt;Group&gt;"><path class="cls-8" d="M176.81,5.21a2.66,2.66,0,1,1-2.4,2.8A2.52,2.52,0,0,1,176.81,5.21Z"/><path class="cls-9" d="M181.81,7.41a4.82,4.82,0,0,1-9.6.8,4.82,4.82,0,0,1,9.6-.8Zm-2.1.2a2.66,2.66,0,0,0-5.3.5,2.7,2.7,0,0,0,2.9,2.5A2.85,2.85,0,0,0,179.71,7.61Z"/></g><g id="_Group_5" data-name="&lt;Group&gt;"><path class="cls-8" d="M181,70.71a2.66,2.66,0,1,1-2.4,2.8A2.66,2.66,0,0,1,181,70.71Z"/><path class="cls-9" d="M178.61,73.61a2.7,2.7,0,0,0,2.9,2.5,2.66,2.66,0,1,0-2.9-2.5Zm-2.1.2a4.89,4.89,0,0,1,4.4-5.2,4.83,4.83,0,0,1,5.2,4.4,4.76,4.76,0,0,1-4.4,5.2A4.83,4.83,0,0,1,176.51,73.81Z"/></g><path class="cls-10" d="M34.31,56.81a3.16,3.16,0,0,1,1.9-3.6l-3-.5-.3-3.1a10.83,10.83,0,0,1,2.9-2.1,12.4,12.4,0,0,1,4-1.1c2.3-.2,4,.1,5.2,1s1.9,2.3,2.1,4.4l.8,9.2-3,.3-.8-9.3a3.52,3.52,0,0,0-1.1-2.6,4.58,4.58,0,0,0-3.1-.5,10.15,10.15,0,0,0-2.5.6,4.07,4.07,0,0,0-1.8,1.2v.5l3.2.5.2,2a2.23,2.23,0,0,0-1.4,1,2.63,2.63,0,0,0-.3,1.9l.5,5.3-3,.3Z"/><path class="cls-10" d="M53.51,60.71a7.31,7.31,0,0,1-2.3-.4l-.2-2.5a8.52,8.52,0,0,0,2.3.4,8.84,8.84,0,0,0,2.3,0,7.32,7.32,0,0,0,2.8-.6,1.41,1.41,0,0,0,.7-1.5,1.53,1.53,0,0,0-.4-1,4.37,4.37,0,0,0-1-.6c-.4-.1-1-.3-1.8-.5l-1.1-.3a9.73,9.73,0,0,1-3.5-1.4,3.26,3.26,0,0,1-1.3-2.5,4,4,0,0,1,1.2-3.3,7.84,7.84,0,0,1,4.4-1.5,10.44,10.44,0,0,1,2.5,0q1.2.15,2.1.3l.2,2.5a6.45,6.45,0,0,0-2-.3,14.7,14.7,0,0,0-2.1,0,7.09,7.09,0,0,0-2.6.6,1.42,1.42,0,0,0-.8,1.4,1.05,1.05,0,0,0,.5.9,5.42,5.42,0,0,0,1.1.6c.4.1,1.1.3,2,.5l.8.2a10.23,10.23,0,0,1,3.6,1.5,3.52,3.52,0,0,1,1.3,2.7,3.6,3.6,0,0,1-1.3,3.3,7.66,7.66,0,0,1-4.4,1.4C55.41,60.71,54.41,60.71,53.51,60.71Z"/><path class="cls-10" d="M63.71,46.91l2.6-.2.1,1.3,4-.4.1,2.2-6.5.6Zm.6,7.5,2.6-.2.1,1.4,4-.4.1,2.2-6.5.6Z"/><path class="cls-10" d="M75.91,57.31a5.71,5.71,0,0,1-2.2-4.4l-.8-9.1,3-.3.8,9.2a3.39,3.39,0,0,0,1.2,2.6,4.34,4.34,0,0,0,2.9.6,4.26,4.26,0,0,0,2.8-1.1,3.49,3.49,0,0,0,.7-2.8l-.8-9.2,3-.3.8,9.1a5.59,5.59,0,0,1-1.4,4.7,7.64,7.64,0,0,1-4.9,2A6.53,6.53,0,0,1,75.91,57.31Z"/><path class="cls-10" d="M90.51,56.81l-.2-2.4a10.22,10.22,0,0,0,3.8.5,6.71,6.71,0,0,0,2.9-.8,2.83,2.83,0,0,0,1.4-1.8,8,8,0,0,0,.2-3.2,6.47,6.47,0,0,0-1.5-4,5.82,5.82,0,0,0-4-.9,8.9,8.9,0,0,0-3.6,1.1l-.2-2.4a10.21,10.21,0,0,1,4.3-1.2,7.46,7.46,0,0,1,5.7,1.5,8.3,8.3,0,0,1,2.3,5.6c.2,2.5-.2,4.5-1.3,5.9s-2.8,2.2-5.3,2.4A9.56,9.56,0,0,1,90.51,56.81Z"/><path class="cls-10" d="M106.31,54.81a5.9,5.9,0,0,1-1.7-3.9l-.9-9.7,3-.3.8,9.6a3.29,3.29,0,0,0,.9,2.3,2.9,2.9,0,0,0,2.4.5,5.68,5.68,0,0,0,2.2-.7,5,5,0,0,0,1.7-1.5l-1-11,3-.3,1.3,14.9-2.7.2-.3-1.6a7.91,7.91,0,0,1-5.1,2.4A3.81,3.81,0,0,1,106.31,54.81Z"/><path class="cls-10" d="M121.51,49.21a3.16,3.16,0,0,1,1.9-3.6l-3-.5-.3-3.1a10.83,10.83,0,0,1,2.9-2.1,12.4,12.4,0,0,1,4-1.1c2.3-.2,4,.1,5.2,1s1.9,2.3,2.1,4.4l.8,9.2-3,.3-.8-9.3a3.52,3.52,0,0,0-1.1-2.6,4.58,4.58,0,0,0-3.1-.5,10.15,10.15,0,0,0-2.5.6,4.07,4.07,0,0,0-1.8,1.2v.5l3.2.5.2,2a2.23,2.23,0,0,0-1.4,1,2.63,2.63,0,0,0-.3,1.9l.5,5.3-3,.3Z"/><path class="cls-10" d="M143.41,43.31a7.81,7.81,0,0,0-.4-1.9,2,2,0,0,0-1-1,4.4,4.4,0,0,0-2.1-.2,16.25,16.25,0,0,0-1.9.4,7.51,7.51,0,0,0-1.8.7L136,39a13.77,13.77,0,0,1,2-.8,9.25,9.25,0,0,1,2.3-.4c2-.2,3.5.1,4.4.9a6,6,0,0,1,1.7,4l.9,9.7-3,.3Z"/><path class="cls-10" d="M152.71,52a7.31,7.31,0,0,1-2.3-.4l-.2-2.5a8.52,8.52,0,0,0,2.3.4,8.84,8.84,0,0,0,2.3,0,7.32,7.32,0,0,0,2.8-.6,1.41,1.41,0,0,0,.7-1.5,1.53,1.53,0,0,0-.4-1,4.37,4.37,0,0,0-1-.6c-.4-.1-1-.3-1.8-.5L154,45a9.73,9.73,0,0,1-3.5-1.4,3.26,3.26,0,0,1-1.3-2.5,4,4,0,0,1,1.2-3.3,7.84,7.84,0,0,1,4.4-1.5,10.44,10.44,0,0,1,2.5,0q1.2.15,2.1.3l.2,2.5a6.45,6.45,0,0,0-2-.3,14.7,14.7,0,0,0-2.1,0,7.09,7.09,0,0,0-2.6.6,1.42,1.42,0,0,0-.8,1.4,1.05,1.05,0,0,0,.5.9,5.42,5.42,0,0,0,1.1.6c.4.1,1.1.3,2,.5l.8.2a10.23,10.23,0,0,1,3.6,1.5,3.52,3.52,0,0,1,1.3,2.7,3.6,3.6,0,0,1-1.3,3.3,7.66,7.66,0,0,1-4.4,1.4C154.61,52,153.61,52,152.71,52Z"/></g></g></g></svg>