<svg xmlns="http://www.w3.org/2000/svg" viewBox="0 0 199.04 101.74"><defs><style>.cls-1{fill:#9baa93;}.cls-2{fill:#96804e;}.cls-3{fill:#78673d;}.cls-4{fill:#7c5b35;}.cls-5{fill:#b99d67;}.cls-6{fill:#645028;}.cls-7{fill:#fccf05;}.cls-8{fill:#f8dda0;}.cls-9{fill:#604f2b;}.cls-10{fill:#e97625;}</style></defs><title>Asset 11</title><g id="Layer_2" data-name="Layer 2"><g id="Layer_1-2" data-name="Layer 1"><g id="ท่องเที่ยวกด"><path class="cls-1" d="M191.81,88.71l-158.3,13a7.86,7.86,0,0,1-8.5-7.2l-5.5-66.6a7.86,7.86,0,0,1,7.2-8.5L185,6.41a7.86,7.86,0,0,1,8.5,7.2l5.5,66.6A7.79,7.79,0,0,1,191.81,88.71Z"/><g id="_Group_" data-name="&lt;Group&gt;"><path class="cls-2" d="M192.91,71.91l.4,4.5a2.7,2.7,0,0,1-2.5,2.9l-4.5.4-.3-3.4a.32.32,0,0,0,.3-.3l-.1-1.7a.32.32,0,0,0-.3-.3l-12.6,1-.2-2.3a.32.32,0,0,0,.3-.3l-.1-1.7a.32.32,0,0,0-.3-.3l-.3-3.4,12.7-1a7.13,7.13,0,0,1,7.7,6.3C192.91,72.11,192.91,72,192.91,71.91Z"/><path class="cls-2" d="M192.31,64.61l.4,4.5a7.24,7.24,0,0,0-6.3-6.6v-.1l3-.3A2.7,2.7,0,0,1,192.31,64.61Z"/><path class="cls-2" d="M188.21,14.41a2.7,2.7,0,0,1-2.5,2.9l-3,.3v-.1a7.29,7.29,0,0,0,5.2-7.5Z"/><path class="cls-3" d="M186.31,62.41v.1a3.29,3.29,0,0,0-1.4,0Z"/><path class="cls-2" d="M182.61,17.41v.1l-1.4.1A3.18,3.18,0,0,0,182.61,17.41Z"/><path class="cls-4" d="M185.81,74a.27.27,0,0,1,.3.3l.1,1.7a.27.27,0,0,1-.3.3l-109.1,9a.27.27,0,0,1-.3-.3l-.1-1.7a.27.27,0,0,1,.3-.3l96.4-7.9Z"/><path class="cls-2" d="M180.81,37.61a.22.22,0,0,1,.2-.2l.8-.1a.22.22,0,0,1,.2.2l1.7,20.3a.22.22,0,0,1-.2.2l-.8.1a.22.22,0,0,1-.2-.2Z"/><path class="cls-4" d="M177.81,5.21a.27.27,0,0,1,.3.3l.1,1.7a.27.27,0,0,1-.3.3l-52.8,4.3a.27.27,0,0,1-.3-.3l-.1-1.7a.27.27,0,0,1,.3-.3Z"/><path class="cls-2" d="M177.71,21.21a.27.27,0,0,1,.3.3l1.7,20.6a.27.27,0,0,1-.3.3l-1.7.1a.27.27,0,0,1-.3-.3l-1.7-20.6a.27.27,0,0,1,.3-.3Z"/><path class="cls-2" d="M179.81,50.21a.32.32,0,0,1,.3.3l.3,4.1a.32.32,0,0,1-.3.3l-1.2.1c-.1,0-.3-.1-.3-.2l-.3-4.1c0-.1.1-.3.2-.3Z"/><path class="cls-3" d="M172.91,18.41l8.3-.7,1.4-.1,3.7,44.8-1.4.1-8.3.7Zm7.6,36.1-.3-4.1a.32.32,0,0,0-.3-.3l-1.2.1c-.1,0-.3.1-.2.3l.3,4.1c0,.1.1.3.3.2l1.2-.1C180.41,54.81,180.51,54.61,180.51,54.51Zm-.8-12.4L178,21.51a.32.32,0,0,0-.3-.3l-1.7.1a.32.32,0,0,0-.3.3l1.7,20.6a.32.32,0,0,0,.3.3l1.7-.1C179.61,42.41,179.81,42.21,179.71,42.11Zm1.1-4.5,1.7,20.3a.22.22,0,0,0,.2.2l.8-.1a.22.22,0,0,0,.2-.2L182,37.51a.22.22,0,0,0-.2-.2l-.8.1A.22.22,0,0,0,180.81,37.61Z"/><path class="cls-5" d="M176.61,63.21l8.3-.7h1.4l.1,1-12.6,1-.1-1.1Z"/><rect class="cls-6" x="171.76" y="18.39" width="2.9" height="44.9" transform="matrix(1, -0.08, 0.08, 1, -2.77, 14.34)"/><path class="cls-3" d="M181.21,17.71l-8.3.7-2.9.2-.1-1.1,12.6-1,.1,1C182.21,17.61,181.71,17.61,181.21,17.71Z"/><rect class="cls-7" x="21.17" y="24.69" width="150.9" height="44.9" transform="matrix(1, -0.08, 0.08, 1, -3.54, 8.08)"/><path class="cls-4" d="M172.81,70.41a.27.27,0,0,1,.3.3l.1,1.7a.27.27,0,0,1-.3.3l-20.6,1.7a.27.27,0,0,1-.3-.3l-.1-1.7a.27.27,0,0,1,.3-.3Z"/><path class="cls-4" d="M156.41,11.61a.27.27,0,0,1,.3.3l.1,1.7a.27.27,0,0,1-.3.3l-109.1,9a.27.27,0,0,1-.3-.3l-.1-1.7a.27.27,0,0,1,.3-.3Z"/><path class="cls-4" d="M142.91,71.71a.27.27,0,0,1,.3.3l.1,1.7a.27.27,0,0,1-.3.3L33.91,83a.27.27,0,0,1-.3-.3l-.1-1.7a.27.27,0,0,1,.3-.3Z"/><path class="cls-4" d="M113.41,9.41a.27.27,0,0,1,.3.3l.1,1.7a.27.27,0,0,1-.3.3l-109.1,9a.27.27,0,0,1-.3-.3L4,18.71a.27.27,0,0,1,.3-.3Z"/><path class="cls-4" d="M65.31,85l-52.8,4.3a.27.27,0,0,1-.3-.3l-.1-1.7a.27.27,0,0,1,.3-.3l52.8-4.3a.27.27,0,0,1,.3.3l.1,1.7A.27.27,0,0,1,65.31,85Z"/><path class="cls-2" d="M143,74a.32.32,0,0,0,.3-.3l-.1-1.7a.32.32,0,0,0-.3-.3l-109.1,9a.32.32,0,0,0-.3.3l.1,1.7a.32.32,0,0,0,.3.3Zm-77.9,8.7L12.31,87a.32.32,0,0,0-.3.3l.1,1.7a.32.32,0,0,0,.3.3L65.21,85a.32.32,0,0,0,.3-.3l-.1-1.7C65.51,82.81,65.31,82.71,65.11,82.71Zm87.3-8.3,20.6-1.7.2,2.3-96.4,7.9a.32.32,0,0,0-.3.3l.1,1.7a.32.32,0,0,0,.3.3l109.1-9,.3,3.4L9,94.21a2.7,2.7,0,0,1-2.9-2.5l-.4-4.5v.3a7.18,7.18,0,0,1,6.6-7.5l160.2-13.2.3,3.4-20.6,1.7a.32.32,0,0,0-.3.3l.1,1.7C152,74.31,152.21,74.41,152.41,74.41Z"/><path class="cls-4" d="M38,20.21a.27.27,0,0,1,.3.3l.1,1.7a.27.27,0,0,1-.3.3l-20.6,1.7a.27.27,0,0,1-.3-.3l-.1-1.7a.27.27,0,0,1,.3-.3Z"/><polygon class="cls-6" points="19.61 31.01 23.31 75.81 20.41 76.01 19.61 66.91 16.71 31.21 19.61 31.01"/><path class="cls-3" d="M16.71,31.21l-5.4.4-3,.2H6.91l-.1-1,12.6-1,.1,1.1Z"/><path class="cls-2" d="M38.21,22.51a.32.32,0,0,0,.3-.3l-.1-1.7a.32.32,0,0,0-.3-.3l-20.6,1.7a.32.32,0,0,0-.3.3l.1,1.7a.32.32,0,0,0,.3.3Zm75.2-13.1-109.1,9a.32.32,0,0,0-.3.3l.1,1.7a.32.32,0,0,0,.3.3l109.1-9a.32.32,0,0,0,.3-.3l-.1-1.7C113.81,9.51,113.61,9.41,113.41,9.41Zm67.5,4.8L8.11,28.41a7.13,7.13,0,0,1-7.7-6.3v.3L0,17.91A2.7,2.7,0,0,1,2.51,15L184.31,0a2.7,2.7,0,0,1,2.9,2.5l.4,4.5v-.3A7.27,7.27,0,0,1,180.91,14.21Zm-24.3-.3a.32.32,0,0,0,.3-.3l-.1-1.7a.32.32,0,0,0-.3-.3l-109.1,9a.32.32,0,0,0-.3.3l.1,1.7a.32.32,0,0,0,.3.3Zm-31.4-2L178,7.61a.32.32,0,0,0,.3-.3l-.1-1.7a.32.32,0,0,0-.3-.3l-52.8,4.3a.32.32,0,0,0-.3.3l.1,1.7A.32.32,0,0,0,125.21,11.91Z"/><path class="cls-5" d="M20.41,76l.1,1.1-9.8.8-.1-1,1.4-.3Z"/><path class="cls-2" d="M15.71,56.71a.22.22,0,0,1,.2.2l.8,10.2a.22.22,0,0,1-.2.2l-1,.1a.22.22,0,0,1-.2-.2L14.51,57c0-.1,0-.1.1-.2l.1-.1Z"/><path class="cls-3" d="M15.91,57a.22.22,0,0,0-.2-.2l-1,.1c-.1,0-.1,0-.1.1l-1.2-1.1a.22.22,0,0,0,.2-.2l-1.7-20.3a.22.22,0,0,0-.2-.2l-.3-3.4,5.4-.4,2.9,35.7-2.9.2Z"/><path class="cls-3" d="M14.51,57.11l.8,10.2a.22.22,0,0,0,.2.2l1-.1a.22.22,0,0,0,.2-.2l2.9-.2.8,9.1-8.3.7-1.4.1L7,32.11l1.4-.1,3-.2.3,3.4-.8.1a.22.22,0,0,0-.2.2l1.7,20.3a.22.22,0,0,0,.2.2l.8-.1,1.1,1.2Z"/><path class="cls-2" d="M11.61,35.11a.22.22,0,0,1,.2.2l1.7,20.3a.22.22,0,0,1-.2.2l-.8.1a.22.22,0,0,1-.2-.2l-1.7-20.3a.22.22,0,0,1,.2-.2Z"/><path class="cls-2" d="M8.41,31.91,7,32v-.1Z"/><path class="cls-3" d="M10.61,76.81l1.4-.1a3.19,3.19,0,0,0-1.4.3Z"/><path class="cls-2" d="M10.61,76.81v.1a7.29,7.29,0,0,0-5.2,7.5L5,79.91A2.7,2.7,0,0,1,7.51,77Z"/><path class="cls-2" d="M6.91,31.91V32l-3.1.3a2.7,2.7,0,0,1-2.9-2.5l-.4-4.5A7.44,7.44,0,0,0,6.91,31.91Z"/><path class="cls-3" d="M182.51,16.41l-12.6,1,.1,1.1L19.61,30.91l-.1-1.1-12.6,1,.1,1a7.24,7.24,0,0,1-6.3-6.6l-.2-2.9V22a7.26,7.26,0,0,0,7.7,6.3L181,14.11a7.12,7.12,0,0,0,6.6-7.5v.3l.2,2.9a7.09,7.09,0,0,1-5.2,7.5Z"/><path class="cls-5" d="M173.81,64.51l12.6-1-.1-1a7.24,7.24,0,0,1,6.3,6.6l.2,2.9v.3a7.26,7.26,0,0,0-7.7-6.3l-12.7,1L12.31,80.11a7.12,7.12,0,0,0-6.6,7.5v-.3l-.2-2.9a7.09,7.09,0,0,1,5.2-7.5l.1,1,9.8-.8,2.9-.2-.1-1.1,150.4-12.4Z"/></g><g id="_Group_2" data-name="&lt;Group&gt;"><path class="cls-8" d="M11.41,18.81A2.66,2.66,0,1,1,9,21.61,2.6,2.6,0,0,1,11.41,18.81Z"/><path class="cls-9" d="M14.31,21.21a2.56,2.56,0,0,0-2.9-2.4A2.56,2.56,0,0,0,9,21.71a2.76,2.76,0,0,0,2.9,2.5A2.85,2.85,0,0,0,14.31,21.21Zm-3-4.6a4.82,4.82,0,0,1,.8,9.6,4.89,4.89,0,0,1-5.2-4.4A4.8,4.8,0,0,1,11.31,16.61Z"/></g><g id="_Group_3" data-name="&lt;Group&gt;"><path class="cls-8" d="M15.71,84.31a2.66,2.66,0,1,1-2.4,2.9A2.56,2.56,0,0,1,15.71,84.31Z"/><path class="cls-9" d="M15.71,84.31a2.7,2.7,0,0,0-2.5,2.9,2.56,2.56,0,0,0,2.9,2.4,2.56,2.56,0,0,0,2.4-2.9A2.66,2.66,0,0,0,15.71,84.31Zm.6,7.5a4.82,4.82,0,0,1-.8-9.6,4.82,4.82,0,0,1,.8,9.6Z"/></g><g id="_Group_4" data-name="&lt;Group&gt;"><path class="cls-8" d="M176.81,5.21a2.66,2.66,0,1,1-2.4,2.9A2.56,2.56,0,0,1,176.81,5.21Z"/><path class="cls-9" d="M179.71,7.61a2.56,2.56,0,0,0-2.9-2.4,2.7,2.7,0,0,0-2.5,2.9,2.56,2.56,0,0,0,2.9,2.4A2.7,2.7,0,0,0,179.71,7.61ZM176.61,3a4.89,4.89,0,0,1,5.2,4.4,4.83,4.83,0,0,1-4.4,5.2,4.76,4.76,0,0,1-5.2-4.4A5,5,0,0,1,176.61,3Z"/></g><g id="_Group_5" data-name="&lt;Group&gt;"><path class="cls-8" d="M181,70.71a2.66,2.66,0,1,1-2.4,2.8A2.66,2.66,0,0,1,181,70.71Z"/><path class="cls-9" d="M183.91,73.21a2.66,2.66,0,0,0-5.3.5,2.7,2.7,0,0,0,2.9,2.5A3,3,0,0,0,183.91,73.21Zm-3-4.6a4.89,4.89,0,0,1,5.2,4.4,4.82,4.82,0,1,1-9.6.8A4.69,4.69,0,0,1,180.91,68.61Z"/></g><path class="cls-10" d="M50.31,46.41l2.5-.2.3,1.5a6.84,6.84,0,0,1,4.7-2.1,4.58,4.58,0,0,1,3.5,1,5,5,0,0,1,1.5,3.5l.7,9-2.7.2-.7-8.9a3,3,0,0,0-.9-2.1,2.91,2.91,0,0,0-2.2-.5,6.64,6.64,0,0,0-2,.6,7,7,0,0,0-1.6,1.3l.8,10-2.8.2Z"/><path class="cls-10" d="M59.11,39.41l2.8-.2.3,4.1-2.8.2Z"/><path class="cls-10" d="M68.81,58.61a13.75,13.75,0,0,1-2.5-.5l-.6-7,5.4-.4.3,2.1-2.9.2.3,3.3a8.21,8.21,0,0,0,2.8.2,5.24,5.24,0,0,0,2.4-.7,2.76,2.76,0,0,0,1.2-1.6,8.38,8.38,0,0,0,.2-2.9,6.83,6.83,0,0,0-.7-2.9,3.11,3.11,0,0,0-1.6-1.4,8.38,8.38,0,0,0-2.9-.2,15.62,15.62,0,0,0-4.5,1l-.2-2.1c.7-.3,1.5-.5,2.4-.8a12.59,12.59,0,0,1,2.7-.4,6.74,6.74,0,0,1,5.3,1.4,7.59,7.59,0,0,1,2.1,5.2,7.54,7.54,0,0,1-1.2,5.4c-1,1.3-2.6,2-5,2.2C70.81,58.71,69.81,58.71,68.81,58.61Z"/><path class="cls-10" d="M84,57.31l-4.6-9,2.7-.2,3.7,7.3c1.4-.1,2.5-.5,3-1.5a7.43,7.43,0,0,0,.7-4.3A12,12,0,0,0,89,47a2.18,2.18,0,0,0-1.1-1.2,4.12,4.12,0,0,0-2-.2l-1,.1-.2-2.1,1.3-.1a5.2,5.2,0,0,1,4.4,1.2,6.78,6.78,0,0,1,1.7,4.7c.2,2.6-.2,4.5-1.2,5.8a5.73,5.73,0,0,1-4.4,2.2A9.81,9.81,0,0,1,84,57.31Z"/><path class="cls-10" d="M95.31,53.81l-.9-11,2.7-.2.9,10.3c0,.4.1.7.3.8s.5.2.9.2l1.2-.1.2,2.2-2.4.2C96.41,56.31,95.41,55.51,95.31,53.81Z"/><path class="cls-10" d="M102.11,42.11l2.5-.2.3,1.5a6.84,6.84,0,0,1,4.7-2.1,4.58,4.58,0,0,1,3.5,1,5,5,0,0,1,1.5,3.5l.7,9-2.7.2-.7-8.9A3,3,0,0,0,111,44a2.91,2.91,0,0,0-2.2-.5,6.64,6.64,0,0,0-2,.6,7,7,0,0,0-1.6,1.3l.8,10-2.8.2Z"/><path class="cls-10" d="M103.41,38l8.1-.7-.2-2.1,2.3-.2.3,4-10.5.9Z"/><path class="cls-10" d="M111,30.51l2.3-.2.3,3.5-2.3.2Z"/><path class="cls-10" d="M119.51,53.61a3.66,3.66,0,0,1-2-3.1,4,4,0,0,1,.3-1.9,3.48,3.48,0,0,1,1.3-1.4,3.39,3.39,0,0,1-1.4-.9,2.79,2.79,0,0,1-.6-1.8,3.64,3.64,0,0,1,.9-3,4.64,4.64,0,0,1,3-1.3,8.48,8.48,0,0,1,2.3.1l.2,2.1a9.15,9.15,0,0,0-1.7-.1c-1.4.1-2.1.7-2,1.9s.9,1.7,2.5,1.6l1.4-.1.3,2-1.6.1c-1.6.1-2.3.9-2.2,2.3a1.82,1.82,0,0,0,1,1.5,5.27,5.27,0,0,0,2.7.3,4.19,4.19,0,0,0,2.6-.9,2.79,2.79,0,0,0,.7-2.3l-.7-8.8,2.7-.2.7,8.5a5.19,5.19,0,0,1-1.2,4.2,6.62,6.62,0,0,1-4.5,1.7A7.11,7.11,0,0,1,119.51,53.61Z"/><path class="cls-10" d="M132.81,52.81l-.2-2.2a8.6,8.6,0,0,0,3.5.4,5.86,5.86,0,0,0,2.7-.7,2.83,2.83,0,0,0,1.3-1.7,8.59,8.59,0,0,0,.2-2.9,5.09,5.09,0,0,0-1.4-3.7,4.59,4.59,0,0,0-3.7-.8,8.34,8.34,0,0,0-3.4,1l-.2-2.2a10.31,10.31,0,0,1,4-1.1,6.62,6.62,0,0,1,5.2,1.4,7.53,7.53,0,0,1,2.1,5.1,7.54,7.54,0,0,1-1.2,5.4c-1,1.3-2.6,2-4.9,2.2A6.75,6.75,0,0,1,132.81,52.81Z"/></g></g></g></svg>