<svg xmlns="http://www.w3.org/2000/svg" viewBox="0 0 198.96 101.74"><defs><style>.cls-1{fill:#96804e;}.cls-2{fill:#78673d;}.cls-3{fill:#7c5b35;}.cls-4{fill:#b99d67;}.cls-5{fill:#645028;}.cls-6{fill:#cba75d;}.cls-7{fill:#f8dda0;}.cls-8{fill:#604f2b;}.cls-9{fill:#9baa93;}.cls-10{fill:#fccf05;}.cls-11{fill:#e97625;}</style></defs><title>Asset 12</title><g id="Layer_2" data-name="Layer 2"><g id="Layer_1-2" data-name="Layer 1"><g id="ผลิตภัณฑ์กด"><g id="_Group_" data-name="&lt;Group&gt;"><path class="cls-1" d="M184.12,80.91v4.3a2.58,2.58,0,0,1-2.6,2.6h-4.3v-3.3a.27.27,0,0,0,.3-.3v-1.6a.27.27,0,0,0-.3-.3h-12v-2.2a.27.27,0,0,0,.3-.3v-1.6a.27.27,0,0,0-.3-.3v-3.3h12a6.75,6.75,0,0,1,6.8,6.5C184.12,81.11,184.12,81,184.12,80.91Z"/><path class="cls-1" d="M184.12,73.91v4.3a6.77,6.77,0,0,0-5.5-6.7v-.1h2.9A2.5,2.5,0,0,1,184.12,73.91Z"/><path class="cls-1" d="M184.12,26.31a2.58,2.58,0,0,1-2.6,2.6h-2.9v-.2a6.87,6.87,0,0,0,5.5-6.7Z"/><path class="cls-2" d="M178.72,71.41v.1a6.15,6.15,0,0,0-1.4-.1Z"/><path class="cls-1" d="M178.72,28.71v.1h-1.4A6.15,6.15,0,0,0,178.72,28.71Z"/><path class="cls-3" d="M177.32,82.31a.27.27,0,0,1,.3.3v1.6a.27.27,0,0,1-.3.3H73.72a.27.27,0,0,1-.3-.3v-1.6a.27.27,0,0,1,.3-.3h103.6Z"/><path class="cls-1" d="M176.32,47.41a.22.22,0,0,1,.2.2v19.3a.22.22,0,0,1-.2.2h-.8a.22.22,0,0,1-.2-.2V47.61a.22.22,0,0,1,.2-.2Z"/><path class="cls-3" d="M175.12,19H125a.27.27,0,0,1-.3-.3v-1.6a.27.27,0,0,1,.3-.3h50.1a.27.27,0,0,1,.3.3v1.6A.27.27,0,0,1,175.12,19Z"/><path class="cls-1" d="M173.82,31.81a.27.27,0,0,1,.3.3v19.6a.27.27,0,0,1-.3.3h-1.6a.27.27,0,0,1-.3-.3V32.11a.27.27,0,0,1,.3-.3Z"/><path class="cls-1" d="M173.52,59.41a.32.32,0,0,1,.3.3v3.8a.32.32,0,0,1-.3.3h-1.1a.32.32,0,0,1-.3-.3v-3.8a.32.32,0,0,1,.3-.3Z"/><path class="cls-2" d="M173.82,63.51v-3.8a.32.32,0,0,0-.3-.3h-1.1a.32.32,0,0,0-.3.3v3.8a.32.32,0,0,0,.3.3h1.1Q173.82,63.66,173.82,63.51Zm.3-11.8V32.11a.27.27,0,0,0-.3-.3h-1.6a.27.27,0,0,0-.3.3v19.6a.27.27,0,0,0,.3.3h1.6A.32.32,0,0,0,174.12,51.71Zm2.4,15.1V47.51a.22.22,0,0,0-.2-.2h-.8a.22.22,0,0,0-.2.2v19.3a.22.22,0,0,0,.2.2h.8A.22.22,0,0,0,176.52,66.81Zm-7.1,4.6V28.91h9.3v42.5h-9.3Z"/><path class="cls-4" d="M169.42,71.41h7.9a6.6,6.6,0,0,1,1.4.1v.9h-12v-1.1h2.7Z"/><rect class="cls-5" x="166.72" y="28.81" width="2.7" height="42.5"/><path class="cls-2" d="M166.72,27.71h12v.9a6.15,6.15,0,0,1-1.4.1h-10.6Z"/><rect class="cls-6" x="23.82" y="28.81" width="142.9" height="42.5"/><path class="cls-3" d="M165.32,77.91a.27.27,0,0,1,.3.3v1.6a.27.27,0,0,1-.3.3h-19.6a.27.27,0,0,1-.3-.3v-1.6a.27.27,0,0,1,.3-.3Z"/><path class="cls-3" d="M154.42,21.21a.27.27,0,0,1,.3.3v1.6a.27.27,0,0,1-.3.3H50.82a.27.27,0,0,1-.3-.3v-1.6a.27.27,0,0,1,.3-.3Z"/><path class="cls-3" d="M137,76.81a.27.27,0,0,1,.3.3v1.6a.27.27,0,0,1-.3.3H33.42a.27.27,0,0,1-.3-.3v-1.6a.27.27,0,0,1,.3-.3Z"/><path class="cls-3" d="M114.12,17.91H10.52a.27.27,0,0,1-.3-.3V16a.27.27,0,0,1,.3-.3h103.6a.27.27,0,0,1,.3.3v1.6Q114.27,17.91,114.12,17.91Z"/><path class="cls-3" d="M62.82,81.21a.27.27,0,0,1,.3.3v1.6a.27.27,0,0,1-.3.3H12.72a.27.27,0,0,1-.3-.3v-1.6a.27.27,0,0,1,.3-.3Z"/><path class="cls-1" d="M63.12,81.51a.27.27,0,0,0-.3-.3H12.72a.27.27,0,0,0-.3.3v1.6a.27.27,0,0,0,.3.3h50.1a.27.27,0,0,0,.3-.3ZM137,79a.27.27,0,0,0,.3-.3v-1.6a.27.27,0,0,0-.3-.3H33.42a.27.27,0,0,0-.3.3v1.6a.27.27,0,0,0,.3.3Zm-123.8-4.4h152.1v3.3h-19.6a.27.27,0,0,0-.3.3v1.6a.27.27,0,0,0,.3.3h19.6v2.2H73.72a.27.27,0,0,0-.3.3v1.6a.27.27,0,0,0,.3.3h103.6v3.3H8.92a2.58,2.58,0,0,1-2.6-2.6v-4A6.92,6.92,0,0,1,13.22,74.61Z"/><path class="cls-3" d="M42.12,20.11a.27.27,0,0,1,.3.3V22a.27.27,0,0,1-.3.3H22.52a.27.27,0,0,1-.3-.3v-1.6a.27.27,0,0,1,.3-.3Z"/><polygon class="cls-5" points="23.82 28.81 23.82 71.41 21.12 71.41 21.12 62.71 21.12 28.81 23.82 28.81"/><path class="cls-2" d="M23.82,27.71v1.1H13.22a6.6,6.6,0,0,1-1.4-.1v-1Z"/><path class="cls-1" d="M42.12,22.31a.27.27,0,0,0,.3-.3v-1.6a.27.27,0,0,0-.3-.3H22.52a.27.27,0,0,0-.3.3V22a.27.27,0,0,0,.3.3Zm-31.6-4.4h103.6a.27.27,0,0,0,.3-.3V16a.27.27,0,0,0-.3-.3H10.52a.27.27,0,0,0-.3.3v1.6A.27.27,0,0,0,10.52,17.91Zm166.8,7.7H13.22a6.75,6.75,0,0,1-6.8-6.5v-4A2.58,2.58,0,0,1,9,12.51h172.7a2.58,2.58,0,0,1,2.6,2.6v4A7.15,7.15,0,0,1,177.32,25.61Zm-22.9-2.2a.27.27,0,0,0,.3-.3v-1.6a.27.27,0,0,0-.3-.3H50.82a.27.27,0,0,0-.3.3v1.6a.27.27,0,0,0,.3.3ZM125,19h50.1a.27.27,0,0,0,.3-.3v-1.6a.27.27,0,0,0-.3-.3H125a.27.27,0,0,0-.3.3v1.6A.27.27,0,0,0,125,19Z"/><path class="cls-4" d="M21.12,71.41v1.1h-9.3v-.9a6.15,6.15,0,0,1,1.4-.1h7.9Z"/><path class="cls-1" d="M18.22,52.81a.22.22,0,0,1,.2.2v9.7a.22.22,0,0,1-.2.2h-.9a.22.22,0,0,1-.2-.2V53c0-.1,0-.1.1-.2a.35.35,0,0,1,.2-.1h.8Z"/><path class="cls-2" d="M21.12,28.81v33.9h-2.7V53a.22.22,0,0,0-.2-.2h-.9c-.1,0-.1,0-.2.1l-1-1.2a.22.22,0,0,0,.2-.2V32.21a.22.22,0,0,0-.2-.2v-3.3h5v.1Z"/><path class="cls-2" d="M17,53v9.7a.22.22,0,0,0,.2.2h.9a.22.22,0,0,0,.2-.2H21v8.7h-9.3V28.91h4.2v3.3h-.8a.22.22,0,0,0-.2.2v19.3a.22.22,0,0,0,.2.2h.8l1,1.2C17,52.91,17,53,17,53Z"/><path class="cls-1" d="M16,32.11a.22.22,0,0,1,.2.2v19.3a.22.22,0,0,1-.2.2h-.8a.22.22,0,0,1-.2-.2V32.31a.22.22,0,0,1,.2-.2Z"/><path class="cls-1" d="M13.22,28.81h-1.4v-.1A6.6,6.6,0,0,0,13.22,28.81Z"/><path class="cls-2" d="M11.82,71.41h1.4a6.6,6.6,0,0,0-1.4.1Z"/><path class="cls-1" d="M11.82,71.41v.1a6.87,6.87,0,0,0-5.5,6.7v-4.3a2.58,2.58,0,0,1,2.6-2.6l2.9.1Z"/><path class="cls-1" d="M11.82,28.71v.1H8.92a2.58,2.58,0,0,1-2.6-2.6v-4.3A7,7,0,0,0,11.82,28.71Z"/><path class="cls-2" d="M178.72,27.71h-12v1.1H23.82v-1.1h-12v.9a6.87,6.87,0,0,1-5.5-6.7v-3a6.75,6.75,0,0,0,6.8,6.5h164.1a6.75,6.75,0,0,0,6.8-6.5v3a6.77,6.77,0,0,1-5.5,6.7v-.9Z"/><path class="cls-4" d="M166.72,72.41h12v-.9a6.87,6.87,0,0,1,5.5,6.7v3a6.75,6.75,0,0,0-6.8-6.5H13.22a6.75,6.75,0,0,0-6.8,6.5v-3a6.77,6.77,0,0,1,5.5-6.7v.9h12v-1.1h142.9l-.1,1.1Z"/></g><g id="_Group_2" data-name="&lt;Group&gt;"><path class="cls-7" d="M17.12,16.71a2.5,2.5,0,1,1-2.5,2.5A2.48,2.48,0,0,1,17.12,16.71Z"/><path class="cls-8" d="M17.12,14.71a4.5,4.5,0,1,1-4.5,4.5A4.48,4.48,0,0,1,17.12,14.71Zm2.5,4.5a2.5,2.5,0,1,0-2.5,2.5A2.48,2.48,0,0,0,19.62,19.21Z"/></g><g id="_Group_3" data-name="&lt;Group&gt;"><path class="cls-7" d="M16,78.81a2.5,2.5,0,1,1-2.5,2.5A2.54,2.54,0,0,1,16,78.81Z"/><path class="cls-8" d="M18.52,81.41a2.5,2.5,0,1,0-2.5,2.5A2.48,2.48,0,0,0,18.52,81.41ZM16,76.81a4.5,4.5,0,1,1-4.5,4.5A4.48,4.48,0,0,1,16,76.81Z"/></g><g id="_Group_4" data-name="&lt;Group&gt;"><path class="cls-7" d="M174.12,16.71a2.5,2.5,0,1,1-2.5,2.5A2.54,2.54,0,0,1,174.12,16.71Z"/><path class="cls-8" d="M174.12,14.71a4.5,4.5,0,1,1-4.5,4.5A4.48,4.48,0,0,1,174.12,14.71Zm2.6,4.5a2.5,2.5,0,1,0-2.5,2.5A2.54,2.54,0,0,0,176.72,19.21Z"/></g><g id="_Group_5" data-name="&lt;Group&gt;"><path class="cls-7" d="M173,78.81a2.5,2.5,0,1,1-2.5,2.5A2.61,2.61,0,0,1,173,78.81Z"/><path class="cls-8" d="M173,78.81a2.5,2.5,0,1,0,2.5,2.5A2.41,2.41,0,0,0,173,78.81Zm0,7.1a4.5,4.5,0,1,1,4.5-4.5A4.42,4.42,0,0,1,173,85.91Z"/></g><path class="cls-9" d="M191.72,88.71l-158.3,13a7.86,7.86,0,0,1-8.5-7.2l-5.5-66.6a7.86,7.86,0,0,1,7.2-8.5l158.3-13a7.86,7.86,0,0,1,8.5,7.2l5.5,66.6A7.85,7.85,0,0,1,191.72,88.71Z"/><g id="_Group_6" data-name="&lt;Group&gt;"><path class="cls-1" d="M192.82,71.91l.4,4.5a2.7,2.7,0,0,1-2.5,2.9l-4.5.4-.3-3.4a.32.32,0,0,0,.3-.3l-.1-1.7a.32.32,0,0,0-.3-.3l-12.6,1-.2-2.3a.32.32,0,0,0,.3-.3l-.1-1.7a.32.32,0,0,0-.3-.3l-.3-3.4,12.6-1a7.13,7.13,0,0,1,7.7,6.3A.76.76,0,0,1,192.82,71.91Z"/><path class="cls-1" d="M192.22,64.51l.4,4.5a7.24,7.24,0,0,0-6.3-6.6v-.1l3.1-.3A2.67,2.67,0,0,1,192.22,64.51Z"/><path class="cls-1" d="M182.52,17.41a7.29,7.29,0,0,0,5.2-7.5l.4,4.5a2.7,2.7,0,0,1-2.5,2.9l-3.1.3Z"/><path class="cls-2" d="M186.22,62.31v.1a3.29,3.29,0,0,0-1.4,0Z"/><path class="cls-1" d="M182.52,17.41v.1l-1.4.1A5.91,5.91,0,0,0,182.52,17.41Z"/><path class="cls-3" d="M185.92,76.21l-109.1,9a.27.27,0,0,1-.3-.3l-.1-1.7a.27.27,0,0,1,.3-.3l96.4-7.9,12.6-1a.27.27,0,0,1,.3.3l.1,1.7C186.22,76.11,186.12,76.21,185.92,76.21Z"/><path class="cls-1" d="M181.72,37.31a.22.22,0,0,1,.2.2l1.7,20.3a.22.22,0,0,1-.2.2l-.8.1a.22.22,0,0,1-.2-.2l-1.7-20.3a.22.22,0,0,1,.2-.2Z"/><path class="cls-3" d="M177.92,7.51l-52.8,4.3a.27.27,0,0,1-.3-.3l-.1-1.7a.27.27,0,0,1,.3-.3l52.8-4.3a.27.27,0,0,1,.3.3l.1,1.7A.32.32,0,0,1,177.92,7.51Z"/><path class="cls-1" d="M177.62,21.11a.27.27,0,0,1,.3.3l1.7,20.6a.27.27,0,0,1-.3.3l-1.7.1a.27.27,0,0,1-.3-.3l-1.7-20.6a.27.27,0,0,1,.3-.3Z"/><path class="cls-1" d="M179.82,50.11c.1,0,.3.1.3.2l.3,4.1c0,.1-.1.3-.2.3l-1.2.1a.32.32,0,0,1-.3-.3l-.3-4.1a.32.32,0,0,1,.3-.3Z"/><path class="cls-2" d="M180.42,54.41l-.3-4.1c0-.1-.1-.3-.3-.2l-1.2.1a.32.32,0,0,0-.3.3l.3,4.1a.32.32,0,0,0,.3.3l1.2-.1C180.32,54.71,180.42,54.61,180.42,54.41Zm-.8-12.4-1.7-20.6a.32.32,0,0,0-.3-.3l-1.7.1a.32.32,0,0,0-.3.3l1.7,20.6a.32.32,0,0,0,.3.3l1.7-.1C179.52,42.31,179.72,42.21,179.62,42Zm3.9,15.7-1.7-20.3a.22.22,0,0,0-.2-.2l-.8.1a.22.22,0,0,0-.2.2l1.7,20.3a.22.22,0,0,0,.2.2l.8-.1C183.52,57.91,183.52,57.81,183.52,57.71Zm-7,5.4-3.7-44.8,8.3-.7,1.4-.1,3.7,44.8-1.4.1Z"/><path class="cls-4" d="M176.52,63.11l8.3-.7h1.4l.1,1-12.6,1-.1-1.1Z"/><rect class="cls-5" x="171.57" y="18.4" width="2.9" height="44.9" transform="matrix(1, -0.08, 0.08, 1, -2.77, 14.33)"/><path class="cls-2" d="M169.82,17.41l12.6-1,.1,1-1.4.3-8.3.7-2.9.2Z"/><rect class="cls-10" x="21.08" y="24.69" width="150.9" height="44.9" transform="matrix(1, -0.08, 0.08, 1, -3.54, 8.07)"/><path class="cls-3" d="M172.72,70.41a.27.27,0,0,1,.3.3l.1,1.7a.27.27,0,0,1-.3.3l-20.6,1.7a.27.27,0,0,1-.3-.3l-.1-1.7a.27.27,0,0,1,.3-.3Z"/><path class="cls-3" d="M156.52,13.91l-109.1,9a.27.27,0,0,1-.3-.3l-.1-1.7a.27.27,0,0,1,.3-.3l109.1-9a.27.27,0,0,1,.3.3l.1,1.7A.32.32,0,0,1,156.52,13.91Z"/><path class="cls-3" d="M142.92,74,33.82,83a.27.27,0,0,1-.3-.3l-.1-1.7a.27.27,0,0,1,.3-.3l109.1-9a.27.27,0,0,1,.3.3l.1,1.7A.32.32,0,0,1,142.92,74Z"/><path class="cls-3" d="M113.52,11.61l-109.1,9a.27.27,0,0,1-.3-.3L4,18.61a.27.27,0,0,1,.3-.3l109.1-9a.27.27,0,0,1,.3.3l.1,1.7A.27.27,0,0,1,113.52,11.61Z"/><path class="cls-3" d="M65.22,85l-52.8,4.3a.27.27,0,0,1-.3-.3l-.1-1.7a.27.27,0,0,1,.3-.3l52.8-4.3a.27.27,0,0,1,.3.3l.1,1.7A.32.32,0,0,1,65.22,85Z"/><path class="cls-1" d="M33.92,82.91l109.1-9a.32.32,0,0,0,.3-.3l-.1-1.7a.32.32,0,0,0-.3-.3l-109.1,9a.32.32,0,0,0-.3.3l.1,1.7C33.62,82.81,33.72,83,33.92,82.91Zm152.3-3.2L8.92,94.31A2.7,2.7,0,0,1,6,91.81l-.4-4.5v.3a7.18,7.18,0,0,1,6.6-7.5l160.2-13.2.3,3.4L152.12,72a.32.32,0,0,0-.3.3l.1,1.7a.32.32,0,0,0,.3.3l20.6-1.7.2,2.3-96.4,7.9a.32.32,0,0,0-.3.3l.1,1.7a.32.32,0,0,0,.3.3l109.1-9ZM65,82.71,12.22,87a.32.32,0,0,0-.3.3L12,89a.32.32,0,0,0,.3.3L65.12,85a.32.32,0,0,0,.3-.3l-.1-1.7C65.42,82.81,65.22,82.71,65,82.71Z"/><path class="cls-3" d="M37.92,20.21a.27.27,0,0,1,.3.3l.1,1.7a.27.27,0,0,1-.3.3l-20.6,1.7a.27.27,0,0,1-.3-.3l-.1-1.7a.27.27,0,0,1,.3-.3Z"/><polygon class="cls-5" points="19.52 30.91 23.22 75.71 20.32 76.01 19.52 66.81 16.62 31.21 19.52 30.91"/><path class="cls-2" d="M19.42,29.81l.1,1.1-2.9.2-5.3.4-3,.2H6.92l-.1-1Z"/><path class="cls-1" d="M125.22,11.81,178,7.51a.32.32,0,0,0,.3-.3l-.1-1.7a.32.32,0,0,0-.3-.3l-52.8,4.3a.32.32,0,0,0-.3.3l.1,1.7A.22.22,0,0,0,125.22,11.81Zm-87.1,10.7a.32.32,0,0,0,.3-.3l-.1-1.7a.32.32,0,0,0-.3-.3l-20.6,1.7a.32.32,0,0,0-.3.3l.1,1.7a.32.32,0,0,0,.3.3Zm9.3.4,109.1-9a.32.32,0,0,0,.3-.3l-.1-1.7a.32.32,0,0,0-.3-.3l-109.1,9a.32.32,0,0,0-.3.3l.1,1.7A.32.32,0,0,0,47.42,22.91ZM2.42,15,184.22,0a2.7,2.7,0,0,1,2.9,2.5l.4,4.5v-.3a7.18,7.18,0,0,1-6.6,7.5L8.12,28.41a7.13,7.13,0,0,1-7.7-6.3v.3L0,17.91A2.56,2.56,0,0,1,2.42,15Zm111-5.7-109.1,9a.32.32,0,0,0-.3.3l.1,1.7a.32.32,0,0,0,.3.3l109.1-9a.32.32,0,0,0,.3-.3l-.1-1.7A.45.45,0,0,0,113.42,9.31Z"/><path class="cls-4" d="M20.32,76l.1,1.1-9.8.8-.1-1,1.4-.3Z"/><path class="cls-1" d="M15.62,56.71a.22.22,0,0,1,.2.2l.8,10.2a.22.22,0,0,1-.2.2l-1,.1a.22.22,0,0,1-.2-.2L14.42,57c0-.1,0-.1.1-.2a.35.35,0,0,1,.2-.1Z"/><path class="cls-2" d="M16.62,31.21l2.9,35.7-2.9.2-.8-10.2a.22.22,0,0,0-.2-.2l-1,.1c-.1,0-.1,0-.2.1l-1.2-1.1a.22.22,0,0,0,.2-.2l-1.7-20.3a.22.22,0,0,0-.2-.2l-.3-3.4Z"/><path class="cls-2" d="M10.52,76.81,6.82,32l1.4-.1,3-.2.3,3.4-.8.1a.22.22,0,0,0-.2.2l1.7,20.3a.22.22,0,0,0,.2.2l.8-.1,1.2,1.1a.35.35,0,0,0-.1.2l.8,10.2a.22.22,0,0,0,.2.2l1-.1a.22.22,0,0,0,.2-.2l2.9-.2.8,9.1-8.3.7Z"/><path class="cls-1" d="M11.52,35.11a.22.22,0,0,1,.2.2l1.7,20.3a.22.22,0,0,1-.2.2l-.8.1a.22.22,0,0,1-.2-.2l-1.7-20.3a.22.22,0,0,1,.2-.2Z"/><path class="cls-1" d="M8.32,31.91l-1.4.1v-.1Z"/><path class="cls-2" d="M10.52,76.81l1.4-.1a3.19,3.19,0,0,0-1.4.3Z"/><path class="cls-1" d="M10.52,76.81v.1a7.29,7.29,0,0,0-5.2,7.5l-.4-4.5A2.7,2.7,0,0,1,7.42,77Z"/><path class="cls-1" d="M6.82,31.81v.1l-3,.3a2.7,2.7,0,0,1-2.9-2.5l-.4-4.5A7.25,7.25,0,0,0,6.82,31.81Z"/><path class="cls-2" d="M19.42,29.81l-12.6,1,.1,1a7.24,7.24,0,0,1-6.3-6.6l-.2-2.9V22a7.26,7.26,0,0,0,7.7,6.3l172.8-14.2a7.12,7.12,0,0,0,6.6-7.5v.3l.2,2.9a7.09,7.09,0,0,1-5.2,7.5l-.1-1-12.6,1,.1,1.1L19.52,30.81Z"/><path class="cls-4" d="M10.62,77.91l9.8-.8,2.9-.2-.1-1.1,150.4-12.4.1,1.1,12.6-1-.1-1a7.24,7.24,0,0,1,6.3,6.6l.2,2.9v.3A7.26,7.26,0,0,0,185,66l-12.6,1L12.22,80.11a7.12,7.12,0,0,0-6.6,7.5v-.3l-.2-2.9a7.09,7.09,0,0,1,5.2-7.5Z"/></g><g id="_Group_7" data-name="&lt;Group&gt;"><path class="cls-7" d="M11.32,18.71a2.66,2.66,0,1,1-2.4,2.8A2.66,2.66,0,0,1,11.32,18.71Z"/><path class="cls-8" d="M8.92,21.61a2.7,2.7,0,0,0,2.9,2.5,2.66,2.66,0,1,0-.5-5.3A2.54,2.54,0,0,0,8.92,21.61Zm7.4-.6a4.76,4.76,0,0,1-4.4,5.2,4.81,4.81,0,0,1-5.2-4.4,4.89,4.89,0,0,1,4.4-5.2A4.76,4.76,0,0,1,16.32,21Z"/></g><g id="_Group_8" data-name="&lt;Group&gt;"><path class="cls-7" d="M15.62,84.31a2.71,2.71,0,1,1-2.4,3A2.6,2.6,0,0,1,15.62,84.31Z"/><path class="cls-8" d="M18.42,86.71a2.7,2.7,0,0,0-2.9-2.5,2.66,2.66,0,1,0,.5,5.3A2.42,2.42,0,0,0,18.42,86.71Zm2.2-.1a4.82,4.82,0,1,1-9.6.8,4.83,4.83,0,0,1,4.4-5.2A4.75,4.75,0,0,1,20.62,86.61Z"/></g><g id="_Group_9" data-name="&lt;Group&gt;"><path class="cls-7" d="M176.72,5.11a2.71,2.71,0,1,1-2.4,3A2.6,2.6,0,0,1,176.72,5.11Z"/><path class="cls-8" d="M179.62,7.61a2.7,2.7,0,0,0-2.9-2.5,2.56,2.56,0,0,0-2.4,2.9,2.56,2.56,0,0,0,2.9,2.4A2.66,2.66,0,0,0,179.62,7.61ZM176.52,3a4.81,4.81,0,0,1,5.2,4.4,4.82,4.82,0,1,1-9.6.8A4.82,4.82,0,0,1,176.52,3Z"/></g><g id="_Group_10" data-name="&lt;Group&gt;"><path class="cls-7" d="M180.92,70.71a2.66,2.66,0,1,1-2.5,2.9A2.84,2.84,0,0,1,180.92,70.71Z"/><path class="cls-8" d="M183.82,73.11a2.66,2.66,0,1,0-2.4,2.9A2.69,2.69,0,0,0,183.82,73.11Zm-3-4.6a4.76,4.76,0,0,1,5.2,4.4,4.81,4.81,0,0,1-4.4,5.2,4.89,4.89,0,0,1-5.2-4.4A4.8,4.8,0,0,1,180.82,68.51Z"/></g><path class="cls-11" d="M44.22,49.61a2.39,2.39,0,0,1,.5-1.9,2.59,2.59,0,0,1,1.7-.9l2.6-.2.3,2.1-1.3.1a1.27,1.27,0,0,0-.9.4c-.2.2-.2.5-.2,1l.6,6.6,2.9-6.1,1.1-.1,3.9,5.5-.9-10,2.6-.2,1.2,13.8-2.7.2-4.4-6.5-3.3,7.1-2.7.2Z"/><path class="cls-11" d="M62.42,58.51a4.08,4.08,0,0,1-1.6-3.1,3.85,3.85,0,0,1,1.1-3.3,6.68,6.68,0,0,1,3.9-1.5l4.2-.4-.1-.9a3.36,3.36,0,0,0-.5-1.6,1.64,1.64,0,0,0-1.2-.7,12.17,12.17,0,0,0-2.1-.1,12.39,12.39,0,0,0-4.4,1.1l-.2-2.1c.7-.3,1.4-.5,2.3-.8a11.7,11.7,0,0,1,2.6-.4,6.1,6.1,0,0,1,4.5.9,5.29,5.29,0,0,1,1.8,3.8l.8,8.8-2.8.2-.5-6.1-4,.4a3.45,3.45,0,0,0-2.1.7,2.2,2.2,0,0,0-.6,1.7,1.87,1.87,0,0,0,.8,1.5,4.47,4.47,0,0,0,2.2.3,6.07,6.07,0,0,0,1.7-.4l.2,2.1a8.5,8.5,0,0,1-2.5.5A5,5,0,0,1,62.42,58.51Z"/><path class="cls-11" d="M61.42,41.41l10.5-.9.2,1.9-10.6.9Z"/><path class="cls-11" d="M77.62,56.41a7.76,7.76,0,0,1-2-5.1,10,10,0,0,1,.7-5.5,3.76,3.76,0,0,1,3.2-2.2,2.61,2.61,0,0,1,1.6.2,4.7,4.7,0,0,1,1.2.9,4.74,4.74,0,0,1,1.3-1.1,3.69,3.69,0,0,1,1.7-.5,2.94,2.94,0,0,1,2.5.8,4.2,4.2,0,0,1,1.1,2.7l.9,10.3-2.8.2-.9-9.9a2.91,2.91,0,0,0-.4-1.4,1,1,0,0,0-1.1-.3,1.27,1.27,0,0,0-.9.4,1.35,1.35,0,0,0-.5.9l-1.5.1a3,3,0,0,0-.7-.8c-.2-.2-.5-.2-.9-.2a1.8,1.8,0,0,0-1.6,1.5,11,11,0,0,0-.2,3.8c.1,1.7.5,2.9,1.2,3.5a3,3,0,0,0,2.7.9,4.65,4.65,0,0,0,1.7-.4l.2,2.1a6.49,6.49,0,0,1-2.2.5A5.38,5.38,0,0,1,77.62,56.41Z"/><path class="cls-11" d="M92.62,54.41l.9-.1c.4,0,.6-.1.7-.3a1.06,1.06,0,0,0,.1-.8l-.1-1.7a4.12,4.12,0,0,1,.2-2,2.73,2.73,0,0,1,1.3-1.3l-2.9-.4-.2-2.9a9.28,9.28,0,0,1,2.7-1.9A10.62,10.62,0,0,1,99,42a6.77,6.77,0,0,1,4.7.9,5,5,0,0,1,1.9,4l.7,8.5-2.8.2-.8-8.6a3.17,3.17,0,0,0-1-2.4,4.22,4.22,0,0,0-2.7-.5,10.55,10.55,0,0,0-2.4.6,4.08,4.08,0,0,0-1.6,1.1v.5l3,.5.2,1.8a1.93,1.93,0,0,0-1.2.9,3.92,3.92,0,0,0-.2,1.7L97,53c.2,2.1-.7,3.2-2.7,3.4l-1.7.1Z"/><path class="cls-11" d="M98.72,36.31l2.3-.2.2,1.8,6.6-.6v1.9L99,40Z"/><path class="cls-11" d="M120.12,53.11a5,5,0,0,1-1.5-3.6l-.3-3.9a3,3,0,0,0-1-2.4,4.22,4.22,0,0,0-2.7-.5,8.65,8.65,0,0,0-2.3.6,5,5,0,0,0-1.6,1.1v.5l3,.5.2,1.8a2.18,2.18,0,0,0-1.3.9,4,4,0,0,0-.3,1.7l.1,1.7c0,.4.1.7.3.8a1.08,1.08,0,0,0,.8.2l1.4-.1.2,2.2-2.8.2a2.12,2.12,0,0,1-1.9-.6,2.2,2.2,0,0,1-.8-1.8l-.2-2.4c-.1-1.7.4-2.8,1.7-3.3l-2.8-.4-.2-2.9a9.28,9.28,0,0,1,2.7-1.9,10.68,10.68,0,0,1,3.6-1,6.49,6.49,0,0,1,4.6.9,5.28,5.28,0,0,1,1.9,4l.3,3.7a3.22,3.22,0,0,0,.9,2.2,2.91,2.91,0,0,0,2.2.5,6,6,0,0,0,1.9-.6,7,7,0,0,0,1.6-1.4l-.9-10.1,2.8-.2,1.2,13.8-2.5.2-.3-1.5a7.49,7.49,0,0,1-2,1.5,6.61,6.61,0,0,1-2.5.7A4.5,4.5,0,0,1,120.12,53.11Z"/><path class="cls-11" d="M134.12,47.51a4.4,4.4,0,0,1,.2-1.6,13.78,13.78,0,0,1,.8-2,7.25,7.25,0,0,0,.6-1.4c.1-.4.2-.7.1-.9,0-.4-.2-.5-.6-.5a1,1,0,0,0-.8.5l.1,1-1.9.2-.3-3.4,1.9-.2.1.7c.3-.2.5-.4.8-.6a2.93,2.93,0,0,1,1-.3,1.8,1.8,0,0,1,1.6.6,8.51,8.51,0,0,1,1.4-.9,4.71,4.71,0,0,1,1.7-.4,4,4,0,0,1,3.2.9,5.39,5.39,0,0,1,1.3,3.5l.8,9.3-2.8.2-.8-9.2a3.51,3.51,0,0,0-.6-1.9c-.3-.4-.9-.5-1.7-.4a2.61,2.61,0,0,0-1.1.3,3.49,3.49,0,0,0-.9.6,3.75,3.75,0,0,1-.1,1.1c-.1.4-.3.9-.5,1.5a8.8,8.8,0,0,0-.6,1.7,3.81,3.81,0,0,0-.1,1.5l.5,5.3-2.8.2Z"/><path class="cls-11" d="M138.52,32.91l7.5-.7.1,1.9-5.1.4.2,1.8-2.3.2Z"/></g></g></g></svg>