<svg xmlns="http://www.w3.org/2000/svg" viewBox="0 0 199.04 101.74"><defs><style>.cls-1{fill:#9baa93;}.cls-2{fill:#96804e;}.cls-3{fill:#b99d67;}.cls-4{fill:#78673d;}.cls-5{fill:#7c5b35;}.cls-6{fill:#645028;}.cls-7{fill:#fccf05;}.cls-8{fill:#604f2b;}.cls-9{fill:#f8dda0;}.cls-10{fill:#e97625;}</style></defs><title>Asset 8</title><g id="Layer_2" data-name="Layer 2"><g id="Layer_1-2" data-name="Layer 1"><g id="ประวัติกด"><path class="cls-1" d="M191.81,88.71l-158.3,13a7.86,7.86,0,0,1-8.5-7.2l-5.5-66.6a7.86,7.86,0,0,1,7.2-8.5L185,6.41a7.86,7.86,0,0,1,8.5,7.2l5.5,66.6A7.92,7.92,0,0,1,191.81,88.71Z"/><g id="_Group_" data-name="&lt;Group&gt;"><path class="cls-2" d="M192.81,71.91l.4,4.5a2.7,2.7,0,0,1-2.5,2.9l-4.5.4-.3-3.4a.32.32,0,0,0,.3-.3l-.1-1.7a.32.32,0,0,0-.3-.3l-12.6,1-.2-2.3a.32.32,0,0,0,.3-.3l-.1-1.7a.32.32,0,0,0-.3-.3l-.3-3.4,12.7-1a7.13,7.13,0,0,1,7.7,6.3C192.81,72.11,192.81,72,192.81,71.91Z"/><path class="cls-3" d="M192.61,69l.2,2.9v.3a7.26,7.26,0,0,0-7.7-6.3l-12.7,1L12.21,80.11a7.12,7.12,0,0,0-6.6,7.5v-.3l-.2-2.9a7.09,7.09,0,0,1,5.2-7.5l.1,1,9.8-.8,2.9-.2-.1-1.1,150.4-12.4.1,1.1,12.6-1-.1-1A7.14,7.14,0,0,1,192.61,69Z"/><path class="cls-2" d="M192.21,64.51l.4,4.5a7.24,7.24,0,0,0-6.3-6.6v-.1l3-.3A2.77,2.77,0,0,1,192.21,64.51Z"/><path class="cls-2" d="M187.71,9.91l.4,4.5a2.7,2.7,0,0,1-2.5,2.9l-3,.3v-.1A7.38,7.38,0,0,0,187.71,9.91Z"/><path class="cls-4" d="M187.51,7l.2,2.9a7.09,7.09,0,0,1-5.2,7.5l-.1-1-12.6,1,.1,1.1L19.51,30.91l-.1-1.1-12.6,1,.1,1a7.24,7.24,0,0,1-6.3-6.6l-.2-2.9V22a7.26,7.26,0,0,0,7.7,6.3l172.8-14.2a7.12,7.12,0,0,0,6.6-7.5Z"/><path class="cls-2" d="M187.11,2.51l.4,4.5v-.3a7.18,7.18,0,0,1-6.6,7.5L8.11,28.41a7.13,7.13,0,0,1-7.7-6.3v.3L0,17.91A2.7,2.7,0,0,1,2.51,15L184.31,0A2.67,2.67,0,0,1,187.11,2.51Zm-8.8,4.7-.1-1.7a.32.32,0,0,0-.3-.3l-52.8,4.3a.32.32,0,0,0-.3.3l.1,1.7a.32.32,0,0,0,.3.3L178,7.51A.45.45,0,0,0,178.31,7.21Zm-21.5,6.4-.1-1.7a.32.32,0,0,0-.3-.3l-109.1,9a.32.32,0,0,0-.3.3l.1,1.7a.32.32,0,0,0,.3.3l109.1-9A.32.32,0,0,0,156.81,13.61Zm-42.9-2.3-.1-1.7a.32.32,0,0,0-.3-.3l-109.1,9a.32.32,0,0,0-.3.3l.1,1.7a.32.32,0,0,0,.3.3l109.1-9A.32.32,0,0,0,113.91,11.31Zm-75.5,10.8-.1-1.7a.32.32,0,0,0-.3-.3l-20.6,1.7a.32.32,0,0,0-.3.3l.1,1.7a.32.32,0,0,0,.3.3l20.6-1.7A.22.22,0,0,0,38.41,22.11Z"/><path class="cls-3" d="M176.51,63.11l8.3-.7h1.4l.1,1-12.6,1-.1-1.1Z"/><path class="cls-4" d="M186.31,62.31v.1a3.29,3.29,0,0,0-1.4,0Z"/><path class="cls-4" d="M182.61,17.51l3.7,44.8-1.4.1-8.3.7-3.7-44.8,8.3-.7Zm1,40.2-1.7-20.3a.22.22,0,0,0-.2-.2l-.8.1a.22.22,0,0,0-.2.2l1.7,20.3a.22.22,0,0,0,.2.2l.8-.1A.22.22,0,0,0,183.61,57.71ZM179.71,42,178,21.41a.32.32,0,0,0-.3-.3l-1.7.1a.32.32,0,0,0-.3.3l1.7,20.6a.32.32,0,0,0,.3.3l1.7-.1A.27.27,0,0,0,179.71,42Zm.7,12.4-.3-4.1c0-.1-.1-.3-.3-.2l-1.2.1c-.1,0-.3.1-.2.3l.3,4.1a.32.32,0,0,0,.3.3l1.2-.1A.52.52,0,0,0,180.41,54.41Z"/><path class="cls-2" d="M182.61,17.41v.1l-1.4.1A7.85,7.85,0,0,0,182.61,17.41Z"/><path class="cls-4" d="M172.81,18.31l-2.9.2-.1-1.1,12.6-1,.1,1-1.4.3Z"/><path class="cls-5" d="M186.11,74.21l.1,1.7a.27.27,0,0,1-.3.3l-109.1,9a.27.27,0,0,1-.3-.3l-.1-1.7a.27.27,0,0,1,.3-.3l96.4-7.9,12.6-1C185.91,73.91,186.11,74,186.11,74.21Z"/><path class="cls-2" d="M185.91,76.21l.3,3.4L8.91,94.21A2.7,2.7,0,0,1,6,91.71l-.4-4.5v.3a7.18,7.18,0,0,1,6.6-7.5l160.2-13.2.3,3.4-20.6,1.7a.32.32,0,0,0-.3.3l.1,1.7a.32.32,0,0,0,.3.3l20.6-1.7.2,2.3-96.4,7.9a.32.32,0,0,0-.3.3l.1,1.7a.32.32,0,0,0,.3.3Zm-42.6-2.6-.1-1.7a.32.32,0,0,0-.3-.3l-109.1,9a.32.32,0,0,0-.3.3l.1,1.7a.32.32,0,0,0,.3.3l109.1-9C143.21,74,143.31,73.81,143.31,73.61Zm-77.7,11.1-.1-1.7a.32.32,0,0,0-.3-.3L12.41,87a.32.32,0,0,0-.3.3l.1,1.7a.32.32,0,0,0,.3.3L65.31,85A.45.45,0,0,0,65.61,84.71Z"/><path class="cls-2" d="M181.91,37.41l1.7,20.3a.22.22,0,0,1-.2.2l-.8.1a.22.22,0,0,1-.2-.2l-1.7-20.3a.22.22,0,0,1,.2-.2l.8-.1A.22.22,0,0,1,181.91,37.41Z"/><path class="cls-5" d="M178.11,5.51l.1,1.7a.27.27,0,0,1-.3.3l-52.8,4.3a.27.27,0,0,1-.3-.3l-.1-1.7a.27.27,0,0,1,.3-.3l52.8-4.3A.27.27,0,0,1,178.11,5.51Z"/><path class="cls-2" d="M178,21.41l1.7,20.6a.27.27,0,0,1-.3.3l-1.7.1a.27.27,0,0,1-.3-.3l-1.7-20.6a.27.27,0,0,1,.3-.3l1.7-.1A.32.32,0,0,1,178,21.41Z"/><path class="cls-2" d="M180.11,50.41l.3,4.1a.32.32,0,0,1-.3.3l-1.2.1a.32.32,0,0,1-.3-.3l-.3-4.1c0-.1.1-.3.2-.3l1.2-.1C179.91,50.11,180.11,50.21,180.11,50.41Z"/><rect class="cls-6" x="171.79" y="18.39" width="2.9" height="44.9" transform="translate(-2.77 14.34) rotate(-4.7)"/><rect class="cls-7" x="21.1" y="24.69" width="150.9" height="44.9" transform="translate(-3.54 8.08) rotate(-4.7)"/><path class="cls-5" d="M173.11,70.61l.1,1.7a.27.27,0,0,1-.3.3l-20.6,1.7a.27.27,0,0,1-.3-.3l-.1-1.7a.27.27,0,0,1,.3-.3l20.6-1.7C172.91,70.41,173.11,70.51,173.11,70.61Z"/><path class="cls-5" d="M156.71,11.91l.1,1.7a.27.27,0,0,1-.3.3l-109.1,9a.27.27,0,0,1-.3-.3l-.1-1.7a.27.27,0,0,1,.3-.3l109.1-9A.32.32,0,0,1,156.71,11.91Z"/><path class="cls-5" d="M143.11,71.91l.1,1.7a.27.27,0,0,1-.3.3l-109.1,9a.27.27,0,0,1-.3-.3l-.1-1.7a.27.27,0,0,1,.3-.3l109.1-9Q143.11,71.76,143.11,71.91Z"/><path class="cls-5" d="M113.71,9.61l.1,1.7a.27.27,0,0,1-.3.3l-109.1,9a.27.27,0,0,1-.3-.3L4,18.61a.27.27,0,0,1,.3-.3l109.1-9A.32.32,0,0,1,113.71,9.61Z"/><path class="cls-5" d="M65.41,83l.1,1.7a.27.27,0,0,1-.3.3l-52.8,4.3a.27.27,0,0,1-.3-.3l-.1-1.7a.27.27,0,0,1,.3-.3l52.8-4.3A.27.27,0,0,1,65.41,83Z"/><path class="cls-5" d="M38.31,20.51l.1,1.7a.27.27,0,0,1-.3.3l-20.6,1.7a.27.27,0,0,1-.3-.3l-.1-1.7a.27.27,0,0,1,.3-.3L38,20.21A.32.32,0,0,1,38.31,20.51Z"/><polygon class="cls-6" points="19.51 30.91 23.21 75.71 20.31 76.01 19.61 66.81 16.61 31.21 19.51 30.91"/><path class="cls-4" d="M19.41,29.81l.1,1.1-2.9.2-5.4.4-3,.2H6.81l-.1-1Z"/><path class="cls-3" d="M20.31,76l.1,1.1-9.8.8-.1-1,1.4-.3Z"/><path class="cls-4" d="M19.61,66.81l.8,9.1-8.3.7-1.4.1L7,31.91l1.4-.1,3-.2.3,3.4-.8.1a.22.22,0,0,0-.2.2l1.7,20.3a.22.22,0,0,0,.2.2l.8-.1,1.2,1.1a.35.35,0,0,0-.1.2l.8,10.2a.22.22,0,0,0,.2.2l1-.1a.22.22,0,0,0,.2-.2Z"/><path class="cls-4" d="M16.61,31.21l2.9,35.7-2.9.2-.8-10.2a.22.22,0,0,0-.2-.2l-1,.1c-.1,0-.1,0-.1.1l-1.2-1.1a.22.22,0,0,0,.2-.2l-1.7-20.3a.22.22,0,0,0-.2-.2l-.3-3.4Z"/><path class="cls-2" d="M15.91,56.91l.8,10.2a.22.22,0,0,1-.2.2l-1,.1a.22.22,0,0,1-.2-.2L14.51,57c0-.1,0-.1.1-.2l.1-.1,1-.1C15.71,56.71,15.91,56.81,15.91,56.91Z"/><path class="cls-2" d="M11.81,35.21l1.7,20.3a.22.22,0,0,1-.2.2l-.8.1a.22.22,0,0,1-.2-.2l-1.7-20.3a.22.22,0,0,1,.2-.2l.8-.1C11.71,35.11,11.81,35.11,11.81,35.21Z"/><path class="cls-2" d="M8.31,31.91l-1.4.1v-.1Z"/><path class="cls-4" d="M10.61,76.81l1.4-.1a3.19,3.19,0,0,0-1.4.3Z"/><path class="cls-2" d="M10.61,76.81v.1a7.29,7.29,0,0,0-5.2,7.5L5,79.91A2.7,2.7,0,0,1,7.51,77Z"/><path class="cls-2" d="M6.91,31.81v.1l-3.1.3a2.7,2.7,0,0,1-2.9-2.5l-.4-4.5A7.16,7.16,0,0,0,6.91,31.81Z"/></g><g id="_Group_2" data-name="&lt;Group&gt;"><path class="cls-8" d="M11.21,16.61a4.89,4.89,0,0,1,5.2,4.4,4.83,4.83,0,0,1-4.4,5.2,4.82,4.82,0,1,1-.8-9.6Zm3,4.6a2.56,2.56,0,0,0-2.9-2.4,2.7,2.7,0,0,0-2.5,2.9,2.56,2.56,0,0,0,2.9,2.4A2.67,2.67,0,0,0,14.21,21.21Z"/><path class="cls-9" d="M11.41,18.71A2.66,2.66,0,1,1,9,21.61,2.56,2.56,0,0,1,11.41,18.71Z"/></g><g id="_Group_3" data-name="&lt;Group&gt;"><path class="cls-8" d="M15.41,82.21a4.81,4.81,0,0,1,5.2,4.4,4.82,4.82,0,0,1-9.6.8A4.83,4.83,0,0,1,15.41,82.21Zm3.1,4.5a2.56,2.56,0,0,0-2.9-2.4,2.66,2.66,0,0,0,.5,5.3A2.69,2.69,0,0,0,18.51,86.71Z"/><path class="cls-9" d="M15.61,84.31a2.66,2.66,0,1,1-2.5,2.9A2.69,2.69,0,0,1,15.61,84.31Z"/></g><g id="_Group_4" data-name="&lt;Group&gt;"><path class="cls-8" d="M176.61,3a4.81,4.81,0,0,1,5.2,4.4,4.82,4.82,0,1,1-9.6.8A4.69,4.69,0,0,1,176.61,3Zm3,4.6a2.66,2.66,0,0,0-5.3.5,2.56,2.56,0,0,0,2.9,2.4A2.82,2.82,0,0,0,179.61,7.61Z"/><path class="cls-9" d="M176.71,5.11a2.66,2.66,0,1,1-2.5,2.9A2.84,2.84,0,0,1,176.71,5.11Z"/></g><g id="_Group_5" data-name="&lt;Group&gt;"><path class="cls-8" d="M180.81,68.51a4.81,4.81,0,0,1,5.2,4.4,4.89,4.89,0,0,1-4.4,5.2,4.83,4.83,0,0,1-5.2-4.4A4.87,4.87,0,0,1,180.81,68.51Zm3.1,4.6a2.7,2.7,0,0,0-2.9-2.5,2.66,2.66,0,1,0,2.9,2.5Z"/><path class="cls-9" d="M181,70.71a2.71,2.71,0,1,1-2.4,3A2.6,2.6,0,0,1,181,70.71Z"/></g><path class="cls-10" d="M65.91,57.61a5.7,5.7,0,0,1-2.1-4.2l-.8-8.8,2.9-.3.8,8.9a3.46,3.46,0,0,0,1.1,2.5,4,4,0,0,0,2.8.6,4.2,4.2,0,0,0,2.7-1.1,3.25,3.25,0,0,0,.7-2.7l-1.1-13.1,2.9-.3,1.1,13a5.55,5.55,0,0,1-1.3,4.5,7,7,0,0,1-4.7,1.9A6.51,6.51,0,0,1,65.91,57.61Z"/><path class="cls-10" d="M82.71,57.41a11.69,11.69,0,0,1-2.2-.3l-.2-2.4a14.34,14.34,0,0,0,2.2.4,8.09,8.09,0,0,0,2.2,0,6.71,6.71,0,0,0,2.7-.6,1.41,1.41,0,0,0,.7-1.5,1.53,1.53,0,0,0-.4-1,1.93,1.93,0,0,0-.9-.5c-.4-.1-1-.3-1.8-.5l-1.1-.3a12.72,12.72,0,0,1-3.4-1.3,2.92,2.92,0,0,1-1.3-2.4,3.52,3.52,0,0,1,1.2-3.1,7.42,7.42,0,0,1,4.2-1.5,9.64,9.64,0,0,1,2.4,0,11.76,11.76,0,0,1,2.1.3l.2,2.4a6,6,0,0,0-2-.3,6.69,6.69,0,0,0-2,0,7,7,0,0,0-2.5.6,1.22,1.22,0,0,0-.7,1.4,1.27,1.27,0,0,0,.4.9,3.13,3.13,0,0,0,1,.5c.4.1,1.1.3,1.9.5l.8.2a8.44,8.44,0,0,1,3.4,1.4,3.56,3.56,0,0,1,1.2,2.6,3.43,3.43,0,0,1-1.3,3.2,8,8,0,0,1-4.2,1.4A23.51,23.51,0,0,1,82.71,57.41Z"/><path class="cls-10" d="M92.51,44.21,95,44l.1,1.3L99,45l.1,2.2-6.3.5Zm.6,7.2,2.5-.2.1,1.3,3.9-.3.1,2.1-6.3.5Z"/><path class="cls-10" d="M101.91,55.11l-.2-2.3a9.47,9.47,0,0,0,3.7.5,6.22,6.22,0,0,0,2.8-.8,3.19,3.19,0,0,0,1.4-1.8,9.22,9.22,0,0,0,.2-3,5.85,5.85,0,0,0-1.5-3.8,5,5,0,0,0-3.9-.8,8.94,8.94,0,0,0-3.5,1.1l-.2-2.3a13.07,13.07,0,0,1,4.1-1.2c2.4-.2,4.2.3,5.4,1.4a7.92,7.92,0,0,1,2.2,5.4,8.38,8.38,0,0,1-1.2,5.7c-1,1.4-2.7,2.1-5.1,2.3A8.42,8.42,0,0,1,101.91,55.11Z"/><path class="cls-10" d="M104.41,34.91l2.4-.2.2,1.9,6.9-.6v2l-9.1.8Z"/><path class="cls-10" d="M116.81,52.81c-1.2-1.1-1.9-2.9-2.1-5.3a11.12,11.12,0,0,1,.7-5.8,3.82,3.82,0,0,1,3.3-2.3,3,3,0,0,1,1.7.2,3.81,3.81,0,0,1,1.3.9,4,4,0,0,1,1.4-1.1,4.07,4.07,0,0,1,1.8-.5,3.16,3.16,0,0,1,2.6.8,4.26,4.26,0,0,1,1.1,2.8l.9,10.7-2.9.3-.9-10.3a3.94,3.94,0,0,0-.4-1.5q-.3-.45-1.2-.3a1.78,1.78,0,0,0-1,.4,1.7,1.7,0,0,0-.6,1l-1.6.1a3.63,3.63,0,0,0-.8-.9,1.5,1.5,0,0,0-1-.2,1.9,1.9,0,0,0-1.7,1.5,12,12,0,0,0-.2,4,6.93,6.93,0,0,0,1.2,3.7,3.21,3.21,0,0,0,2.8.9,6,6,0,0,0,1.8-.4l.2,2.2a7.13,7.13,0,0,1-2.3.5A5.07,5.07,0,0,1,116.81,52.81Z"/><path class="cls-10" d="M117.11,35.71l10.9-1,.2,2-11.1,1Z"/></g></g></g></svg>