<svg xmlns="http://www.w3.org/2000/svg" viewBox="0 0 104.31 86.36"><defs><style>.cls-1{fill:#9baa93;}.cls-2{fill:#af8445;}.cls-3{fill:#fccf05;}.cls-4{fill:#c69b55;}.cls-5{fill:#aa7739;}.cls-6{fill:#d8b10f;}</style></defs><title>Asset 2</title><g id="Layer_2" data-name="Layer 2"><g id="Layer_1-2" data-name="Layer 1"><g id="โฮมกด"><path class="cls-1" d="M103.4,28.23a3,3,0,0,0-2.8-1.4l-85.3,7.1-3.5.3a2.79,2.79,0,0,0-2.6,2.1,2.36,2.36,0,0,0-.1,1.2l.3,3.8a3.11,3.11,0,0,0,3.3,2.8l3.5-.3.3,4.1L19,77.23a9.19,9.19,0,0,0,9.9,8.4l17.5-1.5,27-2.3-1.7-20.6a8.45,8.45,0,0,0-9-7.7,8.48,8.48,0,0,1,9.1,7.7l1.7,20.6,19-1.6a9.19,9.19,0,0,0,8.4-9.9L98.4,41h-.1l-.3-4.1,3.5-.3a3.11,3.11,0,0,0,2.8-3.3l-.3-3.8C103.8,29.13,103.6,28.63,103.4,28.23ZM66.9,67.83c.1,1.3-1.2,2.4-2.8,2.4H64c1.6-.2,2.9-1.2,2.8-2.4s-1.4-2-3.1-1.9h.1C65.3,65.83,66.8,66.63,66.9,67.83Zm28.7-35.6s7-.5,6.7-3.6C102.6,31.83,95.6,32.23,95.6,32.23Z"/><path class="cls-1" d="M57.3,1.33c-4.7-3.3-7.6.6-7.6.6L15.2,34l81-6.9S62,4.53,57.3,1.33Z"/><path class="cls-1" d="M87.3,80.63l-53.5,4.5a14.18,14.18,0,0,1-15.4-13L15.2,34l81.9-6.9,3.2,38.1A14.3,14.3,0,0,1,87.3,80.63Z"/><polygon class="cls-1" points="15.2 34.03 44.8 6.43 62.8 4.93 101.4 30.53 101.2 28.03 103.4 28.23 102.7 33.33 16.5 39.63 15.2 34.03"/><g id="โฮม"><path class="cls-2" d="M93.5,29.43c.3,3.1-6.7,3.6-6.7,3.6s-70.1,5.9-77.9,6.5-7.4-2.4-7.4-2.4H.3A2.91,2.91,0,0,1,2.9,35l88.9-7.4A3,3,0,0,1,94.6,29Z"/><path class="cls-3" d="M89.4,41.73,91.9,71a9.18,9.18,0,0,1-8.4,9.9l-19,1.6-1.7-20.6a8.48,8.48,0,0,0-9.1-7.7l-10.4.9a8.48,8.48,0,0,0-7.7,9.1l1.7,20.6-17.5,1.5a9.18,9.18,0,0,1-9.9-8.4L7.4,48.63Z"/><rect class="cls-4" x="7.17" y="41.02" width="82.1" height="4.1" transform="matrix(1, -0.08, 0.08, 1, -3.43, 4.17)"/><path class="cls-5" d="M62.7,61.93l1.7,20.6-27,2.3-1.7-20.6a8.48,8.48,0,0,1,7.7-9.1l10.4-.9A8.41,8.41,0,0,1,62.7,61.93Zm-4.6,6.6c-.1-1.2-1.6-2-3.2-1.9s-3,1.2-2.9,2.4,1.6,2,3.3,1.9S58.2,69.83,58.1,68.53Z"/><path class="cls-6" d="M54.8,66.63c1.7-.1,3.1.7,3.2,1.9s-1.2,2.3-2.8,2.4-3.2-.7-3.3-1.9S53.1,66.83,54.8,66.63Z"/><path class="cls-5" d="M86.8,32.93s7-.4,6.7-3.6l1-.4a2.3,2.3,0,0,1,.4,1.4l.3,3.8a3.17,3.17,0,0,1-2.8,3.3l-3.5.3L7.1,44.53l-3.5.3A3.17,3.17,0,0,1,.3,42L0,38.23A4.48,4.48,0,0,1,.1,37H1.3s-.4,3.1,7.4,2.4C16.7,38.83,86.8,32.93,86.8,32.93Z"/><path class="cls-6" d="M6.4,34.73,40.9,2.63s2.9-3.9,7.6-.6,38.9,25.8,38.9,25.8"/></g></g></g></g></svg>