<svg xmlns="http://www.w3.org/2000/svg" viewBox="0 0 88.4 77.21"><defs><style>.cls-1{fill:#ffd28a;}.cls-2{fill:#f3975e;}.cls-3{fill:#af5c31;}.cls-4{fill:#aa7739;}.cls-5{fill:#f8e2a6;}.cls-6{fill:#e5b56e;}</style></defs><title>Asset 17</title><g id="Layer_2" data-name="Layer 2"><g id="Layer_1-2" data-name="Layer 1"><g id="โฮม"><g id="_Group_" data-name="&lt;Group&gt;"><path class="cls-1" d="M87.1,30.31c0,2.9-6.5,2.8-6.5,2.8H8c-7.3,0-6.7-2.8-6.7-2.8l-1.1-.1a2.76,2.76,0,0,1,2.6-1.7H85.6A2.82,2.82,0,0,1,88.1,30Z"/><path class="cls-2" d="M82.4,41.41v27.3a8.49,8.49,0,0,1-8.5,8.5H56.2V58a7.81,7.81,0,0,0-7.8-7.8H38.7A7.81,7.81,0,0,0,30.9,58v19.2H14.6a8.49,8.49,0,0,1-8.5-8.5V41.41Z"/><rect class="cls-3" x="6.1" y="37.61" width="76.2" height="3.8"/><path class="cls-4" d="M56.1,58v19.2H30.9V58a7.81,7.81,0,0,1,7.8-7.8h9.7A7.79,7.79,0,0,1,56.1,58Zm-4.8,5.8c0-1.1-1.3-2-2.8-2s-2.9.9-2.9,2,1.3,2,2.9,2S51.3,65,51.3,63.81Z"/><path class="cls-5" d="M48.4,61.81c1.6,0,2.8.9,2.8,2s-1.3,2-2.8,2-2.9-.9-2.9-2S46.8,61.81,48.4,61.81Z"/><path class="cls-6" d="M80.6,33.11s6.5.2,6.5-2.8l1-.3a3.08,3.08,0,0,1,.3,1.3v3.5a2.86,2.86,0,0,1-2.8,2.8H2.8A2.86,2.86,0,0,1,0,34.81v-3.5a3.6,3.6,0,0,1,.2-1.1l1.1.1s-.6,2.8,6.7,2.8Z"/></g><path class="cls-4" d="M6.1,28.51l34.4-27s3-3.4,7.1,0,34,26.9,34,26.9"/></g></g></g></svg>