<svg xmlns="http://www.w3.org/2000/svg" viewBox="0 0 113.93 82.22"><defs><style>.cls-1{fill:#9baa93;}.cls-2{fill:#d8b10f;}.cls-3{fill:#fccf05;}.cls-4{fill:#af8445;}.cls-5{fill:#c69b55;}</style></defs><title>Asset 16</title><g id="Layer_2" data-name="Layer 2"><g id="Layer_1-2" data-name="Layer 1"><g id="ติดต่อกด"><path class="cls-1" d="M101.38,75l-72.8,6.4a13.71,13.71,0,0,1-14.9-12.5l-4.2-47.5A13.71,13.71,0,0,1,22,6.46L94.78.06a13.71,13.71,0,0,1,14.9,12.5l4.2,47.5A13.71,13.71,0,0,1,101.38,75Z"/><g id="_Group_" data-name="&lt;Group&gt;"><path class="cls-1" d="M100.48,15.76l4,45.2a9.42,9.42,0,0,1-.1,2.9c-1,2-5.2,8.5-14.4.7-7.4-6.2-17.8-14.9-23.5-19.7,0,0,14.4-16.8,21.5-25.6S100.48,15.76,100.48,15.76Z"/><path class="cls-1" d="M99.88,10.66c-1.1-1.3-6.3-6.7-13.1,1.4-4.9,5.9-16.6,19.8-24.5,29.2-4.5,5.3-7.7,9.1-7.7,9.1L53.18,52l-1.6-1.4s-3.8-3.2-9.1-7.7c-9.3-7.8-23.3-19.6-29.2-24.5-8.1-6.8-12.3-.6-13.2.9a13.78,13.78,0,0,1,12.4-12.6L85.38.26A14,14,0,0,1,99.88,10.66Z"/><path class="cls-1" d="M104.38,63.86A13.54,13.54,0,0,1,92,75.76l-72.9,6.4a13.61,13.61,0,0,1-14.2-9.6c1.3,1.8,6.5,7.4,14.3-1.8,6.2-7.4,14.9-17.8,19.7-23.5l14.9,11.3,12.7-13.7c5.7,4.8,16.1,13.5,23.5,19.7C99.28,72.26,103.38,65.86,104.38,63.86Z"/><path class="cls-1" d="M86.78,12.06c6.8-8.1,12-2.7,13.1-1.4a14.35,14.35,0,0,1,.4,2.2l.3,3s-5.4-5.4-12.5,3.4-21.5,25.6-21.5,25.6c-2.6-2.2-4.2-3.6-4.2-3.6C70.08,31.86,81.78,18,86.78,12.06Z"/><path class="cls-1" d="M66.48,44.86l-12.7,13.7-14.9-11.3c2.2-2.6,3.6-4.2,3.6-4.2,5.3,4.5,9.1,7.7,9.1,7.7l1.6,1.4,1.4-1.6s3.2-3.8,7.7-9.1C62.28,41.26,64,42.66,66.48,44.86Z"/><path class="cls-1" d="M38.88,47.26c-4.8,5.7-13.5,16.1-19.7,23.5-7.7,9.2-12.9,3.6-14.3,1.8a12.66,12.66,0,0,1-.6-2.8L.18,22.86s4.9-4,15.9,5.6S38.88,47.26,38.88,47.26Z"/><path class="cls-1" d="M38.88,47.26s-11.8-9.3-22.8-18.8S.17,22.86.17,22.86l-.1-1.3a8.11,8.11,0,0,1,0-2.2c.8-1.5,5-7.7,13.2-.9,5.9,4.9,19.8,16.6,29.2,24.5C42.48,43,41.08,44.66,38.88,47.26Z"/><path class="cls-2" d="M100.48,15.76l4,45.2a9.42,9.42,0,0,1-.1,2.9c-1,2-5.2,8.5-14.4.7-7.4-6.2-17.8-14.9-23.5-19.7,0,0,14.4-16.8,21.5-25.6S100.48,15.76,100.48,15.76Z"/><path class="cls-3" d="M99.88,10.66c-1.1-1.3-6.3-6.7-13.1,1.4-4.9,5.9-16.6,19.8-24.5,29.2-4.5,5.3-7.7,9.1-7.7,9.1L53.18,52l-1.6-1.4s-3.8-3.2-9.1-7.7c-9.3-7.8-23.3-19.6-29.2-24.5-8.1-6.8-12.3-.6-13.2.9a13.78,13.78,0,0,1,12.4-12.6L85.38.26A14,14,0,0,1,99.88,10.66Z"/><path class="cls-3" d="M104.38,63.86A13.54,13.54,0,0,1,92,75.76l-72.9,6.4a13.61,13.61,0,0,1-14.2-9.6c1.3,1.8,6.5,7.4,14.3-1.8,6.2-7.4,14.9-17.8,19.7-23.5l14.9,11.3,12.7-13.7c5.7,4.8,16.1,13.5,23.5,19.7C99.28,72.26,103.38,65.86,104.38,63.86Z"/><path class="cls-4" d="M86.78,12.06c6.8-8.1,12-2.7,13.1-1.4a14.35,14.35,0,0,1,.4,2.2l.3,3s-5.4-5.4-12.5,3.4-21.5,25.6-21.5,25.6c-2.6-2.2-4.2-3.6-4.2-3.6C70.08,31.86,81.78,18,86.78,12.06Z"/><path class="cls-5" d="M66.48,44.86l-12.7,13.7-14.9-11.3c2.2-2.6,3.6-4.2,3.6-4.2,5.3,4.5,9.1,7.7,9.1,7.7l1.6,1.4,1.4-1.6s3.2-3.8,7.7-9.1C62.28,41.26,64,42.66,66.48,44.86Z"/><path class="cls-2" d="M38.88,47.26c-4.8,5.7-13.5,16.1-19.7,23.5-7.7,9.2-12.9,3.6-14.3,1.8a12.66,12.66,0,0,1-.6-2.8L.18,22.86s4.9-4,15.9,5.6S38.88,47.26,38.88,47.26Z"/><path class="cls-4" d="M38.88,47.26s-11.8-9.3-22.8-18.8S.17,22.86.17,22.86l-.1-1.3a8.11,8.11,0,0,1,0-2.2c.8-1.5,5-7.7,13.2-.9,5.9,4.9,19.8,16.6,29.2,24.5C42.48,43,41.08,44.66,38.88,47.26Z"/></g></g></g></g></svg>