<svg xmlns="http://www.w3.org/2000/svg" viewBox="0 0 1826 230.42"><defs><style>.cls-1,.cls-43,.cls-65,.cls-79{fill:none;}.cls-1{stroke:#ff6f4d;stroke-width:7.2px;}.cls-1,.cls-43,.cls-65,.cls-76,.cls-79,.cls-82{stroke-miterlimit:10;}.cls-2{fill:#89634e;}.cls-3{fill:#ff9c52;}.cls-4{fill:#879380;}.cls-5{fill:#ffc183;}.cls-6{fill:#325451;}.cls-7{fill:#b26b4d;}.cls-8{fill:#f9bd75;}.cls-9{fill:#ffdaa4;}.cls-10{fill:#7f4126;}.cls-11{fill:#d18b69;}.cls-12{fill:#ffb973;}.cls-13{fill:#3a3a3a;}.cls-14{fill:#ff9161;}.cls-15{fill:#282828;}.cls-16{fill:#3f3f3f;}.cls-17{fill:#515151;}.cls-18{fill:#fc8;}.cls-19{fill:#4b7776;}.cls-20{fill:#3e6661;}.cls-21{fill:#84b7ae;}.cls-22{fill:#565656;}.cls-23{fill:#dbdbdb;}.cls-24{fill:#6d6d6d;}.cls-25{fill:#284948;}.cls-26{fill:#3c6868;}.cls-27{fill:#5b8e8d;}.cls-28{fill:#ffa383;}.cls-29{fill:#a55c37;}.cls-30{fill:#bfbfbf;}.cls-31{fill:#f29e38;}.cls-32{fill:#93583a;}.cls-33{fill:#a3644f;}.cls-34{fill:#a8531a;}.cls-35{fill:#e97625;}.cls-36{fill:#f98f46;}.cls-37{fill:#ffc36c;}.cls-38{fill:#f7ae46;}.cls-39{fill:#c67754;}.cls-40{fill:#7f472e;}.cls-41{fill:#595959;}.cls-42{fill:#a8a8a8;}.cls-43{stroke:#a8a8a8;}.cls-44{fill:#e5e5e5;}.cls-45{fill:#ffc07b;}.cls-46{fill:#af6a58;}.cls-47{fill:#c47f6c;}.cls-48{fill:#995b4d;}.cls-49{fill:#ce8274;}.cls-50{fill:#727272;}.cls-51{fill:#efa656;}.cls-52{fill:#723f29;}.cls-53{fill:#664229;}.cls-54{fill:#a8724e;}.cls-55{fill:#c98f63;}.cls-56{fill:#598482;}.cls-57{fill:#355957;}.cls-58{fill:#434264;}.cls-59{fill:#4b706d;}.cls-60{fill:#7f482f;}.cls-61{fill:#8e503a;}.cls-62{fill:#a86548;}.cls-63{fill:#ff994d;}.cls-64{fill:#ffa76c;}.cls-65,.cls-76,.cls-79,.cls-82{stroke:#494949;}.cls-65,.cls-76{stroke-width:2.31px;}.cls-66{fill:#f2b368;}.cls-67{fill:#305453;}.cls-68{fill:#4f7a78;}.cls-69{fill:#ffce8d;}.cls-70{fill:#e5a35a;}.cls-71{fill:#6a9fa5;}.cls-72{fill:#95bec8;}.cls-73{fill:#ff8f71;}.cls-74{fill:#fff1e1;}.cls-75{fill:#f2b56d;}.cls-76,.cls-82{fill:#494949;}.cls-77{fill:#93553d;}.cls-78{fill:#2d2d2d;}.cls-79,.cls-82{stroke-width:2.29px;}.cls-80{fill:#f78b43;}.cls-81{fill:#ffd297;}.cls-83{fill:#e2957d;}</style></defs><title>Asset 7</title><g id="Layer_2" data-name="Layer 2"><g id="Layer_1-2" data-name="Layer 1"><path class="cls-1" d="M13,98.82s134.8,79.2,357,0"/><path class="cls-1" d="M364,99.82s134.8,79.2,357,0"/><path class="cls-1" d="M730,98.82s134.8,79.2,357,0"/><path class="cls-1" d="M1092,95.82s134.8,79.2,357,0"/><path class="cls-1" d="M1455,100.82s134.8,79.2,357,0"/><path class="cls-2" d="M371,157a6.49,6.49,0,0,1-6.5,6.5h0A6.49,6.49,0,0,1,358,157V81a6.49,6.49,0,0,1,6.5-6.5h0A6.49,6.49,0,0,1,371,81Z"/><path class="cls-3" d="M377,71.82a13,13,0,1,1-13-13A13,13,0,0,1,377,71.82Z"/><path class="cls-2" d="M20,155a6.49,6.49,0,0,1-6.5,6.5h0A6.49,6.49,0,0,1,7,155V79a6.49,6.49,0,0,1,6.5-6.5h0A6.49,6.49,0,0,1,20,79Z"/><path class="cls-3" d="M26,69.82a13,13,0,1,1-13-13A13,13,0,0,1,26,69.82Z"/><path class="cls-2" d="M1099,157a6.49,6.49,0,0,1-6.5,6.5h0a6.49,6.49,0,0,1-6.5-6.5V81a6.49,6.49,0,0,1,6.5-6.5h0A6.49,6.49,0,0,1,1099,81Z"/><path class="cls-3" d="M1105,71.82a13,13,0,1,1-13-13A13,13,0,0,1,1105,71.82Z"/><path class="cls-2" d="M733,158a6.49,6.49,0,0,1-6.5,6.5h0A6.49,6.49,0,0,1,720,158V82a6.49,6.49,0,0,1,6.5-6.5h0A6.49,6.49,0,0,1,733,82Z"/><path class="cls-3" d="M739,72.82a13,13,0,1,1-13-13A13,13,0,0,1,739,72.82Z"/><path class="cls-2" d="M1820,158a6.49,6.49,0,0,1-6.5,6.5h0a6.49,6.49,0,0,1-6.5-6.5V82a6.49,6.49,0,0,1,6.5-6.5h0A6.49,6.49,0,0,1,1820,82Z"/><path class="cls-3" d="M1826,72.82a13,13,0,1,1-13-13A13,13,0,0,1,1826,72.82Z"/><path class="cls-2" d="M1456,157a6.49,6.49,0,0,1-6.5,6.5h0a6.49,6.49,0,0,1-6.5-6.5V81a6.49,6.49,0,0,1,6.5-6.5h0A6.49,6.49,0,0,1,1456,81Z"/><path class="cls-3" d="M1462,71.82a13,13,0,1,1-13-13A13,13,0,0,1,1462,71.82Z"/><path class="cls-4" d="M135.5,191.82c0,4.8-18.3,8.6-40.9,8.6s-40.9-3.9-40.9-8.6,18.3-8.6,40.9-8.6S135.5,187.12,135.5,191.82Z"/><path class="cls-4" d="M304.5,193.82c0,4.8-18.3,8.6-40.9,8.6s-40.9-3.9-40.9-8.6,18.3-8.6,40.9-8.6S304.5,189.12,304.5,193.82Z"/><path class="cls-4" d="M498.5,199.82c0,4.8-18.3,8.6-40.9,8.6s-40.9-3.9-40.9-8.6,18.3-8.6,40.9-8.6S498.5,195.12,498.5,199.82Z"/><path class="cls-4" d="M667.5,185.82c0,4.8-18.3,8.6-40.9,8.6s-40.9-3.9-40.9-8.6,18.3-8.6,40.9-8.6S667.5,181.12,667.5,185.82Z"/><path class="cls-4" d="M839.5,218.82c0,4.8-18.3,8.6-40.9,8.6s-40.9-3.9-40.9-8.6,18.3-8.6,40.9-8.6S839.5,214.12,839.5,218.82Z"/><path class="cls-4" d="M992.5,195.82c0,4.8-18.3,8.6-40.9,8.6s-40.9-3.9-40.9-8.6,18.3-8.6,40.9-8.6S992.5,191.12,992.5,195.82Z"/><path class="cls-4" d="M1238.5,221.82c0,4.8-18.3,8.6-40.9,8.6s-40.9-3.9-40.9-8.6,18.3-8.6,40.9-8.6S1238.5,217.12,1238.5,221.82Z"/><path class="cls-4" d="M1382.5,200.82c0,4.8-18.3,8.6-40.9,8.6s-40.9-3.9-40.9-8.6,18.3-8.6,40.9-8.6S1382.5,196.12,1382.5,200.82Z"/><path class="cls-4" d="M1553.35,198.62c22.6,0,40.9,3.8,40.9,8.6s-18.3,8.6-40.9,8.6-40.9-3.8-40.9-8.6S1530.75,198.62,1553.35,198.62Z"/><path class="cls-5" d="M157.8,88.12a10.31,10.31,0,0,1,13.3,5.5v.1a10.31,10.31,0,0,1-5.5,13.3l-21,8.6a10.31,10.31,0,0,1-13.3-5.5V110a10.31,10.31,0,0,1,5.5-13.3Z"/><path class="cls-6" d="M117.8,104.92h0a11.85,11.85,0,0,0-2.7,13.4,11.64,11.64,0,0,0,14,6.9v.1s16.2-5.2,21.3-9c-.5-3.4-3.6-15.2-10.2-24C133.3,95,120.1,101.92,117.8,104.92Z"/><path class="cls-7" d="M173.6,30.22c1.5,3.9-27.2,22.1-65.4,37.1S37.4,89.12,36,85.12,64.7,68,102.9,53,172.1,26.22,173.6,30.22Z"/><path class="cls-8" d="M124,102.12s-2.5,2.6-2.1,5.8-19.5.8-19.5.8L100,94.52l8.7-6.2Z"/><path class="cls-9" d="M156.9,75.22c-.2-6-3.2-11.3-8-15.3,0-1.2.1-2.3,0-3.5a44.43,44.43,0,1,0-44.1,46.1h-.1s38,2.4,46.9-13.1A20.26,20.26,0,0,0,156.9,75.22Z"/><path class="cls-10" d="M59.3,73.42s10.8,14.8,16,18.2c2.5,2.5,2.7,1.7,5.8,6.5,1.6,1.6,4.3,2,8.4.6s13.6-1.4,13.8-4.2c-.4-1.9-.2-6-3.7-7.6-2.4-.8-6.2-5.8-6.4-10.9-.1-3.2.1-8.9,10.3-9.4a12.83,12.83,0,0,1,7.5,3.6c1.3,1.3,4.1,2.7,4.5-.4s.1-5,1.1-7,7.2-.2,8.8-5.8,2.1-7.9,2.1-7.9l.4,3.7s-1.1,5.6.5,5.4,7.2-2,7.6-3.3,2.2-1.6,2.9-7,1.7-7,1.7-7l-.2,5.7,1.3,6.2a2.76,2.76,0,0,0,3.4-.3c1.8-1.5,1.9-1.5,2.6-3.8a10.46,10.46,0,0,0-.7-7.2c-.9-2-15-2.8-15-2.8l-28.9,6.5-14,11.1L71.5,68.52Z"/><path class="cls-11" d="M173.6,30.22c-5.4-3.9-33.9,4.4-72.5,18.8s-62.5,29.6-65.2,36.2c10.5-3.2,31.9-7.1,70.5-21.5S169.1,33.22,173.6,30.22Z"/><path class="cls-11" d="M146.7,34.72a48.32,48.32,0,0,0-89.6,36.2"/><path class="cls-12" d="M107.7,82c-2.2,1.9-5.8,1.3-8.1-1.4s-2.2-6.3,0-8.2,5.8-1.3,8.1,1.4S109.9,80.22,107.7,82Z"/><path class="cls-13" d="M141.9,65.32a2.5,2.5,0,0,1-2.5,2.6,2.56,2.56,0,0,1-2.7-2.4,2.6,2.6,0,0,1,5.2-.2Z"/><path class="cls-14" d="M150.5,78.82a24.38,24.38,0,0,1-5.4,0c-1-.1-1.4,1.4-.4,1.5a22.52,22.52,0,0,0,5.8,0c1,0,1-1.6,0-1.5Z"/><path class="cls-15" d="M131.2,182.32c1,4.6-1.5,9-5.6,9.9l-5.6,1.3c-4.1.9-8.3-2-9.3-6.6l-2.3-10.3c-1-4.6,1.5-9,5.6-9.9l5.6-1.3c4.1-.9,8.3,2,9.3,6.6Z"/><path class="cls-15" d="M131.3,182.82s.8-8.4,5.2-12.3c-4.6-1.7-9.3,1.9-9.3,1.9l-4.6,4,3.6,2.9Z"/><path class="cls-16" d="M129.3,149.32h-4a48.23,48.23,0,0,0-16.6-2,48.89,48.89,0,0,0-17,3.5c-9,.9-16.1,2.2-15.9,4.4.6,5.9,3.7,12.9,3.7,12.9a17,17,0,0,0,1,1.4h0l.1.1c.2.2,1.5,2.2,1.7,2.4,1.8,2.3,2.4,4.5,3.4,6.8a18,18,0,0,1,.4,4.3h.1l-.2,1.1a8.41,8.41,0,0,0,7,9.7l6.3,1a8.41,8.41,0,0,0,9.7-7l.3-2c1-3.9,5.5-5.7,6.9-6.2,9.6-1.5,17.5-5.4,21.1-10.4,3.1-3.2,4.3-12.9,4.3-12.9Z"/><path class="cls-17" d="M78.4,153.12l1.1-.3h0A3.55,3.55,0,0,0,78.4,153.12Z"/><path class="cls-17" d="M133.2,151.52c0,3.4-.2,8-1.7,10.4-2.7,6-10.1,11.9-19.8,15.6-1.4.8-5.7,3.7-5.9,8l.1,2.2a9.12,9.12,0,0,1-2.7,6.9,8.53,8.53,0,0,0,5.8-6.7l.3-2c1-3.9,5.5-5.7,6.9-6.2,9.6-1.5,17.5-5.4,21.1-10.4,3.1-3.2,4.3-12.9,4.3-12.9Z"/><path class="cls-9" d="M116,156c.6,4.8-3.5,9.3-9.1,9.9h-.1c-5.6.6-10.6-2.8-11.1-7.6l-2.3-19.6c-.6-4.9,3.5-9.3,9.1-9.9h.1c5.6-.6,10.6,2.8,11.1,7.6Z"/><path class="cls-18" d="M105.2,161.92l-3.3-28.5a16.75,16.75,0,0,1,.1-4.5c-5.4.8-9.2,5.2-8.7,9.9l2.3,19.6c.5,4.7,5.2,8,10.6,7.7A28.55,28.55,0,0,1,105.2,161.92Z"/><path class="cls-19" d="M89.5,105.22s-18.2,12.7-13.6,49.9c5.4,2.3,35,10.1,65,1.5,1.8-.1,1.4-1.3-.4-10.7-2.5-11.2-4-21.4-12.6-34.1l-1.6-5.6s-23-10.4-37.6-6A22.13,22.13,0,0,0,89.5,105.22Z"/><path class="cls-6" d="M113.2,116h0a12.09,12.09,0,0,0-23.1,3.3H90s-.9,17,.9,23.1c3.4.8,15.4,2.1,26.1-1C116.9,134,115.2,119.32,113.2,116Z"/><path class="cls-20" d="M101.9,117.42h0c2,3.3,3.7,18,3.8,25.4-.6.2-1.2.3-1.8.5a50.59,50.59,0,0,0,13.1-1.9c-.1-7.4-1.8-22.2-3.8-25.4h0a12.12,12.12,0,0,0-18.1-5.1A11.48,11.48,0,0,1,101.9,117.42Z"/><path class="cls-21" d="M89.5,105.22s13.7-4.3,38.4,6.7l-1.6-5.6s-21.3-10.8-37.6-6A43.92,43.92,0,0,0,89.5,105.22Z"/><path class="cls-22" d="M113.8,106.72s19.4,17.6,21.9,22.1c1.9-3,.9-2.1.9-2.1s-15.2-17.9-19.4-19.1A11.85,11.85,0,0,1,113.8,106.72Z"/><path class="cls-16" d="M148.6,137.82c.6,2.8-.9,5.5-3.2,6l-2.7.5c-2.4.5-4.7-1.4-5.3-4.2l-1.8-8.9c-.6-2.8.9-5.5,3.2-5.9l2.7-.5c2.4-.5,4.7,1.4,5.3,4.2Z"/><path class="cls-23" d="M141,133.52a1.36,1.36,0,0,1-1.1,1.6h-.1a1.36,1.36,0,0,1-1.6-1.1l-.7-3.6a1.42,1.42,0,0,1,1.1-1.6h.1a1.36,1.36,0,0,1,1.6,1.1Z"/><path class="cls-24" d="M150.7,137c.3,1.5-.3,2.9-1.4,3.2h0c-1.1.3-2.3-.7-2.7-2.3l-1.5-6.4c-.3-1.5.3-2.9,1.4-3.2h0c1.1-.3,2.3.7,2.7,2.3Z"/><path class="cls-5" d="M1008,93.22a9.79,9.79,0,0,1,12.9,5.4v.1a9.79,9.79,0,0,1-5.4,12.9L995,120a9.79,9.79,0,0,1-12.9-5.4v-.1a9.79,9.79,0,0,1,5.4-12.9Z"/><path class="cls-6" d="M969,109.62h0a11.71,11.71,0,0,0-2.7,13.1,11.47,11.47,0,0,0,13.7,6.7v.1s15.8-5,20.7-8.8c-.5-3.3-3.5-14.8-10-23.4C984.2,100,971.3,106.72,969,109.62Z"/><path class="cls-25" d="M1023.5,36.82c1.4,3.8-26.5,21.6-63.8,36.2s-69,21.2-70.4,17.4,28-16.7,65.2-31.3S1022,33,1023.5,36.82Z"/><path class="cls-8" d="M975.1,106.92a8,8,0,0,0-2.1,5.6c.3,3.1-19,.7-19,.7l-2.4-13.8,8.5-6.1Z"/><path class="cls-9" d="M1007.2,80.72c-.2-5.8-3.2-11-7.8-14.9,0-1.1.1-2.3,0-3.4a43.28,43.28,0,1,0-42.9,45h-.1s37,2.4,45.7-12.8A21.13,21.13,0,0,0,1007.2,80.72Z"/><path class="cls-10" d="M912.1,79s10.5,14.4,15.6,17.7c2.4,2.4,2.6,1.7,5.7,6.3,1.5,1.5,4.2,1.9,8.2.6s13.2-1.3,13.4-4.1c-.4-1.9-.2-5.8-3.6-7.4-2.3-.7-6.1-5.6-6.2-10.7-.1-3.1.1-8.7,10.1-9.2a13.09,13.09,0,0,1,7.3,3.5c1.2,1.2,4,2.6,4.4-.4s.1-4.9,1.1-6.8,7-.2,8.6-5.7,2-7.7,2-7.7l.3,3.6s-1.1,5.4.5,5.3,7-1.9,7.4-3.2,2.1-1.6,2.8-6.8,1.6-6.8,1.6-6.8l-.2,5.5,1.3,6a2.91,2.91,0,0,0,3.4-.3c1.7-1.5,1.8-1.5,2.6-3.7a10.47,10.47,0,0,0-.7-7c-.9-1.9-14.6-2.7-14.6-2.7l-28.2,6.3-13.6,10.8L924.1,74Z"/><path class="cls-26" d="M1023.5,36.82c-5.3-3.8-33,4.3-70.6,18.3s-60.9,28.8-63.6,35.2c10.2-3.1,31.1-6.9,68.7-21S1019,39.72,1023.5,36.82Z"/><path class="cls-26" d="M997.3,41.22A47.08,47.08,0,0,0,910,76.52"/><path class="cls-27" d="M974.8,48.32l19.1-7.7a43,43,0,0,0-56-23.7,44.69,44.69,0,0,0-10,5.7A42.76,42.76,0,0,1,974.8,48.32Z"/><path class="cls-28" d="M959.2,87.32c-2.2,1.8-5.7,1.2-7.8-1.3s-2.2-6.1,0-8,5.7-1.2,7.8,1.3S961.4,85.52,959.2,87.32Z"/><path class="cls-29" d="M992.6,71a2.54,2.54,0,0,1-2.4,2.6,2.42,2.42,0,0,1-2.6-2.4,2.48,2.48,0,0,1,2.4-2.6A2.69,2.69,0,0,1,992.6,71Z"/><path class="cls-14" d="M1000.9,84.22a22.61,22.61,0,0,1-5.2,0c-1-.1-1.4,1.4-.4,1.5a26.21,26.21,0,0,0,5.6,0c1,0,1-1.6,0-1.5Z"/><path class="cls-15" d="M982.2,185c1,4.4-1.4,8.8-5.4,9.7l-5.4,1.2c-4,.9-8.1-1.9-9.1-6.4l-2.3-10.1c-1-4.4,1.4-8.8,5.4-9.7l5.4-1.2c4-.9,8.1,1.9,9.1,6.4Z"/><path class="cls-15" d="M982.3,185.52s.8-8.2,5-12c-4.5-1.7-9.1,1.8-9.1,1.8l-4.5,3.9,3.5,2.8Z"/><path class="cls-16" d="M980.3,152.82h-3.9a48.33,48.33,0,0,0-16.2-2,47.82,47.82,0,0,0-16.5,3.4c-8.8.8-15.6,2.2-15.4,4.3.5,5.8,3.6,12.6,3.6,12.6a12.15,12.15,0,0,0,1,1.4h0l.1.1c.2.2,1.5,2.1,1.7,2.3,1.7,2.2,2.3,4.4,3.3,6.6a16.58,16.58,0,0,1,.4,4.2h.1l-.2,1.1a8.33,8.33,0,0,0,6.8,9.5l6.1,1a8.33,8.33,0,0,0,9.5-6.8l.3-1.9c1-3.8,5.4-5.6,6.8-6,9.4-1.4,17-5.3,20.6-10.1,3-3.1,4.2-12.6,4.2-12.6Z"/><path class="cls-17" d="M930.6,156.62c.3-.1.7-.2,1.1-.3h0A4.51,4.51,0,0,0,930.6,156.62Z"/><path class="cls-17" d="M984.1,155.12c0,3.3-.2,7.8-1.7,10.1-2.7,5.9-9.8,11.6-19.3,15.2-1.3.8-5.5,3.6-5.7,7.8l.1,2.1a9,9,0,0,1-2.6,6.7,8.31,8.31,0,0,0,5.6-6.5l.3-1.9c1-3.8,5.4-5.6,6.8-6,9.4-1.4,17-5.3,20.6-10.1,3-3.1,4.2-12.6,4.2-12.6Z"/><path class="cls-19" d="M941.5,109.92s-17.8,12.4-13.3,48.7c5.2,2.2,34.1,9.8,63.3,1.5,1.7-.1,1.3-1.3-.4-10.4-2.5-10.9-3.9-20.8-12.3-33.2l-1.6-5.4s-22.4-10.2-36.7-5.8A32.27,32.27,0,0,0,941.5,109.92Z"/><path class="cls-9" d="M967.3,159.42c.5,4.7-3.4,9.1-8.9,9.7h-.1c-5.4.6-10.3-2.7-10.8-7.4l-2.2-19.1c-.5-4.7,3.4-9.1,8.9-9.7h.1c5.4-.6,10.3,2.7,10.8,7.4Z"/><path class="cls-18" d="M956.8,165.12l-3.2-27.8a16.12,16.12,0,0,1,.1-4.4c-5.2.8-9,5-8.5,9.6l2.2,19.1c.5,4.6,5.1,7.8,10.4,7.5A15.62,15.62,0,0,1,956.8,165.12Z"/><path class="cls-6" d="M964.6,120.42h0a11.69,11.69,0,0,0-11.3-7.2,11.48,11.48,0,0,0-11.2,10.4H942s-.9,16.5.9,22.5c3.3.7,15,2,25.4-1C968.2,138,966.5,123.62,964.6,120.42Z"/><path class="cls-20" d="M953.6,121.82h0c2,3.2,3.6,17.6,3.7,24.8-.6.2-1.2.3-1.8.5a53.33,53.33,0,0,0,12.8-1.8c-.1-7.2-1.8-21.6-3.7-24.8h0a11.61,11.61,0,0,0-11.3-7.1,12.5,12.5,0,0,0-6.4,2.1A11,11,0,0,1,953.6,121.82Z"/><path class="cls-21" d="M941.5,109.92s13.4-4.2,37.4,6.5l-1.6-5.4s-20.8-10.6-36.7-5.8C940.8,106.82,941.5,109.92,941.5,109.92Z"/><path class="cls-22" d="M965.1,111.32s18.9,17.2,21.3,21.5c1.8-2.9.9-2,.9-2s-14.8-17.4-18.9-18.6A9.58,9.58,0,0,1,965.1,111.32Z"/><path class="cls-16" d="M999.1,141.62c.6,2.7-.9,5.3-3.2,5.8l-2.6.5c-2.3.5-4.6-1.4-5.2-4.1l-1.8-8.7c-.6-2.7.9-5.3,3.1-5.8l2.6-.5c2.3-.5,4.6,1.4,5.2,4.1Z"/><path class="cls-23" d="M991.7,137.42a1.43,1.43,0,0,1-1,1.6h-.1a1.44,1.44,0,0,1-1.6-1l-.7-3.5a1.43,1.43,0,0,1,1-1.6h.1a1.44,1.44,0,0,1,1.6,1Z"/><path class="cls-24" d="M1001.2,140.92c.3,1.5-.3,2.9-1.4,3.1h0c-1.1.3-2.3-.7-2.6-2.2l-1.4-6.2c-.3-1.5.3-2.9,1.4-3.1h0c1.1-.3,2.3.7,2.6,2.2Z"/><path class="cls-30" d="M150.5,136.22a1.11,1.11,0,0,1-.8,1.3h0a1.11,1.11,0,0,1-1.3-.8l-1.1-4.8a1.11,1.11,0,0,1,.8-1.3h0a1.11,1.11,0,0,1,1.3.8Z"/><path class="cls-5" d="M583.3,84.52A10,10,0,0,0,570.2,90v.1a10,10,0,0,0,5.5,13.1l20.8,8.5a10,10,0,0,0,13.1-5.5v-.1A10,10,0,0,0,604.1,93Z"/><path class="cls-31" d="M622.9,101.12h0a11.82,11.82,0,0,1,2.7,13.3,11.56,11.56,0,0,1-13.9,6.8v.1s-16-5.1-21-8.9c.5-3.4,3.5-15,10.1-23.8C607.6,91.32,620.6,98.12,622.9,101.12Z"/><path class="cls-8" d="M616.7,98.42s2.5,2.6,2.1,5.7,19.3.8,19.3.8l2.4-14-8.6-6.1Z"/><path class="cls-9" d="M584.2,71.72c.2-5.9,3.2-11.2,7.9-15.1,0-1.2-.1-2.3,0-3.5a44,44,0,1,1,43.7,45.6h.1s-37.6,2.4-46.4-13A19.79,19.79,0,0,1,584.2,71.72Z"/><path class="cls-28" d="M632.8,78.52c2.2,1.9,5.8,1.2,8-1.4s2.2-6.2,0-8.1-5.8-1.2-8,1.4S630.7,76.62,632.8,78.52Z"/><path class="cls-29" d="M599,62a2.6,2.6,0,1,0,2.7-2.4A2.56,2.56,0,0,0,599,62Z"/><path class="cls-14" d="M590.5,76.92a27.15,27.15,0,0,0,5.7,0c1-.1.6-1.7-.4-1.5a31.27,31.27,0,0,1-5.3,0c-1-.2-1,1.4,0,1.5Z"/><path class="cls-32" d="M592.5,32.32S607-3.18,648,10.92c9.2.3,52.4,10.5,33.6,59.2,0,0-10.7,14.6-15.8,18-2.5,2.5-2.7,1.7-5.8,6.4-1.6,1.5-4.3,2-8.3.6s-13.4-1.4-13.7-4.2c.4-1.9.2-5.9,3.7-7.5,2.4-.8,6.2-5.7,6.3-10.8.1-3.2-.1-8.8-10.2-9.3a13.45,13.45,0,0,0-7.4,3.5c-1.2,1.2-4,2.7-4.5-.4s-.1-4.9-1.1-6.9-7.1-.2-8.7-5.8-2.1-7.8-2.1-7.8l-.4,3.7s1.1,5.5-.5,5.4a25.35,25.35,0,0,1-7.5-3.2c-1.6-1.5-3.9-1.7-4.6-7-.2-1.5.4-2.9.2-3.9h0l.1,2.6-1.3,6.1a2.76,2.76,0,0,1-3.4-.3c-1.8-1.5-.9-1.1-2.8-2.5C590.5,44.32,591.6,34.22,592.5,32.32Z"/><path class="cls-33" d="M593.8,46.72a22.64,22.64,0,0,1,2.8,2.5,2.73,2.73,0,0,0,3.4.3l1.1-4.9c.7,5.3,3,5.5,4.6,7,1,.9,5.9,3.1,7.5,3.2s.5-5.4.5-5.4l.4-3.7s.2.7.6,2.4c-.1-3.2.4-6.6.9-7.6,0,0,14.5-35.5,55.5-21.4h.3c-9-6.2-19.4-8.2-23.4-8.3-41-14.1-55.5,21.4-55.5,21.4C591.6,34.22,590.5,44.32,593.8,46.72Zm7.5-5.1v0Z"/><path class="cls-33" d="M624.3,49.82v0Z"/><path class="cls-33" d="M616.5,54.72"/><path class="cls-34" d="M609.6,177.72c-1,4.5,1.4,8.9,5.5,9.8l5.5,1.3c4.1.9,8.2-2,9.2-6.5l2.3-10.2c1-4.5-1.4-8.9-5.5-9.8l-5.5-1.3c-4.1-.9-8.2,2-9.2,6.5Z"/><path class="cls-34" d="M609.5,178.22s-.8-8.3-5.1-12.2c4.5-1.7,9.2,1.9,9.2,1.9l4.6,3.9-3.6,2.9Z"/><path class="cls-35" d="M611.5,145h4a49.89,49.89,0,0,1,16.4-2,47.75,47.75,0,0,1,16.8,3.5c8.9.9,15.9,2.2,15.7,4.4-.5,5.9-3.7,12.7-3.7,12.8a7.11,7.11,0,0,1-1,1.4h0l-.1.1c-.2.2-1.5,2.1-1.7,2.4-1.8,2.3-2.4,4.4-3.3,6.7a17.61,17.61,0,0,0-.4,4.2h-.1l.2,1.1a8.24,8.24,0,0,1-6.9,9.6l-6.2,1a8.24,8.24,0,0,1-9.6-6.9l-.3-2c-1-3.9-5.5-5.6-6.9-6.1-9.5-1.5-17.3-5.3-20.9-10.3-3.1-3.2-4.2-12.8-4.2-12.8Z"/><path class="cls-36" d="M661.9,148.82l-1.1-.3h0C661.2,148.62,661.6,148.72,661.9,148.82Z"/><path class="cls-36" d="M607.6,147.32c0,3.3.2,7.9,1.7,10.3,2.7,6,10,11.8,19.6,15.5,1.3.8,5.6,3.7,5.8,7.9l-.1,2.1a9.19,9.19,0,0,0,2.6,6.8,8.26,8.26,0,0,1-5.7-6.6l-.3-2c-1-3.9-5.5-5.6-6.9-6.1-9.5-1.5-17.3-5.3-20.9-10.3-3.1-3.2-4.2-12.8-4.2-12.8Z"/><path class="cls-37" d="M650.8,101.52s18,12.6,13.5,49.4c-5.3,2.2-34.6,10-64.3,1.5-1.7-.1-1.3-1.3.4-10.6,2.5-11.1,3.9-21.2,12.4-33.8l1.6-5.5s22.7-10.3,37.2-5.9A22,22,0,0,1,650.8,101.52Z"/><path class="cls-9" d="M624.7,151.72c-.6,4.8,3.5,9.2,9,9.8h.1c5.5.6,10.4-2.7,11-7.5l2.2-19.4c.6-4.8-3.5-9.2-9-9.8h-.1c-5.5-.6-10.4,2.7-11,7.5Z"/><path class="cls-18" d="M635.3,157.52l3.2-28.2a17,17,0,0,0-.1-4.5c5.3.8,9.1,5.1,8.6,9.8L644.8,154c-.5,4.7-5.2,8-10.5,7.6A17.57,17.57,0,0,0,635.3,157.52Z"/><path class="cls-31" d="M627.4,112.12h0a11.9,11.9,0,0,1,11.5-7.3,11.51,11.51,0,0,1,11.3,10.5h.1s.9,16.8-.9,22.8c-3.3.7-15.3,2-25.8-1C623.7,129.92,625.5,115.32,627.4,112.12Z"/><path class="cls-38" d="M638.6,113.52h0c-2,3.2-3.7,17.8-3.8,25.2.6.2,1.2.3,1.8.5a49.86,49.86,0,0,1-13-1.9c.1-7.3,1.8-21.9,3.8-25.2h0a11.78,11.78,0,0,1,11.4-7.2,13.18,13.18,0,0,1,6.5,2.1A11.89,11.89,0,0,0,638.6,113.52Z"/><path class="cls-31" d="M650.8,101.52s-13.6-4.2-38,6.6l1.6-5.5s21.1-10.7,37.2-5.9A45.17,45.17,0,0,1,650.8,101.52Z"/><path class="cls-39" d="M626.9,102.92s-19.2,17.4-21.6,21.9c-1.9-3-.9-2-.9-2s15.1-17.7,19.2-18.9A16.23,16.23,0,0,0,626.9,102.92Z"/><path class="cls-29" d="M592.4,133.62c-.6,2.8.9,5.4,3.2,5.9l2.6.5c2.3.5,4.7-1.4,5.2-4.2l1.8-8.8c.6-2.8-.9-5.4-3.2-5.9l-2.6-.5c-2.3-.5-4.7,1.4-5.2,4.2Z"/><path class="cls-39" d="M599.9,129.42A1.42,1.42,0,0,0,601,131h.1a1.42,1.42,0,0,0,1.6-1.1l.7-3.5a1.42,1.42,0,0,0-1.1-1.6h-.1a1.42,1.42,0,0,0-1.6,1.1Z"/><path class="cls-40" d="M590.3,132.92c-.3,1.5.3,2.9,1.4,3.2h0c1.1.3,2.3-.7,2.7-2.2l1.5-6.3c.3-1.5-.3-2.9-1.4-3.2h0c-1.1-.3-2.3.7-2.7,2.2Z"/><path class="cls-33" d="M645.6,10.22a2.76,2.76,0,0,0,1.5,3.6l1.7.7a2.76,2.76,0,0,0,3.6-1.5l3.6-8.5a2.76,2.76,0,0,0-1.5-3.6l-1.7-.7a2.76,2.76,0,0,0-3.6,1.5Z"/><path class="cls-41" d="M1032,90.52a4,4,0,0,1-4,4h-12a4,4,0,0,1-4-4V60.92a4.31,4.31,0,0,1,4-4.4h12c2.2,0,4,2.2,4,4.4Z"/><path class="cls-42" d="M1031,85.92c0,1.7-1.4,2.6-3.4,2.6h-10.8c-2,0-3.8-1-3.8-2.6v-22a3.81,3.81,0,0,1,3.8-3.4h10.8a3.43,3.43,0,0,1,3.4,3.4Z"/><path class="cls-42" d="M1026,59a.47.47,0,0,1-.5.5h-8a.47.47,0,0,1-.5-.5h0a.47.47,0,0,1,.5-.5h8a.47.47,0,0,1,.5.5Z"/><path class="cls-43" d="M1023.5,91.82a1.16,1.16,0,0,1-1.2,1.2h-.6a1.16,1.16,0,0,1-1.2-1.2v-.6a1.16,1.16,0,0,1,1.2-1.2h.6a1.16,1.16,0,0,1,1.2,1.2Z"/><path class="cls-44" d="M1030,84.62a2.81,2.81,0,0,1-3,2.9h-10a2.81,2.81,0,0,1-3-2.9V65a3.33,3.33,0,0,1,3-3.5h10a3.33,3.33,0,0,1,3,3.5Z"/><path class="cls-18" d="M262,187.42c0,4.2-4.5,7.6-9.5,7.6h0c-5,0-9.5-3.4-9.5-7.6v-26.1c0-4.2,4.5-7.6,9.5-7.6h0c5,0,9.5,3.4,9.5,7.6Z"/><path class="cls-45" d="M250,187.42v-26.1c0-3,2.8-5.6,5.8-6.8a9.57,9.57,0,0,0-3.8-.8c-5,0-8.9,3.4-8.9,7.6v26.1c0,4.2,4.3,7.6,9.3,7.6a7.73,7.73,0,0,0,3.4-.8C252.7,193,250,190.42,250,187.42Z"/><path class="cls-18" d="M284,187.42c0,4.2-3.5,7.6-8.5,7.6h0c-5,0-8.5-3.4-8.5-7.6v-26.1c0-4.2,3.5-7.6,8.5-7.6h0c5,0,8.5,3.4,8.5,7.6Z"/><path class="cls-45" d="M274,187.42v-26.1a7.47,7.47,0,0,1,5-6.8,7.84,7.84,0,0,0-3.5-.8c-5,0-8.5,3.4-8.5,7.6v26.1c0,4.2,3.5,7.6,8.5,7.6a9.57,9.57,0,0,0,3.8-.8C276.3,193,274,190.42,274,187.42Z"/><path class="cls-26" d="M291,172.52c0,2.8-2.8,4-6.4,4H242.9c-3.6,0-6.9-1.2-6.9-4v-21.8c0-2.8,3.3-6.2,6.9-6.2h41.7a6.69,6.69,0,0,1,6.4,6.2Z"/><path class="cls-9" d="M313.6,136.82c2.1,4.8.5,10.1-3.5,11.8l-1.1.5c-4,1.8-9-.7-11.1-5.5L286.3,117c-2.1-4.8-.5-10.1,3.5-11.8l1.1-.5c4-1.8,9,.7,11.1,5.5Z"/><path class="cls-18" d="M304,142.22l-11.6-26.6c-1.9-4.4-.7-9.2,2.6-11.3a7,7,0,0,0-4,.5l-1.1.5c-4,1.8-5.6,7-3.5,11.8l11.6,26.6c2.1,4.8,7,7.2,11.1,5.5l1.1-.5a4,4,0,0,0,.9-.5A10.29,10.29,0,0,1,304,142.22Z"/><path class="cls-46" d="M307,153.22c0,2.8-3,5.3-5.8,5.3H295c-2.8,0-3.9-2.5-3.9-5.3v-9.5c0-2.8,1.1-5.2,3.9-5.2h6.2c2.8,0,5.8,2.4,5.8,5.2Z"/><path class="cls-47" d="M289.8,144.32c0-2.8,2.3-5.8,5.1-5.8H300a5.39,5.39,0,0,1,5.1,5.4"/><polygon class="cls-48" points="305.1 144.52 289.9 144.52 289.9 144.52 305.1 144.52"/><path class="cls-49" d="M308,150.12a.43.43,0,0,1-.4.4h-.3a.43.43,0,0,1-.4-.4v-4.3a.43.43,0,0,1,.4-.4h.3a.43.43,0,0,1,.4.4Z"/><path class="cls-37" d="M288.5,143.42a5.25,5.25,0,0,0-4.3,2.2,5.21,5.21,0,0,0-3.7-1.5,5,5,0,0,0-4.8,3.2,4.92,4.92,0,0,0-3.9-1.7,4.84,4.84,0,0,0-4.3,2.3,5.09,5.09,0,0,0-4.3-2.3,5,5,0,0,0-4.3,2.3,5.09,5.09,0,0,0-4.3-2.3,5.26,5.26,0,0,0-3.9,1.7,4.86,4.86,0,0,0-4.8-3.2,5.21,5.21,0,0,0-3.7,1.5,5.25,5.25,0,0,0-4.3-2.2,4.62,4.62,0,1,0,0,9.2,5.21,5.21,0,0,0,3.7-1.5,5.31,5.31,0,0,0,8.2.5,5.19,5.19,0,0,0,9.1.9,5.09,5.09,0,0,0,4.3,2.3,5,5,0,0,0,4.3-2.3,5.19,5.19,0,0,0,9.1-.9,4.92,4.92,0,0,0,3.9,1.7,5.25,5.25,0,0,0,4.3-2.2,5.21,5.21,0,0,0,3.7,1.5,4.62,4.62,0,1,0,0-9.2Z"/><path class="cls-18" d="M230.4,145.92c-2.2,4.7-7.3,7-11.2,5.1l-1.1-.5c-4-1.9-5.4-7.2-3.1-11.9l12.5-26.2c2.2-4.7,7.3-7,11.2-5.1l1.1.5c4,1.9,5.4,7.2,3.1,11.9Z"/><path class="cls-18" d="M220.1,142.12l12.5-26.2c2.1-4.3,6.5-6.6,10.2-5.5a6.57,6.57,0,0,0-3-2.7l-1.1-.5c-4-1.9-9,.4-11.2,5.1L215,138.52c-2.2,4.7-.8,10,3.1,11.9l1.1.5a4.18,4.18,0,0,0,1,.4A9.64,9.64,0,0,1,220.1,142.12Z"/><path class="cls-38" d="M246.6,116.92c-1.8,7-8.6,11.3-15.2,9.6s-13-5.2-8.7-15.7c2.8-6.7,8.6-11.3,15.2-9.6S248.4,109.92,246.6,116.92Z"/><path class="cls-31" d="M231.5,126.52s5.7.8,8.2,0,3.2-6.8,3.2-6.8l2.2-13.1,1.4-4.6-5.2-1.2C241.4,100.82,229.3,113.72,231.5,126.52Z"/><path class="cls-38" d="M282.7,116.92c1.8,7,8.6,11.3,15.2,9.6s13-5.2,8.7-15.7c-2.8-6.7-8.6-11.3-15.2-9.6S280.9,109.92,282.7,116.92Z"/><path class="cls-31" d="M295.6,126.52s-5.7.8-8.2,0-3.2-6.8-3.2-6.8l-2.2-13.1-1.4-4.6,5.2-1.2C285.6,100.82,297.8,113.72,295.6,126.52Z"/><path class="cls-37" d="M283.7,103l-20-3.7L243.8,103s-14.8,22.6-6.4,45.9c1.1-.6,26.4,0,26.4,0s25.3-.6,26.4,0C298.4,125.62,283.7,103,283.7,103Z"/><path class="cls-50" d="M262,191a4.35,4.35,0,0,1-4.1,4.5H247a4.35,4.35,0,0,1-4.1-4.5v-3.5h19V191Z"/><path class="cls-50" d="M284,191c0,2.7-1.6,4.5-3.6,4.5H269.5c-2,0-2.5-1.8-2.5-4.5v-3.5h17V191Z"/><path class="cls-51" d="M292.7,143.12a1.14,1.14,0,0,1-.2,1.6l-.2.3a1.28,1.28,0,0,1-1.6.3l-51.2-47.6a1.14,1.14,0,0,1,.2-1.6l.2-.3a1.28,1.28,0,0,1,1.6-.3Z"/><path class="cls-33" d="M293.7,142a1.14,1.14,0,0,1-.2,1.6l-.2.3a1.28,1.28,0,0,1-1.6.3l-50.1-46.5a1.14,1.14,0,0,1,.2-1.6l.2-.3a1.28,1.28,0,0,1,1.6-.3Z"/><path class="cls-32" d="M307.4,65.52a46,46,0,0,0,.8-8.4A45.3,45.3,0,1,0,219,68.22a19.48,19.48,0,0,0,12.9,34.1,18.53,18.53,0,0,0,6.7-1.2,19.5,19.5,0,0,0,24.1,1.2h.2c1.2,0,2.4-.1,3.6-.2a19.43,19.43,0,0,0,12.4,4.5,19.07,19.07,0,0,0,13.4-5.4,20.65,20.65,0,0,0,6.2,1,19.41,19.41,0,0,0,8.9-36.7Z"/><path class="cls-33" d="M307.4,65.52a46,46,0,0,0,.8-8.4,45.38,45.38,0,0,0-58.7-43.3,45.25,45.25,0,0,1,31.9,43.3,46,46,0,0,1-.8,8.4,19.53,19.53,0,0,1-8.9,36.9,21.18,21.18,0,0,1-6.2-1c-.4.3-.7.7-1.1,1,.7,0,1.4-.1,2.1-.1a19.43,19.43,0,0,0,12.4,4.5,19.07,19.07,0,0,0,13.4-5.4,20.65,20.65,0,0,0,6.2,1,19.53,19.53,0,0,0,8.9-36.9Z"/><path class="cls-52" d="M231.3,71.92c-4.7,6.1-4,14.4,0,20.5,1.2,1.8,4.1.1,2.9-1.7-3.5-5.3-4-12,0-17.2,1.3-1.6-1.6-3.3-2.9-1.6Z"/><path class="cls-52" d="M247.9,71.82c-4.5,6.2-3.6,14.5.7,20.5,1.2,1.7,4.1.1,2.9-1.7-3.6-5.2-4.5-11.8-.7-17.2,1.2-1.6-1.7-3.3-2.9-1.6Z"/><path class="cls-18" d="M1209,214.42c0,4.2-4.5,7.6-9.5,7.6h0c-5,0-9.5-3.4-9.5-7.6v-26.1c0-4.2,4.5-7.6,9.5-7.6h0c5,0,9.5,3.4,9.5,7.6Z"/><path class="cls-45" d="M1197,214.42v-26.1c0-3,2.8-5.6,5.8-6.8a9.69,9.69,0,0,0-3.9-.8c-5,0-8.9,3.4-8.9,7.6v26.1c0,4.2,4.3,7.6,9.3,7.6a7.73,7.73,0,0,0,3.4-.8C1199.7,220,1197,217.42,1197,214.42Z"/><path class="cls-18" d="M1231,214.42c0,4.2-3.5,7.6-8.5,7.6h0c-5,0-8.5-3.4-8.5-7.6v-26.1c0-4.2,3.5-7.6,8.5-7.6h0c5,0,8.5,3.4,8.5,7.6Z"/><path class="cls-45" d="M1221,214.42v-26.1a7.47,7.47,0,0,1,5-6.8,7.84,7.84,0,0,0-3.5-.8c-5,0-8.5,3.4-8.5,7.6v26.1c0,4.2,3.5,7.6,8.5,7.6a9.57,9.57,0,0,0,3.8-.8C1223.3,220,1221,217.42,1221,214.42Z"/><path class="cls-26" d="M1238,199.52c0,2.8-2.8,4-6.4,4h-41.7c-3.6,0-6.9-1.2-6.9-4v-21.8c0-2.8,3.3-6.2,6.9-6.2h41.7a6.69,6.69,0,0,1,6.4,6.2Z"/><path class="cls-9" d="M1260.6,163.82c2.1,4.8.5,10.1-3.5,11.8l-1.1.5c-4,1.8-9-.7-11.1-5.5L1233.3,144c-2.1-4.8-.5-10.1,3.5-11.8l1.1-.5c4-1.8,9,.7,11.1,5.5Z"/><path class="cls-18" d="M1251,169.22l-11.6-26.6c-1.9-4.4-.7-9.2,2.6-11.3a7,7,0,0,0-4,.5l-1.1.5c-4,1.8-5.6,7-3.5,11.8l11.6,26.6c2.1,4.8,7,7.2,11.1,5.5l1.1-.5a4,4,0,0,0,.9-.5A10.29,10.29,0,0,1,1251,169.22Z"/><path class="cls-46" d="M1254,180.22c0,2.8-3,5.3-5.8,5.3H1242c-2.8,0-3.9-2.5-3.9-5.3v-9.5c0-2.8,1.1-5.2,3.9-5.2h6.2c2.8,0,5.8,2.4,5.8,5.2Z"/><path class="cls-47" d="M1236.8,171.32c0-2.8,2.3-5.8,5.1-5.8h5.1a5.39,5.39,0,0,1,5.1,5.4"/><polygon class="cls-48" points="1252.1 171.52 1236.9 171.52 1236.9 171.52 1252.1 171.52"/><path class="cls-49" d="M1255,177.12a.43.43,0,0,1-.4.4h-.3a.43.43,0,0,1-.4-.4v-4.3a.43.43,0,0,1,.4-.4h.3a.43.43,0,0,1,.4.4Z"/><path class="cls-37" d="M1235.5,170.42a5.31,5.31,0,0,1-8,.7,5,5,0,0,0-4.8,3.2,4.92,4.92,0,0,0-3.9-1.7,4.84,4.84,0,0,0-4.3,2.3,5.09,5.09,0,0,0-4.3-2.3,5.27,5.27,0,0,0-4.4,2.3,5.09,5.09,0,0,0-4.3-2.3,5.26,5.26,0,0,0-3.9,1.7,4.86,4.86,0,0,0-4.8-3.2,5.31,5.31,0,0,1-8-.7,4.62,4.62,0,1,0,0,9.2,5.31,5.31,0,0,1,8,.7,5.26,5.26,0,0,0,3.9-1.7,5.19,5.19,0,0,0,9.1.9,5.14,5.14,0,0,0,4.4,2.3,4.84,4.84,0,0,0,4.3-2.3,5.19,5.19,0,0,0,9.1-.9,4.92,4.92,0,0,0,3.9,1.7,5.31,5.31,0,0,1,8-.7,4.62,4.62,0,1,0,0-9.2Z"/><path class="cls-18" d="M1177.4,172.92c-2.2,4.7-7.3,7-11.2,5.1l-1.1-.5c-4-1.9-5.4-7.2-3.1-11.9l12.5-26.2c2.2-4.7,7.3-7,11.2-5.1l1.1.5c4,1.9,5.4,7.2,3.1,11.9Z"/><path class="cls-18" d="M1167.1,169.12l12.5-26.2c2.1-4.3,6.5-6.6,10.2-5.5a6.57,6.57,0,0,0-3-2.7l-1.1-.5c-4-1.9-9,.4-11.2,5.1l-12.5,26.2c-2.2,4.7-.8,10,3.1,11.9l1.1.5a4.18,4.18,0,0,0,1,.4A9.64,9.64,0,0,1,1167.1,169.12Z"/><path class="cls-38" d="M1193.6,143.92c-1.8,7-8.6,11.3-15.2,9.6s-13-5.2-8.7-15.7c2.8-6.7,8.6-11.3,15.2-9.6S1195.4,136.92,1193.6,143.92Z"/><path class="cls-31" d="M1178.5,153.52s5.7.8,8.2,0,3.2-6.8,3.2-6.8l2.2-13.1,1.4-4.6-5.2-1.2C1188.4,127.82,1176.3,140.72,1178.5,153.52Z"/><path class="cls-38" d="M1229.7,143.92c1.8,7,8.6,11.3,15.2,9.6s13-5.2,8.7-15.7c-2.8-6.7-8.6-11.3-15.2-9.6S1227.9,136.92,1229.7,143.92Z"/><path class="cls-31" d="M1242.6,153.52s-5.7.8-8.2,0-3.2-6.8-3.2-6.8l-2.2-13.1-1.4-4.6,5.2-1.2C1232.6,127.82,1244.8,140.72,1242.6,153.52Z"/><path class="cls-37" d="M1230.7,130l-20-3.7-19.9,3.7s-14.8,22.6-6.4,45.9c1.1-.6,26.4,0,26.4,0s25.3-.6,26.4,0C1245.4,152.62,1230.7,130,1230.7,130Z"/><path class="cls-50" d="M1209,218a4.35,4.35,0,0,1-4.1,4.5H1194a4.35,4.35,0,0,1-4.1-4.5v-3.5h19V218Z"/><path class="cls-50" d="M1231,218c0,2.7-1.6,4.5-3.6,4.5h-10.9c-2,0-2.5-1.8-2.5-4.5v-3.5h17V218Z"/><path class="cls-51" d="M1239.7,170.12a1.14,1.14,0,0,1-.2,1.6l-.2.3a1.28,1.28,0,0,1-1.6.3l-51.2-47.6a1.14,1.14,0,0,1,.2-1.6l.2-.3a1.28,1.28,0,0,1,1.6-.3Z"/><path class="cls-33" d="M1240.7,169a1.14,1.14,0,0,1-.2,1.6l-.2.3a1.28,1.28,0,0,1-1.6.3l-50.1-46.5a1.14,1.14,0,0,1,.2-1.6l.2-.3a1.28,1.28,0,0,1,1.6-.3Z"/><path class="cls-32" d="M1254.4,92.52a46,46,0,0,0,.8-8.4,45.3,45.3,0,1,0-89.2,11.1,19.48,19.48,0,0,0,12.9,34.1,18.53,18.53,0,0,0,6.7-1.2,19.5,19.5,0,0,0,24.1,1.2h.2c1.2,0,2.4-.1,3.6-.2a19.43,19.43,0,0,0,12.4,4.5,19.07,19.07,0,0,0,13.4-5.4,20.65,20.65,0,0,0,6.2,1,19.41,19.41,0,0,0,8.9-36.7Z"/><path class="cls-33" d="M1254.4,92.52a46,46,0,0,0,.8-8.4,45.38,45.38,0,0,0-58.7-43.3,45.25,45.25,0,0,1,31.9,43.3,46,46,0,0,1-.8,8.4,19.53,19.53,0,0,1-8.9,36.9,21.18,21.18,0,0,1-6.2-1c-.4.3-.7.7-1.1,1,.7,0,1.4-.1,2.1-.1a19.43,19.43,0,0,0,12.4,4.5,19.07,19.07,0,0,0,13.4-5.4,20.65,20.65,0,0,0,6.2,1,19.53,19.53,0,0,0,8.9-36.9Z"/><path class="cls-52" d="M1178.3,98.92c-4.7,6.1-4,14.4,0,20.5,1.2,1.8,4,.1,2.9-1.7-3.5-5.3-4-12,0-17.2,1.3-1.6-1.6-3.3-2.9-1.6Z"/><path class="cls-52" d="M1194.9,98.82c-4.5,6.2-3.6,14.5.7,20.5,1.2,1.7,4.1.1,2.9-1.7-3.6-5.2-4.5-11.8-.7-17.2,1.2-1.6-1.7-3.3-2.9-1.6Z"/><path class="cls-53" d="M593,114.42c0,.2-.2.1-.4.1h-.1c-.2,0-.4.2-.4-.1v-5.1c0-.2.2-.8.4-.8h.1c.2,0,.4.6.4.8Z"/><path class="cls-18" d="M798,208.12c0,4.2-2.5,7.6-7.5,7.6h0c-5,0-7.5-3.4-7.5-7.6v-26.2c0-4.2,2.5-7.6,7.5-7.6h0c5,0,7.5,3.4,7.5,7.6Z"/><path class="cls-45" d="M790,208.12v-26.2a7.57,7.57,0,0,1,5.1-6.8,8.17,8.17,0,0,0-3.5-.8c-5,0-8.6,3.4-8.6,7.6v26.2c0,4.2,3.6,7.6,8.6,7.6a10,10,0,0,0,3.8-.8C792.3,213.72,790,211.12,790,208.12Z"/><path class="cls-18" d="M822,208.12c0,4.2-3.5,7.6-8.5,7.6h0c-5,0-8.5-3.4-8.5-7.6v-26.2c0-4.2,3.5-7.6,8.5-7.6h0c5,0,8.5,3.4,8.5,7.6Z"/><path class="cls-45" d="M812,208.12v-26.2c0-3,2.3-5.6,5.3-6.8a8.63,8.63,0,0,0-3.6-.8c-5,0-8.7,3.4-8.7,7.6v26.2c0,4.2,3.8,7.6,8.8,7.6a8.63,8.63,0,0,0,3.6-.8C814.5,213.72,812,211.12,812,208.12Z"/><path class="cls-35" d="M830,193.12c0,2.8-3.1,5.4-6.7,5.4H781.4c-3.6,0-6.5-2.6-6.5-5.4v-21.9c0-2.8,2.9-5.8,6.5-5.8h41.9c3.6,0,6.7,2.9,6.7,5.8Z"/><path class="cls-9" d="M852.4,157.32c2.1,4.8.5,10.1-3.5,11.8l-1.1.5c-4,1.8-9-.7-11.1-5.5L825,137.52c-2.1-4.8-.5-10.1,3.5-11.9l1.1-.5c4-1.8,9,.7,11.1,5.5Z"/><path class="cls-18" d="M842.7,162.72,831.1,136c-1.9-4.4-.7-9.2,2.6-11.3a6.87,6.87,0,0,0-4,.5l-1.1.5c-4,1.8-5.6,7.1-3.5,11.9l11.6,26.7c2.1,4.8,7,7.2,11.1,5.5l1.1-.5a4,4,0,0,0,.9-.5A10.44,10.44,0,0,1,842.7,162.72Z"/><path class="cls-54" d="M846,173.72a4.76,4.76,0,0,1-4.9,4.8h-6.2a4.7,4.7,0,0,1-4.9-4.8V165c0-2.8,2.2-5.5,4.9-5.5h6.2c2.7,0,4.9,2.7,4.9,5.5Z"/><path class="cls-55" d="M827.1,166a5.7,5.7,0,0,1,5.6-5.5h5.6a5.54,5.54,0,0,1,5.6,5.3"/><polygon class="cls-53" points="843.2 165.52 829 165.52 829 165.52 843.2 165.52"/><path class="cls-56" d="M827.2,163.92a5.31,5.31,0,0,1-8,.7,5,5,0,0,0-4.8,3.2,4.92,4.92,0,0,0-3.9-1.7,5.14,5.14,0,0,0-4.4,2.3,5.36,5.36,0,0,0-8.8,0,5.14,5.14,0,0,0-4.4-2.3,5.26,5.26,0,0,0-3.9,1.7,4.86,4.86,0,0,0-4.8-3.2,5.21,5.21,0,0,0-3.7,1.5,5.25,5.25,0,0,0-4.3-2.2,4.81,4.81,0,0,0-5,4.6,4.88,4.88,0,0,0,5,4.6,5.21,5.21,0,0,0,3.7-1.5,5.31,5.31,0,0,0,8.2.5,4.86,4.86,0,0,0,4.8,3.2,5.14,5.14,0,0,0,4.4-2.3,5.36,5.36,0,0,0,8.8,0,5.14,5.14,0,0,0,4.4,2.3,5,5,0,0,0,4.8-3.2,4.92,4.92,0,0,0,3.9,1.7,5.31,5.31,0,0,1,8-.7,4.81,4.81,0,0,0,5-4.6A4.88,4.88,0,0,0,827.2,163.92Z"/><path class="cls-18" d="M769,166.42c-2.2,4.7-7.3,7-11.3,5.1l-1.1-.5c-4-1.9-5.4-7.3-3.1-12l12.5-26.2c2.2-4.7,7.3-7,11.3-5.1l1.1.5c4,1.9,5.4,7.3,3.1,12Z"/><path class="cls-18" d="M758.5,162.62l12.5-26.2c2.1-4.3,6.5-6.6,10.3-5.5a6.57,6.57,0,0,0-3-2.7l-1.1-.5c-4-1.9-9,.4-11.3,5.1L753.4,159c-2.2,4.7-.8,10.1,3.1,12l1.1.5a4.18,4.18,0,0,0,1,.4A10.45,10.45,0,0,1,758.5,162.62Z"/><path class="cls-26" d="M785.2,137.32c-1.8,7-8.6,11.3-15.2,9.6s-13.1-5.2-8.7-15.8c2.8-6.7,12.1-11.7,18.7-10S787,130.32,785.2,137.32Z"/><path class="cls-57" d="M770,146.92s5.7.8,8.3,0,3.2-6.8,3.2-6.8l2.3-13.2,1.4-4.6-5.2-1.2C780,121.22,767.8,134.22,770,146.92Z"/><path class="cls-26" d="M821.3,137.32c1.8,7,8.6,11.3,15.2,9.6s13.1-5.2,8.7-15.8c-2.8-6.7-11.6-13.2-18.2-11.5S819.5,130.32,821.3,137.32Z"/><path class="cls-57" d="M834.3,146.92s-5.7.8-8.3,0-3.2-6.8-3.2-6.8l-2.3-13.2-1.4-4.6,5.2-1.2C824.3,121.22,836.5,134.22,834.3,146.92Z"/><path class="cls-56" d="M822.4,123.42l-20-7.7-20,7.7s-14.8,22.6-6.4,46c1.1-.6,26.4,0,26.4,0s25.4-.6,26.5,0C837.2,146,822.4,123.42,822.4,123.42Z"/><path class="cls-58" d="M798,211.72c0,2.7.5,4.8-1.5,4.8H785.6c-2,0-2.6-2.1-2.6-4.8v-4.2h15v4.2Z"/><path class="cls-58" d="M822,211.72c0,2.7-.9,4.8-2.9,4.8H808.2c-2,0-3.2-2.1-3.2-4.8v-4.2h17v4.2Z"/><path class="cls-59" d="M831.4,163.72c.3.3.2,1-.2,1.5l-.2.3c-.5.5-1.1.7-1.5.3l-46.2-42.9c-.4-.3-.2-1,.2-1.5l.2-.3c.5-.5,1.2-.7,1.5-.3Z"/><path class="cls-55" d="M833,163.12a1.14,1.14,0,0,1-.2,1.6l-.2.3a1.28,1.28,0,0,1-1.6.3l-50.8-47.2a1.14,1.14,0,0,1,.2-1.6l.2-.3a1.28,1.28,0,0,1,1.6-.3Z"/><path class="cls-60" d="M840.4,50.62c0,7.1-6.3,12.8-14,12.8s-14-5.7-14-12.8,6.3-12.8,14-12.8S840.4,43.52,840.4,50.62Z"/><path class="cls-60" d="M785.5,50.62c0,7.1-6.3,12.8-14,12.8s-14-5.7-14-12.8,6.3-12.8,14-12.8S785.5,43.52,785.5,50.62Z"/><path class="cls-60" d="M804.9,39.32c0,7.1-6.3,12.8-14,12.8s-14-5.7-14-12.8,6.3-12.8,14-12.8S804.9,32.22,804.9,39.32Z"/><path class="cls-32" d="M845.5,81.12c0,23.9-19.6,43.3-43.8,43.3s-43.8-19.4-43.8-43.3,19.6-43.3,43.8-43.3S845.5,57.22,845.5,81.12Z"/><path class="cls-33" d="M801.7,37.82A42.94,42.94,0,0,0,785.2,41a43.18,43.18,0,0,1,10.2,82.9,44.82,44.82,0,0,0,6.4.5c24.2,0,43.8-19.4,43.8-43.3A43.71,43.71,0,0,0,801.7,37.82Z"/><path class="cls-61" d="M810.2,101.72c2.9,40.1-.6,35.2-9.9,31.2-8.6-3.7-14.9,4.2-13.4-31.3C787.7,83,792.3,68,798.7,68S810.3,83.22,810.2,101.72Z"/><path class="cls-62" d="M812.9,103.52c3.1,40.1-.5,35.2-9.8,31.2-8.6-3.7-14.9,4.3-13.6-31.2.7-18.6,5.2-33.7,11.7-33.7S812.9,84.92,812.9,103.52Z"/><path class="cls-37" d="M810,73.72c0,4.1-3.7,7.4-8.2,7.4s-8.2-3.3-8.2-7.4,3.7-7.4,8.2-7.4S810,69.62,810,73.72Z"/><path class="cls-63" d="M807.4,73.62c0,3-2.7,5.4-6.1,5.4s-6.1-2.4-6.1-5.4,2.7-5.4,6.1-5.4S807.4,70.62,807.4,73.62Z"/><path class="cls-64" d="M785.1,182.72c0,1.9-1.2,3.4-2.6,3.4s-2.6-1.5-2.6-3.4,1.2-3.4,2.6-3.4S785.1,180.92,785.1,182.72Z"/><path class="cls-64" d="M798,182.72c0,1.9-1.2,3.4-2.6,3.4s-2.6-1.5-2.6-3.4,1.2-3.4,2.6-3.4S798,180.92,798,182.72Z"/><path class="cls-64" d="M812.6,182.72c0,1.9-1.2,3.4-2.6,3.4s-2.6-1.5-2.6-3.4,1.2-3.4,2.6-3.4S812.6,180.92,812.6,182.72Z"/><path class="cls-64" d="M824.5,182.72c0,1.9-1.2,3.4-2.6,3.4s-2.6-1.5-2.6-3.4,1.2-3.4,2.6-3.4S824.5,180.92,824.5,182.72Z"/><path class="cls-52" d="M796.1,90.52c-1.4,10.9-2.3,22.7,0,33.5.3,1.6,2.7.9,2.4-.7-2.3-10.6-1.3-22.2,0-32.9.3-1.5-2.2-1.5-2.4.1Z"/><path class="cls-52" d="M803.9,93.52c-.4,11-.4,22.9,2.9,33.5.5,1.5,2.9.9,2.4-.7-3.2-10.4-3.2-22-2.8-32.8a1.25,1.25,0,0,0-2.5,0Z"/><path class="cls-18" d="M1350,193.12c0,4.2-2.5,7.6-7.5,7.6h0c-5,0-7.5-3.4-7.5-7.6v-26.2c0-4.2,2.5-7.6,7.5-7.6h0c5,0,7.5,3.4,7.5,7.6Z"/><path class="cls-45" d="M1342,193.12v-26.2a7.57,7.57,0,0,1,5.1-6.8,8.17,8.17,0,0,0-3.5-.8c-5,0-8.6,3.4-8.6,7.6v26.2c0,4.2,3.6,7.6,8.6,7.6a10,10,0,0,0,3.8-.8C1344.3,198.72,1342,196.12,1342,193.12Z"/><path class="cls-18" d="M1374,193.12c0,4.2-3.5,7.6-8.5,7.6h0c-5,0-8.5-3.4-8.5-7.6v-26.2c0-4.2,3.5-7.6,8.5-7.6h0c5,0,8.5,3.4,8.5,7.6Z"/><path class="cls-45" d="M1364,193.12v-26.2c0-3,2.3-5.6,5.3-6.8a8.63,8.63,0,0,0-3.6-.8c-5,0-8.7,3.4-8.7,7.6v26.2c0,4.2,3.8,7.6,8.8,7.6a8.63,8.63,0,0,0,3.6-.8C1366.5,198.72,1364,196.12,1364,193.12Z"/><path class="cls-35" d="M1382,178.12c0,2.8-3.1,5.4-6.7,5.4h-41.9c-3.6,0-6.5-2.6-6.5-5.4v-21.9c0-2.8,2.9-5.8,6.5-5.8h41.9c3.6,0,6.7,2.9,6.7,5.8Z"/><path class="cls-9" d="M1404.4,142.32c2.1,4.8.5,10.1-3.5,11.8l-1.1.5c-4,1.8-9-.7-11.1-5.5l-11.7-26.6c-2.1-4.8-.5-10.1,3.5-11.9l1.1-.5c4-1.8,9,.7,11.1,5.5Z"/><path class="cls-18" d="M1394.7,147.72,1383.1,121c-1.9-4.4-.7-9.2,2.6-11.3a6.87,6.87,0,0,0-4,.5l-1.1.5c-4,1.8-5.6,7.1-3.5,11.9l11.6,26.7c2.1,4.8,7,7.2,11.1,5.5l1.1-.5a4,4,0,0,0,.9-.5A10.44,10.44,0,0,1,1394.7,147.72Z"/><path class="cls-54" d="M1398,158.72a4.76,4.76,0,0,1-4.9,4.8H1387a4.7,4.7,0,0,1-4.9-4.8V150c0-2.8,2.2-5.5,4.9-5.5h6.1c2.7,0,4.9,2.7,4.9,5.5Z"/><path class="cls-55" d="M1379.1,151a5.7,5.7,0,0,1,5.6-5.5h5.6a5.54,5.54,0,0,1,5.6,5.3"/><polygon class="cls-53" points="1395.2 150.52 1381 150.52 1381 150.52 1395.2 150.52"/><path class="cls-56" d="M1379.2,148.92a5.31,5.31,0,0,1-8,.7,5,5,0,0,0-4.8,3.2,4.92,4.92,0,0,0-3.9-1.7,5.36,5.36,0,0,1-8.8,0,5.36,5.36,0,0,1-8.8,0,5.26,5.26,0,0,0-3.9,1.7,4.86,4.86,0,0,0-4.8-3.2,5.31,5.31,0,0,1-8-.7,4.81,4.81,0,0,0-5,4.6,4.88,4.88,0,0,0,5,4.6,5.31,5.31,0,0,1,8,.7,5.26,5.26,0,0,0,3.9-1.7,4.86,4.86,0,0,0,4.8,3.2,5.36,5.36,0,0,1,8.8,0,5.36,5.36,0,0,1,8.8,0,5,5,0,0,0,4.8-3.2,4.92,4.92,0,0,0,3.9,1.7,5.31,5.31,0,0,1,8-.7,4.81,4.81,0,0,0,5-4.6A4.88,4.88,0,0,0,1379.2,148.92Z"/><path class="cls-18" d="M1321,151.42c-2.2,4.7-7.3,7-11.3,5.1l-1.1-.5c-4-1.9-5.4-7.3-3.1-12l12.5-26.2c2.2-4.7,7.3-7,11.3-5.1l1.1.5c4,1.9,5.4,7.3,3.1,12Z"/><path class="cls-18" d="M1310.5,147.62l12.5-26.2c2.1-4.3,6.5-6.6,10.3-5.5a6.57,6.57,0,0,0-3-2.7l-1.1-.5c-4-1.9-9,.4-11.3,5.1L1305.4,144c-2.2,4.7-.8,10.1,3.1,12l1.1.5a4.18,4.18,0,0,0,1,.4A10.45,10.45,0,0,1,1310.5,147.62Z"/><path class="cls-26" d="M1337.2,122.32c-1.8,7-8.6,11.3-15.2,9.6s-13.1-5.2-8.7-15.8c2.8-6.7,12.1-11.7,18.7-10S1339,115.32,1337.2,122.32Z"/><path class="cls-57" d="M1322,131.92s5.7.8,8.3,0,3.2-6.8,3.2-6.8l2.3-13.2,1.4-4.6-5.2-1.2C1332,106.22,1319.8,119.22,1322,131.92Z"/><path class="cls-26" d="M1373.3,122.32c1.8,7,8.6,11.3,15.2,9.6s13.1-5.2,8.7-15.8c-2.8-6.7-11.6-13.2-18.2-11.5S1371.5,115.32,1373.3,122.32Z"/><path class="cls-57" d="M1386.3,131.92s-5.7.8-8.3,0-3.2-6.8-3.2-6.8l-2.3-13.2-1.4-4.6,5.2-1.2C1376.3,106.22,1388.5,119.22,1386.3,131.92Z"/><path class="cls-56" d="M1374.4,108.42l-20-7.7-20,7.7s-14.8,22.6-6.4,46c1.1-.6,26.4,0,26.4,0s25.4-.6,26.5,0C1389.2,131,1374.4,108.42,1374.4,108.42Z"/><path class="cls-58" d="M1350,196.72c0,2.7.5,4.8-1.5,4.8h-10.9c-2,0-2.6-2.1-2.6-4.8v-4.2h15v4.2Z"/><path class="cls-58" d="M1374,196.72c0,2.7-.9,4.8-2.9,4.8h-10.9c-2,0-3.2-2.1-3.2-4.8v-4.2h17v4.2Z"/><path class="cls-59" d="M1383.4,148.72c.4.3.2,1-.2,1.5l-.2.3c-.5.5-1.2.7-1.5.3l-46.2-42.9c-.4-.3-.2-1,.2-1.5l.2-.3c.5-.5,1.1-.7,1.5-.3Z"/><path class="cls-55" d="M1385,148.12a1.14,1.14,0,0,1-.2,1.6l-.2.3a1.28,1.28,0,0,1-1.6.3l-50.8-47.2a1.14,1.14,0,0,1,.2-1.6l.2-.3a1.28,1.28,0,0,1,1.6-.3Z"/><path class="cls-60" d="M1392.4,35.62c0,7.1-6.3,12.8-14,12.8s-14-5.7-14-12.8,6.3-12.8,14-12.8S1392.4,28.52,1392.4,35.62Z"/><path class="cls-60" d="M1337.5,35.62c0,7.1-6.3,12.8-14,12.8s-14-5.7-14-12.8,6.3-12.8,14-12.8S1337.5,28.52,1337.5,35.62Z"/><path class="cls-60" d="M1356.9,24.32c0,7.1-6.3,12.8-14,12.8s-14-5.7-14-12.8,6.3-12.8,14-12.8S1356.9,17.22,1356.9,24.32Z"/><path class="cls-32" d="M1397.5,66.12c0,23.9-19.6,43.3-43.8,43.3s-43.8-19.4-43.8-43.3,19.6-43.3,43.8-43.3S1397.5,42.22,1397.5,66.12Z"/><path class="cls-33" d="M1353.7,22.82a42.94,42.94,0,0,0-16.5,3.2,43.18,43.18,0,0,1,10.2,82.9,44.82,44.82,0,0,0,6.4.5c24.2,0,43.8-19.4,43.8-43.3A43.71,43.71,0,0,0,1353.7,22.82Z"/><path class="cls-61" d="M1362.2,86.72c2.9,40.1-.6,35.2-9.9,31.2-8.6-3.7-14.9,4.2-13.4-31.3.8-18.6,5.4-33.6,11.8-33.6S1362.3,68.22,1362.2,86.72Z"/><path class="cls-62" d="M1364.9,88.52c3.1,40.1-.5,35.2-9.8,31.2-8.6-3.7-14.9,4.3-13.6-31.2.7-18.6,5.2-33.7,11.7-33.7S1364.9,69.92,1364.9,88.52Z"/><path class="cls-37" d="M1362,58.72c0,4.1-3.7,7.4-8.2,7.4s-8.2-3.3-8.2-7.4,3.7-7.4,8.2-7.4S1362,54.62,1362,58.72Z"/><path class="cls-63" d="M1359.4,58.62c0,3-2.7,5.4-6.1,5.4s-6.1-2.4-6.1-5.4,2.7-5.4,6.1-5.4S1359.4,55.62,1359.4,58.62Z"/><path class="cls-64" d="M1337.1,167.72c0,1.9-1.2,3.4-2.6,3.4s-2.6-1.5-2.6-3.4,1.2-3.4,2.6-3.4S1337.1,165.92,1337.1,167.72Z"/><path class="cls-64" d="M1350,167.72c0,1.9-1.2,3.4-2.6,3.4s-2.6-1.5-2.6-3.4,1.2-3.4,2.6-3.4S1350,165.92,1350,167.72Z"/><path class="cls-64" d="M1364.6,167.72c0,1.9-1.2,3.4-2.6,3.4s-2.6-1.5-2.6-3.4,1.2-3.4,2.6-3.4S1364.6,165.92,1364.6,167.72Z"/><path class="cls-64" d="M1376.5,167.72c0,1.9-1.2,3.4-2.6,3.4s-2.6-1.5-2.6-3.4,1.2-3.4,2.6-3.4S1376.5,165.92,1376.5,167.72Z"/><path class="cls-52" d="M1348.1,75.52c-1.4,10.9-2.3,22.7,0,33.5.3,1.6,2.7.9,2.4-.7-2.3-10.6-1.3-22.2,0-32.9.3-1.5-2.2-1.5-2.4.1Z"/><path class="cls-52" d="M1355.8,78.52c-.4,11-.4,22.9,2.9,33.5.5,1.5,2.9.9,2.4-.7-3.2-10.4-3.2-22-2.8-32.8.1-1.6-2.4-1.6-2.5,0Z"/><path class="cls-18" d="M1553.75,124.32"/><path class="cls-65" d="M1498.15,86c1-.2,2.6,4.6,3.6,10.7s1.1,11.1.1,11.3-2.6-4.6-3.6-10.7S1497.25,86.12,1498.15,86Z"/><path class="cls-66" d="M1535,114.12a4.69,4.69,0,0,1,4.4-4.9l11.5-.6a4.69,4.69,0,0,1,4.9,4.4l.6,11.5a4.69,4.69,0,0,1-4.4,4.9l-11.5.6a4.69,4.69,0,0,1-4.9-4.4Z"/><path class="cls-67" d="M1522.75,187.22c1-4.3,4.9-7.1,8.8-6.2l5.2,1.2c3.8.8,6.2,5,5.2,9.3l-2.2,9.7c-1,4.3-4.9,7.1-8.8,6.2l-5.2-1.2c-3.8-.8-6.2-5-5.2-9.3Z"/><path class="cls-67" d="M1525.15,194l3.4-2.7-4.3-3.7s-4.4-3.4-8.7-1.8c4.1,3.7,4.9,11.6,4.9,11.6Z"/><path class="cls-26" d="M1510.75,172.72s1.1,9.1,4,12.1c3.5,4.6,10.9,8.3,19.9,9.7,1.3.4,5.5,2.1,6.5,5.8l.3,1.9a7.92,7.92,0,0,0,9.1,6.5l5.9-1a7.92,7.92,0,0,0,6.5-9.1l-.2-1.1h.1a12.28,12.28,0,0,1,.3-4c1-2.2,1.5-4.3,3.2-6.4.2-.2,1.4-2,1.6-2.2l.1-.1h0a6.42,6.42,0,0,0,1-1.3s3-6.5,3.5-12.1c.2-2-6.4-3.3-14.9-4.1a45.37,45.37,0,0,0-15.9-3.3,47.71,47.71,0,0,0-15.6,1.9h-3.8Z"/><path class="cls-68" d="M1569.15,169.22h0l1,.3A1.93,1.93,0,0,0,1569.15,169.22Z"/><path class="cls-68" d="M1510.65,172.52s1.1,9.1,4,12.1c3.5,4.6,10.9,8.3,19.9,9.7,1.3.4,5.5,2.1,6.5,5.8l.3,1.9a8,8,0,0,0,5.4,6.3,8.59,8.59,0,0,1-2.5-6.4l.1-2c-.2-4-4.2-6.7-5.5-7.5-9.2-3.5-16-9-18.6-14.7-1.4-2.2-1.6-6.5-1.6-9.7Z"/><path class="cls-69" d="M1517.95,123.22h0c13,3,27.8-.2,35.2-2.3a42.61,42.61,0,1,0-52.2-36.7,51,51,0,0,0,1.3,7,19.71,19.71,0,0,0-4,13.6C1499.25,114.22,1507.95,121.52,1517.95,123.22Z"/><path class="cls-70" d="M1498.85,158.52l21.7,8.1a8.56,8.56,0,0,0,8.8-2.1c0-.1.1-.1.2-.2l18.6-17.6c3.9-3.7,3.2-10.6-1.4-15.5s-11.5-5.9-15.4-2.3l-15.4,14.6-10.1-3.8c-4.5-1.7-9.7,1.1-11.6,6.3S1494.35,156.82,1498.85,158.52Z"/><path class="cls-71" d="M1572.25,171.92c-24.5,10.7-59,2-61.8,1.2-5.2-16.1,6.9-30.9,7.6-32.4s8.7-10.8,10.7-11.6c6.7-4.2,27.6-4.6,27.6-4.6l5.2,2.6C1578.55,141.92,1572.85,162.42,1572.25,171.92Z"/><path class="cls-72" d="M1510.45,173.12a138,138,0,0,0,24.8,3.8c-2.1-.4-3.5-.8-4-.9-5.4-16.7,7.2-32,7.9-33.6s9-11.2,11.1-12c2.4-1.6,6.8-2.6,11.3-3.3h0l-5.2-2.6s-20.9.4-27.6,4.6c-2,.8-10,10.1-10.7,11.6S1505.25,157.12,1510.45,173.12Z"/><path class="cls-73" d="M1503.95,111.42a2.61,2.61,0,0,1,2.1-3.1h0a2.61,2.61,0,0,1,3.1,2.1l.5,2.6a2.61,2.61,0,0,1-2.1,3.1h0a2.61,2.61,0,0,1-3.1-2.1Z"/><path class="cls-74" d="M1497.65,115.72l2.3,11.3a1.18,1.18,0,1,0,2.3-.5l-2.1-10.2,5-1c.3-.1.5-.7.4-1.3s-.5-1.1-.9-1l-6.4,1.2c-.1,0-.2.1-.3.2A.9.9,0,0,0,1497.65,115.72Z"/><path class="cls-74" d="M1492.95,127.82a3.3,3.3,0,0,1,2.8-3.7l11.3-2.3a3.27,3.27,0,0,1,4,2.3l3.9,18.9a3.3,3.3,0,0,1-2.8,3.7l-11.3,2.3a3.27,3.27,0,0,1-4-2.3Z"/><path class="cls-72" d="M1495.45,128.32a1.7,1.7,0,0,1,1.3-2l10.2-2.1a1.7,1.7,0,0,1,2,1.3h0a1.7,1.7,0,0,1-1.3,2l-10.2,2.1a1.7,1.7,0,0,1-2-1.3Z"/><path class="cls-69" d="M1512.65,160.82l21.7,8.1a8.56,8.56,0,0,0,8.8-2.1c0-.1.1-.1.2-.2l18.6-17.6c3.9-3.7,3.2-10.6-1.4-15.5s-11.5-5.9-15.4-2.3l-15.4,14.6-10.1-3.8c-4.5-1.7-9.7,1.1-11.6,6.3S1508.25,159.12,1512.65,160.82Z"/><path class="cls-75" d="M1507.75,149.52c-1.3,4.8.8,9.7,5,11.2l21.7,8.1a8.56,8.56,0,0,0,8.8-2.1c0-.1.1-.1.2-.2l18.6-17.6c3-2.8,3.3-7.6,1.1-11.9a8.44,8.44,0,0,1-2.2,3.9l-18.7,17.6c0,.1-.1.1-.2.2a8.61,8.61,0,0,1-8.8,2.1l-21.7-8.1A7.94,7.94,0,0,1,1507.75,149.52Z"/><path class="cls-76" d="M1510.15,94.82c0-.2.1-.4.3-.4l27.2-4.5c.2,0,.4.1.4.3l.1.6c0,.2-.1.4-.3.4l-27.2,4.5c-.2,0-.4-.1-.4-.3Z"/><path class="cls-60" d="M1548.85,37.62a33.5,33.5,0,1,1-33.5,33.5A33.5,33.5,0,0,1,1548.85,37.62Z"/><path class="cls-60" d="M1511.55,81.72c-2.1-1.7-.8-1.2-1-4.5.9-5.4-2.2-5.6-2.2-5.6-6.1,9.5-8.9,5.6-11.3,5.6s-2.7-1.7-2.9-2.8,1.2-2.6,2.9-4.7,1.8-4.5,4-11.2,5.8-11.4,14.8-17.7c5.7-7.5,26.6-8.3,32.1-8.3s11.2,3.7,14,5.2c13,0,21.8,16.2,25.1,22.2,14.4,21.6-3.5,34.9-6.1,41.9s-13.7,12.1-13.9,14.5,3.9,1.5,2.7,4.5-3.5-.3-10.2-.6-8.6-12.4-8.6-12.4"/><path class="cls-77" d="M1494.15,74.52c.2,1.1.5,2.8,2.9,2.8s5.2,3.8,11.3-5.6c0,0,3.2.2,2.2,5.6v1.1c.1-.2.3-.3.4-.5,1.7-2.1,1.8-4.5,4-11.2s5.8-11.4,14.8-17.7c5.7-7.5,26.6-8.3,32.1-8.3s11.2,3.7,14,5.2a10.87,10.87,0,0,1,1.8.1c-4.2-4.5-9.4-8.2-15.6-8.2-2.8-1.5-8.5-5.2-14-5.2s-26.4.8-32.1,8.3c-9.1,6.3-12.6,11-14.8,17.7s-2.3,9.1-4,11.2S1494,73.42,1494.15,74.52Z"/><path class="cls-69" d="M1543.25,84.22a13.4,13.4,0,1,1-13.4,13.4A13.4,13.4,0,0,1,1543.25,84.22Z"/><path class="cls-60" d="M1527.95,92.42a1.54,1.54,0,0,1,1.5-1.5h0a1.54,1.54,0,0,1,1.5,1.5v6a1.54,1.54,0,0,1-1.5,1.5h0a1.54,1.54,0,0,1-1.5-1.5Z"/><path class="cls-65" d="M1504.65,85.92c2.1-.4,4.8,4.7,5.9,11.3s.3,12.3-1.9,12.7-4.8-4.7-5.9-11.3S1502.45,86.32,1504.65,85.92Z"/><path class="cls-78" d="M1506.65,95.42a2,2,0,1,1-1.9,2A1.92,1.92,0,0,1,1506.65,95.42Z"/><path class="cls-77" d="M1560.35,27.42c.4-1.2,2-1.7,3.5-1.1h0c1.5.6,2.3,2,1.8,3.2l-3.4,8.6c-.4,1.2-2,1.7-3.5,1.1h0c-1.5-.6-2.3-2-1.8-3.2Z"/><path class="cls-73" d="M1542.85,88.72a7.9,7.9,0,1,1-7.9,7.9A7.85,7.85,0,0,1,1542.85,88.72Z"/><path class="cls-18" d="M442.5,116.82"/><path class="cls-79" d="M497.5,90c-1,6-2.6,10.8-3.6,10.6s-.9-5.2.1-11.2,2.6-10.8,3.6-10.6S498.5,84,497.5,90Z"/><path class="cls-18" d="M460.4,118.12a4.51,4.51,0,0,1-4.8,4.3l-11.4-.6a4.51,4.51,0,0,1-4.3-4.8l.6-11.4a4.51,4.51,0,0,1,4.8-4.3l11.4.6a4.51,4.51,0,0,1,4.3,4.8Z"/><path class="cls-67" d="M475.4,188.72c1,4.2-1.4,8.4-5.2,9.3l-5.2,1.2c-3.8.9-7.7-1.9-8.7-6.1l-2.2-9.6c-1-4.2,1.3-8.4,5.2-9.3l5.2-1.2c3.8-.9,7.7,1.9,8.7,6.1Z"/><path class="cls-67" d="M475.5,189.22s.8-7.8,4.8-11.5c-4.3-1.6-8.7,1.7-8.7,1.7l-4.3,3.7,3.4,2.7Z"/><path class="cls-26" d="M473.6,158h-3.7a46.83,46.83,0,0,0-15.4-1.9,44.8,44.8,0,0,0-15.8,3.3c-8.4.8-14.9,2.1-14.7,4.1.5,5.5,3.5,12,3.5,12a14.67,14.67,0,0,0,.9,1.3h0l.1.1c.2.2,1.4,2,1.6,2.2,1.6,2.1,2.2,4.2,3.1,6.3a12.28,12.28,0,0,1,.3,4h.1l-.2,1a7.82,7.82,0,0,0,6.5,9l5.8,1a7.82,7.82,0,0,0,9-6.5l.3-1.8c1-3.6,5.1-5.3,6.4-5.7,9-1.4,16.2-5,19.7-9.6,2.9-3,4-12,4-12Z"/><path class="cls-68" d="M426.2,161.52l1-.3h0Z"/><path class="cls-68" d="M477.2,160.12c0,3.1-.2,7.4-1.6,9.6-2.5,5.6-9.4,11.1-18.4,14.5-1.3.7-5.3,3.4-5.5,7.5l.1,2a8.37,8.37,0,0,1-2.5,6.4,8,8,0,0,0,5.4-6.2l.3-1.8c1-3.6,5.1-5.3,6.4-5.7,9-1.4,16.2-5,19.7-9.6,2.9-3,4-12,4-12Z"/><path class="cls-9" d="M497.5,97.42a19.2,19.2,0,0,0-4-13.4,49.57,49.57,0,0,0,1.3-6.9,42.26,42.26,0,0,0-84-9.3c-2.4,21.4,12,40.8,32.3,45.7,7.3,2,21.9,5.3,34.9,2.3h0C488,114,496.5,106.82,497.5,97.42Z"/><path class="cls-70" d="M501.5,138.32c-1.9-5.1-7.1-7.9-11.5-6.3l-10.1,3.7-15.3-14.5c-3.8-3.6-10.6-2.6-15.2,2.3s-5.2,11.7-1.4,15.3l18.4,17.4c.1.1.2.1.2.2a8.39,8.39,0,0,0,8.7,2.1l21.5-8C501.3,148.92,503.4,143.42,501.5,138.32Z"/><path class="cls-35" d="M434.7,119.62l5.2-2.5s20.7.4,27.3,4.5c2,.8,10,10,10.6,11.5s12.7,16.2,7.6,32.1c-2.8.8-37,9.4-61.2-1.2C423.5,154.52,417.9,134.22,434.7,119.62Z"/><path class="cls-80" d="M477.8,133.12c-.7-1.5-8.6-10.7-10.6-11.5-6.6-4.1-27.3-4.5-27.3-4.5l-5.2,2.5h0c4.5.7,8.8,1.7,11.2,3.2,2.1.8,10.3,10.4,11,11.9s13.2,16.8,7.8,33.3c-.5.1-1.9.5-3.9.9a136,136,0,0,0,24.6-3.8C490.5,149.22,478.5,134.62,477.8,133.12Z"/><path class="cls-28" d="M491.3,106.62a2.69,2.69,0,0,1-3.1,2.1h0a2.69,2.69,0,0,1-2.1-3.1l.5-2.6a2.69,2.69,0,0,1,3.1-2.1h0a2.69,2.69,0,0,1,2.1,3.1Z"/><path class="cls-74" d="M497.8,106.92l-.2-.2-6.3-1.2c-.3-.1-.7.4-.8,1s.1,1.2.4,1.2l5,.9-2.1,10.1a1.12,1.12,0,1,0,2.2.4l2.3-11.2A1.59,1.59,0,0,0,497.8,106.92Z"/><path class="cls-74" d="M498.9,139c-.3,1.6-2.1,2.6-4,2.3L483.7,139a3.26,3.26,0,0,1-2.8-3.6l3.8-18.7c.3-1.6,2.1-2.6,4-2.3l11.2,2.3a3.26,3.26,0,0,1,2.8,3.6Z"/><path class="cls-72" d="M500.3,120.72a1.7,1.7,0,0,1-2,1.3l-10.1-2.1a1.7,1.7,0,0,1-1.3-2h0a1.7,1.7,0,0,1,2-1.3l10.1,2.1a1.7,1.7,0,0,1,1.3,2Z"/><path class="cls-81" d="M487.7,140.62c-1.9-5.1-7.1-7.9-11.5-6.3L466.1,138l-15.3-14.5c-3.8-3.6-10.6-2.6-15.2,2.3s-5.2,11.7-1.4,15.3l18.4,17.4c.1.1.2.1.2.2a8.39,8.39,0,0,0,8.7,2.1l21.5-8C487.6,151.22,489.6,145.72,487.7,140.62Z"/><path class="cls-18" d="M484.3,144.92l-21.5,8a8.39,8.39,0,0,1-8.7-2.1c-.1-.1-.2-.1-.2-.2l-18.4-17.4a8.12,8.12,0,0,1-2.2-3.8c-2.2,4.3-1.9,9,1.1,11.8l18.4,17.4c.1.1.2.1.2.2a8.39,8.39,0,0,0,8.7,2.1l21.5-8c4.1-1.5,6.2-6.4,5-11.1A8.47,8.47,0,0,1,484.3,144.92Z"/><path class="cls-82" d="M485.6,88.22c0,.2-.2.3-.4.3L458.3,84c-.2,0-.3-.2-.3-.4l.1-.6c0-.2.2-.3.4-.3l26.9,4.5c.2,0,.3.2.3.4Z"/><path class="cls-60" d="M480.5,64.12a33.2,33.2,0,1,1-33.2-33.2A33.25,33.25,0,0,1,480.5,64.12Z"/><path class="cls-60" d="M445.2,100.42s-1.9,11.9-8.5,12.2-8.9,3.5-10.1.6,2.9-2.1,2.7-4.4-11.2-7.3-13.8-14.3-20.3-20.1-6-41.5c3.2-5.9,12-22,24.9-22,2.7-1.5,8.4-5.2,13.8-5.2s26.1.8,31.8,8.2c9,6.3,12.5,10.9,14.6,17.5s2.3,9,4,11.1,3.1,3.6,2.9,4.6S501,70,498.6,70s-5.1,3.8-11.2-5.5c0,0-3.1.2-2.1,5.5-.2,3.3,1.1,2.8-1,4.4"/><path class="cls-77" d="M498.5,62.82c-1.7-2.1-1.8-4.4-4-11.1s-5.7-11.3-14.6-17.5c-5.7-7.4-26.3-8.2-31.8-8.2s-11.1,3.6-13.8,5.2c-6.1,0-11.3,3.7-15.5,8.1a9.71,9.71,0,0,1,1.7-.1c2.7-1.5,8.4-5.2,13.8-5.2s26.1.8,31.8,8.2c9,6.3,12.5,10.9,14.6,17.5s2.3,9,4,11.1c.1.2.3.3.4.5v-1.1c-1-5.4,2.1-5.5,2.1-5.5,6,9.4,8.8,5.5,11.2,5.5s2.7-1.7,2.9-2.8S500.2,64.92,498.5,62.82Z"/><circle class="cls-9" cx="452.9" cy="90.32" r="13.3"/><path class="cls-60" d="M468,92a1.54,1.54,0,0,1-1.5,1.5h0A1.54,1.54,0,0,1,465,92V86a1.54,1.54,0,0,1,1.5-1.5h0A1.54,1.54,0,0,1,468,86Z"/><path class="cls-79" d="M493,91.32c-1.1,6.6-3.7,11.6-5.9,11.2s-3-6-1.9-12.5,3.7-11.6,5.9-11.2S494.1,84.82,493,91.32Z"/><path class="cls-78" d="M491,90.12a1.92,1.92,0,0,1-1.9,2,2,2,0,0,1-1.9-2,1.9,1.9,0,1,1,3.8,0Z"/><path class="cls-77" d="M439.3,29.42c.5,1.2-.3,2.6-1.8,3.2h0a2.59,2.59,0,0,1-3.5-1.1L430.7,23c-.5-1.2.3-2.6,1.8-3.2h0a2.59,2.59,0,0,1,3.5,1.1Z"/><path class="cls-28" d="M461.1,89.42a7.8,7.8,0,1,1-7.8-7.8A7.81,7.81,0,0,1,461.1,89.42Z"/><path class="cls-9" d="M106.6,45.82a7.2,7.2,0,1,1-7.2-7.2A7.3,7.3,0,0,1,106.6,45.82Z"/><path class="cls-83" d="M123.6,42l19.6-7.9a44.21,44.21,0,0,0-67.7-18.5A44.21,44.21,0,0,1,123.6,42Z"/><path class="cls-4" d="M1705,180.27c22.6,0,40.9,3.8,40.9,8.6s-18.3,8.6-40.9,8.6-40.9-3.8-40.9-8.6S1682.39,180.27,1705,180.27Z"/><path class="cls-5" d="M1727.49,96.07a10,10,0,0,0-5.5,13.1v.1a10,10,0,0,0,13.1,5.5l20.8-8.5a10,10,0,0,0,5.5-13.1v-.1a10,10,0,0,0-13.1-5.5Z"/><path class="cls-31" d="M1730.79,91.67c6.6,8.8,9.6,20.4,10.1,23.8-5,3.8-21,8.9-21,8.9v-.1a11.56,11.56,0,0,1-13.9-6.8,11.82,11.82,0,0,1,2.7-13.3h0C1711,101.17,1724,94.37,1730.79,91.67Z"/><path class="cls-8" d="M1699.69,87.87l-8.6,6.1,2.4,14s19.7,2.3,19.3-.8,2.1-5.7,2.1-5.7Z"/><path class="cls-9" d="M1742.09,88.77c-8.8,15.4-46.4,13-46.4,13h.1a44,44,0,1,1,43.7-45.6c.1,1.2,0,2.3,0,3.5,4.7,3.9,7.7,9.2,7.9,15.1A19.79,19.79,0,0,1,1742.09,88.77Z"/><path class="cls-28" d="M1698.79,73.47c-2.2-2.6-5.8-3.3-8-1.4s-2.2,5.5,0,8.1,5.8,3.3,8,1.4S1700.89,76.07,1698.79,73.47Z"/><path class="cls-29" d="M1729.89,62.67a2.5,2.5,0,1,0,2.7,2.4A2.56,2.56,0,0,0,1729.89,62.67Z"/><path class="cls-14" d="M1741.09,80c1-.1,1-1.7,0-1.5a31.27,31.27,0,0,1-5.3,0c-1-.2-1.4,1.4-.4,1.5a27.15,27.15,0,0,0,5.7,0Z"/><path class="cls-32" d="M1737.79,49.87c-1.9,1.4-1,1-2.8,2.5a2.76,2.76,0,0,1-3.4.3l-1.3-6.1.1-2.6h0c-.2,1,.4,2.4.2,3.9-.7,5.3-3,5.5-4.6,7a25.35,25.35,0,0,1-7.5,3.2c-1.6.1-.5-5.4-.5-5.4l-.4-3.7s-.5,2.2-2.1,7.8-7.6,3.8-8.7,5.8-.7,3.8-1.1,6.9-3.3,1.6-4.5.4a13.45,13.45,0,0,0-7.4-3.5c-10.1.5-10.3,6.1-10.2,9.3.1,5.1,3.9,10,6.3,10.8,3.5,1.6,3.3,5.6,3.7,7.5-.3,2.8-9.6,2.8-13.7,4.2s-6.7.9-8.3-.6c-3.1-4.7-3.3-3.9-5.8-6.4-5.1-3.4-15.8-18-15.8-18-18.8-48.7,24.4-58.9,33.6-59.2,41-14.1,55.5,21.4,55.5,21.4C1740,37.27,1741.09,47.37,1737.79,49.87Z"/><path class="cls-33" d="M1739.09,35.27s-14.5-35.5-55.5-21.4c-4,.1-14.4,2.1-23.4,8.3h.3c41-14.1,55.5,21.4,55.5,21.4.5,1,1,4.4.9,7.6.4-1.7.6-2.4.6-2.4l.4,3.7s-1.1,5.5.5,5.4,6.5-2.3,7.5-3.2c1.6-1.5,3.9-1.7,4.6-7l1.1,4.9a2.73,2.73,0,0,0,3.4-.3,22.64,22.64,0,0,1,2.8-2.5C1741.09,47.37,1740,37.27,1739.09,35.27Zm-8.8,8.6v0Z"/><path class="cls-33" d="M1707.29,52.07v0Z"/><path class="cls-33" d="M1715.09,57.77"/><path class="cls-34" d="M1719.69,170.57c-1-4.5-5.1-7.4-9.2-6.5l-5.5,1.3c-4.1.9-6.5,5.3-5.5,9.8l2.3,10.2c1,4.5,5.1,7.4,9.2,6.5l5.5-1.3c4.1-.9,6.5-5.3,5.5-9.8Z"/><path class="cls-34" d="M1717,177.77l-3.6-2.9,4.6-3.9s4.7-3.6,9.2-1.9c-4.3,3.9-5.1,12.2-5.1,12.2Z"/><path class="cls-35" d="M1732.29,155.17s-1.1,9.6-4.2,12.8c-3.6,5-11.4,8.8-20.9,10.3-1.4.5-5.9,2.2-6.9,6.1l-.3,2a8.24,8.24,0,0,1-9.6,6.9l-6.2-1a8.24,8.24,0,0,1-6.9-9.6l.2-1.1h-.1a17.61,17.61,0,0,0-.4-4.2c-.9-2.3-1.5-4.4-3.3-6.7-.2-.3-1.5-2.2-1.7-2.4l-.1-.1h0a7.11,7.11,0,0,1-1-1.4c0-.1-3.2-6.9-3.7-12.8-.2-2.2,6.8-3.5,15.7-4.4a47.75,47.75,0,0,1,16.8-3.5,49.89,49.89,0,0,1,16.4,2h4Z"/><path class="cls-36" d="M1670.79,151.57h0l-1.1.3C1670,151.77,1670.39,151.67,1670.79,151.57Z"/><path class="cls-36" d="M1732.39,155.17s-1.1,9.6-4.2,12.8c-3.6,5-11.4,8.8-20.9,10.3-1.4.5-5.9,2.2-6.9,6.1l-.3,2a8.26,8.26,0,0,1-5.7,6.6,9.19,9.19,0,0,0,2.6-6.8l-.1-2.1c.2-4.2,4.5-7.1,5.8-7.9,9.6-3.7,16.9-9.5,19.6-15.5,1.5-2.4,1.7-7,1.7-10.3Z"/><path class="cls-37" d="M1680,99.67c14.5-4.4,37.2,5.9,37.2,5.9l1.6,5.5c8.5,12.6,9.9,22.7,12.4,33.8,1.7,9.3,2.1,10.5.4,10.6-29.7,8.5-59,.7-64.3-1.5-4.5-36.8,13.5-49.4,13.5-49.4A22,22,0,0,1,1680,99.67Z"/><path class="cls-9" d="M1704.69,135.37c-.6-4.8-5.5-8.1-11-7.5h-.1c-5.5.6-9.6,5-9,9.8l2.2,19.4c.6,4.8,5.5,8.1,11,7.5h.1c5.5-.6,9.6-5,9-9.8Z"/><path class="cls-18" d="M1697.29,164.67c-5.3.4-10-2.9-10.5-7.6l-2.2-19.4c-.5-4.7,3.3-9,8.6-9.8a17,17,0,0,0-.1,4.5l3.2,28.2A17.57,17.57,0,0,0,1697.29,164.67Z"/><path class="cls-31" d="M1708,140.17c-10.5,3-22.5,1.7-25.8,1-1.8-6-.9-22.8-.9-22.8h.1a11.51,11.51,0,0,1,11.3-10.5,11.9,11.9,0,0,1,11.5,7.3h0C1706.09,118.37,1707.89,133,1708,140.17Z"/><path class="cls-38" d="M1686.29,110.07a13.18,13.18,0,0,1,6.5-2.1,11.78,11.78,0,0,1,11.4,7.2h0c2,3.3,3.7,17.9,3.8,25.2a49.86,49.86,0,0,1-13,1.9c.6-.2,1.2-.3,1.8-.5-.1-7.4-1.8-22-3.8-25.2h0A11.89,11.89,0,0,0,1686.29,110.07Z"/><path class="cls-31" d="M1680,99.77c16.1-4.8,37.2,5.9,37.2,5.9l1.6,5.5c-24.4-10.8-38-6.6-38-6.6A45.17,45.17,0,0,1,1680,99.77Z"/><path class="cls-39" d="M1708,107c4.1,1.2,19.2,18.9,19.2,18.9s1-1-.9,2c-2.4-4.5-21.6-21.9-21.6-21.9A16.23,16.23,0,0,0,1708,107Z"/><path class="cls-29" d="M1737.39,127.87c-.5-2.8-2.9-4.7-5.2-4.2l-2.6.5c-2.3.5-3.8,3.1-3.2,5.9l1.8,8.8c.5,2.8,2.9,4.7,5.2,4.2l2.6-.5c2.3-.5,3.8-3.1,3.2-5.9Z"/><path class="cls-39" d="M1731,129a1.42,1.42,0,0,0-1.6-1.1h-.1a1.42,1.42,0,0,0-1.1,1.6l.7,3.5a1.42,1.42,0,0,0,1.6,1.1h.1a1.42,1.42,0,0,0,1.1-1.6Z"/><path class="cls-40" d="M1739.79,129.67c-.4-1.5-1.6-2.5-2.7-2.2h0c-1.1.3-1.7,1.7-1.4,3.2l1.5,6.3c.4,1.5,1.6,2.5,2.7,2.2h0c1.1-.3,1.7-1.7,1.4-3.2Z"/><path class="cls-33" d="M1682.39,4.77a2.76,2.76,0,0,0-3.6-1.5l-1.7.7a2.76,2.76,0,0,0-1.5,3.6l3.6,8.5a2.76,2.76,0,0,0,3.6,1.5l1.7-.7a2.76,2.76,0,0,0,1.5-3.6Z"/></g></g></svg>