<svg xmlns="http://www.w3.org/2000/svg" xmlns:xlink="http://www.w3.org/1999/xlink" viewBox="0 0 1309.85 844.75"><defs><style>.cls-1{fill:none;}.cls-2{fill:#e2a079;}.cls-3{fill:#bf744b;}.cls-4{fill:#418482;}.cls-5{fill:#2a6668;}.cls-6{fill:#1b4b4c;}.cls-7{fill:#fae4a9;}.cls-8{fill:#eda2a1;}.cls-9{fill:#fff3db;}.cls-10{clip-path:url(#clip-path);}.cls-11{fill:#434264;}.cls-12{clip-path:url(#clip-path-10);}.cls-13{clip-path:url(#clip-path-11);}.cls-14{fill:#e97625;}</style><clipPath id="clip-path"><path class="cls-1" d="M202.75,411.3h69.6v.2h421.3a61.38,61.38,0,0,1,60.8,69.9l-12.1,86.1V786.2a12.55,12.55,0,0,1-12.6,12.6H721a12.55,12.55,0,0,1-12.6-12.6V687.5a61.09,61.09,0,0,0-61.1-61.1H422.85V788.1A10.76,10.76,0,0,1,412,798.9h-12.4a10.76,10.76,0,0,1-10.8-10.8V676.2a62.18,62.18,0,0,0-38.9-57.6,108,108,0,0,1-54.6-49.2l-29-48.5a63.9,63.9,0,0,0-54.9-31.1h-8.8V411.3Z"/></clipPath><clipPath id="clip-path-10"><path class="cls-1" d="M155.25,394.4l71.5-21.2a14.88,14.88,0,0,1,18.9,11.2l21.7,97.6a24.63,24.63,0,0,1-3.6,19,24.15,24.15,0,0,1-13,9.7c-1.7-5.1-12.1-6.6-23.3-3.3s-19,10.2-17.7,15.5a24.61,24.61,0,0,1-16.1-1,24.09,24.09,0,0,1-13.5-14.1l-34.9-93.7A15.3,15.3,0,0,1,155.25,394.4Z"/></clipPath><clipPath id="clip-path-11"><path class="cls-1" d="M195.15,522.4a14.57,14.57,0,0,0,16.4-5.3c2.8-3.8,8.7-7.5,16.1-9.7s14.3-2.3,18.7-.6a14.49,14.49,0,0,0,16.4-4.1c.4-.5.8-1.1,1.2-1.6,2.1,12.1-10.3,25.8-28.9,31.3s-36.3.8-41.2-10.4C194.25,522.1,194.65,522.3,195.15,522.4Z"/></clipPath></defs><title>Asset 2</title><g id="Layer_2" data-name="Layer 2"><g id="Layer_1-2" data-name="Layer 1"><path class="cls-2" d="M1016.55,755.4c-9,.5-19,1.7-24.9,8.6s-2,20.8,7,20c-11.6,14.5-32.8,15.9-51.4,16-204.3,1.8-410.2,3.5-610.7-35.5-19.5-3.8-39.4-8.2-56-19s-29.5-29.6-27.7-49.4c2.3-25.7,27.2-43.3,51.4-52.1,31.7-11.4,65.8-14,99.4-16.4,111.9-8.2,224.6-16.4,335.9-2.6,9.3,1.2,19.1,2.7,26.5,8.5s11,17.5,5.2,24.8c-9.8,12.3-37.9,6.7-38,22.4A845.5,845.5,0,0,0,920,683.1c-3.8-8.3,1.6-18.5,9.4-23.3s17.4-5.5,26.5-6.1c103.3-6.9,212.3-16.2,314,8.6,28.6,7,49.7,31,35.2,61.7-16.7,35.2-80.7,29.8-112.9,30.8C1133.65,756.7,1075,752,1016.55,755.4Z"/><path class="cls-2" d="M137.75,664.7c-36.5,1.5-192.8,46.3-117.5,104,17.8,13.6,41.7,15.2,64.1,16.3q92.4,4.35,184.7,8.8c-4.1,7.8-14.8,8.5-23.7,9s-19.8,3.8-20.9,12.6c-1.4,11.1,13.6,15.8,24.8,16.4,142.8,7.1,284.7,10.2,427.9,12.1,64.8.7,129.7,1.7,194.5-.5,59.9-2,116.1,5.2,173.1-20.4,11.2-5,22.2-11,30.5-20,5-5.4,9-12.8,7.2-19.9-2.3-8.7-12.1-12.8-20.8-15.4-86.7-25.8-181.3-27.6-271.1-28q-135.75-.45-271.6-1c-23.2-.1-46.6-.2-69.4-4.2-53.5-9.5-94.1-45.9-144.4-59C250.55,661.5,193.55,662.5,137.75,664.7Z"/><rect class="cls-3" x="708.53" y="397.1" width="179.9" height="20.7" transform="translate(-54.24 683.95) rotate(-45)"/><rect class="cls-3" x="655.72" y="352.67" width="20.7" height="179.9" transform="translate(-117.89 600.62) rotate(-45)"/><rect class="cls-3" x="716.75" y="337.1" width="29" height="304.1"/><rect class="cls-3" x="696.05" y="626.7" width="70.3" height="14.5"/><circle class="cls-4" cx="731.25" cy="148.9" r="148.9"/><path class="cls-5" d="M731.25,297.8V0a148.9,148.9,0,1,0,0,297.8Z"/><circle class="cls-4" cx="609.25" cy="333" r="148.9"/><path class="cls-5" d="M609.25,481.9V184.1a148.9,148.9,0,1,0,0,297.8Z"/><path class="cls-6" d="M711.25,222.5a148.77,148.77,0,0,0,27.6,181.7,148.77,148.77,0,0,0-27.6-181.7Z"/><circle class="cls-4" cx="851.25" cy="268.9" r="148.9"/><path class="cls-5" d="M851.25,417.8V119.9a149,149,0,0,0,0,297.9Z"/><path class="cls-6" d="M838.85,117.9A148.85,148.85,0,0,0,705,201.5a148.72,148.72,0,0,0-118.5-15.6,154.51,154.51,0,0,1,22.7-1.7,147.8,147.8,0,0,1,90.1,30.4c3.5,2.7,6.9,5.5,10.2,8.5a153.29,153.29,0,0,1,5.6-14.7,149,149,0,0,1,136-88.3,144.43,144.43,0,0,1,18.7,1.2A138.28,138.28,0,0,0,838.85,117.9Z"/><path class="cls-5" d="M551.85,640.7a19.34,19.34,0,0,0,.7,9.2,20,20,0,0,0,25.1,12.9,19.53,19.53,0,0,0,7.7-4.7,36.16,36.16,0,0,0,55-32.5,27.8,27.8,0,1,0-12.3-54,28.4,28.4,0,0,0-14.5,10.8,20,20,0,0,0-36.3,9.2,27.77,27.77,0,0,0-41,32.2A28.66,28.66,0,0,0,551.85,640.7Z"/><path class="cls-4" d="M769.35,624.3a25.56,25.56,0,0,0,2.8-11.7,25.91,25.91,0,0,0-25.9-25.9,25.53,25.53,0,0,0-11.4,2.7,47,47,0,0,0-80.9,18.3,33.86,33.86,0,0,0-6.4-.6,36.1,36.1,0,1,0,22.2,64.6,25.83,25.83,0,0,0,48.4,3.1,36,36,0,0,0,63.5-23.4A35.54,35.54,0,0,0,769.35,624.3Z"/><ellipse class="cls-3" cx="464.05" cy="740" rx="41.6" ry="8.2"/><ellipse class="cls-3" cx="705.15" cy="736.9" rx="49.7" ry="11.3"/><path class="cls-7" d="M702,431.9h13.1a58.19,58.19,0,0,1,58.2,58.2V693.6a6.59,6.59,0,0,1-6.6,6.6h0a6.59,6.59,0,0,1-6.6-6.6V493.8a48.8,48.8,0,0,0-48.8-48.8H702V431.9Z"/><path class="cls-7" d="M657.45,798.9h8.7a12.55,12.55,0,0,0,12.6-12.6V563.5h-33.9V786.3A12.55,12.55,0,0,0,657.45,798.9Z"/><path class="cls-7" d="M415.85,536v90.5h-7.4a49.12,49.12,0,0,0-49.1,49.1V788.1a10.76,10.76,0,0,1-10.8,10.8h-12.4a10.76,10.76,0,0,1-10.8-10.8V535.9h90.5Z"/><path class="cls-8" d="M611.35,669.2a63.6,63.6,0,1,1,75.4,0l8.7,15a7.1,7.1,0,1,1-12.3,7.1l-8.7-15a62.48,62.48,0,0,1-18.4,4.9v17.3a7.1,7.1,0,1,1-14.2,0V681.1a62.49,62.49,0,0,1-18.4-4.9l-8.7,15a7.1,7.1,0,1,1-12.3-7.1Z"/><path id="SVGID" class="cls-9" d="M202.75,411.3h69.6v.2h421.3a61.38,61.38,0,0,1,60.8,69.9l-12.1,86.1V786.2a12.55,12.55,0,0,1-12.6,12.6H721a12.55,12.55,0,0,1-12.6-12.6V687.5a61.09,61.09,0,0,0-61.1-61.1H422.85V788.1A10.76,10.76,0,0,1,412,798.9h-12.4a10.76,10.76,0,0,1-10.8-10.8V676.2a62.18,62.18,0,0,0-38.9-57.6,108,108,0,0,1-54.6-49.2l-29-48.5a63.9,63.9,0,0,0-54.9-31.1h-8.8V411.3Z"/><g class="cls-10"><path class="cls-11" d="M470.25,459.6h0a25.76,25.76,0,0,0,25.7-25.7V378.6a25.76,25.76,0,0,0-25.7-25.7h0a25.76,25.76,0,0,0-25.7,25.7v55.3A25.82,25.82,0,0,0,470.25,459.6Z"/></g><g class="cls-10"><path class="cls-11" d="M429.35,479.6h0a30.56,30.56,0,0,0,30.5-30.5V383.4a30.56,30.56,0,0,0-30.5-30.5h0a30.56,30.56,0,0,0-30.5,30.5v65.7A30.62,30.62,0,0,0,429.35,479.6Z"/></g><g class="cls-10"><path class="cls-11" d="M503,574h0a24.39,24.39,0,0,0-24.3,24.3v52.5A24.39,24.39,0,0,0,503,675.1h0a24.39,24.39,0,0,0,24.3-24.3V598.3A24.33,24.33,0,0,0,503,574Z"/></g><g class="cls-10"><path class="cls-11" d="M541.85,555h0a29,29,0,0,0-28.9,28.9v62.3a29,29,0,0,0,28.9,28.9h0a29,29,0,0,0,28.9-28.9V583.9A29,29,0,0,0,541.85,555Z"/></g><g class="cls-10"><path class="cls-11" d="M272.45,560.5h0a25.39,25.39,0,0,0,25.3,25.3h54.5a25.39,25.39,0,0,0,25.3-25.3h0a25.39,25.39,0,0,0-25.3-25.3h-54.5A25.33,25.33,0,0,0,272.45,560.5Z"/></g><g class="cls-10"><path class="cls-11" d="M687.65,611.1h0a26.87,26.87,0,0,0,26.8,26.8h57.8A26.87,26.87,0,0,0,799,611.1h0a26.87,26.87,0,0,0-26.8-26.8h-57.8A26.87,26.87,0,0,0,687.65,611.1Z"/></g><g class="cls-10"><path class="cls-11" d="M722.55,367.6h0a32.57,32.57,0,0,0-24.8,11.4,38.86,38.86,0,0,0-62.6,10.8h-44a33,33,0,0,0-32.8,32.8h0a33,33,0,0,0,32.8,32.8H597a34.36,34.36,0,0,1,34.3,34.3h0c0,21.2,16.6,39.2,37.8,39.9a39.09,39.09,0,0,0,38.8-29.1,32.74,32.74,0,0,0,14.6,3.5h0a33,33,0,0,0,32.8-32.8V400.5A32.91,32.91,0,0,0,722.55,367.6Z"/></g><g class="cls-10"><path class="cls-7" d="M213,375.8l73.5,13a15,15,0,0,1,12,18.4l-24.2,97.1a24.25,24.25,0,0,1-11.7,15.4c-3.5,11.7-20.8,18.4-39.8,15.1s-32.9-15.5-32.2-27.7a24.18,24.18,0,0,1-5.8-18.6l10.7-99.5A15,15,0,0,1,213,375.8Z"/></g><g class="cls-10"><path class="cls-7" d="M282.95,469.9l2.4-9.8a63.84,63.84,0,0,1,62-48.7h0l5.5-45.3L217,362.8l-14.4,91.6Z"/></g><path class="cls-7" d="M265.85,409l34.2-.9h0A37.08,37.08,0,0,0,262,372l-34.2.9h0A37.14,37.14,0,0,0,265.85,409Z"/><path class="cls-11" d="M141.85,445.7l-29.2,17.9h0a37,37,0,0,1,12.2-50.9L154,394.8h0A36.85,36.85,0,0,1,141.85,445.7Z"/><path id="SVGID-2" data-name="SVGID" class="cls-9" d="M155.25,394.4l71.5-21.2a14.88,14.88,0,0,1,18.9,11.2l21.7,97.6a24.63,24.63,0,0,1-3.6,19,24.15,24.15,0,0,1-13,9.7c-1.7-5.1-12.1-6.6-23.3-3.3s-19,10.2-17.7,15.5a24.61,24.61,0,0,1-16.1-1,24.09,24.09,0,0,1-13.5-14.1l-34.9-93.7A15.3,15.3,0,0,1,155.25,394.4Z"/><g class="cls-12"><path class="cls-11" d="M217.85,347.5h0a34.57,34.57,0,0,1,14.6-1l-1.7-5.7a19.53,19.53,0,0,1,11.4-23.8,19.25,19.25,0,0,1,25.4,12.5l9.1,30.6a19.49,19.49,0,0,1-4,18.2,22.16,22.16,0,0,0-4.5,20.8l7.2,24.2a33.53,33.53,0,0,1-22.6,41.6h0a33.53,33.53,0,0,1-41.6-22.6L195.35,389C190,371.5,200.25,352.8,217.85,347.5Z"/></g><ellipse class="cls-9" cx="233.12" cy="443.44" rx="6.4" ry="3.6" transform="translate(-116.23 84.36) rotate(-16.48)"/><ellipse class="cls-11" cx="188.74" cy="456.64" rx="6.4" ry="3.6" transform="translate(-121.8 72.31) rotate(-16.48)"/><path id="SVGID-3" data-name="SVGID" class="cls-8" d="M195.15,522.4a14.57,14.57,0,0,0,16.4-5.3c2.8-3.8,8.7-7.5,16.1-9.7s14.3-2.3,18.7-.6a14.49,14.49,0,0,0,16.4-4.1c.4-.5.8-1.1,1.2-1.6,2.1,12.1-10.3,25.8-28.9,31.3s-36.3.8-41.2-10.4C194.25,522.1,194.65,522.3,195.15,522.4Z"/><g class="cls-13"><circle class="cls-14" cx="243.15" cy="527.4" r="5"/></g><g class="cls-13"><circle class="cls-14" cx="225.45" cy="532.6" r="5"/></g></g></g></svg>