<svg xmlns="http://www.w3.org/2000/svg" xmlns:xlink="http://www.w3.org/1999/xlink" viewBox="0 0 1539.4 1036.2"><defs><style>.cls-1{fill:none;}.cls-2{fill:#c5e9ef;}.cls-3{fill:#3c6868;}.cls-4{fill:#bf744b;}.cls-5{fill:#418482;}.cls-6{fill:#2a6668;}.cls-7{fill:#1b4b4c;}.cls-8{fill:#fae4aa;}.cls-9{fill:#fff4dc;}.cls-10{clip-path:url(#clip-path);}.cls-11{fill:#434264;}.cls-12{fill:#eea3a2;}.cls-13{clip-path:url(#clip-path-6);}.cls-14{fill:#e97625;}.cls-15{clip-path:url(#clip-path-8);}.cls-16{clip-path:url(#clip-path-17);}.cls-17{clip-path:url(#clip-path-18);}</style><clipPath id="clip-path"><path class="cls-1" d="M889.8,748.6h-34v.1H649.6a30.09,30.09,0,0,0-29.8,34.2l5.9,42.2v107a6.23,6.23,0,0,0,6.2,6.2h4.3a6.23,6.23,0,0,0,6.2-6.2V883.7a29.92,29.92,0,0,1,29.9-29.9H782.2v79.1a5.34,5.34,0,0,0,5.3,5.3h6a5.34,5.34,0,0,0,5.3-5.3V878.2a30.44,30.44,0,0,1,19-28.2,52.35,52.35,0,0,0,26.7-24.1l14.2-23.7A31.26,31.26,0,0,1,885.6,787h4.3V748.6Z"/></clipPath><clipPath id="clip-path-6"><path class="cls-1" d="M899.4,790.5a7.13,7.13,0,0,1-8.4,1.3,15.49,15.49,0,0,0-9.1-.7c-3.7.7-6.8,2.1-8.3,3.8a7.26,7.26,0,0,1-8.1,1.8,4.06,4.06,0,0,1-.9-.5c1.7,5.7,10.2,9,19.5,7.4s16.1-7.6,15.8-13.6C899.7,790.2,899.5,790.3,899.4,790.5Z"/></clipPath><clipPath id="clip-path-8"><path class="cls-1" d="M873.8,607.9h51.4v.2h311.4a45.44,45.44,0,0,1,45,51.7l-8.9,63.7V885.1a9.35,9.35,0,0,1-9.3,9.3h-6.5a9.35,9.35,0,0,1-9.3-9.3v-73a45.11,45.11,0,0,0-45.1-45.1H1036.6V886.5a8,8,0,0,1-8,8h-9.1a8,8,0,0,1-8-8V803.8a46,46,0,0,0-28.8-42.6,79.55,79.55,0,0,1-40.3-36.4L921,688.9a47.12,47.12,0,0,0-40.6-23h-6.6Z"/></clipPath><clipPath id="clip-path-17"><path class="cls-1" d="M860.5,566l54.3,9.6a11.06,11.06,0,0,1,8.8,13.6L905.8,661a18.24,18.24,0,0,1-8.6,11.4,17.74,17.74,0,0,1-11.8,2.1c.6-4-5.8-8.4-14.3-9.9s-16,.5-16.8,4.4a18.22,18.22,0,0,1-14.6-19.8l7.9-73.5A11,11,0,0,1,860.5,566Z"/></clipPath><clipPath id="clip-path-18"><path class="cls-1" d="M844.6,663.8a10.61,10.61,0,0,0,12.6,1.9c3.1-1.6,8.2-2.1,13.8-1.1s10.2,3.2,12.6,5.8a10.63,10.63,0,0,0,12.2,2.7,5.39,5.39,0,0,0,1.3-.7c-2.6,8.7-15.3,13.6-29.4,11.1S843.4,672,843.9,663A5,5,0,0,1,844.6,663.8Z"/></clipPath></defs><title>Asset 5</title><g id="Layer_2" data-name="Layer 2"><g id="Layer_1-2" data-name="Layer 1"><g id="รูปเฮด"><path class="cls-2" d="M738.9,563.5a49.17,49.17,0,0,0-7.8.7,51.87,51.87,0,0,0-22.5-18.1,87.92,87.92,0,0,0-171.3-15.8,58.79,58.79,0,1,0,25.6,91.6,87.89,87.89,0,0,0,94.7,14.5,52.22,52.22,0,0,0,57.8,2.8,41.14,41.14,0,0,0,23.7,7.4,41.55,41.55,0,1,0-.2-83.1Z"/><ellipse class="cls-3" cx="899.8" cy="909.9" rx="639.6" ry="126.3"/><rect class="cls-4" x="342.48" y="547.87" width="248.3" height="28.5" transform="translate(-260.81 494.6) rotate(-45)"/><rect class="cls-4" x="269.79" y="486.54" width="28.5" height="248.3" transform="translate(-348.63 379.72) rotate(-45)"/><rect class="cls-4" x="353.9" y="465.1" width="39.9" height="419.5"/><rect class="cls-4" x="325.4" y="864.6" width="97" height="20"/><circle class="cls-5" cx="373.9" cy="205.5" r="205.5"/><path class="cls-6" d="M373.9,410.9V0C260.4,0,168.4,92,168.4,205.5S260.4,410.9,373.9,410.9Z"/><circle class="cls-5" cx="205.5" cy="459.4" r="205.5"/><path class="cls-6" d="M205.5,664.9V254C92,254,0,346,0,459.5S92,664.9,205.5,664.9Z"/><path class="cls-7" d="M346.3,307a205.35,205.35,0,0,0,38.1,250.7A205.35,205.35,0,0,0,346.3,307Z"/><circle class="cls-5" cx="539.4" cy="371" r="205.5"/><path class="cls-6" d="M539.4,576.4V165.5c-113.5,0-205.5,92-205.5,205.5S425.9,576.4,539.4,576.4Z"/><path class="cls-7" d="M522.3,162.7A205.36,205.36,0,0,0,337.7,278a204.79,204.79,0,0,0-106.4-29.7,207.32,207.32,0,0,0-57.1,8.1A205.8,205.8,0,0,1,330,295.9c4.9,3.7,9.5,7.6,14,11.7a175.7,175.7,0,0,1,7.8-20.2A205.47,205.47,0,0,1,539.5,165.5a200.82,200.82,0,0,1,25.8,1.7A204.41,204.41,0,0,0,522.3,162.7Z"/><ellipse class="cls-7" cx="584.5" cy="874.1" rx="98.6" ry="15.1"/><circle class="cls-6" cx="588.7" cy="787.6" r="37.3"/><path class="cls-5" d="M588.9,750.4h0a37.3,37.3,0,0,1,0,74.6h0Z"/><circle class="cls-6" cx="612" cy="828.4" r="51.3"/><path class="cls-5" d="M612,777.1h0a51.3,51.3,0,0,1,0,102.6h0Z"/><circle class="cls-6" cx="551.4" cy="828.4" r="40.8"/><path class="cls-5" d="M551.6,787.4h0a40.8,40.8,0,0,1,0,81.6h0Z"/><ellipse class="cls-7" cx="441.9" cy="903.2" rx="131.8" ry="20.2"/><circle class="cls-5" cx="436.3" cy="787.5" r="49.9"/><path class="cls-6" d="M436,737.7h0a49.9,49.9,0,0,0,0,99.8h0Z"/><circle class="cls-5" cx="405.1" cy="842.1" r="68.6"/><path class="cls-6" d="M405.1,773.4h0a68.6,68.6,0,1,0-.1,137.2h0V773.4Z"/><circle class="cls-5" cx="486.2" cy="842.1" r="54.6"/><path class="cls-6" d="M485.9,787.1h0a54.6,54.6,0,1,0,0,109.2h0Z"/><ellipse class="cls-7" cx="646.3" cy="938" rx="30.5" ry="5.7"/><ellipse class="cls-7" cx="798.4" cy="936.6" rx="39.4" ry="7.3"/><ellipse class="cls-7" cx="1006.3" cy="894.6" rx="45.5" ry="8.5"/><ellipse class="cls-7" cx="1203.4" cy="894.6" rx="57.6" ry="10.7"/><ellipse class="cls-7" cx="1132.4" cy="918.6" rx="33.6" ry="6.3"/><ellipse class="cls-7" cx="1164.4" cy="938.6" rx="21.4" ry="4"/><ellipse class="cls-7" cx="843.4" cy="959.6" rx="21.4" ry="4"/><ellipse class="cls-7" cx="608.4" cy="955.6" rx="18.6" ry="3.5"/><ellipse class="cls-7" cx="665.4" cy="952.6" rx="11.6" ry="2.2"/><ellipse class="cls-7" cx="798.4" cy="977.6" rx="16.4" ry="3.1"/><path class="cls-8" d="M642.3,758.1H636a28,28,0,0,0-28,28v98a3.22,3.22,0,0,0,3.2,3.2h0a3.22,3.22,0,0,0,3.2-3.2V787.9a23.47,23.47,0,0,1,23.5-23.5h4.5v-6.3Z"/><path class="cls-8" d="M667.3,938.3H663a6.23,6.23,0,0,1-6.2-6.2v-109h16.6v109A6.08,6.08,0,0,1,667.3,938.3Z"/><path class="cls-8" d="M785.6,809.6v44.3h3.6A24.11,24.11,0,0,1,813.3,878v55.1a5.34,5.34,0,0,0,5.3,5.3h6a5.34,5.34,0,0,0,5.3-5.3V809.7H785.6Z"/><path id="SVGID" class="cls-9" d="M889.8,748.6h-34v.1H649.6a30.09,30.09,0,0,0-29.8,34.2l5.9,42.2v107a6.23,6.23,0,0,0,6.2,6.2h4.3a6.23,6.23,0,0,0,6.2-6.2V883.7a29.92,29.92,0,0,1,29.9-29.9H782.2v79.1a5.34,5.34,0,0,0,5.3,5.3h6a5.34,5.34,0,0,0,5.3-5.3V878.2a30.44,30.44,0,0,1,19-28.2,52.35,52.35,0,0,0,26.7-24.1l14.2-23.7A31.26,31.26,0,0,1,885.6,787h4.3V748.6Z"/><g class="cls-10"><path class="cls-11" d="M663.1,800.5h0a16.69,16.69,0,0,1-16.6-16.6V748a16.69,16.69,0,0,1,16.6-16.6h0A16.69,16.69,0,0,1,679.7,748v35.9A16.62,16.62,0,0,1,663.1,800.5Z"/></g><g class="cls-10"><path class="cls-11" d="M689.6,813.5h0a19.85,19.85,0,0,1-19.8-19.8V751.2a19.85,19.85,0,0,1,19.8-19.8h0a19.85,19.85,0,0,1,19.8,19.8v42.6A20,20,0,0,1,689.6,813.5Z"/></g><g class="cls-10"><path class="cls-11" d="M811.5,731h0a13.38,13.38,0,0,0-9.9,4.5,15.41,15.41,0,0,0-24.8,4.3H759.3a13,13,0,0,0-13,13h0a13,13,0,0,0,13,13h2.3a13.61,13.61,0,0,1,13.6,13.6h0c0,8.4,6.6,15.6,15,15.8a15.51,15.51,0,0,0,15.4-11.6,12.73,12.73,0,0,0,5.8,1.4h0a13,13,0,0,0,13-13V743.9A12.8,12.8,0,0,0,811.5,731Z"/></g><g class="cls-10"><path class="cls-8" d="M885.8,731.2l-36,6.4a7.38,7.38,0,0,0-5.9,9l11.8,47.5a11.85,11.85,0,0,0,5.7,7.5c1.7,5.7,10.2,9,19.5,7.4s16.1-7.6,15.8-13.6a11.76,11.76,0,0,0,2.8-9.1l-5.2-48.7A7.19,7.19,0,0,0,885.8,731.2Z"/></g><g class="cls-10"><path class="cls-8" d="M851.6,777.2l-1.2-4.8A31.33,31.33,0,0,0,820,748.5h0l-2.7-22.2,66.5-1.6,7,44.9Z"/></g><path class="cls-11" d="M843.6,756.3l-15.2,7.1h0a18.18,18.18,0,0,1,8.7-24.1l15.2-7.1h0A18,18,0,0,1,843.6,756.3Z"/><path class="cls-8" d="M905.9,745.3l16.7,1.4h0a18,18,0,0,0-16.5-19.6l-16.7-1.4h0A18.13,18.13,0,0,0,905.9,745.3Z"/><path id="SVGID-2" data-name="SVGID" class="cls-9" d="M888.8,725.8l-36,6.4a7.38,7.38,0,0,0-5.9,9l11.8,47.5a11.85,11.85,0,0,0,5.7,7.5,11.6,11.6,0,0,0,7.8,1.4c-.4-2.6,3.8-5.5,9.5-6.5s10.6.3,11.1,2.9a12,12,0,0,0,9.6-13.1l-5.2-48.7A7,7,0,0,0,888.8,725.8Z"/><ellipse class="cls-11" cx="865.33" cy="764.2" rx="3.1" ry="1.7" transform="translate(-120.14 162.83) rotate(-10.06)"/><ellipse class="cls-11" cx="887.64" cy="760.31" rx="3.1" ry="1.7" transform="translate(-119.12 166.67) rotate(-10.06)"/><path id="SVGID-3" data-name="SVGID" class="cls-12" d="M899.4,790.5a7.13,7.13,0,0,1-8.4,1.3,15.49,15.49,0,0,0-9.1-.7c-3.7.7-6.8,2.1-8.3,3.8a7.26,7.26,0,0,1-8.1,1.8,4.06,4.06,0,0,1-.9-.5c1.7,5.7,10.2,9,19.5,7.4s16.1-7.6,15.8-13.6C899.7,790.2,899.5,790.3,899.4,790.5Z"/><g class="cls-13"><circle class="cls-14" cx="879.4" cy="803.2" r="2.4"/></g><g class="cls-13"><circle class="cls-14" cx="888.3" cy="801.6" r="2.4"/></g><path class="cls-8" d="M1242.9,623h9.7a43,43,0,0,1,43,43V816.5a4.91,4.91,0,0,1-4.9,4.9h0a4.91,4.91,0,0,1-4.9-4.9V668.8a36.15,36.15,0,0,0-36.1-36.1h-6.9V623Z"/><path class="cls-8" d="M1209.9,894.4h6.5a9.35,9.35,0,0,0,9.3-9.3V720.4h-25.1V885.1A9.35,9.35,0,0,0,1209.9,894.4Z"/><path class="cls-8" d="M1031.3,700v66.9h-5.5a36.3,36.3,0,0,0-36.3,36.3v83.2a8,8,0,0,1-8,8h-9.1a8,8,0,0,1-8-8V700h66.9Z"/><path class="cls-12" d="M1175.8,798.5a47,47,0,1,1,55.8,0l6.4,11.1a5.2,5.2,0,1,1-9,5.2l-6.4-11.1a44.06,44.06,0,0,1-13.6,3.6v12.8a5.23,5.23,0,0,1-5.2,5.2,5.29,5.29,0,0,1-5.2-5.2V807.3a47,47,0,0,1-13.6-3.6l-6.4,11.1a5.2,5.2,0,1,1-9-5.2Z"/><path id="SVGID-4" data-name="SVGID" class="cls-9" d="M873.8,607.9h51.4v.2h311.4a45.44,45.44,0,0,1,45,51.7l-8.9,63.7V885.1a9.35,9.35,0,0,1-9.3,9.3h-6.5a9.35,9.35,0,0,1-9.3-9.3v-73a45.11,45.11,0,0,0-45.1-45.1H1036.6V886.5a8,8,0,0,1-8,8h-9.1a8,8,0,0,1-8-8V803.8a46,46,0,0,0-28.8-42.6,79.55,79.55,0,0,1-40.3-36.4L921,688.9a47.12,47.12,0,0,0-40.6-23h-6.6Z"/><g class="cls-15"><path class="cls-11" d="M1215.7,708.9h0a32,32,0,0,0,31.9-31.9V608.2a32,32,0,0,0-31.9-31.9h0a32,32,0,0,0-31.9,31.9v68.9A31.84,31.84,0,0,0,1215.7,708.9Z"/></g><g class="cls-15"><path class="cls-11" d="M1164.8,733.9h0a38,38,0,0,0,37.9-37.9V614.2a38,38,0,0,0-37.9-37.9h0a38,38,0,0,0-37.9,37.9V696A38,38,0,0,0,1164.8,733.9Z"/></g><g class="cls-15"><path class="cls-11" d="M1055,715.6h0a18.05,18.05,0,0,0-18,18v38.8a18.05,18.05,0,0,0,18,18h0a18.05,18.05,0,0,0,18-18V733.6A18.05,18.05,0,0,0,1055,715.6Z"/></g><g class="cls-15"><path class="cls-11" d="M1083.7,701.6h0a21.42,21.42,0,0,0-21.4,21.4v46.1a21.42,21.42,0,0,0,21.4,21.4h0a21.42,21.42,0,0,0,21.4-21.4V723A21.55,21.55,0,0,0,1083.7,701.6Z"/></g><g class="cls-15"><path class="cls-11" d="M901.4,720.4h0a19.85,19.85,0,0,0,19.8,19.8H964a19.85,19.85,0,0,0,19.8-19.8h0A19.85,19.85,0,0,0,964,700.6H921.2A19.85,19.85,0,0,0,901.4,720.4Z"/></g><g class="cls-15"><path class="cls-11" d="M1273.3,803h0a19.85,19.85,0,0,0,19.8-19.8V740.4a19.85,19.85,0,0,0-19.8-19.8h0a19.85,19.85,0,0,0-19.8,19.8v42.8A19.85,19.85,0,0,0,1273.3,803Z"/></g><g class="cls-15"><path class="cls-11" d="M995.1,581.4h0a18.53,18.53,0,0,1,13.8,6.3,21.53,21.53,0,0,1,15.3-6.3,21.76,21.76,0,0,1,19.5,12.3h24.4a18.27,18.27,0,0,1,18.2,18.2h0a18.27,18.27,0,0,1-18.2,18.2h-3.3a19,19,0,0,0-19,19h0c0,11.8-9.2,21.8-21,22.1a21.56,21.56,0,0,1-21.5-16.2,18.23,18.23,0,0,1-8.1,1.9h0A18.27,18.27,0,0,1,977,638.7V599.5A18.1,18.1,0,0,1,995.1,581.4Z"/></g><g class="cls-15"><path class="cls-8" d="M870.1,581.6l54.3,9.6a11.06,11.06,0,0,1,8.8,13.6l-17.9,71.8a18.24,18.24,0,0,1-8.6,11.4c-2.6,8.7-15.3,13.6-29.4,11.1s-24.3-11.5-23.8-20.5a17.85,17.85,0,0,1-4.3-13.8l7.9-73.5A11.12,11.12,0,0,1,870.1,581.6Z"/></g><g class="cls-15"><path class="cls-8" d="M921.7,651.1l1.8-7.2a47.28,47.28,0,0,1,45.9-36h0l4-33.5L873,572l-10.6,67.7Z"/></g><path class="cls-11" d="M928.9,612.2l22.9,10.7h0a27.38,27.38,0,0,0-13.2-36.4l-22.9-10.7h0A27.38,27.38,0,0,0,928.9,612.2Z"/><path class="cls-11" d="M834.8,595.5l-25.2,2.2h0a27.36,27.36,0,0,1,24.9-29.6l25.2-2.2h0A27.41,27.41,0,0,1,834.8,595.5Z"/><path id="SVGID-5" data-name="SVGID" class="cls-9" d="M860.5,566l54.3,9.6a11.06,11.06,0,0,1,8.8,13.6L905.8,661a18.24,18.24,0,0,1-8.6,11.4,17.74,17.74,0,0,1-11.8,2.1c.6-4-5.8-8.4-14.3-9.9s-16,.5-16.8,4.4a18.22,18.22,0,0,1-14.6-19.8l7.9-73.5A11,11,0,0,1,860.5,566Z"/><g class="cls-16"><path class="cls-11" d="M868.3,547.6h0a24.8,24.8,0,0,1,10,4.2l.8-4.3a14.52,14.52,0,0,1,15.4-12,14.32,14.32,0,0,1,12.7,16.6l-4.1,23.2a14.28,14.28,0,0,1-8.7,10.7,16.39,16.39,0,0,0-9.9,12.3l-3.3,18.4a24.8,24.8,0,0,1-28.7,20h0a24.8,24.8,0,0,1-20-28.7l7.2-40.4A24.65,24.65,0,0,1,868.3,547.6Z"/></g><ellipse class="cls-11" cx="895.8" cy="624.1" rx="2.6" ry="4.7" transform="translate(124.88 1397.17) rotate(-79.94)"/><ellipse class="cls-9" cx="862.09" cy="618.12" rx="2.6" ry="4.7" transform="translate(102.93 1359.04) rotate(-79.94)"/><path id="SVGID-6" data-name="SVGID" class="cls-12" d="M844.6,663.8a10.61,10.61,0,0,0,12.6,1.9c3.1-1.6,8.2-2.1,13.8-1.1s10.2,3.2,12.6,5.8a10.63,10.63,0,0,0,12.2,2.7,5.39,5.39,0,0,0,1.3-.7c-2.6,8.7-15.3,13.6-29.4,11.1S843.4,672,843.9,663A5,5,0,0,1,844.6,663.8Z"/><g class="cls-17"><circle class="cls-14" cx="874.8" cy="682.9" r="3.7"/></g><g class="cls-17"><circle class="cls-14" cx="861.3" cy="680.5" r="3.7"/></g></g></g></g></svg>