<svg xmlns="http://www.w3.org/2000/svg" xmlns:xlink="http://www.w3.org/1999/xlink" viewBox="0 0 1146 724.07"><defs><style>.cls-1{fill:none;}.cls-2{fill:#3c6868;}.cls-3{clip-path:url(#clip-path);}.cls-4{fill:#9baa93;}.cls-5{fill:#bf744b;}.cls-6{fill:#418482;}.cls-7{fill:#2a6668;}.cls-8{fill:#1b4b4c;}.cls-9{fill:#7a8971;}.cls-10{fill:#e97625;}.cls-11{fill:#fc9c5b;}.cls-12{fill:#fae4aa;}.cls-13{fill:#c5e9ef;}.cls-14{fill:#434264;}.cls-15{fill:#fccf05;}.cls-16,.cls-25{fill:#ffc49c;}.cls-17{fill:#131321;opacity:0.6;}.cls-17,.cls-21,.cls-22,.cls-25,.cls-26{isolation:isolate;}.cls-18{fill:#95bec8;}.cls-19{clip-path:url(#clip-path-2);}.cls-20{fill:#b3e9f2;}.cls-21{fill:#fff;}.cls-21,.cls-25,.cls-26{opacity:0.5;}.cls-22{fill:#513826;opacity:0.4;}.cls-23{fill:#c45d18;}.cls-24{fill:#d3ba84;}.cls-26{fill:#25253a;}</style><clipPath id="clip-path"><path class="cls-1" d="M203.49,702.3c18.1-1.5,36.2-5.5,54.3-4.7,17.4.8,33.9,5.9,50.5,10,68.2,16.9,140.7,16.7,212.1,16.4,37.7-.2,75.4-.3,113.1-.5,49.8-.2,101.8-.9,146.4-20.7,28-12.5,51.5-31.8,80-43.4,83.1-33.8,195.7,3,263.4-50.8,7.5-5.9,14.3-13.7,13.9-22.2-.5-11.2-12.8-18.8-24.2-24.2-53.2-25.4-113.1-40.6-174.3-44.4-10.6-.7-21.5-1-31.4-4.2-19.9-6.4-32.8-23-51.6-31.5-39.2-17.8-86.7,4.3-131.2,9.9-46.1,5.8-92.1-6.8-138.5-6.5-32.2.2-64,6.6-96.2,8.5-39.4,2.4-78.8-1.8-118.1-4.1a1163.85,1163.85,0,0,0-255.6,13.6c-43.8,7.2-93,21-110.9,56.1-6.8,13.3-7.6,29.5,1.7,41.4,4.3,5.4,10.3,9.6,15.2,14.7,22.3,23,26.4,52.9,59.9,67.7C114.39,697.5,167.79,705.2,203.49,702.3Z"/></clipPath><clipPath id="clip-path-2"><path class="cls-1" d="M639.09,615.8h43.6a9,9,0,0,0,9-9V587.6a9,9,0,0,0-9-9h-43.6a9,9,0,0,0-9,9v19.2A9.09,9.09,0,0,0,639.09,615.8Z"/></clipPath></defs><title>Asset 18</title><g id="Layer_2" data-name="Layer 2"><g id="Layer_1-2" data-name="Layer 1"><g id="รูปสอง"><path id="SVGID" class="cls-2" d="M203.49,702.3c18.1-1.5,36.2-5.5,54.3-4.7,17.4.8,33.9,5.9,50.5,10,68.2,16.9,140.7,16.7,212.1,16.4,37.7-.2,75.4-.3,113.1-.5,49.8-.2,101.8-.9,146.4-20.7,28-12.5,51.5-31.8,80-43.4,83.1-33.8,195.7,3,263.4-50.8,7.5-5.9,14.3-13.7,13.9-22.2-.5-11.2-12.8-18.8-24.2-24.2-53.2-25.4-113.1-40.6-174.3-44.4-10.6-.7-21.5-1-31.4-4.2-19.9-6.4-32.8-23-51.6-31.5-39.2-17.8-86.7,4.3-131.2,9.9-46.1,5.8-92.1-6.8-138.5-6.5-32.2.2-64,6.6-96.2,8.5-39.4,2.4-78.8-1.8-118.1-4.1a1163.85,1163.85,0,0,0-255.6,13.6c-43.8,7.2-93,21-110.9,56.1-6.8,13.3-7.6,29.5,1.7,41.4,4.3,5.4,10.3,9.6,15.2,14.7,22.3,23,26.4,52.9,59.9,67.7C114.39,697.5,167.79,705.2,203.49,702.3Z"/><g class="cls-3"><path class="cls-4" d="M1047.19,518.3c20.3-.1,41-.1,60,7s36,23,38.5,43.1c2.5,20.3-10.5,40.1-27.6,51.4s-37.7,15.6-57.9,19.2c-64.9,11.6-130.6,17.6-196.3,23.7-199,18.4-398,36.8-597.5,47.1-51.8,2.7-105,4.6-154.4-11-31.2-9.9-60.8-27.8-81.8-53.2-16-19.3-39.5-60.8-24.8-86.3,12.5-21.8,59.4-14.8,79.8-15.7q66.6-3,133.1-5.8,266.1-10.8,532.5-15.7Q899,519.1,1047.19,518.3Z"/></g><rect class="cls-5" x="513.29" y="349" width="19.5" height="150.7"/><circle class="cls-6" cx="523.09" cy="174.6" r="100.5"/><path class="cls-7" d="M523.09,275.1V74.2a100.45,100.45,0,1,0,0,200.9Z"/><circle class="cls-6" cx="440.79" cy="298.8" r="100.5"/><path class="cls-7" d="M440.79,198.3V399.2a100.45,100.45,0,1,1,0-200.9Z"/><path class="cls-8" d="M522.79,240.8a100.48,100.48,0,0,1-13.4,131.3,100.48,100.48,0,0,1,13.4-131.3Z"/><circle class="cls-6" cx="603.99" cy="298.8" r="100.5"/><path class="cls-7" d="M604,198.3V399.2a100.45,100.45,0,1,1,0-200.9Z"/><path class="cls-8" d="M594.29,195.5a100.2,100.2,0,0,0-71.9,30.3A100.47,100.47,0,0,0,418,200.9a100.45,100.45,0,0,1,98.3,31.7c2.1,2.4,4.2,5,6.1,7.6a88.21,88.21,0,0,1,6.1-7.6,100.45,100.45,0,0,1,98.3-31.7A102.54,102.54,0,0,0,594.29,195.5Z"/><rect class="cls-5" x="499.39" y="489.9" width="47.4" height="9.8"/><rect class="cls-5" x="204.76" y="307.24" width="139.3" height="16" transform="translate(-142.54 286.37) rotate(-45)"/><rect class="cls-5" x="163.96" y="272.85" width="16" height="139.3" transform="translate(-191.82 221.91) rotate(-45)"/><rect class="cls-5" x="211.19" y="260.9" width="22.4" height="235.3"/><rect class="cls-5" x="195.19" y="485" width="54.4" height="11.2"/><circle class="cls-6" cx="222.39" cy="115.2" r="115.2"/><path class="cls-7" d="M222.39,230.5V0a115.25,115.25,0,0,0,0,230.5Z"/><circle class="cls-6" cx="127.89" cy="257.7" r="115.2"/><path class="cls-7" d="M127.89,372.9V142.4a115.25,115.25,0,0,0,0,230.5Z"/><path class="cls-8" d="M206.89,172.2a115.19,115.19,0,0,0,21.4,140.6,115.19,115.19,0,0,0-21.4-140.6Z"/><circle class="cls-6" cx="315.19" cy="208.1" r="115.2"/><path class="cls-7" d="M315.19,323.3V92.8a115.25,115.25,0,0,0,0,230.5Z"/><path class="cls-8" d="M305.59,91.2A115.38,115.38,0,0,0,202,155.9a114.2,114.2,0,0,0-59.7-16.6,116.69,116.69,0,0,0-32,4.5,113,113,0,0,1,17.6-1.3,115.28,115.28,0,0,1,69.8,23.5c2.7,2.1,5.4,4.3,7.9,6.6a111.89,111.89,0,0,1,4.4-11.4,115.16,115.16,0,0,1,105.3-68.3,116.4,116.4,0,0,1,14.5.9A115,115,0,0,0,305.59,91.2Z"/><ellipse class="cls-8" cx="261.59" cy="517" rx="59.7" ry="9.1"/><circle class="cls-7" cx="264.09" cy="464.5" r="22.6"/><path class="cls-6" d="M264.29,442h0a22.6,22.6,0,1,1,0,45.2h0V442Z"/><circle class="cls-7" cx="278.29" cy="489.3" r="31.1"/><path class="cls-6" d="M278.29,458.2h0a31.1,31.1,0,1,1,0,62.2h0V458.2Z"/><circle class="cls-7" cx="241.49" cy="489.3" r="24.7"/><path class="cls-6" d="M241.69,464.4h0a24.7,24.7,0,1,1,.1,49.4h0V464.4Z"/><ellipse class="cls-8" cx="153.19" cy="522.5" rx="79.9" ry="12.2"/><circle class="cls-6" cx="149.79" cy="452.4" r="30.3"/><path class="cls-7" d="M149.59,422.3h0a30.3,30.3,0,0,0,0,60.6h0Z"/><circle class="cls-6" cx="130.89" cy="485.5" r="41.6"/><path class="cls-7" d="M130.89,443.9h0a41.6,41.6,0,1,0,0,83.2h0Z"/><circle class="cls-6" cx="179.99" cy="485.5" r="33.1"/><path class="cls-7" d="M179.79,452.2h0a33.1,33.1,0,1,0,0,66.2h0Z"/><ellipse class="cls-9" cx="591.09" cy="619.6" rx="297.5" ry="49.5"/><ellipse class="cls-9" cx="269.09" cy="576.6" rx="52.5" ry="8.7"/><ellipse class="cls-9" cx="195.09" cy="600.6" rx="26.5" ry="4.4"/><path class="cls-10" d="M381.79,592.1h369.8V347.7A28.59,28.59,0,0,0,723,319.1H410.39a28.59,28.59,0,0,0-28.6,28.6V592.1Z"/><path class="cls-11" d="M413,319.1h307.5c17.2,0,31.2,11.8,31.2,26.3v21.2c0-14.5-14-26.3-31.2-26.3H413c-17.2,0-31.2,11.8-31.2,26.3V345.3C381.79,330.8,395.79,319.1,413,319.1Z"/><rect class="cls-12" x="388.91" y="558.2" width="494.8" height="36.5"/><polygon class="cls-13" points="717.69 497.2 883.69 497.2 845.19 333.8 717.69 333.8 717.69 497.2"/><polygon class="cls-11" points="845.49 334.1 883.99 497.6 866.69 497.6 828.19 334.1 845.49 334.1"/><path class="cls-10" d="M717.69,597.2h161.8a14.77,14.77,0,0,0,14.8-14.8V469.7a14.77,14.77,0,0,0-14.8-14.8H717.69Z"/><path class="cls-5" d="M894.29,538.9v43.6a14.77,14.77,0,0,1-14.8,14.8H717.69V553.7h161.8A15,15,0,0,0,894.29,538.9Z"/><rect class="cls-10" x="717.59" y="334.47" width="19.9" height="162.8"/><circle class="cls-14" cx="801.59" cy="592.1" r="57.7"/><circle class="cls-4" cx="801.99" cy="592.4" r="32.7"/><circle class="cls-2" cx="801.99" cy="592.4" r="27.6"/><rect class="cls-5" x="374.12" y="454.33" width="15.1" height="142.9"/><circle class="cls-14" cx="565.79" cy="592.1" r="57.7"/><circle class="cls-4" cx="566.09" cy="592.4" r="32.7"/><circle class="cls-2" cx="566.09" cy="592.4" r="27.6"/><circle class="cls-14" cx="445.89" cy="592.1" r="57.7"/><circle class="cls-4" cx="446.19" cy="592.4" r="32.7"/><circle class="cls-2" cx="446.19" cy="592.4" r="27.6"/><path class="cls-11" d="M717,319.1H843a10.61,10.61,0,0,1,10.6,10.6h0A10.61,10.61,0,0,1,843,340.3H717Z"/><path class="cls-11" d="M879.49,454.3a14.77,14.77,0,0,1,14.8,14.8v16.7a14.77,14.77,0,0,0-14.8-14.8h-490V454.3Z"/><path class="cls-13" d="M608.29,444h51a17.31,17.31,0,0,0,17.3-17.3V368.4a17.31,17.31,0,0,0-17.3-17.3h-51A17.31,17.31,0,0,0,591,368.4v58.3A17.18,17.18,0,0,0,608.29,444Z"/><path class="cls-13" d="M511.69,444h51A17.31,17.31,0,0,0,580,426.7V368.4a17.31,17.31,0,0,0-17.3-17.3h-51a17.31,17.31,0,0,0-17.3,17.3v58.3A17.24,17.24,0,0,0,511.69,444Z"/><path class="cls-13" d="M415.19,444h51a17.31,17.31,0,0,0,17.3-17.3V368.4a17.31,17.31,0,0,0-17.3-17.3h-51a17.31,17.31,0,0,0-17.3,17.3v58.3A17.18,17.18,0,0,0,415.19,444Z"/><path class="cls-14" d="M363.39,478h-5.5a10.71,10.71,0,0,0-10.7,10.7v83.1a10.71,10.71,0,0,0,10.7,10.7h5.5a10.71,10.71,0,0,0,10.7-10.7V488.7A10.71,10.71,0,0,0,363.39,478Z"/><path class="cls-15" d="M900,536.4h0a6.27,6.27,0,0,1,6.3,6.3v27.7a6.27,6.27,0,0,1-6.3,6.3h0a6.27,6.27,0,0,1-6.3-6.3V542.7A6.4,6.4,0,0,1,900,536.4Z"/><path class="cls-11" d="M725.59,426.2h0a8.71,8.71,0,0,1,8.7,8.7V473a8.71,8.71,0,0,1-8.7,8.7h0a8.71,8.71,0,0,1-8.7-8.7V434.9A8.71,8.71,0,0,1,725.59,426.2Z"/><path class="cls-16" d="M725.89,426.2a8.39,8.39,0,0,0-5.2,1.8,8.56,8.56,0,0,1,5.2,7.9V474a8.71,8.71,0,0,1-3.5,6.9,8.12,8.12,0,0,0,3.5.7,8.71,8.71,0,0,0,8.7-8.7V434.8A8.82,8.82,0,0,0,725.89,426.2Z"/><path class="cls-17" d="M363.69,478h-5.5a9.43,9.43,0,0,0-3,.5,10.72,10.72,0,0,1,9.6,10.6v83.1a10.83,10.83,0,0,1-7.7,10.3c.4,0,.8.1,1.1.1h5.5a10.71,10.71,0,0,0,10.7-10.7V488.8A10.67,10.67,0,0,0,363.69,478Z"/><path id="SVGID-2" data-name="SVGID" class="cls-18" d="M639.09,615.8h43.6a9,9,0,0,0,9-9V587.6a9,9,0,0,0-9-9h-43.6a9,9,0,0,0-9,9v19.2A9.09,9.09,0,0,0,639.09,615.8Z"/><g class="cls-19"><path class="cls-20" d="M651.39,603.9h42.5a9.5,9.5,0,0,0,9.5-9.5V576.2a9.5,9.5,0,0,0-9.5-9.5h-42.5a9.5,9.5,0,0,0-9.5,9.5v18.2A9.5,9.5,0,0,0,651.39,603.9Z"/></g><polygon class="cls-21" points="445.59 444.3 428.69 444.3 397.79 390.9 398.29 368.7 445.59 444.3"/><path class="cls-21" d="M411.89,351.4c.5-.1,59.4,91.9,59.4,91.9s10.2-1.7,12.2-15c-12.3-19.2-49.2-77.1-49.2-77.1Z"/><polygon class="cls-21" points="542.09 443.8 525.09 443.8 494.19 390.4 494.69 368.2 542.09 443.8"/><path class="cls-21" d="M508.59,351.8c.5-.1,59.4,91.9,59.4,91.9s10.2-1.7,12.2-15c-12.3-19.2-49.2-77.1-49.2-77.1Z"/><polygon class="cls-21" points="638.59 443.7 621.69 443.7 590.79 390.3 591.29 368.1 638.59 443.7"/><path class="cls-21" d="M605.19,351.7c.5-.1,59.4,91.9,59.4,91.9s10.2-1.7,12.2-15c-12.3-19.2-49.2-77.1-49.2-77.1Z"/><polygon class="cls-21" points="785.29 454.3 766.49 454.2 737.49 382.3 737.49 340.2 785.29 454.3"/><polygon class="cls-21" points="838.59 453.9 818.69 454.2 770.49 340.2 791.09 340.2 838.59 453.9"/><circle class="cls-21" cx="769.69" cy="557.7" r="6"/><polygon class="cls-22" points="389.49 471 716.89 471 716.89 476.5 389.19 476.5 389.49 471"/><path class="cls-22" d="M734.49,471v5.5h156.4s-4.1-5.4-9.9-5.4S734.49,471,734.49,471Z"/><path class="cls-23" d="M727.59,481.5s-9,1.8-10.7-7.7h-3.1v2.7S714.79,485.3,727.59,481.5Z"/><circle class="cls-21" cx="542.09" cy="556.6" r="9"/><circle class="cls-21" cx="415.99" cy="556.6" r="4.2"/><circle class="cls-21" cx="405.99" cy="604.3" r="4.2"/><path class="cls-24" d="M612.39,558.1h105.3v8.6H617.59A56,56,0,0,0,612.39,558.1Z"/><rect class="cls-25" x="394.39" y="455.6" width="306.6" height="6.3"/><rect class="cls-25" x="783.49" y="455.8" width="95.7" height="5.9"/><path class="cls-22" d="M737.49,340.2H413a33.17,33.17,0,0,0-27.8,14.4h447.9l-3.4-14.4Z"/><polygon class="cls-10" points="829.69 340.2 846.59 340.2 849.59 351.4 831.29 351.4 829.69 340.2"/><path class="cls-25" d="M844.29,329.6H408a5.34,5.34,0,0,1-5.3-5.3h0A5.34,5.34,0,0,1,408,319h436.3a5.34,5.34,0,0,1,5.3,5.3h0A5.34,5.34,0,0,1,844.29,329.6Z"/><path class="cls-26" d="M758.59,553.6s-17.3,17.7-14.5,43.6h-13.8s.3-34.4,16.3-43.6Z"/><path class="cls-26" d="M844.59,553.6c1,1.1,34.8,0,34.8,0s13.8-2.9,14.3-10.9v19.7h-42.6Z"/><path class="cls-26" d="M717.69,562.4v-8.8h41s-5.4,5.2-7.3,10.1h-33.7Z"/></g></g></g></svg>