<svg xmlns="http://www.w3.org/2000/svg" xmlns:xlink="http://www.w3.org/1999/xlink" viewBox="0 0 1214.91 868.07"><defs><style>.cls-1{fill:none;}.cls-2{fill:#c5e9ef;}.cls-3{fill:#3c6868;}.cls-4{clip-path:url(#clip-path);}.cls-5{fill:#9baa93;}.cls-6{fill:#bf744b;}.cls-7{fill:#418482;}.cls-8{fill:#2a6668;}.cls-9{fill:#1b4b4c;}.cls-10{fill:#7a8971;}.cls-11{fill:#e97625;}.cls-12{fill:#fc9c5b;}.cls-13{fill:#fae4aa;}.cls-14{fill:#434264;}.cls-15{fill:#fccf05;}.cls-16,.cls-25{fill:#ffc49c;}.cls-17{fill:#131321;opacity:0.6;}.cls-17,.cls-21,.cls-22,.cls-25,.cls-26{isolation:isolate;}.cls-18{fill:#95bec8;}.cls-19{clip-path:url(#clip-path-2);}.cls-20{fill:#b3e9f2;}.cls-21{fill:#fff;}.cls-21,.cls-25,.cls-26{opacity:0.5;}.cls-22{fill:#513826;opacity:0.4;}.cls-23{fill:#c45d18;}.cls-24{fill:#d3ba84;}.cls-26{fill:#25253a;}</style><clipPath id="clip-path"><path class="cls-1" d="M272.4,846.3c18.1-1.5,36.2-5.5,54.3-4.7,17.4.8,33.9,5.9,50.5,10,68.2,16.9,140.7,16.7,212.1,16.4,37.7-.2,75.4-.3,113.1-.5,49.8-.2,101.8-.9,146.4-20.7,28-12.5,51.5-31.8,80-43.4,83.1-33.8,195.7,3,263.4-50.8,7.5-5.9,14.3-13.7,13.9-22.2-.5-11.2-12.8-18.8-24.2-24.2-53.2-25.4-113.1-40.6-174.3-44.4-10.6-.7-21.5-1-31.4-4.2-19.9-6.4-32.8-23-51.6-31.5-39.2-17.8-86.7,4.3-131.2,9.9-46.1,5.8-92.1-6.8-138.5-6.5-32.2.2-64,6.6-96.2,8.5-39.4,2.4-78.8-1.8-118.1-4.1A1163.85,1163.85,0,0,0,185,647.5c-43.8,7.2-93,21-110.9,56.1-6.8,13.3-7.6,29.5,1.7,41.4,4.3,5.4,10.3,9.6,15.2,14.7,22.3,23,26.4,52.9,59.9,67.7C183.3,841.5,236.7,849.2,272.4,846.3Z"/></clipPath><clipPath id="clip-path-2"><path class="cls-1" d="M708,759.8h43.6a9,9,0,0,0,9-9V731.6a9,9,0,0,0-9-9H708a9,9,0,0,0-9,9v19.2A9.09,9.09,0,0,0,708,759.8Z"/></clipPath></defs><title>Asset 6</title><g id="Layer_2" data-name="Layer 2"><g id="Layer_1-2" data-name="Layer 1"><g id="รูปสอง"><path class="cls-2" d="M654.2,251.3a27.72,27.72,0,1,1,44.9-32.1,34.77,34.77,0,0,1,67.4,4.2,55.18,55.18,0,0,1,7.1-.5,50.5,50.5,0,1,1-43.1,76.9,37.34,37.34,0,0,1-44.4-1.7,32.45,32.45,0,1,1-31.9-46.8Z"/><path class="cls-2" d="M0,133.2A55.5,55.5,0,0,1,55.5,77.7a58.4,58.4,0,0,1,16.3,2.4A86.25,86.25,0,0,1,239.4,58.2a82.18,82.18,0,0,1,48.2,20.4,59.8,59.8,0,1,1,19.9,116.2,61.2,61.2,0,0,1-11.4-1.1A82.67,82.67,0,0,1,187,209.2a45,45,0,0,1-68.3-1.2,45.64,45.64,0,0,1-80-22A55.32,55.32,0,0,1,0,133.2Z"/><path id="SVGID" class="cls-3" d="M272.4,846.3c18.1-1.5,36.2-5.5,54.3-4.7,17.4.8,33.9,5.9,50.5,10,68.2,16.9,140.7,16.7,212.1,16.4,37.7-.2,75.4-.3,113.1-.5,49.8-.2,101.8-.9,146.4-20.7,28-12.5,51.5-31.8,80-43.4,83.1-33.8,195.7,3,263.4-50.8,7.5-5.9,14.3-13.7,13.9-22.2-.5-11.2-12.8-18.8-24.2-24.2-53.2-25.4-113.1-40.6-174.3-44.4-10.6-.7-21.5-1-31.4-4.2-19.9-6.4-32.8-23-51.6-31.5-39.2-17.8-86.7,4.3-131.2,9.9-46.1,5.8-92.1-6.8-138.5-6.5-32.2.2-64,6.6-96.2,8.5-39.4,2.4-78.8-1.8-118.1-4.1A1163.85,1163.85,0,0,0,185,647.5c-43.8,7.2-93,21-110.9,56.1-6.8,13.3-7.6,29.5,1.7,41.4,4.3,5.4,10.3,9.6,15.2,14.7,22.3,23,26.4,52.9,59.9,67.7C183.3,841.5,236.7,849.2,272.4,846.3Z"/><g class="cls-4"><path class="cls-5" d="M1116.1,662.3c20.3-.1,41-.1,60,7s36,23,38.5,43.1c2.5,20.3-10.5,40.1-27.6,51.4s-37.7,15.6-57.9,19.2c-64.9,11.6-130.6,17.6-196.3,23.7-199,18.4-398,36.8-597.5,47.1-51.8,2.7-105,4.6-154.4-11-31.2-9.9-60.8-27.8-81.8-53.2-16-19.3-39.5-60.8-24.8-86.3,12.5-21.8,59.4-14.8,79.8-15.7q66.6-3,133.1-5.8Q553.3,671,819.7,666.1,967.9,663.1,1116.1,662.3Z"/></g><rect class="cls-6" x="582.2" y="493" width="19.5" height="150.7"/><circle class="cls-7" cx="592" cy="318.6" r="100.5"/><path class="cls-8" d="M592,419.1V218.2a100.45,100.45,0,1,0,0,200.9Z"/><circle class="cls-7" cx="509.7" cy="442.8" r="100.5"/><path class="cls-8" d="M509.7,342.3V543.2a100.45,100.45,0,1,1,0-200.9Z"/><path class="cls-9" d="M591.7,384.8a100.48,100.48,0,0,1-13.4,131.3,100.48,100.48,0,0,1,13.4-131.3Z"/><circle class="cls-7" cx="672.9" cy="442.8" r="100.5"/><path class="cls-8" d="M672.9,342.3V543.2a100.45,100.45,0,1,1,0-200.9Z"/><path class="cls-9" d="M663.2,339.5a100.2,100.2,0,0,0-71.9,30.3,100.47,100.47,0,0,0-104.4-24.9,100.45,100.45,0,0,1,98.3,31.7c2.1,2.4,4.2,5,6.1,7.6a88.21,88.21,0,0,1,6.1-7.6,100.45,100.45,0,0,1,98.3-31.7A102.54,102.54,0,0,0,663.2,339.5Z"/><rect class="cls-6" x="568.3" y="633.9" width="47.4" height="9.8"/><rect class="cls-6" x="273.66" y="451.24" width="139.3" height="16" transform="translate(-224.18 377.27) rotate(-45)"/><rect class="cls-6" x="232.87" y="416.85" width="16" height="139.3" transform="translate(-273.46 312.81) rotate(-45)"/><rect class="cls-6" x="280.1" y="404.9" width="22.4" height="235.3"/><rect class="cls-6" x="264.1" y="629" width="54.4" height="11.2"/><circle class="cls-7" cx="291.3" cy="259.2" r="115.2"/><path class="cls-8" d="M291.3,374.5V144a115.25,115.25,0,0,0,0,230.5Z"/><circle class="cls-7" cx="196.8" cy="401.7" r="115.2"/><path class="cls-8" d="M196.8,516.9V286.4a115.25,115.25,0,0,0,0,230.5Z"/><path class="cls-9" d="M275.8,316.2a115.19,115.19,0,0,0,21.4,140.6,115.19,115.19,0,0,0-21.4-140.6Z"/><circle class="cls-7" cx="384.1" cy="352.1" r="115.2"/><path class="cls-8" d="M384.1,467.3V236.8a115.25,115.25,0,0,0,0,230.5Z"/><path class="cls-9" d="M374.5,235.2a115.38,115.38,0,0,0-103.6,64.7,114.2,114.2,0,0,0-59.7-16.6,116.69,116.69,0,0,0-32,4.5,113,113,0,0,1,17.6-1.3A115.28,115.28,0,0,1,266.6,310c2.7,2.1,5.4,4.3,7.9,6.6a111.89,111.89,0,0,1,4.4-11.4,115.16,115.16,0,0,1,105.3-68.3,116.4,116.4,0,0,1,14.5.9A115,115,0,0,0,374.5,235.2Z"/><ellipse class="cls-9" cx="330.5" cy="661" rx="59.7" ry="9.1"/><circle class="cls-8" cx="333" cy="608.5" r="22.6"/><path class="cls-7" d="M333.2,586h0a22.6,22.6,0,1,1,0,45.2h0V586Z"/><circle class="cls-8" cx="347.2" cy="633.3" r="31.1"/><path class="cls-7" d="M347.2,602.2h0a31.1,31.1,0,1,1,0,62.2h0V602.2Z"/><circle class="cls-8" cx="310.4" cy="633.3" r="24.7"/><path class="cls-7" d="M310.6,608.4h0a24.7,24.7,0,1,1,.1,49.4h0V608.4Z"/><ellipse class="cls-9" cx="222.1" cy="666.5" rx="79.9" ry="12.2"/><circle class="cls-7" cx="218.7" cy="596.4" r="30.3"/><path class="cls-8" d="M218.5,566.3h0a30.3,30.3,0,0,0,0,60.6h0Z"/><circle class="cls-7" cx="199.8" cy="629.5" r="41.6"/><path class="cls-8" d="M199.8,587.9h0a41.6,41.6,0,1,0,0,83.2h0Z"/><circle class="cls-7" cx="248.9" cy="629.5" r="33.1"/><path class="cls-8" d="M248.7,596.2h0a33.1,33.1,0,1,0,0,66.2h0Z"/><ellipse class="cls-10" cx="660" cy="763.6" rx="297.5" ry="49.5"/><ellipse class="cls-10" cx="338" cy="720.6" rx="52.5" ry="8.7"/><ellipse class="cls-10" cx="264" cy="744.6" rx="26.5" ry="4.4"/><path class="cls-11" d="M450.7,736.1H820.5V491.7a28.59,28.59,0,0,0-28.6-28.6H479.3a28.59,28.59,0,0,0-28.6,28.6V736.1Z"/><path class="cls-12" d="M481.9,463.1H789.4c17.2,0,31.2,11.8,31.2,26.3v21.2c0-14.5-14-26.3-31.2-26.3H481.9c-17.2,0-31.2,11.8-31.2,26.3V489.3C450.7,474.8,464.7,463.1,481.9,463.1Z"/><rect class="cls-13" x="457.82" y="702.2" width="494.8" height="36.5"/><polygon class="cls-2" points="786.6 641.2 952.6 641.2 914.1 477.8 786.6 477.8 786.6 641.2"/><polygon class="cls-12" points="914.4 478.1 952.9 641.6 935.6 641.6 897.1 478.1 914.4 478.1"/><path class="cls-11" d="M786.6,741.2H948.4a14.77,14.77,0,0,0,14.8-14.8V613.7a14.77,14.77,0,0,0-14.8-14.8H786.6Z"/><path class="cls-6" d="M963.2,682.9v43.6a14.77,14.77,0,0,1-14.8,14.8H786.6V697.7H948.4A15,15,0,0,0,963.2,682.9Z"/><rect class="cls-11" x="786.5" y="478.47" width="19.9" height="162.8"/><circle class="cls-14" cx="870.5" cy="736.1" r="57.7"/><circle class="cls-5" cx="870.9" cy="736.4" r="32.7"/><circle class="cls-3" cx="870.9" cy="736.4" r="27.6"/><rect class="cls-6" x="443.02" y="598.33" width="15.1" height="142.9"/><circle class="cls-14" cx="634.7" cy="736.1" r="57.7"/><circle class="cls-5" cx="635" cy="736.4" r="32.7"/><circle class="cls-3" cx="635" cy="736.4" r="27.6"/><circle class="cls-14" cx="514.8" cy="736.1" r="57.7"/><circle class="cls-5" cx="515.1" cy="736.4" r="32.7"/><circle class="cls-3" cx="515.1" cy="736.4" r="27.6"/><path class="cls-12" d="M785.9,463.1h126a10.61,10.61,0,0,1,10.6,10.6h0a10.61,10.61,0,0,1-10.6,10.6h-126Z"/><path class="cls-12" d="M948.4,598.3a14.77,14.77,0,0,1,14.8,14.8v16.7A14.77,14.77,0,0,0,948.4,615h-490V598.3Z"/><path class="cls-2" d="M677.2,588h51a17.31,17.31,0,0,0,17.3-17.3V512.4a17.31,17.31,0,0,0-17.3-17.3h-51a17.31,17.31,0,0,0-17.3,17.3v58.3A17.18,17.18,0,0,0,677.2,588Z"/><path class="cls-2" d="M580.6,588h51a17.31,17.31,0,0,0,17.3-17.3V512.4a17.31,17.31,0,0,0-17.3-17.3h-51a17.31,17.31,0,0,0-17.3,17.3v58.3A17.24,17.24,0,0,0,580.6,588Z"/><path class="cls-2" d="M484.1,588h51a17.31,17.31,0,0,0,17.3-17.3V512.4a17.31,17.31,0,0,0-17.3-17.3h-51a17.31,17.31,0,0,0-17.3,17.3v58.3A17.18,17.18,0,0,0,484.1,588Z"/><path class="cls-14" d="M432.3,622h-5.5a10.71,10.71,0,0,0-10.7,10.7v83.1a10.71,10.71,0,0,0,10.7,10.7h5.5A10.71,10.71,0,0,0,443,715.8V632.7A10.71,10.71,0,0,0,432.3,622Z"/><path class="cls-15" d="M968.9,680.4h0a6.27,6.27,0,0,1,6.3,6.3v27.7a6.27,6.27,0,0,1-6.3,6.3h0a6.27,6.27,0,0,1-6.3-6.3V686.7A6.4,6.4,0,0,1,968.9,680.4Z"/><path class="cls-12" d="M794.5,570.2h0a8.71,8.71,0,0,1,8.7,8.7V617a8.71,8.71,0,0,1-8.7,8.7h0a8.71,8.71,0,0,1-8.7-8.7V578.9A8.71,8.71,0,0,1,794.5,570.2Z"/><path class="cls-16" d="M794.8,570.2a8.39,8.39,0,0,0-5.2,1.8,8.56,8.56,0,0,1,5.2,7.9V618a8.71,8.71,0,0,1-3.5,6.9,8.12,8.12,0,0,0,3.5.7,8.71,8.71,0,0,0,8.7-8.7V578.8A8.82,8.82,0,0,0,794.8,570.2Z"/><path class="cls-17" d="M432.6,622h-5.5a9.43,9.43,0,0,0-3,.5,10.72,10.72,0,0,1,9.6,10.6v83.1a10.83,10.83,0,0,1-7.7,10.3c.4,0,.8.1,1.1.1h5.5a10.71,10.71,0,0,0,10.7-10.7V632.8A10.67,10.67,0,0,0,432.6,622Z"/><path id="SVGID-2" data-name="SVGID" class="cls-18" d="M708,759.8h43.6a9,9,0,0,0,9-9V731.6a9,9,0,0,0-9-9H708a9,9,0,0,0-9,9v19.2A9.09,9.09,0,0,0,708,759.8Z"/><g class="cls-19"><path class="cls-20" d="M720.3,747.9h42.5a9.5,9.5,0,0,0,9.5-9.5V720.2a9.5,9.5,0,0,0-9.5-9.5H720.3a9.5,9.5,0,0,0-9.5,9.5v18.2A9.5,9.5,0,0,0,720.3,747.9Z"/></g><polygon class="cls-21" points="514.5 588.3 497.6 588.3 466.7 534.9 467.2 512.7 514.5 588.3"/><path class="cls-21" d="M480.8,495.4c.5-.1,59.4,91.9,59.4,91.9s10.2-1.7,12.2-15c-12.3-19.2-49.2-77.1-49.2-77.1Z"/><polygon class="cls-21" points="611 587.8 594 587.8 563.1 534.4 563.6 512.2 611 587.8"/><path class="cls-21" d="M577.5,495.8c.5-.1,59.4,91.9,59.4,91.9s10.2-1.7,12.2-15c-12.3-19.2-49.2-77.1-49.2-77.1Z"/><polygon class="cls-21" points="707.5 587.7 690.6 587.7 659.7 534.3 660.2 512.1 707.5 587.7"/><path class="cls-21" d="M674.1,495.7c.5-.1,59.4,91.9,59.4,91.9s10.2-1.7,12.2-15c-12.3-19.2-49.2-77.1-49.2-77.1Z"/><polygon class="cls-21" points="854.2 598.3 835.4 598.2 806.4 526.3 806.4 484.2 854.2 598.3"/><polygon class="cls-21" points="907.5 597.9 887.6 598.2 839.4 484.2 860 484.2 907.5 597.9"/><circle class="cls-21" cx="838.6" cy="701.7" r="6"/><polygon class="cls-22" points="458.4 615 785.8 615 785.8 620.5 458.1 620.5 458.4 615"/><path class="cls-22" d="M803.4,615v5.5H959.8s-4.1-5.4-9.9-5.4S803.4,615,803.4,615Z"/><path class="cls-23" d="M796.5,625.5s-9,1.8-10.7-7.7h-3.1v2.7S783.7,629.3,796.5,625.5Z"/><circle class="cls-21" cx="611" cy="700.6" r="9"/><circle class="cls-21" cx="484.9" cy="700.6" r="4.2"/><circle class="cls-21" cx="474.9" cy="748.3" r="4.2"/><path class="cls-24" d="M681.3,702.1H786.6v8.6H686.5A56,56,0,0,0,681.3,702.1Z"/><rect class="cls-25" x="463.3" y="599.6" width="306.6" height="6.3"/><rect class="cls-25" x="852.4" y="599.8" width="95.7" height="5.9"/><path class="cls-22" d="M806.4,484.2H481.9a33.17,33.17,0,0,0-27.8,14.4H902l-3.4-14.4Z"/><polygon class="cls-11" points="898.6 484.2 915.5 484.2 918.5 495.4 900.2 495.4 898.6 484.2"/><path class="cls-25" d="M913.2,473.6H476.9a5.34,5.34,0,0,1-5.3-5.3h0a5.34,5.34,0,0,1,5.3-5.3H913.2a5.34,5.34,0,0,1,5.3,5.3h0A5.34,5.34,0,0,1,913.2,473.6Z"/><path class="cls-26" d="M827.5,697.6s-17.3,17.7-14.5,43.6H799.2s.3-34.4,16.3-43.6Z"/><path class="cls-26" d="M913.5,697.6c1,1.1,34.8,0,34.8,0s13.8-2.9,14.3-10.9v19.7H920Z"/><path class="cls-26" d="M786.6,706.4v-8.8h41s-5.4,5.2-7.3,10.1H786.6Z"/></g></g></g></svg>