<svg xmlns="http://www.w3.org/2000/svg" xmlns:xlink="http://www.w3.org/1999/xlink" viewBox="0 0 1175.24 959.13"><defs><style>.cls-1{fill:none;}.cls-2{fill:#434264;}.cls-3{fill:#bf744b;}.cls-4{fill:#418482;}.cls-5{fill:#2a6668;}.cls-6{fill:#1b4b4c;}.cls-7{fill:#2b2b47;}.cls-8{fill:#fae4aa;}.cls-9{fill:#eea3a2;}.cls-10{fill:#fff4dc;}.cls-11{clip-path:url(#clip-path);}.cls-12{clip-path:url(#clip-path-10);}.cls-13{clip-path:url(#clip-path-11);}.cls-14{fill:#e97625;}.cls-15{clip-path:url(#clip-path-13);}.cls-16{clip-path:url(#clip-path-18);}</style><clipPath id="clip-path"><path class="cls-1" d="M513.89,514.3h-52v.2h-315a46,46,0,0,0-45.5,52.3l9,64.4V794.7a9.39,9.39,0,0,0,9.4,9.4h6.5a9.39,9.39,0,0,0,9.4-9.4V720.8a45.58,45.58,0,0,1,45.6-45.6h167.8V796.1a8.07,8.07,0,0,0,8.1,8.1h9.2a8.07,8.07,0,0,0,8.1-8.1V712.3a46.52,46.52,0,0,1,29.1-43.1,80.54,80.54,0,0,0,40.8-36.8l21.7-36.3a47.84,47.84,0,0,1,41-23.3h6.6V514.3Z"/></clipPath><clipPath id="clip-path-10"><path class="cls-1" d="M549.39,501.6l-53.5-15.8a11.39,11.39,0,0,0-14.2,8.3l-16.2,73a18.45,18.45,0,0,0,12.4,21.5c1.3-3.8,9-5,17.4-2.5s14.2,7.6,13.2,11.6a18.24,18.24,0,0,0,22.1-11.2l26.1-70.1A11.24,11.24,0,0,0,549.39,501.6Z"/></clipPath><clipPath id="clip-path-11"><path class="cls-1" d="M519.59,597.3a10.81,10.81,0,0,1-12.3-4c-2.1-2.8-6.5-5.6-12-7.2s-10.7-1.7-14-.5a10.78,10.78,0,0,1-12.2-3.1l-.9-1.2c-1.6,9,7.7,19.3,21.6,23.4s27.2.6,30.8-7.8A4.18,4.18,0,0,1,519.59,597.3Z"/></clipPath><clipPath id="clip-path-13"><path class="cls-1" d="M371.49,691.7h32.8v.1h198.6a29,29,0,0,1,28.7,33l-5.7,40.6V868.5a5.91,5.91,0,0,1-5.9,5.9h-4.1a5.91,5.91,0,0,1-5.9-5.9V821.9a28.81,28.81,0,0,0-28.8-28.8H475.39v76.2a5.12,5.12,0,0,1-5.1,5.1h-5.8a5.12,5.12,0,0,1-5.1-5.1V816.6a29.51,29.51,0,0,0-18.3-27.2,50.23,50.23,0,0,1-25.7-23.2l-13.7-22.9a30.17,30.17,0,0,0-25.9-14.7h-4.2V691.7Z"/></clipPath><clipPath id="clip-path-18"><path class="cls-1" d="M362.29,732.1a6.66,6.66,0,0,0,8,1.2c2-1,5.3-1.3,8.8-.7a14.59,14.59,0,0,1,8,3.7,6.93,6.93,0,0,0,7.8,1.7c.3-.1.6-.3.9-.4-1.6,5.5-9.8,8.7-18.8,7.1s-15.5-7.3-15.2-13.1A1.2,1.2,0,0,1,362.29,732.1Z"/></clipPath></defs><title>Asset 22</title><g id="Layer_2" data-name="Layer 2"><g id="Layer_1-2" data-name="Layer 1"><path class="cls-2" d="M388.49,687.7C506,691.9,622.39,713.3,740,716c109.2,2.6,218.3-11,327.5-7.6,34,1.1,70.4,4.7,96.5,26.5,7.5,6.2,14.2,16.3,9.9,25-3.1,6.1-10.4,8.5-16.9,10.4q-78.15,22.35-156.3,44.8c-25.6,7.3-52.8,15.7-69.6,36.4-6.5,8-11,17.4-17.8,25.2-10.5,12.1-25.6,19.3-40.4,25.5-201.8,85-431.4,58.8-647.5,24q-68.4-11-136.6-23c-25.1-4.4-51.5-9.5-70.7-26.3-45.9-40,11-66.2,3-103.3-3.8-17.8-21.7-19.8-11.1-40.4,7.2-13.9,32.6-19.4,45.9-23C158.39,682.4,283,684,388.49,687.7Z"/><rect class="cls-3" x="673.81" y="453.67" width="205.6" height="23.6" transform="translate(-101.67 685.48) rotate(-45)"/><rect class="cls-3" x="613.61" y="402.87" width="23.6" height="205.6" transform="translate(-174.38 590.34) rotate(-45)"/><rect class="cls-3" x="683.29" y="385.2" width="33.1" height="347.4"/><rect class="cls-3" x="659.69" y="716" width="80.3" height="16.5"/><circle class="cls-4" cx="699.79" cy="170.2" r="170.1"/><path class="cls-5" d="M699.79,340.3V0a170.09,170.09,0,0,0-170.1,170.1C529.69,264.1,605.89,340.3,699.79,340.3Z"/><circle class="cls-4" cx="560.39" cy="380.5" r="170.1"/><path class="cls-5" d="M560.39,550.6V210.3a170.09,170.09,0,0,0-170.1,170.1C390.29,474.3,466.49,550.6,560.39,550.6Z"/><path class="cls-6" d="M677,254.2a170.08,170.08,0,0,0,31.6,207.6A170.08,170.08,0,0,0,677,254.2Z"/><circle class="cls-4" cx="836.89" cy="307.2" r="170.1"/><path class="cls-5" d="M836.89,477.4V137.1a170.09,170.09,0,0,0-170.1,170.1C666.79,401.1,742.89,477.4,836.89,477.4Z"/><path class="cls-6" d="M822.69,134.7a170.05,170.05,0,0,0-152.9,95.5,169.9,169.9,0,0,0-135.3-17.9,170.18,170.18,0,0,1,129,32.7c4,3.1,7.9,6.3,11.6,9.7,1.9-5.7,4-11.3,6.4-16.8A170.17,170.17,0,0,1,836.89,137a168.42,168.42,0,0,1,21.4,1.4A174.09,174.09,0,0,0,822.69,134.7Z"/><ellipse class="cls-7" cx="657.89" cy="741.7" rx="90.8" ry="13.9"/><circle class="cls-4" cx="653.99" cy="662" r="34.4"/><path class="cls-5" d="M653.79,627.7h0a34.4,34.4,0,1,0,0,68.8h0Z"/><circle class="cls-4" cx="632.49" cy="699.6" r="47.3"/><path class="cls-5" d="M632.49,652.3h0a47.3,47.3,0,1,0,0,94.6h0Z"/><circle class="cls-4" cx="688.39" cy="699.6" r="37.6"/><path class="cls-5" d="M688.19,661.8h0a37.6,37.6,0,0,0,0,75.2h0Z"/><ellipse class="cls-7" cx="779.59" cy="784.6" rx="133.3" ry="20.4"/><circle class="cls-5" cx="785.29" cy="667.6" r="50.5"/><path class="cls-4" d="M785.69,617.3h0a50.5,50.5,0,1,1,0,101h0Z"/><circle class="cls-5" cx="816.89" cy="722.8" r="69.4"/><path class="cls-4" d="M816.89,653.5h0a69.4,69.4,0,1,1,0,138.8h0Z"/><circle class="cls-5" cx="734.89" cy="722.8" r="55.2"/><path class="cls-4" d="M735.19,667.3h0a55.2,55.2,0,0,1,0,110.4h0Z"/><ellipse class="cls-7" cx="170.59" cy="803.6" rx="52" ry="9.5"/><ellipse class="cls-7" cx="222.59" cy="825.6" rx="34" ry="6.2"/><ellipse class="cls-7" cx="456.59" cy="874.6" rx="34" ry="6.2"/><ellipse class="cls-7" cx="577.59" cy="874.6" rx="26" ry="4.8"/><ellipse class="cls-7" cx="539.59" cy="891.6" rx="20" ry="3.7"/><ellipse class="cls-7" cx="371.59" cy="803.6" rx="46" ry="8.4"/><path class="cls-8" d="M140.69,529.6h-9.8a43.53,43.53,0,0,0-43.5,43.5V725.3a4.91,4.91,0,0,0,4.9,4.9h0a4.91,4.91,0,0,0,4.9-4.9V576a36.45,36.45,0,0,1,36.5-36.5h7Z"/><path class="cls-8" d="M174,804h-6.5a9.39,9.39,0,0,1-9.4-9.4V628.1h25.4V794.6A9.54,9.54,0,0,1,174,804Z"/><path class="cls-8" d="M354.59,607.4V675h5.5a36.66,36.66,0,0,1,36.7,36.7v84.1a8.07,8.07,0,0,0,8.1,8.1h9.2a8.07,8.07,0,0,0,8.1-8.1V607.2h-67.6Z"/><path class="cls-9" d="M208.49,707a47.6,47.6,0,1,0-56.4,0l-6.5,11.2a5.27,5.27,0,0,0,9.1,5.3l6.5-11.2A48.48,48.48,0,0,0,175,716v13a5.3,5.3,0,0,0,10.6,0V716a46.2,46.2,0,0,0,13.8-3.7l6.5,11.2a5.27,5.27,0,0,0,9.1-5.3Z"/><path id="SVGID" class="cls-10" d="M513.89,514.3h-52v.2h-315a46,46,0,0,0-45.5,52.3l9,64.4V794.7a9.39,9.39,0,0,0,9.4,9.4h6.5a9.39,9.39,0,0,0,9.4-9.4V720.8a45.58,45.58,0,0,1,45.6-45.6h167.8V796.1a8.07,8.07,0,0,0,8.1,8.1h9.2a8.07,8.07,0,0,0,8.1-8.1V712.3a46.52,46.52,0,0,1,29.1-43.1,80.54,80.54,0,0,0,40.8-36.8l21.7-36.3a47.84,47.84,0,0,1,41-23.3h6.6V514.3Z"/><g class="cls-11"><path class="cls-2" d="M313.89,550.4h0a19.27,19.27,0,0,1-19.2-19.2V489.8a19.27,19.27,0,0,1,19.2-19.2h0a19.27,19.27,0,0,1,19.2,19.2v41.4A19.27,19.27,0,0,1,313.89,550.4Z"/></g><g class="cls-11"><path class="cls-2" d="M344.49,565.3h0a22.92,22.92,0,0,1-22.8-22.8V493.4a22.92,22.92,0,0,1,22.8-22.8h0a22.92,22.92,0,0,1,22.8,22.8v49.1A22.85,22.85,0,0,1,344.49,565.3Z"/></g><g class="cls-11"><path class="cls-2" d="M289.39,635.8h0a18.27,18.27,0,0,1,18.2,18.2v39.2a18.27,18.27,0,0,1-18.2,18.2h0a18.27,18.27,0,0,1-18.2-18.2V654A18.27,18.27,0,0,1,289.39,635.8Z"/></g><g class="cls-11"><path class="cls-2" d="M260.39,621.6h0A21.64,21.64,0,0,1,282,643.2v46.6a21.64,21.64,0,0,1-21.6,21.6h0a21.64,21.64,0,0,1-21.6-21.6V643.2A21.77,21.77,0,0,1,260.39,621.6Z"/></g><g class="cls-11"><path class="cls-2" d="M461.79,625.8h0a19,19,0,0,1-18.9,18.9h-40.7a19,19,0,0,1-18.9-18.9h0a19,19,0,0,1,18.9-18.9h40.7A19,19,0,0,1,461.79,625.8Z"/></g><g class="cls-11"><path class="cls-2" d="M151.39,663.6h0a20.17,20.17,0,0,1-20.1,20.1H88.09A20.17,20.17,0,0,1,68,663.6h0a20.17,20.17,0,0,1,20.1-20.1h43.2A20.23,20.23,0,0,1,151.39,663.6Z"/></g><g class="cls-11"><path class="cls-2" d="M125.29,481.6h0a24.38,24.38,0,0,1,18.5,8.5,29.07,29.07,0,0,1,46.8,8.1h32.9A24.54,24.54,0,0,1,248,522.7h0a24.54,24.54,0,0,1-24.5,24.5h-4.4a25.59,25.59,0,0,0-25.6,25.6h0c0,15.9-12.4,29.3-28.3,29.8a29.1,29.1,0,0,1-29-21.8,23.68,23.68,0,0,1-10.9,2.6h0a24.54,24.54,0,0,1-24.5-24.5V506A24.52,24.52,0,0,1,125.29,481.6Z"/></g><g class="cls-11"><path class="cls-8" d="M506.19,487.7l-54.9,9.7a11.21,11.21,0,0,0-8.9,13.8l18.1,72.6a18.32,18.32,0,0,0,8.7,11.5c2.6,8.8,15.5,13.8,29.8,11.3s24.6-11.6,24.1-20.7a18.08,18.08,0,0,0,4.3-13.9l-8-74.4A11.38,11.38,0,0,0,506.19,487.7Z"/></g><g class="cls-11"><path class="cls-8" d="M454,558l-1.8-7.3a47.71,47.71,0,0,0-46.4-36.4h0l-4.1-33.8,101.5-2.5,10.7,68.5Z"/></g><path class="cls-8" d="M466.69,512.5l-25.5-.7h0a27.71,27.71,0,0,1,28.4-27l25.5.7h0A27.64,27.64,0,0,1,466.69,512.5Z"/><path class="cls-2" d="M559.39,540l21.8,13.3h0a27.68,27.68,0,0,0-9.2-38.1l-21.8-13.3h0A27.86,27.86,0,0,0,559.39,540Z"/><path id="SVGID-2" data-name="SVGID" class="cls-10" d="M549.39,501.6l-53.5-15.8a11.39,11.39,0,0,0-14.2,8.3l-16.2,73a18.45,18.45,0,0,0,12.4,21.5c1.3-3.8,9-5,17.4-2.5s14.2,7.6,13.2,11.6a18.24,18.24,0,0,0,22.1-11.2l26.1-70.1A11.24,11.24,0,0,0,549.39,501.6Z"/><g class="cls-12"><path class="cls-2" d="M502.59,466.6h0a23.84,23.84,0,0,0-10.9-.7l1.3-4.3a14.68,14.68,0,0,0-8.5-17.8,14.51,14.51,0,0,0-19,9.3l-6.8,22.9a14.7,14.7,0,0,0,3,13.6,16.71,16.71,0,0,1,3.4,15.6l-5.4,18.1a25.1,25.1,0,0,0,16.9,31.1h0a25.1,25.1,0,0,0,31.1-16.9l11.8-39.8A25.1,25.1,0,0,0,502.59,466.6Z"/></g><ellipse class="cls-10" cx="491.15" cy="538.17" rx="2.7" ry="4.8" transform="translate(-164.25 856.46) rotate(-73.52)"/><ellipse class="cls-2" cx="524.32" cy="547.97" rx="2.7" ry="4.8" transform="translate(-149.89 895.29) rotate(-73.52)"/><path id="SVGID-3" data-name="SVGID" class="cls-9" d="M519.59,597.3a10.81,10.81,0,0,1-12.3-4c-2.1-2.8-6.5-5.6-12-7.2s-10.7-1.7-14-.5a10.78,10.78,0,0,1-12.2-3.1l-.9-1.2c-1.6,9,7.7,19.3,21.6,23.4s27.2.6,30.8-7.8A4.18,4.18,0,0,1,519.59,597.3Z"/><g class="cls-13"><circle class="cls-14" cx="483.69" cy="601" r="3.7"/></g><g class="cls-13"><circle class="cls-14" cx="496.99" cy="604.9" r="3.7"/></g><path class="cls-8" d="M609.89,700.9H616a27,27,0,0,1,27,27v94.4a3,3,0,0,1-3,3h0a3,3,0,0,1-3-3V729.7a22.58,22.58,0,0,0-22.6-22.6h-4.3v-6.2Z"/><path class="cls-8" d="M585.79,874.3h4.1a5.91,5.91,0,0,0,5.9-5.9v-105h-16v105A5.93,5.93,0,0,0,585.79,874.3Z"/><path class="cls-8" d="M471.89,750.4V793h-3.5a23.22,23.22,0,0,0-23.2,23.2v53a5.12,5.12,0,0,1-5.1,5.1h-5.8a5.12,5.12,0,0,1-5.1-5.1V750.3h42.7Z"/><path id="SVGID-4" data-name="SVGID" class="cls-10" d="M371.49,691.7h32.8v.1h198.6a29,29,0,0,1,28.7,33l-5.7,40.6V868.5a5.91,5.91,0,0,1-5.9,5.9h-4.1a5.91,5.91,0,0,1-5.9-5.9V821.9a28.81,28.81,0,0,0-28.8-28.8H475.39v76.2a5.12,5.12,0,0,1-5.1,5.1h-5.8a5.12,5.12,0,0,1-5.1-5.1V816.6a29.51,29.51,0,0,0-18.3-27.2,50.23,50.23,0,0,1-25.7-23.2l-13.7-22.9a30.17,30.17,0,0,0-25.9-14.7h-4.2V691.7Z"/><g class="cls-15"><path class="cls-2" d="M589.89,741.7h0a16,16,0,0,0,16-16V691.2a16,16,0,0,0-16-16h0a16,16,0,0,0-16,16v34.5A16,16,0,0,0,589.89,741.7Z"/></g><g class="cls-15"><path class="cls-2" d="M564.39,754.2h0a19.06,19.06,0,0,0,19-19v-41a19.06,19.06,0,0,0-19-19h0a19.06,19.06,0,0,0-19,19v41A18.93,18.93,0,0,0,564.39,754.2Z"/></g><g class="cls-15"><path class="cls-2" d="M446.89,674.8h0a12.44,12.44,0,0,1,9.5,4.4,14.78,14.78,0,0,1,23.9,4.1h16.9a12.61,12.61,0,0,1,12.6,12.6h0a12.61,12.61,0,0,1-12.6,12.6H495a13.08,13.08,0,0,0-13.1,13.1h0a15,15,0,0,1-29.4,4.2,13.16,13.16,0,0,1-5.6,1.3h0a12.61,12.61,0,0,1-12.6-12.6V687.4A12.74,12.74,0,0,1,446.89,674.8Z"/></g><g class="cls-15"><path class="cls-8" d="M375.39,674.9,410,681a7.08,7.08,0,0,1,5.6,8.7l-11.4,45.7a11.69,11.69,0,0,1-5.5,7.3c-1.6,5.5-9.8,8.7-18.8,7.1s-15.5-7.3-15.2-13.1a11.4,11.4,0,0,1-2.7-8.8l5-46.9A7.35,7.35,0,0,1,375.39,674.9Z"/></g><g class="cls-15"><path class="cls-8" d="M408.29,719.3l1.1-4.6a30.14,30.14,0,0,1,29.2-23h0l2.6-21.3-64-1.6-6.8,43.2Z"/></g><path class="cls-2" d="M416,699.1l14.6,6.8h0a17.47,17.47,0,0,0-8.4-23.2l-14.6-6.8h0A17.41,17.41,0,0,0,416,699.1Z"/><path class="cls-8" d="M356,688.5l-16.1,1.4h0a17.48,17.48,0,0,1,15.9-18.9l16.1-1.4h0A17.41,17.41,0,0,1,356,688.5Z"/><path id="SVGID-5" data-name="SVGID" class="cls-10" d="M372.49,669.7l34.6,6.1a7.08,7.08,0,0,1,5.6,8.7l-11.4,45.7a11.69,11.69,0,0,1-5.5,7.3,11.45,11.45,0,0,1-7.5,1.4c.4-2.5-3.7-5.3-9.1-6.3s-10.2.3-10.7,2.8a11.94,11.94,0,0,1-6.6-3.8,11.4,11.4,0,0,1-2.7-8.8l5-46.9A7,7,0,0,1,372.49,669.7Z"/><ellipse class="cls-2" cx="394.89" cy="706.73" rx="1.7" ry="3" transform="translate(-369.94 972.15) rotate(-79.94)"/><ellipse class="cls-2" cx="373.42" cy="702.94" rx="1.7" ry="3" transform="translate(-383.93 947.88) rotate(-79.94)"/><path id="SVGID-6" data-name="SVGID" class="cls-9" d="M362.29,732.1a6.66,6.66,0,0,0,8,1.2c2-1,5.3-1.3,8.8-.7a14.59,14.59,0,0,1,8,3.7,6.93,6.93,0,0,0,7.8,1.7c.3-.1.6-.3.9-.4-1.6,5.5-9.8,8.7-18.8,7.1s-15.5-7.3-15.2-13.1A1.2,1.2,0,0,1,362.29,732.1Z"/><g class="cls-16"><circle class="cls-14" cx="381.49" cy="744.3" r="2.3"/></g><g class="cls-16"><circle class="cls-14" cx="372.89" cy="742.7" r="2.3"/></g></g></g></svg>