<svg xmlns="http://www.w3.org/2000/svg" viewBox="0 0 639.03 623.31"><defs><style>.cls-1{fill:#ef8c60;}.cls-2{fill:#d37753;}.cls-3{fill:#fff4dc;}.cls-4{fill:#fae4aa;}.cls-11,.cls-5{fill:#95bec8;}.cls-6{fill:#c5e9ef;}.cls-7,.cls-9{fill:#fff;}.cls-7{opacity:0.33;}.cls-11,.cls-7,.cls-9{isolation:isolate;}.cls-8{fill:#bf744b;}.cls-9{opacity:0.15;}.cls-10{fill:#e2a079;}.cls-11{opacity:0.37;}</style></defs><title>Asset 8</title><g id="Layer_2" data-name="Layer 2"><g id="Layer_1-2" data-name="Layer 1"><g id="ขวดนมสองขวด"><path class="cls-1" d="M78.44,449.8c-17.7-.4-36.2-.6-51.9,7.7-28.1,14.8-35.6,57.9-14.2,81.4,18.6,20.5,49.3,22.9,76.8,25.5a705.57,705.57,0,0,1,173.4,39.2c19.7,7.2,39.4,15.3,60.2,18.2,32.8,4.6,65.9-3.9,99.1-4.4,41.2-.6,82.9,11.4,123.2,2.8,25-5.4,47.6-18.4,69.8-31.2,5.8-3.3,11.7-6.8,16.1-11.8,13.7-15.5,8.4-40.7-4.1-57.2-23.4-31.1-65.8-42.5-104.6-40.4-15.2.8-30.3,3.4-45.5,2s-29.9-6.9-44.6-11.3C323.24,437.3,191,452.2,78.44,449.8Z"/><ellipse class="cls-2" cx="385.04" cy="550.2" rx="135" ry="24.5"/><ellipse class="cls-2" cx="192.04" cy="502.2" rx="135" ry="24.5"/><ellipse class="cls-2" cx="540.04" cy="574.7" rx="25" ry="6.4"/><ellipse class="cls-2" cx="210.04" cy="549.7" rx="25" ry="6.4"/><ellipse class="cls-2" cx="449.04" cy="591.7" rx="42.8" ry="11"/><path class="cls-3" d="M261.24,161.7a3.08,3.08,0,0,1,.1,1c0,10.1-40.4,18.4-90.3,18.4s-90.3-8.2-90.3-18.4a3.75,3.75,0,0,1,.1-1,112.2,112.2,0,0,0-9.6,45.5V480.5c0,11.9,44.7,21.5,99.8,21.5s99.8-9.6,99.8-21.5V207.2A110.57,110.57,0,0,0,261.24,161.7Z"/><path class="cls-4" d="M80.94,161.7c.2-.5.4-.9.6-1.4A5.34,5.34,0,0,0,80.94,161.7Z"/><path class="cls-4" d="M171,181.1c49.9,0,90.3-8.2,90.3-18.4a3.75,3.75,0,0,0-.1-1c-.2-.5-.4-.9-.6-1.4-5.6-9-43.6-16-89.6-16s-84,7-89.6,16c-.2.4-.4.9-.6,1.4a3.08,3.08,0,0,0-.1,1C80.74,172.8,121.24,181.1,171,181.1Z"/><path class="cls-5" d="M249.64,141.6l-7.4-10.1a66.12,66.12,0,0,1-12.7-39.3V58.6c-10.9,4.3-32.9,7.3-58.4,7.3s-47.5-2.9-58.4-7.3V92.2A66.8,66.8,0,0,1,100,131.5l-7.4,10.1a114.62,114.62,0,0,0-11.1,18.8c5.6-9,43.6-16,89.6-16s84,7,89.6,16A106.84,106.84,0,0,0,249.64,141.6Z"/><path class="cls-6" d="M236.64,80.4v-28H105.54v28a67.71,67.71,0,0,1-14.3,41.7l-8.3,10.7A113.55,113.55,0,0,0,59,202.5V492.4h224.3V202.5a113.34,113.34,0,0,0-23.9-69.7l-8.3-10.7A67.29,67.29,0,0,1,236.64,80.4Z"/><ellipse class="cls-6" cx="171.04" cy="492.5" rx="112.2" ry="22.8"/><ellipse class="cls-5" cx="171.04" cy="485.9" rx="99.8" ry="20.3"/><path class="cls-3" d="M261.24,161.7a3.08,3.08,0,0,1,.1,1c0,10.1-40.4,18.4-90.3,18.4s-90.3-8.2-90.3-18.4a3.75,3.75,0,0,1,.1-1,112.2,112.2,0,0,0-9.6,45.5V480.5c0,11.9,44.7,21.5,99.8,21.5s99.8-9.6,99.8-21.5V207.2A110.57,110.57,0,0,0,261.24,161.7Z"/><path class="cls-5" d="M171,144.3c46,0,84,7,89.6,16a102,102,0,0,0-11.1-18.8l-7.4-10.1a66.12,66.12,0,0,1-12.7-39.3V52.4H112.74V92.1A66.8,66.8,0,0,1,100,131.4l-7.4,10.1a114.62,114.62,0,0,0-11.1,18.8C87.14,151.3,125,144.3,171,144.3Z"/><path class="cls-4" d="M80.94,161.7c.2-.5.4-.9.6-1.4A5.34,5.34,0,0,0,80.94,161.7Z"/><path class="cls-4" d="M171,181.1c49.9,0,90.3-8.2,90.3-18.4a3.75,3.75,0,0,0-.1-1c-.2-.5-.4-.9-.6-1.4-5.6-9-43.6-16-89.6-16s-84,7-89.6,16c-.2.4-.4.9-.6,1.4a3.08,3.08,0,0,0-.1,1C80.74,172.8,121.24,181.1,171,181.1Z"/><path class="cls-7" d="M259.34,132.9,251,122.2a67.71,67.71,0,0,1-14.3-41.7v-28h-70.3v28a67.71,67.71,0,0,0,14.3,41.7l8.3,10.7a113.55,113.55,0,0,1,23.9,69.7V492.5c0,10.1-32.3,18.7-77,21.7,11.1.7,22.9,1.1,35.2,1.1,61.9,0,112.2-10.2,112.2-22.8V202.6A114.06,114.06,0,0,0,259.34,132.9Z"/><path class="cls-8" d="M109.34,12.6l13.3,89.7c0,5.4,21.7,9.9,48.5,9.9s48.5-4.4,48.5-9.9l13.3-89.7Z"/><path class="cls-9" d="M192.94,12.6l-13.3,89.7c0,4-11.7,7.4-28.5,9,6.1.6,12.9.9,20,.9,26.8,0,48.5-4.4,48.5-9.9l13.3-89.7Z"/><ellipse class="cls-10" cx="171.04" cy="12.6" rx="61.8" ry="12.6"/><path class="cls-6" d="M228,45.8l-.9,6.6c0,4.7-25.1,8.6-56.1,8.6s-56.1-3.8-56.1-8.6l-.9-6.6c-5.5,1.9-8.6,4.2-8.6,6.6,0,7.4,29.4,13.3,65.6,13.3s65.6-6,65.6-13.3C236.64,50,233.54,47.8,228,45.8Z"/><path class="cls-11" d="M85,157.1c.8-.5,1.8-1,2.8-1.6a41.91,41.91,0,0,1,5.5-2.2c1.4-.5,2.8-.9,4.4-1.4,3.1-.9,6.6-1.7,10.4-2.5,4.8-.9,10.1-1.8,15.8-2.5,2.3-.3,4.6-.5,7-.8s4.9-.5,7.4-.7,5.1-.4,7.7-.5,5.3-.3,8-.4c1.4-.1,2.7-.1,4.1-.1,2.8-.1,5.6-.1,8.4-.2h8.6c2.8,0,5.7.1,8.4.2,1.4,0,2.8.1,4.1.1,2.7.1,5.4.2,8,.4.4,0,.9.1,1.3.1a109.29,109.29,0,0,0-8.3-12.2l-8.3-10.7A67.71,67.71,0,0,1,166,80.4V65.7c-23.4-.3-43.4-3.2-53.6-7.2V92.1a66.8,66.8,0,0,1-12.7,39.3l-7.4,10.1a114.62,114.62,0,0,0-11.1,18.8A17.78,17.78,0,0,1,85,157.1Z"/><path class="cls-7" d="M180.64,122.2l8.3,10.7a124.77,124.77,0,0,1,8.3,12.2c2.2.1,4.3.3,6.4.4,2.5.2,5,.4,7.4.7,4.8.5,9.4,1.1,13.7,1.7,2.1.3,4.2.7,6.2,1s3.9.7,5.7,1.1,3.6.8,5.2,1.2c9.9,2.6,16.6,5.7,18.7,9.1a102,102,0,0,0-11.1-18.8L242,131.4a66.12,66.12,0,0,1-12.7-39.3V58.5c-10.9,4.3-32.9,7.3-58.4,7.3h-4.8V80.5A69.61,69.61,0,0,0,180.64,122.2Z"/><path class="cls-3" d="M454.54,210.2a3.08,3.08,0,0,1,.1,1c0,10.1-40.4,18.4-90.3,18.4S274,221.4,274,211.2a3.75,3.75,0,0,1,.1-1,112.2,112.2,0,0,0-9.6,45.5V529c0,11.9,44.7,21.5,99.8,21.5s99.8-9.6,99.8-21.5V255.7A112.2,112.2,0,0,0,454.54,210.2Z"/><path class="cls-4" d="M274.14,210.2c.2-.5.4-.9.6-1.4C274.54,209.3,274.34,209.8,274.14,210.2Z"/><path class="cls-4" d="M364.34,229.5c49.9,0,90.3-8.2,90.3-18.4a3.75,3.75,0,0,0-.1-1c-.2-.5-.4-.9-.6-1.4-5.6-9-43.6-16-89.6-16s-84,7-89.6,16c-.2.4-.4.9-.6,1.4a3.08,3.08,0,0,0-.1,1C274,221.3,314.54,229.5,364.34,229.5Z"/><path class="cls-5" d="M442.94,190.1l-7.4-10.1a66.12,66.12,0,0,1-12.7-39.3V107.1c-10.9,4.3-32.9,7.3-58.4,7.3s-47.5-2.9-58.4-7.3v33.6a66.8,66.8,0,0,1-12.7,39.3l-7.4,10.1a114.62,114.62,0,0,0-11.1,18.8c5.6-9,43.6-16,89.6-16s84,7,89.6,16A106.84,106.84,0,0,0,442.94,190.1Z"/><path class="cls-6" d="M429.94,128.9v-28H298.74v28a67.71,67.71,0,0,1-14.3,41.7l-8.3,10.7a113.55,113.55,0,0,0-23.9,69.7V540.9h224.3V251a113.34,113.34,0,0,0-23.9-69.7l-8.3-10.7A67.81,67.81,0,0,1,429.94,128.9Z"/><ellipse class="cls-6" cx="364.34" cy="541" rx="112.2" ry="22.8"/><ellipse class="cls-5" cx="364.34" cy="534.4" rx="99.8" ry="20.3"/><path class="cls-3" d="M454.54,210.2a3.08,3.08,0,0,1,.1,1c0,10.1-40.4,18.4-90.3,18.4S274,221.4,274,211.2a3.75,3.75,0,0,1,.1-1,112.2,112.2,0,0,0-9.6,45.5V529c0,11.9,44.7,21.5,99.8,21.5s99.8-9.6,99.8-21.5V255.7A112.2,112.2,0,0,0,454.54,210.2Z"/><path class="cls-5" d="M364.34,192.8c46,0,84,7,89.6,16a102,102,0,0,0-11.1-18.8l-7.4-10.1a66.12,66.12,0,0,1-12.7-39.3V100.9H306v39.7a66.8,66.8,0,0,1-12.7,39.3l-7.4,10.1a114.62,114.62,0,0,0-11.1,18.8C280.44,199.8,318.34,192.8,364.34,192.8Z"/><path class="cls-4" d="M274.14,210.2c.2-.5.4-.9.6-1.4C274.54,209.3,274.34,209.8,274.14,210.2Z"/><path class="cls-4" d="M364.34,229.5c49.9,0,90.3-8.2,90.3-18.4a3.75,3.75,0,0,0-.1-1c-.2-.5-.4-.9-.6-1.4-5.6-9-43.6-16-89.6-16s-84,7-89.6,16c-.2.4-.4.9-.6,1.4a3.08,3.08,0,0,0-.1,1C274,221.3,314.54,229.5,364.34,229.5Z"/><path class="cls-7" d="M452.64,181.4l-8.3-10.7A67.71,67.71,0,0,1,430,129V101h-70.3v28A67.71,67.71,0,0,0,374,170.7l8.3,10.7a113.55,113.55,0,0,1,23.9,69.7V541c0,10.1-32.3,18.7-77,21.7,11.1.7,22.9,1.1,35.2,1.1,61.9,0,112.2-10.2,112.2-22.8V251.1A114.06,114.06,0,0,0,452.64,181.4Z"/><path class="cls-8" d="M302.54,61.1l13.3,89.7c0,5.4,21.7,9.9,48.5,9.9s48.5-4.4,48.5-9.9l13.3-89.7Z"/><path class="cls-9" d="M386.14,61.1l-13.3,89.7c0,4-11.7,7.4-28.5,9,6.1.6,12.9.9,20,.9,26.8,0,48.5-4.4,48.5-9.9l13.3-89.7Z"/><ellipse class="cls-10" cx="364.34" cy="61.1" rx="61.8" ry="12.6"/><path class="cls-6" d="M421.34,94.3l-.9,6.6c0,4.7-25.1,8.6-56.1,8.6s-56.1-3.8-56.1-8.6l-.9-6.6c-5.5,1.9-8.6,4.2-8.6,6.6,0,7.4,29.4,13.3,65.6,13.3s65.6-6,65.6-13.3C429.94,98.5,426.84,96.3,421.34,94.3Z"/><path class="cls-11" d="M278.34,205.6c.8-.5,1.8-1,2.8-1.6a41.91,41.91,0,0,1,5.5-2.2c1.4-.5,2.8-.9,4.4-1.4,3.1-.9,6.6-1.7,10.4-2.5,4.8-.9,10.1-1.8,15.8-2.5,2.3-.3,4.6-.5,7-.8s4.9-.5,7.4-.7,5.1-.4,7.7-.5,5.3-.3,8-.4c1.4-.1,2.7-.1,4.1-.1,2.8-.1,5.6-.1,8.4-.2h8.6c2.8,0,5.7.1,8.4.2,1.4,0,2.8.1,4.1.1,2.7.1,5.4.2,8,.4.4,0,.9.1,1.3.1a109.29,109.29,0,0,0-8.3-12.2l-8.3-10.7a67.71,67.71,0,0,1-14.3-41.7V114.2c-23.4-.3-43.4-3.2-53.6-7.2v33.6A66.8,66.8,0,0,1,293,179.9l-7.4,10.1a114.62,114.62,0,0,0-11.1,18.8A15.61,15.61,0,0,1,278.34,205.6Z"/><path class="cls-7" d="M373.94,170.7l8.3,10.7a124.77,124.77,0,0,1,8.3,12.2c2.2.1,4.3.3,6.4.4,2.5.2,5,.4,7.4.7,4.8.5,9.4,1.1,13.7,1.7,2.1.3,4.2.7,6.2,1s3.9.7,5.7,1.1,3.6.8,5.2,1.2c9.9,2.6,16.6,5.7,18.7,9.1a102,102,0,0,0-11.1-18.8l-7.4-10.1a66.12,66.12,0,0,1-12.7-39.3V107c-10.9,4.3-32.9,7.3-58.4,7.3h-4.8V129A69.61,69.61,0,0,0,373.94,170.7Z"/></g></g></g></svg>