<svg xmlns="http://www.w3.org/2000/svg" xmlns:xlink="http://www.w3.org/1999/xlink" viewBox="0 0 996.44 611.14"><defs><style>.cls-1,.cls-22{fill:none;}.cls-2{fill:#ef8c60;}.cls-3{fill:#d37753;}.cls-4{fill:#fae4aa;}.cls-5{fill:#eea3a2;}.cls-6{fill:#fff4dc;}.cls-7{clip-path:url(#clip-path);}.cls-8{fill:#434264;}.cls-9{clip-path:url(#clip-path-8);}.cls-10{clip-path:url(#clip-path-9);}.cls-11{fill:#e97625;}.cls-12{fill:#b27959;}.cls-13{fill:#d9a27f;}.cls-14{fill:#fdf4df;}.cls-15{fill:#ffdaa4;}.cls-16{fill:#6b6d8c;}.cls-17{fill:#8c644f;}.cls-18{fill:#ffb583;}.cls-19{fill:#b57753;}.cls-20{fill:#f7a074;}.cls-21{fill:#b2b4cc;}.cls-22{stroke:#b2b4cc;stroke-miterlimit:10;stroke-width:10.6px;}.cls-23{fill:#979bba;}.cls-24{fill:#6b4839;}.cls-25{fill:#fff;}.cls-26{fill:#704c3c;}.cls-27{fill:#996b5c;}</style><clipPath id="clip-path"><path class="cls-1" d="M103.94,104.1h75.7v.3h458.8a66.84,66.84,0,0,1,66.2,76.2l-13.2,93.8V512.5a13.66,13.66,0,0,1-13.7,13.7h-9.5a13.66,13.66,0,0,1-13.7-13.7V404.9A66.53,66.53,0,0,0,588,338.4H343.64v176a11.71,11.71,0,0,1-11.7,11.7h-13.5a11.72,11.72,0,0,1-11.7-11.7V392.5a67.6,67.6,0,0,0-42.4-62.7,117.3,117.3,0,0,1-59.4-53.6l-31.6-52.8a69.74,69.74,0,0,0-59.7-33.9h-9.7Z"/></clipPath><clipPath id="clip-path-8"><path class="cls-1" d="M52.14,85.7,130,62.6a16.33,16.33,0,0,1,20.6,12.1L174.34,181a27.09,27.09,0,0,1-3.9,20.7,26.79,26.79,0,0,1-14.2,10.6c-1.9-5.6-13.1-7.2-25.3-3.6s-20.7,11.1-19.3,16.8a26.72,26.72,0,0,1-32.2-16.4L41.44,107A16.33,16.33,0,0,1,52.14,85.7Z"/></clipPath><clipPath id="clip-path-9"><path class="cls-1" d="M95.54,225a15.84,15.84,0,0,0,17.9-5.8c3.1-4.1,9.5-8.2,17.5-10.5s15.6-2.5,20.4-.7a15.58,15.58,0,0,0,17.8-4.5,20.27,20.27,0,0,0,1.3-1.8c2.3,13.1-11.3,28.1-31.4,34s-39.5.9-44.8-11.3A7.55,7.55,0,0,0,95.54,225Z"/></clipPath></defs><title>Asset 9</title><g id="Layer_2" data-name="Layer 2"><g id="Layer_1-2" data-name="Layer 1"><g id="น้องบีบนม"><path class="cls-2" d="M130.94,432.1c12.2,6.3,22.2,18.2,23.2,31.9.8,10.1-3,21.4,2.9,29.7s18.2,8.5,28.4,7.7c8.4-.7,16.8-1.4,25.2-2.2,22.2-2,44.4-3.9,66.6-5.9a14.88,14.88,0,0,0,4.2-.8c6.4-2.7,4.8-13.1-.8-17.2s-13.1-4.4-19.8-6.5c-20.5-6.5-31.1-33.8-20.3-52.4,6-10.4,17.7-21,12.7-31.9-3.9-8.6-15.4-9.8-24.8-9.7-20,.2-39.9,1.1-59.9,2.5-25.7,1.8-52.5,5.1-74,19.4C56.84,421.9,119.14,426,130.94,432.1Z"/><path class="cls-2" d="M258,459.8c13.4-1.3,26.8.8,40,3,22.2,3.7,44.4,7.3,66.7,11,37.5,6.2,75.9,12.4,113.4,6.2,17.4-2.8,34.4-8.3,52-8.3,18.4,0,36.2,6.1,54.2,10.3,79.5,18.3,162.7-1.9,244.1,4.1,3.7.3,7.6.7,10.8,2.7,3.7,2.4,5.6,6.6,8,10.2,14.5,21.8,45.4,23.6,71.6,21.9s56.1-3.3,74.4,15.5c1.7,1.7,3.3,3.8,3.2,6.2-.1,2-1.3,3.7-2.5,5.3-22.1,27.8-68.1,39.7-100.7,48.4-10.2,2.7-20.3,5.5-30.5,8.2-11.7,3.1-23.4,6.3-35.5,6.6-39.7,1-73.4-13.7-114.2-8.9-28.6,3.4-65.2,8.2-85.8-16.7-4.3-5.2-7.7-11.3-13.5-14.8-4.4-2.7-9.7-3.4-14.9-4.1a808.36,808.36,0,0,0-90.6-6.6c-78.2-1-156,11.4-234.2,12.2-31.6.3-66.2-2-93.2-20.4-23.3-15.8-44.9-57.8-18.7-81.5,9.7-8.8,21.2-7.2,33.3-6.6C217.74,464.7,235.84,462,258,459.8Z"/><ellipse class="cls-3" cx="348.94" cy="512.7" rx="70" ry="21"/><ellipse class="cls-3" cx="228.94" cy="524.7" rx="33" ry="9.9"/><ellipse class="cls-3" cx="603.94" cy="525.7" rx="42" ry="12.6"/><ellipse class="cls-3" cx="892.94" cy="563.7" rx="42" ry="12.6"/><ellipse class="cls-3" cx="928.94" cy="535.7" rx="42" ry="12.6"/><ellipse class="cls-3" cx="774.44" cy="577.7" rx="62.5" ry="18.8"/><ellipse class="cls-3" cx="549.94" cy="511.7" rx="19" ry="5.7"/><path class="cls-4" d="M647.54,126.4h14.3a63.31,63.31,0,0,1,63.3,63.3V411.3a7.13,7.13,0,0,1-7.1,7.1h0a7.13,7.13,0,0,1-7.1-7.1V193.9a53.18,53.18,0,0,0-53.2-53.2h-10.1V126.4Z"/><path class="cls-4" d="M598.94,526.1h9.5a13.66,13.66,0,0,0,13.7-13.7V269.8h-36.9V512.4A13.79,13.79,0,0,0,598.94,526.1Z"/><path class="cls-4" d="M335.94,239.8v98.5h-8.1a53.5,53.5,0,0,0-53.5,53.5V514.3a11.71,11.71,0,0,1-11.7,11.7h-13.5a11.72,11.72,0,0,1-11.7-11.7V239.8Z"/><path class="cls-5" d="M548.84,384.8a69.3,69.3,0,1,1,82.2,0l9.5,16.4a7.68,7.68,0,0,1-13.3,7.7l-9.4-16.4a71.06,71.06,0,0,1-20.1,5.4v18.9a7.7,7.7,0,0,1-15.4,0V397.9a67.9,67.9,0,0,1-20.1-5.4l-9.4,16.4a7.68,7.68,0,0,1-13.3-7.7Z"/><path id="SVGID" class="cls-6" d="M103.94,104.1h75.7v.3h458.8a66.84,66.84,0,0,1,66.2,76.2l-13.2,93.8V512.5a13.66,13.66,0,0,1-13.7,13.7h-9.5a13.66,13.66,0,0,1-13.7-13.7V404.9A66.53,66.53,0,0,0,588,338.4H343.64v176a11.71,11.71,0,0,1-11.7,11.7h-13.5a11.72,11.72,0,0,1-11.7-11.7V392.5a67.6,67.6,0,0,0-42.4-62.7,117.3,117.3,0,0,1-59.4-53.6l-31.6-52.8a69.74,69.74,0,0,0-59.7-33.9h-9.7Z"/><g class="cls-7"><path class="cls-8" d="M359.14,213.8h0a36.57,36.57,0,0,0,36.5-36.5V98.7a36.57,36.57,0,0,0-36.5-36.5h0a36.57,36.57,0,0,0-36.5,36.5v78.6A36.58,36.58,0,0,0,359.14,213.8Z"/></g><g class="cls-7"><path class="cls-8" d="M301,242.3h0a43.45,43.45,0,0,0,43.3-43.3V105.6A43.45,43.45,0,0,0,301,62.3h0a43.45,43.45,0,0,0-43.3,43.3V199A43.45,43.45,0,0,0,301,242.3Z"/></g><g class="cls-7"><path class="cls-8" d="M430.84,281.1h0a26.55,26.55,0,0,0-26.5,26.5v57.1a26.55,26.55,0,0,0,26.5,26.5h0a26.55,26.55,0,0,0,26.5-26.5V307.6A26.61,26.61,0,0,0,430.84,281.1Z"/></g><g class="cls-7"><path class="cls-8" d="M473.14,260.4h0a31.62,31.62,0,0,0-31.5,31.5v67.9a31.62,31.62,0,0,0,31.5,31.5h0a31.62,31.62,0,0,0,31.5-31.5V291.9A31.69,31.69,0,0,0,473.14,260.4Z"/></g><g class="cls-7"><path class="cls-8" d="M669.84,56.4h0a35.6,35.6,0,0,0-27,12.4,42.25,42.25,0,0,0-68.1,11.8h-48A35.85,35.85,0,0,0,491,116.3h0a35.85,35.85,0,0,0,35.7,35.7h6.4a37.41,37.41,0,0,1,37.4,37.4h0c0,23.1,18.1,42.7,41.2,43.4A42.55,42.55,0,0,0,654,201.1a35.5,35.5,0,0,0,15.9,3.8h0a35.85,35.85,0,0,0,35.7-35.7v-77A35.89,35.89,0,0,0,669.84,56.4Z"/></g><g class="cls-7"><path class="cls-4" d="M115.14,65.4l80,14.2a16.42,16.42,0,0,1,13,20.1l-26.3,105.7a26.65,26.65,0,0,1-12.7,16.8c-3.8,12.8-22.6,20.1-43.3,16.4S90,221.7,90.74,208.4a26.6,26.6,0,0,1-6.3-20.3L96,79.8A16.3,16.3,0,0,1,115.14,65.4Z"/></g><g class="cls-7"><path class="cls-4" d="M191.24,167.8l2.6-10.7a69.61,69.61,0,0,1,67.5-53.1h0l6-49.3-147.9-3.6-15.6,99.8Z"/></g><path class="cls-4" d="M172.64,101.5l37.2-1h0a40.41,40.41,0,0,0-41.4-39.3l-37.2,1h0A40.34,40.34,0,0,0,172.64,101.5Z"/><path class="cls-8" d="M37.64,141.5,5.94,160.9h0a40.27,40.27,0,0,1,13.3-55.4l31.7-19.4h0A40.31,40.31,0,0,1,37.64,141.5Z"/><path id="SVGID-2" data-name="SVGID" class="cls-6" d="M52.14,85.7,130,62.6a16.33,16.33,0,0,1,20.6,12.1L174.34,181a27.09,27.09,0,0,1-3.9,20.7,26.79,26.79,0,0,1-14.2,10.6c-1.9-5.6-13.1-7.2-25.3-3.6s-20.7,11.1-19.3,16.8a26.72,26.72,0,0,1-32.2-16.4L41.44,107A16.33,16.33,0,0,1,52.14,85.7Z"/><g class="cls-9"><path class="cls-8" d="M120.34,34.6h0a35.91,35.91,0,0,1,15.9-1.1l-1.8-6.2a21.34,21.34,0,0,1,12.4-25.9A21,21,0,0,1,174.44,15l9.9,33.3a21.08,21.08,0,0,1-4.4,19.8A24.28,24.28,0,0,0,175,90.8l7.8,26.4a36.58,36.58,0,0,1-24.6,45.3h0a36.58,36.58,0,0,1-45.3-24.6l-17.2-58A36.58,36.58,0,0,1,120.34,34.6Z"/></g><ellipse class="cls-6" cx="136.93" cy="139" rx="7" ry="3.9" transform="translate(-33.81 44.56) rotate(-16.48)"/><ellipse class="cls-8" cx="88.53" cy="153.32" rx="7" ry="3.9" transform="translate(-39.86 31.42) rotate(-16.48)"/><path id="SVGID-3" data-name="SVGID" class="cls-5" d="M95.54,225a15.84,15.84,0,0,0,17.9-5.8c3.1-4.1,9.5-8.2,17.5-10.5s15.6-2.5,20.4-.7a15.58,15.58,0,0,0,17.8-4.5,20.27,20.27,0,0,0,1.3-1.8c2.3,13.1-11.3,28.1-31.4,34s-39.5.9-44.8-11.3A7.55,7.55,0,0,0,95.54,225Z"/><g class="cls-10"><circle class="cls-11" cx="147.94" cy="230.4" r="5.4"/></g><g class="cls-10"><circle class="cls-11" cx="128.54" cy="236.1" r="5.4"/></g><path class="cls-12" d="M646.24,518.9v31.5c0,.3-.3.7-.3,1,0,6.5,40.7,11.8,91.1,11.8s91.1-5.3,91.1-11.8V518.9Z"/><path class="cls-13" d="M828.74,518.1c0,6.5-40.9,11.8-91.3,11.8s-91.3-5.3-91.3-11.8,40.9-11.8,91.3-11.8S828.74,511.6,828.74,518.1Z"/><path class="cls-12" d="M679.14,570.9a13.07,13.07,0,0,1-13.4,13h-.6c-7.4,0-13.6-5.6-13.6-13V556.7a13.49,13.49,0,0,1,13.6-13.3h.6a13.32,13.32,0,0,1,13.4,13.3Z"/><path class="cls-12" d="M820.54,571.3a13.4,13.4,0,0,1-13.4,13.4h0a13.4,13.4,0,0,1-13.4-13.4V556.8a13.4,13.4,0,0,1,13.4-13.4h0a13.4,13.4,0,0,1,13.4,13.4Z"/><path class="cls-14" d="M815.24,427.5s-5.3-25.3-36.1-32.5C769.74,417.8,815.24,427.5,815.24,427.5Z"/><path class="cls-15" d="M710.44,418.1a19.67,19.67,0,0,1-19.7,19.7h-53.8a19.67,19.67,0,0,1-19.7-19.7v-.3a19.67,19.67,0,0,1,19.7-19.7h53.8a19.67,19.67,0,0,1,19.7,19.7Z"/><path class="cls-15" d="M840.54,493a19.71,19.71,0,0,1-27.7-3.1l-33.7-42.1a19.71,19.71,0,0,1,3.1-27.7h0a19.71,19.71,0,0,1,27.7,3.1l33.7,42.1a19.81,19.81,0,0,1-3.1,27.7Z"/><path class="cls-14" d="M713.54,430.2c0,11.4-9.1,19.9-20.6,19.9h-15.6c-11.5,0-20.3-8.5-20.3-19.9V414.8a20.17,20.17,0,0,1,20.3-20.5h15.6a20.49,20.49,0,0,1,20.6,20.5Z"/><path class="cls-14" d="M798.84,466.7c-10,5.5-22.1,1.5-27.6-8.6l-7.5-13.7c-5.5-10.1-2.3-22.3,7.7-27.7l13.5-7.4a20.41,20.41,0,0,1,27.9,8.2l7.5,13.7a20.75,20.75,0,0,1-8,28.2Z"/><path class="cls-14" d="M713.54,400.7s-18.1,5.7-28.9,50.1c-9.1,21.4-7.6,27.5-4.8,38.8s12.2,13.2,30.9,11.6,87,2.1,87,2.1,29.5-92-22.7-108.3"/><path class="cls-16" d="M719.64,431.8c1.2,3.5-.3,7.1-3.3,8.1h0c-3,1-6.4-1-7.5-4.5l-10.3-30.8c-1.2-3.5.3-7.1,3.3-8.1h0c3-1,6.4,1,7.5,4.5Z"/><path class="cls-15" d="M767.54,395.6a10.38,10.38,0,0,1-8.9,11.7l-19.5,2.7a10.38,10.38,0,0,1-11.7-8.9h0a10.38,10.38,0,0,1,8.9-11.7l19.5-2.7a10.5,10.5,0,0,1,11.7,8.9Z"/><path class="cls-15" d="M829.64,319a79.25,79.25,0,1,0-158.5.9c0,1.3.1,2.5.1,3.8a35.61,35.61,0,0,0-14.9,29.2,36.34,36.34,0,0,0,4.6,17.6h0A34.3,34.3,0,0,0,673,382.9c14.2,11.1,42.1,24.3,88.9,14.9a73.71,73.71,0,0,0,13.3-3.2c.1,0,.1,0,.2-.1h0A79,79,0,0,0,829.64,319Z"/><path class="cls-15" d="M729.84,406.7s18.2,18.4,37.4-6.7,21.3-30.6,20.2-27.9"/><path class="cls-17" d="M665.24,280.9s-3.5,9.1-1.4,17.1a24.56,24.56,0,0,0,7.9,12.4s8.1,3.8,13.1,0,8.9-.2,8.9-.2v6.2s1.2,5.9,6.4,8.6,20.7,6,20.7,6-3.6,1.6,3.3,7.8,3.7,11.1,3.2,13.1,6.6-7.4,14.6-3.5,19.9,2.1,20.1,10.4,5.4,12.3-.4,20.1-9.1,10-7,13.3,6.6,5.9,9.8,4.6,11.6-2.6,11.2-2.3,18.8-3.1,26.3-8a103.09,103.09,0,0,0,21.2-19.4c4.3-5.6,5.8-24.2,5.8-24.2l-5.8-31.1-85.6-31-37.2-2.9Z"/><path class="cls-15" d="M767.64,366.9a22.3,22.3,0,1,1-22.3-22.3A22.32,22.32,0,0,1,767.64,366.9Z"/><path class="cls-18" d="M756.84,366.5A13.8,13.8,0,1,1,743,352.7,13.83,13.83,0,0,1,756.84,366.5Z"/><path class="cls-19" d="M752.64,329.4A136.78,136.78,0,0,1,740,358.2c-8.3,14.5-21,30.6-38.9,32.5-7.8.8-7.9,13.2,0,12.3,34-3.6,54.7-40.6,63.4-70.4,2.2-7.5-9.7-10.8-11.9-3.2Z"/><path class="cls-2" d="M852,278.9c3.8-11.5,6.9-19.9,6.9-19.9s-100.9-73.5-111-56.2a180.71,180.71,0,0,1-13.5,19.9c-38.9-7.2-70.2-1.3-78.6,17.7-12.3,27.7,28.2,72.6,90.5,100.5s122.9,28,135.2.3C889.14,324.2,876.94,300.8,852,278.9Z"/><path class="cls-20" d="M859.24,258.9c-3.6,7.2-31.4.4-62.1-15.1s-52.5-33.9-48.9-41.1,31.4-.4,62.1,15.1S862.94,251.7,859.24,258.9Z"/><path class="cls-16" d="M802.94,517.4c0,16.9-12.1,30.6-27,30.6h-71.6c-14.9,0-27-13.7-27-30.6h0c0-16.9,12.1-30.6,27-30.6h71.6c15,0,27,13.6,27,30.6Z"/><path class="cls-16" d="M770.84,489.1a14.51,14.51,0,0,1-14.5,14.5H715a14.51,14.51,0,0,1-14.5-14.5V443.2A14.51,14.51,0,0,1,715,428.7h41.3a14.51,14.51,0,0,1,14.5,14.5Z"/><path class="cls-16" d="M799.64,400.8c2.4,2.4,2.8,5.8,1,7.6l-30.7,31c-1.8,1.8-5.2,1.4-7.6-1h0c-2.4-2.4-2.8-5.8-1-7.6l30.7-31c1.8-1.8,5.2-1.4,7.6,1Z"/><circle class="cls-21" cx="713.48" cy="431.9" r="6.6" transform="translate(-96.42 631) rotate(-45)"/><path class="cls-21" d="M775.14,431.9a6.6,6.6,0,1,1-6.6-6.6A6.73,6.73,0,0,1,775.14,431.9Z"/><path class="cls-16" d="M708.54,465.9s-11.3,24.2-21,27.5c20,13.7,32.6,7.1,32.6,7.1l4-16.5Z"/><path class="cls-16" d="M761.24,488.1l15.6-18.1s11.3,24.2,21,27.5"/><path class="cls-16" d="M730.34,551c0,10.9-10.5,19.7-23.3,19.7h0c-12.8,0-23.3-8.8-23.3-19.7V515.7c0-10.9,10.5-19.7,23.3-19.7h0c12.8,0,23.3,8.8,23.3,19.7Z"/><path class="cls-16" d="M780.84,552c0,10.9-10,19.7-22.6,19.7h0c-12.6,0-22.6-8.8-22.6-19.7V516.7c0-10.9,10-19.7,22.6-19.7h0c12.6,0,22.6,8.8,22.6,19.7Z"/><path class="cls-16" d="M768,462.9s27.4,26.4,38,24.2c.6,13.7,1.4,45.3-12,50.2s-32.4-78.5-32.4-78.5Z"/><path class="cls-16" d="M708.54,463.3s-23.2,22.3-30.8,18.7c-1.9,13.5-5.8,44.6,3.7,51.4s32.3-73.2,32.3-73.2Z"/><path class="cls-22" d="M757.54,476.7c0,4.6-2.8,8.1-7.4,8.1h-29.8a7.92,7.92,0,0,1-8-8.1V455.9c0-4.6,3.5-8.6,8-8.6h29.8c4.5,0,7.4,4,7.4,8.6Z"/><path class="cls-15" d="M706.94,496"/><path class="cls-16" d="M685.14,558s-12.6-44.4,0-56,30.7-7.3,35.3-3S685.14,558,685.14,558Z"/><path class="cls-16" d="M802.94,520"/><path class="cls-16" d="M777,563.3s.3-.5.8-1.5a181,181,0,0,1,19.9-28.6c-7.3-19.3-19.9-19.3-19.9-19.3l-13.3,12.3-3.4,16"/><path class="cls-16" d="M700.24,460.1s-16.4,16.1-22.4,21.8-12.1,36,1.8,47.3,21.5-9.2,21.5-9.2l8-30.3Z"/><path class="cls-16" d="M690.14,470s-10.8,3.4-12.3,4.1-5.5,15.9-6.1,24.1,24-2.2,24-2.2Z"/><path class="cls-23" d="M730.34,563.3a8.28,8.28,0,0,1-8.3,8.3H692a8.28,8.28,0,0,1-8.3-8.3v-4A8.28,8.28,0,0,1,692,551h30a8.28,8.28,0,0,1,8.3,8.3Z"/><path class="cls-23" d="M780.84,563.3a8.28,8.28,0,0,1-8.3,8.3h-30a8.28,8.28,0,0,1-8.3-8.3v-4a8.28,8.28,0,0,1,8.3-8.3h30a8.28,8.28,0,0,1,8.3,8.3Z"/><path class="cls-17" d="M686.94,333.7a4.4,4.4,0,1,1-4.4-4.4A4.44,4.44,0,0,1,686.94,333.7Z"/><polygon class="cls-17" points="892.54 471.8 901.14 534.2 973.44 534.2 982.74 472.1 892.54 471.8"/><path class="cls-24" d="M982.74,471.9c0,7.8-20.1,14.1-45,14.1s-45-6.3-45-14.1,20.1-14.1,45-14.1S982.74,464.1,982.74,471.9Z"/><path class="cls-25" d="M969.24,471.2a9.35,9.35,0,0,0-1.6-.4c-6.5-2.6-17.6-4.3-30.2-4.3-13.2,0-24.8,1.9-31.1,4.8h0c-5.9,2-8.8,7.8-8.8,7.8l5.6,2.2,12.1,2.8h0a110.14,110.14,0,0,0,22.2,2.1,107.74,107.74,0,0,0,22.9-2.2l-.1.1,13.4-3.2,4.3-1.7C978,479,975.14,473.2,969.24,471.2Z"/><path class="cls-17" d="M973.74,534.3c0,5-16.2,9.1-36.3,9.1s-36.3-4.1-36.3-9.1,16.2-9.1,36.3-9.1S973.74,529.3,973.74,534.3Z"/><path class="cls-17" d="M979.74,471.7c-.2,3.2-6.3,5.3-8.7,6.2a80.84,80.84,0,0,1-20,4.1c-14.6,1.4-30.3,1-44.5-3.3-2.8-.9-9.9-2.7-10.8-6.2-.9-3.2,4.5-5.3,6.7-6.2,13-5.5,28.6-6,42.5-5.3a100.17,100.17,0,0,1,23.1,3.6c3,.8,11.4,3,11.7,7.1.2,3.8,6.2,3.8,5.9,0-.8-12.2-21.7-14.6-30.5-15.8-17.8-2.3-38.7-2.2-55.4,5-4.1,1.8-9.2,4.6-10,9.4-.8,4.5,2.5,7.9,6,10.1,6.2,3.9,14.1,5.5,21.2,6.6a143,143,0,0,0,30.7,1.2c9.3-.6,18.9-1.9,27.6-5.6,4.8-2,10.1-5.2,10.5-10.9C985.94,467.9,980,467.9,979.74,471.7Z"/><path class="cls-17" d="M976.14,531.7c0,6.4-17.3,11.7-38.6,11.7s-38.6-5.2-38.6-11.7,17.3-11.7,38.6-11.7S976.14,525.3,976.14,531.7Z"/><path class="cls-26" d="M906.74,494.5a149.22,149.22,0,0,0,40.1,22c8.9,3.1,19.3,5.3,28.6,2.5,4.8-1.5,9.5-4.3,10.9-9.5,1.2-4.6-1.2-7.9-3.6-11.6-2.1-3.3-7.5-.2-5.3,3.1,2.5,3.9,5.2,7.4-.5,10.8-3.3,1.9-7.5,2.3-11.2,2.3-8.9-.1-17.8-3.3-25.8-7a159.68,159.68,0,0,1-30-17.9c-3.3-2.5-6.4,2.9-3.2,5.3Z"/><path class="cls-24" d="M911.74,488.8a6.2,6.2,0,1,1-6.2-6.2A6.23,6.23,0,0,1,911.74,488.8Z"/><path class="cls-27" d="M909.34,491.7a3.9,3.9,0,1,1-3.9-3.9A4,4,0,0,1,909.34,491.7Z"/><polygon class="cls-17" points="857.44 500.9 865.94 563.2 938.24 563.2 947.54 501.2 857.44 500.9"/><path class="cls-24" d="M947.54,500.9c0,7.8-20.1,14.1-45,14.1s-45-6.3-45-14.1,20.1-14.1,45-14.1S947.54,493.2,947.54,500.9Z"/><path class="cls-25" d="M934,500.3a9.35,9.35,0,0,0-1.6-.4c-6.5-2.6-17.6-4.3-30.2-4.3-13.2,0-24.8,1.9-31.1,4.8h0c-5.9,2-8.8,7.8-8.8,7.8l5.6,2.2,12.1,2.8h0a110.14,110.14,0,0,0,22.2,2.1,107.74,107.74,0,0,0,22.9-2.2l-.1.1,13.4-3.2,4.3-1.7C942.84,508,939.94,502.3,934,500.3Z"/><path class="cls-17" d="M938.54,563.4c0,5-16.2,9.1-36.3,9.1s-36.3-4.1-36.3-9.1,16.2-9.1,36.3-9.1S938.54,558.4,938.54,563.4Z"/><path class="cls-17" d="M944.54,500.7c-.2,3.2-6.3,5.3-8.7,6.2a80.84,80.84,0,0,1-20,4.1c-14.6,1.4-30.3,1-44.5-3.3-2.8-.9-9.9-2.7-10.8-6.2-.9-3.2,4.5-5.3,6.7-6.2,13-5.5,28.6-6,42.5-5.3a100.17,100.17,0,0,1,23.1,3.6c3,.9,11.5,3.1,11.7,7.1.2,3.8,6.2,3.8,5.9,0-.8-12.2-21.7-14.6-30.5-15.8-17.8-2.3-38.7-2.2-55.4,5-4.1,1.8-9.2,4.6-10,9.4-.8,4.5,2.5,7.9,6,10.1,6.2,3.9,14.1,5.5,21.2,6.6a143,143,0,0,0,30.7,1.2c9.3-.6,18.9-1.9,27.6-5.6,4.8-2,10.1-5.2,10.5-10.9C950.74,496.9,944.84,496.9,944.54,500.7Z"/><path class="cls-17" d="M940.94,560.8c0,6.4-17.3,11.7-38.6,11.7s-38.6-5.2-38.6-11.7,17.3-11.7,38.6-11.7S940.94,554.3,940.94,560.8Z"/><path class="cls-26" d="M871.54,523.5a149.22,149.22,0,0,0,40.1,22c8.9,3.1,19.3,5.3,28.6,2.5,4.8-1.5,9.5-4.3,10.9-9.5,1.2-4.6-1.2-7.9-3.6-11.6-2.1-3.3-7.5-.2-5.3,3.1,2.5,3.9,5.2,7.4-.5,10.8-3.3,1.9-7.5,2.3-11.2,2.3-8.9-.1-17.8-3.3-25.8-7a159.68,159.68,0,0,1-30-17.9c-3.3-2.4-6.3,2.9-3.2,5.3Z"/><path class="cls-24" d="M876.54,517.9a6.2,6.2,0,1,1-6.2-6.2A6.17,6.17,0,0,1,876.54,517.9Z"/><path class="cls-27" d="M874.14,520.8a3.9,3.9,0,1,1-3.9-3.9A3.9,3.9,0,0,1,874.14,520.8Z"/></g></g></g></svg>