<svg xmlns="http://www.w3.org/2000/svg" viewBox="0 0 1000.37 561.1"><defs><style>.cls-1{fill:#eea3a2;}.cls-2{fill:#d38585;}.cls-3{fill:#efbfa5;}.cls-4{fill:#ededed;}.cls-5{fill:#bf8f77;}.cls-6{fill:#d1d1d1;}.cls-7{fill:#e2b196;}.cls-8{fill:#c6ac79;}.cls-9{fill:#e2c88f;}.cls-10{fill:#fbe5aa;}.cls-11{fill:#cfe0e6;}.cls-12{fill:#80a7b2;}.cls-13{fill:#a4c8d3;}.cls-14{fill:#5b7f87;}.cls-15{fill:#d3d0d1;}.cls-16{fill:#f3f1f1;}.cls-17{fill:#bab6b6;}</style></defs><title>Asset 10</title><g id="Layer_2" data-name="Layer 2"><g id="Layer_1-2" data-name="Layer 1"><g id="นมอัดเม็ด"><path class="cls-1" d="M52.59,280.5c19.8,9.9,42.6-7.6,54.2-26.5s20-41.8,39.6-52c8.5-4.4,18.2-5.9,27.8-7a599,599,0,0,1,143.5.4c37.1,4.6,76.2,12.5,110.8-1.7,8-3.3,15.5-7.7,23.8-10.2,23.4-7.1,48.4,1.7,71.2,10.4q52,19.8,104,39.7c29.4,11.2,58.8,22.5,89.3,29.9,26.2,6.4,53,9.9,79.7,13.6,49.6,6.9,99.1,14.3,148.6,21.8,14.1,2.1,28.8,4.5,40.1,13.3,19.4,15.1,20.4,48.3,1.9,64.5-20.4,17.9-56.4,14.9-70.3,38.3-10.6,17.8-2.1,42.3-12.5,60.3-13.3,23.1-44.1,24-67.6,24.9-49.1,1.9-93.3-14-136.7,15.4-45.9,31-92.2,45.5-147.5,45.5-11-.1-22.4-1-32-6.3-11.1-6.1-18.3-17.1-26.8-26.6a119.79,119.79,0,0,0-90.1-39.3c-36.3.6-70.8,17.9-107.1,18.8-59.2,1.4-143.5-44.3-173.7-95.9-3.9-6.7-7.7-14.2-14.7-17.3-6.8-3-14.7-1-22.1.1-45.7,6.7-100.2-28.3-82.6-79.3C11.09,292.8,31.29,269.9,52.59,280.5Z"/><ellipse class="cls-2" cx="323.39" cy="288.2" rx="187" ry="36.5"/><ellipse class="cls-2" cx="404.39" cy="390.2" rx="52" ry="16.5"/><ellipse class="cls-2" cx="265.39" cy="358.2" rx="37" ry="11.8"/><ellipse class="cls-2" cx="704.39" cy="411.2" rx="187" ry="59.5"/><g id="_Group_" data-name="&lt;Group&gt;"><path class="cls-3" d="M76.09,135v.4l10.2,10.3,119.9,120.5.3.3,379.6-19.1,6.4-.3,7.4-.3-.6-14.7-285.9,14.4c-.5.4-1.1.8-1.6,1.2l1.4-1.2-99.9,5L75.79,112.2h-.6Z"/><path class="cls-4" d="M75.79,112.2l137.5,139.3,99.9-5,7.8-6.8c5.9-5.9,11.7-13.1,14.8-19.9,7.7-16.7,8.2-38.5,1-55.8-7.4-17.8-44.8-33.7-60.3-36.1l32.6-24.5Z"/><polygon class="cls-5" points="86.39 145.8 113.99 205.5 221.39 314.8 205.99 266.6 206.19 266.3 86.39 145.8"/><polygon class="cls-5" points="205.99 266.6 221.39 314.8 572.19 294.5 586.09 247.5 206.49 266.6 206.19 266.3 205.99 266.6"/><path class="cls-6" d="M309.19,103.3l-32.6,24.5c15.4,2.4,52.9,18.4,60.3,36.1,7.2,17.4,6.7,39.1-1,55.8-3.1,6.8-8.9,14-14.8,19.9l5.7-5,13.6-11.9,107.4-94,9.7-8.5,8.1-7.1c.4-.3.9-.5,1.3-.8,9.8-6.3,18.6-14.5,24.4-24.6a60.08,60.08,0,0,0,1.4-55.9,59.89,59.89,0,0,0-46-31.8Z"/><path class="cls-7" d="M568.29,222.1l-36.2,1.9L377,232.1l-50.3,2.6-5.7,5a89.12,89.12,0,0,1-7.6,6.8l285.9-14.4L466.79,112.3a9.12,9.12,0,0,1-1.3.8l-8.1,7.1.4.5,110.5,100.1Z"/><polygon class="cls-8" points="340.29 222.8 326.69 234.7 376.99 232.1 376.99 231.7 377.69 221.4 340.39 222.9 340.29 222.8"/><path class="cls-9" d="M340.29,222.8h0l37.4-1.4,96.1-67.2.3-.3c-14.5-13.8-26.4-25.1-26.4-25.1h0Z"/><path class="cls-9" d="M377.69,221.4l-.7,10.2v.4l155.1-8.1v-.5s2.4-2.6.9-8h-.1Z"/><path class="cls-10" d="M377.69,221.4l155.2-6h.1c-1-3.5-3.6-8.3-9.7-14.4-8.5-8.5-30.9-29.9-49.1-47.2l-.3.3Z"/><path class="cls-5" d="M447.69,128.8h0s11.9,11.3,26.4,25.1c18.2,17.3,40.6,38.7,49.1,47.2,6.1,6,8.7,10.8,9.7,14.4,1.5,5.4-.9,8-.9,8v.5l36.2-1.9-.1-1.2L457.59,120.8l-.4-.5Z"/></g><g id="_Group_2" data-name="&lt;Group&gt;"><path class="cls-11" d="M928.49,246.9l-25,23.3-221.6-41.7h-.1l.1-1.6,21.7-20Z"/><path class="cls-12" d="M903.49,270.2v10a106.71,106.71,0,0,1-4.2,16.4l-27.4-1.4Z"/><path class="cls-12" d="M903.49,270.2l-31.7,25s-115,76.1-126.6,134.7v-18S821.89,280.2,903.49,270.2Z"/><path class="cls-11" d="M501.49,333.1c-5.8-.6-11.3-1-16.2-1.2H422s96.6-118.2,259.8-103.3h.1l221.6,41.7c-81.7,10-158.3,141.6-158.3,141.6l-56.7-33.3C647.19,358.6,556.09,338.6,501.49,333.1Z"/><path class="cls-13" d="M871.89,295.2l27.4,1.4c-.4,1.2-.9,2.5-1.3,3.7-30.5,80.6-152.7,153.1-152.7,153.1V429.9C756.89,371.3,871.89,295.2,871.89,295.2Z"/><path class="cls-14" d="M745.19,429.9v23.6l-323.3-80s47.8-22.3,79.5-40.4c54.6,5.5,145.8,25.4,187.1,45.4l56.7,33.3v18.1Z"/><path class="cls-12" d="M485.29,331.9q7.35.3,16.2,1.2c-31.7,18.1-79.5,40.4-79.5,40.4V331.9Z"/></g><g id="_Group_3" data-name="&lt;Group&gt;"><path class="cls-15" d="M724,411.6l8.1,14c3.6,6.2-7.9,19.6-25.6,29.9-17.9,10.4-35.3,13.6-38.8,7.5l-8.1-14c3.6,6.2,21,2.9,38.8-7.5C716.09,431.3,727.49,417.8,724,411.6Z"/><path class="cls-16" d="M724,411.6,659.59,449c-3.6-6.2,7.9-19.6,25.8-30C703,408.7,720.39,405.5,724,411.6Z"/><path class="cls-16" d="M659.49,449l64.4-37.4c3.6,6.2-7.9,19.6-25.6,29.9S663.09,455.2,659.49,449Z"/></g><g id="_Group_4" data-name="&lt;Group&gt;"><path class="cls-15" d="M570.69,358.2l1.2,15.9c.5,7.3-15.7,14.2-36.3,15.8-20.4,1.5-37.5-3-38-10.2l-1.2-15.9c.5,7.1,17.6,11.8,38,10.2C555.09,372.4,571.29,365.3,570.69,358.2Z"/><path class="cls-17" d="M570.69,358.2l-74.3,5.5c-.5-7.3,15.7-14.2,36.1-15.7C553.09,346.5,570.19,350.9,570.69,358.2Z"/><path class="cls-17" d="M496.39,363.7l74.3-5.5c.5,7.1-15.7,14.2-36.3,15.8C514,375.5,497,370.8,496.39,363.7Z"/></g><g id="_Group_5" data-name="&lt;Group&gt;"><path class="cls-15" d="M642.39,374.8l1.2,16.1c.5,7.1-15.7,14.2-36.3,15.8-20.4,1.5-37.5-3.1-38-10.2l-1.2-16.1c.5,7.3,17.6,11.8,38,10.2C626.69,389,642.89,382.1,642.39,374.8Z"/><path class="cls-17" d="M642.39,374.8l-74.3,5.5c-.5-7.1,15.7-14.2,36.1-15.7C624.79,363,641.89,367.7,642.39,374.8Z"/><path class="cls-17" d="M568.09,380.3l74.3-5.5c.5,7.3-15.7,14.2-36.3,15.8C585.69,392.1,568.59,387.6,568.09,380.3Z"/></g><g id="_Group_6" data-name="&lt;Group&gt;"><path class="cls-15" d="M690.59,393.1l1.2,16.1c.5,7.3-15.7,14.2-36.1,15.7-20.6,1.5-37.7-3-38.2-10.2l-1.2-16.1c.5,7.3,17.6,11.8,38.2,10.2S691.19,400.4,690.59,393.1Z"/><path class="cls-17" d="M690.59,393.1l-74.3,5.5c-.5-7.1,15.7-14.2,36.3-15.8C673,381.3,690.09,386,690.59,393.1Z"/><path class="cls-17" d="M616.39,398.6l74.3-5.5c.5,7.3-15.7,14.2-36.1,15.7C633.89,410.4,616.89,405.9,616.39,398.6Z"/></g><g id="_Group_7" data-name="&lt;Group&gt;"><path class="cls-15" d="M593.39,489.3l9.2,13.2c4.1,5.8-6.2,20.2-23.1,32.1-16.8,11.7-33.8,16.4-37.9,10.6l-9.2-13.2c4.1,5.8,21.1,1.1,37.9-10.6C587.19,509.5,597.49,495.1,593.39,489.3Z"/><path class="cls-16" d="M593.39,489.3,532.29,532c-4.1-5.8,6.2-20.2,23-32C572.29,488.2,589.39,483.5,593.39,489.3Z"/><path class="cls-16" d="M532.39,532l61.1-42.7c4.1,5.8-6.2,20.2-23.1,32.1C553.49,533.1,536.49,537.8,532.39,532Z"/></g><g id="_Group_8" data-name="&lt;Group&gt;"><path class="cls-15" d="M507.39,472.8l-10.8,12c-4.7,5.3-21.2-1.5-36.5-15.2S436.19,440.3,441,435l10.8-12c-4.7,5.3,3.7,20.8,19.1,34.6C486.09,471.3,502.59,478.1,507.39,472.8Z"/><path class="cls-16" d="M507.39,472.8,451.79,423c4.7-5.3,21.1,1.4,36.5,15.2C503.49,451.9,512.09,467.5,507.39,472.8Z"/><path class="cls-16" d="M451.69,423l55.6,49.8c-4.7,5.3-21.2-1.5-36.5-15.2S447,428.3,451.69,423Z"/></g><g id="_Group_9" data-name="&lt;Group&gt;"><path class="cls-15" d="M485.29,373l-1.6,16.1c-.7,7.1-17.9,11.3-38.3,9.2-20.6-2.1-36.5-9.6-35.8-16.7l1.6-16.1c-.7,7.3,15.3,14.6,35.8,16.7S484.59,380.2,485.29,373Z"/><path class="cls-16" d="M485.29,373l-74.1-7.5c.7-7.1,17.9-11.3,38.5-9.2C470.09,358.3,486.09,365.9,485.29,373Z"/><path class="cls-16" d="M411.19,365.5l74.1,7.5c-.7,7.3-17.9,11.3-38.3,9.2S410.49,372.7,411.19,365.5Z"/></g><g id="_Group_10" data-name="&lt;Group&gt;"><path class="cls-15" d="M574.09,396.5l1.2,16.1c.5,7.1-15.7,14.2-36.3,15.8-20.4,1.5-37.5-3.1-38-10.2l-1.2-16.1c.5,7.1,17.6,11.8,38,10.2C558.49,410.7,574.59,403.6,574.09,396.5Z"/><path class="cls-16" d="M574.09,396.5l-74.3,5.5c-.5-7.3,15.7-14.2,36.1-15.7C556.49,384.8,573.59,389.2,574.09,396.5Z"/><path class="cls-16" d="M499.79,402l74.3-5.5c.5,7.1-15.7,14.2-36.3,15.8C517.39,413.8,500.39,409.1,499.79,402Z"/></g><g id="_Group_11" data-name="&lt;Group&gt;"><path class="cls-15" d="M616,456.7l-7.2,14.4c-3.2,6.4-20.7,4.2-39.1-5s-30.8-22-27.6-28.3l7.2-14.4c-3.3,6.5,9.1,19.1,27.6,28.3S612.79,463.2,616,456.7Z"/><path class="cls-16" d="M616,456.7l-66.6-33.3c3.2-6.4,20.7-4.2,39.2,5C606.89,437.6,619.19,450.3,616,456.7Z"/><path class="cls-16" d="M549.39,423.4,616,456.7c-3.3,6.5-20.7,4.2-39.1-5S546.09,429.9,549.39,423.4Z"/></g></g></g></g></svg>