<svg xmlns="http://www.w3.org/2000/svg" xmlns:xlink="http://www.w3.org/1999/xlink" viewBox="0 0 2583.84 1997.96"><defs><style>.cls-1,.cls-30{fill:none;}.cls-2{clip-path:url(#clip-path);}.cls-3{fill:#9baa93;}.cls-4{fill:#3c6868;}.cls-5{fill:#1b4b4c;}.cls-6{fill:#c7e5e9;}.cls-7{fill:#cfe0e6;}.cls-8{fill:#fff8e8;}.cls-9{fill:#fcecc5;}.cls-10{fill:#eda2a1;}.cls-11{fill:#c3e0e2;}.cls-12{fill:#74739a;}.cls-13{fill:#605f81;}.cls-14{fill:#9090bc;}.cls-15{fill:#fff4dc;}.cls-16{fill:#474667;}.cls-17{fill:#6e969f;}.cls-18{fill:#fbe5aa;}.cls-19{fill:#4c4b6d;}.cls-20{fill:#50787d;}.cls-21{fill:#95bdc8;}.cls-22{fill:#dd8d8e;}.cls-23{fill:#bbdadd;}.cls-24{fill:#434264;}.cls-25{fill:#dca379;}.cls-26{fill:#a27252;}.cls-27{fill:#7b4f38;}.cls-28{fill:#8e6045;}.cls-29{fill:#c4906c;}.cls-30{stroke:#8e6045;stroke-miterlimit:10;stroke-width:2.61px;}.cls-31{fill:#c98967;}.cls-32{fill:#b26845;}.cls-33{fill:#bf754c;}.cls-34,.cls-39,.cls-41{fill:#fff;}.cls-34{opacity:0.4;}.cls-34,.cls-39,.cls-41,.cls-43,.cls-57{isolation:isolate;}.cls-35{fill:#fff2db;}.cls-36{fill:#f9e3a8;}.cls-37,.cls-43{fill:#93bcc7;}.cls-38{fill:#c4e4ea;}.cls-39{opacity:0.33;}.cls-40{fill:#bd744b;}.cls-41{opacity:0.15;}.cls-42{fill:#e2a07a;}.cls-43{opacity:0.37;}.cls-44{fill:#f3985e;}.cls-45{fill:#e97625;}.cls-46{fill:#99a892;}.cls-47{fill:#3e6a69;}.cls-48{fill:#c38263;}.cls-49{fill:#cf641e;}.cls-50{fill:#e5884b;}.cls-51{fill:#d5ecf4;}.cls-52{fill:#915437;}.cls-53{fill:#c62;}.cls-54{fill:#f7bb90;}.cls-55{fill:#a6cdd1;}.cls-56{fill:#abdae2;}.cls-57{fill:#1f1e36;opacity:0.5;}.cls-58{fill:#fae4aa;}.cls-59{fill:#eea3a2;}.cls-60{clip-path:url(#clip-path-2);}.cls-61{clip-path:url(#clip-path-11);}.cls-62{clip-path:url(#clip-path-12);}.cls-63{clip-path:url(#clip-path-14);}.cls-64{clip-path:url(#clip-path-19);}.cls-65{clip-path:url(#clip-path-21);}.cls-66{clip-path:url(#clip-path-24);}.cls-67{clip-path:url(#clip-path-25);}.cls-68{clip-path:url(#clip-path-27);}.cls-69{clip-path:url(#clip-path-36);}.cls-70{clip-path:url(#clip-path-37);}.cls-71{clip-path:url(#clip-path-39);}.cls-72{clip-path:url(#clip-path-45);}.cls-73{clip-path:url(#clip-path-46);}</style><clipPath id="clip-path" transform="translate(0 -33.9)"><rect class="cls-1" x="369.84" width="1920" height="1887.8"/></clipPath><clipPath id="clip-path-2" transform="translate(0 -33.9)"><path class="cls-1" d="M1155,979.2h-24.9v.1H979.24a22,22,0,0,0-21.8,25.1l4.3,30.8v78.3a4.48,4.48,0,0,0,4.5,4.5h3.1a4.48,4.48,0,0,0,4.5-4.5v-35.4a21.89,21.89,0,0,1,21.9-21.9h80.4v57.9a3.9,3.9,0,0,0,3.9,3.9h4.4a3.9,3.9,0,0,0,3.9-3.9V1074a22.18,22.18,0,0,1,13.9-20.6,38.52,38.52,0,0,0,19.5-17.6l10.4-17.4a22.87,22.87,0,0,1,19.7-11.1h3.2V979.2Z"/></clipPath><clipPath id="clip-path-11" transform="translate(0 -33.9)"><path class="cls-1" d="M1161.54,958.9l-26.3,4.7a5.4,5.4,0,0,0-4.3,6.6l8.7,34.8a8.75,8.75,0,0,0,4.2,5.5,8.07,8.07,0,0,0,5.7,1c-.3-1.9,2.8-4.1,6.9-4.8s7.7.2,8.1,2.1a8.79,8.79,0,0,0,5-2.9,8.89,8.89,0,0,0,2.1-6.7l-3.8-35.6A5.54,5.54,0,0,0,1161.54,958.9Z"/></clipPath><clipPath id="clip-path-12" transform="translate(0 -33.9)"><path class="cls-1" d="M1169.24,1006.3a5,5,0,0,1-6.1.9,11,11,0,0,0-6.7-.5,11.58,11.58,0,0,0-6.1,2.8,5.25,5.25,0,0,1-5.9,1.3l-.6-.3c1.3,4.2,7.4,6.6,14.3,5.4s11.8-5.6,11.5-9.9A1.4,1.4,0,0,0,1169.24,1006.3Z"/></clipPath><clipPath id="clip-path-14" transform="translate(0 -33.9)"><path class="cls-1" d="M1113.34,1113.1h16.5v.1h99.9a14.53,14.53,0,0,1,14.4,16.6l-2.9,20.4v51.9a3,3,0,0,1-3,3h-2.1a3,3,0,0,1-3-3v-23.4a14.51,14.51,0,0,0-14.5-14.5h-53.2v38.3a2.58,2.58,0,0,1-2.6,2.6h-2.9a2.58,2.58,0,0,1-2.6-2.6V1176a14.94,14.94,0,0,0-9.2-13.7,25.41,25.41,0,0,1-12.9-11.7l-6.9-11.5a15.11,15.11,0,0,0-13-7.4h-2.1v-18.6Z"/></clipPath><clipPath id="clip-path-19" transform="translate(0 -33.9)"><path class="cls-1" d="M1108.74,1133.4a3.35,3.35,0,0,0,4,.6,6.88,6.88,0,0,1,4.4-.3,6.54,6.54,0,0,1,4,1.9,3.42,3.42,0,0,0,3.9.9c.1-.1.3-.1.4-.2-.8,2.8-4.9,4.4-9.4,3.6s-7.8-3.7-7.6-6.6C1108.63,1133.2,1108.63,1133.3,1108.74,1133.4Z"/></clipPath><clipPath id="clip-path-21" transform="translate(0 -33.9)"><path class="cls-1" d="M1003.43,1241.6H856.13a55.19,55.19,0,0,0-48.1,28.1l-17.6,31.1,35.6,20.1,8.8-15.6a4.69,4.69,0,0,1,8.1-.1h0a43,43,0,0,0,22,19.8,25,25,0,0,1,15.7,23.2v45.1a4.27,4.27,0,0,0,4.3,4.3h5a4.27,4.27,0,0,0,4.3-4.3v-65.1h90.4a24.58,24.58,0,0,1,24.6,24.6v39.8a5.12,5.12,0,0,0,5.1,5.1h3.5a5.12,5.12,0,0,0,5.1-5.1v-88l4.9-34.7A24.73,24.73,0,0,0,1003.43,1241.6Z"/></clipPath><clipPath id="clip-path-24" transform="translate(0 -33.9)"><path class="cls-1" d="M796.84,1296l29.5,5.7a6.1,6.1,0,0,1,4.7,7.5l-10.3,38.9a9.6,9.6,0,0,1-4.8,6.1,10.28,10.28,0,0,1-6.5,1.1c.3-2.2-3.1-4.6-7.7-5.5s-8.7.1-9.2,2.2a10.29,10.29,0,0,1-5.6-3.3,9.51,9.51,0,0,1-2.2-7.5l4.9-40A6,6,0,0,1,796.84,1296Z"/></clipPath><clipPath id="clip-path-25" transform="translate(0 -33.9)"><path class="cls-1" d="M787.34,1349.1a5.92,5.92,0,0,0,6.9,1.2,12.8,12.8,0,0,1,7.5-.5,13.1,13.1,0,0,1,6.8,3.2,5.75,5.75,0,0,0,6.6,1.6,2.52,2.52,0,0,0,.7-.4c-1.5,4.7-8.5,7.3-16.1,5.8s-13.1-6.4-12.8-11.3Z"/></clipPath><clipPath id="clip-path-27" transform="translate(0 -33.9)"><path class="cls-1" d="M1322.54,1423.3H1293v.1h-178.9a26.08,26.08,0,0,0-25.8,29.7l5.1,36.6v92.8a5.27,5.27,0,0,0,5.3,5.3h3.7a5.27,5.27,0,0,0,5.3-5.3v-41.9a25.91,25.91,0,0,1,25.9-25.9h95.3v68.6a4.59,4.59,0,0,0,4.6,4.6h5.2a4.59,4.59,0,0,0,4.6-4.6v-47.5a26.42,26.42,0,0,1,16.5-24.5,45.55,45.55,0,0,0,23.2-20.9l12.3-20.6a27.06,27.06,0,0,1,23.3-13.2h3.7v-33.3Z"/></clipPath><clipPath id="clip-path-36" transform="translate(0 -33.9)"><path class="cls-1" d="M1342.74,1416.1l-30.4-9a6.38,6.38,0,0,0-8,4.7l-9.2,41.5a10.81,10.81,0,0,0,1.5,8.1,10.35,10.35,0,0,0,5.5,4.1c.7-2.2,5.1-2.8,9.9-1.4s8.1,4.3,7.5,6.6a9.91,9.91,0,0,0,6.8-.4,10.23,10.23,0,0,0,5.7-6l14.8-39.8A6.4,6.4,0,0,0,1342.74,1416.1Z"/></clipPath><clipPath id="clip-path-37" transform="translate(0 -33.9)"><path class="cls-1" d="M1325.74,1470.4a6.27,6.27,0,0,1-7-2.2,13.41,13.41,0,0,0-6.8-4.1c-3.1-.9-6.1-1-8-.3a6,6,0,0,1-6.9-1.8c-.2-.2-.3-.5-.5-.7-.9,5.1,4.4,10.9,12.3,13.3s15.4.3,17.5-4.4A1.42,1.42,0,0,1,1325.74,1470.4Z"/></clipPath><clipPath id="clip-path-39" transform="translate(0 -33.9)"><path class="cls-1" d="M875.44,1404.8h-17.2v.1H754.13a15.18,15.18,0,0,0-15,17.3l3,21.3v54.1a3.12,3.12,0,0,0,3.1,3.1h2.2a3.12,3.12,0,0,0,3.1-3.1v-24.4a15.15,15.15,0,0,1,15.1-15.1h55.5v40a2.69,2.69,0,0,0,2.7,2.7h3.1a2.69,2.69,0,0,0,2.7-2.7v-27.7a15.22,15.22,0,0,1,9.6-14.2,26.36,26.36,0,0,0,13.5-12.2l7.2-12a15.82,15.82,0,0,1,13.6-7.7h2.2v-19.5Z"/></clipPath><clipPath id="clip-path-45" transform="translate(0 -33.9)"><path class="cls-1" d="M887.24,1400.6l-17.7-5.2a3.77,3.77,0,0,0-4.7,2.8l-5.4,24.1a5.9,5.9,0,0,0,.9,4.7,6,6,0,0,0,3.2,2.4c.4-1.3,3-1.6,5.8-.8s4.7,2.5,4.4,3.8a6,6,0,0,0,4-.2,5.73,5.73,0,0,0,3.3-3.5l8.6-23.2A3.68,3.68,0,0,0,887.24,1400.6Z"/></clipPath><clipPath id="clip-path-46" transform="translate(0 -33.9)"><path class="cls-1" d="M877.34,1432.3a3.65,3.65,0,0,1-4.1-1.3,8,8,0,0,0-4-2.4,8.19,8.19,0,0,0-4.6-.2,3.53,3.53,0,0,1-4-1c-.1-.1-.2-.3-.3-.4-.5,3,2.6,6.4,7.1,7.7s9,.2,10.2-2.6C877.54,1432.2,877.44,1432.2,877.34,1432.3Z"/></clipPath></defs><title>Asset 4</title><g id="Layer_2" data-name="Layer 2"><g id="Layer_1-2" data-name="Layer 1"><g class="cls-2"><g id="รูปล่างสุด"><path class="cls-3" d="M276.24,1022.4c45.3-12.8,85.6-39.1,129.7-55.7,142.4-53.4,299.6,1.3,451.3,10.3,53.5,3.2,107.7.6,160.4,10.2,45.1,8.2,87.8,25.2,129.4,44.1,18.9,8.6,33.8,16.6,54,18.8,24.6,2.7,48-.9,72.4,6.7,11.3,3.5,22.7,9.1,29.6,18.8,10.4,14.5,8.8,34.6,17.1,50.4,15.9,30.6,53.2,47.4,56.1,83.8,2.8,34.7-20.7,68-9,102.9,12.5,37.3,60.6,46.9,99.9,45.7s140.3-16.5,167.8,11.6c20.7,21.2,25.3,55.5,49.1,73.1,28.6,21.1,12.7,19.7,46.3,8.2,79.9-27.4,165.7-39.8,250-34,67.7,4.6,171.2,18.8,213.2,80.1,12.5,18.3,13.6,43.1,26.9,59.6,12.5,15.6,36.7,24.5,56,26,89.2,7.3,159.2-78,209.2,39.9,21.5,50.7,80.6,186.4,82.5,241.4.2,5.8-.1,12.5-4.7,16-3.3,2.6-7.9,2.6-11.9,3.8-20.6,6.2-19.1,36.5-32.6,53.4-14,17.4-59.3,29.5-79.9,38.4-28,12.1-52.7,13-83.9,17.1-603.8,79.5-1262.5,18.7-1870.2-20.6-122.9-7.9-251.5-20.2-354.5-87.8-47.5-31.2-88.4-74.5-109.3-127.4C1.74,1708.1.64,1653.9.24,1601.1q-1.95-254.4,12-508.7c.6-11.3,1.5-23.3,8.3-32.4,18.3-24.5,71.7-14.1,98.6-20C167.84,1029.4,224.74,1036.9,276.24,1022.4Z" transform="translate(0 -33.9)"/><ellipse class="cls-4" cx="1103.54" cy="1553.5" rx="271.8" ry="80"/><ellipse class="cls-4" cx="1574.74" cy="1578.6" rx="258.2" ry="76"/><ellipse class="cls-4" cx="2019.03" cy="1611.9" rx="349.9" ry="103"/><ellipse class="cls-4" cx="1926.64" cy="1455.4" rx="268.7" ry="79.1"/><ellipse class="cls-4" cx="2385.74" cy="1542.2" rx="198.1" ry="58.3"/><ellipse class="cls-4" cx="1300.14" cy="1619.1" rx="189.5" ry="55.8"/><ellipse class="cls-4" cx="997.13" cy="1479.7" rx="128.3" ry="37.8"/><ellipse class="cls-4" cx="1506.84" cy="1335.9" rx="128.3" ry="37.8"/><ellipse class="cls-4" cx="900.34" cy="1239.2" rx="163.5" ry="48.1"/><ellipse class="cls-4" cx="1563.24" cy="1720.6" rx="83.8" ry="24.7"/><ellipse class="cls-4" cx="632.54" cy="1294.5" rx="83.8" ry="24.7"/><ellipse class="cls-4" cx="440.84" cy="1158.5" rx="125" ry="36.8"/><ellipse class="cls-4" cx="1229.43" cy="1454.5" rx="224" ry="65.9"/><ellipse class="cls-4" cx="1147.84" cy="1166" rx="222.3" ry="60.3"/><ellipse class="cls-4" cx="832.33" cy="1040.6" rx="478.1" ry="94.4"/><ellipse class="cls-4" cx="1153.54" cy="1341.8" rx="353.3" ry="85.3"/><ellipse class="cls-4" cx="727.84" cy="1431.4" rx="353.3" ry="85.3"/><ellipse class="cls-5" cx="980.84" cy="1080.3" rx="29" ry="7.5"/><ellipse class="cls-5" cx="1241.84" cy="1171.3" rx="29" ry="7.5"/><ellipse class="cls-5" cx="976.84" cy="1363.3" rx="29" ry="7.5"/><ellipse class="cls-5" cx="1117.84" cy="1554.3" rx="36" ry="7.5"/><ellipse class="cls-5" cx="1561.84" cy="1572.3" rx="36" ry="7.5"/><ellipse class="cls-5" cx="765.84" cy="1466.3" rx="29" ry="7.5"/><ellipse class="cls-5" cx="1108.34" cy="1080.3" rx="19.5" ry="5"/><ellipse class="cls-5" cx="1155.34" cy="1172.3" rx="19.5" ry="5"/><ellipse class="cls-5" cx="900.34" cy="1363.3" rx="19.5" ry="5"/><ellipse class="cls-5" cx="1051.34" cy="1341.3" rx="36.7" ry="9.5"/><ellipse class="cls-5" cx="1288.34" cy="1558.3" rx="36.7" ry="9.5"/><ellipse class="cls-5" cx="1229.34" cy="1553.3" rx="19.5" ry="5"/><ellipse class="cls-5" cx="868.34" cy="1478.3" rx="19.5" ry="5"/><ellipse class="cls-5" cx="1062.34" cy="1536.3" rx="19.5" ry="5"/><ellipse class="cls-5" cx="1316.34" cy="1578.3" rx="19.5" ry="5"/><ellipse class="cls-5" cx="1488.34" cy="1587.3" rx="19.5" ry="5"/><ellipse class="cls-5" cx="1123.34" cy="1137.3" rx="9.5" ry="2.5"/><ellipse class="cls-5" cx="1015.34" cy="1378.3" rx="9.5" ry="2.5"/><ellipse class="cls-5" cx="1246.34" cy="1573.3" rx="9.5" ry="2.5"/><ellipse class="cls-5" cx="845.34" cy="1466.3" rx="9.5" ry="2.5"/><ellipse class="cls-5" cx="1074.34" cy="1085.3" rx="13.5" ry="3.5"/><ellipse class="cls-5" cx="1179.34" cy="1182.3" rx="13.5" ry="3.5"/><ellipse class="cls-5" cx="938.34" cy="1094.3" rx="13.5" ry="3.5"/><ellipse class="cls-5" cx="873.34" cy="1073.3" rx="13.5" ry="3.5"/><ellipse class="cls-5" cx="912.34" cy="1018.3" rx="85.5" ry="22.1"/><ellipse class="cls-5" cx="807.34" cy="1064.3" rx="38.5" ry="9.9"/><ellipse class="cls-5" cx="560.34" cy="1064.3" rx="28.5" ry="7.4"/><ellipse class="cls-5" cx="490.34" cy="1176.3" rx="28.5" ry="7.4"/><ellipse class="cls-5" cx="416.34" cy="1169.3" rx="13.5" ry="3.5"/><ellipse class="cls-5" cx="404.84" cy="1149.3" rx="36" ry="9.3"/><ellipse class="cls-5" cx="683.34" cy="1014.3" rx="161.5" ry="41.7"/><ellipse class="cls-5" cx="1089.34" cy="1096.3" rx="6.5" ry="1.7"/><ellipse class="cls-5" cx="1889.84" cy="1600.9" rx="299" ry="39"/><g id="_Group_" data-name="&lt;Group&gt;"><path class="cls-6" d="M556.84,550c2.6-2,5.2-4,8-6-8.5-2.4-13.9-5.1-15.5-8l-.5.2-53.9,45.7s-35.8,28.7-32.3,61.7c.6,5.4,2.8,19.8,5.9,40.2,3,4.2,10.8,8.2,22.7,11.8l-9.5-63.7v-.1a3.4,3.4,0,0,1-.2-1.4C481.54,630.3,477.34,610,556.84,550Z" transform="translate(0 -33.9)"/><path class="cls-7" d="M467.14,679.8s-20.5,33.9,4.8,59.8a25.09,25.09,0,0,0,6.3,4.4,114,114,0,0,0,21.6,8.3c19,5.8,46.7,11.3,81,14.9-5.9-4.8-9.3-9.9-10.8-14.9a498.16,498.16,0,0,1-81.4-17.4c-16.3-9.3-18.2-24.4-10.3-29.4,4.1-2.6,34.9,11.6,99.2,18.4a85.4,85.4,0,0,1,13.2-13.9c-42.4-2.8-77.5-8-99.3-14.6-11.8-3.6-19.7-7.5-22.7-11.8A5.22,5.22,0,0,1,467.14,679.8Z" transform="translate(0 -33.9)"/><path class="cls-8" d="M478.14,705.7c-7.9,5-6,20.1,10.3,29.4a480.14,480.14,0,0,0,81.4,17.4c-3.2-10.2,1.3-20.2,7.5-28.4C513.14,717.2,482.34,703,478.14,705.7Z" transform="translate(0 -33.9)"/><path class="cls-7" d="M556.84,550c-79.6,60.1-75.3,80.4-75.3,80.4,0-9.4,29.7-17.8,75.3-22.9Z" transform="translate(0 -33.9)"/><path class="cls-9" d="M481.54,630.3l.2,1.4v.1c3.7,11.2,49.9,20.8,114.3,24.8V646.3c0-2.1.1-4.2.2-6.3-14.6.3-31.3-1.5-39.4-9.8V607.3C511.24,612.6,481.54,620.9,481.54,630.3Z" transform="translate(0 -33.9)"/><path class="cls-8" d="M481.84,631.8l9.5,63.7c21.8,6.6,56.9,11.8,99.3,14.6a63.52,63.52,0,0,1,5.4-4.3V656.6C531.74,652.6,485.54,643.1,481.84,631.8Z" transform="translate(0 -33.9)"/><path class="cls-6" d="M499.74,752.4c-9.3-2.8-16.6-5.6-21.6-8.3,15.8,97.7,38.8,236.7,46.9,285.4l15.6-2.3Z" transform="translate(0 -33.9)"/><path class="cls-8" d="M499.74,752.4l40.9,274.8.2,1.1c0,9.6,45.7,17.6,105.3,19l-39.9-277.7c-8.8-.6-17.3-1.4-25.4-2.3C546.44,763.7,518.74,758.2,499.74,752.4Z" transform="translate(0 -33.9)"/><path class="cls-6" d="M508.64,394.3s-27,23.1,0,55.3a9.43,9.43,0,0,0,1,1c3,2.8,9.2,5.7,18.2,8.7-1.5-1.8-35.7-41.5.1-52.6v-.1C515.64,403,508.64,398.8,508.64,394.3Z" transform="translate(0 -33.9)"/><path class="cls-10" d="M549.34,536.1c1.5,2.9,7,5.6,15.5,8l-36.9-84.6-.1-.1c-9-2.9-15.2-5.9-18.2-8.7l-1,.9,40.3,84.6Z" transform="translate(0 -33.9)"/><path class="cls-11" d="M554,376.1c-28,4.7-45.4,11.1-45.4,18.2,0,4.5,7,8.7,19.3,12.4,16.2,4.9,41.5,8.8,72.1,11.1-24-5-36.2-13.5-41.8-18.9-2.8-1.6-4.2-3.3-4.2-5V376.1Z" transform="translate(0 -33.9)"/><path class="cls-6" d="M528.24,1045.9c1.8,11.4,54,20.5,120.8,21.8l-2.9-20.4c-59.6-1.4-105.3-9.3-105.3-19l-.2-1.1-15.6,2.3c1.4,8.4,2.4,14.2,2.8,16.5Z" transform="translate(0 -33.9)"/><path class="cls-7" d="M527.94,406.8c-35.7,11.1-1.6,50.8-.1,52.6l.1.1c20.1,6.5,54,12.6,97.1,15-27.9-27.7,16.9-52.4,16.9-52.4-16.9-.2-30.7-1.8-41.9-4.2-30.6-2.4-55.9-6.3-72.1-11.1Z" transform="translate(0 -33.9)"/><path class="cls-10" d="M527.94,459.4l36.9,84.6c13,3.7,33.4,6.5,57.7,8.1,13.1.9,27.5,1.3,42.4,1.3L639,475l-12.9.5a11.4,11.4,0,0,1-1.1-1.1C581.94,472,548,465.9,527.94,459.4Z" transform="translate(0 -33.9)"/><path class="cls-12" d="M554,376.1v17.8a24.37,24.37,0,0,0,4.2,5c4.5,2.6,12.2,4.9,22.5,6.9V52.5c-15.3-.8-26.8-4.6-26.8-9.2V376.1Z" transform="translate(0 -33.9)"/><path class="cls-13" d="M556.84,607.5v22.9c8.1,8.3,24.8,10,39.4,9.8a83.9,83.9,0,0,1,11.4-36.7C589.24,604.3,572.14,605.7,556.84,607.5Z" transform="translate(0 -33.9)"/><path class="cls-13" d="M556.84,550v57.5c15.3-1.8,32.3-3.2,50.8-4.1a101.34,101.34,0,0,1,14.9-19.9V552.2c-24.3-1.6-44.7-4.5-57.7-8.1C562.14,546,559.44,548,556.84,550Z" transform="translate(0 -33.9)"/><path class="cls-14" d="M586.84,33.9c-18.1,0-32.8,4.2-32.8,9.4,0,4.6,11.5,8.4,26.8,9.2,2,.1,4,.2,6,.2,18.1,0,32.8-4.2,32.8-9.4S604.94,33.9,586.84,33.9Zm-17.3,9.4c0-2.8,7.7-5,17.3-5s17.3,2.2,17.3,5-7.7,5-17.3,5S569.54,46.1,569.54,43.3Z" transform="translate(0 -33.9)"/><path class="cls-15" d="M577.44,724c-6.1,8.2-10.6,18.3-7.5,28.4,125.7,16.7,246.7-8.9,261.3-11.7,17.7-3.4,21.5-8.1,24.8-22.9s-14.9-12-14.9-12C722,730.2,635.94,730.1,577.44,724Z" transform="translate(0 -33.9)"/><path class="cls-16" d="M586.84,38.3c-9.6,0-17.3,2.2-17.3,5s7.7,5,17.3,5,17.3-2.2,17.3-5S596.44,38.3,586.84,38.3Z" transform="translate(0 -33.9)"/><path class="cls-7" d="M861,684.3c-3.3,4-10.9,7.8-22.1,11.2-33.6,10.2-98.8,17.1-173.9,17.1-26.3,0-51.4-.9-74.4-2.4a85.42,85.42,0,0,0-13.2,13.9c58.5,6.1,144.7,6.2,263.7-18.2,0,0,18.3-2.9,14.9,12s-7.1,19.6-24.8,22.9c-14.6,2.8-135.6,28.4-261.3,11.7,1.5,5,4.9,10,10.8,14.9l25.4,2.2v.1c18.2,1.3,37.9,2,58.8,2,74,0,132.3-9.3,165.2-19.2a123.55,123.55,0,0,0,21.2-8.1,31.82,31.82,0,0,0,6.7-4.6c25.2-25.9,4.7-59.8,4.7-59.8A7,7,0,0,1,861,684.3Z" transform="translate(0 -33.9)"/><path class="cls-17" d="M580.74,405.9c-10.3-2-18.1-4.3-22.5-6.9,5.6,5.3,17.8,13.8,41.8,18.9,19.8,1.5,41.8,2.3,64.9,2.3,6.7,0,13.3-.1,19.8-.2a.37.37,0,0,1,.3-.1h.6c35.8-.8,67.9-3.6,91.8-7.7l-57-2.5c-16.3,1.5-35.3,2.5-55.6,2.5-16.1,0-31.4-.6-45.3-1.6A361.93,361.93,0,0,1,580.74,405.9Z" transform="translate(0 -33.9)"/><path class="cls-13" d="M580.74,52.7V405.8a353.26,353.26,0,0,0,38.8,4.8V43.2c0,5.2-14.7,9.4-32.8,9.4-2.1,0-4.1-.1-6-.2Z" transform="translate(0 -33.9)"/><path class="cls-15" d="M596,705.8a63.52,63.52,0,0,0-5.4,4.3c22.9,1.5,48.1,2.4,74.4,2.4,75.1,0,140.3-6.9,173.9-17.1l-.1-.3,9.4-63.3c-4.9,15-85,26.9-183.2,26.9-24.4,0-47.7-.7-68.9-2.1C596,698.4,596,705,596,705.8Z" transform="translate(0 -33.9)"/><path class="cls-18" d="M596,646.4v10.3c21.3,1.3,44.6,2.1,68.9,2.1,98.2,0,178.3-11.9,183.2-26.9v-.1l.2-1.4c0-15.7-82.1-28.4-183.4-28.4-14.6,0-28.8.3-42.4.8v35a178.83,178.83,0,0,1-26.3,2.4C596.14,642.2,596,644.3,596,646.4Z" transform="translate(0 -33.9)"/><path class="cls-15" d="M606.24,769.6l39.9,277.7c6.1.2,12.4.2,18.9.2,68.6,0,124.2-8.6,124.2-19.2l18.3-123,.5-.1c-1.3-13.8.5-21.6.5-21.6,0-9.1,2.3-16.8,5.6-20l-.3-.4,16.5-110.9c-32.9,9.9-91.3,19.2-165.2,19.2C644,771.6,624.34,770.9,606.24,769.6Z" transform="translate(0 -33.9)"/><path class="cls-19" d="M607.64,603.4a84.32,84.32,0,0,0-11.4,36.7,178.91,178.91,0,0,0,26.3-2.4v-35C617.54,602.9,612.54,603.2,607.64,603.4Z" transform="translate(0 -33.9)"/><path class="cls-19" d="M607.64,603.4c4.9-.2,9.9-.5,14.9-.6V583.5A101.35,101.35,0,0,0,607.64,603.4Z" transform="translate(0 -33.9)"/><path class="cls-20" d="M619.64,377.2v33.4c13.8,1,29.1,1.6,45.3,1.6,20.3,0,39.3-.9,55.6-2.5,33-3.2,55.2-9.1,55.2-15.8,0-10.1-49.6-18.4-110.9-18.4C646.94,375.6,634.54,376,619.64,377.2Z" transform="translate(0 -33.9)"/><path class="cls-11" d="M619.64,375.9v1.3c15-1.2,27.4-1.6,45.3-1.6,61.3,0,110.9,8.3,110.9,18.4,0,6.8-22.2,12.7-55.2,15.8l57,2.5h.1c27.1-4.6,43.8-11,43.8-17.9,0-14.3-70-25.9-156.4-25.9-17.4,0-29.7.2-45.4,1.1v6.3Z" transform="translate(0 -33.9)"/><path class="cls-21" d="M622.54,583.5v19.3c13.6-.5,27.8-.8,42.4-.8,101.3,0,183.4,12.7,183.4,28.4a6.75,6.75,0,0,1-.2,1.4v.1l-9.4,63.3.1.3c11.2-3.4,18.9-7.2,22.1-11.2,3.3-21.6,5.7-37.1,6.3-42.7a46.46,46.46,0,0,0-.2-11.2.1.1,0,0,0-.1-.1c-2.8-2.6-91.8-86.1-117.8-82.8-21.2,3.7-51,6-84.2,6A138.12,138.12,0,0,0,622.54,583.5Z" transform="translate(0 -33.9)"/><path class="cls-7" d="M622.54,552.2v31.3a138.08,138.08,0,0,1,42.4-30C650,553.5,635.63,553,622.54,552.2Z" transform="translate(0 -33.9)"/><path class="cls-21" d="M641.94,422s-44.7,24.7-16.9,52.4c12.6.7,25.9,1.1,39.9,1.1,41,0,76.2-3.4,102.9-8.1,42.4-45.8-73.6-47.5-82.2-47.5H685a.37.37,0,0,0-.3.1A374.11,374.11,0,0,1,641.94,422Z" transform="translate(0 -33.9)"/><path class="cls-22" d="M767.84,467.5c-26.7,4.7-61.9,8.1-102.9,8.1-14,0-27.4-.4-39.9-1.1a11.41,11.41,0,0,0,1.1,1.1l12.9-.5,25.9,78.4c33.2,0,63-2.3,84.2-6,19.8-3.5,31.9-8.1,31.9-13.2l4.5-9.4c12.3-31.8-4.5-60.1-4.5-60.1C777,465.8,772.54,466.7,767.84,467.5Z" transform="translate(0 -33.9)"/><path class="cls-17" d="M600,417.8c11.2,2.4,24.9,4,41.9,4.2a354.36,354.36,0,0,0,42.8-2.1c-6.5.1-13.1.2-19.8.2C641.84,420.1,619.84,419.3,600,417.8Z" transform="translate(0 -33.9)"/><path class="cls-23" d="M646.13,1047.3l2.9,20.4c5.2.1,10.6.2,15.9.2,75.6,0,136.9-10.1,136.9-22.6h.2s7.1-43,16.7-101.1l-1.3-.2a147.76,147.76,0,0,1-9.5-38.7l-.5.1-18.3,123c0,10.6-55.6,19.2-124.2,19.2C658.54,1047.6,652.24,1047.5,646.13,1047.3Z" transform="translate(0 -33.9)"/><path class="cls-17" d="M749.13,547.5c26-3.4,115.1,80.2,117.8,82.8-4-28-31.9-50.4-31.9-50.4l-53.9-45.6C781.13,539.4,768.94,544,749.13,547.5Z" transform="translate(0 -33.9)"/><path class="cls-17" d="M767.84,467.5c4.7-.8,9.1-1.7,13.2-2.6,22-4.8,36.2-10.4,40.2-15.2,7.2-40.1-41.5-37.6-43.8-37.5h-.1c-23.9,4.1-55.9,6.9-91.8,7.7C694.34,420,810.24,421.6,767.84,467.5Z" transform="translate(0 -33.9)"/><path class="cls-21" d="M777.54,412.2c2.3-.2,51-2.6,43.8,37.5,27.1-32.3,0-55.3,0-55.3C821.34,401.3,804.63,407.6,777.54,412.2Z" transform="translate(0 -33.9)"/><path class="cls-22" d="M785.63,524.9l35.7-75.3c-4,4.8-18.2,10.4-40.2,15.2C781.13,464.9,797.84,493.2,785.63,524.9Z" transform="translate(0 -33.9)"/><path class="cls-17" d="M808.54,883.7s-1.8,7.8-.5,21.6a141,141,0,0,0,9.5,38.7l1.3.2c.9-5.4,1.8-10.9,2.8-16.5,1.7-10,3.4-20.4,5.1-31h-2v.1c-1.6,5.3-4.2,8.7-7.2,8.7C812.54,905.3,808.54,895.6,808.54,883.7Z" transform="translate(0 -33.9)"/><path class="cls-24" d="M814,863.7c-3.3,3.2-5.6,10.9-5.6,20,0,11.9,4,21.6,8.9,21.6,3,0,5.6-3.4,7.2-8.7v-.1h-4.6c-1.4,0-2.5-5.6-2.5-12.6s1.1-12.5,2.5-12.5h4.9c-1.6-5.7-4.3-9.5-7.4-9.5A5.71,5.71,0,0,0,814,863.7Z" transform="translate(0 -33.9)"/><path class="cls-23" d="M830.24,752.4l-16.5,110.9.3.4a4.67,4.67,0,0,1,3.4-1.7c3.1,0,5.8,3.7,7.4,9.5h5.9c7.1-43.4,14.5-88.4,20.7-127.3A114.84,114.84,0,0,1,830.24,752.4Z" transform="translate(0 -33.9)"/><path class="cls-15" d="M819.94,871.5c-1.4,0-2.5,5.6-2.5,12.5s1.1,12.6,2.5,12.6h40.8c11.2,0,12.3,11.6,11.6,20.3a62.05,62.05,0,0,1-1.5,9.5l13.1,2.5c6.7-.1,12-1.2,12-2.5a40.2,40.2,0,0,0,.9-4.6c.3-1.7.6-3.9.8-6.4,1.4-16-.7-43.8-32.3-43.8h-40.5Z" transform="translate(0 -33.9)"/><path class="cls-25" d="M839.74,943.9s-19,50.1-.1,90.1l.1-.1a.9.9,0,0,0,.1.5v.1a2.51,2.51,0,0,0,.4.7v.1c4.1,5.6,32.9,9.9,67.9,9.9,3.7,0,7.3-.1,10.9-.2-16.7-59.8,3.6-90,3.6-90-4.6.2-9.5.3-14.5.3C870.34,955.3,842.34,949.6,839.74,943.9Z" transform="translate(0 -33.9)"/><path class="cls-26" d="M838.44,930.4a21.33,21.33,0,0,0,1.3,13.5c2.6,5.7,30.6,11.4,68.4,11.4,5,0,9.8-.1,14.5-.3l-4.6.1c-5-9.3-.7-15.7-.1-16.5-5.4,0-10.2-.3-14.6-.7-35.6-.4-63.6-5.3-63.6-11.3A12.53,12.53,0,0,0,838.44,930.4Z" transform="translate(0 -33.9)"/><path class="cls-26" d="M839.63,1034.1c-.6,1.3-3.7,9.1.1,17.2,2.6,5.7,30.6,11.3,68.4,11.3,3.6,0,7.2-.1,10.6-.2,0,0-5.6-6.8.4-17.1a.35.35,0,0,0-.1-.2c-3.6.1-7.2.2-10.9.2-35,0-63.8-4.3-67.9-9.9v-.1a2.51,2.51,0,0,1-.4-.7v-.1C839.74,1034.2,839.74,1034.2,839.63,1034.1Z" transform="translate(0 -33.9)"/><path class="cls-26" d="M839.63,1034h0a.76.76,0,0,0,.2.3.9.9,0,0,1-.1-.5C839.74,1033.9,839.74,1034,839.63,1034Z" transform="translate(0 -33.9)"/><path class="cls-25" d="M872.44,916.9c-19.7,2-32.8,5.6-32.8,9.6,0,6,28,10.9,63.6,11.3-18.1-2-27.5-7.7-30.9-10.3a.1.1,0,0,1-.1-.1c-.9-.3-1.4-.7-1.4-1.1A42.42,42.42,0,0,0,872.44,916.9Z" transform="translate(0 -33.9)"/><path class="cls-10" d="M883.93,928.9l-13.1-2.5,1.4,1.1a.1.1,0,0,1,.1.1c2.1.8,6.3,1.3,11,1.3Z" transform="translate(0 -33.9)"/><path class="cls-27" d="M883.43,928.9c-4.8,0-8.9-.5-11-1.3,3.4,2.5,12.8,8.3,30.9,10.3,1.5.1,3.2.1,4.8.1,7,0,13.8-.2,20.1-.5L884,929A1.48,1.48,0,0,0,883.43,928.9Z" transform="translate(0 -33.9)"/><path class="cls-27" d="M883.93,928.9l44.2,8.5c19-1,34.5-3.3,42.5-6.3l-73.8-9.4c-.5,2.9-.9,4.6-.9,4.6C895.93,927.7,890.63,928.8,883.93,928.9Z" transform="translate(0 -33.9)"/><path class="cls-25" d="M896.84,921.7l73.8,9.4c3.8-1.4,5.9-2.9,5.9-4.6,0-6.2-30.6-11.3-68.4-11.3-3.4,0-6.8.1-10.2.1h-.3C897.43,917.8,897.13,920,896.84,921.7Z" transform="translate(0 -33.9)"/><path class="cls-27" d="M917.84,938.6c4-.1,8.3-.3,13-.7l-2.6-.5c-6.3.3-13.1.5-20.1.5-1.6,0-3.3,0-4.8-.1A125.28,125.28,0,0,0,917.84,938.6Z" transform="translate(0 -33.9)"/><path class="cls-28" d="M917.84,938.6c-.6.8-5,7.2.1,16.5l4.6-.1c30.3-1.2,51.7-6.1,54-11.1,4.1-8.8,0-17.4,0-17.4,0,1.7-2.1,3.2-5.9,4.6-8,3-23.5,5.3-42.5,6.3l2.6.5C926.13,938.3,921.84,938.5,917.84,938.6Z" transform="translate(0 -33.9)"/><path class="cls-29" d="M922.54,955s-20.2,30.3-3.6,90c29.9-.7,53.3-4.8,57-9.8v-.1a2.51,2.51,0,0,0,.4-.7v-.1a.9.9,0,0,0,.1-.5.1.1,0,0,0,.1.1c18.9-40-.1-90.1-.1-90.1C974.24,948.8,952.84,953.8,922.54,955Z" transform="translate(0 -33.9)"/><path class="cls-28" d="M919,1045.3c-6,10.4-.4,17.1-.4,17.1,32.3-.9,55.5-6,57.9-11.1,3.8-8.1.6-15.9.1-17.2-.1.1-.1.2-.2.3v.1a1.61,1.61,0,0,1-.4.7v.1c-3.7,5-27.1,9-57,9.8Z" transform="translate(0 -33.9)"/></g><path class="cls-30" d="M943,952.7s20.4,53.7-.5,96" transform="translate(0 -33.9)"/><path class="cls-30" d="M865.44,952.2s-20.4,53.7.5,96" transform="translate(0 -33.9)"/><path class="cls-30" d="M910,951.5s3.8,63-1,92.9" transform="translate(0 -33.9)"/><g id="_Group_2" data-name="&lt;Group&gt;"><path class="cls-25" d="M374.74,1169.8a12.46,12.46,0,0,0,.1,7.4,12.13,12.13,0,0,0,23.1-.5c-17.3,8.9-11.2-13.5-11.2-13.5s7.9-27.1,19.4-66.5a.37.37,0,0,1,.1-.3,16.69,16.69,0,0,1,1.5-5.4c6.5-22.3,14-47.9,21.8-74.7,8.2-28,16.7-57.2,24.8-84.8,8.8-30.3,17.1-58.7,23.7-81.2,8.3-28.3,13.9-47.4,14.7-49.9,3.6-11.4,15.1,0,15.1,0a10.16,10.16,0,0,0-.6-3.4,12.18,12.18,0,0,0-23.4,1.4h-.1l-109,371.4Z" transform="translate(0 -33.9)"/><path class="cls-31" d="M386.74,1163.2s-6.1,22.4,11.2,13.5a.1.1,0,0,1,.1-.1l8.1-76.7a12.19,12.19,0,0,1,0-2.7c0-.2.1-.3.1-.5C394.64,1136.2,386.74,1163.2,386.74,1163.2Z" transform="translate(0 -33.9)"/><path class="cls-32" d="M406,1099.9l-8.1,76.7,20.2-68.7-8.7-2.5C407.74,1105,406.44,1103,406,1099.9Z" transform="translate(0 -33.9)"/><path class="cls-33" d="M406,1097.2a12.19,12.19,0,0,0,0,2.7c.3,3.1,1.7,5,3.4,5.6l8.7,2.5,97.4,28.4,1.4.4,2.1-6.8-111.4-32.7Z" transform="translate(0 -33.9)"/><path class="cls-25" d="M406,1097.2l1.6.1L519,1130l3.9-13.3-1.4-.4L424,1087.9l-8.7-2.5a4.63,4.63,0,0,0-3.9.9,12.86,12.86,0,0,0-3.8,4.9l-1.5,5.4a.37.37,0,0,0-.1.3Z" transform="translate(0 -33.9)"/><path class="cls-31" d="M407.74,1091.1a12.86,12.86,0,0,1,3.8-4.9,4.63,4.63,0,0,1,3.9-.9l8.7,2.5,7.2-70.9-1.8-.5C421.74,1043.1,414.24,1068.8,407.74,1091.1Z" transform="translate(0 -33.9)"/><path class="cls-32" d="M431.34,1016.9l-7.2,70.9,17.5-59.4-6.8-2v-.1c-1.8-.5-3.2-2.5-3.4-5.6a12,12,0,0,1,.2-3.8Z" transform="translate(0 -33.9)"/><path class="cls-31" d="M454.64,935.7a16.06,16.06,0,0,1,.8-3.8l-1-.3c-8.1,27.6-16.6,56.8-24.8,84.8l1.8.5.2.1c.6-4,2.6-8,5.3-9.8a4.13,4.13,0,0,1,3.8-.9h.1l6.8,2,7-69.6A7.58,7.58,0,0,1,454.64,935.7Z" transform="translate(0 -33.9)"/><path class="cls-33" d="M431.54,1017a16.44,16.44,0,0,0-.2,3.8c.3,3.1,1.7,5,3.4,5.6v.1l6.8,2,98.9,28.9,2.2-7.7Z" transform="translate(0 -33.9)"/><path class="cls-25" d="M431.54,1017l111.2,32.6,3.7-12.5-98.9-28.8-6.8-2h-.1a4.37,4.37,0,0,0-3.8.9C434.14,1009,432.14,1013,431.54,1017Z" transform="translate(0 -33.9)"/><path class="cls-32" d="M454.54,938.6l-7,69.6,18.2-61.8-7.7-2.3C456.24,943.7,454.94,941.7,454.54,938.6Z" transform="translate(0 -33.9)"/><path class="cls-31" d="M454.34,931.6l1,.3a13.41,13.41,0,0,1,4.6-6.9,4.63,4.63,0,0,1,3.9-.9l7.7,2.2,8.2-75.4-1.7-.5C471.54,872.8,463.24,901.2,454.34,931.6Z" transform="translate(0 -33.9)"/><path class="cls-33" d="M454.64,935.7a9.42,9.42,0,0,0-.1,2.9c.3,3.1,1.7,5,3.4,5.6l7.7,2.3L564,975.2l.5.2,2-6.8Z" transform="translate(0 -33.9)"/><path class="cls-25" d="M454.64,935.7l112,32.9,4-13.4-.5-.2-98.4-28.7-7.7-2.2a4.63,4.63,0,0,0-3.9.9,13.41,13.41,0,0,0-4.6,6.9A12.41,12.41,0,0,0,454.64,935.7Z" transform="translate(0 -33.9)"/><path class="cls-32" d="M479.84,850.9l-8.2,75.4,18.9-64.2V862l-7.1-2.1c-1.8-.5-3.2-2.5-3.4-5.6a12.92,12.92,0,0,1,.1-3.4Z" transform="translate(0 -33.9)"/><path class="cls-31" d="M478.14,850.4l1.7.5.2.1c.5-4.2,2.6-8.3,5.3-10.3a4.42,4.42,0,0,1,3.8-.9l7.2,2.1,10.8-36.6H507a10.11,10.11,0,0,0,.7-4.9s-11.5-11.4-15.1,0C492,803,486.34,822.1,478.14,850.4Z" transform="translate(0 -33.9)"/><path class="cls-33" d="M480,850.9a13,13,0,0,0-.1,3.4c.3,3.1,1.6,5,3.4,5.6l7.1,2.1,98.9,28.9h.1l2.1-7.2Z" transform="translate(0 -33.9)"/><path class="cls-25" d="M480,850.9l111.5,32.8h.1l3.8-12.9-98.9-28.9-7.2-2.1a4.37,4.37,0,0,0-3.8.9C482.64,842.6,480.54,846.8,480,850.9Z" transform="translate(0 -33.9)"/><path class="cls-25" d="M542.74,1049.6l-2.2,7.7L523,1116.7l-3.9,13.3-2.1,6.8-18.4,62.7h.1a12.46,12.46,0,0,0,.1,7.4c8.9,9.2,16.2-6.4,16.2-6.4s102.7-351.2,106.9-364.9-11.8-11.9-11.8-11.9l-.1-.1a14.61,14.61,0,0,0-2,4.6l-.1-.1-12.5,42.6-3.8,12.9h-.1l-2.1,7.2h-.1l-18.9,64.3-4,13.4-2,6.8-18.2,61.8Z" transform="translate(0 -33.9)"/><path class="cls-33" d="M515,1200.5s-7.2,15.7-16.2,6.4a12.18,12.18,0,0,0,23.2-.6L631.34,835l-.1-.1a12,12,0,0,0-15.3-15.7,13,13,0,0,0-5.9,4.4l.1.1s15.9-1.8,11.8,11.9C617.64,849.3,515,1200.5,515,1200.5Z" transform="translate(0 -33.9)"/></g><rect class="cls-34" x="2006.93" y="1539.3" width="111.7" height="33.1"/><path class="cls-35" d="M1860.84,1416.7c0,.1-.1.3-.1.4,0,4.3,17.1,7.8,38.2,7.8s38.2-3.5,38.2-7.8a.6.6,0,0,0-.1-.4,47.09,47.09,0,0,1,4.1,19.3v115.5c0,5-18.9,9.1-42.2,9.1s-42.2-4.1-42.2-9.1V1436A47.09,47.09,0,0,1,1860.84,1416.7Z" transform="translate(0 -33.9)"/><path class="cls-36" d="M1937,1416.7l-.3-.6A.86.86,0,0,1,1937,1416.7Z" transform="translate(0 -33.9)"/><path class="cls-36" d="M1898.93,1424.9c-21.1,0-38.2-3.5-38.2-7.8a.6.6,0,0,1,.1-.4l.3-.6c2.4-3.8,18.4-6.8,37.9-6.8s35.5,3,37.9,6.8l.3.6c0,.1.1.3.1.4C1937.14,1421.4,1920,1424.9,1898.93,1424.9Z" transform="translate(0 -33.9)"/><path class="cls-37" d="M1865.74,1408.2l3.1-4.3a28.15,28.15,0,0,0,5.4-16.6v-14.2c4.6,1.8,13.9,3.1,24.7,3.1s20.1-1.2,24.7-3.1v14.2a27.93,27.93,0,0,0,5.4,16.6l3.1,4.3a48.41,48.41,0,0,1,4.7,7.9c-2.4-3.8-18.4-6.8-37.9-6.8s-35.5,3-37.9,6.8A53,53,0,0,1,1865.74,1408.2Z" transform="translate(0 -33.9)"/><path class="cls-38" d="M1871.24,1382.4v-11.8h55.5v11.8a28.09,28.09,0,0,0,6.1,17.6l3.5,4.5a47.68,47.68,0,0,1,10.1,29.5v122.6h-94.8V1434a48.51,48.51,0,0,1,10.1-29.5l3.5-4.5A29.23,29.23,0,0,0,1871.24,1382.4Z" transform="translate(0 -33.9)"/><ellipse class="cls-38" cx="1898.93" cy="1522.7" rx="47.4" ry="9.6"/><ellipse class="cls-37" cx="1898.93" cy="1519.9" rx="42.2" ry="8.6"/><path class="cls-35" d="M1860.84,1416.7c0,.1-.1.3-.1.4,0,4.3,17.1,7.8,38.2,7.8s38.2-3.5,38.2-7.8a.6.6,0,0,0-.1-.4,47.09,47.09,0,0,1,4.1,19.3v115.5c0,5-18.9,9.1-42.2,9.1s-42.2-4.1-42.2-9.1V1436A47.09,47.09,0,0,1,1860.84,1416.7Z" transform="translate(0 -33.9)"/><path class="cls-37" d="M1898.93,1409.4c-19.4,0-35.5,3-37.9,6.8a44.54,44.54,0,0,1,4.7-7.9l3.1-4.3a28.15,28.15,0,0,0,5.4-16.6v-16.8h49.4v16.8a27.93,27.93,0,0,0,5.4,16.6l3.1,4.3a48.41,48.41,0,0,1,4.7,7.9C1934.43,1412.3,1918.34,1409.4,1898.93,1409.4Z" transform="translate(0 -33.9)"/><path class="cls-36" d="M1937,1416.7l-.3-.6A.86.86,0,0,1,1937,1416.7Z" transform="translate(0 -33.9)"/><path class="cls-36" d="M1898.93,1424.9c-21.1,0-38.2-3.5-38.2-7.8a.6.6,0,0,1,.1-.4l.3-.6c2.4-3.8,18.4-6.8,37.9-6.8s35.5,3,37.9,6.8l.3.6c0,.1.1.3.1.4C1937.14,1421.4,1920,1424.9,1898.93,1424.9Z" transform="translate(0 -33.9)"/><path class="cls-39" d="M1861.64,1404.5l3.5-4.5a28.91,28.91,0,0,0,6.1-17.6v-11.8h29.7v11.8a28.09,28.09,0,0,1-6.1,17.6l-3.5,4.5a47.68,47.68,0,0,0-10.1,29.5v122.6c0,4.3,13.6,7.9,32.6,9.2-4.7.3-9.7.5-14.9.5-26.2,0-47.4-4.3-47.4-9.6V1434A47.89,47.89,0,0,1,1861.64,1404.5Z" transform="translate(0 -33.9)"/><path class="cls-40" d="M1925,1353.7l-5.6,37.9c0,2.3-9.2,4.2-20.5,4.2s-20.5-1.9-20.5-4.2l-5.6-37.9Z" transform="translate(0 -33.9)"/><path class="cls-41" d="M1889.74,1353.7l5.6,37.9c0,1.7,4.9,3.1,12,3.8-2.6.2-5.4.4-8.5.4-11.3,0-20.5-1.9-20.5-4.2l-5.6-37.9h17Z" transform="translate(0 -33.9)"/><ellipse class="cls-42" cx="1898.93" cy="1319.8" rx="26.1" ry="5.3"/><path class="cls-38" d="M1874.84,1367.7l.4,2.8c0,2,10.6,3.6,23.7,3.6s23.7-1.6,23.7-3.6l.4-2.8c2.3.8,3.6,1.8,3.6,2.8,0,3.1-12.4,5.6-27.7,5.6s-27.7-2.5-27.7-5.6C1871.24,1369.5,1872.53,1368.5,1874.84,1367.7Z" transform="translate(0 -33.9)"/><path class="cls-43" d="M1935.34,1414.8a7.45,7.45,0,0,1-1.2-.7c-.7-.3-1.4-.6-2.3-.9-.6-.2-1.2-.4-1.9-.6a41.31,41.31,0,0,0-4.4-1c-2-.4-4.3-.8-6.7-1.1l-3-.3-3.1-.3c-1.1-.1-2.2-.2-3.3-.2s-2.2-.1-3.4-.2a9.14,9.14,0,0,1-1.7-.1c-1.2,0-2.4-.1-3.6-.1h-3.6c-1.2,0-2.4,0-3.6.1a9.14,9.14,0,0,0-1.7.1c-1.2,0-2.3.1-3.4.2h-.6a59.14,59.14,0,0,1,3.5-5.2l3.5-4.5a28.91,28.91,0,0,0,6.1-17.6v-6.2c9.9-.1,18.4-1.3,22.7-3.1v14.2a27.93,27.93,0,0,0,5.4,16.6l3.1,4.3a48.41,48.41,0,0,1,4.7,7.9A5,5,0,0,0,1935.34,1414.8Z" transform="translate(0 -33.9)"/><path class="cls-39" d="M1894.84,1400l-3.5,4.5a59.07,59.07,0,0,0-3.5,5.2c-.9.1-1.8.1-2.7.2l-3.1.3c-2,.2-4,.4-5.8.7-.9.1-1.8.3-2.6.4a16.94,16.94,0,0,0-2.4.5c-.7.2-1.5.3-2.2.5-4.2,1.1-7,2.4-7.9,3.8a44.54,44.54,0,0,1,4.7-7.9l3.1-4.3a28.15,28.15,0,0,0,5.4-16.6v-14.2c4.6,1.8,13.9,3.1,24.7,3.1h2v6.2A28.79,28.79,0,0,1,1894.84,1400Z" transform="translate(0 -33.9)"/><path class="cls-35" d="M1753,1416.7c0,.1-.1.3-.1.4,0,4.3,17.1,7.8,38.2,7.8s38.2-3.5,38.2-7.8a.6.6,0,0,0-.1-.4,47.09,47.09,0,0,1,4.1,19.3v115.5c0,5-18.9,9.1-42.2,9.1s-42.2-4.1-42.2-9.1V1436A47.09,47.09,0,0,1,1753,1416.7Z" transform="translate(0 -33.9)"/><path class="cls-36" d="M1829.24,1416.7l-.3-.6A.86.86,0,0,1,1829.24,1416.7Z" transform="translate(0 -33.9)"/><path class="cls-36" d="M1791.14,1424.9c-21.1,0-38.2-3.5-38.2-7.8a.6.6,0,0,1,.1-.4l.3-.6c2.4-3.8,18.4-6.8,37.9-6.8s35.5,3,37.9,6.8l.3.6c0,.1.1.3.1.4C1829.34,1421.4,1812.24,1424.9,1791.14,1424.9Z" transform="translate(0 -33.9)"/><path class="cls-37" d="M1757.93,1408.2l3.1-4.3a28.15,28.15,0,0,0,5.4-16.6v-14.2c4.6,1.8,13.9,3.1,24.7,3.1s20.1-1.2,24.7-3.1v14.2a27.93,27.93,0,0,0,5.4,16.6l3.1,4.3a48.41,48.41,0,0,1,4.7,7.9c-2.4-3.8-18.4-6.8-37.9-6.8s-35.5,3-37.9,6.8A53.06,53.06,0,0,1,1757.93,1408.2Z" transform="translate(0 -33.9)"/><path class="cls-38" d="M1763.43,1382.4v-11.8h55.5v11.8a28.09,28.09,0,0,0,6.1,17.6l3.5,4.5a47.68,47.68,0,0,1,10.1,29.5v122.6h-94.8V1434a48.51,48.51,0,0,1,10.1-29.5l3.5-4.5A28.59,28.59,0,0,0,1763.43,1382.4Z" transform="translate(0 -33.9)"/><ellipse class="cls-38" cx="1791.14" cy="1522.7" rx="47.4" ry="9.6"/><ellipse class="cls-37" cx="1791.14" cy="1519.9" rx="42.2" ry="8.6"/><path class="cls-35" d="M1753,1416.7c0,.1-.1.3-.1.4,0,4.3,17.1,7.8,38.2,7.8s38.2-3.5,38.2-7.8a.6.6,0,0,0-.1-.4,47.09,47.09,0,0,1,4.1,19.3v115.5c0,5-18.9,9.1-42.2,9.1s-42.2-4.1-42.2-9.1V1436A47.09,47.09,0,0,1,1753,1416.7Z" transform="translate(0 -33.9)"/><path class="cls-37" d="M1791.14,1409.4c-19.4,0-35.5,3-37.9,6.8a44.54,44.54,0,0,1,4.7-7.9l3.1-4.3a28.15,28.15,0,0,0,5.4-16.6v-16.8h49.4v16.8a27.93,27.93,0,0,0,5.4,16.6l3.1,4.3a48.41,48.41,0,0,1,4.7,7.9C1826.64,1412.3,1810.64,1409.4,1791.14,1409.4Z" transform="translate(0 -33.9)"/><path class="cls-36" d="M1829.24,1416.7l-.3-.6A.86.86,0,0,1,1829.24,1416.7Z" transform="translate(0 -33.9)"/><path class="cls-36" d="M1791.14,1424.9c-21.1,0-38.2-3.5-38.2-7.8a.6.6,0,0,1,.1-.4l.3-.6c2.4-3.8,18.4-6.8,37.9-6.8s35.5,3,37.9,6.8l.3.6c0,.1.1.3.1.4C1829.34,1421.4,1812.24,1424.9,1791.14,1424.9Z" transform="translate(0 -33.9)"/><path class="cls-39" d="M1753.84,1404.5l3.5-4.5a28.91,28.91,0,0,0,6.1-17.6v-11.8h29.7v11.8a28.09,28.09,0,0,1-6.1,17.6l-3.5,4.5a47.68,47.68,0,0,0-10.1,29.5v122.6c0,4.3,13.6,7.9,32.6,9.2-4.7.3-9.7.5-14.9.5-26.2,0-47.4-4.3-47.4-9.6V1434A47.89,47.89,0,0,1,1753.84,1404.5Z" transform="translate(0 -33.9)"/><path class="cls-40" d="M1817.24,1353.7l-5.6,37.9c0,2.3-9.2,4.2-20.5,4.2s-20.5-1.9-20.5-4.2l-5.6-37.9Z" transform="translate(0 -33.9)"/><path class="cls-41" d="M1781.93,1353.7l5.6,37.9c0,1.7,4.9,3.1,12,3.8-2.6.2-5.4.4-8.5.4-11.3,0-20.5-1.9-20.5-4.2l-5.6-37.9h17Z" transform="translate(0 -33.9)"/><ellipse class="cls-42" cx="1791.14" cy="1319.8" rx="26.1" ry="5.3"/><path class="cls-38" d="M1767,1367.7l.4,2.8c0,2,10.6,3.6,23.7,3.6s23.7-1.6,23.7-3.6l.4-2.8c2.3.8,3.6,1.8,3.6,2.8,0,3.1-12.4,5.6-27.7,5.6s-27.7-2.5-27.7-5.6C1763.43,1369.5,1764.74,1368.5,1767,1367.7Z" transform="translate(0 -33.9)"/><path class="cls-43" d="M1827.53,1414.8a7.45,7.45,0,0,1-1.2-.7c-.7-.3-1.4-.6-2.3-.9-.6-.2-1.2-.4-1.9-.6a41.31,41.31,0,0,0-4.4-1c-2-.4-4.3-.8-6.7-1.1l-3-.3-3.1-.3c-1.1-.1-2.2-.2-3.3-.2s-2.2-.1-3.4-.2a9.14,9.14,0,0,1-1.7-.1c-1.2,0-2.4-.1-3.6-.1h-3.6c-1.2,0-2.4,0-3.6.1a9.14,9.14,0,0,0-1.7.1c-1.2,0-2.3.1-3.4.2h-.6a59.14,59.14,0,0,1,3.5-5.2l3.5-4.5a28.91,28.91,0,0,0,6.1-17.6v-6.2c9.9-.1,18.4-1.3,22.7-3.1v14.2a27.93,27.93,0,0,0,5.4,16.6l3.1,4.3a48.41,48.41,0,0,1,4.7,7.9A5,5,0,0,0,1827.53,1414.8Z" transform="translate(0 -33.9)"/><path class="cls-39" d="M1787.14,1400l-3.5,4.5a59.07,59.07,0,0,0-3.5,5.2c-.9.1-1.8.1-2.7.2l-3.1.3c-2,.2-4,.4-5.8.7-.9.1-1.8.3-2.6.4a16.94,16.94,0,0,0-2.4.5c-.8.2-1.5.3-2.2.5-4.2,1.1-7,2.4-7.9,3.8a44.54,44.54,0,0,1,4.7-7.9l3.1-4.3a28.15,28.15,0,0,0,5.4-16.6v-14.2c4.6,1.8,13.9,3.1,24.7,3.1h2v6.2A30.09,30.09,0,0,1,1787.14,1400Z" transform="translate(0 -33.9)"/><path class="cls-35" d="M1646.64,1416.7c0,.1-.1.3-.1.4,0,4.3,17.1,7.8,38.2,7.8s38.2-3.5,38.2-7.8a.6.6,0,0,0-.1-.4,47.09,47.09,0,0,1,4.1,19.3v115.5c0,5-18.9,9.1-42.2,9.1s-42.2-4.1-42.2-9.1V1436A47.09,47.09,0,0,1,1646.64,1416.7Z" transform="translate(0 -33.9)"/><path class="cls-36" d="M1722.84,1416.7l-.3-.6A.86.86,0,0,1,1722.84,1416.7Z" transform="translate(0 -33.9)"/><path class="cls-36" d="M1684.74,1424.9c-21.1,0-38.2-3.5-38.2-7.8a.6.6,0,0,1,.1-.4l.3-.6c2.4-3.8,18.4-6.8,37.9-6.8s35.5,3,37.9,6.8l.3.6c0,.1.1.3.1.4C1722.93,1421.4,1705.84,1424.9,1684.74,1424.9Z" transform="translate(0 -33.9)"/><path class="cls-37" d="M1651.53,1408.2l3.1-4.3a28.15,28.15,0,0,0,5.4-16.6v-14.2c4.6,1.8,13.9,3.1,24.7,3.1s20.1-1.2,24.7-3.1v14.2a27.93,27.93,0,0,0,5.4,16.6l3.1,4.3a48.41,48.41,0,0,1,4.7,7.9c-2.4-3.8-18.4-6.8-37.9-6.8s-35.5,3-37.9,6.8A53.07,53.07,0,0,1,1651.53,1408.2Z" transform="translate(0 -33.9)"/><path class="cls-38" d="M1657,1382.4v-11.8h55.5v11.8a28.09,28.09,0,0,0,6.1,17.6l3.5,4.5a47.68,47.68,0,0,1,10.1,29.5v122.6h-94.8V1434a48.51,48.51,0,0,1,10.1-29.5l3.5-4.5A28.59,28.59,0,0,0,1657,1382.4Z" transform="translate(0 -33.9)"/><ellipse class="cls-38" cx="1684.74" cy="1522.7" rx="47.4" ry="9.6"/><ellipse class="cls-37" cx="1684.74" cy="1519.9" rx="42.2" ry="8.6"/><path class="cls-35" d="M1646.64,1416.7c0,.1-.1.3-.1.4,0,4.3,17.1,7.8,38.2,7.8s38.2-3.5,38.2-7.8a.6.6,0,0,0-.1-.4,47.09,47.09,0,0,1,4.1,19.3v115.5c0,5-18.9,9.1-42.2,9.1s-42.2-4.1-42.2-9.1V1436A47.09,47.09,0,0,1,1646.64,1416.7Z" transform="translate(0 -33.9)"/><path class="cls-37" d="M1684.74,1409.4c-19.4,0-35.5,3-37.9,6.8a44.54,44.54,0,0,1,4.7-7.9l3.1-4.3a28.15,28.15,0,0,0,5.4-16.6v-16.8h49.4v16.8a27.93,27.93,0,0,0,5.4,16.6l3.1,4.3a48.41,48.41,0,0,1,4.7,7.9C1720.24,1412.3,1704.24,1409.4,1684.74,1409.4Z" transform="translate(0 -33.9)"/><path class="cls-36" d="M1722.84,1416.7l-.3-.6A.86.86,0,0,1,1722.84,1416.7Z" transform="translate(0 -33.9)"/><path class="cls-36" d="M1684.74,1424.9c-21.1,0-38.2-3.5-38.2-7.8a.6.6,0,0,1,.1-.4l.3-.6c2.4-3.8,18.4-6.8,37.9-6.8s35.5,3,37.9,6.8l.3.6c0,.1.1.3.1.4C1722.93,1421.4,1705.84,1424.9,1684.74,1424.9Z" transform="translate(0 -33.9)"/><path class="cls-39" d="M1647.43,1404.5l3.5-4.5a28.91,28.91,0,0,0,6.1-17.6v-11.8h29.7v11.8a28.09,28.09,0,0,1-6.1,17.6l-3.5,4.5A47.68,47.68,0,0,0,1667,1434v122.6c0,4.3,13.6,7.9,32.6,9.2-4.7.3-9.7.5-14.9.5-26.2,0-47.4-4.3-47.4-9.6V1434A48.52,48.52,0,0,1,1647.43,1404.5Z" transform="translate(0 -33.9)"/><path class="cls-40" d="M1710.84,1353.7l-5.6,37.9c0,2.3-9.2,4.2-20.5,4.2s-20.5-1.9-20.5-4.2l-5.6-37.9Z" transform="translate(0 -33.9)"/><path class="cls-41" d="M1675.53,1353.7l5.6,37.9c0,1.7,4.9,3.1,12,3.8-2.6.2-5.4.4-8.5.4-11.3,0-20.5-1.9-20.5-4.2l-5.6-37.9h17Z" transform="translate(0 -33.9)"/><ellipse class="cls-42" cx="1684.74" cy="1319.8" rx="26.1" ry="5.3"/><path class="cls-38" d="M1660.64,1367.7l.4,2.8c0,2,10.6,3.6,23.7,3.6s23.7-1.6,23.7-3.6l.4-2.8c2.3.8,3.6,1.8,3.6,2.8,0,3.1-12.4,5.6-27.7,5.6s-27.7-2.5-27.7-5.6C1657,1369.5,1658.34,1368.5,1660.64,1367.7Z" transform="translate(0 -33.9)"/><path class="cls-43" d="M1721.14,1414.8a7.45,7.45,0,0,1-1.2-.7c-.7-.3-1.4-.6-2.3-.9-.6-.2-1.2-.4-1.9-.6a41.31,41.31,0,0,0-4.4-1c-2-.4-4.3-.8-6.7-1.1l-3-.3-3.1-.3c-1.1-.1-2.2-.2-3.3-.2s-2.2-.1-3.4-.2a9.14,9.14,0,0,1-1.7-.1c-1.2,0-2.4-.1-3.6-.1h-3.6c-1.2,0-2.4,0-3.6.1a9.14,9.14,0,0,0-1.7.1c-1.2,0-2.3.1-3.4.2h-.6a59.14,59.14,0,0,1,3.5-5.2l3.5-4.5a28.91,28.91,0,0,0,6.1-17.6v-6.2c9.9-.1,18.4-1.3,22.7-3.1v14.2a27.93,27.93,0,0,0,5.4,16.6l3.1,4.3a48.41,48.41,0,0,1,4.7,7.9A5,5,0,0,0,1721.14,1414.8Z" transform="translate(0 -33.9)"/><path class="cls-39" d="M1680.74,1400l-3.5,4.5a59.07,59.07,0,0,0-3.5,5.2c-.9.1-1.8.1-2.7.2l-3.1.3c-2,.2-4,.4-5.8.7-.9.1-1.8.3-2.6.4a16.94,16.94,0,0,0-2.4.5c-.7.2-1.5.3-2.2.5-4.2,1.1-7,2.4-7.9,3.8a44.54,44.54,0,0,1,4.7-7.9l3.1-4.3a28.15,28.15,0,0,0,5.4-16.6v-14.2c4.6,1.8,13.9,3.1,24.7,3.1h2v6.2A30.09,30.09,0,0,1,1680.74,1400Z" transform="translate(0 -33.9)"/><rect class="cls-24" x="1836.7" y="1525.05" width="310.3" height="37"/><polygon class="cls-38" points="1978.84 1463.3 2147.03 1463.3 2108.03 1297.8 1978.84 1297.8 1978.84 1463.3"/><polygon class="cls-44" points="2108.34 1298.1 2147.34 1463.7 2129.74 1463.7 2090.84 1298.1 2108.34 1298.1"/><rect class="cls-40" x="1631.2" y="1420.43" width="331.1" height="42.9"/><rect class="cls-40" x="1630.85" y="1471.12" width="331.1" height="42.9"/><rect class="cls-40" x="1630.85" y="1521.7" width="331.1" height="42.9"/><rect class="cls-45" x="1978.86" y="1298.47" width="20.1" height="164.9"/><circle class="cls-24" cx="2063.93" cy="1559.4" r="58.4"/><circle class="cls-46" cx="2064.24" cy="1559.8" r="33.1"/><circle class="cls-47" cx="2064.24" cy="1559.8" r="27.9"/><rect class="cls-42" x="1946.66" y="1420.52" width="15.3" height="144.1"/><rect class="cls-42" x="1883.54" y="1420.52" width="15.3" height="144.1"/><rect class="cls-42" x="1820.32" y="1420.52" width="15.3" height="144.1"/><rect class="cls-42" x="1757.19" y="1420.52" width="15.3" height="144.1"/><rect class="cls-42" x="1693.97" y="1420.52" width="15.3" height="144.1"/><rect class="cls-42" x="1630.85" y="1420.52" width="15.3" height="144.1"/><rect class="cls-37" x="1890.22" y="1538.95" width="62.3" height="51.3"/><rect class="cls-42" x="1624.35" y="1420.46" width="344.1" height="20.8"/><circle class="cls-24" cx="1824.93" cy="1559.4" r="58.4"/><circle class="cls-46" cx="1825.34" cy="1559.8" r="33.1"/><circle class="cls-47" cx="1825.34" cy="1559.8" r="27.9"/><circle class="cls-24" cx="1703.53" cy="1559.4" r="58.4"/><circle class="cls-46" cx="1703.84" cy="1559.8" r="33.1"/><circle class="cls-47" cx="1703.84" cy="1559.8" r="27.9"/><path class="cls-44" d="M1978.14,1316.8h132.5a5.7,5.7,0,0,1,5.7,5.7v9.9a5.7,5.7,0,0,1-5.7,5.7h-132.5Z" transform="translate(0 -33.9)"/><path class="cls-34" d="M2104.93,1325h-121.7a1.16,1.16,0,0,1-1.2-1.2v-1.7a1.16,1.16,0,0,1,1.2-1.2h121.7a1.16,1.16,0,0,1,1.2,1.2v1.7A1.16,1.16,0,0,1,2104.93,1325Z" transform="translate(0 -33.9)"/><rect class="cls-34" x="1630.53" y="1423.5" width="330.9" height="4.1"/><rect class="cls-48" x="1630.84" y="1441.3" width="15.3" height="2.5"/><rect class="cls-48" x="1694.03" y="1441.3" width="15.3" height="2.5"/><rect class="cls-48" x="1757.14" y="1441.3" width="15.3" height="2.5"/><polyline class="cls-48" points="1820.34 1441.3 1835.63 1441.3 1835.63 1444.2 1820.34 1444.2 1820.34 1441.3"/><rect class="cls-48" x="1883.43" y="1441.3" width="15.4" height="2.9"/><rect class="cls-48" x="1946.64" y="1441.3" width="15.3" height="2.9"/><circle class="cls-34" cx="1678.14" cy="1520.7" r="6.2"/><circle class="cls-34" cx="1798.03" cy="1520.7" r="6.2"/><circle class="cls-34" cx="2037.93" cy="1520.7" r="6.2"/><rect class="cls-49" x="1979.03" y="1304.3" width="20" height="15.5"/><polygon class="cls-50" points="2092.24 1304.3 2109.84 1304.3 2113.24 1319.8 2095.93 1319.8 2092.24 1304.3"/><path class="cls-51" d="M2080.84,1361.8l-55.5,48.5a2.39,2.39,0,0,1-3.4-.2l-2.3-2.6a2.39,2.39,0,0,1,.2-3.4l55.5-48.5a2.39,2.39,0,0,1,3.4.2l2.3,2.6A2.39,2.39,0,0,1,2080.84,1361.8Z" transform="translate(0 -33.9)"/><path class="cls-51" d="M2080.84,1394.9l-55.5,48.5a2.39,2.39,0,0,1-3.4-.2l-2.3-2.6a2.39,2.39,0,0,1,.2-3.4l55.5-48.5a2.39,2.39,0,0,1,3.4.2l2.3,2.6A2.39,2.39,0,0,1,2080.84,1394.9Z" transform="translate(0 -33.9)"/><rect class="cls-52" x="1646.14" y="1441.9" width="47.8" height="7.1"/><rect class="cls-52" x="1709.34" y="1441.9" width="47.8" height="7.1"/><rect class="cls-52" x="1772.43" y="1441.9" width="47.8" height="7.1"/><rect class="cls-52" x="1835.64" y="1441.9" width="47.8" height="7.1"/><rect class="cls-52" x="1898.93" y="1441.9" width="47.7" height="7.1"/><g id="_Group_3" data-name="&lt;Group&gt;"><path class="cls-45" d="M2157.74,1503.8v56.1a38.73,38.73,0,0,1-38.7,38.7h-140.2V1479.4H2131s20.1.5,24.6,24.4Z" transform="translate(0 -33.9)"/><path class="cls-53" d="M2157.74,1493.1v10.7h-2.2c-4.4-23.9-24.6-24.4-24.6-24.4h-152.1v-25H2119A38.67,38.67,0,0,1,2157.74,1493.1Z" transform="translate(0 -33.9)"/></g><g id="_Group_4" data-name="&lt;Group&gt;"><path class="cls-44" d="M2157.74,1468.7v16.9a15,15,0,0,0-15-15h-163.9v-13.2h168.7s7.8,2.7,9.7,7.7c.1.2.1.5.2.7a6.75,6.75,0,0,1,.2,1.4C2157.64,1467.7,2157.74,1468.2,2157.74,1468.7Z" transform="translate(0 -33.9)"/><path class="cls-54" d="M2142.74,1453.7a14.9,14.9,0,0,1,14.5,11.4c-1.9-5-9.7-7.7-9.7-7.7h-168.7v-3.6h163.9Z" transform="translate(0 -33.9)"/></g><polygon class="cls-55" points="2096.14 1320.8 1998.93 1320.8 1998.93 1304.3 2092.24 1304.3 2096.14 1320.8"/><rect class="cls-56" x="1890.24" y="1539" width="62.3" height="13.6"/><path class="cls-57" d="M2005.64,1598.5H2122s-1,7.2-1.5,8.9h-113.4S2005.84,1601.3,2005.64,1598.5Z" transform="translate(0 -33.9)"/><path class="cls-58" d="M976.24,986.6h-4.7a20.78,20.78,0,0,0-20.8,20.8v72.9a2.43,2.43,0,0,0,2.4,2.4h0a2.43,2.43,0,0,0,2.4-2.4v-71.5A17.46,17.46,0,0,1,973,991.3h3.3v-4.7Z" transform="translate(0 -33.9)"/><path class="cls-58" d="M992.24,1118h-3.1a4.48,4.48,0,0,1-4.5-4.5v-79.8h12.2v79.8A4.63,4.63,0,0,1,992.24,1118Z" transform="translate(0 -33.9)"/><path class="cls-58" d="M1078.74,1023.8v32.4h2.6a17.63,17.63,0,0,1,17.6,17.6v40.3a3.9,3.9,0,0,0,3.9,3.9h4.4a3.9,3.9,0,0,0,3.9-3.9v-90.3Z" transform="translate(0 -33.9)"/><path class="cls-59" d="M1008.74,1071.6a22.78,22.78,0,1,0-36.3-18.3,22.45,22.45,0,0,0,9.3,18.3l-3.1,5.4a2.56,2.56,0,0,0,4.4,2.6l3.1-5.4a24.82,24.82,0,0,0,6.6,1.8v6.2a2.5,2.5,0,0,0,5,0V1076a24.82,24.82,0,0,0,6.6-1.8l3.1,5.4a2.56,2.56,0,0,0,4.4-2.6Z" transform="translate(0 -33.9)"/><path id="SVGID" class="cls-15" d="M1155,979.2h-24.9v.1H979.24a22,22,0,0,0-21.8,25.1l4.3,30.8v78.3a4.48,4.48,0,0,0,4.5,4.5h3.1a4.48,4.48,0,0,0,4.5-4.5v-35.4a21.89,21.89,0,0,1,21.9-21.9h80.4v57.9a3.9,3.9,0,0,0,3.9,3.9h4.4a3.9,3.9,0,0,0,3.9-3.9V1074a22.18,22.18,0,0,1,13.9-20.6,38.52,38.52,0,0,0,19.5-17.6l10.4-17.4a22.87,22.87,0,0,1,19.7-11.1h3.2V979.2Z" transform="translate(0 -33.9)"/><g class="cls-60"><path class="cls-24" d="M989.43,1028.2h0a15.58,15.58,0,0,1-15.5-15.5V979.3a15.58,15.58,0,0,1,15.5-15.5h0a15.58,15.58,0,0,1,15.5,15.5v33.4A15.58,15.58,0,0,1,989.43,1028.2Z" transform="translate(0 -33.9)"/></g><g class="cls-60"><path class="cls-24" d="M1014.13,1040.3h0a18.48,18.48,0,0,1-18.4-18.4V982.3a18.48,18.48,0,0,1,18.4-18.4h0a18.48,18.48,0,0,1,18.4,18.4v39.6A18.55,18.55,0,0,1,1014.13,1040.3Z" transform="translate(0 -33.9)"/></g><g class="cls-60"><path class="cls-24" d="M1067.34,1031.4h0a8.71,8.71,0,0,1,8.7,8.7v18.8a8.71,8.71,0,0,1-8.7,8.7h0a8.71,8.71,0,0,1-8.7-8.7v-18.8A8.64,8.64,0,0,1,1067.34,1031.4Z" transform="translate(0 -33.9)"/></g><g class="cls-60"><path class="cls-24" d="M1053.43,1024.6h0a10.46,10.46,0,0,1,10.4,10.4v22.3a10.46,10.46,0,0,1-10.4,10.4h0a10.46,10.46,0,0,1-10.4-10.4V1035A10.46,10.46,0,0,1,1053.43,1024.6Z" transform="translate(0 -33.9)"/></g><g class="cls-60"><path class="cls-24" d="M1141.74,1033.7h0a9.6,9.6,0,0,1-9.6,9.6h-20.7a9.6,9.6,0,0,1-9.6-9.6h0a9.6,9.6,0,0,1,9.6-9.6h20.7A9.67,9.67,0,0,1,1141.74,1033.7Z" transform="translate(0 -33.9)"/></g><g class="cls-60"><path class="cls-24" d="M961.54,1073.8h0a9.6,9.6,0,0,1-9.6-9.6v-20.7a9.6,9.6,0,0,1,9.6-9.6h0a9.6,9.6,0,0,1,9.6,9.6v20.7A9.73,9.73,0,0,1,961.54,1073.8Z" transform="translate(0 -33.9)"/></g><g class="cls-60"><path class="cls-24" d="M1096.34,966.4h0a8.87,8.87,0,0,0-6.7,3.1,10.37,10.37,0,0,0-16.8,2.9H1061a8.81,8.81,0,0,0-8.8,8.8h0a8.81,8.81,0,0,0,8.8,8.8h1.6a9.18,9.18,0,0,1,9.2,9.2h0a10.68,10.68,0,0,0,10.2,10.7,10.46,10.46,0,0,0,10.4-7.8,8.6,8.6,0,0,0,3.9.9h0a8.81,8.81,0,0,0,8.8-8.8v-19A8.88,8.88,0,0,0,1096.34,966.4Z" transform="translate(0 -33.9)"/></g><g class="cls-60"><path class="cls-58" d="M1156.84,966.5l-26.3,4.7a5.4,5.4,0,0,0-4.3,6.6l8.7,34.8a8.75,8.75,0,0,0,4.2,5.5c1.3,4.2,7.4,6.6,14.3,5.4s11.8-5.6,11.5-9.9a8.89,8.89,0,0,0,2.1-6.7l-3.8-35.6A5.45,5.45,0,0,0,1156.84,966.5Z" transform="translate(0 -33.9)"/></g><g class="cls-60"><path class="cls-58" d="M1131.84,1000.2l-.9-3.5a23,23,0,0,0-22.2-17.5h0l-2-16.2,48.6-1.2,5.1,32.8Z" transform="translate(0 -33.9)"/></g><path class="cls-24" d="M1128.34,981.3l-11.1,5.2h0a13.27,13.27,0,0,1,6.4-17.6l11.1-5.2h0A13.19,13.19,0,0,1,1128.34,981.3Z" transform="translate(0 -33.9)"/><path class="cls-24" d="M1173.93,973.2l12.2,1.1h0a13.39,13.39,0,0,0-12.1-14.4l-12.2-1.1h0A13.4,13.4,0,0,0,1173.93,973.2Z" transform="translate(0 -33.9)"/><path id="SVGID-2" data-name="SVGID" class="cls-15" d="M1161.54,958.9l-26.3,4.7a5.4,5.4,0,0,0-4.3,6.6l8.7,34.8a8.75,8.75,0,0,0,4.2,5.5,8.07,8.07,0,0,0,5.7,1c-.3-1.9,2.8-4.1,6.9-4.8s7.7.2,8.1,2.1a8.79,8.79,0,0,0,5-2.9,8.89,8.89,0,0,0,2.1-6.7l-3.8-35.6A5.54,5.54,0,0,0,1161.54,958.9Z" transform="translate(0 -33.9)"/><g class="cls-61"><path class="cls-24" d="M1157.74,950h0a11.41,11.41,0,0,0-4.8,2l-.4-2.1a7,7,0,0,0-7.5-5.8,6.9,6.9,0,0,0-6.1,8.1l2,11.3a7,7,0,0,0,4.2,5.2,8,8,0,0,1,4.8,6l1.6,8.9a12,12,0,0,0,13.9,9.7h0a12,12,0,0,0,9.7-13.9l-3.5-19.6A12,12,0,0,0,1157.74,950Z" transform="translate(0 -33.9)"/></g><ellipse class="cls-24" cx="1144.14" cy="986.97" rx="2.3" ry="1.3" transform="translate(-154.76 181.04) rotate(-10.06)"/><ellipse class="cls-15" cx="1160.53" cy="984.06" rx="2.3" ry="1.3" transform="translate(-154 183.85) rotate(-10.06)"/><path id="SVGID-3" data-name="SVGID" class="cls-59" d="M1169.24,1006.3a5,5,0,0,1-6.1.9,11,11,0,0,0-6.7-.5,11.58,11.58,0,0,0-6.1,2.8,5.25,5.25,0,0,1-5.9,1.3l-.6-.3c1.3,4.2,7.4,6.6,14.3,5.4s11.8-5.6,11.5-9.9A1.4,1.4,0,0,0,1169.24,1006.3Z" transform="translate(0 -33.9)"/><g class="cls-62"><circle class="cls-45" cx="1154.63" cy="981.7" r="1.8"/></g><g class="cls-62"><circle class="cls-45" cx="1161.13" cy="980.5" r="1.8"/></g><path class="cls-58" d="M1233.34,1117.7h3.1a13.61,13.61,0,0,1,13.6,13.6v47.5a1.54,1.54,0,0,1-1.5,1.5h0a1.54,1.54,0,0,1-1.5-1.5v-46.6a11.39,11.39,0,0,0-11.4-11.4h-2.2v-3.1Z" transform="translate(0 -33.9)"/><path class="cls-58" d="M1221.13,1205h2.1a3,3,0,0,0,3-3v-52.8h-8V1202A3,3,0,0,0,1221.13,1205Z" transform="translate(0 -33.9)"/><path class="cls-58" d="M1163.84,1142.6v21.5H1162a11.72,11.72,0,0,0-11.7,11.7v26.7a2.58,2.58,0,0,1-2.6,2.6h-2.9a2.58,2.58,0,0,1-2.6-2.6v-59.8h21.6Z" transform="translate(0 -33.9)"/><path id="SVGID-4" data-name="SVGID" class="cls-15" d="M1113.34,1113.1h16.5v.1h99.9a14.53,14.53,0,0,1,14.4,16.6l-2.9,20.4v51.9a3,3,0,0,1-3,3h-2.1a3,3,0,0,1-3-3v-23.4a14.51,14.51,0,0,0-14.5-14.5h-53.2v38.3a2.58,2.58,0,0,1-2.6,2.6h-2.9a2.58,2.58,0,0,1-2.6-2.6V1176a14.94,14.94,0,0,0-9.2-13.7,25.41,25.41,0,0,1-12.9-11.7l-6.9-11.5a15.11,15.11,0,0,0-13-7.4h-2.1v-18.6Z" transform="translate(0 -33.9)"/><g class="cls-63"><path class="cls-24" d="M1223.24,1138.2h0a8.13,8.13,0,0,0,8.1-8.1v-17.4a8.13,8.13,0,0,0-8.1-8.1h0a8.13,8.13,0,0,0-8.1,8.1v17.4A8.13,8.13,0,0,0,1223.24,1138.2Z" transform="translate(0 -33.9)"/></g><g class="cls-63"><path class="cls-24" d="M1210.43,1144.5h0a9.6,9.6,0,0,0,9.6-9.6v-20.6a9.6,9.6,0,0,0-9.6-9.6h0a9.6,9.6,0,0,0-9.6,9.6v20.6A9.6,9.6,0,0,0,1210.43,1144.5Z" transform="translate(0 -33.9)"/></g><g class="cls-63"><path class="cls-24" d="M1151.34,1104.6h0a6.58,6.58,0,0,1,4.8,2.2,7.32,7.32,0,0,1,5.3-2.2,7.71,7.71,0,0,1,6.8,4.3h8.5a6.27,6.27,0,0,1,6.3,6.3h0a6.27,6.27,0,0,1-6.3,6.3h-1.1a6.66,6.66,0,0,0-6.6,6.6h0a7.63,7.63,0,0,1-7.3,7.7,7.54,7.54,0,0,1-7.5-5.6,6.81,6.81,0,0,1-2.8.7h0a6.27,6.27,0,0,1-6.3-6.3V1111A6.15,6.15,0,0,1,1151.34,1104.6Z" transform="translate(0 -33.9)"/></g><g class="cls-63"><path class="cls-58" d="M1115.34,1104.6l17.4,3.1a3.61,3.61,0,0,1,2.8,4.4l-5.7,23a5.85,5.85,0,0,1-2.8,3.7c-.8,2.8-4.9,4.4-9.4,3.6s-7.8-3.7-7.6-6.6a5.86,5.86,0,0,1-1.4-4.4l2.5-23.6A3.71,3.71,0,0,1,1115.34,1104.6Z" transform="translate(0 -33.9)"/></g><g class="cls-63"><path class="cls-58" d="M1131.93,1126.9l.6-2.3a15.17,15.17,0,0,1,14.7-11.6h0l1.3-10.7-32.2-.8-3.4,21.7Z" transform="translate(0 -33.9)"/></g><path class="cls-24" d="M1135.74,1116.8l7.3,3.4h0a8.76,8.76,0,0,0-4.2-11.7l-7.3-3.4h0A8.73,8.73,0,0,0,1135.74,1116.8Z" transform="translate(0 -33.9)"/><path class="cls-58" d="M1105.54,1111.5l-8.1.7h0a8.83,8.83,0,0,1,8-9.5l8.1-.7h0A8.74,8.74,0,0,1,1105.54,1111.5Z" transform="translate(0 -33.9)"/><path id="SVGID-5" data-name="SVGID" class="cls-15" d="M1113.84,1102l17.4,3.1a3.61,3.61,0,0,1,2.8,4.4l-5.7,23a5.85,5.85,0,0,1-2.8,3.7,6.07,6.07,0,0,1-3.8.7c.2-1.3-1.9-2.7-4.6-3.2s-5.1.1-5.4,1.4a6.42,6.42,0,0,1-3.3-1.9,5.86,5.86,0,0,1-1.4-4.4l2.5-23.6A3.79,3.79,0,0,1,1113.84,1102Z" transform="translate(0 -33.9)"/><ellipse class="cls-24" cx="1125.03" cy="1120.56" rx="0.8" ry="1.5" transform="translate(-174.75 1998.74) rotate(-79.94)"/><ellipse class="cls-24" cx="1114.14" cy="1118.61" rx="0.8" ry="1.5" transform="translate(-181.83 1986.42) rotate(-79.94)"/><path id="SVGID-6" data-name="SVGID" class="cls-59" d="M1108.74,1133.4a3.35,3.35,0,0,0,4,.6,6.88,6.88,0,0,1,4.4-.3,6.54,6.54,0,0,1,4,1.9,3.42,3.42,0,0,0,3.9.9c.1-.1.3-.1.4-.2-.8,2.8-4.9,4.4-9.4,3.6s-7.8-3.7-7.6-6.6C1108.63,1133.2,1108.63,1133.3,1108.74,1133.4Z" transform="translate(0 -33.9)"/><g class="cls-64"><circle class="cls-45" cx="1118.43" cy="1105.6" r="1.2"/></g><g class="cls-64"><circle class="cls-45" cx="1114.04" cy="1104.9" r="1.2"/></g><path class="cls-58" d="M1008.43,1251.3h5.5a24.33,24.33,0,0,1,24.3,24.3v85a2.69,2.69,0,0,1-2.7,2.7h0a2.69,2.69,0,0,1-2.7-2.7v-83.4a20.36,20.36,0,0,0-20.4-20.4h-3.9v-5.5Z" transform="translate(0 -33.9)"/><path class="cls-58" d="M988.84,1397.5h3.5a5.12,5.12,0,0,0,5.1-5.1v-89.7h-13.7v89.7A5.06,5.06,0,0,0,988.84,1397.5Z" transform="translate(0 -33.9)"/><path class="cls-58" d="M891.54,1291.7v36.4h-3a19.85,19.85,0,0,0-19.8,19.8v45.3a4.27,4.27,0,0,1-4.3,4.3h-5a4.27,4.27,0,0,1-4.3-4.3V1291.7h36.4Z" transform="translate(0 -33.9)"/><path class="cls-59" d="M970.24,1345.3a25.6,25.6,0,1,1,40.8-20.6,25.42,25.42,0,0,1-10.4,20.6l3.5,6.1a2.85,2.85,0,0,1-4.9,2.9l-3.5-6.1a26.11,26.11,0,0,1-7.4,2v7a2.8,2.8,0,0,1-5.6,0v-7a26.11,26.11,0,0,1-7.4-2l-3.5,6.1a2.85,2.85,0,0,1-4.9-2.9Z" transform="translate(0 -33.9)"/><path id="SVGID-7" data-name="SVGID" class="cls-15" d="M1003.43,1241.6H856.13a55.19,55.19,0,0,0-48.1,28.1l-17.6,31.1,35.6,20.1,8.8-15.6a4.69,4.69,0,0,1,8.1-.1h0a43,43,0,0,0,22,19.8,25,25,0,0,1,15.7,23.2v45.1a4.27,4.27,0,0,0,4.3,4.3h5a4.27,4.27,0,0,0,4.3-4.3v-65.1h90.4a24.58,24.58,0,0,1,24.6,24.6v39.8a5.12,5.12,0,0,0,5.1,5.1h3.5a5.12,5.12,0,0,0,5.1-5.1v-88l4.9-34.7A24.73,24.73,0,0,0,1003.43,1241.6Z" transform="translate(0 -33.9)"/><g class="cls-65"><path class="cls-24" d="M1020.63,1277.7h0a16.37,16.37,0,0,0,16.3-16.3v-35a16.37,16.37,0,0,0-16.3-16.3h0a16.37,16.37,0,0,0-16.3,16.3v35A16.43,16.43,0,0,0,1020.63,1277.7Z" transform="translate(0 -33.9)"/><path class="cls-24" d="M994.74,1290.4h0a19.38,19.38,0,0,0,19.3-19.3v-41.6a19.38,19.38,0,0,0-19.3-19.3h0a19.38,19.38,0,0,0-19.3,19.3v41.6A19.38,19.38,0,0,0,994.74,1290.4Z" transform="translate(0 -33.9)"/><path class="cls-24" d="M947.13,1307.3h0a9.82,9.82,0,0,0-9.8,9.8v21.1a9.82,9.82,0,0,0,9.8,9.8h0a9.82,9.82,0,0,0,9.8-9.8v-21.1A9.82,9.82,0,0,0,947.13,1307.3Z" transform="translate(0 -33.9)"/><path class="cls-24" d="M962.74,1299.6h0a11.61,11.61,0,0,0-11.6,11.6v25.1a11.61,11.61,0,0,0,11.6,11.6h0a11.61,11.61,0,0,0,11.6-11.6v-25.1A11.67,11.67,0,0,0,962.74,1299.6Z" transform="translate(0 -33.9)"/><path class="cls-24" d="M797.24,1266.8h0a10.88,10.88,0,0,0,10.8,10.8h23.3a10.88,10.88,0,0,0,10.8-10.8h0a10.88,10.88,0,0,0-10.8-10.8H808A10.75,10.75,0,0,0,797.24,1266.8Z" transform="translate(0 -33.9)"/><path class="cls-24" d="M894.43,1355.3h0a10.88,10.88,0,0,0,10.8-10.8v-23.3a10.88,10.88,0,0,0-10.8-10.8h0a10.88,10.88,0,0,0-10.8,10.8v23.3A10.82,10.82,0,0,0,894.43,1355.3Z" transform="translate(0 -33.9)"/><path class="cls-24" d="M894.24,1212.6h0a12.65,12.65,0,0,1,9.6,4.4,15.12,15.12,0,0,1,24.3,4.2h17.1a12.72,12.72,0,0,1,12.7,12.7h0a12.72,12.72,0,0,1-12.7,12.7h-2.3a13.36,13.36,0,0,0-13.3,13.3h0a15.25,15.25,0,0,1-14.6,15.4,15.09,15.09,0,0,1-15-11.3,12,12,0,0,1-5.7,1.4h0a12.72,12.72,0,0,1-12.7-12.7v-27.4A12.57,12.57,0,0,1,894.24,1212.6Z" transform="translate(0 -33.9)"/></g><g class="cls-65"><path class="cls-58" d="M803.44,1292l29.5,5.7a6.1,6.1,0,0,1,4.7,7.5l-10.3,38.9a9.6,9.6,0,0,1-4.8,6.1,10.28,10.28,0,0,1-6.5,1.1c.3-2.2-3.1-4.6-7.7-5.5s-8.7.1-9.2,2.2a10.29,10.29,0,0,1-5.6-3.3,9.51,9.51,0,0,1-2.2-7.5l4.9-40A6.11,6.11,0,0,1,803.44,1292Z" transform="translate(0 -33.9)"/></g><g class="cls-65"><path class="cls-58" d="M799.54,1292.5s-2.9,5-7.6,5.4l-3.8,5.7,37.8,17.3s12.7-17.8,15.9-17.6c0,0-1.2-3.8-7.5-5.4C828.24,1296.6,799.54,1292.5,799.54,1292.5Z" transform="translate(0 -33.9)"/></g><path class="cls-24" d="M833.63,1321.7l12.4,6h0a14.89,14.89,0,0,0-6.9-19.9l-12.4-6h0A14.89,14.89,0,0,0,833.63,1321.7Z" transform="translate(0 -33.9)"/><path class="cls-58" d="M782.54,1311.8l-13.7,1h0a14.89,14.89,0,0,1,13.8-15.9l13.7-1h0A14.89,14.89,0,0,1,782.54,1311.8Z" transform="translate(0 -33.9)"/><path id="SVGID-8" data-name="SVGID" class="cls-15" d="M796.84,1296l29.5,5.7a6.1,6.1,0,0,1,4.7,7.5l-10.3,38.9a9.6,9.6,0,0,1-4.8,6.1,10.28,10.28,0,0,1-6.5,1.1c.3-2.2-3.1-4.6-7.7-5.5s-8.7.1-9.2,2.2a10.29,10.29,0,0,1-5.6-3.3,9.51,9.51,0,0,1-2.2-7.5l4.9-40A6,6,0,0,1,796.84,1296Z" transform="translate(0 -33.9)"/><g class="cls-66"><circle class="cls-24" cx="821.54" cy="1308.1" r="22.2"/></g><ellipse class="cls-15" cx="815.63" cy="1327.98" rx="1.4" ry="2.6" transform="translate(-642.85 1843.29) rotate(-79.08)"/><ellipse class="cls-24" cx="797.36" cy="1324.45" rx="1.4" ry="2.6" transform="translate(-654.19 1822.49) rotate(-79.08)"/><path id="SVGID-9" data-name="SVGID" class="cls-59" d="M787.34,1349.1a5.92,5.92,0,0,0,6.9,1.2,12.8,12.8,0,0,1,7.5-.5,13.1,13.1,0,0,1,6.8,3.2,5.75,5.75,0,0,0,6.6,1.6,2.52,2.52,0,0,0,.7-.4c-1.5,4.7-8.5,7.3-16.1,5.8s-13.1-6.4-12.8-11.3Z" transform="translate(0 -33.9)"/><g class="cls-67"><circle class="cls-45" cx="803.54" cy="1325.9" r="2"/></g><g class="cls-67"><circle class="cls-45" cx="796.24" cy="1324.5" r="2"/></g><path class="cls-58" d="M1110.54,1432h-5.6a24.75,24.75,0,0,0-24.7,24.7v86.4a2.79,2.79,0,0,0,2.8,2.8h0a2.8,2.8,0,0,0,2.8-2.8v-84.8a20.68,20.68,0,0,1,20.7-20.7h4Z" transform="translate(0 -33.9)"/><path class="cls-58" d="M1129.54,1587.8h-3.7a5.27,5.27,0,0,1-5.3-5.3v-94.6h14.3v94.6A5.34,5.34,0,0,1,1129.54,1587.8Z" transform="translate(0 -33.9)"/><path class="cls-58" d="M1232,1476.2v38.4h3.1a20.89,20.89,0,0,1,20.9,20.9v47.8a4.59,4.59,0,0,0,4.6,4.6h5.2a4.59,4.59,0,0,0,4.6-4.6v-107H1232Z" transform="translate(0 -33.9)"/><path class="cls-59" d="M1149,1532.7a27,27,0,1,0-32,0l-3.7,6.4a3,3,0,1,0,5.2,3l3.7-6.4a25.74,25.74,0,0,0,7.8,2.1v7.4a3,3,0,0,0,6,0v-7.4a25,25,0,0,0,7.8-2.1l3.7,6.4a3,3,0,1,0,5.2-3Z" transform="translate(0 -33.9)"/><path id="SVGID-10" data-name="SVGID" class="cls-15" d="M1322.54,1423.3H1293v.1h-178.9a26.08,26.08,0,0,0-25.8,29.7l5.1,36.6v92.8a5.27,5.27,0,0,0,5.3,5.3h3.7a5.27,5.27,0,0,0,5.3-5.3v-41.9a25.91,25.91,0,0,1,25.9-25.9h95.3v68.6a4.59,4.59,0,0,0,4.6,4.6h5.2a4.59,4.59,0,0,0,4.6-4.6v-47.5a26.42,26.42,0,0,1,16.5-24.5,45.55,45.55,0,0,0,23.2-20.9l12.3-20.6a27.06,27.06,0,0,1,23.3-13.2h3.7v-33.3Z" transform="translate(0 -33.9)"/><g class="cls-68"><path class="cls-24" d="M1208.93,1443.8h0a10.93,10.93,0,0,1-10.9-10.9v-23.5a10.93,10.93,0,0,1,10.9-10.9h0a10.93,10.93,0,0,1,10.9,10.9v23.5A10.93,10.93,0,0,1,1208.93,1443.8Z" transform="translate(0 -33.9)"/></g><g class="cls-68"><path class="cls-24" d="M1226.34,1452.3h0a12.93,12.93,0,0,1-12.9-12.9v-27.9a12.93,12.93,0,0,1,12.9-12.9h0a12.93,12.93,0,0,1,12.9,12.9v27.9A12.93,12.93,0,0,1,1226.34,1452.3Z" transform="translate(0 -33.9)"/></g><g class="cls-68"><path class="cls-24" d="M1195,1492.3h0a10.29,10.29,0,0,1,10.3,10.3v22.3a10.29,10.29,0,0,1-10.3,10.3h0a10.29,10.29,0,0,1-10.3-10.3v-22.3A10.35,10.35,0,0,1,1195,1492.3Z" transform="translate(0 -33.9)"/></g><g class="cls-68"><path class="cls-24" d="M1178.54,1484.2h0a12.29,12.29,0,0,1,12.3,12.3V1523a12.29,12.29,0,0,1-12.3,12.3h0a12.29,12.29,0,0,1-12.3-12.3v-26.5A12.49,12.49,0,0,1,1178.54,1484.2Z" transform="translate(0 -33.9)"/></g><g class="cls-68"><path class="cls-24" d="M1292.93,1486.6h0a10.71,10.71,0,0,1-10.7,10.7h-23.1a10.71,10.71,0,0,1-10.7-10.7h0a10.71,10.71,0,0,1,10.7-10.7h23.1A10.71,10.71,0,0,1,1292.93,1486.6Z" transform="translate(0 -33.9)"/></g><g class="cls-68"><path class="cls-24" d="M1116.63,1508.1h0a11.39,11.39,0,0,1-11.4,11.4h-24.6a11.4,11.4,0,0,1-11.4-11.4h0a11.39,11.39,0,0,1,11.4-11.4h24.6A11.39,11.39,0,0,1,1116.63,1508.1Z" transform="translate(0 -33.9)"/></g><g class="cls-68"><path class="cls-24" d="M1101.84,1404.7h0a13.91,13.91,0,0,1,10.5,4.8,16.39,16.39,0,0,1,11.7-4.8,16.74,16.74,0,0,1,14.9,9.4h18.7a13.93,13.93,0,0,1,13.9,13.9h0a13.93,13.93,0,0,1-13.9,13.9h-2.5a14.62,14.62,0,0,0-14.6,14.6h0a16.57,16.57,0,0,1-32.6,4.5,14.53,14.53,0,0,1-6.2,1.5h0a13.93,13.93,0,0,1-13.9-13.9v-30A14.15,14.15,0,0,1,1101.84,1404.7Z" transform="translate(0 -33.9)"/></g><g class="cls-68"><path class="cls-58" d="M1318.13,1408.2l-31.2,5.5a6.37,6.37,0,0,0-5.1,7.8l10.3,41.2a10.08,10.08,0,0,0,5,6.5c1.5,5,8.8,7.8,16.9,6.4s13.9-6.6,13.7-11.8a10.49,10.49,0,0,0,2.5-7.9l-4.5-42.2A6.48,6.48,0,0,0,1318.13,1408.2Z" transform="translate(0 -33.9)"/></g><g class="cls-68"><path class="cls-58" d="M1288.54,1448.1l-1-4.2a27.16,27.16,0,0,0-26.3-20.7h0l-2.3-19.2,57.7-1.4,6.1,38.9Z" transform="translate(0 -33.9)"/></g><path class="cls-58" d="M1295.74,1422.3l-14.5-.4h0a15.67,15.67,0,0,1,16.1-15.3l14.5.4h0A15.67,15.67,0,0,1,1295.74,1422.3Z" transform="translate(0 -33.9)"/><path class="cls-24" d="M1348.34,1437.9l12.4,7.6h0a15.73,15.73,0,0,0-5.2-21.6l-12.4-7.6h0A15.77,15.77,0,0,0,1348.34,1437.9Z" transform="translate(0 -33.9)"/><path id="SVGID-11" data-name="SVGID" class="cls-15" d="M1342.74,1416.1l-30.4-9a6.38,6.38,0,0,0-8,4.7l-9.2,41.5a10.81,10.81,0,0,0,1.5,8.1,10.35,10.35,0,0,0,5.5,4.1c.7-2.2,5.1-2.8,9.9-1.4s8.1,4.3,7.5,6.6a9.91,9.91,0,0,0,6.8-.4,10.23,10.23,0,0,0,5.7-6l14.8-39.8A6.4,6.4,0,0,0,1342.74,1416.1Z" transform="translate(0 -33.9)"/><g class="cls-69"><path class="cls-24" d="M1316.13,1396.2h0a14.59,14.59,0,0,0-6.2-.4l.7-2.4a8.16,8.16,0,1,0-15.6-4.8l-3.8,13a8.15,8.15,0,0,0,1.7,7.7,9.4,9.4,0,0,1,1.9,8.8l-3,10.3a14.34,14.34,0,0,0,9.6,17.7h0a14.34,14.34,0,0,0,17.7-9.6l6.7-22.6A14.44,14.44,0,0,0,1316.13,1396.2Z" transform="translate(0 -33.9)"/></g><ellipse class="cls-15" cx="1309.58" cy="1436.71" rx="1.5" ry="2.7" transform="translate(-439.64 2250.98) rotate(-73.52)"/><ellipse class="cls-24" cx="1328.43" cy="1442.34" rx="1.5" ry="2.7" transform="translate(-431.53 2273.09) rotate(-73.52)"/><path id="SVGID-12" data-name="SVGID" class="cls-59" d="M1325.74,1470.4a6.27,6.27,0,0,1-7-2.2,13.41,13.41,0,0,0-6.8-4.1c-3.1-.9-6.1-1-8-.3a6,6,0,0,1-6.9-1.8c-.2-.2-.3-.5-.5-.7-.9,5.1,4.4,10.9,12.3,13.3s15.4.3,17.5-4.4A1.42,1.42,0,0,1,1325.74,1470.4Z" transform="translate(0 -33.9)"/><g class="cls-70"><circle class="cls-45" cx="1305.34" cy="1438.6" r="2.1"/></g><g class="cls-70"><circle class="cls-45" cx="1312.93" cy="1440.9" r="2.1"/></g><path class="cls-58" d="M752,1409.9h-3.2a14.4,14.4,0,0,0-14.4,14.4v50.3a1.58,1.58,0,0,0,1.6,1.6h0a1.58,1.58,0,0,0,1.6-1.6v-49.4a12.08,12.08,0,0,1,12.1-12.1H752Z" transform="translate(0 -33.9)"/><path class="cls-58" d="M763,1500.6h-2.2a3.12,3.12,0,0,1-3.1-3.1v-55.1h8.4v55.1A3.12,3.12,0,0,1,763,1500.6Z" transform="translate(0 -33.9)"/><path class="cls-58" d="M822.84,1435.6V1458h1.8a12.18,12.18,0,0,1,12.2,12.2V1498a2.69,2.69,0,0,0,2.7,2.7h3.1a2.69,2.69,0,0,0,2.7-2.7v-62.4Z" transform="translate(0 -33.9)"/><path id="SVGID-13" data-name="SVGID" class="cls-15" d="M875.44,1404.8h-17.2v.1H754.13a15.18,15.18,0,0,0-15,17.3l3,21.3v54.1a3.12,3.12,0,0,0,3.1,3.1h2.2a3.12,3.12,0,0,0,3.1-3.1v-24.4a15.15,15.15,0,0,1,15.1-15.1h55.5v40a2.69,2.69,0,0,0,2.7,2.7h3.1a2.69,2.69,0,0,0,2.7-2.7v-27.7a15.22,15.22,0,0,1,9.6-14.2,26.36,26.36,0,0,0,13.5-12.2l7.2-12a15.82,15.82,0,0,1,13.6-7.7h2.2v-19.5Z" transform="translate(0 -33.9)"/><g class="cls-71"><path class="cls-24" d="M801.24,1445h0a6,6,0,0,1,6,6v13a6,6,0,0,1-6,6h0a6,6,0,0,1-6-6v-13A6,6,0,0,1,801.24,1445Z" transform="translate(0 -33.9)"/></g><g class="cls-71"><path class="cls-24" d="M791.63,1440.3h0a7.13,7.13,0,0,1,7.1,7.1v15.4a7.13,7.13,0,0,1-7.1,7.1h0a7.13,7.13,0,0,1-7.1-7.1v-15.4A7.06,7.06,0,0,1,791.63,1440.3Z" transform="translate(0 -33.9)"/></g><g class="cls-71"><path class="cls-24" d="M859.94,1438.8h0a6.23,6.23,0,0,1-6.2,6.2h-13.5a6.23,6.23,0,0,1-6.2-6.2h0a6.23,6.23,0,0,1,6.2-6.2h13.5A6.23,6.23,0,0,1,859.94,1438.8Z" transform="translate(0 -33.9)"/></g><g class="cls-71"><path class="cls-24" d="M746.94,1394h0a8.18,8.18,0,0,1,6.1,2.8,9.64,9.64,0,0,1,15.5,2.7h10.9a8.13,8.13,0,0,1,8.1,8.1h0a8.13,8.13,0,0,1-8.1,8.1h-1.5a8.49,8.49,0,0,0-8.5,8.5h0a9.88,9.88,0,0,1-9.3,9.9,9.7,9.7,0,0,1-9.6-7.2,8.7,8.7,0,0,1-3.6.9h0a8.13,8.13,0,0,1-8.1-8.1v-17.5A8.09,8.09,0,0,1,746.94,1394Z" transform="translate(0 -33.9)"/></g><g class="cls-71"><path class="cls-58" d="M872.94,1396l-18.2,3.2a3.82,3.82,0,0,0-3,4.6l6,24a5.93,5.93,0,0,0,2.9,3.8c.9,2.9,5.1,4.6,9.8,3.7s8.1-3.8,8-6.9a5.81,5.81,0,0,0,1.4-4.6l-2.6-24.6A3.64,3.64,0,0,0,872.94,1396Z" transform="translate(0 -33.9)"/></g><g class="cls-71"><path class="cls-58" d="M855.63,1419.3l-.6-2.4a15.81,15.81,0,0,0-15.3-12.1h0l-1.4-11.2,33.6-.8,3.5,22.7Z" transform="translate(0 -33.9)"/></g><path class="cls-58" d="M859.84,1404.2l-8.5-.2h0a9.1,9.1,0,0,1,9.4-8.9l8.5.2h0A9,9,0,0,1,859.84,1404.2Z" transform="translate(0 -33.9)"/><path class="cls-24" d="M890.54,1413.3l7.2,4.4h0a9.2,9.2,0,0,0-3-12.6l-7.2-4.4h0A9.11,9.11,0,0,0,890.54,1413.3Z" transform="translate(0 -33.9)"/><path id="SVGID-14" data-name="SVGID" class="cls-15" d="M887.24,1400.6l-17.7-5.2a3.77,3.77,0,0,0-4.7,2.8l-5.4,24.1a5.9,5.9,0,0,0,.9,4.7,6,6,0,0,0,3.2,2.4c.4-1.3,3-1.6,5.8-.8s4.7,2.5,4.4,3.8a6,6,0,0,0,4-.2,5.73,5.73,0,0,0,3.3-3.5l8.6-23.2A3.68,3.68,0,0,0,887.24,1400.6Z" transform="translate(0 -33.9)"/><g class="cls-72"><path class="cls-24" d="M887.84,1394.8h0a7.35,7.35,0,0,0-3.6-.2l.4-1.4a4.76,4.76,0,1,0-9.1-2.8l-2.2,7.6a4.86,4.86,0,0,0,1,4.5,5.72,5.72,0,0,1,1.1,5.2l-1.8,6a8.28,8.28,0,0,0,5.6,10.3h0a8.28,8.28,0,0,0,10.3-5.6l3.9-13.2A8.34,8.34,0,0,0,887.84,1394.8Z" transform="translate(0 -33.9)"/></g><ellipse class="cls-24" cx="867.88" cy="1412.58" rx="0.9" ry="1.6" transform="translate(-732.87 1810.15) rotate(-73.52)"/><ellipse class="cls-15" cx="878.92" cy="1415.82" rx="0.9" ry="1.6" transform="translate(-728.08 1823.05) rotate(-73.52)"/><path id="SVGID-15" data-name="SVGID" class="cls-59" d="M877.34,1432.3a3.65,3.65,0,0,1-4.1-1.3,8,8,0,0,0-4-2.4,8.19,8.19,0,0,0-4.6-.2,3.53,3.53,0,0,1-4-1c-.1-.1-.2-.3-.3-.4-.5,3,2.6,6.4,7.1,7.7s9,.2,10.2-2.6C877.54,1432.2,877.44,1432.2,877.34,1432.3Z" transform="translate(0 -33.9)"/><g class="cls-73"><circle class="cls-45" cx="865.54" cy="1399.6" r="1.2"/></g><g class="cls-73"><circle class="cls-45" cx="869.84" cy="1400.9" r="1.2"/></g></g></g></g></g></svg>