<svg xmlns="http://www.w3.org/2000/svg" xmlns:xlink="http://www.w3.org/1999/xlink" viewBox="0 0 1921 1853.9"><defs><style>.cls-1,.cls-30{fill:none;}.cls-2{clip-path:url(#clip-path);}.cls-3{fill:#9baa93;}.cls-4{fill:#3c6868;}.cls-5{fill:#1b4b4c;}.cls-6{fill:#c7e5e9;}.cls-7{fill:#cfe0e6;}.cls-8{fill:#fff8e8;}.cls-9{fill:#fcecc5;}.cls-10{fill:#eda2a1;}.cls-11{fill:#c3e0e2;}.cls-12{fill:#74739a;}.cls-13{fill:#605f81;}.cls-14{fill:#9090bc;}.cls-15{fill:#fff4dc;}.cls-16{fill:#474667;}.cls-17{fill:#6e969f;}.cls-18{fill:#fbe5aa;}.cls-19{fill:#4c4b6d;}.cls-20{fill:#50787d;}.cls-21{fill:#95bdc8;}.cls-22{fill:#dd8d8e;}.cls-23{fill:#bbdadd;}.cls-24{fill:#434264;}.cls-25{fill:#dca379;}.cls-26{fill:#a27252;}.cls-27{fill:#7b4f38;}.cls-28{fill:#8e6045;}.cls-29{fill:#c4906c;}.cls-30{stroke:#8e6045;stroke-miterlimit:10;stroke-width:2.61px;}.cls-31{fill:#c98967;}.cls-32{fill:#b26845;}.cls-33{fill:#bf754c;}.cls-34,.cls-39,.cls-41{fill:#fff;}.cls-34{opacity:0.4;}.cls-34,.cls-39,.cls-41,.cls-43,.cls-57{isolation:isolate;}.cls-35{fill:#fff2db;}.cls-36{fill:#f9e3a8;}.cls-37,.cls-43{fill:#93bcc7;}.cls-38{fill:#c4e4ea;}.cls-39{opacity:0.33;}.cls-40{fill:#bd744b;}.cls-41{opacity:0.15;}.cls-42{fill:#e2a07a;}.cls-43{opacity:0.37;}.cls-44{fill:#f3985e;}.cls-45{fill:#e97625;}.cls-46{fill:#99a892;}.cls-47{fill:#3e6a69;}.cls-48{fill:#c38263;}.cls-49{fill:#cf641e;}.cls-50{fill:#e5884b;}.cls-51{fill:#d5ecf4;}.cls-52{fill:#915437;}.cls-53{fill:#c62;}.cls-54{fill:#f7bb90;}.cls-55{fill:#a6cdd1;}.cls-56{fill:#abdae2;}.cls-57{fill:#1f1e36;opacity:0.5;}.cls-58{fill:#fae4aa;}.cls-59{fill:#eea3a2;}.cls-60{clip-path:url(#clip-path-2);}.cls-61{clip-path:url(#clip-path-11);}.cls-62{clip-path:url(#clip-path-12);}.cls-63{clip-path:url(#clip-path-14);}.cls-64{clip-path:url(#clip-path-19);}.cls-65{clip-path:url(#clip-path-21);}.cls-66{clip-path:url(#clip-path-24);}.cls-67{clip-path:url(#clip-path-25);}.cls-68{clip-path:url(#clip-path-27);}.cls-69{clip-path:url(#clip-path-36);}.cls-70{clip-path:url(#clip-path-37);}.cls-71{clip-path:url(#clip-path-39);}.cls-72{clip-path:url(#clip-path-45);}.cls-73{clip-path:url(#clip-path-46);}</style><clipPath id="clip-path" transform="translate(0 -33.9)"><rect class="cls-1" x="1" width="1920" height="1887.8"/></clipPath><clipPath id="clip-path-2" transform="translate(0 -33.9)"><path class="cls-1" d="M786.2,979.2H761.3v.1H610.4a22,22,0,0,0-21.8,25.1l4.3,30.8v78.3a4.48,4.48,0,0,0,4.5,4.5h3.1a4.48,4.48,0,0,0,4.5-4.5v-35.4a21.89,21.89,0,0,1,21.9-21.9h80.4v57.9a3.9,3.9,0,0,0,3.9,3.9h4.4a3.9,3.9,0,0,0,3.9-3.9V1074a22.18,22.18,0,0,1,13.9-20.6,38.52,38.52,0,0,0,19.5-17.6l10.4-17.4a22.87,22.87,0,0,1,19.7-11.1h3.2V979.2Z"/></clipPath><clipPath id="clip-path-11" transform="translate(0 -33.9)"><path class="cls-1" d="M792.7,958.9l-26.3,4.7a5.4,5.4,0,0,0-4.3,6.6l8.7,34.8a8.75,8.75,0,0,0,4.2,5.5,8.07,8.07,0,0,0,5.7,1c-.3-1.9,2.8-4.1,6.9-4.8s7.7.2,8.1,2.1a8.79,8.79,0,0,0,5-2.9,8.89,8.89,0,0,0,2.1-6.7L799,963.6A5.54,5.54,0,0,0,792.7,958.9Z"/></clipPath><clipPath id="clip-path-12" transform="translate(0 -33.9)"><path class="cls-1" d="M800.4,1006.3a5,5,0,0,1-6.1.9,11,11,0,0,0-6.7-.5,11.58,11.58,0,0,0-6.1,2.8,5.25,5.25,0,0,1-5.9,1.3l-.6-.3c1.3,4.2,7.4,6.6,14.3,5.4s11.8-5.6,11.5-9.9A1.4,1.4,0,0,0,800.4,1006.3Z"/></clipPath><clipPath id="clip-path-14" transform="translate(0 -33.9)"><path class="cls-1" d="M744.5,1113.1H761v.1h99.9a14.53,14.53,0,0,1,14.4,16.6l-2.9,20.4v51.9a3,3,0,0,1-3,3h-2.1a3,3,0,0,1-3-3v-23.4a14.51,14.51,0,0,0-14.5-14.5H796.6v38.3a2.58,2.58,0,0,1-2.6,2.6h-2.9a2.58,2.58,0,0,1-2.6-2.6V1176a14.94,14.94,0,0,0-9.2-13.7,25.41,25.41,0,0,1-12.9-11.7l-6.9-11.5a15.11,15.11,0,0,0-13-7.4h-2.1v-18.6Z"/></clipPath><clipPath id="clip-path-19" transform="translate(0 -33.9)"><path class="cls-1" d="M739.9,1133.4a3.35,3.35,0,0,0,4,.6,6.88,6.88,0,0,1,4.4-.3,6.54,6.54,0,0,1,4,1.9,3.42,3.42,0,0,0,3.9.9c.1-.1.3-.1.4-.2-.8,2.8-4.9,4.4-9.4,3.6s-7.8-3.7-7.6-6.6C739.8,1133.2,739.8,1133.3,739.9,1133.4Z"/></clipPath><clipPath id="clip-path-21" transform="translate(0 -33.9)"><path class="cls-1" d="M634.6,1241.6H487.3a55.19,55.19,0,0,0-48.1,28.1l-17.6,31.1,35.6,20.1,8.8-15.6a4.69,4.69,0,0,1,8.1-.1h0a43,43,0,0,0,22,19.8,25,25,0,0,1,15.7,23.2v45.1a4.27,4.27,0,0,0,4.3,4.3h5a4.27,4.27,0,0,0,4.3-4.3v-65.1h90.4a24.58,24.58,0,0,1,24.6,24.6v39.8a5.12,5.12,0,0,0,5.1,5.1H649a5.12,5.12,0,0,0,5.1-5.1v-88l4.9-34.7A24.73,24.73,0,0,0,634.6,1241.6Z"/></clipPath><clipPath id="clip-path-24" transform="translate(0 -33.9)"><path class="cls-1" d="M428,1296l29.5,5.7a6.1,6.1,0,0,1,4.7,7.5l-10.3,38.9a9.6,9.6,0,0,1-4.8,6.1,10.28,10.28,0,0,1-6.5,1.1c.3-2.2-3.1-4.6-7.7-5.5s-8.7.1-9.2,2.2a10.29,10.29,0,0,1-5.6-3.3,9.51,9.51,0,0,1-2.2-7.5l4.9-40A6,6,0,0,1,428,1296Z"/></clipPath><clipPath id="clip-path-25" transform="translate(0 -33.9)"><path class="cls-1" d="M418.5,1349.1a5.92,5.92,0,0,0,6.9,1.2,12.8,12.8,0,0,1,7.5-.5,13.1,13.1,0,0,1,6.8,3.2,5.75,5.75,0,0,0,6.6,1.6,2.52,2.52,0,0,0,.7-.4c-1.5,4.7-8.5,7.3-16.1,5.8s-13.1-6.4-12.8-11.3Z"/></clipPath><clipPath id="clip-path-27" transform="translate(0 -33.9)"><path class="cls-1" d="M953.7,1423.3H924.2v.1H745.3a26.08,26.08,0,0,0-25.8,29.7l5.1,36.6v92.8a5.27,5.27,0,0,0,5.3,5.3h3.7a5.27,5.27,0,0,0,5.3-5.3v-41.9a25.91,25.91,0,0,1,25.9-25.9h95.3v68.6a4.59,4.59,0,0,0,4.6,4.6h5.2a4.59,4.59,0,0,0,4.6-4.6v-47.5a26.42,26.42,0,0,1,16.5-24.5,45.55,45.55,0,0,0,23.2-20.9l12.3-20.6a27.06,27.06,0,0,1,23.3-13.2h3.7v-33.3Z"/></clipPath><clipPath id="clip-path-36" transform="translate(0 -33.9)"><path class="cls-1" d="M973.9,1416.1l-30.4-9a6.38,6.38,0,0,0-8,4.7l-9.2,41.5a10.81,10.81,0,0,0,1.5,8.1,10.35,10.35,0,0,0,5.5,4.1c.7-2.2,5.1-2.8,9.9-1.4s8.1,4.3,7.5,6.6a9.91,9.91,0,0,0,6.8-.4,10.23,10.23,0,0,0,5.7-6l14.8-39.8A6.4,6.4,0,0,0,973.9,1416.1Z"/></clipPath><clipPath id="clip-path-37" transform="translate(0 -33.9)"><path class="cls-1" d="M956.9,1470.4a6.27,6.27,0,0,1-7-2.2,13.41,13.41,0,0,0-6.8-4.1c-3.1-.9-6.1-1-8-.3a6,6,0,0,1-6.9-1.8c-.2-.2-.3-.5-.5-.7-.9,5.1,4.4,10.9,12.3,13.3s15.4.3,17.5-4.4A1.42,1.42,0,0,1,956.9,1470.4Z"/></clipPath><clipPath id="clip-path-39" transform="translate(0 -33.9)"><path class="cls-1" d="M506.6,1404.8H489.4v.1H385.3a15.18,15.18,0,0,0-15,17.3l3,21.3v54.1a3.12,3.12,0,0,0,3.1,3.1h2.2a3.12,3.12,0,0,0,3.1-3.1v-24.4a15.15,15.15,0,0,1,15.1-15.1h55.5v40a2.69,2.69,0,0,0,2.7,2.7h3.1a2.69,2.69,0,0,0,2.7-2.7v-27.7a15.22,15.22,0,0,1,9.6-14.2,26.36,26.36,0,0,0,13.5-12.2l7.2-12a15.82,15.82,0,0,1,13.6-7.7h2.2v-19.5Z"/></clipPath><clipPath id="clip-path-45" transform="translate(0 -33.9)"><path class="cls-1" d="M518.4,1400.6l-17.7-5.2a3.77,3.77,0,0,0-4.7,2.8l-5.4,24.1a5.9,5.9,0,0,0,.9,4.7,6,6,0,0,0,3.2,2.4c.4-1.3,3-1.6,5.8-.8s4.7,2.5,4.4,3.8a6,6,0,0,0,4-.2,5.73,5.73,0,0,0,3.3-3.5l8.6-23.2A3.68,3.68,0,0,0,518.4,1400.6Z"/></clipPath><clipPath id="clip-path-46" transform="translate(0 -33.9)"><path class="cls-1" d="M508.5,1432.3a3.65,3.65,0,0,1-4.1-1.3,8,8,0,0,0-4-2.4,8.19,8.19,0,0,0-4.6-.2,3.53,3.53,0,0,1-4-1c-.1-.1-.2-.3-.3-.4-.5,3,2.6,6.4,7.1,7.7s9,.2,10.2-2.6C508.7,1432.2,508.6,1432.2,508.5,1432.3Z"/></clipPath></defs><title>Asset 11</title><g id="Layer_2" data-name="Layer 2"><g id="Layer_1-2" data-name="Layer 1"><g class="cls-2"><g id="รูปล่างสุด"><path class="cls-3" d="M1921,1583.43c-4.41.07-8.88-.06-13.39-.43-19.3-1.5-43.5-10.4-56-26-13.3-16.5-14.4-41.3-26.9-59.6-42-61.3-145.5-75.5-213.2-80.1-84.3-5.8-170.1,6.6-250,34-33.6,11.5-17.7,12.9-46.3-8.2-23.8-17.6-28.4-51.9-49.1-73.1-27.5-28.1-128.5-12.8-167.8-11.6s-87.4-8.4-99.9-45.7c-11.7-34.9,11.8-68.2,9-102.9-2.9-36.4-40.2-53.2-56.1-83.8-8.3-15.8-6.7-35.9-17.1-50.4-6.9-9.7-18.3-15.3-29.6-18.8-24.4-7.6-47.8-4-72.4-6.7-20.2-2.2-35.1-10.2-54-18.8-41.6-18.9-84.3-35.9-129.4-44.1-52.7-9.6-106.9-7-160.4-10.2-151.7-9-308.9-63.7-451.3-10.3-12.27,4.62-24.24,10-36.11,15.61V1887.8H1921Z" transform="translate(0 -33.9)"/><ellipse class="cls-4" cx="734.7" cy="1553.5" rx="271.8" ry="80"/><ellipse class="cls-4" cx="1205.9" cy="1578.6" rx="258.2" ry="76"/><ellipse class="cls-4" cx="1557.8" cy="1455.4" rx="268.7" ry="79.1"/><ellipse class="cls-4" cx="931.3" cy="1619.1" rx="189.5" ry="55.8"/><ellipse class="cls-4" cx="628.3" cy="1479.7" rx="128.3" ry="37.8"/><ellipse class="cls-4" cx="1138" cy="1335.9" rx="128.3" ry="37.8"/><ellipse class="cls-4" cx="531.5" cy="1239.2" rx="163.5" ry="48.1"/><ellipse class="cls-4" cx="1194.4" cy="1720.6" rx="83.8" ry="24.7"/><ellipse class="cls-4" cx="263.7" cy="1294.5" rx="83.8" ry="24.7"/><ellipse class="cls-4" cx="860.6" cy="1454.5" rx="224" ry="65.9"/><ellipse class="cls-4" cx="779" cy="1166" rx="222.3" ry="60.3"/><ellipse class="cls-4" cx="784.7" cy="1341.8" rx="353.3" ry="85.3"/><ellipse class="cls-4" cx="359" cy="1431.4" rx="353.3" ry="85.3"/><ellipse class="cls-5" cx="612" cy="1080.3" rx="29" ry="7.5"/><ellipse class="cls-5" cx="873" cy="1171.3" rx="29" ry="7.5"/><ellipse class="cls-5" cx="608" cy="1363.3" rx="29" ry="7.5"/><ellipse class="cls-5" cx="749" cy="1554.3" rx="36" ry="7.5"/><ellipse class="cls-5" cx="1193" cy="1572.3" rx="36" ry="7.5"/><ellipse class="cls-5" cx="397" cy="1466.3" rx="29" ry="7.5"/><ellipse class="cls-5" cx="739.5" cy="1080.3" rx="19.5" ry="5"/><ellipse class="cls-5" cx="786.5" cy="1172.3" rx="19.5" ry="5"/><ellipse class="cls-5" cx="531.5" cy="1363.3" rx="19.5" ry="5"/><ellipse class="cls-5" cx="682.5" cy="1341.3" rx="36.7" ry="9.5"/><ellipse class="cls-5" cx="919.5" cy="1558.3" rx="36.7" ry="9.5"/><ellipse class="cls-5" cx="860.5" cy="1553.3" rx="19.5" ry="5"/><ellipse class="cls-5" cx="499.5" cy="1478.3" rx="19.5" ry="5"/><ellipse class="cls-5" cx="693.5" cy="1536.3" rx="19.5" ry="5"/><ellipse class="cls-5" cx="947.5" cy="1578.3" rx="19.5" ry="5"/><ellipse class="cls-5" cx="1119.5" cy="1587.3" rx="19.5" ry="5"/><ellipse class="cls-5" cx="754.5" cy="1137.3" rx="9.5" ry="2.5"/><ellipse class="cls-5" cx="646.5" cy="1378.3" rx="9.5" ry="2.5"/><ellipse class="cls-5" cx="877.5" cy="1573.3" rx="9.5" ry="2.5"/><ellipse class="cls-5" cx="476.5" cy="1466.3" rx="9.5" ry="2.5"/><ellipse class="cls-5" cx="705.5" cy="1085.3" rx="13.5" ry="3.5"/><ellipse class="cls-5" cx="810.5" cy="1182.3" rx="13.5" ry="3.5"/><ellipse class="cls-5" cx="569.5" cy="1094.3" rx="13.5" ry="3.5"/><ellipse class="cls-5" cx="504.5" cy="1073.3" rx="13.5" ry="3.5"/><ellipse class="cls-5" cx="543.5" cy="1018.3" rx="85.5" ry="22.1"/><ellipse class="cls-5" cx="438.5" cy="1064.3" rx="38.5" ry="9.9"/><ellipse class="cls-5" cx="191.5" cy="1064.3" rx="28.5" ry="7.4"/><ellipse class="cls-5" cx="121.5" cy="1176.3" rx="28.5" ry="7.4"/><ellipse class="cls-5" cx="47.5" cy="1169.3" rx="13.5" ry="3.5"/><path class="cls-4" d="M67,1161.67a372,372,0,0,0-66,5.54v62.51a372.14,372.14,0,0,0,66,5.54c69,0,125-16.48,125-36.8S136,1161.67,67,1161.67Z" transform="translate(0 -33.9)"/><path class="cls-4" d="M1921,1580.57c-64.17-23.06-161.65-37.77-270.8-37.77-193.24,0-349.9,46.11-349.9,103s156.66,103,349.9,103c109.16,0,206.63-14.71,270.8-37.77Z" transform="translate(0 -33.9)"/><path class="cls-4" d="M463.5,980.1C241.45,980.1,54.76,1010,1,1050.51v48C54.76,1139,241.45,1168.9,463.5,1168.9c264,0,478.1-42.26,478.1-94.4S727.55,980.1,463.5,980.1Z" transform="translate(0 -33.9)"/><ellipse class="cls-5" cx="36" cy="1149.3" rx="36" ry="9.3"/><ellipse class="cls-5" cx="314.5" cy="1014.3" rx="161.5" ry="41.7"/><ellipse class="cls-5" cx="720.5" cy="1096.3" rx="6.5" ry="1.7"/><ellipse class="cls-5" cx="1521" cy="1600.9" rx="299" ry="39"/><path class="cls-4" d="M1921,1525.08c-60.94,9.94-102.2,29.06-102.2,51s41.26,41.08,102.2,51Z" transform="translate(0 -33.9)"/><g id="_Group_" data-name="&lt;Group&gt;"><path class="cls-6" d="M188,550c2.6-2,5.2-4,8-6-8.5-2.4-13.9-5.1-15.5-8l-.5.2-53.9,45.7s-35.8,28.7-32.3,61.7c.6,5.4,2.8,19.8,5.9,40.2,3,4.2,10.8,8.2,22.7,11.8l-9.5-63.7v-.1a3.4,3.4,0,0,1-.2-1.4C112.7,630.3,108.5,610,188,550Z" transform="translate(0 -33.9)"/><path class="cls-7" d="M98.3,679.8s-20.5,33.9,4.8,59.8a25.09,25.09,0,0,0,6.3,4.4,114,114,0,0,0,21.6,8.3c19,5.8,46.7,11.3,81,14.9-5.9-4.8-9.3-9.9-10.8-14.9a498.16,498.16,0,0,1-81.4-17.4c-16.3-9.3-18.2-24.4-10.3-29.4,4.1-2.6,34.9,11.6,99.2,18.4A85.4,85.4,0,0,1,221.9,710c-42.4-2.8-77.5-8-99.3-14.6-11.8-3.6-19.7-7.5-22.7-11.8A5.22,5.22,0,0,1,98.3,679.8Z" transform="translate(0 -33.9)"/><path class="cls-8" d="M109.3,705.7c-7.9,5-6,20.1,10.3,29.4A480.14,480.14,0,0,0,201,752.5c-3.2-10.2,1.3-20.2,7.5-28.4C144.3,717.2,113.5,703,109.3,705.7Z" transform="translate(0 -33.9)"/><path class="cls-7" d="M188,550c-79.6,60.1-75.3,80.4-75.3,80.4,0-9.4,29.7-17.8,75.3-22.9Z" transform="translate(0 -33.9)"/><path class="cls-9" d="M112.7,630.3l.2,1.4v.1c3.7,11.2,49.9,20.8,114.3,24.8V646.3c0-2.1.1-4.2.2-6.3-14.6.3-31.3-1.5-39.4-9.8V607.3C142.4,612.6,112.7,620.9,112.7,630.3Z" transform="translate(0 -33.9)"/><path class="cls-8" d="M113,631.8l9.5,63.7c21.8,6.6,56.9,11.8,99.3,14.6a63.52,63.52,0,0,1,5.4-4.3V656.6C162.9,652.6,116.7,643.1,113,631.8Z" transform="translate(0 -33.9)"/><path class="cls-6" d="M130.9,752.4c-9.3-2.8-16.6-5.6-21.6-8.3,15.8,97.7,38.8,236.7,46.9,285.4l15.6-2.3Z" transform="translate(0 -33.9)"/><path class="cls-8" d="M130.9,752.4l40.9,274.8.2,1.1c0,9.6,45.7,17.6,105.3,19L237.4,769.6c-8.8-.6-17.3-1.4-25.4-2.3C177.6,763.7,149.9,758.2,130.9,752.4Z" transform="translate(0 -33.9)"/><path class="cls-6" d="M139.8,394.3s-27,23.1,0,55.3a9.43,9.43,0,0,0,1,1c3,2.8,9.2,5.7,18.2,8.7-1.5-1.8-35.7-41.5.1-52.6v-.1C146.8,403,139.8,398.8,139.8,394.3Z" transform="translate(0 -33.9)"/><path class="cls-10" d="M180.5,536.1c1.5,2.9,7,5.6,15.5,8l-36.9-84.6-.1-.1c-9-2.9-15.2-5.9-18.2-8.7l-1,.9,40.3,84.6Z" transform="translate(0 -33.9)"/><path class="cls-11" d="M185.2,376.1c-28,4.7-45.4,11.1-45.4,18.2,0,4.5,7,8.7,19.3,12.4,16.2,4.9,41.5,8.8,72.1,11.1-24-5-36.2-13.5-41.8-18.9-2.8-1.6-4.2-3.3-4.2-5V376.1Z" transform="translate(0 -33.9)"/><path class="cls-6" d="M159.4,1045.9c1.8,11.4,54,20.5,120.8,21.8l-2.9-20.4c-59.6-1.4-105.3-9.3-105.3-19l-.2-1.1-15.6,2.3c1.4,8.4,2.4,14.2,2.8,16.5Z" transform="translate(0 -33.9)"/><path class="cls-7" d="M159.1,406.8c-35.7,11.1-1.6,50.8-.1,52.6l.1.1c20.1,6.5,54,12.6,97.1,15-27.9-27.7,16.9-52.4,16.9-52.4-16.9-.2-30.7-1.8-41.9-4.2-30.6-2.4-55.9-6.3-72.1-11.1Z" transform="translate(0 -33.9)"/><path class="cls-10" d="M159.1,459.4,196,544c13,3.7,33.4,6.5,57.7,8.1,13.1.9,27.5,1.3,42.4,1.3L270.2,475l-12.9.5a11.4,11.4,0,0,1-1.1-1.1C213.1,472,179.2,465.9,159.1,459.4Z" transform="translate(0 -33.9)"/><path class="cls-12" d="M185.2,376.1v17.8a24.37,24.37,0,0,0,4.2,5c4.5,2.6,12.2,4.9,22.5,6.9V52.5c-15.3-.8-26.8-4.6-26.8-9.2V376.1Z" transform="translate(0 -33.9)"/><path class="cls-13" d="M188,607.5v22.9c8.1,8.3,24.8,10,39.4,9.8a83.9,83.9,0,0,1,11.4-36.7C220.4,604.3,203.3,605.7,188,607.5Z" transform="translate(0 -33.9)"/><path class="cls-13" d="M188,550v57.5c15.3-1.8,32.3-3.2,50.8-4.1a101.34,101.34,0,0,1,14.9-19.9V552.2c-24.3-1.6-44.7-4.5-57.7-8.1C193.3,546,190.6,548,188,550Z" transform="translate(0 -33.9)"/><path class="cls-14" d="M218,33.9c-18.1,0-32.8,4.2-32.8,9.4,0,4.6,11.5,8.4,26.8,9.2,2,.1,4,.2,6,.2,18.1,0,32.8-4.2,32.8-9.4S236.1,33.9,218,33.9Zm-17.3,9.4c0-2.8,7.7-5,17.3-5s17.3,2.2,17.3,5-7.7,5-17.3,5S200.7,46.1,200.7,43.3Z" transform="translate(0 -33.9)"/><path class="cls-15" d="M208.6,724c-6.1,8.2-10.6,18.3-7.5,28.4,125.7,16.7,246.7-8.9,261.3-11.7,17.7-3.4,21.5-8.1,24.8-22.9s-14.9-12-14.9-12C353.2,730.2,267.1,730.1,208.6,724Z" transform="translate(0 -33.9)"/><path class="cls-16" d="M218,38.3c-9.6,0-17.3,2.2-17.3,5s7.7,5,17.3,5,17.3-2.2,17.3-5S227.6,38.3,218,38.3Z" transform="translate(0 -33.9)"/><path class="cls-7" d="M492.2,684.3c-3.3,4-10.9,7.8-22.1,11.2-33.6,10.2-98.8,17.1-173.9,17.1-26.3,0-51.4-.9-74.4-2.4a85.42,85.42,0,0,0-13.2,13.9c58.5,6.1,144.7,6.2,263.7-18.2,0,0,18.3-2.9,14.9,12s-7.1,19.6-24.8,22.9c-14.6,2.8-135.6,28.4-261.3,11.7,1.5,5,4.9,10,10.8,14.9l25.4,2.2v.1c18.2,1.3,37.9,2,58.8,2,74,0,132.3-9.3,165.2-19.2a123.55,123.55,0,0,0,21.2-8.1,31.82,31.82,0,0,0,6.7-4.6c25.2-25.9,4.7-59.8,4.7-59.8A7,7,0,0,1,492.2,684.3Z" transform="translate(0 -33.9)"/><path class="cls-17" d="M211.9,405.9c-10.3-2-18.1-4.3-22.5-6.9,5.6,5.3,17.8,13.8,41.8,18.9,19.8,1.5,41.8,2.3,64.9,2.3,6.7,0,13.3-.1,19.8-.2a.37.37,0,0,1,.3-.1h.6c35.8-.8,67.9-3.6,91.8-7.7l-57-2.5c-16.3,1.5-35.3,2.5-55.6,2.5-16.1,0-31.4-.6-45.3-1.6A361.93,361.93,0,0,1,211.9,405.9Z" transform="translate(0 -33.9)"/><path class="cls-13" d="M211.9,52.7V405.8a353.26,353.26,0,0,0,38.8,4.8V43.2c0,5.2-14.7,9.4-32.8,9.4-2.1,0-4.1-.1-6-.2Z" transform="translate(0 -33.9)"/><path class="cls-15" d="M227.2,705.8a63.52,63.52,0,0,0-5.4,4.3c22.9,1.5,48.1,2.4,74.4,2.4,75.1,0,140.3-6.9,173.9-17.1l-.1-.3,9.4-63.3c-4.9,15-85,26.9-183.2,26.9-24.4,0-47.7-.7-68.9-2.1C227.2,698.4,227.2,705,227.2,705.8Z" transform="translate(0 -33.9)"/><path class="cls-18" d="M227.2,646.4v10.3c21.3,1.3,44.6,2.1,68.9,2.1,98.2,0,178.3-11.9,183.2-26.9v-.1l.2-1.4c0-15.7-82.1-28.4-183.4-28.4-14.6,0-28.8.3-42.4.8v35a178.83,178.83,0,0,1-26.3,2.4C227.3,642.2,227.2,644.3,227.2,646.4Z" transform="translate(0 -33.9)"/><path class="cls-15" d="M237.4,769.6l39.9,277.7c6.1.2,12.4.2,18.9.2,68.6,0,124.2-8.6,124.2-19.2l18.3-123,.5-.1c-1.3-13.8.5-21.6.5-21.6,0-9.1,2.3-16.8,5.6-20l-.3-.4,16.5-110.9c-32.9,9.9-91.3,19.2-165.2,19.2C275.2,771.6,255.5,770.9,237.4,769.6Z" transform="translate(0 -33.9)"/><path class="cls-19" d="M238.8,603.4a84.32,84.32,0,0,0-11.4,36.7,178.91,178.91,0,0,0,26.3-2.4v-35C248.7,602.9,243.7,603.2,238.8,603.4Z" transform="translate(0 -33.9)"/><path class="cls-19" d="M238.8,603.4c4.9-.2,9.9-.5,14.9-.6V583.5A101.35,101.35,0,0,0,238.8,603.4Z" transform="translate(0 -33.9)"/><path class="cls-20" d="M250.8,377.2v33.4c13.8,1,29.1,1.6,45.3,1.6,20.3,0,39.3-.9,55.6-2.5,33-3.2,55.2-9.1,55.2-15.8,0-10.1-49.6-18.4-110.9-18.4C278.1,375.6,265.7,376,250.8,377.2Z" transform="translate(0 -33.9)"/><path class="cls-11" d="M250.8,375.9v1.3c15-1.2,27.4-1.6,45.3-1.6,61.3,0,110.9,8.3,110.9,18.4,0,6.8-22.2,12.7-55.2,15.8l57,2.5h.1c27.1-4.6,43.8-11,43.8-17.9,0-14.3-70-25.9-156.4-25.9-17.4,0-29.7.2-45.4,1.1v6.3Z" transform="translate(0 -33.9)"/><path class="cls-21" d="M253.7,583.5v19.3c13.6-.5,27.8-.8,42.4-.8,101.3,0,183.4,12.7,183.4,28.4a6.75,6.75,0,0,1-.2,1.4v.1l-9.4,63.3.1.3c11.2-3.4,18.9-7.2,22.1-11.2,3.3-21.6,5.7-37.1,6.3-42.7a46.46,46.46,0,0,0-.2-11.2.1.1,0,0,0-.1-.1c-2.8-2.6-91.8-86.1-117.8-82.8-21.2,3.7-51,6-84.2,6A138.12,138.12,0,0,0,253.7,583.5Z" transform="translate(0 -33.9)"/><path class="cls-7" d="M253.7,552.2v31.3a138.08,138.08,0,0,1,42.4-30C281.2,553.5,266.8,553,253.7,552.2Z" transform="translate(0 -33.9)"/><path class="cls-21" d="M273.1,422s-44.7,24.7-16.9,52.4c12.6.7,25.9,1.1,39.9,1.1,41,0,76.2-3.4,102.9-8.1,42.4-45.8-73.6-47.5-82.2-47.5h-.6a.37.37,0,0,0-.3.1A374.11,374.11,0,0,1,273.1,422Z" transform="translate(0 -33.9)"/><path class="cls-22" d="M399,467.5c-26.7,4.7-61.9,8.1-102.9,8.1-14,0-27.4-.4-39.9-1.1a11.41,11.41,0,0,0,1.1,1.1l12.9-.5,25.9,78.4c33.2,0,63-2.3,84.2-6,19.8-3.5,31.9-8.1,31.9-13.2l4.5-9.4c12.3-31.8-4.5-60.1-4.5-60.1C408.2,465.8,403.7,466.7,399,467.5Z" transform="translate(0 -33.9)"/><path class="cls-17" d="M231.2,417.8c11.2,2.4,24.9,4,41.9,4.2a354.36,354.36,0,0,0,42.8-2.1c-6.5.1-13.1.2-19.8.2C273,420.1,251,419.3,231.2,417.8Z" transform="translate(0 -33.9)"/><path class="cls-23" d="M277.3,1047.3l2.9,20.4c5.2.1,10.6.2,15.9.2,75.6,0,136.9-10.1,136.9-22.6h.2s7.1-43,16.7-101.1l-1.3-.2a147.76,147.76,0,0,1-9.5-38.7l-.5.1-18.3,123c0,10.6-55.6,19.2-124.2,19.2C289.7,1047.6,283.4,1047.5,277.3,1047.3Z" transform="translate(0 -33.9)"/><path class="cls-17" d="M380.3,547.5c26-3.4,115.1,80.2,117.8,82.8-4-28-31.9-50.4-31.9-50.4l-53.9-45.6C412.3,539.4,400.1,544,380.3,547.5Z" transform="translate(0 -33.9)"/><path class="cls-17" d="M399,467.5c4.7-.8,9.1-1.7,13.2-2.6,22-4.8,36.2-10.4,40.2-15.2,7.2-40.1-41.5-37.6-43.8-37.5h-.1c-23.9,4.1-55.9,6.9-91.8,7.7C325.5,420,441.4,421.6,399,467.5Z" transform="translate(0 -33.9)"/><path class="cls-21" d="M408.7,412.2c2.3-.2,51-2.6,43.8,37.5,27.1-32.3,0-55.3,0-55.3C452.5,401.3,435.8,407.6,408.7,412.2Z" transform="translate(0 -33.9)"/><path class="cls-22" d="M416.8,524.9l35.7-75.3c-4,4.8-18.2,10.4-40.2,15.2C412.3,464.9,429,493.2,416.8,524.9Z" transform="translate(0 -33.9)"/><path class="cls-17" d="M439.7,883.7s-1.8,7.8-.5,21.6a141,141,0,0,0,9.5,38.7l1.3.2c.9-5.4,1.8-10.9,2.8-16.5,1.7-10,3.4-20.4,5.1-31h-2v.1c-1.6,5.3-4.2,8.7-7.2,8.7C443.7,905.3,439.7,895.6,439.7,883.7Z" transform="translate(0 -33.9)"/><path class="cls-24" d="M445.2,863.7c-3.3,3.2-5.6,10.9-5.6,20,0,11.9,4,21.6,8.9,21.6,3,0,5.6-3.4,7.2-8.7v-.1h-4.6c-1.4,0-2.5-5.6-2.5-12.6s1.1-12.5,2.5-12.5H456c-1.6-5.7-4.3-9.5-7.4-9.5A5.71,5.71,0,0,0,445.2,863.7Z" transform="translate(0 -33.9)"/><path class="cls-23" d="M461.4,752.4,444.9,863.3l.3.4a4.67,4.67,0,0,1,3.4-1.7c3.1,0,5.8,3.7,7.4,9.5h5.9c7.1-43.4,14.5-88.4,20.7-127.3A114.84,114.84,0,0,1,461.4,752.4Z" transform="translate(0 -33.9)"/><path class="cls-15" d="M451.1,871.5c-1.4,0-2.5,5.6-2.5,12.5s1.1,12.6,2.5,12.6h40.8c11.2,0,12.3,11.6,11.6,20.3a62.05,62.05,0,0,1-1.5,9.5l13.1,2.5c6.7-.1,12-1.2,12-2.5a40.2,40.2,0,0,0,.9-4.6c.3-1.7.6-3.9.8-6.4,1.4-16-.7-43.8-32.3-43.8H456Z" transform="translate(0 -33.9)"/><path class="cls-25" d="M470.9,943.9s-19,50.1-.1,90.1l.1-.1a.9.9,0,0,0,.1.5v.1a2.51,2.51,0,0,0,.4.7v.1c4.1,5.6,32.9,9.9,67.9,9.9,3.7,0,7.3-.1,10.9-.2-16.7-59.8,3.6-90,3.6-90-4.6.2-9.5.3-14.5.3C501.5,955.3,473.5,949.6,470.9,943.9Z" transform="translate(0 -33.9)"/><path class="cls-26" d="M469.6,930.4a21.33,21.33,0,0,0,1.3,13.5c2.6,5.7,30.6,11.4,68.4,11.4,5,0,9.8-.1,14.5-.3l-4.6.1c-5-9.3-.7-15.7-.1-16.5-5.4,0-10.2-.3-14.6-.7-35.6-.4-63.6-5.3-63.6-11.3A12.53,12.53,0,0,0,469.6,930.4Z" transform="translate(0 -33.9)"/><path class="cls-26" d="M470.8,1034.1c-.6,1.3-3.7,9.1.1,17.2,2.6,5.7,30.6,11.3,68.4,11.3,3.6,0,7.2-.1,10.6-.2,0,0-5.6-6.8.4-17.1a.35.35,0,0,0-.1-.2c-3.6.1-7.2.2-10.9.2-35,0-63.8-4.3-67.9-9.9v-.1a2.51,2.51,0,0,1-.4-.7v-.1C470.9,1034.2,470.9,1034.2,470.8,1034.1Z" transform="translate(0 -33.9)"/><path class="cls-26" d="M470.8,1034h0a.76.76,0,0,0,.2.3.9.9,0,0,1-.1-.5C470.9,1033.9,470.9,1034,470.8,1034Z" transform="translate(0 -33.9)"/><path class="cls-25" d="M503.6,916.9c-19.7,2-32.8,5.6-32.8,9.6,0,6,28,10.9,63.6,11.3-18.1-2-27.5-7.7-30.9-10.3a.1.1,0,0,1-.1-.1c-.9-.3-1.4-.7-1.4-1.1A42.42,42.42,0,0,0,503.6,916.9Z" transform="translate(0 -33.9)"/><path class="cls-10" d="M515.1,928.9,502,926.4l1.4,1.1a.1.1,0,0,1,.1.1c2.1.8,6.3,1.3,11,1.3Z" transform="translate(0 -33.9)"/><path class="cls-27" d="M514.6,928.9c-4.8,0-8.9-.5-11-1.3,3.4,2.5,12.8,8.3,30.9,10.3,1.5.1,3.2.1,4.8.1,7,0,13.8-.2,20.1-.5L515.2,929A1.48,1.48,0,0,0,514.6,928.9Z" transform="translate(0 -33.9)"/><path class="cls-27" d="M515.1,928.9l44.2,8.5c19-1,34.5-3.3,42.5-6.3L528,921.7c-.5,2.9-.9,4.6-.9,4.6C527.1,927.7,521.8,928.8,515.1,928.9Z" transform="translate(0 -33.9)"/><path class="cls-25" d="M528,921.7l73.8,9.4c3.8-1.4,5.9-2.9,5.9-4.6,0-6.2-30.6-11.3-68.4-11.3-3.4,0-6.8.1-10.2.1h-.3C528.6,917.8,528.3,920,528,921.7Z" transform="translate(0 -33.9)"/><path class="cls-27" d="M549,938.6c4-.1,8.3-.3,13-.7l-2.6-.5c-6.3.3-13.1.5-20.1.5-1.6,0-3.3,0-4.8-.1A125.28,125.28,0,0,0,549,938.6Z" transform="translate(0 -33.9)"/><path class="cls-28" d="M549,938.6c-.6.8-5,7.2.1,16.5l4.6-.1c30.3-1.2,51.7-6.1,54-11.1,4.1-8.8,0-17.4,0-17.4,0,1.7-2.1,3.2-5.9,4.6-8,3-23.5,5.3-42.5,6.3l2.6.5C557.3,938.3,553,938.5,549,938.6Z" transform="translate(0 -33.9)"/><path class="cls-29" d="M553.7,955s-20.2,30.3-3.6,90c29.9-.7,53.3-4.8,57-9.8v-.1a2.51,2.51,0,0,0,.4-.7v-.1a.9.9,0,0,0,.1-.5.1.1,0,0,0,.1.1c18.9-40-.1-90.1-.1-90.1C605.4,948.8,584,953.8,553.7,955Z" transform="translate(0 -33.9)"/><path class="cls-28" d="M550.2,1045.3c-6,10.4-.4,17.1-.4,17.1,32.3-.9,55.5-6,57.9-11.1,3.8-8.1.6-15.9.1-17.2-.1.1-.1.2-.2.3v.1a1.61,1.61,0,0,1-.4.7v.1c-3.7,5-27.1,9-57,9.8Z" transform="translate(0 -33.9)"/></g><path class="cls-30" d="M574.2,952.7s20.4,53.7-.5,96" transform="translate(0 -33.9)"/><path class="cls-30" d="M496.6,952.2s-20.4,53.7.5,96" transform="translate(0 -33.9)"/><path class="cls-30" d="M541.2,951.5s3.8,63-1,92.9" transform="translate(0 -33.9)"/><g id="_Group_2" data-name="&lt;Group&gt;"><path class="cls-25" d="M5.9,1169.8a12.46,12.46,0,0,0,.1,7.4,12.13,12.13,0,0,0,23.1-.5c-17.3,8.9-11.2-13.5-11.2-13.5s7.9-27.1,19.4-66.5a.37.37,0,0,1,.1-.3,16.69,16.69,0,0,1,1.5-5.4c6.5-22.3,14-47.9,21.8-74.7,8.2-28,16.7-57.2,24.8-84.8,8.8-30.3,17.1-58.7,23.7-81.2,8.3-28.3,13.9-47.4,14.7-49.9,3.6-11.4,15.1,0,15.1,0a10.16,10.16,0,0,0-.6-3.4,12.18,12.18,0,0,0-23.4,1.4h-.1L5.9,1169.8Z" transform="translate(0 -33.9)"/><path class="cls-31" d="M17.9,1163.2s-6.1,22.4,11.2,13.5a.1.1,0,0,1,.1-.1l8.1-76.7a12.19,12.19,0,0,1,0-2.7c0-.2.1-.3.1-.5C25.8,1136.2,17.9,1163.2,17.9,1163.2Z" transform="translate(0 -33.9)"/><path class="cls-32" d="M37.2,1099.9l-8.1,76.7,20.2-68.7-8.7-2.5C38.9,1105,37.6,1103,37.2,1099.9Z" transform="translate(0 -33.9)"/><path class="cls-33" d="M37.2,1097.2a12.19,12.19,0,0,0,0,2.7c.3,3.1,1.7,5,3.4,5.6l8.7,2.5,97.4,28.4,1.4.4,2.1-6.8L38.8,1097.3Z" transform="translate(0 -33.9)"/><path class="cls-25" d="M37.2,1097.2l1.6.1L150.2,1130l3.9-13.3-1.4-.4-97.5-28.4-8.7-2.5a4.63,4.63,0,0,0-3.9.9,12.86,12.86,0,0,0-3.8,4.9l-1.5,5.4a.37.37,0,0,0-.1.3Z" transform="translate(0 -33.9)"/><path class="cls-31" d="M38.9,1091.1a12.86,12.86,0,0,1,3.8-4.9,4.63,4.63,0,0,1,3.9-.9l8.7,2.5,7.2-70.9-1.8-.5C52.9,1043.1,45.4,1068.8,38.9,1091.1Z" transform="translate(0 -33.9)"/><path class="cls-32" d="M62.5,1016.9l-7.2,70.9,17.5-59.4-6.8-2v-.1c-1.8-.5-3.2-2.5-3.4-5.6a12,12,0,0,1,.2-3.8Z" transform="translate(0 -33.9)"/><path class="cls-31" d="M85.8,935.7a16.06,16.06,0,0,1,.8-3.8l-1-.3c-8.1,27.6-16.6,56.8-24.8,84.8l1.8.5.2.1c.6-4,2.6-8,5.3-9.8a4.13,4.13,0,0,1,3.8-.9H72l6.8,2,7-69.6A7.58,7.58,0,0,1,85.8,935.7Z" transform="translate(0 -33.9)"/><path class="cls-33" d="M62.7,1017a16.44,16.44,0,0,0-.2,3.8c.3,3.1,1.7,5,3.4,5.6v.1l6.8,2,98.9,28.9,2.2-7.7Z" transform="translate(0 -33.9)"/><path class="cls-25" d="M62.7,1017l111.2,32.6,3.7-12.5-98.9-28.8-6.8-2h-.1a4.37,4.37,0,0,0-3.8.9C65.3,1009,63.3,1013,62.7,1017Z" transform="translate(0 -33.9)"/><path class="cls-32" d="M85.7,938.6l-7,69.6,18.2-61.8-7.7-2.3C87.4,943.7,86.1,941.7,85.7,938.6Z" transform="translate(0 -33.9)"/><path class="cls-31" d="M85.5,931.6l1,.3a13.41,13.41,0,0,1,4.6-6.9,4.63,4.63,0,0,1,3.9-.9l7.7,2.2,8.2-75.4-1.7-.5C102.7,872.8,94.4,901.2,85.5,931.6Z" transform="translate(0 -33.9)"/><path class="cls-33" d="M85.8,935.7a9.42,9.42,0,0,0-.1,2.9c.3,3.1,1.7,5,3.4,5.6l7.7,2.3,98.4,28.7.5.2,2-6.8Z" transform="translate(0 -33.9)"/><path class="cls-25" d="M85.8,935.7l112,32.9,4-13.4-.5-.2-98.4-28.7-7.7-2.2a4.63,4.63,0,0,0-3.9.9,13.41,13.41,0,0,0-4.6,6.9A12.41,12.41,0,0,0,85.8,935.7Z" transform="translate(0 -33.9)"/><path class="cls-32" d="M111,850.9l-8.2,75.4,18.9-64.2V862l-7.1-2.1c-1.8-.5-3.2-2.5-3.4-5.6a12.92,12.92,0,0,1,.1-3.4Z" transform="translate(0 -33.9)"/><path class="cls-31" d="M109.3,850.4l1.7.5.2.1c.5-4.2,2.6-8.3,5.3-10.3a4.42,4.42,0,0,1,3.8-.9l7.2,2.1,10.8-36.6h-.1a10.11,10.11,0,0,0,.7-4.9s-11.5-11.4-15.1,0C123.2,803,117.5,822.1,109.3,850.4Z" transform="translate(0 -33.9)"/><path class="cls-33" d="M111.2,850.9a13,13,0,0,0-.1,3.4c.3,3.1,1.6,5,3.4,5.6l7.1,2.1,98.9,28.9h.1l2.1-7.2Z" transform="translate(0 -33.9)"/><path class="cls-25" d="M111.2,850.9l111.5,32.8h.1l3.8-12.9-98.9-28.9-7.2-2.1a4.37,4.37,0,0,0-3.8.9C113.8,842.6,111.7,846.8,111.2,850.9Z" transform="translate(0 -33.9)"/><path class="cls-25" d="M173.9,1049.6l-2.2,7.7-17.5,59.4-3.9,13.3-2.1,6.8-18.4,62.7h.1a12.46,12.46,0,0,0,.1,7.4c8.9,9.2,16.2-6.4,16.2-6.4S248.9,849.3,253.1,835.6s-11.8-11.9-11.8-11.9l-.1-.1a14.61,14.61,0,0,0-2,4.6l-.1-.1-12.5,42.6-3.8,12.9h-.1l-2.1,7.2h-.1l-18.9,64.3-4,13.4-2,6.8-18.2,61.8Z" transform="translate(0 -33.9)"/><path class="cls-33" d="M146.2,1200.5s-7.2,15.7-16.2,6.4a12.18,12.18,0,0,0,23.2-.6L262.5,835l-.1-.1a12,12,0,0,0-15.3-15.7,13,13,0,0,0-5.9,4.4l.1.1s15.9-1.8,11.8,11.9C248.8,849.3,146.2,1200.5,146.2,1200.5Z" transform="translate(0 -33.9)"/></g><rect class="cls-34" x="1638.1" y="1539.3" width="111.7" height="33.1"/><path class="cls-35" d="M1492,1416.7c0,.1-.1.3-.1.4,0,4.3,17.1,7.8,38.2,7.8s38.2-3.5,38.2-7.8a.6.6,0,0,0-.1-.4,47.09,47.09,0,0,1,4.1,19.3v115.5c0,5-18.9,9.1-42.2,9.1s-42.2-4.1-42.2-9.1V1436A47.09,47.09,0,0,1,1492,1416.7Z" transform="translate(0 -33.9)"/><path class="cls-36" d="M1568.2,1416.7l-.3-.6A.86.86,0,0,1,1568.2,1416.7Z" transform="translate(0 -33.9)"/><path class="cls-36" d="M1530.1,1424.9c-21.1,0-38.2-3.5-38.2-7.8a.6.6,0,0,1,.1-.4l.3-.6c2.4-3.8,18.4-6.8,37.9-6.8s35.5,3,37.9,6.8l.3.6c0,.1.1.3.1.4C1568.3,1421.4,1551.2,1424.9,1530.1,1424.9Z" transform="translate(0 -33.9)"/><path class="cls-37" d="M1496.9,1408.2l3.1-4.3a28.15,28.15,0,0,0,5.4-16.6v-14.2c4.6,1.8,13.9,3.1,24.7,3.1s20.1-1.2,24.7-3.1v14.2a27.93,27.93,0,0,0,5.4,16.6l3.1,4.3a48.41,48.41,0,0,1,4.7,7.9c-2.4-3.8-18.4-6.8-37.9-6.8s-35.5,3-37.9,6.8A53,53,0,0,1,1496.9,1408.2Z" transform="translate(0 -33.9)"/><path class="cls-38" d="M1502.4,1382.4v-11.8h55.5v11.8a28.09,28.09,0,0,0,6.1,17.6l3.5,4.5a47.68,47.68,0,0,1,10.1,29.5v122.6h-94.8V1434a48.51,48.51,0,0,1,10.1-29.5l3.5-4.5A29.23,29.23,0,0,0,1502.4,1382.4Z" transform="translate(0 -33.9)"/><ellipse class="cls-38" cx="1530.1" cy="1522.7" rx="47.4" ry="9.6"/><ellipse class="cls-37" cx="1530.1" cy="1519.9" rx="42.2" ry="8.6"/><path class="cls-35" d="M1492,1416.7c0,.1-.1.3-.1.4,0,4.3,17.1,7.8,38.2,7.8s38.2-3.5,38.2-7.8a.6.6,0,0,0-.1-.4,47.09,47.09,0,0,1,4.1,19.3v115.5c0,5-18.9,9.1-42.2,9.1s-42.2-4.1-42.2-9.1V1436A47.09,47.09,0,0,1,1492,1416.7Z" transform="translate(0 -33.9)"/><path class="cls-37" d="M1530.1,1409.4c-19.4,0-35.5,3-37.9,6.8a44.54,44.54,0,0,1,4.7-7.9l3.1-4.3a28.15,28.15,0,0,0,5.4-16.6v-16.8h49.4v16.8a27.93,27.93,0,0,0,5.4,16.6l3.1,4.3a48.41,48.41,0,0,1,4.7,7.9C1565.6,1412.3,1549.5,1409.4,1530.1,1409.4Z" transform="translate(0 -33.9)"/><path class="cls-36" d="M1568.2,1416.7l-.3-.6A.86.86,0,0,1,1568.2,1416.7Z" transform="translate(0 -33.9)"/><path class="cls-36" d="M1530.1,1424.9c-21.1,0-38.2-3.5-38.2-7.8a.6.6,0,0,1,.1-.4l.3-.6c2.4-3.8,18.4-6.8,37.9-6.8s35.5,3,37.9,6.8l.3.6c0,.1.1.3.1.4C1568.3,1421.4,1551.2,1424.9,1530.1,1424.9Z" transform="translate(0 -33.9)"/><path class="cls-39" d="M1492.8,1404.5l3.5-4.5a28.91,28.91,0,0,0,6.1-17.6v-11.8h29.7v11.8a28.09,28.09,0,0,1-6.1,17.6l-3.5,4.5a47.68,47.68,0,0,0-10.1,29.5v122.6c0,4.3,13.6,7.9,32.6,9.2-4.7.3-9.7.5-14.9.5-26.2,0-47.4-4.3-47.4-9.6V1434A47.89,47.89,0,0,1,1492.8,1404.5Z" transform="translate(0 -33.9)"/><path class="cls-40" d="M1556.2,1353.7l-5.6,37.9c0,2.3-9.2,4.2-20.5,4.2s-20.5-1.9-20.5-4.2l-5.6-37.9Z" transform="translate(0 -33.9)"/><path class="cls-41" d="M1520.9,1353.7l5.6,37.9c0,1.7,4.9,3.1,12,3.8-2.6.2-5.4.4-8.5.4-11.3,0-20.5-1.9-20.5-4.2l-5.6-37.9h17Z" transform="translate(0 -33.9)"/><ellipse class="cls-42" cx="1530.1" cy="1319.8" rx="26.1" ry="5.3"/><path class="cls-38" d="M1506,1367.7l.4,2.8c0,2,10.6,3.6,23.7,3.6s23.7-1.6,23.7-3.6l.4-2.8c2.3.8,3.6,1.8,3.6,2.8,0,3.1-12.4,5.6-27.7,5.6s-27.7-2.5-27.7-5.6C1502.4,1369.5,1503.7,1368.5,1506,1367.7Z" transform="translate(0 -33.9)"/><path class="cls-43" d="M1566.5,1414.8a7.45,7.45,0,0,1-1.2-.7c-.7-.3-1.4-.6-2.3-.9-.6-.2-1.2-.4-1.9-.6a41.31,41.31,0,0,0-4.4-1c-2-.4-4.3-.8-6.7-1.1l-3-.3-3.1-.3c-1.1-.1-2.2-.2-3.3-.2s-2.2-.1-3.4-.2a9.14,9.14,0,0,1-1.7-.1c-1.2,0-2.4-.1-3.6-.1h-3.6c-1.2,0-2.4,0-3.6.1a9.14,9.14,0,0,0-1.7.1c-1.2,0-2.3.1-3.4.2h-.6a59.14,59.14,0,0,1,3.5-5.2l3.5-4.5a28.91,28.91,0,0,0,6.1-17.6v-6.2c9.9-.1,18.4-1.3,22.7-3.1v14.2a27.93,27.93,0,0,0,5.4,16.6l3.1,4.3a48.41,48.41,0,0,1,4.7,7.9A5,5,0,0,0,1566.5,1414.8Z" transform="translate(0 -33.9)"/><path class="cls-39" d="M1526,1400l-3.5,4.5a59.07,59.07,0,0,0-3.5,5.2c-.9.1-1.8.1-2.7.2l-3.1.3c-2,.2-4,.4-5.8.7-.9.1-1.8.3-2.6.4a16.94,16.94,0,0,0-2.4.5c-.7.2-1.5.3-2.2.5-4.2,1.1-7,2.4-7.9,3.8a44.54,44.54,0,0,1,4.7-7.9l3.1-4.3a28.15,28.15,0,0,0,5.4-16.6v-14.2c4.6,1.8,13.9,3.1,24.7,3.1h2v6.2A28.79,28.79,0,0,1,1526,1400Z" transform="translate(0 -33.9)"/><path class="cls-35" d="M1384.2,1416.7c0,.1-.1.3-.1.4,0,4.3,17.1,7.8,38.2,7.8s38.2-3.5,38.2-7.8a.6.6,0,0,0-.1-.4,47.09,47.09,0,0,1,4.1,19.3v115.5c0,5-18.9,9.1-42.2,9.1s-42.2-4.1-42.2-9.1V1436A47.09,47.09,0,0,1,1384.2,1416.7Z" transform="translate(0 -33.9)"/><path class="cls-36" d="M1460.4,1416.7l-.3-.6A.86.86,0,0,1,1460.4,1416.7Z" transform="translate(0 -33.9)"/><path class="cls-36" d="M1422.3,1424.9c-21.1,0-38.2-3.5-38.2-7.8a.6.6,0,0,1,.1-.4l.3-.6c2.4-3.8,18.4-6.8,37.9-6.8s35.5,3,37.9,6.8l.3.6c0,.1.1.3.1.4C1460.5,1421.4,1443.4,1424.9,1422.3,1424.9Z" transform="translate(0 -33.9)"/><path class="cls-37" d="M1389.1,1408.2l3.1-4.3a28.15,28.15,0,0,0,5.4-16.6v-14.2c4.6,1.8,13.9,3.1,24.7,3.1s20.1-1.2,24.7-3.1v14.2a27.93,27.93,0,0,0,5.4,16.6l3.1,4.3a48.41,48.41,0,0,1,4.7,7.9c-2.4-3.8-18.4-6.8-37.9-6.8s-35.5,3-37.9,6.8A53.06,53.06,0,0,1,1389.1,1408.2Z" transform="translate(0 -33.9)"/><path class="cls-38" d="M1394.6,1382.4v-11.8h55.5v11.8a28.09,28.09,0,0,0,6.1,17.6l3.5,4.5a47.68,47.68,0,0,1,10.1,29.5v122.6H1375V1434a48.51,48.51,0,0,1,10.1-29.5l3.5-4.5A28.59,28.59,0,0,0,1394.6,1382.4Z" transform="translate(0 -33.9)"/><ellipse class="cls-38" cx="1422.3" cy="1522.7" rx="47.4" ry="9.6"/><ellipse class="cls-37" cx="1422.3" cy="1519.9" rx="42.2" ry="8.6"/><path class="cls-35" d="M1384.2,1416.7c0,.1-.1.3-.1.4,0,4.3,17.1,7.8,38.2,7.8s38.2-3.5,38.2-7.8a.6.6,0,0,0-.1-.4,47.09,47.09,0,0,1,4.1,19.3v115.5c0,5-18.9,9.1-42.2,9.1s-42.2-4.1-42.2-9.1V1436A47.09,47.09,0,0,1,1384.2,1416.7Z" transform="translate(0 -33.9)"/><path class="cls-37" d="M1422.3,1409.4c-19.4,0-35.5,3-37.9,6.8a44.54,44.54,0,0,1,4.7-7.9l3.1-4.3a28.15,28.15,0,0,0,5.4-16.6v-16.8H1447v16.8a27.93,27.93,0,0,0,5.4,16.6l3.1,4.3a48.41,48.41,0,0,1,4.7,7.9C1457.8,1412.3,1441.8,1409.4,1422.3,1409.4Z" transform="translate(0 -33.9)"/><path class="cls-36" d="M1460.4,1416.7l-.3-.6A.86.86,0,0,1,1460.4,1416.7Z" transform="translate(0 -33.9)"/><path class="cls-36" d="M1422.3,1424.9c-21.1,0-38.2-3.5-38.2-7.8a.6.6,0,0,1,.1-.4l.3-.6c2.4-3.8,18.4-6.8,37.9-6.8s35.5,3,37.9,6.8l.3.6c0,.1.1.3.1.4C1460.5,1421.4,1443.4,1424.9,1422.3,1424.9Z" transform="translate(0 -33.9)"/><path class="cls-39" d="M1385,1404.5l3.5-4.5a28.91,28.91,0,0,0,6.1-17.6v-11.8h29.7v11.8a28.09,28.09,0,0,1-6.1,17.6l-3.5,4.5a47.68,47.68,0,0,0-10.1,29.5v122.6c0,4.3,13.6,7.9,32.6,9.2-4.7.3-9.7.5-14.9.5-26.2,0-47.4-4.3-47.4-9.6V1434A47.89,47.89,0,0,1,1385,1404.5Z" transform="translate(0 -33.9)"/><path class="cls-40" d="M1448.4,1353.7l-5.6,37.9c0,2.3-9.2,4.2-20.5,4.2s-20.5-1.9-20.5-4.2l-5.6-37.9Z" transform="translate(0 -33.9)"/><path class="cls-41" d="M1413.1,1353.7l5.6,37.9c0,1.7,4.9,3.1,12,3.8-2.6.2-5.4.4-8.5.4-11.3,0-20.5-1.9-20.5-4.2l-5.6-37.9h17Z" transform="translate(0 -33.9)"/><ellipse class="cls-42" cx="1422.3" cy="1319.8" rx="26.1" ry="5.3"/><path class="cls-38" d="M1398.2,1367.7l.4,2.8c0,2,10.6,3.6,23.7,3.6s23.7-1.6,23.7-3.6l.4-2.8c2.3.8,3.6,1.8,3.6,2.8,0,3.1-12.4,5.6-27.7,5.6s-27.7-2.5-27.7-5.6C1394.6,1369.5,1395.9,1368.5,1398.2,1367.7Z" transform="translate(0 -33.9)"/><path class="cls-43" d="M1458.7,1414.8a7.45,7.45,0,0,1-1.2-.7c-.7-.3-1.4-.6-2.3-.9-.6-.2-1.2-.4-1.9-.6a41.31,41.31,0,0,0-4.4-1c-2-.4-4.3-.8-6.7-1.1l-3-.3-3.1-.3c-1.1-.1-2.2-.2-3.3-.2s-2.2-.1-3.4-.2a9.14,9.14,0,0,1-1.7-.1c-1.2,0-2.4-.1-3.6-.1h-3.6c-1.2,0-2.4,0-3.6.1a9.14,9.14,0,0,0-1.7.1c-1.2,0-2.3.1-3.4.2h-.6a59.14,59.14,0,0,1,3.5-5.2l3.5-4.5a28.91,28.91,0,0,0,6.1-17.6v-6.2c9.9-.1,18.4-1.3,22.7-3.1v14.2a27.93,27.93,0,0,0,5.4,16.6l3.1,4.3a48.41,48.41,0,0,1,4.7,7.9A5,5,0,0,0,1458.7,1414.8Z" transform="translate(0 -33.9)"/><path class="cls-39" d="M1418.3,1400l-3.5,4.5a59.07,59.07,0,0,0-3.5,5.2c-.9.1-1.8.1-2.7.2l-3.1.3c-2,.2-4,.4-5.8.7-.9.1-1.8.3-2.6.4a16.94,16.94,0,0,0-2.4.5c-.8.2-1.5.3-2.2.5-4.2,1.1-7,2.4-7.9,3.8a44.54,44.54,0,0,1,4.7-7.9l3.1-4.3a28.15,28.15,0,0,0,5.4-16.6v-14.2c4.6,1.8,13.9,3.1,24.7,3.1h2v6.2A30.09,30.09,0,0,1,1418.3,1400Z" transform="translate(0 -33.9)"/><path class="cls-35" d="M1277.8,1416.7c0,.1-.1.3-.1.4,0,4.3,17.1,7.8,38.2,7.8s38.2-3.5,38.2-7.8a.6.6,0,0,0-.1-.4,47.09,47.09,0,0,1,4.1,19.3v115.5c0,5-18.9,9.1-42.2,9.1s-42.2-4.1-42.2-9.1V1436A47.09,47.09,0,0,1,1277.8,1416.7Z" transform="translate(0 -33.9)"/><path class="cls-36" d="M1354,1416.7l-.3-.6A.86.86,0,0,1,1354,1416.7Z" transform="translate(0 -33.9)"/><path class="cls-36" d="M1315.9,1424.9c-21.1,0-38.2-3.5-38.2-7.8a.6.6,0,0,1,.1-.4l.3-.6c2.4-3.8,18.4-6.8,37.9-6.8s35.5,3,37.9,6.8l.3.6c0,.1.1.3.1.4C1354.1,1421.4,1337,1424.9,1315.9,1424.9Z" transform="translate(0 -33.9)"/><path class="cls-37" d="M1282.7,1408.2l3.1-4.3a28.15,28.15,0,0,0,5.4-16.6v-14.2c4.6,1.8,13.9,3.1,24.7,3.1s20.1-1.2,24.7-3.1v14.2a27.93,27.93,0,0,0,5.4,16.6l3.1,4.3a48.41,48.41,0,0,1,4.7,7.9c-2.4-3.8-18.4-6.8-37.9-6.8s-35.5,3-37.9,6.8A53.07,53.07,0,0,1,1282.7,1408.2Z" transform="translate(0 -33.9)"/><path class="cls-38" d="M1288.2,1382.4v-11.8h55.5v11.8a28.09,28.09,0,0,0,6.1,17.6l3.5,4.5a47.68,47.68,0,0,1,10.1,29.5v122.6h-94.8V1434a48.51,48.51,0,0,1,10.1-29.5l3.5-4.5A28.59,28.59,0,0,0,1288.2,1382.4Z" transform="translate(0 -33.9)"/><ellipse class="cls-38" cx="1315.9" cy="1522.7" rx="47.4" ry="9.6"/><ellipse class="cls-37" cx="1315.9" cy="1519.9" rx="42.2" ry="8.6"/><path class="cls-35" d="M1277.8,1416.7c0,.1-.1.3-.1.4,0,4.3,17.1,7.8,38.2,7.8s38.2-3.5,38.2-7.8a.6.6,0,0,0-.1-.4,47.09,47.09,0,0,1,4.1,19.3v115.5c0,5-18.9,9.1-42.2,9.1s-42.2-4.1-42.2-9.1V1436A47.09,47.09,0,0,1,1277.8,1416.7Z" transform="translate(0 -33.9)"/><path class="cls-37" d="M1315.9,1409.4c-19.4,0-35.5,3-37.9,6.8a44.54,44.54,0,0,1,4.7-7.9l3.1-4.3a28.15,28.15,0,0,0,5.4-16.6v-16.8h49.4v16.8a27.93,27.93,0,0,0,5.4,16.6l3.1,4.3a48.41,48.41,0,0,1,4.7,7.9C1351.4,1412.3,1335.4,1409.4,1315.9,1409.4Z" transform="translate(0 -33.9)"/><path class="cls-36" d="M1354,1416.7l-.3-.6A.86.86,0,0,1,1354,1416.7Z" transform="translate(0 -33.9)"/><path class="cls-36" d="M1315.9,1424.9c-21.1,0-38.2-3.5-38.2-7.8a.6.6,0,0,1,.1-.4l.3-.6c2.4-3.8,18.4-6.8,37.9-6.8s35.5,3,37.9,6.8l.3.6c0,.1.1.3.1.4C1354.1,1421.4,1337,1424.9,1315.9,1424.9Z" transform="translate(0 -33.9)"/><path class="cls-39" d="M1278.6,1404.5l3.5-4.5a28.91,28.91,0,0,0,6.1-17.6v-11.8h29.7v11.8a28.09,28.09,0,0,1-6.1,17.6l-3.5,4.5a47.68,47.68,0,0,0-10.1,29.5v122.6c0,4.3,13.6,7.9,32.6,9.2-4.7.3-9.7.5-14.9.5-26.2,0-47.4-4.3-47.4-9.6V1434A48.52,48.52,0,0,1,1278.6,1404.5Z" transform="translate(0 -33.9)"/><path class="cls-40" d="M1342,1353.7l-5.6,37.9c0,2.3-9.2,4.2-20.5,4.2s-20.5-1.9-20.5-4.2l-5.6-37.9Z" transform="translate(0 -33.9)"/><path class="cls-41" d="M1306.7,1353.7l5.6,37.9c0,1.7,4.9,3.1,12,3.8-2.6.2-5.4.4-8.5.4-11.3,0-20.5-1.9-20.5-4.2l-5.6-37.9h17Z" transform="translate(0 -33.9)"/><ellipse class="cls-42" cx="1315.9" cy="1319.8" rx="26.1" ry="5.3"/><path class="cls-38" d="M1291.8,1367.7l.4,2.8c0,2,10.6,3.6,23.7,3.6s23.7-1.6,23.7-3.6l.4-2.8c2.3.8,3.6,1.8,3.6,2.8,0,3.1-12.4,5.6-27.7,5.6s-27.7-2.5-27.7-5.6C1288.2,1369.5,1289.5,1368.5,1291.8,1367.7Z" transform="translate(0 -33.9)"/><path class="cls-43" d="M1352.3,1414.8a7.45,7.45,0,0,1-1.2-.7c-.7-.3-1.4-.6-2.3-.9-.6-.2-1.2-.4-1.9-.6a41.31,41.31,0,0,0-4.4-1c-2-.4-4.3-.8-6.7-1.1l-3-.3-3.1-.3c-1.1-.1-2.2-.2-3.3-.2s-2.2-.1-3.4-.2a9.14,9.14,0,0,1-1.7-.1c-1.2,0-2.4-.1-3.6-.1h-3.6c-1.2,0-2.4,0-3.6.1a9.14,9.14,0,0,0-1.7.1c-1.2,0-2.3.1-3.4.2h-.6a59.14,59.14,0,0,1,3.5-5.2l3.5-4.5a28.91,28.91,0,0,0,6.1-17.6v-6.2c9.9-.1,18.4-1.3,22.7-3.1v14.2a27.93,27.93,0,0,0,5.4,16.6l3.1,4.3a48.41,48.41,0,0,1,4.7,7.9A5,5,0,0,0,1352.3,1414.8Z" transform="translate(0 -33.9)"/><path class="cls-39" d="M1311.9,1400l-3.5,4.5a59.07,59.07,0,0,0-3.5,5.2c-.9.1-1.8.1-2.7.2l-3.1.3c-2,.2-4,.4-5.8.7-.9.1-1.8.3-2.6.4a16.94,16.94,0,0,0-2.4.5c-.7.2-1.5.3-2.2.5-4.2,1.1-7,2.4-7.9,3.8a44.54,44.54,0,0,1,4.7-7.9l3.1-4.3a28.15,28.15,0,0,0,5.4-16.6v-14.2c4.6,1.8,13.9,3.1,24.7,3.1h2v6.2A30.09,30.09,0,0,1,1311.9,1400Z" transform="translate(0 -33.9)"/><rect class="cls-24" x="1467.87" y="1525.05" width="310.3" height="37"/><polygon class="cls-38" points="1610 1463.3 1778.2 1463.3 1739.2 1297.8 1610 1297.8 1610 1463.3"/><polygon class="cls-44" points="1739.5 1298.1 1778.5 1463.7 1760.9 1463.7 1722 1298.1 1739.5 1298.1"/><rect class="cls-40" x="1262.37" y="1420.43" width="331.1" height="42.9"/><rect class="cls-40" x="1262.02" y="1471.12" width="331.1" height="42.9"/><rect class="cls-40" x="1262.02" y="1521.7" width="331.1" height="42.9"/><rect class="cls-45" x="1610.02" y="1298.47" width="20.1" height="164.9"/><circle class="cls-24" cx="1695.1" cy="1559.4" r="58.4"/><circle class="cls-46" cx="1695.4" cy="1559.8" r="33.1"/><circle class="cls-47" cx="1695.4" cy="1559.8" r="27.9"/><rect class="cls-42" x="1577.82" y="1420.52" width="15.3" height="144.1"/><rect class="cls-42" x="1514.7" y="1420.52" width="15.3" height="144.1"/><rect class="cls-42" x="1451.48" y="1420.52" width="15.3" height="144.1"/><rect class="cls-42" x="1388.36" y="1420.52" width="15.3" height="144.1"/><rect class="cls-42" x="1325.14" y="1420.52" width="15.3" height="144.1"/><rect class="cls-42" x="1262.01" y="1420.52" width="15.3" height="144.1"/><rect class="cls-37" x="1521.38" y="1538.95" width="62.3" height="51.3"/><rect class="cls-42" x="1255.52" y="1420.46" width="344.1" height="20.8"/><circle class="cls-24" cx="1456.1" cy="1559.4" r="58.4"/><circle class="cls-46" cx="1456.5" cy="1559.8" r="33.1"/><circle class="cls-47" cx="1456.5" cy="1559.8" r="27.9"/><circle class="cls-24" cx="1334.7" cy="1559.4" r="58.4"/><circle class="cls-46" cx="1335" cy="1559.8" r="33.1"/><circle class="cls-47" cx="1335" cy="1559.8" r="27.9"/><path class="cls-44" d="M1609.3,1316.8h132.5a5.7,5.7,0,0,1,5.7,5.7v9.9a5.7,5.7,0,0,1-5.7,5.7H1609.3Z" transform="translate(0 -33.9)"/><path class="cls-34" d="M1736.1,1325H1614.4a1.16,1.16,0,0,1-1.2-1.2v-1.7a1.16,1.16,0,0,1,1.2-1.2h121.7a1.16,1.16,0,0,1,1.2,1.2v1.7A1.16,1.16,0,0,1,1736.1,1325Z" transform="translate(0 -33.9)"/><rect class="cls-34" x="1261.7" y="1423.5" width="330.9" height="4.1"/><rect class="cls-48" x="1262" y="1441.3" width="15.3" height="2.5"/><rect class="cls-48" x="1325.2" y="1441.3" width="15.3" height="2.5"/><rect class="cls-48" x="1388.3" y="1441.3" width="15.3" height="2.5"/><polyline class="cls-48" points="1451.5 1441.3 1466.8 1441.3 1466.8 1444.2 1451.5 1444.2 1451.5 1441.3"/><rect class="cls-48" x="1514.6" y="1441.3" width="15.4" height="2.9"/><rect class="cls-48" x="1577.8" y="1441.3" width="15.3" height="2.9"/><circle class="cls-34" cx="1309.3" cy="1520.7" r="6.2"/><circle class="cls-34" cx="1429.2" cy="1520.7" r="6.2"/><circle class="cls-34" cx="1669.1" cy="1520.7" r="6.2"/><rect class="cls-49" x="1610.2" y="1304.3" width="20" height="15.5"/><polygon class="cls-50" points="1723.4 1304.3 1741 1304.3 1744.4 1319.8 1727.1 1319.8 1723.4 1304.3"/><path class="cls-51" d="M1712,1361.8l-55.5,48.5a2.39,2.39,0,0,1-3.4-.2l-2.3-2.6a2.39,2.39,0,0,1,.2-3.4l55.5-48.5a2.39,2.39,0,0,1,3.4.2l2.3,2.6A2.39,2.39,0,0,1,1712,1361.8Z" transform="translate(0 -33.9)"/><path class="cls-51" d="M1712,1394.9l-55.5,48.5a2.39,2.39,0,0,1-3.4-.2l-2.3-2.6a2.39,2.39,0,0,1,.2-3.4l55.5-48.5a2.39,2.39,0,0,1,3.4.2l2.3,2.6A2.39,2.39,0,0,1,1712,1394.9Z" transform="translate(0 -33.9)"/><rect class="cls-52" x="1277.3" y="1441.9" width="47.8" height="7.1"/><rect class="cls-52" x="1340.5" y="1441.9" width="47.8" height="7.1"/><rect class="cls-52" x="1403.6" y="1441.9" width="47.8" height="7.1"/><rect class="cls-52" x="1466.8" y="1441.9" width="47.8" height="7.1"/><rect class="cls-52" x="1530.1" y="1441.9" width="47.7" height="7.1"/><g id="_Group_3" data-name="&lt;Group&gt;"><path class="cls-45" d="M1788.9,1503.8v56.1a38.73,38.73,0,0,1-38.7,38.7H1610V1479.4h152.2s20.1.5,24.6,24.4Z" transform="translate(0 -33.9)"/><path class="cls-53" d="M1788.9,1493.1v10.7h-2.2c-4.4-23.9-24.6-24.4-24.6-24.4H1610v-25h140.2A38.67,38.67,0,0,1,1788.9,1493.1Z" transform="translate(0 -33.9)"/></g><g id="_Group_4" data-name="&lt;Group&gt;"><path class="cls-44" d="M1788.9,1468.7v16.9a15,15,0,0,0-15-15H1610v-13.2h168.7s7.8,2.7,9.7,7.7c.1.2.1.5.2.7a6.75,6.75,0,0,1,.2,1.4C1788.8,1467.7,1788.9,1468.2,1788.9,1468.7Z" transform="translate(0 -33.9)"/><path class="cls-54" d="M1773.9,1453.7a14.9,14.9,0,0,1,14.5,11.4c-1.9-5-9.7-7.7-9.7-7.7H1610v-3.6h163.9Z" transform="translate(0 -33.9)"/></g><polygon class="cls-55" points="1727.3 1320.8 1630.1 1320.8 1630.1 1304.3 1723.4 1304.3 1727.3 1320.8"/><rect class="cls-56" x="1521.4" y="1539" width="62.3" height="13.6"/><path class="cls-57" d="M1636.8,1598.5h116.4s-1,7.2-1.5,8.9H1638.3S1637,1601.3,1636.8,1598.5Z" transform="translate(0 -33.9)"/><path class="cls-58" d="M607.4,986.6h-4.7a20.78,20.78,0,0,0-20.8,20.8v72.9a2.43,2.43,0,0,0,2.4,2.4h0a2.43,2.43,0,0,0,2.4-2.4v-71.5a17.46,17.46,0,0,1,17.5-17.5h3.3v-4.7Z" transform="translate(0 -33.9)"/><path class="cls-58" d="M623.4,1118h-3.1a4.48,4.48,0,0,1-4.5-4.5v-79.8H628v79.8A4.63,4.63,0,0,1,623.4,1118Z" transform="translate(0 -33.9)"/><path class="cls-58" d="M709.9,1023.8v32.4h2.6a17.63,17.63,0,0,1,17.6,17.6v40.3a3.9,3.9,0,0,0,3.9,3.9h4.4a3.9,3.9,0,0,0,3.9-3.9v-90.3Z" transform="translate(0 -33.9)"/><path class="cls-59" d="M639.9,1071.6a22.78,22.78,0,1,0-36.3-18.3,22.45,22.45,0,0,0,9.3,18.3l-3.1,5.4a2.56,2.56,0,0,0,4.4,2.6l3.1-5.4a24.82,24.82,0,0,0,6.6,1.8v6.2a2.5,2.5,0,0,0,5,0V1076a24.82,24.82,0,0,0,6.6-1.8l3.1,5.4a2.56,2.56,0,0,0,4.4-2.6Z" transform="translate(0 -33.9)"/><path id="SVGID" class="cls-15" d="M786.2,979.2H761.3v.1H610.4a22,22,0,0,0-21.8,25.1l4.3,30.8v78.3a4.48,4.48,0,0,0,4.5,4.5h3.1a4.48,4.48,0,0,0,4.5-4.5v-35.4a21.89,21.89,0,0,1,21.9-21.9h80.4v57.9a3.9,3.9,0,0,0,3.9,3.9h4.4a3.9,3.9,0,0,0,3.9-3.9V1074a22.18,22.18,0,0,1,13.9-20.6,38.52,38.52,0,0,0,19.5-17.6l10.4-17.4a22.87,22.87,0,0,1,19.7-11.1h3.2V979.2Z" transform="translate(0 -33.9)"/><g class="cls-60"><path class="cls-24" d="M620.6,1028.2h0a15.58,15.58,0,0,1-15.5-15.5V979.3a15.58,15.58,0,0,1,15.5-15.5h0a15.58,15.58,0,0,1,15.5,15.5v33.4A15.58,15.58,0,0,1,620.6,1028.2Z" transform="translate(0 -33.9)"/></g><g class="cls-60"><path class="cls-24" d="M645.3,1040.3h0a18.48,18.48,0,0,1-18.4-18.4V982.3a18.48,18.48,0,0,1,18.4-18.4h0a18.48,18.48,0,0,1,18.4,18.4v39.6A18.55,18.55,0,0,1,645.3,1040.3Z" transform="translate(0 -33.9)"/></g><g class="cls-60"><path class="cls-24" d="M698.5,1031.4h0a8.71,8.71,0,0,1,8.7,8.7v18.8a8.71,8.71,0,0,1-8.7,8.7h0a8.71,8.71,0,0,1-8.7-8.7v-18.8A8.64,8.64,0,0,1,698.5,1031.4Z" transform="translate(0 -33.9)"/></g><g class="cls-60"><path class="cls-24" d="M684.6,1024.6h0A10.46,10.46,0,0,1,695,1035v22.3a10.46,10.46,0,0,1-10.4,10.4h0a10.46,10.46,0,0,1-10.4-10.4V1035A10.46,10.46,0,0,1,684.6,1024.6Z" transform="translate(0 -33.9)"/></g><g class="cls-60"><path class="cls-24" d="M772.9,1033.7h0a9.6,9.6,0,0,1-9.6,9.6H742.6a9.6,9.6,0,0,1-9.6-9.6h0a9.6,9.6,0,0,1,9.6-9.6h20.7A9.67,9.67,0,0,1,772.9,1033.7Z" transform="translate(0 -33.9)"/></g><g class="cls-60"><path class="cls-24" d="M592.7,1073.8h0a9.6,9.6,0,0,1-9.6-9.6v-20.7a9.6,9.6,0,0,1,9.6-9.6h0a9.6,9.6,0,0,1,9.6,9.6v20.7A9.73,9.73,0,0,1,592.7,1073.8Z" transform="translate(0 -33.9)"/></g><g class="cls-60"><path class="cls-24" d="M727.5,966.4h0a8.87,8.87,0,0,0-6.7,3.1,10.37,10.37,0,0,0-16.8,2.9H692.2a8.81,8.81,0,0,0-8.8,8.8h0a8.81,8.81,0,0,0,8.8,8.8h1.6a9.18,9.18,0,0,1,9.2,9.2h0a10.68,10.68,0,0,0,10.2,10.7,10.46,10.46,0,0,0,10.4-7.8,8.6,8.6,0,0,0,3.9.9h0a8.81,8.81,0,0,0,8.8-8.8v-19A8.88,8.88,0,0,0,727.5,966.4Z" transform="translate(0 -33.9)"/></g><g class="cls-60"><path class="cls-58" d="M788,966.5l-26.3,4.7a5.4,5.4,0,0,0-4.3,6.6l8.7,34.8a8.75,8.75,0,0,0,4.2,5.5c1.3,4.2,7.4,6.6,14.3,5.4s11.8-5.6,11.5-9.9a8.89,8.89,0,0,0,2.1-6.7l-3.8-35.6A5.45,5.45,0,0,0,788,966.5Z" transform="translate(0 -33.9)"/></g><g class="cls-60"><path class="cls-58" d="M763,1000.2l-.9-3.5a23,23,0,0,0-22.2-17.5h0l-2-16.2,48.6-1.2,5.1,32.8Z" transform="translate(0 -33.9)"/></g><path class="cls-24" d="M759.5,981.3l-11.1,5.2h0a13.27,13.27,0,0,1,6.4-17.6l11.1-5.2h0A13.19,13.19,0,0,1,759.5,981.3Z" transform="translate(0 -33.9)"/><path class="cls-24" d="M805.1,973.2l12.2,1.1h0a13.39,13.39,0,0,0-12.1-14.4L793,958.8h0A13.4,13.4,0,0,0,805.1,973.2Z" transform="translate(0 -33.9)"/><path id="SVGID-2" data-name="SVGID" class="cls-15" d="M792.7,958.9l-26.3,4.7a5.4,5.4,0,0,0-4.3,6.6l8.7,34.8a8.75,8.75,0,0,0,4.2,5.5,8.07,8.07,0,0,0,5.7,1c-.3-1.9,2.8-4.1,6.9-4.8s7.7.2,8.1,2.1a8.79,8.79,0,0,0,5-2.9,8.89,8.89,0,0,0,2.1-6.7L799,963.6A5.54,5.54,0,0,0,792.7,958.9Z" transform="translate(0 -33.9)"/><g class="cls-61"><path class="cls-24" d="M788.9,950h0a11.41,11.41,0,0,0-4.8,2l-.4-2.1a7,7,0,0,0-7.5-5.8,6.9,6.9,0,0,0-6.1,8.1l2,11.3a7,7,0,0,0,4.2,5.2,8,8,0,0,1,4.8,6l1.6,8.9a12,12,0,0,0,13.9,9.7h0a12,12,0,0,0,9.7-13.9l-3.5-19.6A12,12,0,0,0,788.9,950Z" transform="translate(0 -33.9)"/></g><ellipse class="cls-24" cx="775.3" cy="986.97" rx="2.3" ry="1.3" transform="translate(-160.42 116.63) rotate(-10.06)"/><ellipse class="cls-15" cx="791.7" cy="984.06" rx="2.3" ry="1.3" transform="translate(-159.66 119.45) rotate(-10.06)"/><path id="SVGID-3" data-name="SVGID" class="cls-59" d="M800.4,1006.3a5,5,0,0,1-6.1.9,11,11,0,0,0-6.7-.5,11.58,11.58,0,0,0-6.1,2.8,5.25,5.25,0,0,1-5.9,1.3l-.6-.3c1.3,4.2,7.4,6.6,14.3,5.4s11.8-5.6,11.5-9.9A1.4,1.4,0,0,0,800.4,1006.3Z" transform="translate(0 -33.9)"/><g class="cls-62"><circle class="cls-45" cx="785.8" cy="981.7" r="1.8"/></g><g class="cls-62"><circle class="cls-45" cx="792.3" cy="980.5" r="1.8"/></g><path class="cls-58" d="M864.5,1117.7h3.1a13.61,13.61,0,0,1,13.6,13.6v47.5a1.54,1.54,0,0,1-1.5,1.5h0a1.54,1.54,0,0,1-1.5-1.5v-46.6a11.39,11.39,0,0,0-11.4-11.4h-2.2v-3.1Z" transform="translate(0 -33.9)"/><path class="cls-58" d="M852.3,1205h2.1a3,3,0,0,0,3-3v-52.8h-8V1202A3,3,0,0,0,852.3,1205Z" transform="translate(0 -33.9)"/><path class="cls-58" d="M795,1142.6v21.5h-1.8a11.72,11.72,0,0,0-11.7,11.7v26.7a2.58,2.58,0,0,1-2.6,2.6H776a2.58,2.58,0,0,1-2.6-2.6v-59.8H795Z" transform="translate(0 -33.9)"/><path id="SVGID-4" data-name="SVGID" class="cls-15" d="M744.5,1113.1H761v.1h99.9a14.53,14.53,0,0,1,14.4,16.6l-2.9,20.4v51.9a3,3,0,0,1-3,3h-2.1a3,3,0,0,1-3-3v-23.4a14.51,14.51,0,0,0-14.5-14.5H796.6v38.3a2.58,2.58,0,0,1-2.6,2.6h-2.9a2.58,2.58,0,0,1-2.6-2.6V1176a14.94,14.94,0,0,0-9.2-13.7,25.41,25.41,0,0,1-12.9-11.7l-6.9-11.5a15.11,15.11,0,0,0-13-7.4h-2.1v-18.6Z" transform="translate(0 -33.9)"/><g class="cls-63"><path class="cls-24" d="M854.4,1138.2h0a8.13,8.13,0,0,0,8.1-8.1v-17.4a8.13,8.13,0,0,0-8.1-8.1h0a8.13,8.13,0,0,0-8.1,8.1v17.4A8.13,8.13,0,0,0,854.4,1138.2Z" transform="translate(0 -33.9)"/></g><g class="cls-63"><path class="cls-24" d="M841.6,1144.5h0a9.6,9.6,0,0,0,9.6-9.6v-20.6a9.6,9.6,0,0,0-9.6-9.6h0a9.6,9.6,0,0,0-9.6,9.6v20.6A9.6,9.6,0,0,0,841.6,1144.5Z" transform="translate(0 -33.9)"/></g><g class="cls-63"><path class="cls-24" d="M782.5,1104.6h0a6.58,6.58,0,0,1,4.8,2.2,7.32,7.32,0,0,1,5.3-2.2,7.71,7.71,0,0,1,6.8,4.3h8.5a6.27,6.27,0,0,1,6.3,6.3h0a6.27,6.27,0,0,1-6.3,6.3h-1.1a6.66,6.66,0,0,0-6.6,6.6h0a7.63,7.63,0,0,1-7.3,7.7,7.54,7.54,0,0,1-7.5-5.6,6.81,6.81,0,0,1-2.8.7h0a6.27,6.27,0,0,1-6.3-6.3V1111A6.15,6.15,0,0,1,782.5,1104.6Z" transform="translate(0 -33.9)"/></g><g class="cls-63"><path class="cls-58" d="M746.5,1104.6l17.4,3.1a3.61,3.61,0,0,1,2.8,4.4l-5.7,23a5.85,5.85,0,0,1-2.8,3.7c-.8,2.8-4.9,4.4-9.4,3.6s-7.8-3.7-7.6-6.6a5.86,5.86,0,0,1-1.4-4.4l2.5-23.6A3.71,3.71,0,0,1,746.5,1104.6Z" transform="translate(0 -33.9)"/></g><g class="cls-63"><path class="cls-58" d="M763.1,1126.9l.6-2.3a15.17,15.17,0,0,1,14.7-11.6h0l1.3-10.7-32.2-.8-3.4,21.7Z" transform="translate(0 -33.9)"/></g><path class="cls-24" d="M766.9,1116.8l7.3,3.4h0a8.76,8.76,0,0,0-4.2-11.7l-7.3-3.4h0A8.73,8.73,0,0,0,766.9,1116.8Z" transform="translate(0 -33.9)"/><path class="cls-58" d="M736.7,1111.5l-8.1.7h0a8.83,8.83,0,0,1,8-9.5l8.1-.7h0A8.74,8.74,0,0,1,736.7,1111.5Z" transform="translate(0 -33.9)"/><path id="SVGID-5" data-name="SVGID" class="cls-15" d="M745,1102l17.4,3.1a3.61,3.61,0,0,1,2.8,4.4l-5.7,23a5.85,5.85,0,0,1-2.8,3.7,6.07,6.07,0,0,1-3.8.7c.2-1.3-1.9-2.7-4.6-3.2s-5.1.1-5.4,1.4a6.42,6.42,0,0,1-3.3-1.9,5.86,5.86,0,0,1-1.4-4.4l2.5-23.6A3.79,3.79,0,0,1,745,1102Z" transform="translate(0 -33.9)"/><ellipse class="cls-24" cx="756.19" cy="1120.56" rx="0.8" ry="1.5" transform="translate(-479.19 1635.57) rotate(-79.94)"/><ellipse class="cls-24" cx="745.3" cy="1118.61" rx="0.8" ry="1.5" transform="translate(-486.26 1623.25) rotate(-79.94)"/><path id="SVGID-6" data-name="SVGID" class="cls-59" d="M739.9,1133.4a3.35,3.35,0,0,0,4,.6,6.88,6.88,0,0,1,4.4-.3,6.54,6.54,0,0,1,4,1.9,3.42,3.42,0,0,0,3.9.9c.1-.1.3-.1.4-.2-.8,2.8-4.9,4.4-9.4,3.6s-7.8-3.7-7.6-6.6C739.8,1133.2,739.8,1133.3,739.9,1133.4Z" transform="translate(0 -33.9)"/><g class="cls-64"><circle class="cls-45" cx="749.6" cy="1105.6" r="1.2"/></g><g class="cls-64"><circle class="cls-45" cx="745.2" cy="1104.9" r="1.2"/></g><path class="cls-58" d="M639.6,1251.3h5.5a24.33,24.33,0,0,1,24.3,24.3v85a2.69,2.69,0,0,1-2.7,2.7h0a2.69,2.69,0,0,1-2.7-2.7v-83.4a20.36,20.36,0,0,0-20.4-20.4h-3.9v-5.5Z" transform="translate(0 -33.9)"/><path class="cls-58" d="M620,1397.5h3.5a5.12,5.12,0,0,0,5.1-5.1v-89.7H614.9v89.7A5.06,5.06,0,0,0,620,1397.5Z" transform="translate(0 -33.9)"/><path class="cls-58" d="M522.7,1291.7v36.4h-3a19.85,19.85,0,0,0-19.8,19.8v45.3a4.27,4.27,0,0,1-4.3,4.3h-5a4.27,4.27,0,0,1-4.3-4.3V1291.7h36.4Z" transform="translate(0 -33.9)"/><path class="cls-59" d="M601.4,1345.3a25.6,25.6,0,1,1,40.8-20.6,25.42,25.42,0,0,1-10.4,20.6l3.5,6.1a2.85,2.85,0,0,1-4.9,2.9l-3.5-6.1a26.11,26.11,0,0,1-7.4,2v7a2.8,2.8,0,0,1-5.6,0v-7a26.11,26.11,0,0,1-7.4-2l-3.5,6.1a2.85,2.85,0,0,1-4.9-2.9Z" transform="translate(0 -33.9)"/><path id="SVGID-7" data-name="SVGID" class="cls-15" d="M634.6,1241.6H487.3a55.19,55.19,0,0,0-48.1,28.1l-17.6,31.1,35.6,20.1,8.8-15.6a4.69,4.69,0,0,1,8.1-.1h0a43,43,0,0,0,22,19.8,25,25,0,0,1,15.7,23.2v45.1a4.27,4.27,0,0,0,4.3,4.3h5a4.27,4.27,0,0,0,4.3-4.3v-65.1h90.4a24.58,24.58,0,0,1,24.6,24.6v39.8a5.12,5.12,0,0,0,5.1,5.1H649a5.12,5.12,0,0,0,5.1-5.1v-88l4.9-34.7A24.73,24.73,0,0,0,634.6,1241.6Z" transform="translate(0 -33.9)"/><g class="cls-65"><path class="cls-24" d="M651.8,1277.7h0a16.37,16.37,0,0,0,16.3-16.3v-35a16.37,16.37,0,0,0-16.3-16.3h0a16.37,16.37,0,0,0-16.3,16.3v35A16.43,16.43,0,0,0,651.8,1277.7Z" transform="translate(0 -33.9)"/><path class="cls-24" d="M625.9,1290.4h0a19.38,19.38,0,0,0,19.3-19.3v-41.6a19.38,19.38,0,0,0-19.3-19.3h0a19.38,19.38,0,0,0-19.3,19.3v41.6A19.38,19.38,0,0,0,625.9,1290.4Z" transform="translate(0 -33.9)"/><path class="cls-24" d="M578.3,1307.3h0a9.82,9.82,0,0,0-9.8,9.8v21.1a9.82,9.82,0,0,0,9.8,9.8h0a9.82,9.82,0,0,0,9.8-9.8v-21.1A9.82,9.82,0,0,0,578.3,1307.3Z" transform="translate(0 -33.9)"/><path class="cls-24" d="M593.9,1299.6h0a11.61,11.61,0,0,0-11.6,11.6v25.1a11.61,11.61,0,0,0,11.6,11.6h0a11.61,11.61,0,0,0,11.6-11.6v-25.1A11.67,11.67,0,0,0,593.9,1299.6Z" transform="translate(0 -33.9)"/><path class="cls-24" d="M428.4,1266.8h0a10.88,10.88,0,0,0,10.8,10.8h23.3a10.88,10.88,0,0,0,10.8-10.8h0a10.88,10.88,0,0,0-10.8-10.8H439.2A10.75,10.75,0,0,0,428.4,1266.8Z" transform="translate(0 -33.9)"/><path class="cls-24" d="M525.6,1355.3h0a10.88,10.88,0,0,0,10.8-10.8v-23.3a10.88,10.88,0,0,0-10.8-10.8h0a10.88,10.88,0,0,0-10.8,10.8v23.3A10.82,10.82,0,0,0,525.6,1355.3Z" transform="translate(0 -33.9)"/><path class="cls-24" d="M525.4,1212.6h0a12.65,12.65,0,0,1,9.6,4.4,15.12,15.12,0,0,1,24.3,4.2h17.1a12.72,12.72,0,0,1,12.7,12.7h0a12.72,12.72,0,0,1-12.7,12.7h-2.3a13.36,13.36,0,0,0-13.3,13.3h0a15.25,15.25,0,0,1-14.6,15.4,15.09,15.09,0,0,1-15-11.3,12,12,0,0,1-5.7,1.4h0a12.72,12.72,0,0,1-12.7-12.7v-27.4A12.57,12.57,0,0,1,525.4,1212.6Z" transform="translate(0 -33.9)"/></g><g class="cls-65"><path class="cls-58" d="M434.6,1292l29.5,5.7a6.1,6.1,0,0,1,4.7,7.5l-10.3,38.9a9.6,9.6,0,0,1-4.8,6.1,10.28,10.28,0,0,1-6.5,1.1c.3-2.2-3.1-4.6-7.7-5.5s-8.7.1-9.2,2.2a10.29,10.29,0,0,1-5.6-3.3,9.51,9.51,0,0,1-2.2-7.5l4.9-40A6.11,6.11,0,0,1,434.6,1292Z" transform="translate(0 -33.9)"/></g><g class="cls-65"><path class="cls-58" d="M430.7,1292.5s-2.9,5-7.6,5.4l-3.8,5.7,37.8,17.3s12.7-17.8,15.9-17.6c0,0-1.2-3.8-7.5-5.4C459.4,1296.6,430.7,1292.5,430.7,1292.5Z" transform="translate(0 -33.9)"/></g><path class="cls-24" d="M464.8,1321.7l12.4,6h0a14.89,14.89,0,0,0-6.9-19.9l-12.4-6h0A14.89,14.89,0,0,0,464.8,1321.7Z" transform="translate(0 -33.9)"/><path class="cls-58" d="M413.7,1311.8l-13.7,1h0a14.89,14.89,0,0,1,13.8-15.9l13.7-1h0A14.89,14.89,0,0,1,413.7,1311.8Z" transform="translate(0 -33.9)"/><path id="SVGID-8" data-name="SVGID" class="cls-15" d="M428,1296l29.5,5.7a6.1,6.1,0,0,1,4.7,7.5l-10.3,38.9a9.6,9.6,0,0,1-4.8,6.1,10.28,10.28,0,0,1-6.5,1.1c.3-2.2-3.1-4.6-7.7-5.5s-8.7.1-9.2,2.2a10.29,10.29,0,0,1-5.6-3.3,9.51,9.51,0,0,1-2.2-7.5l4.9-40A6,6,0,0,1,428,1296Z" transform="translate(0 -33.9)"/><g class="cls-66"><circle class="cls-24" cx="452.7" cy="1308.1" r="22.2"/></g><ellipse class="cls-15" cx="446.8" cy="1327.98" rx="1.4" ry="2.6" transform="translate(-941.79 1481.13) rotate(-79.08)"/><ellipse class="cls-24" cx="428.53" cy="1324.45" rx="1.4" ry="2.6" transform="translate(-953.13 1460.34) rotate(-79.08)"/><path id="SVGID-9" data-name="SVGID" class="cls-59" d="M418.5,1349.1a5.92,5.92,0,0,0,6.9,1.2,12.8,12.8,0,0,1,7.5-.5,13.1,13.1,0,0,1,6.8,3.2,5.75,5.75,0,0,0,6.6,1.6,2.52,2.52,0,0,0,.7-.4c-1.5,4.7-8.5,7.3-16.1,5.8s-13.1-6.4-12.8-11.3Z" transform="translate(0 -33.9)"/><g class="cls-67"><circle class="cls-45" cx="434.7" cy="1325.9" r="2"/></g><g class="cls-67"><circle class="cls-45" cx="427.4" cy="1324.5" r="2"/></g><path class="cls-58" d="M741.7,1432h-5.6a24.75,24.75,0,0,0-24.7,24.7v86.4a2.79,2.79,0,0,0,2.8,2.8h0a2.8,2.8,0,0,0,2.8-2.8v-84.8a20.68,20.68,0,0,1,20.7-20.7h4Z" transform="translate(0 -33.9)"/><path class="cls-58" d="M760.7,1587.8H757a5.27,5.27,0,0,1-5.3-5.3v-94.6H766v94.6A5.34,5.34,0,0,1,760.7,1587.8Z" transform="translate(0 -33.9)"/><path class="cls-58" d="M863.2,1476.2v38.4h3.1a20.89,20.89,0,0,1,20.9,20.9v47.8a4.59,4.59,0,0,0,4.6,4.6H897a4.59,4.59,0,0,0,4.6-4.6v-107H863.2Z" transform="translate(0 -33.9)"/><path class="cls-59" d="M780.2,1532.7a27,27,0,1,0-32,0l-3.7,6.4a3,3,0,1,0,5.2,3l3.7-6.4a25.74,25.74,0,0,0,7.8,2.1v7.4a3,3,0,0,0,6,0v-7.4a25,25,0,0,0,7.8-2.1l3.7,6.4a3,3,0,1,0,5.2-3Z" transform="translate(0 -33.9)"/><path id="SVGID-10" data-name="SVGID" class="cls-15" d="M953.7,1423.3H924.2v.1H745.3a26.08,26.08,0,0,0-25.8,29.7l5.1,36.6v92.8a5.27,5.27,0,0,0,5.3,5.3h3.7a5.27,5.27,0,0,0,5.3-5.3v-41.9a25.91,25.91,0,0,1,25.9-25.9h95.3v68.6a4.59,4.59,0,0,0,4.6,4.6h5.2a4.59,4.59,0,0,0,4.6-4.6v-47.5a26.42,26.42,0,0,1,16.5-24.5,45.55,45.55,0,0,0,23.2-20.9l12.3-20.6a27.06,27.06,0,0,1,23.3-13.2h3.7v-33.3Z" transform="translate(0 -33.9)"/><g class="cls-68"><path class="cls-24" d="M840.1,1443.8h0a10.93,10.93,0,0,1-10.9-10.9v-23.5a10.93,10.93,0,0,1,10.9-10.9h0a10.93,10.93,0,0,1,10.9,10.9v23.5A10.93,10.93,0,0,1,840.1,1443.8Z" transform="translate(0 -33.9)"/></g><g class="cls-68"><path class="cls-24" d="M857.5,1452.3h0a12.93,12.93,0,0,1-12.9-12.9v-27.9a12.93,12.93,0,0,1,12.9-12.9h0a12.93,12.93,0,0,1,12.9,12.9v27.9A12.93,12.93,0,0,1,857.5,1452.3Z" transform="translate(0 -33.9)"/></g><g class="cls-68"><path class="cls-24" d="M826.2,1492.3h0a10.29,10.29,0,0,1,10.3,10.3v22.3a10.29,10.29,0,0,1-10.3,10.3h0a10.29,10.29,0,0,1-10.3-10.3v-22.3A10.35,10.35,0,0,1,826.2,1492.3Z" transform="translate(0 -33.9)"/></g><g class="cls-68"><path class="cls-24" d="M809.7,1484.2h0a12.29,12.29,0,0,1,12.3,12.3V1523a12.29,12.29,0,0,1-12.3,12.3h0a12.29,12.29,0,0,1-12.3-12.3v-26.5A12.49,12.49,0,0,1,809.7,1484.2Z" transform="translate(0 -33.9)"/></g><g class="cls-68"><path class="cls-24" d="M924.1,1486.6h0a10.71,10.71,0,0,1-10.7,10.7H890.3a10.71,10.71,0,0,1-10.7-10.7h0a10.71,10.71,0,0,1,10.7-10.7h23.1A10.71,10.71,0,0,1,924.1,1486.6Z" transform="translate(0 -33.9)"/></g><g class="cls-68"><path class="cls-24" d="M747.8,1508.1h0a11.39,11.39,0,0,1-11.4,11.4H711.8a11.4,11.4,0,0,1-11.4-11.4h0a11.39,11.39,0,0,1,11.4-11.4h24.6A11.39,11.39,0,0,1,747.8,1508.1Z" transform="translate(0 -33.9)"/></g><g class="cls-68"><path class="cls-24" d="M733,1404.7h0a13.91,13.91,0,0,1,10.5,4.8,16.39,16.39,0,0,1,11.7-4.8,16.74,16.74,0,0,1,14.9,9.4h18.7a13.93,13.93,0,0,1,13.9,13.9h0a13.93,13.93,0,0,1-13.9,13.9h-2.5a14.62,14.62,0,0,0-14.6,14.6h0a16.57,16.57,0,0,1-32.6,4.5,14.53,14.53,0,0,1-6.2,1.5h0a13.93,13.93,0,0,1-13.9-13.9v-30A14.15,14.15,0,0,1,733,1404.7Z" transform="translate(0 -33.9)"/></g><g class="cls-68"><path class="cls-58" d="M949.3,1408.2l-31.2,5.5a6.37,6.37,0,0,0-5.1,7.8l10.3,41.2a10.08,10.08,0,0,0,5,6.5c1.5,5,8.8,7.8,16.9,6.4s13.9-6.6,13.7-11.8a10.49,10.49,0,0,0,2.5-7.9l-4.5-42.2A6.48,6.48,0,0,0,949.3,1408.2Z" transform="translate(0 -33.9)"/></g><g class="cls-68"><path class="cls-58" d="M919.7,1448.1l-1-4.2a27.16,27.16,0,0,0-26.3-20.7h0l-2.3-19.2,57.7-1.4,6.1,38.9Z" transform="translate(0 -33.9)"/></g><path class="cls-58" d="M926.9,1422.3l-14.5-.4h0a15.67,15.67,0,0,1,16.1-15.3l14.5.4h0A15.67,15.67,0,0,1,926.9,1422.3Z" transform="translate(0 -33.9)"/><path class="cls-24" d="M979.5,1437.9l12.4,7.6h0a15.73,15.73,0,0,0-5.2-21.6l-12.4-7.6h0A15.77,15.77,0,0,0,979.5,1437.9Z" transform="translate(0 -33.9)"/><path id="SVGID-11" data-name="SVGID" class="cls-15" d="M973.9,1416.1l-30.4-9a6.38,6.38,0,0,0-8,4.7l-9.2,41.5a10.81,10.81,0,0,0,1.5,8.1,10.35,10.35,0,0,0,5.5,4.1c.7-2.2,5.1-2.8,9.9-1.4s8.1,4.3,7.5,6.6a9.91,9.91,0,0,0,6.8-.4,10.23,10.23,0,0,0,5.7-6l14.8-39.8A6.4,6.4,0,0,0,973.9,1416.1Z" transform="translate(0 -33.9)"/><g class="cls-69"><path class="cls-24" d="M947.3,1396.2h0a14.59,14.59,0,0,0-6.2-.4l.7-2.4a8.16,8.16,0,1,0-15.6-4.8l-3.8,13a8.15,8.15,0,0,0,1.7,7.7,9.4,9.4,0,0,1,1.9,8.8l-3,10.3a14.34,14.34,0,0,0,9.6,17.7h0a14.34,14.34,0,0,0,17.7-9.6l6.7-22.6A14.44,14.44,0,0,0,947.3,1396.2Z" transform="translate(0 -33.9)"/></g><ellipse class="cls-15" cx="940.74" cy="1436.71" rx="1.5" ry="2.7" transform="translate(-703.83 1897.3) rotate(-73.52)"/><ellipse class="cls-24" cx="959.6" cy="1442.34" rx="1.5" ry="2.7" transform="translate(-695.72 1919.41) rotate(-73.52)"/><path id="SVGID-12" data-name="SVGID" class="cls-59" d="M956.9,1470.4a6.27,6.27,0,0,1-7-2.2,13.41,13.41,0,0,0-6.8-4.1c-3.1-.9-6.1-1-8-.3a6,6,0,0,1-6.9-1.8c-.2-.2-.3-.5-.5-.7-.9,5.1,4.4,10.9,12.3,13.3s15.4.3,17.5-4.4A1.42,1.42,0,0,1,956.9,1470.4Z" transform="translate(0 -33.9)"/><g class="cls-70"><circle class="cls-45" cx="936.5" cy="1438.6" r="2.1"/></g><g class="cls-70"><circle class="cls-45" cx="944.1" cy="1440.9" r="2.1"/></g><path class="cls-58" d="M383.2,1409.9H380a14.4,14.4,0,0,0-14.4,14.4v50.3a1.58,1.58,0,0,0,1.6,1.6h0a1.58,1.58,0,0,0,1.6-1.6v-49.4a12.08,12.08,0,0,1,12.1-12.1h2.3Z" transform="translate(0 -33.9)"/><path class="cls-58" d="M394.2,1500.6H392a3.12,3.12,0,0,1-3.1-3.1v-55.1h8.4v55.1A3.12,3.12,0,0,1,394.2,1500.6Z" transform="translate(0 -33.9)"/><path class="cls-58" d="M454,1435.6V1458h1.8a12.18,12.18,0,0,1,12.2,12.2V1498a2.69,2.69,0,0,0,2.7,2.7h3.1a2.69,2.69,0,0,0,2.7-2.7v-62.4Z" transform="translate(0 -33.9)"/><path id="SVGID-13" data-name="SVGID" class="cls-15" d="M506.6,1404.8H489.4v.1H385.3a15.18,15.18,0,0,0-15,17.3l3,21.3v54.1a3.12,3.12,0,0,0,3.1,3.1h2.2a3.12,3.12,0,0,0,3.1-3.1v-24.4a15.15,15.15,0,0,1,15.1-15.1h55.5v40a2.69,2.69,0,0,0,2.7,2.7h3.1a2.69,2.69,0,0,0,2.7-2.7v-27.7a15.22,15.22,0,0,1,9.6-14.2,26.36,26.36,0,0,0,13.5-12.2l7.2-12a15.82,15.82,0,0,1,13.6-7.7h2.2v-19.5Z" transform="translate(0 -33.9)"/><g class="cls-71"><path class="cls-24" d="M432.4,1445h0a6,6,0,0,1,6,6v13a6,6,0,0,1-6,6h0a6,6,0,0,1-6-6v-13A6,6,0,0,1,432.4,1445Z" transform="translate(0 -33.9)"/></g><g class="cls-71"><path class="cls-24" d="M422.8,1440.3h0a7.13,7.13,0,0,1,7.1,7.1v15.4a7.13,7.13,0,0,1-7.1,7.1h0a7.13,7.13,0,0,1-7.1-7.1v-15.4A7.06,7.06,0,0,1,422.8,1440.3Z" transform="translate(0 -33.9)"/></g><g class="cls-71"><path class="cls-24" d="M491.1,1438.8h0a6.23,6.23,0,0,1-6.2,6.2H471.4a6.23,6.23,0,0,1-6.2-6.2h0a6.23,6.23,0,0,1,6.2-6.2h13.5A6.23,6.23,0,0,1,491.1,1438.8Z" transform="translate(0 -33.9)"/></g><g class="cls-71"><path class="cls-24" d="M378.1,1394h0a8.18,8.18,0,0,1,6.1,2.8,9.64,9.64,0,0,1,15.5,2.7h10.9a8.13,8.13,0,0,1,8.1,8.1h0a8.13,8.13,0,0,1-8.1,8.1h-1.5a8.49,8.49,0,0,0-8.5,8.5h0a9.88,9.88,0,0,1-9.3,9.9,9.7,9.7,0,0,1-9.6-7.2,8.7,8.7,0,0,1-3.6.9h0a8.13,8.13,0,0,1-8.1-8.1v-17.5A8.09,8.09,0,0,1,378.1,1394Z" transform="translate(0 -33.9)"/></g><g class="cls-71"><path class="cls-58" d="M504.1,1396l-18.2,3.2a3.82,3.82,0,0,0-3,4.6l6,24a5.93,5.93,0,0,0,2.9,3.8c.9,2.9,5.1,4.6,9.8,3.7s8.1-3.8,8-6.9a5.81,5.81,0,0,0,1.4-4.6l-2.6-24.6A3.64,3.64,0,0,0,504.1,1396Z" transform="translate(0 -33.9)"/></g><g class="cls-71"><path class="cls-58" d="M486.8,1419.3l-.6-2.4a15.81,15.81,0,0,0-15.3-12.1h0l-1.4-11.2,33.6-.8,3.5,22.7Z" transform="translate(0 -33.9)"/></g><path class="cls-58" d="M491,1404.2l-8.5-.2h0a9.1,9.1,0,0,1,9.4-8.9l8.5.2h0A9,9,0,0,1,491,1404.2Z" transform="translate(0 -33.9)"/><path class="cls-24" d="M521.7,1413.3l7.2,4.4h0a9.2,9.2,0,0,0-3-12.6l-7.2-4.4h0A9.11,9.11,0,0,0,521.7,1413.3Z" transform="translate(0 -33.9)"/><path id="SVGID-14" data-name="SVGID" class="cls-15" d="M518.4,1400.6l-17.7-5.2a3.77,3.77,0,0,0-4.7,2.8l-5.4,24.1a5.9,5.9,0,0,0,.9,4.7,6,6,0,0,0,3.2,2.4c.4-1.3,3-1.6,5.8-.8s4.7,2.5,4.4,3.8a6,6,0,0,0,4-.2,5.73,5.73,0,0,0,3.3-3.5l8.6-23.2A3.68,3.68,0,0,0,518.4,1400.6Z" transform="translate(0 -33.9)"/><g class="cls-72"><path class="cls-24" d="M519,1394.8h0a7.35,7.35,0,0,0-3.6-.2l.4-1.4a4.76,4.76,0,1,0-9.1-2.8l-2.2,7.6a4.86,4.86,0,0,0,1,4.5,5.72,5.72,0,0,1,1.1,5.2l-1.8,6a8.28,8.28,0,0,0,5.6,10.3h0a8.28,8.28,0,0,0,10.3-5.6l3.9-13.2A8.34,8.34,0,0,0,519,1394.8Z" transform="translate(0 -33.9)"/></g><ellipse class="cls-24" cx="499.05" cy="1412.58" rx="0.9" ry="1.6" transform="translate(-997.07 1456.47) rotate(-73.52)"/><ellipse class="cls-15" cx="510.08" cy="1415.82" rx="0.9" ry="1.6" transform="translate(-992.27 1469.37) rotate(-73.52)"/><path id="SVGID-15" data-name="SVGID" class="cls-59" d="M508.5,1432.3a3.65,3.65,0,0,1-4.1-1.3,8,8,0,0,0-4-2.4,8.19,8.19,0,0,0-4.6-.2,3.53,3.53,0,0,1-4-1c-.1-.1-.2-.3-.3-.4-.5,3,2.6,6.4,7.1,7.7s9,.2,10.2-2.6C508.7,1432.2,508.6,1432.2,508.5,1432.3Z" transform="translate(0 -33.9)"/><g class="cls-73"><circle class="cls-45" cx="496.7" cy="1399.6" r="1.2"/></g><g class="cls-73"><circle class="cls-45" cx="501" cy="1400.9" r="1.2"/></g></g></g></g></g></svg>